<?xml version="1.0" encoding="UTF-8" standalone="no"?>
<svg
   xmlns:dc="http://purl.org/dc/elements/1.1/"
   xmlns:cc="http://creativecommons.org/ns#"
   xmlns:rdf="http://www.w3.org/1999/02/22-rdf-syntax-ns#"
   xmlns:svg="http://www.w3.org/2000/svg"
   xmlns="http://www.w3.org/2000/svg"
   xmlns:sodipodi="http://sodipodi.sourceforge.net/DTD/sodipodi-0.dtd"
   xmlns:inkscape="http://www.inkscape.org/namespaces/inkscape"
   height="400"
   width="300"
   version="1.0"
   id="svg2"
   inkscape:version="0.48.2 r9819"
   sodipodi:docname="Barrel_Yellow.svg">
  <metadata
     id="metadata11">
    <rdf:RDF>
      <cc:Work
         rdf:about="">
        <dc:format>image/svg+xml</dc:format>
        <dc:type
           rdf:resource="http://purl.org/dc/dcmitype/StillImage" />
      </cc:Work>
    </rdf:RDF>
  </metadata>
  <defs
     id="defs9" />
  <sodipodi:namedview
     pagecolor="#ffffff"
     bordercolor="#666666"
     borderopacity="1"
     objecttolerance="10"
     gridtolerance="10"
     guidetolerance="10"
     inkscape:pageopacity="0"
     inkscape:pageshadow="2"
     inkscape:window-width="1920"
     inkscape:window-height="1088"
     id="namedview7"
     showgrid="false"
     inkscape:zoom="6.675088"
     inkscape:cx="132.14614"
     inkscape:cy="200"
     inkscape:window-x="0"
     inkscape:window-y="0"
     inkscape:window-maximized="1"
     inkscape:current-layer="svg2" />
  <g
     id="barrel"
     height="400"
     width="300">
    <path
       d="m146 158c-5.5646 0-11.123 0.16306-17.188 0.5-9.2975 0.51653-16.932 2.2727-22.25 8.625-5.0452 6.0263-7.7256 15.281-9.7188 30.062h-8.0312v5.6562h49.031c1.2873 5.533 6.2333 9.6562 12.156 9.6562 5.925 0 10.871-4.1205 12.156-9.6562h41.469v-5.5938h-7.4688c-2.02-14.87-4.97-24.19-10.27-30.2-5.59-6.32-13.4-8.04-22.69-8.56-6.07-0.34-11.63-0.5-17.19-0.5z    m0 7c5.4272 0 10.854 0.16899 16.812 0.5 8.7061 0.48367 13.898 1.7576 17.812 6.1875 3.6318 4.1097 6.5028 11.877 8.4688 25.531l-26.938-0.0312c-1.2853-5.5357-6.2313-9.6562-12.156-9.6562-5.923 0.00001-10.869 4.1233-12.156 9.6562h-5.5312c-1.031-12.575-3.696-21.47-9.8125-31 1.9562-0.33179 4.1404-0.546 6.6875-0.6875 5.9581-0.33101 11.385-0.5 16.812-0.5z    m-30.375 3.4688c6.2843 9.1536 8.6426 16.508 9.6562 28.719h-21.344c1.9422-13.68 4.5858-21.484 8-25.562 1.0986-1.3122 2.3076-2.3421 3.6875-3.1562z    m34.38 24.03c4.14 0 7.5 3.36 7.5 7.5s-3.36 7.5-7.5 7.5-7.5-3.36-7.5-7.5 3.36-7.5 7.5-7.5z"
       id="path5" />
  </g>
  <path
     style="fill:#ffd400;fill-opacity:1;stroke:none"
     d="m 132.37926,196.96633 c -0.0314,-0.10299 -0.13589,-1.02995 -0.23218,-2.0599 -0.97293,-10.40653 -3.63423,-18.85546 -8.49256,-26.96159 -0.51709,-0.86276 -0.89102,-1.61086 -0.83095,-1.66243 0.14471,-0.12424 2.50045,-0.40933 4.82825,-0.58431 10.55008,-0.79304 31.64281,-0.67392 39.25042,0.22166 3.51781,0.41413 5.5878,0.87948 7.79016,1.75129 3.25468,1.28838 5.94372,3.67754 7.9829,7.09265 1.9576,3.2785 3.84191,9.01974 5.18508,15.79822 0.48725,2.45897 1.06396,5.89012 1.06401,6.33031 3e-5,0.24908 -0.70486,0.26095 -13.33738,0.22472 l -13.33742,-0.0383 -0.42365,-1.2235 c -2.48858,-7.18699 -10.97173,-10.50688 -17.6836,-6.92049 -1.53602,0.82075 -2.8959,1.94068 -3.91754,3.22631 -0.96732,1.21727 -1.94725,3.06024 -2.2451,4.2224 l -0.19739,0.77019 -2.67298,0 c -2.00805,0 -2.68717,-0.0466 -2.73007,-0.18727 z"
     id="path3758"
     inkscape:connector-curvature="0" />
  <path
     style="fill:#ffd400;fill-opacity:1;stroke:none"
     d="m 104.0534,196.81652 c 0.0426,-0.18539 0.24291,-1.38215 0.44523,-2.65946 1.40114,-8.84587 3.38339,-15.73496 5.66839,-19.69979 1.2991,-2.25415 2.92546,-4.12102 4.67247,-5.36345 l 0.74554,-0.53021 1.02493,1.58563 c 4.98567,7.71314 7.26577,14.42101 8.32619,24.49503 l 0.26415,2.50933 -10.61215,0 -10.61214,0 0.0774,-0.33708 0,0 z"
     id="path3760"
     inkscape:connector-curvature="0" />
</svg>
