<?xml version="1.0" encoding="UTF-8" standalone="no"?>
<svg id="svg2" xmlns:rdf="http://www.w3.org/1999/02/22-rdf-syntax-ns#" xmlns="http://www.w3.org/2000/svg" height="400" width="300" version="1.0" xmlns:cc="http://creativecommons.org/ns#" xmlns:dc="http://purl.org/dc/elements/1.1/">
 <metadata id="metadata2913">
  <rdf:RDF>
   <cc:Work rdf:about="">
    <dc:format>image/svg+xml</dc:format>
    <dc:type rdf:resource="http://purl.org/dc/dcmitype/StillImage"/>
    <dc:title/>
   </cc:Work>
  </rdf:RDF>
 </metadata>
 <g id="g2825" transform="translate(0,80)">
  <path id="path2827" d="m141.48 46.264v64.75c-1.7045 1.6489-2.9467 3.7711-3.5 6.1562h-8.4375l-0.125 5.6562h8.5625c1.2873 5.533 6.2333 9.6562 12.156 9.6562 5.925 0 10.871-4.1205 12.156-9.6562l8.3125-0.0312v-5.6562l-8.3125 0.0312c-0.58668-2.529-1.9466-4.7512-3.8125-6.4375v-64.469h-6.375-4.25-6.375zm4.0625 4.0312h8.9688v57.688h-8.9688v-57.688zm4.5938 62.188c4.14 0 7.5 3.36 7.5 7.5s-3.36 7.5-7.5 7.5-7.5-3.36-7.5-7.5 3.36-7.5 7.5-7.5z" fill-rule="evenodd" fill="#000407"/>
  <rect id="rect2829" height=".99516" width="10.076" y="78.939" x="145.15"/>
  <path id="path5201" fill="#ffd400" d="m145.59 64.627v-14.25h4.398 4.398v14.25 14.25h-4.398-4.398v-14.25z"/>
  <path id="path5203" d="m145.59 93.918v-13.986h4.398 4.398v13.986 13.986h-4.398-4.398v-13.986z"/>
 </g>
</svg>
