<?xml version="1.0" encoding="UTF-8" standalone="no"?>
<svg id="svg2" xmlns:rdf="http://www.w3.org/1999/02/22-rdf-syntax-ns#" xmlns="http://www.w3.org/2000/svg" height="400" width="300" version="1.0" xmlns:cc="http://creativecommons.org/ns#" xmlns:dc="http://purl.org/dc/elements/1.1/">
 <metadata id="metadata2913">
  <rdf:RDF>
   <cc:Work rdf:about="">
    <dc:format>image/svg+xml</dc:format>
    <dc:type rdf:resource="http://purl.org/dc/dcmitype/StillImage"/>
    <dc:title/>
   </cc:Work>
  </rdf:RDF>
 </metadata>
 <g id="layer2" transform="translate(0,60)">
  <path id="path90440-0" d="m159.43 100.24-28.062-8.8437-15.219 45.75h-7.9688v5.6562h29.688c1.2873 5.533 6.2333 9.6562 12.156 9.6562 5.925 0 10.871-4.1205 12.156-9.6562h29.844v-0.0625-5.5938h-7.6875l9-26.188-29.938-9.4375-3.9688-1.2812zm-23.031-0.21875 47.156 15.969-7.2188 21.156h-14.156c-1.2853-5.5357-6.2313-9.6562-12.156-9.6562-5.923 0.00001-10.869 4.1233-12.156 9.6562h-13.719l12.25-37.125zm13.625 32.438c4.14 0 7.5 3.36 7.5 7.5s-3.36 7.5-7.5 7.5-7.5-3.36-7.5-7.5 3.36-7.5 7.5-7.5z" fill-rule="evenodd" fill="#000407"/>
  <path id="path5425" fill="#d40000" d="m124.32 136.85c0.0705-0.25633 12.074-36.649 12.104-36.7 0.0376-0.062 46.762 15.784 46.879 15.898 0.0674 0.0662-1.3211 4.3197-3.4386 10.534l-3.5516 10.423-7.028 0.0321-7.028 0.0321-0.33601-1.0273c-1.3281-4.0604-4.5502-7.0512-8.8965-8.2582-0.63411-0.17609-1.2782-0.22542-2.9855-0.22867-1.9121-0.004-2.3055 0.0315-3.2343 0.28884-4.161 1.1529-7.4162 4.2606-8.7166 8.3214l-0.28881 0.90186h-6.7695c-6.3871 0-6.7662-0.0123-6.7096-0.21769z"/>
 </g>
</svg>
