<?xml version="1.0" encoding="UTF-8" standalone="no"?>
<svg id="svg2" xmlns:rdf="http://www.w3.org/1999/02/22-rdf-syntax-ns#" xmlns="http://www.w3.org/2000/svg" height="400" width="300" version="1.0" xmlns:cc="http://creativecommons.org/ns#" xmlns:dc="http://purl.org/dc/elements/1.1/">
 <metadata id="metadata2913">
  <rdf:RDF>
   <cc:Work rdf:about="">
    <dc:format>image/svg+xml</dc:format>
    <dc:type rdf:resource="http://purl.org/dc/dcmitype/StillImage"/>
    <dc:title/>
   </cc:Work>
  </rdf:RDF>
 </metadata>
 <g id="g3203" transform="translate(0,60)">
  <path id="path3205" d="m131.42 91.417-15.219 45.75h-7.9688v5.6562h29.688c1.2873 5.533 6.2333 9.6562 12.156 9.6562 5.925 0 10.871-4.1205 12.156-9.6562h29.844v-0.0625-5.5938h-7.6875l9.0411-26.137zm5.0312 8.625 47.156 15.969-7.2188 21.156h-14.156c-1.2853-5.5357-6.2313-9.6562-12.156-9.6562-5.923 0.00001-10.869 4.1233-12.156 9.6562h-13.719zm13.625 32.438c4.14 0 7.5 3.36 7.5 7.5s-3.36 7.5-7.5 7.5-7.5-3.36-7.5-7.5 3.36-7.5 7.5-7.5z" fill-rule="evenodd" fill="#000407"/>
  <rect id="rect3207" transform="matrix(.94832 .31730 -.31730 .94832 0 0)" height=".82490" width="49.832" y="71.421" x="160.96"/>
  <rect id="rect3209" transform="matrix(.94832 .31730 -.31730 .94832 0 0)" height=".70672" width="49.989" y="64.45" x="160.87"/>
  <rect id="rect3211" transform="matrix(.94832 .31730 -.31730 .94832 0 0)" height=".70672" width="49.989" y="57.679" x="161.02"/>
  <path id="path4176" d="m158.13 173.69c-12.891-4.3178-23.45-7.8857-23.463-7.9287-0.0131-0.043 0.38739-1.3283 0.89009-2.8561 0.65518-1.9913 0.94656-2.7703 1.029-2.7511 0.11517 0.0269 46.901 15.857 46.939 15.882 0.04 0.0264-1.8596 5.515-1.907 5.51-0.0269-0.003-10.596-3.5379-23.488-7.8557z" transform="translate(0,-60)" fill="#d40000"/>
  <path id="path4178" d="m153.75 186.71c-12.802-4.2851-23.313-7.8265-23.358-7.8698-0.0918-0.0876 1.7713-5.798 1.8917-5.798 0.11492 0 46.802 15.627 46.86 15.684 0.091 0.091-1.871 5.7374-2.0003 5.7568-0.0645 0.01-10.591-3.4884-23.393-7.7735z" transform="translate(0,-60)" fill="#d40000"/>
  <path id="path4180" d="m155.92 180.09c-12.859-4.3073-23.381-7.8721-23.381-7.9219 0-0.25535 1.8124-5.6074 1.8893-5.5791 0.0489 0.018 10.601 3.548 23.449 7.8446s23.393 7.8415 23.434 7.8776c0.0983 0.0865-1.7936 5.6355-1.9166 5.6212-0.0518-0.006-10.616-3.5351-23.475-7.8424z" transform="translate(0,-60)" fill="#00d400"/>
  <path id="path5267" d="m127.13 188.42 2.8721-8.6992 3.4514 1.1567c1.8982 0.63618 12.41 4.1533 23.36 7.8158s19.954 6.6756 20.009 6.6959c0.0714 0.0261 0.0202 0.27694-0.17591 0.8619l-0.27662 0.82512-7.0449 0.0215c-5.5948 0.0171-7.0516-0.00026-7.0773-0.0842-0.54447-1.7804-0.85888-2.5191-1.5456-3.6316-1.7575-2.8469-4.66-4.8985-7.9446-5.6154-2.7629-0.60301-5.7793-0.22688-8.2764 1.032-3.0947 1.5602-5.4626 4.3747-6.3935 7.599l-0.19588 0.67852-6.8168 0.0215-6.8168 0.0215 2.8721-8.6992z" transform="translate(0,-60)" fill="#00d400"/>
 </g>
</svg>
