<?xml version="1.0" encoding="UTF-8" standalone="no"?>
<svg id="svg2" xmlns:rdf="http://www.w3.org/1999/02/22-rdf-syntax-ns#" xmlns="http://www.w3.org/2000/svg" height="400" width="300" version="1.0" xmlns:cc="http://creativecommons.org/ns#" xmlns:dc="http://purl.org/dc/elements/1.1/">
 <metadata id="metadata2913">
  <rdf:RDF>
   <cc:Work rdf:about="">
    <dc:format>image/svg+xml</dc:format>
    <dc:type rdf:resource="http://purl.org/dc/dcmitype/StillImage"/>
    <dc:title/>
   </cc:Work>
  </rdf:RDF>
 </metadata>
 <g id="g4867" transform="translate(0,60)">
  <path id="path4869" d="m159.43 100.28-28.062-8.8438-15.219 45.75h-7.9688v5.6562h29.688c1.2873 5.533 6.2333 9.6562 12.156 9.6562 5.925 0 10.871-4.1205 12.156-9.6562h29.844v-0.0625-5.5938h-7.6875l9-26.188-29.938-9.4375-3.9688-1.2812zm-23.031-0.21875 47.156 15.969-7.2188 21.156h-14.156c-1.2853-5.5357-6.2313-9.6562-12.156-9.6562-5.923 0.00001-10.869 4.1233-12.156 9.6562h-13.719l12.25-37.125zm13.625 32.438c4.14 0 7.5 3.36 7.5 7.5s-3.36 7.5-7.5 7.5-7.5-3.36-7.5-7.5 3.36-7.5 7.5-7.5z" fill-rule="evenodd" fill="#000407"/>
  <rect id="rect5149" transform="matrix(.94832 .31730 -.31730 .94832 0 0)" height=".82490" width="49.832" y="69.827" x="161.11"/>
  <rect id="rect5151" transform="matrix(.94832 .31730 -.31730 .94832 0 0)" height=".70672" width="49.989" y="61.645" x="161.06"/>
  <path id="path5563" fill="#00d400" d="m165.47 128.94c-6.6022-2.2151-17.103-5.7389-23.336-7.8306l-11.332-3.8031 1.116-3.443c0.61379-1.8937 1.1285-3.4578 1.1437-3.476 0.0308-0.0365 46.857 15.622 46.927 15.692 0.0849 0.0849-2.267 6.8365-2.3904 6.8622-0.0684 0.0142-5.5262-1.7865-12.128-4.0016z"/>
  <path id="path5565" fill="#d40000" d="m156.82 117.42c-12.862-4.3118-23.405-7.8557-23.428-7.8754-0.0314-0.0271 2.9401-9.1888 3.0353-9.3585 0.0348-0.062 46.761 15.784 46.876 15.897 0.10724 0.10529-2.9019 9.217-3.0349 9.1897-0.0342-0.007-10.586-3.5406-23.448-7.8524z"/>
  <path id="path5567" fill="#d40000" d="m124.31 136.93c0.2045-0.89172 6.1612-18.609 6.2573-18.611 0.0699-0.002 10.628 3.5098 23.464 7.803l23.336 7.8059-0.52097 1.5577-0.52097 1.5577-7.0348 0.0321-7.0348 0.0321-0.33601-1.0273c-1.3281-4.0604-4.5502-7.0512-8.8965-8.2582-0.63411-0.17609-1.2782-0.22542-2.9855-0.22867-1.9121-0.004-2.3055 0.0315-3.2343 0.28884-4.161 1.1529-7.4162 4.2606-8.7166 8.3214l-0.28881 0.90186h-6.7642c-5.7564 0-6.7582-0.0261-6.7239-0.17537z"/>
 </g>
</svg>
