<svg
   xmlns="http://www.w3.org/2000/svg"
   xmlns:xlink="http://www.w3.org/1999/xlink"  
   version="1.1"
   width="300"
   height="400">
  <symbol id="chimney" width="300" height="400">
    <path d="m 137.71875,68.5 c -4.98441,43.00177 -9.99733,86.00032 -15,129 l -10.28125,0 0,5 22.71875,0 c 1.2044,7.06648 7.3834,12.5 14.78125,12.5 7.39785,0 13.5456,-5.43352 14.75,-12.5 l 22.75,0 0,-5 -10.28125,0 c -4.89879,-43.01142 -10.15298,-85.98272 -15,-129 -8.87992,0 -16.4893,0 -24.4375,0 z m 4.4375,5 15.5625,0 14.4375,124 -7.46875,0 c -1.2044,-7.06648 -7.35215,-12.5 -14.75,-12.5 -7.39785,0 -13.57685,5.43352 -14.78125,12.5 l -7.4375,0 z M 149.9375,190 c 5.55246,0 10,4.44754 10,10 0,5.55246 -4.44754,10 -10,10 -5.55246,0 -10,-4.44754 -10,-10 0,-5.55246 4.44754,-10 10,-10 z"/>
    <path d="m 186.25,27.5625 c -0.49347,0.0097 -0.96954,0.02379 -1.46875,0.0625 -6.32228,0.490254 -13.09827,3.376046 -19.65625,9.53125 -0.98717,-0.222745 -1.98523,-0.320593 -3,-0.3125 -4.10065,0.0327 -8.34565,1.615275 -12.21875,4.15625 -7.74619,5.08195 -14.23083,14.357909 -12.1875,24.5625 l 4.90625,-0.96875 c -1.51467,-7.564409 3.55994,-15.1607 10.03125,-19.40625 3.23565,-2.122775 6.74371,-3.321518 9.53125,-3.34375 2.78754,-0.02223 4.70093,0.830816 6.03125,3.15625 l 4.34375,-2.46875 C 171.87406,41.327834 170.99204,40.314593 170,39.5 c 9.0268,-7.803895 17.26283,-8.293033 24.1875,-5.5 7.53352,3.038609 13.57489,10.481991 15.84375,17.6875 1.13443,3.602754 1.29906,7.108805 0.53125,9.84375 -0.76781,2.734945 -2.32544,4.768341 -5.28125,6.0625 -5.56067,2.434664 -16.89164,1.612635 -35.1875,-7.4375 0.26104,-0.23768 0.53567,-0.486862 0.78125,-0.75 1.06246,-1.138443 2,-2.679317 2,-4.5625 l -5,0 c 0,0.264817 -0.0892,0.548693 -0.65625,1.15625 -0.56701,0.607557 -1.54992,1.343463 -2.6875,2.125 -2.27516,1.563073 -5.26969,3.164887 -6.8125,6.34375 l 4.5,2.1875 c 0.40664,-0.837853 1.74316,-1.976503 3.40625,-3.1875 20.19477,10.420926 33.3565,12.321435 41.65625,8.6875 4.2443,-1.858309 6.982,-5.321171 8.09375,-9.28125 1.11175,-3.960079 0.76388,-8.375879 -0.59375,-12.6875 -2.71527,-8.623241 -9.47524,-17.115421 -18.71875,-20.84375 -3.03303,-1.223358 -6.35824,-1.848954 -9.8125,-1.78125 z"/>
  </symbol>
  <use xlink:href="#chimney" x="0" y="0" />
</svg>
