<?xml version="1.0" encoding="UTF-8" standalone="no"?>
<svg id="svg2" xmlns:rdf="http://www.w3.org/1999/02/22-rdf-syntax-ns#" xmlns="http://www.w3.org/2000/svg" height="400" width="300" version="1.0" xmlns:cc="http://creativecommons.org/ns#" xmlns:dc="http://purl.org/dc/elements/1.1/">
 <metadata id="metadata2913">
  <rdf:RDF>
   <cc:Work rdf:about="">
    <dc:format>image/svg+xml</dc:format>
    <dc:type rdf:resource="http://purl.org/dc/dcmitype/StillImage"/>
    <dc:title/>
   </cc:Work>
  </rdf:RDF>
 </metadata>
 <g id="g3653" transform="translate(0,60)">
  <g id="g3678">
   <path id="path3655" d="m108.23 137.17v5.6562h29.688c1.2873 5.533 6.2333 9.6562 12.156 9.6562 5.925 0 10.871-4.1205 12.156-9.6562h29.844v-0.0625-5.5938h-83.844zm54 0c-1.2853-5.5357-6.2313-9.6562-12.156-9.6562-5.923 0.00001-10.869 4.1233-12.156 9.6562h24.312zm-12.156-4.6875c4.14 0 7.5 3.36 7.5 7.5s-3.36 7.5-7.5 7.5-7.5-3.36-7.5-7.5 3.36-7.5 7.5-7.5z" fill-rule="evenodd" fill="#000407"/>
   <path id="path3649" d="m15.636 156.98c-3.1145-15.327 5.8891-30.531 20.985-35.435" transform="matrix(1.4165 .47394 -.48207 1.4407 172.66 -93.634)" stroke="#000" stroke-width="4.6468" fill="none"/>
   <path id="path3651" d="m110.54 99.547c7.819 2.7107 13.709 9.3194 15.584 17.485" transform="matrix(1.8607 .62259 -.61354 1.8337 19.201 -153.27)" stroke="#000" stroke-width="3.5938" fill="none"/>
  </g>
  <path id="path3778" d="m123.81 194.81c1.9212-7.283 5.5514-13.69 10.858-19.163 6.3147-6.513 14.414-10.86 23.248-12.476 2.5678-0.46993 5.3741-0.73767 5.7309-0.54676 0.60348 0.32297 4.9431 4.9519 6.1395 6.5488 4.5018 6.0088 7.4172 12.957 8.4603 20.163 0.14688 1.0147 0.31852 3.1774 0.38143 4.8059l0.11437 2.961h-8.2267-8.2267l-0.19643-0.7801c-0.47731-1.8956-2.3688-4.7067-4.0651-6.0415-1.265-0.99538-3.3187-2.0506-4.7961-2.4643-1.5482-0.43347-4.6139-0.44518-6.1872-0.0236-4.1932 1.1235-7.6031 4.3261-8.932 8.389l-0.30106 0.92045h-7.3031-7.3031l0.60487-2.293z" transform="translate(0,-60)" stroke-width="0" fill="#ffd400"/>
 </g>
</svg>
