<?xml version="1.0" encoding="UTF-8" standalone="no"?>
<svg id="svg2" xmlns:rdf="http://www.w3.org/1999/02/22-rdf-syntax-ns#" xmlns="http://www.w3.org/2000/svg" height="400" width="300" version="1.0" xmlns:cc="http://creativecommons.org/ns#" xmlns:dc="http://purl.org/dc/elements/1.1/">
 <metadata id="metadata2913">
  <rdf:RDF>
   <cc:Work rdf:about="">
    <dc:format>image/svg+xml</dc:format>
    <dc:type rdf:resource="http://purl.org/dc/dcmitype/StillImage"/>
    <dc:title/>
   </cc:Work>
  </rdf:RDF>
 </metadata>
 <g id="g3653" transform="translate(0,60)">
  <g id="g3678">
   <path id="path3655" d="m108.23 137.17v5.6562h29.688c1.2873 5.533 6.2333 9.6562 12.156 9.6562 5.925 0 10.871-4.1205 12.156-9.6562h29.844v-0.0625-5.5938h-83.844zm54 0c-1.2853-5.5357-6.2313-9.6562-12.156-9.6562-5.923 0.00001-10.869 4.1233-12.156 9.6562h24.312zm-12.156-4.6875c4.14 0 7.5 3.36 7.5 7.5s-3.36 7.5-7.5 7.5-7.5-3.36-7.5-7.5 3.36-7.5 7.5-7.5z" fill-rule="evenodd" fill="#000407"/>
   <path id="path3649" d="m15.636 156.98c-3.1145-15.327 5.8891-30.531 20.985-35.435" transform="matrix(1.4165 .47394 -.48207 1.4407 172.66 -93.634)" stroke="#000" stroke-width="4.6468" fill="none"/>
   <path id="path3651" d="m110.54 99.547c7.819 2.7107 13.709 9.3194 15.584 17.485" transform="matrix(1.8607 .62259 -.61354 1.8337 19.201 -153.27)" stroke="#000" stroke-width="3.5938" fill="none"/>
  </g>
  <path id="path6674" d="m123.25 196.96c0-0.0806 0.27384-1.1458 0.60854-2.367 2.8667-10.46 9.2763-19.267 18.307-25.154 6.0273-3.9294 12.371-6.0733 20.354-6.8787l0.99723-0.10061 1.7122 1.6204c8.3026 7.8576 13.238 19.106 13.406 30.552l0.0349 2.3865-8.1611 0.0459-8.1611 0.046-0.30173-0.92984c-0.81943-2.5253-2.8003-5.1349-5.0387-6.6379-5.6791-3.8134-13.404-2.2805-17.37 3.447-0.5736 0.82835-1.7093 3.3537-1.7124 3.8079-0.002 0.28962-0.47018 0.30936-7.3384 0.30936-4.0349 0-7.3362-0.066-7.3362-0.14665z" transform="translate(0,-60)" stroke="#000" stroke-width=".17678" fill="#00d400"/>
 </g>
</svg>
