<svg
   xmlns="http://www.w3.org/2000/svg"
   xmlns:xlink="http://www.w3.org/1999/xlink"  
   version="1.1"
   width="60"
   height="60">
  <symbol id="crane" width="60" height="60">
    <rect width="58.0" height="58.0" rx="15.0" ry="15.0" x="1.0" y="1.0"
       style="fill:#ffffff;fill-opacity:0.5;stroke:#a30075;stroke-width:2.0" />
    <path d="m 31.81832,8.52173 c -4.26013,0 -7.68149,3.4351 -7.68149,7.65999 0,2.99406 2.11334,5.78985 4.5744,7.12056 l -0.0216,4.07813 c 0,1.03128 0.78369,2.28982 1.7477,2.58931 l 0.15105,0.0432 0.12947,0.0432 0.15103,0.0431 0.12946,0.0432 0.15105,0.0647 0.12946,0.0432 0.2805,0.10788 0.28051,0.12947 0.2805,0.12946 0.25893,0.15104 0.25893,0.12947 0.25893,0.15103 0.10789,0.0647 0.12946,0.0647 0.10789,0.0647 0.10789,0.0647 0.10788,0.0863 0.10789,0.0647 0.0863,0.0647 0.0863,0.0431 0.0863,0.0863 0.0863,0.0432 0.0647,0.0647 0.0863,0.0431 0.0431,0.0647 0.0647,0.0431 c 1.43248,1.23086 2.33028,3.06125 2.33028,5.15697 0,3.69264 -3.05722,6.75374 -6.81838,6.75374 -3.82567,0 -6.88318,-3.0611 -6.88318,-6.75374 0,-1.29739 -1.16915,-2.56766 -2.56766,-2.56766 -1.13041,0 -2.13021,0.76775 -2.39507,1.8988 -0.1018,0.46572 -0.0647,0.96825 -0.0647,1.46726 0,6.68655 5.49171,12.16959 12.27739,12.16959 6.72119,0 12.21274,-5.48304 12.21274,-12.16959 0,-3.72578 -1.61408,-7.02785 -4.20757,-9.2566 -0.46507,-0.3992 -2.46047,-1.23168 -3.56021,-1.9636 -1.0286,-0.73186 -1.05728,-0.91513 -1.05728,-2.97763 3.45913,-0.69861 6.02007,-3.79476 6.02007,-7.48725 0,-4.22489 -3.41538,-7.65999 -7.63834,-7.65999 z m 0,3.60336 c 2.11483,0 3.86239,1.78951 3.86239,3.90554 0,2.17022 -1.74741,3.84074 -3.86239,3.84074 h -0.1942 l -0.19419,-0.0216 -0.1942,-0.0216 -0.19419,-0.0216 -0.1942,-0.0432 -0.19419,-0.0647 -0.17262,-0.0431 -0.1942,-0.0647 -0.17262,-0.0863 -0.17262,-0.0863 -0.15103,-0.0863 -0.17262,-0.10789 -0.15105,-0.0863 -0.15103,-0.12946 -0.15104,-0.10789 -0.12947,-0.12946 -0.12946,-0.12947 -0.12947,-0.15104 -0.12946,-0.12947 -0.10788,-0.15103 -0.0863,-0.15105 -0.10789,-0.17262 -0.0863,-0.17262 -0.0863,-0.17262 -0.0647,-0.17262 -0.0647,-0.17262 -0.0432,-0.19419 -0.0647,-0.17262 -0.0216,-0.1942 -0.0216,-0.19419 -0.0216,-0.1942 v -0.21577 c 0,-2.11603 1.77846,-3.90553 3.94869,-3.90553 z"
       style="fill:#a30075;fill-rule:nonzero;stroke:#000000;stroke-width:0" />
  </symbol>
  <use xlink:href="#crane" x="0" y="0" />
</svg>
