<svg
   xmlns="http://www.w3.org/2000/svg"
   xmlns:xlink="http://www.w3.org/1999/xlink"  
   version="1.1"
   width="300"
   height="400">
  <symbol id="flagstaff" width="300" height="400">
    <path d="m 141.5,25 0,160.21875 c -6.25062,1.06394 -11.21731,6.03063 -12.28125,12.28125 l -22.71875,0 0,5 22.71875,0 c 1.20308,7.06805 7.38229,12.5 14.78125,12.5 7.39896,0 13.57817,-5.43195 14.78125,-12.5 l 22.71875,0 0,-5 -22.71875,0 C 157.71731,191.24938 152.75062,186.28269 146.5,185.21875 l 0,-100.71875 39.5,0 2.5,0 0,-2.5 0,-42 0,-2.5 -2.5,0 -39.5,0 0,-12.5 -5,0 z m 5,17.5 37,0 0,37 -37,0 0,-37 z M 144,190 c 5.55246,0 10,4.44754 10,10 0,5.55246 -4.44754,10 -10,10 -5.55246,0 -10,-4.44754 -10,-10 0,-5.55246 4.44754,-10 10,-10 z"
       style="fill:#000000;fill-opacity:1" />
  </symbol>
  <use xlink:href="#flagstaff" x="0" y="0" />
</svg>
