<svg
   xmlns="http://www.w3.org/2000/svg"
   xmlns:xlink="http://www.w3.org/1999/xlink"  
   version="1.1"
   width="300"
   height="400">
  <symbol id="flare_stack" width="300" height="400">
    <path d="m 162.8125,20.09375 c 0,0 -2.8306,2.321255 -6.5625,5.8125 L 156.1875,25.875 c -0.014,0.03198 -0.0174,0.06181 -0.0312,0.09375 -4.13218,3.875717 -9.42118,9.271165 -14.46875,15.8125 -4.85035,6.285748 -9.30334,13.424934 -11.65625,20.84375 -2.35291,7.418816 -2.60113,15.191611 1.125,22.3125 0.83136,1.59024 1.80065,2.902332 2.84375,4 l 0,98.5625 0,1.375 c -2.46338,2.21698 -4.2028,5.22661 -4.78125,8.625 l -22.71875,0 a 2.50025,2.50025 0 0 0 -0.25,0 2.503123,2.503123 0 1 0 0.25,5 l 22.71875,0 c 1.20308,7.06805 7.38229,12.5 14.78125,12.5 7.39896,0 13.57817,-5.43195 14.78125,-12.5 l 22.71875,0 a 2.50025,2.50025 0 1 0 0,-5 l -22.71875,0 C 158.2028,194.10161 156.46338,191.09198 154,188.875 l 0,-1.375 0,-100 0,-0.28125 c 0.4099,-0.44255 0.81129,-0.895674 1.1875,-1.375 3.82051,-4.867098 5.24052,-9.442126 5.28125,-13.84375 0.0407,-4.401624 -1.21726,-8.569599 -2.46875,-12.90625 -2.46067,-8.526697 -5.03876,-17.714438 0.6875,-31.34375 3.26531,-3.018209 6,-5.34375 6,-5.34375 l -1.875,-2.3125 z m -8.9375,12.4375 c -3.15909,11.378553 -0.86323,20.083511 1.25,27.40625 1.25476,4.347974 2.37895,8.227343 2.34375,12.03125 -0.0352,3.803907 -1.16676,7.585848 -4.65625,12.03125 -0.27324,0.348135 -0.55093,0.676856 -0.84375,1 l -0.46875,0 -15,0 -1.84375,0 c -0.28183,-0.442924 -0.54358,-0.923106 -0.8125,-1.4375 -3.29037,-6.288111 -3.12837,-13.123378 -0.9375,-20.03125 2.19087,-6.907872 6.43997,-13.794248 11.15625,-19.90625 3.28374,-4.255526 6.64689,-7.869104 9.8125,-11.09375 z M 149,91.125 l 0,8.375 -7.125,-6.65625 c 0.48147,0.03123 0.95639,0.03179 1.4375,0 1.97354,-0.130405 3.88733,-0.755097 5.6875,-1.71875 z m -10,1.15625 c 0.34822,0.119678 0.70958,0.197748 1.0625,0.28125 l 8.9375,8.34375 0,20.40625 -10,-10 0,-19.03125 z m 0,20.40625 10,10 0,18.8125 -10,-9.375 0,-19.4375 z m 0,20.8125 10,9.375 0,20.65625 -10,-10.15625 0,-19.875 z m 0,21.28125 10,10.15625 0,19.34375 -10,-8.9375 0,-20.5625 z m 0,21.90625 9.28125,8.3125 -9.28125,0 0,-8.3125 z M 144,190 c 5.3318,0 9.63436,4.10136 9.96875,9.34375 a 2.503123,2.503123 0 0 0 0,1.34375 C 153.61943,205.9151 149.32132,210 144,210 c -5.44705,0 -9.80427,-4.28279 -9.96875,-9.6875 a 2.50025,2.50025 0 0 0 0,-0.625 C 134.19573,194.28279 138.55295,190 144,190 z"
       style="fill:#000000;fill-opacity:1" />
  </symbol>
  <use xlink:href="#flare_stack" x="0" y="0" />
</svg>
