<?xml version="1.0" encoding="UTF-8" standalone="no"?>
<svg id="svg2" xmlns:rdf="http://www.w3.org/1999/02/22-rdf-syntax-ns#" xmlns="http://www.w3.org/2000/svg" height="400" width="300" version="1.0" xmlns:cc="http://creativecommons.org/ns#" xmlns:dc="http://purl.org/dc/elements/1.1/">
 <metadata id="metadata2913">
  <rdf:RDF>
   <cc:Work rdf:about="">
    <dc:format>image/svg+xml</dc:format>
    <dc:type rdf:resource="http://purl.org/dc/dcmitype/StillImage"/>
    <dc:title/>
   </cc:Work>
  </rdf:RDF>
 </metadata>
 <g id="g3656" transform="translate(0,80)">
  <path id="path3658" d="m141.4 111.02c-1.7045 1.6489-2.9247 3.8387-3.478 6.2238l-41.906-0.022 0.0289 5.6343 41.834 0.044c1.2873 5.533 6.2553 9.7442 12.178 9.7442 5.925 0 10.893-4.2085 12.178-9.7442l41.759-0.0312-0.044-5.6343-41.737 0.009c-0.58668-2.529-1.8222-4.5108-3.6881-6.1972l-1.5241-1.2736-1.8821-1.211-2.3023-0.71488-2.9098-0.29604-2.864 0.2853-2.1736 0.6878-1.9114 1.1846-1.5571 1.3113zm8.6562 1.6242c4.14 0 7.5 3.36 7.5 7.5s-3.36 7.5-7.5 7.5-7.5-3.36-7.5-7.5 3.36-7.5 7.5-7.5z" fill-rule="evenodd" fill="#000407"/>
  <path id="path3660" d="m138.16 77.313h23.944l5.8269 16.563-35.959 0.0214 6.1877-16.585v-0.00004z" stroke="#000" stroke-width="4.2371" fill="none"/>
  <path id="path3662" d="m113.78 120.03-11.787-35.008 15.957 8.9977 64.123 0.0364 15.884-9.0342-11.963 35.008" stroke="#000" stroke-width="4" fill="none"/>
  <rect id="rect3664" height=".93296" width="84.837" y="100.11" x="107.73"/>
  <path id="path3684" fill="#ffd400" d="m114.95 116.86c-0.41395-1.0989-5.0918-15.266-5.0918-15.42 0-0.10519 18.073-0.19125 40.163-0.19125h40.163l-1.3115 3.794c-0.72134 2.0867-1.9583 5.6693-2.7488 7.9613l-1.4372 4.1672h-11.175c-8.7264 0-11.194-0.0681-11.264-0.31098-1.0116-3.528-3.9581-6.9391-7.289-8.4383-2.8185-1.2685-7.7371-1.1622-10.504 0.22708-2.1561 1.0826-4.329 3.2798-5.4413 5.5021-0.52381 1.0465-1.0181 2.1542-1.0985 2.4614l-0.14609 0.55865h-11.351c-8.8525 0-11.377-0.0684-11.468-0.31098z"/>
  <path id="path3686" d="m109.23 99.694c-1.53-4.3383-3.3249-9.7564-3.2551-9.8262 0.0506-0.0506 2.5951 1.341 5.6546 3.0923l5.5626 3.1843 32.716 0.0674 32.716 0.0674 5.5945-3.2198c3.077-1.7709 5.636-3.1783 5.6867-3.1276s-0.67554 2.3368-1.6139 5.0802l-1.7061 4.988-40.623 0.002c-32.276 0.002-40.645-0.0614-40.732-0.30849z"/>
  <path id="path3688" d="m135.61 90.613c0.20362-0.51313 1.1995-3.1721 2.2131-5.9088l1.8429-4.9758 10.433-0.0649 10.433-0.0649 2.0309 5.796c1.117 3.1878 2.0309 5.8759 2.0309 5.9736s-6.6045 0.17758-14.677 0.17758h-14.677l0.37021-0.93296z"/>
 </g>
</svg>
