<?xml version="1.0" encoding="UTF-8" standalone="no"?>
<svg id="svg2" xmlns:rdf="http://www.w3.org/1999/02/22-rdf-syntax-ns#" xmlns="http://www.w3.org/2000/svg" height="400" width="300" version="1.0" xmlns:cc="http://creativecommons.org/ns#" xmlns:dc="http://purl.org/dc/elements/1.1/">
 <metadata id="metadata2913">
  <rdf:RDF>
   <cc:Work rdf:about="">
    <dc:format>image/svg+xml</dc:format>
    <dc:type rdf:resource="http://purl.org/dc/dcmitype/StillImage"/>
    <dc:title/>
   </cc:Work>
  </rdf:RDF>
 </metadata>
 <g id="layer1" transform="translate(0,80)">
  <path id="path2520" d="m141.47 110.98c-1.7045 1.6489-2.9247 3.8387-3.478 6.2238l-41.906-0.022 0.0289 5.6343 41.834 0.044c1.2873 5.533 6.2553 9.7442 12.178 9.7442 5.925 0 10.893-4.2085 12.178-9.7442l41.759-0.0312-0.044-5.6343-41.737 0.009c-0.58668-2.529-1.8222-4.5108-3.6881-6.1972l-1.5241-1.2736-1.8821-1.211-2.3023-0.71488-2.9098-0.29604-2.864 0.2853-2.1736 0.6878-1.9114 1.1846-1.5571 1.3113zm8.6562 1.6242c4.14 0 7.5 3.36 7.5 7.5s-3.36 7.5-7.5 7.5-7.5-3.36-7.5-7.5 3.36-7.5 7.5-7.5z" fill-rule="evenodd" fill="#000407"/>
  <path id="path2864" d="m138.23 77.268h23.944l5.8269 16.563-35.959 0.0214 6.1877-16.585v-0.00004z" stroke="#000" stroke-width="4.2371" fill="none"/>
  <path id="path3652" d="m113.85 119.99-11.787-35.008 15.957 8.9977 64.123 0.0364 15.884-9.0342-11.963 35.008" stroke="#000" stroke-width="4" fill="none"/>
  <path id="path3968" d="m110.49 103.41c-2.5292-7.5144-4.5703-13.691-4.5358-13.725 0.0345-0.0345 2.6594 1.4028 5.8333 3.1939l5.7706 3.2566 32.563-0.001 32.563-0.001 5.7118-3.2441c3.1415-1.7842 5.732-3.224 5.7566-3.1994s-2.051 6.173-4.6123 13.663c-2.5614 7.4901-4.6571 13.641-4.6571 13.669s-5.0828 0.0306-11.295 0.006l-11.295-0.0453-0.21309-0.73604c-0.47852-1.6529-1.3128-3.0389-2.7313-4.5374-1.6555-1.7489-3.536-3.0704-5.1061-3.5882-3.281-1.082-7.6601-0.73507-10.23 0.81042-2.7356 1.645-4.7064 4.0436-5.6677 6.8978l-0.38843 1.1534-11.434 0.0452-11.434 0.0453-4.5985-13.662z" stroke="#000" stroke-width=".17592" fill="#ffd400"/>
  <path id="path3970" d="m135.28 91.557c0.005-0.0484 1.0151-2.7796 2.245-6.0693l2.236-5.9813 10.403-0.0454 10.403-0.0454 0.45783 1.2768c1.7041 4.7526 3.7904 10.758 3.7511 10.797-0.0884 0.0884-29.505 0.15556-29.496 0.0674z" stroke="#000" stroke-width=".17592" fill="#ffd400"/>
 </g>
</svg>
