<svg
   xmlns="http://www.w3.org/2000/svg"
   xmlns:xlink="http://www.w3.org/1999/xlink"  
   version="1.0"
   width="300"
   height="400">
  <symbol id="light" width="300" height="400">
    <path d="m 150.69407,173.39285 -16.26654,-71.74379 -1.17753,-5.259324 0.0973,-5.23432 1.96562,-5.04129 3.46815,-4.25872 4.51806,-2.94214 5.22439,-1.36669 5.53573,0.35678 5.18437,1.9681 4.03247,3.33471 2.31384,4.43909 0.9886,5.17195 0.26517,5.55505 0.0113,1.13107 -16.16094,73.889834 z m 1.85232,28.22309 c -0.89201,1.39526 -2.74824,1.80367 -4.14349,0.91164 -1.39524,-0.89203 -1.80365,-2.74828 -0.91162,-4.14353 0.89201,-1.39526 2.74824,-1.80367 4.14348,-0.91164 1.39524,0.89203 1.80366,2.74828 0.91163,4.14353 z"
     style="fill-opacity:1;fill-rule:evenodd" />
  </symbol>
  <use xlink:href="#light" x="0" y="0" />
</svg>
