<?xml version="1.0" encoding="UTF-8" standalone="no"?>
<!-- Created with Inkscape (http://www.inkscape.org/) -->
<svg id="svg2" xmlns:rdf="http://www.w3.org/1999/02/22-rdf-syntax-ns#" xmlns="http://www.w3.org/2000/svg" height="60" width="60" version="1.1" xmlns:cc="http://creativecommons.org/ns#" xmlns:dc="http://purl.org/dc/elements/1.1/">
 <metadata id="metadata7">
  <rdf:RDF>
   <cc:Work rdf:about="">
    <dc:format>image/svg+xml</dc:format>
    <dc:type rdf:resource="http://purl.org/dc/dcmitype/StillImage"/>
    <dc:title/>
   </cc:Work>
  </rdf:RDF>
 </metadata>
 <g id="layer18" transform="translate(0,-60)">
  <g id="g6994" transform="matrix(.97035 0 0 .97035 -28.221 31.779)">
   <g id="layer1-35" transform="translate(162.86 259.07)">
    <g id="g2926" transform="matrix(.84346 0 0 .84345 -16.101 -31.164)">
     <path id="path20290" stroke-linejoin="bevel" d="m-133.57-163.7h61.435 0.01875c0.20125-0.001 0.4025-0.015 0.60125-0.0425 0.2-0.0275 0.3975-0.0675 0.59125-0.1225 0.195-0.0513 0.385-0.115 0.57125-0.19375 0.18625-0.0775 0.36625-0.16875 0.53875-0.27125 0.175-0.1 0.3425-0.2125 0.50125-0.335 0.16-0.1225 0.31125-0.25625 0.4525-0.39875 0.14375-0.14125 0.2775-0.2925 0.4-0.4525 0.1225-0.15875 0.235-0.3275 0.335-0.50125 0.10125-0.17375 0.19125-0.35375 0.26875-0.54 0.0775-0.185 0.1425-0.37625 0.195-0.57 0.055-0.195 0.09625-0.3925 0.125-0.5925 0.0275-0.19875 0.04125-0.39875 0.04-0.6v-61.491c-0.0012-0.20125-0.015-0.40125-0.0425-0.60125-0.02625-0.19875-0.0675-0.39625-0.1225-0.59-0.05-0.195-0.115-0.38625-0.1925-0.57125-0.07875-0.18625-0.16875-0.36625-0.27125-0.54-0.10125-0.17375-0.2125-0.34125-0.335-0.50125s-0.25625-0.31-0.4-0.4525c-0.14125-0.1425-0.2925-0.27625-0.4525-0.39875-0.15875-0.12375-0.32625-0.235-0.50125-0.335-0.1725-0.1025-0.35375-0.1925-0.53875-0.27-0.18625-0.0775-0.3775-0.1425-0.57125-0.195-0.19375-0.055-0.39125-0.0962-0.59125-0.125-0.19875-0.0275-0.4-0.0412-0.60125-0.04h-61.49c-0.20125 0.001-0.4025 0.0162-0.60125 0.0425-0.2 0.0275-0.3975 0.0687-0.59125 0.1225-0.195 0.0513-0.38625 0.115-0.57125 0.19375-0.18625 0.0775-0.36625 0.16875-0.53875 0.27125-0.175 0.1-0.3425 0.21125-0.5025 0.335-0.15875 0.1225-0.31 0.25625-0.45125 0.39875-0.14375 0.1425-0.2775 0.2925-0.4 0.4525-0.1225 0.15875-0.235 0.3275-0.335 0.50125-0.10125 0.17375-0.19125 0.35375-0.26875 0.54-0.0775 0.185-0.14375 0.37625-0.19625 0.57125-0.0538 0.19375-0.0962 0.39125-0.12375 0.59-0.0288 0.2-0.0412 0.4-0.04 0.60125l-0.001 0.0187v61.454l0.001 0.0187c0.001 0.20125 0.015 0.40125 0.0412 0.60125 0.0275 0.2 0.0687 0.39625 0.1225 0.59125 0.0513 0.19375 0.11625 0.385 0.19375 0.57125 0.0788 0.185 0.16875 0.365 0.27125 0.53875 0.10125 0.17375 0.2125 0.34125 0.335 0.50125s0.25625 0.31125 0.4 0.4525c0.14125 0.1425 0.2925 0.27625 0.45125 0.39875 0.16 0.12375 0.3275 0.235 0.5025 0.335 0.1725 0.1025 0.3525 0.1925 0.53875 0.27s0.37625 0.1425 0.57125 0.195c0.19375 0.055 0.39125 0.0962 0.59125 0.125 0.19875 0.0275 0.4 0.0412 0.60125 0.04h0.0187 0.0175z" stroke="#231f20" stroke-miterlimit="22.926" stroke-width=".27825" fill="none"/>
     <path id="path20294" stroke-linejoin="bevel" d="m-133.57-163.63h-0.0375c-0.20375-0.001-0.4075-0.0162-0.61-0.0425-0.2025-0.0275-0.4025-0.0687-0.59875-0.125-0.1975-0.0513-0.39125-0.11625-0.58-0.19625-0.18875-0.0788-0.37125-0.17125-0.54625-0.275-0.1775-0.10125-0.3475-0.215-0.51-0.34-0.16125-0.12375-0.315-0.26-0.45875-0.405-0.145-0.14375-0.28-0.29625-0.405-0.45875-0.125-0.16125-0.2375-0.33125-0.33875-0.50875-0.10375-0.17625-0.195-0.35875-0.27375-0.5475-0.0787-0.18875-0.145-0.38125-0.19875-0.57875-0.055-0.1975-0.0975-0.3975-0.12625-0.6-0.0288-0.2025-0.0425-0.40625-0.04-0.61v-61.491c0-0.20375 0.015-0.4075 0.0425-0.61s0.0687-0.4025 0.12375-0.6c0.0513-0.1975 0.1175-0.39125 0.19625-0.58 0.08-0.1875 0.17125-0.37 0.27625-0.54625 0.10125-0.17625 0.215-0.34625 0.33875-0.50875 0.125-0.16125 0.26-0.315 0.405-0.45875 0.14375-0.145 0.2975-0.28125 0.45875-0.40625 0.1625-0.12375 0.3325-0.23625 0.51-0.33875 0.175-0.1025 0.3575-0.195 0.54625-0.27375 0.18875-0.0787 0.3825-0.145 0.58-0.1975 0.19625-0.055 0.39625-0.0975 0.6-0.12625 0.20125-0.0288 0.405-0.0425 0.60875-0.0412h61.493c0.20375 0.001 0.4075 0.0162 0.61 0.0437 0.20125 0.0263 0.4025 0.0687 0.59875 0.12375 0.1975 0.0513 0.39125 0.1175 0.58 0.19625 0.18875 0.0788 0.37125 0.17125 0.54625 0.275 0.1775 0.1025 0.3475 0.215 0.50875 0.34 0.1625 0.125 0.31625 0.26 0.46 0.405 0.145 0.14375 0.28 0.2975 0.405 0.45875 0.125 0.1625 0.2375 0.3325 0.33875 0.50875 0.10375 0.17625 0.195 0.35875 0.27375 0.54625 0.07875 0.19 0.145 0.3825 0.1975 0.58 0.05625 0.1975 0.09875 0.3975 0.12625 0.6 0.02875 0.2025 0.0425 0.40625 0.04125 0.61v61.491c-0.0012 0.205-0.015 0.40875-0.0425 0.61-0.0275 0.2025-0.06875 0.4025-0.125 0.6-0.05125 0.1975-0.11625 0.39125-0.19625 0.58-0.07875 0.1875-0.17125 0.37-0.275 0.54625-0.10125 0.1775-0.215 0.3475-0.33875 0.50875-0.125 0.1625-0.26 0.315-0.405 0.45875-0.14375 0.14625-0.2975 0.28125-0.46 0.405-0.16125 0.125-0.33125 0.23875-0.50875 0.34-0.17625 0.10375-0.3575 0.195-0.54625 0.27375-0.18875 0.0787-0.3825 0.145-0.58 0.1975-0.19625 0.0563-0.3975 0.0975-0.6 0.12625-0.20125 0.0288-0.405 0.0425-0.60875 0.0412h-61.455z" stroke="#000" stroke-miterlimit="22.926" stroke-width="2.4436" fill="none"/>
     <path id="path20298" d="m-133.14-165.87h-0.0222c-0.12574-0.00099-0.25271-0.01-0.37598-0.0259-0.12574-0.0173-0.24902-0.0432-0.36982-0.0777-0.12204-0.0308-0.24162-0.0715-0.3575-0.12081-0.11587-0.048-0.22929-0.10478-0.33653-0.17012-0.10972-0.0616-0.2145-0.1319-0.31435-0.20834-0.0999-0.0777-0.19477-0.16025-0.2823-0.25024-0.09-0.0888-0.17381-0.18245-0.25024-0.28231-0.0764-0.0999-0.1467-0.20463-0.20957-0.31435-0.0628-0.10848-0.11957-0.22066-0.16888-0.33654-0.0481-0.11711-0.0888-0.23546-0.12205-0.3575-0.0332-0.12081-0.0605-0.24408-0.0777-0.36982-0.0173-0.12451-0.0259-0.25025-0.0246-0.37599v-60.616c0-0.12574 0.01-0.25025 0.0259-0.37599 0.0172-0.12451 0.0432-0.24779 0.0764-0.3686 0.0321-0.12204 0.0727-0.24162 0.12205-0.35749 0.048-0.11588 0.10478-0.22806 0.16888-0.33655 0.0628-0.10971 0.13314-0.2145 0.20957-0.31435 0.0776-0.0999 0.16025-0.19477 0.25024-0.28353 0.0876-0.0888 0.18245-0.17259 0.2823-0.24902 0.0998-0.0764 0.20463-0.1467 0.31435-0.20957 0.10848-0.0628 0.22066-0.11957 0.33653-0.16888 0.11588-0.0481 0.23546-0.0888 0.3575-0.12081 0.1208-0.0345 0.24408-0.0605 0.36982-0.0789 0.12327-0.0173 0.25024-0.0259 0.37598-0.0247h60.614c0.12697 0.00099 0.25148 0.01 0.37598 0.0271 0.12574 0.0161 0.24901 0.0419 0.36982 0.0764 0.12204 0.0308 0.24162 0.0715 0.35749 0.12081 0.11588 0.048 0.22806 0.10478 0.33654 0.16888 0.10971 0.0628 0.2145 0.13314 0.31435 0.20957 0.09985 0.0764 0.19354 0.16026 0.28353 0.24902 0.08876 0.0888 0.17258 0.18368 0.24901 0.28353 0.07643 0.0999 0.1467 0.20464 0.20833 0.31435 0.0641 0.10849 0.12081 0.22067 0.17012 0.33655 0.04808 0.11587 0.08876 0.23545 0.12081 0.35749 0.03452 0.12081 0.0604 0.24409 0.07766 0.36983 0.01849 0.12451 0.02712 0.24902 0.02589 0.37476v60.616c-0.0012 0.12574-0.0099 0.25148-0.02712 0.37599-0.01603 0.12574-0.04191 0.24901-0.07643 0.36982-0.03082 0.12204-0.0715 0.24162-0.12081 0.3575s-0.10478 0.22929-0.17012 0.33654c-0.06164 0.10972-0.1319 0.2145-0.20833 0.31435-0.07643 0.0999-0.16026 0.19355-0.24901 0.28231-0.08999 0.09-0.18368 0.17381-0.28353 0.25024-0.09985 0.0764-0.20464 0.1467-0.31435 0.20834-0.10848 0.0641-0.22066 0.12081-0.33654 0.16889-0.11588 0.0493-0.23545 0.09-0.35749 0.12204-0.12081 0.0345-0.24408 0.0605-0.36982 0.0789-0.12451 0.0173-0.24901 0.0247-0.37598 0.0247h-60.591z" fill-rule="evenodd" fill="#e72512"/>
     <path id="path20302" d="m-86.393-175.44-40.085-40.085v40.085h40.085" fill-rule="evenodd" fill="#fff"/>
     <path id="path20306" d="m-79.236-182.6v-40.085h-40.085l40.085 40.085" fill-rule="evenodd" fill="#fff"/>
     <path id="path20310" stroke-linejoin="bevel" d="m-83.263-186.92h-39.145-0.0175c-0.0287 0.001-0.0587 0.004-0.0875 0.009-0.0288 0.004-0.0588 0.0112-0.0863 0.0188-0.0288 0.009-0.0562 0.0187-0.0825 0.0312-0.0275 0.0112-0.0537 0.025-0.0787 0.0412-0.025 0.015-0.05 0.0312-0.0725 0.05-0.0225 0.0187-0.0437 0.0387-0.0637 0.06-0.0212 0.0213-0.04 0.045-0.0575 0.0688-0.0175 0.0237-0.0325 0.0487-0.0463 0.0737-0.015 0.0263-0.0263 0.0538-0.0375 0.08-0.0112 0.0287-0.02 0.0562-0.0262 0.085-0.006 0.0288-0.0125 0.0575-0.015 0.0875-0.003 0.0288-0.004 0.0588-0.003 0.0875 0 0.03 0.003 0.0588 0.008 0.0875 0.004 0.03 0.0113 0.0588 0.02 0.0862 0.004 0.0175 0.01 0.0325 0.015 0.0488 0.006 0.0163 0.0138 0.0325 0.0213 0.0475l0.006 0.0137 3.375 6.75 0.008 0.015c0.015 0.0263 0.03 0.0513 0.0462 0.0763 0.0175 0.0238 0.0363 0.0462 0.0563 0.0675 0.02 0.0225 0.0413 0.0425 0.065 0.0613 0.0225 0.0175 0.0463 0.035 0.0713 0.0513 0.025 0.015 0.0512 0.0288 0.0775 0.0412 0.0275 0.0125 0.055 0.0225 0.0837 0.0312 0.0275 0.009 0.0563 0.015 0.085 0.02s0.0587 0.007 0.0887 0.009h0.006 29.038 0.0175c0.03-0.001 0.05875-0.004 0.0875-0.007 0.03-0.005 0.05875-0.0112 0.08625-0.02 0.02875-0.008 0.05625-0.0188 0.08375-0.03 0.02625-0.0125 0.0525-0.0263 0.0775-0.0425 0.02-0.0112 0.04-0.025 0.06-0.04 0.01875-0.0137 0.03625-0.03 0.05375-0.0463l0.01125-0.0112 6.7488-6.7488 0.0125-0.0125c0.02-0.0213 0.03875-0.0438 0.05625-0.0675 0.0175-0.0238 0.0325-0.05 0.04625-0.075 0.015-0.0263 0.0275-0.0525 0.03875-0.08 0.01-0.0288 0.01875-0.0563 0.025-0.085 0.0075-0.0288 0.0125-0.0575 0.015-0.0875 0.0038-0.0288 0.005-0.0588 0.0038-0.0875-0.0012-0.03-0.0038-0.0588-0.0087-0.0875-0.0038-0.03-0.01-0.0588-0.01875-0.0863-0.0087-0.0288-0.01875-0.0563-0.03-0.0838-0.0125-0.0263-0.02625-0.0525-0.0425-0.0775-0.015-0.025-0.03125-0.05-0.05-0.0725s-0.03875-0.045-0.06-0.065-0.045-0.0387-0.0675-0.0563c-0.025-0.0175-0.05-0.0325-0.075-0.0475-0.02625-0.0138-0.0525-0.0263-0.08-0.0362-0.0275-0.01-0.05625-0.02-0.085-0.0263-0.02375-0.006-0.04625-0.01-0.07-0.0138-0.02375-0.002-0.0475-0.005-0.07125-0.005h-0.01625z" fill-rule="evenodd" stroke="#000" stroke-miterlimit="22.926" stroke-width=".27825"/>
     <path id="path20314" stroke-linejoin="bevel" d="m-98.808-190.97v-29.039c-0.0013-0.03-0.0038-0.0588-0.0075-0.0888-0.005-0.0287-0.01125-0.0575-0.02-0.0862-0.0087-0.0275-0.01875-0.055-0.03-0.0825-0.0125-0.0263-0.02625-0.0525-0.04125-0.0775-0.01625-0.025-0.0325-0.05-0.05125-0.0725s-0.03875-0.045-0.06-0.065-0.04375-0.0387-0.0675-0.0563c-0.025-0.0175-0.04875-0.0325-0.075-0.0475-0.02625-0.0138-0.0525-0.0263-0.08-0.0362-0.0275-0.0113-0.05625-0.02-0.085-0.0263-0.02875-0.007-0.0575-0.0125-0.08625-0.015-0.03-0.004-0.05875-0.005-0.08875-0.004-0.02875 0.001-0.05875 0.004-0.0875 0.007-0.02875 0.005-0.05875 0.0112-0.08625 0.02-0.02875 0.009-0.05625 0.0187-0.0825 0.03-0.0275 0.0125-0.05375 0.0263-0.07875 0.0425-0.025 0.015-0.04875 0.0312-0.0725 0.05-0.0225 0.0187-0.04375 0.0387-0.06375 0.06l-0.01625 0.0175c-0.005 0.005-0.0088 0.01-0.01375 0.0163l-0.01 0.0125-22.948 29.021-0.01 0.0137c-0.0188 0.0238-0.035 0.0488-0.0487 0.0738-0.015 0.0262-0.0275 0.0525-0.0388 0.08s-0.02 0.055-0.0275 0.0838c-0.007 0.0288-0.0125 0.0575-0.015 0.0875-0.004 0.0287-0.006 0.0587-0.005 0.0875 0 0.03 0.002 0.0588 0.006 0.0888 0.004 0.0288 0.01 0.0575 0.0175 0.0863 0.009 0.0275 0.0187 0.0563 0.03 0.0825 0.0112 0.0275 0.025 0.0537 0.04 0.0787 0.015 0.0263 0.0312 0.05 0.05 0.0737 0.0188 0.0225 0.0375 0.045 0.0588 0.065 0.0212 0.0212 0.0438 0.04 0.0675 0.0575 0.0238 0.0175 0.0475 0.0337 0.0738 0.0488 0.025 0.0137 0.0525 0.0263 0.08 0.0375 0.0275 0.0113 0.055 0.02 0.0838 0.0275 0.0287 0.007 0.0575 0.0125 0.0862 0.0163 0.0113 0.001 0.0212 0.002 0.0325 0.004 0.0113 0 0.0213 0 0.0325 0.001h22.98c0.03-0.001 0.05875-0.004 0.0875-0.008 0.03-0.005 0.05875-0.0125 0.08625-0.02 0.02875-0.009 0.05625-0.0188 0.08375-0.03 0.02625-0.0125 0.0525-0.0263 0.0775-0.0425 0.025-0.015 0.05-0.0312 0.0725-0.05s0.045-0.0387 0.065-0.06 0.03875-0.045 0.05625-0.0675c0.0175-0.025 0.0325-0.05 0.0475-0.0763 0.01375-0.025 0.02625-0.0525 0.03625-0.08 0.01125-0.0263 0.02-0.055 0.02625-0.0838 0.0063-0.0238 0.01-0.0462 0.01375-0.07 0.0025-0.0238 0.005-0.0475 0.005-0.0712v-0.0163z" fill-rule="evenodd" stroke="#000" stroke-miterlimit="22.926" stroke-width=".27825"/>
    </g>
   </g>
  </g>
 </g>
</svg>
