<?xml version="1.0" encoding="UTF-8" standalone="no"?>
<!-- Created with Inkscape (http://www.inkscape.org/) -->
<svg id="svg2" xmlns:rdf="http://www.w3.org/1999/02/22-rdf-syntax-ns#" xmlns="http://www.w3.org/2000/svg" height="60" width="60" version="1.1" xmlns:cc="http://creativecommons.org/ns#" xmlns:dc="http://purl.org/dc/elements/1.1/">
 <metadata id="metadata7">
  <rdf:RDF>
   <cc:Work rdf:about="">
    <dc:format>image/svg+xml</dc:format>
    <dc:type rdf:resource="http://purl.org/dc/dcmitype/StillImage"/>
    <dc:title/>
   </cc:Work>
  </rdf:RDF>
 </metadata>
 <g id="layer12" transform="translate(0,-60)">
  <g id="g6816" transform="matrix(.97035 0 0 .97035 -28.221 31.779)">
   <g id="layer1-50" transform="translate(42.857 -223.79)">
    <g id="g2908" transform="matrix(.84346 0 0 .84345 2.6835 44.427)">
     <path id="path20162" stroke-linejoin="bevel" d="m-13.566 319.16h61.418 0.0175 0.01875c0.20125-0.001 0.4025-0.015 0.60125-0.0425 0.2-0.0275 0.3975-0.0675 0.59125-0.1225 0.195-0.0512 0.385-0.115 0.57125-0.19375 0.18625-0.0775 0.36625-0.16875 0.53875-0.27125 0.175-0.1 0.3425-0.2125 0.5025-0.335 0.15875-0.1225 0.31-0.25625 0.45125-0.39875 0.14375-0.14125 0.2775-0.2925 0.4-0.4525 0.1225-0.15875 0.235-0.3275 0.335-0.50125 0.10125-0.17375 0.19125-0.35375 0.26875-0.54 0.0775-0.185 0.1425-0.37625 0.195-0.57 0.055-0.195 0.0975-0.3925 0.125-0.5925 0.02875-0.19875 0.04125-0.4 0.04-0.6v-61.491c-0.0012-0.20125-0.015-0.40125-0.0425-0.60125-0.02625-0.19875-0.0675-0.39625-0.1225-0.59-0.05-0.195-0.115-0.38625-0.1925-0.57125-0.07875-0.18625-0.16875-0.36625-0.27125-0.54-0.10125-0.17375-0.2125-0.3425-0.335-0.50125-0.1225-0.16-0.25625-0.31125-0.4-0.4525-0.14125-0.1425-0.2925-0.27625-0.45125-0.39875-0.16-0.12375-0.3275-0.235-0.5025-0.335-0.1725-0.1025-0.35375-0.1925-0.53875-0.27-0.18625-0.0775-0.3775-0.1425-0.57125-0.195-0.19375-0.055-0.39125-0.0962-0.59125-0.125-0.19875-0.0275-0.4-0.0412-0.60125-0.04h-61.49c-0.20125 0.001-0.4025 0.015-0.60125 0.0425-0.2 0.0275-0.3975 0.0687-0.59125 0.1225-0.195 0.0513-0.38625 0.115-0.57125 0.19375-0.18625 0.0775-0.36625 0.16875-0.53875 0.27125-0.175 0.1-0.3425 0.21125-0.5025 0.335-0.15875 0.1225-0.31 0.25625-0.45125 0.39875-0.14375 0.14125-0.2775 0.2925-0.4 0.4525-0.1225 0.15875-0.235 0.3275-0.33375 0.50125-0.1025 0.17375-0.1925 0.35375-0.27 0.54-0.0775 0.185-0.14375 0.37625-0.195 0.57125-0.055 0.19375-0.0975 0.39125-0.125 0.59-0.02875 0.2-0.04125 0.4-0.04 0.60125v0.0188l-0.0012 0.0187v61.416l0.0012 0.0188v0.0188c0.0012 0.20125 0.015 0.40125 0.04125 0.60125 0.0275 0.19875 0.06875 0.39625 0.12375 0.59125 0.05 0.19375 0.115 0.385 0.1925 0.57125 0.07875 0.185 0.16875 0.365 0.2725 0.53875 0.1 0.17375 0.21125 0.34125 0.33375 0.50125s0.25625 0.31125 0.4 0.4525c0.14125 0.1425 0.2925 0.27625 0.45125 0.39875 0.16 0.12375 0.3275 0.235 0.5025 0.335 0.1725 0.1025 0.35375 0.1925 0.53875 0.27 0.18625 0.0775 0.37625 0.1425 0.57125 0.195 0.19375 0.055 0.39125 0.0962 0.59125 0.125 0.19875 0.0275 0.4 0.0412 0.60125 0.04h0.01875 0.0175z" stroke="#231f20" stroke-miterlimit="22.926" stroke-width=".27825" fill="none"/>
     <path id="path20166" stroke-linejoin="bevel" d="m-13.566 319.22h-0.03625c-0.205-0.001-0.40875-0.0163-0.61125-0.0425-0.2025-0.0275-0.4025-0.07-0.59875-0.125-0.1975-0.0512-0.39125-0.11625-0.58-0.19625-0.18875-0.0788-0.37125-0.17125-0.54625-0.275-0.1775-0.1025-0.3475-0.215-0.51-0.34-0.16125-0.12375-0.315-0.26-0.45875-0.405-0.145-0.14375-0.28-0.29625-0.405-0.45875-0.125-0.16125-0.2375-0.33125-0.33875-0.50875-0.10375-0.17625-0.195-0.35875-0.27375-0.5475s-0.145-0.38125-0.1975-0.57875c-0.05625-0.1975-0.09875-0.3975-0.1275-0.6s-0.0425-0.40625-0.04-0.61v-61.491c0.0012-0.20375 0.015-0.4075 0.0425-0.61s0.06875-0.4025 0.125-0.6c0.05-0.1975 0.11625-0.39125 0.195-0.58 0.08-0.1875 0.17125-0.37 0.27625-0.54625 0.10125-0.17625 0.215-0.34625 0.34-0.50875 0.12375-0.16125 0.25875-0.315 0.40375-0.45875 0.14375-0.14625 0.2975-0.28125 0.45875-0.40625 0.1625-0.12375 0.3325-0.23625 0.51-0.33875 0.17625-0.10375 0.35875-0.195 0.54625-0.27375 0.18875-0.0788 0.3825-0.145 0.58-0.1975 0.19625-0.0562 0.3975-0.0975 0.6-0.12625 0.20125-0.0288 0.405-0.0425 0.61-0.0412h61.491c0.20375 0.001 0.4075 0.0163 0.61 0.0437 0.2025 0.0263 0.4025 0.0688 0.59875 0.12375 0.1975 0.0513 0.3925 0.1175 0.58 0.19625 0.18875 0.0787 0.37125 0.17125 0.54625 0.275 0.1775 0.1025 0.3475 0.215 0.50875 0.34 0.1625 0.125 0.31625 0.26 0.46 0.405 0.145 0.14375 0.28 0.2975 0.405 0.45875 0.125 0.1625 0.2375 0.33125 0.33875 0.50875 0.10375 0.17625 0.195 0.35875 0.27375 0.54625 0.07875 0.19 0.145 0.3825 0.1975 0.58 0.05625 0.1975 0.09875 0.3975 0.1275 0.6 0.0275 0.2025 0.04125 0.40625 0.04 0.61v61.491c-0.0012 0.20375-0.015 0.4075-0.0425 0.61s-0.06875 0.4025-0.125 0.6c-0.05125 0.1975-0.11625 0.39125-0.19625 0.58-0.07875 0.1875-0.17125 0.37-0.275 0.54625-0.10125 0.1775-0.215 0.3475-0.33875 0.50875-0.125 0.1625-0.26 0.315-0.405 0.45875-0.14375 0.145-0.2975 0.28125-0.46 0.405-0.16125 0.125-0.33125 0.23875-0.50875 0.34-0.175 0.1025-0.3575 0.195-0.54625 0.27375-0.18875 0.0788-0.3825 0.145-0.58 0.1975-0.19625 0.0563-0.39625 0.0975-0.6 0.12625-0.20125 0.0288-0.405 0.0425-0.60875 0.0412h-61.455z" fill-rule="evenodd" stroke="#000" stroke-miterlimit="22.926" stroke-width="2.4436" fill="#fff"/>
     <path id="path20170" d="m-13.142 316.99h60.592c0.12697-0.00098 0.25148-0.01 0.37722-0.0271 0.12451-0.0161 0.24778-0.0419 0.36859-0.0764 0.12204-0.0308 0.24162-0.0715 0.35749-0.12081 0.11588-0.048 0.22806-0.10478 0.33654-0.17012 0.10971-0.0616 0.2145-0.13191 0.31435-0.20834 0.09985-0.0777 0.19477-0.16025 0.28353-0.25025 0.08876-0.0888 0.17258-0.18244 0.24901-0.2823 0.07643-0.0999 0.1467-0.20463 0.20833-0.31435 0.0641-0.10848 0.12081-0.22066 0.17012-0.33654 0.04808-0.11711 0.08876-0.23546 0.12204-0.3575 0.03328-0.12081 0.05917-0.24409 0.07643-0.36983 0.01849-0.1245 0.02712-0.25025 0.02589-0.37599v-60.616c-0.0012-0.12574-0.0099-0.25025-0.02589-0.37599-0.01726-0.12451-0.04315-0.24778-0.07643-0.36859-0.03205-0.12205-0.07273-0.24162-0.12204-0.3575s-0.10478-0.22929-0.17012-0.33654c-0.06164-0.10972-0.1319-0.2145-0.20833-0.31436-0.07643-0.0999-0.16026-0.19477-0.24901-0.28353-0.08876-0.0888-0.18368-0.17259-0.28353-0.24902-0.09985-0.0764-0.20464-0.14669-0.31435-0.20957-0.10848-0.0628-0.22066-0.11957-0.33654-0.16888-0.11588-0.0481-0.23545-0.0888-0.35749-0.12205-0.12081-0.0332-0.24408-0.0592-0.36982-0.0776-0.12451-0.0173-0.24901-0.0259-0.37598-0.0247h-60.614c-0.12574 0.00099-0.25148 0.01-0.37598 0.0259-0.12574 0.0173-0.24901 0.0431-0.36982 0.0764-0.12204 0.032-0.24162 0.0727-0.35749 0.12205-0.11588 0.0481-0.22806 0.10478-0.33654 0.16888-0.10971 0.0629-0.2145 0.13314-0.31435 0.20957-0.09985 0.0764-0.19354 0.16026-0.2823 0.24902-0.08999 0.0888-0.17382 0.18368-0.25025 0.28353-0.07643 0.0998-0.1467 0.20464-0.20956 0.31435-0.06287 0.10849-0.11958 0.22067-0.16765 0.33655-0.04931 0.11588-0.08999 0.23545-0.12204 0.3575-0.03452 0.12081-0.06164 0.24408-0.07889 0.36982-0.01726 0.12451-0.02589 0.24902-0.02465 0.37476v60.616c0 0.12574 0.0099 0.25148 0.02589 0.37599 0.01726 0.12574 0.04315 0.24902 0.07766 0.36983 0.03082 0.12204 0.0715 0.24162 0.12081 0.3575 0.04808 0.11588 0.10478 0.22806 0.16888 0.33654 0.06287 0.10972 0.13314 0.2145 0.20956 0.31435 0.07766 0.0999 0.16026 0.19355 0.25025 0.2823 0.08876 0.09 0.18244 0.17382 0.2823 0.25025 0.09985 0.0764 0.20463 0.1467 0.31435 0.20834 0.10848 0.0641 0.22066 0.12081 0.33654 0.16889 0.11588 0.0493 0.23545 0.09 0.35749 0.12204 0.12081 0.0345 0.24408 0.0605 0.36982 0.0789 0.12451 0.0173 0.25025 0.0247 0.37598 0.0247h0.02219z" fill-rule="evenodd" fill="#e72512"/>
     <path id="path20174" d="m33.605 307.41-40.085-40.085v40.085h40.085" fill-rule="evenodd" fill="#fff"/>
     <path id="path20178" d="m40.764 300.26v-40.085h-40.085l40.085 40.085" fill-rule="evenodd" fill="#fff"/>
     <path id="path20182" stroke-linejoin="bevel" d="m4.1592 284.6 11.315-2.9888-3.2238-1.8662c0.0475-0.0587 0.09625-0.11625 0.1475-0.17125 0.0525-0.0563 0.10375-0.11125 0.15625-0.16625 0.07-0.075 0.13875-0.15 0.20875-0.225 0.06875-0.0763 0.13875-0.15 0.21125-0.2225 0.20625-0.21 0.42875-0.4025 0.665-0.57875 0.2375-0.17625 0.48625-0.335 0.74625-0.475 0.25625-0.14625 0.5225-0.27375 0.79625-0.38375 0.27375-0.10875 0.55375-0.19875 0.84-0.27 0.285-0.0737 0.575-0.12875 0.8675-0.16375s0.5875-0.0487 0.8825-0.0425c0.295 0.001 0.58875 0.0238 0.88125 0.0663 0.29125 0.0412 0.58 0.10375 0.8625 0.18625 0.28375 0.0775 0.5625 0.175 0.83375 0.2925 0.27 0.115 0.5325 0.25 0.785 0.4025 0.25375 0.14875 0.4975 0.315 0.72875 0.4975 0.2325 0.1825 0.45125 0.38125 0.655 0.59375 0.20625 0.21 0.39875 0.43375 0.575 0.66875 0.17625 0.23625 0.33625 0.485 0.47875 0.7425 0.14625 0.25625 0.27375 0.5225 0.3825 0.79625 0.11 0.27375 0.2 0.55375 0.27125 0.84125 0.07375 0.28375 0.12875 0.57375 0.16375 0.86625 0.03375 0.29375 0.04875 0.5875 0.0425 0.8825-0.0025 0.295-0.02375 0.58875-0.06625 0.88125-0.0425 0.29125-0.105 0.57875-0.18625 0.8625-0.07875 0.28375-0.17625 0.5625-0.2925 0.83375-0.11625 0.27-0.25125 0.5325-0.4025 0.785-0.15 0.255-0.31625 0.49875-0.49875 0.73-0.18125 0.23125-0.38 0.45-0.5925 0.65375-0.21 0.20625-0.43375 0.3975-0.67 0.57375s-0.485 0.33625-0.7425 0.48c-0.255 0.14875-0.52125 0.27875-0.795 0.39-0.2725 0.11125-0.55375 0.19875-0.84125 0.26375-0.19 0.0437-0.38125 0.08-0.57375 0.10625-0.19375 0.0263-0.3875 0.0488-0.58125 0.0675-0.08375 0.009-0.1675 0.0163-0.2525 0.0225-0.08375 0.006-0.16875 0.01-0.25375 0.0112v4.7575c0.11875 0.002 0.23625 0 0.35375-0.006 0.11875-0.007 0.2375-0.0163 0.355-0.0275 0.3575-0.0325 0.7125-0.0763 1.0662-0.13375 0.3525-0.0575 0.70375-0.13 1.05-0.21875 0.48625-0.12 0.96375-0.2725 1.4275-0.4575 0.46625-0.18625 0.91875-0.40375 1.3538-0.6525 0.43875-0.24125 0.86125-0.51375 1.2625-0.81375 0.40125-0.29875 0.78125-0.62625 1.1375-0.97875 0.36125-0.3475 0.6975-0.71875 1.0088-1.1112 0.31-0.39375 0.5925-0.80875 0.84625-1.2412 0.25875-0.4275 0.4875-0.87375 0.685-1.335 0.1975-0.46 0.36375-0.93375 0.49625-1.4162 0.14-0.48125 0.24625-0.97125 0.3175-1.4675s0.11-0.99625 0.1125-1.4962c0.01-0.50125-0.015-1.0025-0.07375-1.5s-0.15125-0.99-0.2775-1.475c-0.12-0.48625-0.27375-0.96375-0.46-1.4288-0.185-0.46625-0.4025-0.9175-0.65-1.3538-0.2425-0.4375-0.51375-0.86-0.81375-1.2612-0.3-0.40125-0.62625-0.78125-0.97875-1.1375-0.3475-0.3625-0.71875-0.69875-1.1125-1.0088-0.3925-0.31-0.8075-0.5925-1.24-0.84625-0.42875-0.25875-0.875-0.4875-1.335-0.68625-0.46-0.1975-0.93375-0.3625-1.4162-0.49625-0.48125-0.13875-0.97125-0.245-1.4675-0.31625-0.495-0.0725-0.99625-0.11-1.4975-0.11375-0.5-0.01-1.0012 0.015-1.4988 0.0738-0.4975 0.0587-0.99 0.15125-1.475 0.27875-0.48625 0.12-0.9625 0.27375-1.4275 0.46-0.46625 0.18625-0.91875 0.4025-1.355 0.65-0.44 0.24-0.86375 0.51125-1.2662 0.81125-0.4025 0.2975-0.78125 0.625-1.1338 0.98-0.12625 0.12375-0.2475 0.25125-0.365 0.3825-0.11875 0.1325-0.23 0.27-0.335 0.4125l-1.7812-3.0638-3.0362 11.294z" fill-rule="evenodd" stroke="#000" stroke-miterlimit="22.926" stroke-width=".27825"/>
     <path id="path20186" stroke-linejoin="bevel" d="m38.872 276.95-2.98-11.318-1.8012 3.1025c-0.0725-0.0825-0.1475-0.165-0.22375-0.245-0.075-0.0813-0.1525-0.16-0.23-0.23875-0.67875-0.695-1.4012-1.3475-2.1625-1.9525-0.76-0.605-1.5638-1.1562-2.4038-1.6475-0.82875-0.50875-1.6938-0.95625-2.5875-1.3375-0.895-0.3825-1.815-0.7025-2.7538-0.9575-0.935-0.27-1.8862-0.475-2.8488-0.615-0.9625-0.14-1.9338-0.2125-2.905-0.22-0.9725-0.0188-1.945 0.0288-2.9112 0.1425-0.965 0.115-1.9225 0.295-2.8625 0.54125-0.945 0.23375-1.8712 0.53125-2.775 0.89125-0.90375 0.36-1.7812 0.7825-2.6262 1.2638-0.85125 0.46875-1.67 0.99625-2.4488 1.5788-0.78 0.58125-1.5175 1.2162-2.21 1.9-0.70125 0.67375-1.355 1.395-1.9562 2.1588-0.6025 0.76375-1.1512 1.5688-1.6425 2.4075-0.50375 0.8325-0.94875 1.6975-1.3325 2.5912-0.38375 0.89375-0.705 1.8125-0.9625 2.75-0.27125 0.935-0.47625 1.8862-0.61625 2.8488-0.13875 0.9625-0.2125 1.9338-0.21875 2.905-0.01875 0.9725 0.02875 1.945 0.1425 2.9112 0.115 0.965 0.295 1.9225 0.54125 2.8625 0.2325 0.945 0.53 1.8712 0.89125 2.775 0.36 0.90375 0.7825 1.7812 1.2638 2.6262 0.46875 0.85125 0.99625 1.67 1.5788 2.4488 0.58125 0.77875 1.2162 1.5175 1.8987 2.21 0.675 0.70125 1.3962 1.355 2.16 1.9562 0.76375 0.6025 1.5675 1.1512 2.4062 1.6425 0.8325 0.5025 1.6988 0.9475 2.5925 1.3312 0.89375 0.38375 1.8125 0.70625 2.75 0.96375 0.93375 0.27125 1.885 0.47875 2.8475 0.61875s1.9338 0.2125 2.9062 0.21625c0.97375 0.0163 1.9462-0.0337 2.9125-0.15125 0.965-0.11625 1.92-0.29375 2.8612-0.5325 0.36375-0.0863 0.725-0.18375 1.0825-0.29125 0.35875-0.10875 0.71375-0.23375 1.0625-0.37375l-1.62-4.4375c-0.2725 0.11375-0.55 0.2125-0.8325 0.29625-0.2825 0.085-0.5675 0.16-0.855 0.2275-0.745 0.17875-1.5 0.3175-2.26 0.4125-0.75875 0.095-1.5238 0.13625-2.2888 0.12625-0.76625 0-1.5312-0.055-2.2888-0.1675-0.75875-0.11125-1.5088-0.275-2.245-0.49-0.73875-0.205-1.4625-0.45875-2.1675-0.76125-0.70375-0.30125-1.3863-0.65125-2.0413-1.0475-0.66125-0.38625-1.295-0.81875-1.8962-1.2938-0.6025-0.47375-1.17-0.98875-1.7012-1.5425-0.53875-0.545-1.0388-1.1262-1.4975-1.74-0.4575-0.615-0.87375-1.2588-1.2438-1.93-0.37875-0.66625-0.71125-1.3575-0.995-2.0688-0.28375-0.71125-0.51875-1.4425-0.7025-2.1862-0.19375-0.74125-0.33625-1.495-0.42625-2.2562-0.09-0.76-0.1275-1.5262-0.1125-2.2925 0.005-0.76625 0.0625-1.5312 0.17375-2.2888 0.10875-0.75875 0.27125-1.5088 0.48375-2.245 0.20375-0.73875 0.4575-1.4625 0.76-2.1662 0.3025-0.705 0.6525-1.3862 1.0488-2.0425 0.3875-0.66125 0.82-1.295 1.2938-1.8962 0.475-0.6025 0.99-1.17 1.5425-1.7012 0.545-0.53875 1.1262-1.0388 1.74-1.4962 0.61375-0.45875 1.2588-0.875 1.93-1.245 0.66625-0.37875 1.3575-0.71125 2.0688-0.995 0.71125-0.28375 1.4425-0.51875 2.1862-0.7025 0.74125-0.1925 1.495-0.335 2.255-0.425 0.76125-0.09 1.5275-0.1275 2.2938-0.1125 0.76625 0.004 1.5325 0.0612 2.2912 0.17125 0.7575 0.11 1.5075 0.27125 2.2425 0.485 0.7375 0.205 1.46 0.45875 2.1625 0.7625 0.705 0.30375 1.3875 0.65375 2.0462 1.0462 0.665 0.385 1.3038 0.815 1.91 1.2862 0.60375 0.47 1.1675 0.98875 1.6875 1.55 0.08375 0.0875 0.165 0.17625 0.24625 0.26625s0.16 0.1825 0.2375 0.275l-3.1562 1.815 11.291 3.0462z" fill-rule="evenodd" stroke="#000" stroke-miterlimit="22.926" stroke-width=".27825"/>
    </g>
   </g>
  </g>
 </g>
</svg>
