<svg
   xmlns="http://www.w3.org/2000/svg"
   xmlns:xlink="http://www.w3.org/1999/xlink"  
   version="1.1"
   width="60"
   height="60">
  <symbol id="notice_waterbike" width="60" height="60">
    <path d="m 11.25,39.347201 1.4613,2.0148 c 0.31103,0.0305 0.62205,0.0537 0.93413,0.0707 0.30892,0.0169 0.61994,0.0137 0.92885,-0.0105 0.3532,-0.0316 0.70323,-0.0928 1.0469,-0.18239 0.34582,-0.0896 0.68742,-0.19716 1.0227,-0.32051 0.69058,-0.24777 1.3653,-0.53665 2.0211,-0.86665 0.65473,-0.33 1.2958,-0.68636 1.921,-1.0691 0.53243,-0.32473 1.0659,-0.6484 1.6004,-0.96997 0.53138,-0.31946 1.0828,-0.60518 1.65,-0.85505 0.50396,-0.22667 1.0258,-0.41118 1.5604,-0.5514 0.54403,-0.14339 1.0975,-0.2446 1.6574,-0.30259 0.64735,-0.0832 1.3021,-0.0949 1.9515,-0.0347 0.63575,0.0559 1.2546,0.22668 1.8282,0.50607 0.27517,0.12546 0.53875,0.27412 0.78968,0.44176 0.25515,0.1708 0.50502,0.34687 0.74962,0.53032 0.72115,-0.10544 1.4402,-0.2193 2.1582,-0.3416 0.71694,-0.1223 1.4286,-0.27096 2.1339,-0.44598 0.78758,-0.19926 1.5625,-0.4407 2.3227,-0.72536 0.76227,-0.28467 1.5077,-0.61256 2.232,-0.98157 0.67477,-0.33316 1.3295,-0.70639 1.9589,-1.1176 0.62942,-0.41118 1.2262,-0.86981 1.785,-1.3717 0.27517,-0.23933 0.53981,-0.49131 0.79179,-0.75594 0.25304,-0.26253 0.49026,-0.53981 0.71166,-0.82975 0.29627,-0.38482 0.56617,-0.79073 0.80761,-1.2135 0.24144,-0.42383 0.46285,-0.85821 0.66317,-1.3031 0.18767,-0.40802 0.36374,-0.82026 0.53032,-1.2378 0.16553,-0.41646 0.32684,-0.83397 0.48604,-1.2525 -0.57249,0.33633 -1.146,0.66949 -1.7217,0.99949 -0.57566,0.33105 -1.1566,0.65051 -1.7438,0.96048 -0.76333,0.40275 -1.5382,0.7823 -2.3237,1.1408 -0.78547,0.35846 -1.5804,0.69795 -2.3828,1.0174 -0.42173,0.16974 -0.84556,0.33527 -1.2715,0.49763 -0.42489,0.16237 -0.85083,0.32262 -1.2778,0.48288 l -26.983,8.0771"/>
    <path d="m 17.292772,19.163934 c -0.11703,0.019 -0.215558,0.07718 -0.322048,0.128819 -0.102273,0.0485 -0.188049,0.103609 -0.257639,0.193229 -0.0443,0.05479 -0.101376,0.12786 -0.12882,0.19323 -0.02849,0.0675 -0.04221,0.124699 -0.06441,0.193229 l -1.062761,6.086721 c -0.0316,0.14444 -0.03711,0.273174 -0.06441,0.418664 -0.0285,0.147609 -0.05071,0.301158 -0.06441,0.450868 -0.0169,0.18239 -0.0228,0.366143 0,0.547483 0.02109,0.17713 0.07145,0.360287 0.161024,0.515278 0.0717,0.12968 0.178094,0.225049 0.289844,0.322049 0.11281,0.100159 0.222464,0.185949 0.354254,0.257639 0.28256,0.15393 0.588606,0.285723 0.901736,0.354253 0.31208,0.0685 0.620811,0.12575 0.933942,0.193229 0.394319,0.0907 0.780885,0.209814 1.159375,0.354254 0.3785,0.14444 0.758191,0.283229 1.127171,0.450868 0.16025,0.0706 0.322822,0.152684 0.483073,0.225434 0.159209,0.0727 0.322813,0.151634 0.483073,0.225435 l 0.322049,1.12717 -7.407121,2.061112 c -0.11176,0.019 -0.212399,0.03911 -0.322049,0.06441 -0.11282,0.0253 -0.247774,0.0544 -0.354254,0.09661 -0.17818,0.0696 -0.337583,0.166484 -0.483073,0.289843 -0.14023,0.11702 -0.254569,0.249974 -0.322049,0.418664 -0.0601,0.14338 -0.09872,0.295888 -0.09661,0.450868 8.4e-4,0.163421 0.0112,0.351858 0.0322,0.515278 -0.106491,0.004 -0.184414,0.01751 -0.289844,0.0322 -0.102273,0.0138 -0.228219,0.02231 -0.322049,0.06441 -0.1455,0.0738 -0.260424,0.189209 -0.354254,0.322048 -0.09799,0.134951 -0.154219,0.288509 -0.193229,0.450869 -0.0337,0.12863 -0.06541,0.253619 -0.06441,0.386458 8.5e-4,0.13179 0.018,0.254669 0.0322,0.386459 l 0.772917,1.481424 25.474056,-7.79358 c 0.40486,-0.13706 0.787751,-0.278433 1.191581,-0.418663 0.403799,-0.14022 0.823185,-0.302209 1.223785,-0.450868 0.93518,-0.34792 1.858719,-0.719191 2.769619,-1.127171 0.91093,-0.40907 1.791605,-0.85127 2.673005,-1.3204 0.52505,-0.27517 1.061438,-0.546337 1.578039,-0.837327 0.516619,-0.29205 1.032433,-0.605476 1.545834,-0.901736 L 30.81882,25.379475 25.60163,20.741973 25.311786,20.516538 25.021942,20.291104 c -0.1107,-0.0917 -0.203968,-0.174349 -0.322048,-0.257639 -0.114921,-0.08109 -0.255729,-0.143668 -0.386459,-0.193229 -0.13601,-0.0527 -0.273163,-0.114109 -0.418663,-0.128819 -0.14866,-0.0159 -0.301159,0.0031 -0.450869,0 l -5.249394,-0.483074 c -0.14655,-0.0295 -0.302209,-0.04751 -0.450868,-0.06441 -0.14866,-0.0159 -0.303268,-0.0243 -0.450869,0 z m 3.123873,1.610243 3.574741,0 c 0.04323,-0.002 0.08552,-0.002 0.12882,0 0.04221,0.0021 0.08872,0.01951 0.128819,0.03221 0.04955,0.0159 0.08872,0.03281 0.12882,0.06441 0.04,0.03057 0.07342,0.08452 0.09661,0.12882 0.0253,0.0506 0.03221,0.104124 0.03221,0.161024 10e-4,0.06009 0.008,0.100922 0,0.161024 l -0.933941,1.38481 c -0.0191,0.0317 -0.04221,0.06711 -0.06441,0.09661 -0.0201,0.0284 -0.06611,0.04751 -0.09661,0.06441 -0.03269,0.0179 -0.05862,0.03136 -0.09661,0.03221 -0.04015,10e-4 -0.08872,0.008 -0.12882,0 -0.04423,-0.0063 -0.08562,-0.01951 -0.128819,-0.03221 -0.04116,-0.0116 -0.08762,-0.0184 -0.12882,-0.0322 l -2.673004,-1.320399 0.161024,-0.740713 z m 5.08837,1.094966 6.602,6.602 -7.696965,2.093316 -0.386459,-1.674653 c -0.0201,-0.0738 -0.04021,-0.154734 -0.06441,-0.225434 -0.0242,-0.07064 -0.05862,-0.128929 -0.09661,-0.193229 -0.05061,-0.0854 -0.119429,-0.158935 -0.193229,-0.225435 -0.0738,-0.06853 -0.138935,-0.140529 -0.225435,-0.193229 -0.07275,-0.04537 -0.148434,-0.09082 -0.225434,-0.128819 -0.07592,-0.03684 -0.179639,-0.06192 -0.257639,-0.09661 l -2.930643,-0.998351 c -0.06642,-0.0106 -0.128929,-0.04641 -0.19323,-0.06441 -0.06221,-0.0179 -0.110424,-0.02531 -0.161024,-0.06441 -0.04633,-0.03376 -0.09831,-0.08032 -0.128819,-0.128819 -0.0316,-0.04955 -0.04751,-0.105124 -0.06441,-0.161024 -0.0137,-0.04849 -0.02921,-0.111525 -0.03221,-0.161025 -0.004,-0.05061 0,-0.110424 0,-0.161024 l 0.483073,-3.027258 3.123873,1.159375 c 0.05904,0.0159 0.102025,0.01951 0.161024,0.03221 0.06009,0.0136 0.13203,0.02721 0.19323,0.03221 0.09172,0.0099 0.199143,0.0148 0.289843,0 0.08857,-0.0137 0.148434,-0.05131 0.225435,-0.09662 0.08118,-0.05166 0.169633,-0.115229 0.225434,-0.193229 0.0601,-0.08224 0.110424,-0.169039 0.161024,-0.257639 l 1.19158,-1.867883 z"/>
    <path d="m 11,44.527201 c 0.37428,0.13496 0.75173,0.26042 1.1313,0.37639 0.3764,0.11492 0.76122,0.19821 1.1503,0.25093 0.40485,0.0485 0.81182,0.058 1.2177,0.0295 0.41013,-0.0284 0.81815,-0.0811 1.222,-0.1592 0.62521,-0.11281 1.242,-0.2678 1.8461,-0.4639 0.60201,-0.19505 1.1924,-0.42489 1.7681,-0.68846 0.45019,-0.19927 0.89301,-0.41751 1.3253,-0.65368 0.43227,-0.23722 0.85505,-0.49236 1.2652,-0.76648 0.38904,-0.26042 0.77492,-0.52611 1.1576,-0.79601 0.38166,-0.2699 0.77492,-0.52083 1.1798,-0.75278 0.48815,-0.28361 1.0027,-0.51872 1.5372,-0.69901 0.54508,-0.1845 1.1091,-0.3068 1.6806,-0.36584 0.43332,-0.0591 0.87298,-0.0686 1.3084,-0.0284 0.42173,0.0369 0.83291,0.15604 1.2093,0.35109 0.27412,0.13917 0.52927,0.31313 0.75806,0.51766 0.23405,0.20876 0.45757,0.42806 0.67054,0.6579 0.15499,0.16236 0.30892,0.32578 0.46285,0.4892 0.15182,0.16236 0.30364,0.32473 0.45441,0.48814 0.39748,-0.20559 0.80023,-0.40064 1.2072,-0.58619 0.40486,-0.18451 0.82343,-0.33949 1.2504,-0.4639 0.33844,-0.0959 0.6832,-0.16447 1.0322,-0.20665 0.34898,-0.0422 0.70007,-0.0537 1.0512,-0.0348 0.33422,0.0148 0.66527,0.0569 0.99211,0.12547 0.32684,0.0675 0.64841,0.15814 0.96259,0.2699 0.41751,0.14866 0.8287,0.31524 1.2325,0.5008 0.40275,0.18556 0.81077,0.35846 1.2241,0.51977 0.48499,0.18978 0.98474,0.33949 1.494,0.44703 0.51345,0.1086 1.0353,0.17186 1.5593,0.18767 0.5746,0.0305 1.1513,-8.4e-4 1.7185,-0.0949 0.563,-0.0917 1.1112,-0.2583 1.631,-0.49447 0.18134,-0.078 0.36057,-0.16342 0.53559,-0.25514 0.17502,-0.0928 0.34898,-0.18662 0.52189,-0.28361 v -2.1202 c -0.28045,0.17502 -0.56406,0.34476 -0.85084,0.50818 -0.28677,0.16342 -0.58304,0.30997 -0.88668,0.43649 -0.40907,0.16763 -0.83502,0.29099 -1.2704,0.36901 -0.43544,0.079 -0.87825,0.10965 -1.3211,0.0917 -0.42384,-0.01 -0.84557,-0.0601 -1.2599,-0.15076 -0.4133,-0.0907 -0.82026,-0.21298 -1.2156,-0.3648 -0.42278,-0.16131 -0.83924,-0.33632 -1.2504,-0.52504 -0.41013,-0.18767 -0.8287,-0.35847 -1.2525,-0.5124 -0.40064,-0.14655 -0.81288,-0.26252 -1.2304,-0.34687 -0.41962,-0.0854 -0.84556,-0.13601 -1.2736,-0.15077 -0.44176,-0.0232 -0.88562,-0.008 -1.3253,0.0443 -0.43859,0.0517 -0.87297,0.13811 -1.2979,0.25936 -0.27307,0.0749 -0.54403,0.1592 -0.81077,0.25409 -0.2678,0.0949 -0.53349,0.19293 -0.79812,0.2952 -0.0832,-0.0864 -0.16658,-0.1708 -0.25093,-0.2562 -0.0833,-0.0854 -0.16869,-0.16869 -0.25514,-0.25092 -0.20981,-0.20138 -0.43122,-0.3901 -0.66422,-0.56406 -0.2309,-0.17396 -0.47655,-0.32684 -0.73486,-0.45652 -0.53665,-0.27517 -1.1197,-0.44913 -1.7196,-0.5145 -0.61255,-0.0686 -1.2304,-0.0623 -1.8419,0.019 -0.69374,0.0696 -1.378,0.21613 -2.0401,0.43859 -0.65157,0.2193 -1.2778,0.50713 -1.8683,0.86032 -0.41856,0.24249 -0.82553,0.50291 -1.222,0.7823 -0.39642,0.27834 -0.79706,0.55246 -1.2019,0.82026 -0.37007,0.24249 -0.74962,0.47127 -1.1376,0.68424 -0.38799,0.21192 -0.78441,0.41013 -1.1872,0.59042 -0.50819,0.23511 -1.029,0.43965 -1.5614,0.61466 -0.53454,0.17502 -1.0807,0.31208 -1.6342,0.41013 -0.31103,0.0611 -0.62627,0.10543 -0.94256,0.12968 -0.31313,0.0243 -0.62732,0.0201 -0.93835,-0.0148 -0.43543,-0.0496 -0.86243,-0.14971 -1.2736,-0.29942 -0.41962,-0.15182 -0.83291,-0.32051 -1.2399,-0.50396 v 2.0053"/>
    <path d="m 20.65,16.467201 c 0,0.097 -0.008,0.19294 -0.0222,0.28888 -0.0148,0.0959 -0.038,0.18978 -0.0685,0.28045 -0.0285,0.0928 -0.0654,0.18134 -0.10965,0.26779 -0.0433,0.0854 -0.0938,0.16764 -0.15182,0.24566 -0.0569,0.079 -0.11914,0.15287 -0.18767,0.2214 -0.0686,0.0686 -0.14233,0.13074 -0.2214,0.18767 -0.078,0.0569 -0.16026,0.10754 -0.24566,0.15182 -0.0865,0.0443 -0.17502,0.0811 -0.2678,0.10965 -0.0907,0.0305 -0.18556,0.0537 -0.28045,0.0696 -0.0959,0.0148 -0.19188,0.0222 -0.28888,0.0211 -0.097,8.4e-4 -0.19294,-0.006 -0.28888,-0.0211 -0.0949,-0.0159 -0.18978,-0.039 -0.2815,-0.0696 -0.0917,-0.0284 -0.18029,-0.0654 -0.26675,-0.10965 -0.0854,-0.0443 -0.16763,-0.0949 -0.24565,-0.15182 -0.079,-0.0569 -0.15288,-0.11914 -0.22141,-0.18767 -0.0686,-0.0686 -0.13074,-0.14338 -0.18767,-0.2214 -0.0569,-0.078 -0.10859,-0.16026 -0.15182,-0.24566 -0.0443,-0.0865 -0.0812,-0.17501 -0.10965,-0.26779 -0.0316,-0.0907 -0.0538,-0.18556 -0.0696,-0.28045 -0.0148,-0.0959 -0.0222,-0.19189 -0.0211,-0.28888 -8.4e-4,-0.097 0.007,-0.19294 0.0211,-0.28888 0.0158,-0.096 0.038,-0.18978 0.0696,-0.28151 0.0284,-0.0917 0.0654,-0.18134 0.10965,-0.26674 0.0432,-0.0854 0.0949,-0.16763 0.15182,-0.24565 0.0569,-0.079 0.11914,-0.15288 0.18767,-0.22141 0.0685,-0.0686 0.14233,-0.13073 0.22141,-0.18766 0.078,-0.0569 0.16025,-0.1086 0.24565,-0.15183 0.0865,-0.0443 0.17502,-0.0811 0.26675,-0.10964 0.0917,-0.0316 0.18661,-0.0537 0.2815,-0.0696 0.0959,-0.0148 0.19188,-0.0222 0.28888,-0.0211 0.097,-8.5e-4 0.19294,0.007 0.28888,0.0211 0.0949,0.0159 0.18978,0.038 0.28045,0.0696 0.0928,0.0284 0.18135,0.0654 0.2678,0.10964 0.0854,0.0433 0.16764,0.0949 0.24566,0.15183 0.079,0.0559 0.15287,0.11913 0.2214,0.18766 0.0685,0.0686 0.13074,0.14234 0.18767,0.22141 0.058,0.078 0.1086,0.16025 0.15182,0.24565 0.0443,0.0865 0.0811,0.17502 0.10965,0.26674 0.0305,0.0917 0.0537,0.18556 0.0685,0.28151 0.0148,0.0949 0.0222,0.19188 0.0222,0.28888"/>
  </symbol>
  <use xlink:href="#notice_waterbike" x="0" y="0" />
</svg>
