<?xml version="1.0" encoding="UTF-8" standalone="no"?>
<!-- Created with Inkscape (http://www.inkscape.org/) -->
<svg id="svg2" xmlns:rdf="http://www.w3.org/1999/02/22-rdf-syntax-ns#" xmlns="http://www.w3.org/2000/svg" height="60" width="60" version="1.1" xmlns:cc="http://creativecommons.org/ns#" xmlns:dc="http://purl.org/dc/elements/1.1/">
 <metadata id="metadata7">
  <rdf:RDF>
   <cc:Work rdf:about="">
    <dc:format>image/svg+xml</dc:format>
    <dc:type rdf:resource="http://purl.org/dc/dcmitype/StillImage"/>
    <dc:title/>
   </cc:Work>
  </rdf:RDF>
 </metadata>
 <g id="layer48" transform="translate(0,-60)">
  <g id="layer1-94" transform="matrix(.97035 0 0 .97035 138.12 -138.25)">
   <g id="g2987" transform="matrix(.84345 0 0 .84345 -17.444 36.823)">
    <g id="g3955" transform="matrix(0 1.25 1.25 0 -80.248 270.58)" stroke="#000" fill="#fff">
     <path id="path3957" stroke-linejoin="bevel" d="m0 0v-49.89-0.013-0.013c-0.001-0.145-0.011-0.289-0.031-0.432-0.019-0.144-0.048-0.286-0.088-0.425-0.036-0.14-0.083-0.278-0.139-0.411s-0.121-0.263-0.195-0.387c-0.072-0.126-0.153-0.246-0.241-0.361-0.088-0.114-0.184-0.223-0.287-0.325-0.101-0.103-0.21-0.199-0.324-0.287-0.115-0.088-0.236-0.169-0.361-0.24-0.125-0.074-0.254-0.138-0.388-0.194-0.133-0.056-0.271-0.103-0.41-0.14-0.14-0.04-0.282-0.07-0.425-0.09-0.144-0.02-0.288-0.03-0.432-0.029h-49.943c-0.144 0.001-0.289 0.011-0.432 0.03-0.144 0.019-0.285 0.049-0.425 0.089-0.14 0.036-0.277 0.082-0.411 0.138-0.133 0.057-0.262 0.122-0.387 0.196-0.125 0.071-0.246 0.152-0.361 0.24-0.114 0.088-0.223 0.184-0.324 0.287-0.104 0.102-0.199 0.211-0.288 0.325-0.088 0.115-0.168 0.235-0.24 0.361-0.073 0.125-0.138 0.254-0.194 0.388-0.056 0.133-0.103 0.27-0.14 0.41-0.04 0.139-0.07 0.281-0.09 0.425-0.02 0.143-0.03 0.288-0.029 0.432v49.942c0.001 0.145 0.011 0.289 0.03 0.433 0.02 0.143 0.049 0.285 0.089 0.424 0.036 0.14 0.082 0.278 0.138 0.411 0.057 0.134 0.122 0.263 0.196 0.388 0.072 0.125 0.152 0.246 0.24 0.36 0.089 0.115 0.184 0.223 0.288 0.325 0.101 0.103 0.21 0.199 0.324 0.287 0.115 0.089 0.236 0.169 0.361 0.241 0.125 0.073 0.255 0.138 0.388 0.194 0.133 0.055 0.27 0.102 0.41 0.14 0.14 0.039 0.282 0.069 0.425 0.09 0.143 0.02 0.288 0.03 0.432 0.028h0.013l0.014 0.001h49.889l0.013-0.001h0.014c0.144 0 0.288-0.01 0.432-0.03 0.143-0.019 0.285-0.049 0.425-0.088 0.14-0.036 0.277-0.083 0.41-0.139 0.134-0.056 0.263-0.121 0.388-0.195 0.125-0.072 0.246-0.153 0.36-0.241 0.115-0.088 0.224-0.184 0.325-0.287 0.103-0.102 0.199-0.21 0.288-0.325 0.088-0.114 0.168-0.235 0.24-0.36 0.073-0.125 0.138-0.255 0.194-0.388 0.056-0.134 0.103-0.271 0.14-0.411 0.04-0.139 0.07-0.281 0.09-0.425 0.02-0.143 0.03-0.287 0.029-0.432v-0.013-0.013z" stroke-miterlimit="22.926" stroke-width=".22260"/>
     <g id="g3959" transform="translate(.054)" stroke-width="1.0306">
      <path id="path3961" stroke-linejoin="bevel" d="m0 0v0.027c-0.001 0.147-0.011 0.293-0.031 0.439-0.019 0.146-0.05 0.29-0.089 0.431-0.037 0.143-0.085 0.283-0.142 0.418-0.057 0.136-0.123 0.267-0.198 0.393-0.073 0.128-0.155 0.25-0.245 0.367-0.089 0.117-0.187 0.227-0.291 0.33-0.104 0.105-0.214 0.203-0.33 0.292-0.117 0.09-0.239 0.171-0.367 0.245-0.127 0.074-0.258 0.14-0.394 0.197-0.136 0.056-0.275 0.104-0.417 0.142-0.142 0.04-0.286 0.071-0.432 0.091-0.145 0.021-0.292 0.03-0.439 0.03h-49.943c-0.147-0.001-0.294-0.012-0.439-0.031-0.146-0.02-0.29-0.05-0.432-0.09-0.142-0.037-0.282-0.084-0.418-0.141-0.135-0.057-0.266-0.123-0.392-0.198-0.128-0.074-0.251-0.156-0.367-0.245-0.117-0.09-0.227-0.187-0.331-0.292-0.104-0.103-0.202-0.213-0.291-0.33-0.09-0.116-0.172-0.239-0.245-0.367-0.074-0.126-0.14-0.258-0.197-0.393-0.057-0.136-0.104-0.275-0.142-0.418-0.041-0.141-0.071-0.285-0.092-0.431-0.02-0.146-0.03-0.292-0.029-0.439v-49.943c0.001-0.147 0.011-0.294 0.031-0.44 0.02-0.145 0.05-0.289 0.09-0.431 0.036-0.143 0.084-0.282 0.141-0.418 0.057-0.135 0.123-0.267 0.198-0.393 0.073-0.127 0.155-0.25 0.245-0.367 0.089-0.116 0.187-0.227 0.291-0.33 0.104-0.105 0.214-0.202 0.331-0.292 0.116-0.09 0.239-0.171 0.367-0.244 0.126-0.075 0.257-0.141 0.393-0.197 0.136-0.057 0.275-0.105 0.417-0.143 0.142-0.04 0.286-0.07 0.432-0.091 0.145-0.02 0.292-0.03 0.439-0.029h49.943c0.147 0.001 0.294 0.011 0.439 0.031 0.146 0.019 0.29 0.049 0.432 0.089 0.142 0.037 0.282 0.084 0.417 0.142 0.136 0.057 0.267 0.123 0.394 0.198 0.127 0.073 0.25 0.155 0.367 0.244 0.116 0.09 0.226 0.187 0.33 0.292 0.105 0.103 0.202 0.214 0.292 0.33 0.089 0.117 0.171 0.239 0.244 0.367 0.075 0.127 0.14 0.258 0.197 0.394 0.057 0.135 0.104 0.275 0.143 0.417s0.07 0.286 0.091 0.432c0.02 0.145 0.03 0.292 0.029 0.439v49.916z" stroke="#000" stroke-miterlimit="22.926" stroke-width="1.9549" fill="#fff"/>
     </g>
    </g>
    <g id="g3951" fill="#039" transform="matrix(0 1.25 1.25 0 -80.248 267.61)">
     <path id="path3953" d="m0 0v0.008c0 0.042-0.003 0.084-0.009 0.125-0.005 0.042-0.014 0.083-0.026 0.124-0.01 0.04-0.024 0.08-0.04 0.119-0.016 0.038-0.035 0.076-0.057 0.112-0.021 0.037-0.044 0.072-0.07 0.105-0.025 0.033-0.053 0.065-0.083 0.094-0.029 0.03-0.061 0.058-0.094 0.084-0.033 0.025-0.068 0.049-0.105 0.069-0.036 0.022-0.074 0.04-0.112 0.057-0.039 0.016-0.079 0.03-0.119 0.041-0.041 0.011-0.082 0.02-0.124 0.026-0.041 0.005-0.083 0.008-0.125 0.008h-0.008-49.89-0.007c-0.042 0-0.084-0.003-0.126-0.009-0.041-0.005-0.083-0.014-0.123-0.025-0.041-0.011-0.081-0.025-0.119-0.041-0.039-0.016-0.077-0.035-0.113-0.057-0.036-0.02-0.071-0.044-0.104-0.069-0.034-0.026-0.065-0.054-0.095-0.084-0.03-0.029-0.058-0.061-0.083-0.094-0.026-0.033-0.049-0.068-0.07-0.105-0.021-0.036-0.04-0.074-0.057-0.112-0.016-0.039-0.029-0.079-0.04-0.119-0.011-0.041-0.02-0.082-0.026-0.124-0.006-0.041-0.009-0.083-0.008-0.125v-49.905c0-0.042 0.002-0.084 0.008-0.126 0.006-0.041 0.015-0.083 0.026-0.123 0.01-0.041 0.024-0.081 0.04-0.119 0.017-0.039 0.036-0.077 0.057-0.113s0.044-0.071 0.07-0.104c0.025-0.034 0.053-0.065 0.083-0.095s0.061-0.058 0.095-0.083c0.033-0.026 0.068-0.049 0.104-0.07s0.074-0.04 0.113-0.057c0.038-0.015 0.078-0.029 0.119-0.04 0.04-0.012 0.082-0.02 0.123-0.026 0.042-0.006 0.084-0.009 0.126-0.008h49.905c0.042 0 0.084 0.003 0.125 0.008 0.042 0.006 0.083 0.014 0.124 0.026 0.04 0.01 0.08 0.024 0.119 0.04 0.038 0.016 0.076 0.036 0.112 0.057 0.037 0.021 0.072 0.044 0.105 0.07 0.033 0.025 0.065 0.053 0.094 0.083 0.03 0.03 0.058 0.061 0.084 0.095 0.025 0.033 0.048 0.068 0.069 0.104 0.022 0.036 0.04 0.074 0.057 0.113 0.016 0.038 0.03 0.078 0.04 0.119 0.012 0.04 0.021 0.082 0.027 0.123 0.005 0.042 0.008 0.084 0.008 0.126v0.007 49.89" fill-rule="evenodd" fill="#039"/>
    </g>
    <g id="g3963" transform="matrix(0 1.25 1.25 0 -90.844 262.21)">
     <path id="path3965" d="m0 0v-32.936-0.014l-0.001-0.014c0-0.047-0.005-0.094-0.012-0.141-0.007-0.046-0.018-0.092-0.032-0.137-0.013-0.046-0.028-0.09-0.048-0.133-0.019-0.043-0.041-0.085-0.066-0.125s-0.052-0.079-0.081-0.116c-0.03-0.036-0.062-0.071-0.097-0.103-0.017-0.017-0.036-0.033-0.055-0.049s-0.039-0.031-0.059-0.045l-0.021-0.015-5.939-4.049-0.012-0.008c-0.003-0.003-0.007-0.005-0.011-0.008-0.04-0.026-0.081-0.049-0.124-0.069-0.042-0.02-0.086-0.037-0.132-0.051-0.044-0.015-0.09-0.027-0.136-0.035-0.047-0.009-0.094-0.014-0.141-0.016s-0.094-0.002-0.141 0.002-0.094 0.011-0.14 0.022c-0.046 0.009-0.091 0.022-0.136 0.038-0.044 0.016-0.087 0.035-0.129 0.057-0.042 0.021-0.083 0.045-0.122 0.072-0.038 0.027-0.075 0.056-0.11 0.088-0.035 0.031-0.068 0.065-0.098 0.101-0.031 0.036-0.059 0.074-0.084 0.114-0.026 0.04-0.049 0.081-0.069 0.123-0.02 0.043-0.037 0.087-0.052 0.132-0.014 0.045-0.026 0.091-0.034 0.137-0.009 0.046-0.014 0.093-0.016 0.14v0.014l-0.001 0.013v0.026 41.035 0.014 0.014c0.001 0.047 0.005 0.094 0.013 0.141 0.007 0.046 0.017 0.092 0.031 0.137 0.013 0.046 0.029 0.09 0.049 0.133 0.019 0.043 0.041 0.085 0.066 0.125 0.024 0.04 0.051 0.079 0.081 0.116 0.03 0.036 0.062 0.071 0.096 0.103 0.034 0.033 0.071 0.063 0.109 0.091s0.078 0.053 0.12 0.075c0.041 0.022 0.084 0.042 0.128 0.059s0.089 0.031 0.135 0.042c0.045 0.011 0.092 0.019 0.139 0.024s0.094 0.007 0.141 0.005c0.047-0.001 0.094-0.005 0.141-0.012 0.046-0.008 0.092-0.018 0.137-0.032 0.046-0.013 0.09-0.029 0.133-0.048 0.044-0.019 0.085-0.042 0.125-0.067l0.011-0.006 0.012-0.008 0.021-0.014 5.939-4.05 0.024-0.016c0.038-0.027 0.074-0.057 0.109-0.089 0.034-0.033 0.066-0.067 0.096-0.104 0.03-0.036 0.058-0.075 0.082-0.115 0.025-0.04 0.047-0.082 0.066-0.125 0.02-0.043 0.036-0.087 0.05-0.132 0.013-0.045 0.024-0.091 0.031-0.138 0.004-0.024 0.007-0.049 0.009-0.074 0.003-0.024 0.004-0.049 0.005-0.073v-0.026" fill-rule="evenodd" fill="#fff"/>
    </g>
    <g id="g3967" transform="matrix(0 1.25 1.25 0 -106.03 248.72)">
     <path id="path3969" d="m0 0v-24.837-0.014-0.014c-0.001-0.047-0.005-0.094-0.013-0.141-0.007-0.046-0.018-0.093-0.031-0.138s-0.029-0.089-0.049-0.133c-0.019-0.043-0.041-0.084-0.066-0.124-0.024-0.041-0.052-0.079-0.081-0.116-0.03-0.036-0.062-0.071-0.096-0.103-0.034-0.033-0.07-0.063-0.109-0.091-0.038-0.028-0.078-0.053-0.119-0.075-0.042-0.023-0.085-0.043-0.129-0.059-0.044-0.017-0.089-0.031-0.135-0.042-0.045-0.011-0.092-0.019-0.139-0.024s-0.094-0.007-0.141-0.005c-0.047 0.001-0.094 0.005-0.141 0.012-0.046 0.008-0.092 0.018-0.137 0.032-0.046 0.013-0.09 0.029-0.133 0.048s-0.085 0.041-0.125 0.066l-0.033 0.021c-0.011 0.008-0.022 0.015-0.032 0.023l-0.021 0.015-32.936 24.837-0.011 0.008-0.011 0.009c-0.037 0.029-0.072 0.061-0.105 0.095-0.033 0.033-0.063 0.07-0.091 0.108s-0.054 0.077-0.077 0.118c-0.023 0.042-0.043 0.085-0.059 0.129-0.018 0.043-0.032 0.088-0.044 0.134-0.011 0.046-0.02 0.092-0.024 0.139-0.006 0.047-0.009 0.094-0.008 0.141s0.005 0.094 0.012 0.141 0.017 0.093 0.03 0.138c0.013 0.046 0.029 0.09 0.048 0.133s0.04 0.085 0.065 0.126c0.024 0.04 0.051 0.079 0.081 0.115 0.029 0.038 0.06 0.073 0.094 0.105 0.034 0.033 0.07 0.063 0.108 0.091 0.038 0.029 0.078 0.054 0.119 0.077s0.084 0.043 0.128 0.06 0.089 0.032 0.134 0.043c0.046 0.012 0.093 0.02 0.14 0.025 0.015 0.002 0.032 0.003 0.048 0.004 0.016 0.002 0.032 0.002 0.048 0.002l0.026 0.001h32.935l0.014-0.001h0.015c0.047-0.001 0.094-0.005 0.14-0.012 0.047-0.007 0.093-0.018 0.138-0.032 0.045-0.013 0.09-0.029 0.133-0.048s0.084-0.041 0.124-0.066c0.041-0.025 0.079-0.052 0.116-0.082 0.037-0.029 0.071-0.061 0.103-0.096 0.033-0.034 0.064-0.07 0.091-0.108 0.028-0.038 0.053-0.078 0.075-0.12 0.023-0.041 0.043-0.084 0.06-0.128s0.03-0.089 0.041-0.135c0.01-0.037 0.017-0.075 0.022-0.113 0.005-0.037 0.007-0.076 0.008-0.113v-0.026" fill-rule="evenodd" fill="#fff"/>
    </g>
   </g>
  </g>
 </g>
</svg>
