<svg
   xmlns="http://www.w3.org/2000/svg"
   xmlns:xlink="http://www.w3.org/1999/xlink"  
   version="1.1"
   width="60"
   height="60">
  <symbol id="notice_e5_5" width="60" height="60">
    <path d="m 29.90625,7.75 -25.71875,44.5 0.03125,0.03125 0,0.03125 51.46875,0 c 0.006,-0.01 0.02495,-0.02125 0.03125,-0.03125 L 29.90625,7.75 z m -11.25,23.28125 c 0.045,-0.005 0.11125,0.001 0.15625,0 l 0.03125,0 22.9375,0 c 0.0362,0 0.0888,-0.004 0.125,0 0.0375,0.005 0.05755,0.02425 0.09375,0.03125 0.0438,0.0087 0.11375,0.01755 0.15625,0.03125 0.04255,0.0151 0.085,0.01125 0.125,0.03125 0.04,0.0187 0.05755,0.06995 0.09375,0.09375 0.0375,0.0226 0.0913,0.035 0.125,0.0625 0.0337,0.0275 0.06495,0.06375 0.09375,0.09375 0.0288,0.0312 0.0387,0.05875 0.0625,0.09375 0.0237,0.0337 0.0437,0.05755 0.0625,0.09375 0.0187,0.0362 0.05,0.0863 0.0625,0.125 0.0138,0.0387 0.02525,0.085 0.03125,0.125 0.0075,0.03875 -10e-4,0.05375 0,0.09375 10e-4,0.03995 0.005,0.0862 0,0.125 -0.0051,0.03995 -0.02005,0.0863 -0.03125,0.125 -0.0113,0.03875 -0.01505,0.0875 -0.03125,0.125 C 42.7337,32.3187 42.71,32.34 42.6875,32.375 l -0.03125,0.03125 -11.46875,17.375 c -0.0188,0.0275 -0.0413,0.06875 -0.0625,0.09375 -0.0226,0.0263 -0.0375,0.04 -0.0625,0.0625 -0.0313,0.03 -0.05875,0.06745 -0.09375,0.09375 -0.03495,0.025 -0.0863,0.0413 -0.125,0.0625 -0.03875,0.0201 -0.0825,0.0462 -0.125,0.0625 -0.0413,0.0162 -0.0812,0.01995 -0.125,0.03125 -0.0437,0.0113 -0.0812,0.02525 -0.125,0.03125 -0.04625,0.0063 -0.11125,-10e-4 -0.15625,0 -0.04625,10e-4 -0.08,0.005 -0.125,0 -0.0462,-0.0037 -0.08,-0.02125 -0.125,-0.03125 C 30.0187,50.1788 29.98,50.17125 29.9375,50.15625 29.89495,50.14245 29.8525,50.1438 29.8125,50.125 29.77245,50.1062 29.725,50.0863 29.6875,50.0625 29.6512,50.0388 29.62745,49.99625 29.59375,49.96875 29.56125,49.94125 29.5288,49.9062 29.5,49.875 29.4713,49.8438 29.42995,49.81625 29.40625,49.78125 L 17.9375,32.40625 17.90625,32.375 C 17.88875,32.3475 17.89,32.31125 17.875,32.28125 17.8613,32.25115 17.85375,32.2187 17.84375,32.1875 17.83125,32.14875 17.8195,32.13245 17.8125,32.09375 c -0.0075,-0.04 -0.03025,-0.085 -0.03125,-0.125 -0.001,-0.04 -0.005,-0.085 0,-0.125 0.0051,-0.0388 0.01995,-0.0863 0.03125,-0.125 0.01,-0.03875 0.01505,-0.05625 0.03125,-0.09375 0.0162,-0.03745 0.04,-0.09 0.0625,-0.125 0.0212,-0.03505 0.06625,-0.06125 0.09375,-0.09375 0.0262,-0.0326 0.03,-0.06495 0.0625,-0.09375 0.0312,-0.03 0.0887,-0.06745 0.125,-0.09375 0.03495,-0.0251 0.05495,-0.0412 0.09375,-0.0625 0.0388,-0.0212 0.0838,-0.0463 0.125,-0.0625 0.04245,-0.0162 0.0812,-0.01995 0.125,-0.03125 0.04375,-0.0125 0.0787,-0.02525 0.125,-0.03125 z"/>
  </symbol>
  <use xlink:href="#notice_e5_5" x="0" y="0" />
</svg>
