<svg
   xmlns="http://www.w3.org/2000/svg"
   xmlns:xlink="http://www.w3.org/1999/xlink"  
   version="1.1"
   width="60"
   height="60">
  <symbol id="notice_e14" width="60" height="60">
    <path d="m 39.944276,38.982337 -0.77,1.142 c -1.135,1.681 -3.418,2.125 -5.1,0.99 l -16.746,-11.3 c -1.682,-1.134 -2.126,-3.418 -0.991,-5.099 l 0.771,-1.142 -6.137,-10.233 c -3.7989995,3.884 -4.7459995,9.738 -2.3649995,14.623 5.7509995,11.796 17.3579995,19.628 30.4489995,20.545 5.421,0.38 10.495,-2.689 12.675,-7.666 l -11.786,-1.86 z m -0.382,-1.92 13.215,2.086 -1.122,-3.896 -9.826,-1.551 -2.267,3.361 z m -20.531,-13.853 2.267,-3.361 -5.115,-8.53 -4.033,0.417 6.881,11.474" />
  </symbol>
  <use xlink:href="#notice_e14" x="0" y="0" />
</svg>
