<?xml version="1.0" encoding="UTF-8" standalone="no"?>
<!-- Created with Inkscape (http://www.inkscape.org/) -->
<svg id="svg2" xmlns:rdf="http://www.w3.org/1999/02/22-rdf-syntax-ns#" xmlns="http://www.w3.org/2000/svg" height="60" width="60" version="1.1" xmlns:cc="http://creativecommons.org/ns#" xmlns:dc="http://purl.org/dc/elements/1.1/">
 <metadata id="metadata7">
  <rdf:RDF>
   <cc:Work rdf:about="">
    <dc:format>image/svg+xml</dc:format>
    <dc:type rdf:resource="http://purl.org/dc/dcmitype/StillImage"/>
    <dc:title/>
   </cc:Work>
  </rdf:RDF>
 </metadata>
 <g id="layer50" transform="translate(0,-60)">
  <g id="layer1-866" transform="matrix(.97035 0 0 .97035 204.66 30.873)">
   <g id="g2958" transform="matrix(.84345 0 0 .84345 -28.179 9.5391)">
    <g id="g4611" transform="matrix(0 1.25 1.25 0 -211.18 96.367)" stroke="#000" stroke-width="1.0306" fill="#fff">
     <path id="path4613" stroke-linejoin="bevel" d="m0 0v-0.027c-0.001-0.147-0.011-0.293-0.031-0.439-0.019-0.146-0.05-0.29-0.09-0.432-0.036-0.142-0.084-0.282-0.141-0.417-0.057-0.136-0.123-0.267-0.198-0.393-0.073-0.128-0.155-0.25-0.245-0.367-0.089-0.117-0.187-0.227-0.291-0.33-0.104-0.105-0.214-0.203-0.33-0.292-0.117-0.09-0.239-0.171-0.367-0.245-0.127-0.074-0.258-0.14-0.394-0.197-0.136-0.056-0.275-0.104-0.417-0.142-0.142-0.04-0.286-0.071-0.432-0.091-0.145-0.021-0.292-0.03-0.439-0.03h-49.943c-0.147 0.001-0.294 0.012-0.439 0.031-0.146 0.02-0.29 0.05-0.432 0.09-0.142 0.037-0.282 0.084-0.418 0.141-0.135 0.057-0.266 0.123-0.393 0.198-0.127 0.074-0.25 0.156-0.366 0.245-0.117 0.09-0.227 0.187-0.331 0.292-0.104 0.103-0.202 0.213-0.291 0.33-0.09 0.116-0.172 0.239-0.245 0.367-0.074 0.126-0.14 0.258-0.197 0.393-0.057 0.136-0.104 0.275-0.143 0.417-0.04 0.142-0.07 0.286-0.091 0.432-0.02 0.146-0.03 0.292-0.029 0.439v49.943c0.001 0.147 0.011 0.294 0.031 0.44 0.02 0.145 0.05 0.289 0.089 0.431 0.037 0.142 0.085 0.282 0.142 0.418 0.057 0.135 0.123 0.267 0.198 0.393 0.073 0.127 0.155 0.25 0.245 0.367 0.089 0.116 0.187 0.227 0.291 0.33 0.104 0.105 0.214 0.202 0.331 0.292 0.116 0.089 0.239 0.171 0.366 0.244 0.127 0.075 0.258 0.141 0.394 0.197 0.136 0.057 0.275 0.105 0.417 0.143 0.142 0.04 0.286 0.07 0.432 0.091 0.145 0.021 0.292 0.03 0.439 0.029h49.943c0.147-0.001 0.294-0.011 0.439-0.031 0.146-0.019 0.29-0.049 0.432-0.089 0.142-0.037 0.282-0.084 0.417-0.142 0.136-0.057 0.267-0.123 0.394-0.198 0.127-0.073 0.25-0.155 0.367-0.244 0.116-0.09 0.226-0.187 0.33-0.292 0.104-0.103 0.202-0.214 0.292-0.33 0.089-0.117 0.171-0.239 0.244-0.367 0.074-0.127 0.14-0.258 0.197-0.394 0.057-0.135 0.104-0.275 0.142-0.417 0.04-0.142 0.071-0.286 0.091-0.432 0.021-0.145 0.031-0.292 0.03-0.439v-49.916z" stroke="#000" stroke-miterlimit="22.926" stroke-width="1.9549" fill="#fff"/>
    </g>
    <path id="path4589" d="m-212.78 28.499v64.867h65.551v-64.867h-65.551z" fill="#039"/>
    <g id="g4591" transform="matrix(0 1.25 1.25 0 -186.37 84.059)">
     <path id="path4593" d="m0 0c-13.531 1.092-27.304 3.641-41.321 7.645 8.336 7.433 17.968 11.984 28.488 14.563 7.22-6.95 11.924-14.287 12.833-22.208" fill-rule="evenodd" fill="#fff"/>
    </g>
    <g id="g4595" transform="matrix(0 1.25 1.25 0 -192.17 86.789)">
     <path id="path4597" d="m0 0 0.085 9.57-1.177 0.442c-0.879-3.762-0.97-7.288 0.091-10.467l1.001 0.455" fill-rule="evenodd" fill="#fff"/>
    </g>
    <g id="g4599" transform="matrix(0 1.25 1.25 0 -186.37 84.059)">
     <path id="path4601" d="m0 0c-0.387 0.032-4.91 0.925-6.236-0.172-1.325-1.096-2.657-2.334-4.54-4.277l-3.155-0.065c-0.656-0.013-1.2-0.504-1.765-0.547 0.067 1.867-0.095 3.711-0.361 5.544l-0.591 0.223-0.884-7.274 0.202-1.715c1.747-1.406 3.569 0.438 5.229 0.832l2.09 0.066c1.997 0.064 3.884 2.861 4.648 4.995 2.004 0.301 3.944 0.846 5.781 1.781l-0.418 0.609" fill-rule="evenodd" fill="#fff"/>
    </g>
    <g id="g4603" transform="matrix(0 1.25 1.25 0 -196.42 57.184)">
     <path id="path4605" d="m0 0c0.059 0.89 0.855 1.485 1.957 1.613 1.102 0.127 2.25-0.294 2.044-1.288s-1.017-1.645-2.019-1.8c-1.003-0.156-2.041 0.585-1.982 1.475" fill-rule="evenodd" fill="#fff"/>
    </g>
    <g id="g4607" transform="matrix(0 1.25 1.25 0 -181.8 61.555)">
     <path id="path4609" d="m0 0 1.354-2.949 0.591-0.223s2.212 1.301 2.221 1.392" stroke="#fff" stroke-miterlimit="22.926" stroke-width="1.0306" fill="none"/>
    </g>
   </g>
  </g>
 </g>
</svg>
