<?xml version="1.0" encoding="UTF-8" standalone="no"?>
<!-- Created with Inkscape (http://www.inkscape.org/) -->
<svg id="svg2" xmlns:rdf="http://www.w3.org/1999/02/22-rdf-syntax-ns#" xmlns="http://www.w3.org/2000/svg" height="60" width="60" version="1.1" xmlns:cc="http://creativecommons.org/ns#" xmlns:dc="http://purl.org/dc/elements/1.1/">
 <metadata id="metadata7">
  <rdf:RDF>
   <cc:Work rdf:about="">
    <dc:format>image/svg+xml</dc:format>
    <dc:type rdf:resource="http://purl.org/dc/dcmitype/StillImage"/>
    <dc:title/>
   </cc:Work>
  </rdf:RDF>
 </metadata>
 <g id="layer53" transform="translate(0,-60)">
  <g id="layer1-82" transform="matrix(.97035 0 0 .97035 138.13 -179.83)">
   <g id="text4832" font-size="25.945px" line-height="125%" font-family="DIN 1451 Mittelschrift" fill="#fff">
    <text id="text2827" xml:space="preserve" transform="translate(-147 242.51)" font-size="40px" y="29.391695" x="27.829817" font-family="Bitstream Vera Sans" fill="#000000"><tspan id="tspan2829" y="29.391695" x="27.829817"/></text>
   </g>
   <g id="g2931" transform="matrix(.84345 0 0 .84345 -17.444 43.533)">
    <g id="g4573" transform="matrix(0 1.25 1.25 0 -142.61 313.44)" stroke="#000" fill="#fff">
     <path id="path4575" stroke-linejoin="bevel" d="m0 0v49.89 0.013 0.013c-0.001 0.145-0.011 0.289-0.031 0.432-0.019 0.144-0.048 0.286-0.088 0.425-0.036 0.14-0.083 0.278-0.139 0.411s-0.121 0.263-0.195 0.387c-0.072 0.126-0.152 0.246-0.241 0.361-0.088 0.114-0.184 0.223-0.286 0.325-0.102 0.103-0.211 0.199-0.325 0.287-0.115 0.088-0.236 0.168-0.361 0.24-0.125 0.074-0.254 0.138-0.388 0.194-0.133 0.056-0.271 0.103-0.41 0.14-0.14 0.04-0.282 0.07-0.425 0.09-0.144 0.02-0.288 0.03-0.432 0.029h-49.943c-0.144-0.001-0.289-0.011-0.432-0.03-0.144-0.019-0.285-0.049-0.425-0.089-0.14-0.036-0.277-0.082-0.41-0.138-0.134-0.057-0.263-0.122-0.388-0.196-0.125-0.072-0.246-0.152-0.361-0.24-0.114-0.088-0.223-0.184-0.324-0.287-0.104-0.102-0.199-0.211-0.288-0.325-0.088-0.115-0.168-0.235-0.24-0.361-0.073-0.125-0.138-0.254-0.194-0.388-0.056-0.133-0.103-0.27-0.14-0.41-0.04-0.139-0.07-0.281-0.09-0.425-0.02-0.143-0.03-0.288-0.029-0.432v-49.942c0.001-0.145 0.011-0.289 0.03-0.433 0.02-0.143 0.049-0.285 0.089-0.424 0.036-0.141 0.082-0.278 0.138-0.411 0.057-0.134 0.122-0.263 0.196-0.388 0.072-0.125 0.152-0.246 0.24-0.36 0.089-0.115 0.184-0.224 0.288-0.325 0.101-0.103 0.21-0.199 0.324-0.287 0.115-0.089 0.236-0.169 0.361-0.241 0.125-0.073 0.255-0.138 0.388-0.194s0.271-0.102 0.41-0.14c0.14-0.039 0.282-0.069 0.425-0.09 0.143-0.02 0.288-0.03 0.432-0.028h0.014l0.013-0.001h49.889l0.013 0.001h0.014c0.144 0 0.288 0.01 0.432 0.03 0.143 0.019 0.285 0.049 0.425 0.088 0.14 0.036 0.277 0.083 0.41 0.139 0.134 0.056 0.263 0.121 0.388 0.195 0.125 0.072 0.246 0.153 0.36 0.241 0.115 0.088 0.224 0.184 0.326 0.287 0.102 0.101 0.198 0.21 0.287 0.325 0.088 0.114 0.168 0.235 0.24 0.36 0.073 0.125 0.138 0.255 0.194 0.388 0.056 0.134 0.103 0.271 0.14 0.411 0.04 0.139 0.07 0.281 0.09 0.425 0.02 0.143 0.03 0.287 0.029 0.432v0.013 0.013z" stroke-miterlimit="22.926" stroke-width=".22260"/>
     <g id="g4577" transform="translate(.054)" stroke-width="1.0306">
      <path id="path4579" stroke-linejoin="bevel" d="m0 0v-0.027c-0.001-0.147-0.011-0.293-0.031-0.439-0.019-0.146-0.05-0.29-0.09-0.432-0.036-0.142-0.084-0.282-0.141-0.417-0.057-0.136-0.123-0.267-0.198-0.393-0.073-0.128-0.155-0.25-0.245-0.367-0.089-0.117-0.187-0.227-0.291-0.33-0.104-0.105-0.214-0.203-0.33-0.292-0.117-0.09-0.239-0.171-0.367-0.245-0.127-0.074-0.258-0.14-0.394-0.197-0.136-0.056-0.275-0.104-0.417-0.142-0.142-0.04-0.286-0.071-0.432-0.091-0.145-0.021-0.292-0.03-0.439-0.03h-49.943c-0.147 0.001-0.294 0.012-0.439 0.031-0.146 0.02-0.29 0.05-0.432 0.09-0.142 0.037-0.282 0.084-0.418 0.141-0.135 0.057-0.266 0.123-0.393 0.198-0.127 0.074-0.25 0.156-0.366 0.245-0.117 0.09-0.227 0.187-0.331 0.292-0.104 0.103-0.202 0.213-0.291 0.33-0.09 0.116-0.172 0.239-0.245 0.367-0.074 0.126-0.14 0.258-0.197 0.393-0.057 0.136-0.104 0.275-0.142 0.417-0.041 0.142-0.071 0.286-0.092 0.432-0.02 0.146-0.03 0.292-0.029 0.439v49.943c0.001 0.147 0.011 0.294 0.031 0.44 0.02 0.145 0.05 0.289 0.09 0.431 0.036 0.142 0.084 0.282 0.141 0.418 0.057 0.135 0.123 0.267 0.198 0.393 0.073 0.127 0.155 0.25 0.245 0.367 0.089 0.116 0.187 0.227 0.291 0.33 0.104 0.105 0.214 0.202 0.331 0.292 0.116 0.089 0.239 0.171 0.366 0.244 0.127 0.075 0.258 0.141 0.394 0.197 0.136 0.057 0.275 0.105 0.417 0.143 0.142 0.04 0.286 0.07 0.432 0.091 0.145 0.021 0.292 0.03 0.439 0.029h49.943c0.147-0.001 0.294-0.011 0.439-0.031 0.146-0.019 0.29-0.049 0.432-0.089 0.142-0.037 0.282-0.084 0.417-0.142 0.136-0.057 0.267-0.123 0.394-0.198 0.127-0.073 0.25-0.155 0.367-0.244 0.116-0.09 0.226-0.187 0.33-0.292 0.104-0.103 0.202-0.214 0.292-0.33 0.089-0.117 0.171-0.239 0.244-0.367 0.074-0.127 0.14-0.258 0.197-0.394 0.057-0.135 0.104-0.275 0.142-0.417 0.04-0.142 0.071-0.286 0.092-0.432 0.02-0.145 0.03-0.292 0.029-0.439v-49.916z" stroke="#000" stroke-miterlimit="22.926" stroke-width="1.9549" fill="#fff"/>
     </g>
    </g>
    <path id="path4571" d="m-142.61 310.47h-0.01c-0.0525 0-0.105-0.004-0.15625-0.0113-0.0525-0.006-0.10375-0.0175-0.155-0.0325-0.05-0.0125-0.1-0.03-0.14875-0.05-0.0475-0.02-0.095-0.0437-0.14-0.0713-0.0463-0.025-0.09-0.055-0.13125-0.0875-0.0413-0.0312-0.0813-0.0663-0.1175-0.10375-0.0375-0.0362-0.0725-0.0763-0.105-0.1175-0.0312-0.0412-0.0613-0.085-0.0863-0.13125-0.0275-0.045-0.05-0.0925-0.0712-0.14-0.02-0.0487-0.0375-0.0987-0.05-0.14875-0.015-0.0512-0.0263-0.1025-0.0337-0.155-0.006-0.0513-0.01-0.10375-0.01-0.15625v-0.01-62.362-0.009c0-0.0525 0.004-0.105 0.0112-0.1575 0.006-0.0513 0.0175-0.10375 0.0325-0.15375 0.0125-0.0513 0.03-0.10125 0.05-0.14875 0.02-0.0487 0.0437-0.0962 0.0712-0.14125 0.025-0.045 0.055-0.0888 0.0863-0.13125 0.0325-0.0413 0.0675-0.08 0.105-0.1175 0.0362-0.0375 0.0762-0.0725 0.1175-0.10375 0.0412-0.0325 0.085-0.0613 0.13125-0.0875 0.045-0.0263 0.0925-0.05 0.14-0.0713 0.0488-0.02 0.0988-0.0362 0.14875-0.05 0.0513-0.015 0.1025-0.025 0.155-0.0325 0.0513-0.008 0.10375-0.0113 0.15625-0.01h62.381c0.0525 0 0.105 0.002 0.1575 0.01 0.05125 0.007 0.10375 0.0175 0.15375 0.0325 0.05125 0.0125 0.10125 0.03 0.14875 0.05 0.04875 0.0213 0.09625 0.045 0.14125 0.0713 0.045 0.0262 0.08875 0.055 0.13 0.0875 0.0425 0.0312 0.08125 0.0663 0.11875 0.10375 0.0375 0.0375 0.0725 0.0762 0.10375 0.1175 0.0325 0.0425 0.06125 0.0862 0.0875 0.13125 0.02625 0.045 0.05 0.0925 0.07125 0.14125 0.02 0.0475 0.03625 0.0975 0.05 0.14875 0.015 0.05 0.025 0.1025 0.0325 0.15375 0.0075 0.0525 0.01125 0.105 0.01 0.1575v62.381c0 0.0525-0.0025 0.105-0.01 0.15625-0.0075 0.0525-0.0175 0.10375-0.0325 0.155-0.0125 0.05-0.03 0.1-0.05 0.14875-0.02125 0.0475-0.045 0.095-0.07125 0.14-0.02625 0.0462-0.055 0.09-0.0875 0.13125-0.03125 0.0412-0.06625 0.0813-0.10375 0.1175-0.0375 0.0375-0.07625 0.0725-0.11875 0.105-0.04125 0.0312-0.085 0.0613-0.13 0.0863-0.045 0.0275-0.0925 0.05-0.14125 0.0713-0.0475 0.02-0.0975 0.0375-0.14875 0.05-0.05 0.015-0.1025 0.0263-0.15375 0.0337-0.0525 0.006-0.105 0.01-0.1575 0.01h-0.0088-62.362" fill-rule="evenodd" fill="#039"/>
    <text id="text2831" font-weight="bold" xml:space="preserve" font-size="10px" y="276.86954" x="-135.35423" font-family="Nimbus Sans L" line-height="100%" fill="#ffffff"><tspan id="tspan2837" font-weight="normal" font-size="24px" line-height="100%" y="276.86954" x="-135.35423" font-family="Nimbus Sans L">VHF</tspan></text>
   </g>
  </g>
 </g>
</svg>
