<svg
   xmlns="http://www.w3.org/2000/svg"
   xmlns:xlink="http://www.w3.org/1999/xlink"  
   version="1.1"
   width="60"
   height="60">
  <symbol id="notice_bnank" width="60" height="60">
    <path d="m 54,35.705438 -2.20084,11.189043 -3.017016,-2.513952 c -1.504582,1.505439 -3.217984,2.782655 -5.275234,3.946526 -3.476126,1.966042 -7.280712,3.077835 -11.107028,3.398616 L 32.008892,55 H 27.98646 L 27.584247,51.725671 C 21.388581,51.189577 15.481065,48.607574 11.148743,44.268497 L 7.7983855,46.896232 6,35.552706 l 8.797022,5.844298 -2.240885,1.759044 c 3.820951,2.96427 9.113031,4.945629 15.044475,5.369252 l 0.792959,-29.990617 h -8.396279 v -2.271287 l 8.378209,0.08297 V 14.458007 C 25.78441,13.943576 23.860004,12.055222 23.860004,9.7998994 23.860004,7.146782 26.513374,5 29.788995,5 c 3.270251,0 5.925578,2.146782 5.925578,4.7998994 0,2.2038926 -1.838184,4.0657786 -4.339661,4.6303186 v 1.856635 l 8.625592,-0.02626 v 2.271287 h -8.39579 l 0.810063,29.990617 c 5.889677,-0.424052 11.141467,-2.390103 14.95167,-5.328115 l -2.165914,-1.800619 8.797751,-5.689377 z M 32.619184,9.8000744 c 0,-1.2618991 -1.263316,-2.2859478 -2.821394,-2.2859478 -1.557095,0 -2.820405,1.0244864 -2.820405,2.2859478 0,1.2625556 1.26331,2.2863856 2.820405,2.2863856 1.557831,0 2.821394,-1.024268 2.821394,-2.2863856 z" />
    <path d="m 4.6875,3.5 a 1.50015,1.50015 0 0 0 -0.75,2.5625 l 50,50 a 1.5026019,1.5026019 0 1 0 2.125,-2.125 l -50,-50 A 1.50015,1.50015 0 0 0 4.6875,3.5 z" />
  </symbol>
  <use xlink:href="#notice_bnank" x="0" y="0" />
</svg>
