<?xml version="1.0" encoding="UTF-8" standalone="no"?>
<!-- Created with Inkscape (http://www.inkscape.org/) -->
<svg id="svg2" xmlns:rdf="http://www.w3.org/1999/02/22-rdf-syntax-ns#" xmlns="http://www.w3.org/2000/svg" height="60" width="60" version="1.1" xmlns:cc="http://creativecommons.org/ns#" xmlns:dc="http://purl.org/dc/elements/1.1/">
 <metadata id="metadata7">
  <rdf:RDF>
   <cc:Work rdf:about="">
    <dc:format>image/svg+xml</dc:format>
    <dc:type rdf:resource="http://purl.org/dc/dcmitype/StillImage"/>
    <dc:title/>
   </cc:Work>
  </rdf:RDF>
 </metadata>
 <g id="layer33" transform="translate(0,-60)">
  <g id="layer1-8" transform="matrix(.97035 0 0 .97035 -372 -290.73)">
   <g id="g3100" transform="matrix(.84290 0 0 .84292 65.084 61.634)">
    <g id="g7844" transform="matrix(0 1.25 1.25 0 383.08 427.75)" stroke="#000" fill="#fff">
     <path id="path7846-8" stroke-linejoin="bevel" d="m0 0v49.948c-0.001 0.145-0.011 0.29-0.03 0.433-0.02 0.143-0.049 0.285-0.089 0.425-0.036 0.14-0.083 0.278-0.139 0.411s-0.121 0.263-0.195 0.387c-0.072 0.126-0.153 0.247-0.241 0.361-0.088 0.115-0.184 0.224-0.287 0.326-0.102 0.103-0.21 0.199-0.325 0.287s-0.236 0.169-0.361 0.24c-0.125 0.074-0.255 0.139-0.388 0.194-0.134 0.057-0.271 0.103-0.411 0.141-0.139 0.039-0.282 0.069-0.425 0.09-0.143 0.02-0.288 0.03-0.432 0.029h-49.975c-0.145-0.001-0.289-0.011-0.432-0.031-0.144-0.019-0.286-0.049-0.426-0.088-0.14-0.036-0.277-0.083-0.411-0.139-0.133-0.056-0.263-0.122-0.387-0.196-0.126-0.072-0.246-0.152-0.361-0.24s-0.223-0.184-0.325-0.287c-0.103-0.102-0.199-0.211-0.288-0.326-0.088-0.114-0.168-0.235-0.24-0.361-0.073-0.124-0.138-0.254-0.194-0.387-0.056-0.134-0.103-0.271-0.14-0.411-0.04-0.14-0.07-0.282-0.09-0.425s-0.03-0.288-0.029-0.433v-49.974c0-0.145 0.011-0.29 0.03-0.433 0.019-0.144 0.049-0.286 0.089-0.425 0.036-0.14 0.082-0.278 0.138-0.411 0.057-0.134 0.122-0.263 0.196-0.388 0.072-0.125 0.152-0.246 0.24-0.361 0.089-0.114 0.185-0.223 0.288-0.325 0.102-0.103 0.21-0.199 0.325-0.287 0.115-0.089 0.235-0.169 0.361-0.241 0.125-0.073 0.254-0.138 0.388-0.194 0.133-0.056 0.271-0.103 0.41-0.14 0.14-0.04 0.282-0.07 0.426-0.09 0.143-0.02 0.287-0.03 0.432-0.029h49.975c0.144 0.001 0.289 0.011 0.432 0.031 0.144 0.019 0.286 0.048 0.425 0.088 0.14 0.036 0.278 0.083 0.411 0.139 0.134 0.056 0.263 0.121 0.388 0.195 0.125 0.072 0.246 0.153 0.361 0.241s0.223 0.184 0.325 0.287c0.103 0.102 0.199 0.211 0.287 0.325 0.088 0.115 0.169 0.236 0.241 0.361 0.073 0.125 0.138 0.255 0.194 0.388 0.056 0.134 0.102 0.271 0.14 0.411 0.04 0.14 0.07 0.282 0.09 0.425s0.03 0.288 0.029 0.433v0.026z" stroke-miterlimit="22.926" stroke-width=".22260"/>
     <g id="g7848" transform="translate(.054)" stroke-width="1.0306">
      <path id="path7850-2" stroke-linejoin="bevel" d="m0 0v-0.027c-0.001-0.147-0.011-0.294-0.031-0.439-0.019-0.146-0.05-0.291-0.089-0.432-0.037-0.143-0.085-0.282-0.142-0.418s-0.123-0.267-0.198-0.394c-0.074-0.127-0.155-0.25-0.245-0.366-0.09-0.117-0.187-0.227-0.292-0.331-0.103-0.105-0.213-0.202-0.33-0.292s-0.239-0.171-0.367-0.244c-0.127-0.075-0.259-0.141-0.394-0.198-0.136-0.057-0.275-0.104-0.418-0.142-0.141-0.04-0.286-0.071-0.432-0.091-0.145-0.021-0.292-0.031-0.439-0.03h-49.975c-0.147 0.001-0.294 0.011-0.44 0.031s-0.29 0.05-0.431 0.09c-0.143 0.037-0.283 0.084-0.419 0.141-0.135 0.057-0.267 0.123-0.393 0.199-0.128 0.073-0.25 0.154-0.367 0.244s-0.227 0.187-0.331 0.292c-0.104 0.103-0.202 0.214-0.291 0.33-0.09 0.117-0.172 0.24-0.245 0.367-0.075 0.127-0.14 0.259-0.197 0.394-0.057 0.136-0.104 0.276-0.143 0.418-0.04 0.141-0.071 0.286-0.091 0.432-0.021 0.145-0.03 0.292-0.029 0.439v49.976c0.001 0.147 0.011 0.294 0.03 0.439 0.02 0.146 0.05 0.29 0.09 0.432 0.037 0.143 0.084 0.282 0.142 0.418 0.057 0.136 0.123 0.267 0.198 0.394 0.073 0.127 0.155 0.25 0.245 0.366 0.089 0.117 0.187 0.228 0.291 0.331 0.104 0.105 0.214 0.202 0.331 0.292 0.117 0.089 0.239 0.171 0.367 0.245 0.127 0.074 0.258 0.14 0.394 0.197s0.275 0.104 0.418 0.142c0.141 0.041 0.286 0.071 0.431 0.092 0.146 0.02 0.293 0.03 0.44 0.029h49.975c0.147-0.001 0.294-0.011 0.44-0.031 0.145-0.02 0.29-0.05 0.431-0.09 0.143-0.037 0.282-0.084 0.418-0.141s0.267-0.123 0.394-0.198c0.128-0.074 0.25-0.156 0.367-0.245 0.116-0.09 0.227-0.187 0.33-0.292 0.105-0.103 0.203-0.214 0.292-0.331 0.09-0.116 0.172-0.239 0.245-0.366 0.074-0.127 0.14-0.259 0.197-0.394 0.057-0.136 0.104-0.276 0.143-0.418 0.04-0.142 0.07-0.286 0.091-0.432 0.02-0.145 0.03-0.292 0.029-0.439v-49.949z" stroke="#000" stroke-miterlimit="22.926" stroke-width="1.9562" fill="#fff"/>
     </g>
    </g>
    <g id="g7840" transform="matrix(0 1.25 1.25 0 383.08 426.13)" stroke="#000" stroke-width="1.0306" fill="#e72512">
     <path id="path7842-9" d="m-0.43911 0.40586v-0.01574c-0.00098372-0.087553-0.006886-0.17412-0.018691-0.26069-0.011805-0.086569-0.029512-0.17215-0.053121-0.25676-0.021642-0.084602-0.05017-0.16724-0.083617-0.2479-0.033447-0.080667-0.072796-0.15838-0.11805-0.23315-0.043284-0.075748-0.091486-0.14854-0.14461-0.21839-0.054105-0.068862-0.11116-0.13477-0.17412-0.19576-0.060991-0.061976-0.12592-0.12002-0.19576-0.17314-0.068861-0.053122-0.14166-0.10133-0.2174-0.14461-0.074763-0.044268-0.15346-0.083618-0.23413-0.11706-0.080665-0.034431-0.1633-0.061976-0.24691-0.084602-0.0846-0.024593-0.17018-0.042301-0.25675-0.054106-0.086568-0.012789-0.17412-0.018691-0.26069-0.017707h-49.141c-0.08755 0-0.1751 0.00689-0.26069 0.018691-0.08657 0.010821-0.17215 0.028528-0.25675 0.053122-0.0846 0.021642-0.16723 0.049187-0.2479 0.083618-0.08067 0.033447-0.15838 0.072797-0.23413 0.11805-0.07476 0.043285-0.14756 0.091488-0.2174 0.14461-0.06886 0.053122-0.13379 0.11116-0.19576 0.17314-0.06198 0.060992-0.12002 0.1269-0.17314 0.19576-0.05312 0.069846-0.10132 0.14264-0.14559 0.21839-0.04328 0.074764-0.08263 0.15346-0.11608 0.23315-0.03443 0.080667-0.06197 0.1633-0.0846 0.2479-0.02459 0.084602-0.0423 0.17019-0.0541 0.25676-0.01279 0.086569-0.01869 0.17314-0.01771 0.26069v49.142c0 0.08755 0.0059 0.17412 0.01771 0.26069s0.02951 0.17216 0.0541 0.25676c0.02164 0.0846 0.04919 0.16724 0.08362 0.2479 0.03345 0.08067 0.0728 0.15838 0.11706 0.23413 0.04427 0.07476 0.09247 0.14756 0.14559 0.21642 0.05312 0.06985 0.11116 0.13477 0.17314 0.19675 0.06197 0.06198 0.1269 0.12002 0.19576 0.17314 0.06985 0.05312 0.14264 0.10133 0.2174 0.14461 0.07575 0.04427 0.15346 0.08362 0.23413 0.11706 0.08067 0.03345 0.1633 0.06198 0.2479 0.0846 0.0846 0.02361 0.17018 0.0423 0.25675 0.05411 0.08558 0.01279 0.17314 0.01869 0.26069 0.01771h49.141c0.086568 0 0.17412-0.0059 0.26069-0.01771 0.086568-0.0118 0.17215-0.0305 0.25675-0.05411 0.083617-0.02164 0.16723-0.04919 0.2479-0.08362 0.079682-0.03345 0.15838-0.0728 0.23314-0.11805 0.075747-0.04328 0.14854-0.09149 0.2174-0.14461 0.068861-0.05312 0.13477-0.11116 0.19576-0.17314 0.062958-0.06198 0.121-0.1269 0.17412-0.19675 0.053121-0.06886 0.10132-0.14166 0.14461-0.21642 0.044268-0.07575 0.083617-0.15346 0.11706-0.23413 0.033447-0.08067 0.061975-0.1633 0.0846-0.2479 0.023609-0.0846 0.0423-0.17019 0.054105-0.25676 0.012788-0.08657 0.017707-0.17314 0.017707-0.26069v-0.01574-49.11z" fill-rule="evenodd" fill="#e72512"/>
    </g>
    <path id="path7852-3" d="m390.65 368.73v47.275h47.275v-47.275h-47.275z" fill="#fff"/>
   </g>
  </g>
 </g>
</svg>
