<svg
   xmlns="http://www.w3.org/2000/svg"
   xmlns:xlink="http://www.w3.org/1999/xlink"  
   version="1.1"
   width="60"
   height="60">
  <symbol id="notice_sailboard" width="60" height="60">
    <path d="m 31.28125,8.625 c -2.275694,7.962963 -4.057405,15.821731 -5.375,23.625 L 24.5,32.875 24.28125,33.46875 c 0,0 0.70041,1.236658 1.125,1.875 -0.518031,3.385332 -0.94438,6.769763 -1.28125,10.125 -0.0019,-0.991113 -0.127187,-1.9183 -0.53125,-2.40625 -1.0762,-1.3012 -2.2799,-2.62005 -4.1875,-4.46875 L 19.34375,35.5 C 19.33125,34.855 18.855,34.33495 18.8125,33.78125 20.645,33.84745 22.45,33.6675 24.25,33.40625 l 0.21875,-0.5625 -7.15625,-0.875 -1.6875,0.1875 c -1.3812,1.715 0.4575,3.4963 0.84375,5.125 l 0.0625,2.0625 c 0.0613,1.96 2.81125,3.8125 4.90625,4.5625 0.29625,1.9675 0.79995,3.8837 1.71875,5.6875 l 0.625,-0.40625 C 31.55725,48.2945 38.7387,43.6513 45.5625,36.5625 43.0305,26.2355 38.57745,16.8075 31.28125,8.625 z m -8.125,40.96875 c -1.525558,0.04481 -3.007499,0.283369 -4.40625,0.75 l 0.46875,0.96875 9.375,0.09375 0.4375,-1.15625 c -2.037723,-0.475975 -3.9964,-0.711429 -5.875,-0.65625 z M 15.875,28.0625 C 15.0012,28.0049 14.25375,29.015 14.40625,30 c 0.1537,0.98375 0.80625,1.7975 1.78125,2 0.97625,0.2013 1.375,-0.9188 1.25,-2 -0.125,-1.0812 -0.68875,-1.8787 -1.5625,-1.9375 z" />
  </symbol>
  <use xlink:href="#notice_sailboard" x="0" y="0" />
</svg>
