<svg
   xmlns="http://www.w3.org/2000/svg"
   xmlns:xlink="http://www.w3.org/1999/xlink"  
   version="1.1"
   width="60"
   height="60">
  <symbol id="notice_bollard" width="60" height="60">
    <path d="m 49.734835,51.785776 v -4.7262 h -8.8875 c -0.25375,-0.6825 -0.5025,-1.365 -0.74625,-2.0512 -0.2425,-0.68375 -0.47,-1.375 -0.68125,-2.07 -0.16375,-0.5425 -0.31375,-1.0875 -0.4525,-1.6362 -0.13875,-0.54875 -0.26625,-1.1012 -0.385,-1.655 -0.18875,-0.86875 -0.3525,-1.7438 -0.49,-2.6225 -0.13625,-0.8775 -0.2425,-1.76 -0.31625,-2.6462 -0.0288,-0.32125 -0.0537,-0.64375 -0.0763,-0.96625 -0.0212,-0.3225 -0.0425,-0.645 -0.0625,-0.9675 l -16.259,-2.245 c -0.01,0.49375 -0.0213,0.9875 -0.035,1.4812 -0.0138,0.4925 -0.035,0.98625 -0.0637,1.4788 -0.0625,1.0675 -0.16875,2.1312 -0.3175,3.19 -0.1475,1.06 -0.33375,2.1138 -0.55875,3.16 -0.165,0.8075 -0.35375,1.61 -0.565,2.4062 -0.2125,0.795 -0.45,1.5825 -0.71375,2.3612 -0.15625,0.46875 -0.32125,0.93375 -0.4925,1.3962 -0.1725,0.4625 -0.34625,0.925 -0.52375,1.3862 H 5.8503346 v 4.7262 H 49.734335 z"/>
    <path d="m 20.954835,24.006776 16.791,2.3175 c 0.0487,-0.49 0.1,-0.97875 0.155,-1.4688 0.0537,-0.4875 0.11875,-0.975 0.1925,-1.4612 0.0387,-0.2425 0.0788,-0.48625 0.12125,-0.72875 0.0425,-0.2425 0.085,-0.485 0.12625,-0.72875 0.06,-0.3725 0.1275,-0.74375 0.2025,-1.1138 0.0763,-0.37 0.18375,-0.7325 0.3225,-1.085 0.0925,-0.2475 0.2075,-0.48625 0.34375,-0.71375 0.135,-0.22625 0.29375,-0.435 0.475,-0.625 0.1925,-0.1975 0.39625,-0.38125 0.61375,-0.55125 0.21875,-0.16875 0.42625,-0.35125 0.62375,-0.545 0.2125,-0.20875 0.39875,-0.4425 0.55125,-0.69875 0.155,-0.255 0.275,-0.53 0.35625,-0.8175 0.075,-0.24125 0.12125,-0.49 0.1375,-0.7425 0.0175,-0.2525 0.006,-0.505 -0.0337,-0.75375 -0.0337,-0.25 -0.0962,-0.495 -0.185,-0.73125 -0.09,-0.235 -0.205,-0.46 -0.345,-0.67 -0.1225,-0.195 -0.26625,-0.37625 -0.4275,-0.54125 -0.15875,-0.16375 -0.335,-0.31125 -0.525,-0.43875 -0.175,-0.12 -0.35875,-0.22625 -0.54875,-0.3175 -0.19125,-0.0925 -0.385,-0.18 -0.58125,-0.26 -0.6675,-0.28375 -1.3438,-0.545 -2.0288,-0.78375 -0.68125,-0.2375 -1.375,-0.44125 -2.0775,-0.61125 -0.52625,-0.13375 -1.0575,-0.24625 -1.5925,-0.3375 -0.535,-0.0913 -1.0738,-0.1625 -1.615,-0.21625 -0.41875,-0.0437 -0.84,-0.0762 -1.2612,-0.0987 -0.42125,-0.0225 -0.84375,-0.0337 -1.2662,-0.035 -0.96625,-0.006 -1.9325,0.045 -2.8925,0.15625 -0.95875,0.11 -1.9075,0.2875 -2.84,0.53125 -0.6425,0.15875 -1.2775,0.345 -1.9038,0.55875 -0.63,0.215 -1.2538,0.445 -1.8712,0.6925 -0.25625,0.0975 -0.50875,0.20375 -0.7575,0.3175 -0.24625,0.11375 -0.4825,0.24875 -0.705,0.40375 -0.15125,0.10375 -0.29375,0.21875 -0.42625,0.345 -0.13375,0.12625 -0.25625,0.26375 -0.36875,0.41 -0.17,0.2175 -0.3125,0.45375 -0.42625,0.70625 -0.1125,0.25 -0.19375,0.515 -0.24,0.78625 -0.0312,0.1575 -0.0512,0.3175 -0.0575,0.4775 -0.008,0.16 -0.004,0.32125 0.0125,0.48 0.0163,0.1825 0.0462,0.36375 0.09,0.54125 0.045,0.1775 0.10375,0.3525 0.17625,0.52125 0.0775,0.19125 0.17375,0.375 0.28625,0.54875 0.11125,0.1725 0.24,0.33375 0.385,0.48 0.0487,0.05 0.0975,0.0975 0.1475,0.145 0.0512,0.0475 0.10125,0.0937 0.1525,0.13875 0.0587,0.0437 0.11625,0.0863 0.17375,0.13 0.0575,0.0437 0.115,0.0863 0.17125,0.13125 0.0625,0.0488 0.12375,0.0987 0.18375,0.15 0.06,0.0513 0.11875,0.10375 0.1775,0.1575 0.15375,0.1425 0.29875,0.29625 0.4325,0.45875 0.13375,0.1625 0.255,0.335 0.36125,0.51625 0.135,0.225 0.25125,0.46125 0.345,0.70625 0.0937,0.24625 0.175,0.4975 0.24125,0.7525 0.0975,0.35875 0.17875,0.72375 0.245,1.09 0.065,0.36625 0.12625,0.73375 0.18,1.1012 l 0.10125,0.66125 0.10125,0.6625 z"/>
    <path d="m 53.114835,33.556776 -34.372,-4.745 c -0.0525,-0.009 -0.10375,-0.0188 -0.155,-0.0288 -0.0513,-0.01 -0.1025,-0.0225 -0.1525,-0.0363 -0.0662,-0.02 -0.1325,-0.0425 -0.19625,-0.07 -0.0637,-0.0275 -0.1275,-0.0575 -0.1875,-0.0913 -0.0775,-0.0412 -0.15125,-0.0888 -0.22125,-0.13875 -0.0712,-0.0513 -0.1375,-0.10625 -0.20125,-0.16625 -0.0638,-0.06 -0.1225,-0.1225 -0.17875,-0.19 -0.055,-0.0675 -0.105,-0.1375 -0.15,-0.2125 -0.0462,-0.0725 -0.0888,-0.14875 -0.125,-0.22875 -0.035,-0.0787 -0.0663,-0.16 -0.0913,-0.24375 -0.0312,-0.1 -0.055,-0.20125 -0.07,-0.305 -0.0163,-0.10375 -0.0225,-0.2075 -0.0213,-0.3125 0,-0.12125 0.0113,-0.24375 0.0337,-0.36375 0.0225,-0.12 0.0562,-0.23625 0.1025,-0.35 0.0362,-0.0975 0.0813,-0.19125 0.13375,-0.28125 0.0525,-0.09 0.11125,-0.17625 0.1775,-0.25625 0.0875,-0.11 0.185,-0.21 0.2925,-0.29875 0.10875,-0.0888 0.225,-0.165 0.34875,-0.22875 0.0763,-0.0412 0.15625,-0.0763 0.2375,-0.10625 0.0813,-0.03 0.165,-0.055 0.25,-0.0737 0.0675,-0.015 0.13625,-0.0275 0.205,-0.0362 0.07,-0.007 0.13875,-0.0112 0.20875,-0.0112 0.0512,0 0.10375,10e-4 0.15625,0.005 0.0512,0.004 0.10375,0.007 0.15625,0.0112 l 33.82,4.67 v 4.0888 z"/>
  </symbol>
  <use xlink:href="#notice_bollard" x="0" y="0" />
</svg>
