<?xml version="1.0" encoding="UTF-8" standalone="no"?>
<svg id="svg2" xmlns:rdf="http://www.w3.org/1999/02/22-rdf-syntax-ns#" xmlns="http://www.w3.org/2000/svg" height="400" width="300" version="1.0" xmlns:cc="http://creativecommons.org/ns#" xmlns:dc="http://purl.org/dc/elements/1.1/">
 <metadata id="metadata2822">
  <rdf:RDF>
   <cc:Work rdf:about="">
    <dc:format>image/svg+xml</dc:format>
    <dc:type rdf:resource="http://purl.org/dc/dcmitype/StillImage"/>
    <dc:title/>
   </cc:Work>
  </rdf:RDF>
 </metadata>
 <g id="g3660" transform="translate(0,80)">
  <path id="path3662" d="m181.51 18.597-6.5312-2.0938-30.469 68.063-29.781 32.594h-7.7812l-0.125 5.6562h31.062c1.2873 5.533 6.2333 9.6562 12.156 9.6562 5.925 0 10.871-4.1205 12.156-9.6562h24.125v-5.6562h-7.7812l-2.4688-22.344 16.625-72.625-7.1562-2.2812-4.0312-1.3125zm-2.2812 6.4062 4.9688 1.7812-15.219 68.031 2.4688 22.344h-9.25c-1.2825-5.5396-6.2286-9.6875-12.156-9.6875-5.9258 0-10.872 4.1506-12.156 9.6875h-13.594l26.25-28.375 28.688-63.781zm-21.7 94.981c0 4.14-3.36 7.5-7.5 7.5s-7.5-3.36-7.5-7.5 3.36-7.5 7.5-7.5 7.5 3.36 7.5 7.5z" fill-rule="evenodd" fill="#000204"/>
  <path id="path3664" d="m150.62 88.603 18.41 6.2197 0.12439-0.52868-18.348-6.2508-0.18659 0.55978z"/>
  <path id="path3666" d="m165.24 56.012 11.6 3.8873c-0.14141 0.29876-0.16166 0.36591-0.15549 0.59088l-11.693-3.9184 0.24879-0.55978z" fill="#000204"/>
  <path id="path7727" fill="#00d400" d="m170.61 57.575-5.0214-1.7116 1.0644-2.358c0.58541-1.2969 3.597-8.0151 6.6925-14.929 3.0955-6.9143 5.7636-12.722 5.9291-12.905 0.34876-0.38704 4.1879 0.89712 4.4065 1.4739 0.08 0.21115-1.4493 7.4974-3.3985 16.192-2.6098 11.641-3.6899 15.827-4.0976 15.879-0.30452 0.0392-2.8133-0.69888-5.575-1.6402z"/>
  <path id="path7729" fill="#00d400" d="m125.59 116.21c2.3443-2.9216 24.99-26.985 25.452-27.045 0.32707-0.0427 4.4518 1.243 9.1661 2.8572l8.5714 2.9348 1.0073 8.9524c0.55404 4.9238 1.1127 9.8524 1.2414 10.952l0.23408 2h-4.5145-4.5145l-0.44937-1.4999c-0.71669-2.3921-3.0654-5.027-5.8045-6.5118-2.2698-1.2304-2.6748-1.3215-5.8667-1.3197-2.7035 0.002-3.8052 0.1756-5.2098 0.8232-2.6479 1.2209-5.0092 3.5955-6.1886 6.2235l-1.0253 2.2848h-6.311c-5.9047 0-6.2773-0.042-5.7882-0.65159z"/>
  <path id="path7731" fill="#f00" d="m160.42 91.103c-4.5956-1.5397-8.5216-2.9654-8.7244-3.1682-0.35964-0.35964 12.819-30.294 13.53-30.734 0.1766-0.10914 2.7671 0.61041 5.7567 1.599l5.4356 1.7974-3.6978 16.549c-2.0338 9.1019-3.7533 16.596-3.8212 16.653-0.0679 0.0571-3.8835-1.156-8.4791-2.6957z"/>
 </g>
</svg>
