<?xml version="1.0" encoding="UTF-8" standalone="no"?>
<svg id="svg2" xmlns:rdf="http://www.w3.org/1999/02/22-rdf-syntax-ns#" xmlns="http://www.w3.org/2000/svg" height="400" width="300" version="1.0" xmlns:cc="http://creativecommons.org/ns#" xmlns:dc="http://purl.org/dc/elements/1.1/">
 <metadata id="metadata2822">
  <rdf:RDF>
   <cc:Work rdf:about="">
    <dc:format>image/svg+xml</dc:format>
    <dc:type rdf:resource="http://purl.org/dc/dcmitype/StillImage"/>
    <dc:title/>
   </cc:Work>
  </rdf:RDF>
 </metadata>
 <g id="g3674" transform="translate(0,80)">
  <path id="path3676" d="m181.54 18.569-6.5312-2.0938-30.469 68.063-29.781 32.594h-7.7812l-0.125 5.6562h31.062c1.2873 5.533 6.2333 9.6562 12.156 9.6562 5.925 0 10.871-4.1205 12.156-9.6562h24.125v-5.6562h-7.7812l-2.4688-22.344 16.625-72.625-7.1562-2.2812-4.0312-1.3125zm-2.2812 6.4062 4.9688 1.7812-15.219 68.031 2.4688 22.344h-9.25c-1.2825-5.5396-6.2286-9.6875-12.156-9.6875-5.9258 0-10.872 4.1506-12.156 9.6875h-13.594l26.25-28.375 28.688-63.781zm-21.7 94.981c0 4.14-3.36 7.5-7.5 7.5s-7.5-3.36-7.5-7.5 3.36-7.5 7.5-7.5 7.5 3.36 7.5 7.5z" fill-rule="evenodd" fill="#000407"/>
  <path id="path3678" d="m181.66 25.81-27.913 82.17 0.60559 0.25569 27.76-82.265-0.45296-0.16018z" fill="#000204"/>
  <path id="path4223" d="m162.02 196.19c-0.32459-1.0401-1.0583-2.5587-1.6557-3.427-1.1238-1.6334-3.1598-3.3422-5.008-4.2033-0.46902-0.21851-0.85276-0.43236-0.85276-0.47521 0-0.10446 27.594-81.874 27.647-81.927 0.0229-0.0229 0.48115 0.10854 1.0183 0.29217 0.91362 0.31235 0.97243 0.35401 0.91248 0.64637-0.0353 0.17187-3.4421 15.408-7.5708 33.859-4.1287 18.45-7.5066 33.75-7.5064 34 0.00012 0.24965 0.53455 5.263 1.1875 11.141 0.65294 5.8778 1.1872 10.757 1.1872 10.844 0 0.12303-0.98044 0.15693-4.5379 0.15693h-4.5379l-0.28284-0.90625z" transform="translate(0,-80)" stroke-width="0" fill="#d40000"/>
  <path id="path4225" d="m125.21 196.29c0.40079-0.44149 6.2868-6.8118 13.08-14.156l12.351-13.354 14.299-31.797c7.8647-17.488 14.32-31.817 14.345-31.843 0.0551-0.0551 1.8285 0.53488 2.0755 0.6905 0.13875 0.0874-2.5806 8.2149-13.75 41.096l-13.923 40.987-0.625-0.1636c-2.1788-0.57033-4.8782-0.43504-7.1431 0.35799-3.7111 1.2994-6.5906 4.2798-7.804 8.0774l-0.28957 0.90625h-6.6728-6.6728l0.7287-0.80272z" transform="translate(0,-80)" stroke-width="0" fill="#fff"/>
 </g>
</svg>
