<?xml version="1.0" encoding="UTF-8" standalone="no"?>
<svg id="svg2" xmlns:rdf="http://www.w3.org/1999/02/22-rdf-syntax-ns#" xmlns="http://www.w3.org/2000/svg" height="400" width="300" version="1.0" xmlns:cc="http://creativecommons.org/ns#" xmlns:dc="http://purl.org/dc/elements/1.1/">
 <metadata id="metadata2822">
  <rdf:RDF>
   <cc:Work rdf:about="">
    <dc:format>image/svg+xml</dc:format>
    <dc:type rdf:resource="http://purl.org/dc/dcmitype/StillImage"/>
    <dc:title/>
   </cc:Work>
  </rdf:RDF>
 </metadata>
 <g id="g3660" transform="translate(0,80)">
  <path id="path3662" d="m181.54 18.569-6.5312-2.0938-30.469 68.063-29.781 32.594h-7.7812l-0.125 5.6562h31.062c1.2873 5.533 6.2333 9.6562 12.156 9.6562 5.925 0 10.871-4.1205 12.156-9.6562h24.125v-5.6562h-7.7812l-2.4688-22.344 16.625-72.625-7.1562-2.2812-4.0312-1.3125zm-2.2812 6.4062 4.9688 1.7812-15.219 68.031 2.4688 22.344h-9.25c-1.2825-5.5396-6.2286-9.6875-12.156-9.6875-5.9258 0-10.872 4.1506-12.156 9.6875h-13.594l26.25-28.375 28.688-63.781zm-21.7 94.981c0 4.14-3.36 7.5-7.5 7.5s-7.5-3.36-7.5-7.5 3.36-7.5 7.5-7.5 7.5 3.36 7.5 7.5z" fill-rule="evenodd" fill="#000204"/>
  <path id="path3664" d="m144.48 94.461 25.76 8.6788 0.10551-0.53499-25.679-8.7037-0.18634 0.55986z"/>
  <path id="path3666" d="m167.52 48.234 11.6 3.8873c-0.14141 0.29876-0.16166 0.36591-0.15549 0.59088l-11.693-3.9184 0.24879-0.55978z" fill="#000204"/>
  <path id="path3427" d="m157.4 71.857 15.833 5.3038c-0.15496 0.29422-0.17455 0.36159-0.14167 0.5955l-15.961-5.3463 0.26898-0.55302z" fill="#000204"/>
  <path id="path5845" d="m173.64 130.23c-2.5982-0.88127-4.7577-1.636-4.799-1.6773-0.072-0.072 10.254-23.168 10.446-23.365 0.15387-0.15751 4.8313 1.5928 4.8002 1.7962-0.0315 0.20595-4.9317 22.17-5.3027 23.768-0.13963 0.60156-0.29138 1.0906-0.33721 1.0866-0.0458-0.004-2.2091-0.72814-4.8073-1.6094z" transform="translate(0,-80)" fill="#00d400"/>
  <path id="path5847" d="m157.74 178.27c-6.5312-2.2241-11.916-4.06-11.967-4.0798-0.0505-0.0198 1.0215-1.2405 2.3823-2.7126l2.474-2.6766 3.617-8.0438c1.9894-4.4241 3.6736-8.0232 3.7427-7.9981 0.0692 0.0251 3.4187 1.1547 7.4435 2.5102l7.3177 2.4645-1.9065 8.5227-1.9065 8.5227 0.36579 3.3125c0.20119 1.8219 0.3965 3.5234 0.43402 3.7812 0.0375 0.25781 0.0254 0.46246-0.027 0.45478-0.0524-0.008-5.439-1.8337-11.97-4.0577z" transform="translate(0,-80)" fill="#00d400"/>
  <path id="path5849" d="m165.49 154.51c-3.9875-1.3465-7.2641-2.4592-7.2813-2.4726-0.0172-0.0135 2.195-4.9697 4.916-11.014 2.721-6.0442 5.0222-11.167 5.1138-11.384l0.16648-0.39445 4.9176 1.6609c3.0161 1.0187 4.9306 1.727 4.9514 1.832 0.0241 0.12202-4.5012 20.632-5.2847 23.952-0.0365 0.15469-0.1075 0.27828-0.15775 0.27466-0.0503-0.004-3.3539-1.1083-7.3414-2.4548z" transform="translate(0,-80)" fill="#fff"/>
  <path id="path6359" d="m124.58 197.03c0-0.16448 20.548-22.245 20.672-22.214 0.99714 0.25037 24.428 8.2338 24.529 8.3575 0.0765 0.0938 0.17732 0.57819 0.22411 1.0764 0.0468 0.49824 0.38069 3.5925 0.74199 6.8762l0.65693 5.9703-4.5502-0.0328-4.5502-0.0328-0.33986-1c-1.642-4.8316-5.6416-8.0416-10.666-8.5599-2.3348-0.24089-4.6156 0.17849-6.7812 1.2469-3.0774 1.5182-5.3413 4.1552-6.3856 7.438l-0.27836 0.875-6.6368 0.0323c-3.6502 0.0178-6.6368 0.003-6.6368-0.0334z" transform="translate(0,-80)" fill="#fff"/>
 </g>
</svg>
