<svg
   xmlns="http://www.w3.org/2000/svg"
   xmlns:xlink="http://www.w3.org/1999/xlink"  
   version="1.1"
   width="60"
   height="60">
   <symbol id="pump_out" width="60" height="60">
    <rect width="58" height="58" rx="10" ry="10" x="1" y="1"
     style="fill:#ffffff;fill-opacity:0.5;stroke:#a30075;stroke-width:2" />
    <path d="m 27.57814,13.745684 9.289627,-0.01267 a 1.7777456,2.1333169 0 0 1 1.804009,2.145536 l -0.0093,5.796865 5.357068,0.0083 -0.0088,-2.340974 9.089645,4.484582 -9.087199,4.470743 -0.0088,-2.340977 -7.122079,0.0011 A 1.7777456,2.1333169 0 0 1 35.109288,23.81245 l -0.02176,-5.833857 -5.728516,0.03077 -0.0046,7.060249 4.490055,0.01307 a 1.1890206,1.4268395 0 0 1 0.01056,2.824033 l -4.489917,0.02412 0.0033,9.178274 0.557368,-0.0029 0.01309,-4.793588 9.7541,-0.01523 -0.0099,5.648234 -1.322485,2.422444 -3.591932,0.0193 a 1.7805701,2.1367063 0 0 1 -1.513679,0.974266 l -5.666756,-0.0067 a 1.7777456,2.1333169 0 0 1 -1.772902,-2.108544 l -0.01131,-11.33346 -2.755882,0.01481 -4.253482,5.299436 -0.370054,0.410737 -0.49544,0.0026 -8.422607,0.0082 9.01629,9.724404 26.351735,0.0071 5.961684,-3.933726 -0.0183,-4.904898 -7.214975,0.0016 a 1.1921629,1.4306104 0 0 1 -0.01067,-2.861191 l 8.422744,0.02908 1.176671,-0.0064 0.0053,1.412016 -0.0044,7.171726 0.0035,0.854642 -0.617912,0.374909 -6.85745,4.533079 -0.247031,0.187123 -0.309651,0.0022 -27.094888,-0.0031 -0.464475,0.0022 L 17.262713,45.869533 5.6345548,33.26074 3.334,30.820599 l 3.0964967,-0.01663 10.9928353,0.01528 4.253483,-5.299436 0.369916,-0.447897 0.495439,-0.0026 3.282425,0.01952 -0.0034,-9.215432 a 1.7777456,2.1333169 0 0 1 1.757101,-2.127505 z"
     style="fill:#a30075;fill-opacity:1;stroke:none" />
   </symbol>
   <use xlink:href="#pump_out" x="0" y="0"/>
</svg>
