<svg
   xmlns="http://www.w3.org/2000/svg"
   xmlns:xlink="http://www.w3.org/1999/xlink"  
   version="1.1"
   width="60"
   height="60">
  <symbol id="slipway" width="60" height="60">
    <rect width="58" height="58" rx="10" ry="10" x="1" y="1"
       style="fill:#ffffff;fill-opacity:0.5;stroke:#a30075;stroke-width:2" />
    <path d="m 28.375,9.90625 -5.5625,3.875 -9.96875,-2.71875 c -0.04473,0.169276 -2.018497,7.849022 9.625,11.3125 L 52.875,30.6875 55.0625,22.53125 24.8125,14.25 30.28125,10.375 28.375,9.90625 z m -23.28125,10.75 0,1.8125 21.5625,5.9375 c 0.36625,-0.53436 0.81414,-1.0232 1.3125,-1.4375 l -22.875,-6.3125 z m 27.1875,6.40625 c -2.8339,0 -5.125,2.2911 -5.125,5.125 0,2.0354 1.2143,3.79044 2.9375,4.625 l -25,-6.90625 0.0625,18.15625 c 1.0688,0 2.10062,-0.23597 3.03125,-0.65625 0.9486,-0.4383 2.04545,-0.71875 3.15625,-0.71875 1.1167,0 2.17636,0.28045 3.125,0.71875 0.9307,0.42028 1.95655,0.65625 3.03125,0.65625 1.0808,0 2.13788,-0.23597 3.0625,-0.65625 0.9426,-0.4383 2.0082,-0.71875 3.125,-0.71875 1.1107,0 2.20161,0.28045 3.15625,0.71875 0.9247,0.42028 1.95055,0.65625 3.03125,0.65625 1.0808,0 2.13788,-0.23597 3.0625,-0.65625 0.9546,-0.4383 2.0082,-0.71875 3.125,-0.71875 1.1167,0 2.17036,0.28045 3.125,0.71875 0.9307,0.42028 1.9818,0.65625 3.0625,0.65625 1.0868,0 2.10062,-0.23597 3.03125,-0.65625 0.9486,-0.4383 2.03945,-0.71875 3.15625,-0.71875 1.1167,0 2.17036,0.28045 3.125,0.71875 0.9247,0.42028 1.94455,0.65625 3.03125,0.65625 l -0.03125,-4.5 -22.78125,-6.28125 c 0.16811,0.01801 0.33189,0.0625 0.5,0.0625 2.8339,0 5.15625,-2.32235 5.15625,-5.15625 0,-2.834 -2.32235,-5.125 -5.15625,-5.125 z m 6.40625,2.84375 c 0.22215,0.6184 0.37023,1.25303 0.40625,1.9375 l 12.875,3.5625 0.4375,-1.6875 -13.71875,-3.8125 z m -6.375,0.0625 c 1.23083,0 2.21875,0.98792 2.21875,2.21875 0,1.23083 -0.98795,2.21875 -2.21875,2.21875 -1.23083,0 -2.25,-0.98793 -2.25,-2.21875 0,-1.23082 1.01917,-2.21875 2.25,-2.21875 z"
       style="fill:#a30075" />
  </symbol>
   <use xlink:href="#slipway" x="0" y="0"/>
</svg>
