<?xml version="1.0" encoding="UTF-8" standalone="no"?>
<svg id="svg2" xmlns:rdf="http://www.w3.org/1999/02/22-rdf-syntax-ns#" xmlns="http://www.w3.org/2000/svg" height="400" width="300" version="1.0" xmlns:cc="http://creativecommons.org/ns#" xmlns:dc="http://purl.org/dc/elements/1.1/">
 <metadata id="metadata2913">
  <rdf:RDF>
   <cc:Work rdf:about="">
    <dc:format>image/svg+xml</dc:format>
    <dc:type rdf:resource="http://purl.org/dc/dcmitype/StillImage"/>
    <dc:title/>
   </cc:Work>
  </rdf:RDF>
 </metadata>
 <g id="layer9">
  <g id="g3674">
   <path id="path3660" d="m129.33 154.26a24.438 23.625 0 1 1 42.9 0.12552" transform="matrix(1.1867 0 0 1.2275 -24.074 10.693)" stroke="#000" stroke-width="5.7998" fill="none"/>
   <path id="path3671" d="m115.97 137.17v5.6121l21.954 0.0442c1.2873 5.533 6.2333 9.6562 12.156 9.6562 5.925 0 10.871-4.1205 12.156-9.6562h29.844v-0.0625-5.5938h-76.11zm46.266 0c-1.2853-5.5357-6.2313-9.6562-12.156-9.6562-5.923 0.00001-10.869 4.1233-12.156 9.6562h24.312zm-12.156-4.6875c4.14 0 7.5 3.36 7.5 7.5s-3.36 7.5-7.5 7.5-7.5-3.36-7.5-7.5 3.36-7.5 7.5-7.5z" fill-rule="evenodd" transform="translate(0,60)" fill="#000407"/>
  </g>
  <path id="path3009" d="m131.75 196.62c-1.2715-2.4892-2.2316-6.9214-2.2314-10.301 0.00025-6.7817 2.7231-13.337 7.4878-18.027 4.088-4.0239 8.9869-6.4364 14.746-7.2621 2.0989-0.30087 6.0437-0.13105 8.336 0.35887 7.6824 1.642 14.109 6.6514 17.581 13.705 1.7033 3.4599 2.3815 6.1983 2.5239 10.192 0.13969 3.9168-0.36211 6.9254-1.7341 10.398l-0.56087 1.4193h-7.8219-7.8219l-0.11047-0.58886c-0.0608-0.32387-0.41909-1.2188-0.79629-1.9887-3.3618-6.8622-11.752-9.1671-18.178-4.994-2.1223 1.3782-4.2885 4.1816-4.994 6.4632l-0.31543 1.02-2.9302 0.0484-2.9302 0.0484-0.25049-0.49038z" stroke-width="0" fill="#ffd400"/>
 </g>
</svg>
