<?xml version="1.0" encoding="UTF-8" standalone="no"?>
<!-- Created with Inkscape (http://www.inkscape.org/) -->

<svg
   xmlns:dc="http://purl.org/dc/elements/1.1/"
   xmlns:cc="http://creativecommons.org/ns#"
   xmlns:rdf="http://www.w3.org/1999/02/22-rdf-syntax-ns#"
   xmlns:svg="http://www.w3.org/2000/svg"
   xmlns="http://www.w3.org/2000/svg"
   version="1.0"
   width="300"
   height="400"
   id="svg2"
   style="display:inline">
  <metadata
     id="metadata2913">
    <rdf:RDF>
      <cc:Work
         rdf:about="">
        <dc:format>image/svg+xml</dc:format>
        <dc:type
           rdf:resource="http://purl.org/dc/dcmitype/StillImage" />
        <dc:title></dc:title>
      </cc:Work>
    </rdf:RDF>
  </metadata>
  <defs
     id="defs4" />
  <g
     transform="translate(0,60)"
     id="g4145"
     style="display:inline">
    <g
       transform="matrix(0.70215305,-0.71202605,0.71202605,0.70215305,43.358935,116.49715)"
       id="g4147"
       style="fill:none;stroke:#000000;stroke-opacity:1;display:inline">
      <g
         transform="translate(0.07504381,0.00169189)"
         id="g4149"
         style="fill:none;stroke:#000000;stroke-opacity:1">
        <g
           transform="translate(0,-20)"
           id="g4151"
           style="fill:none;stroke:#000000;stroke-opacity:1;display:inline" />
        <g
           transform="translate(0,20)"
           id="g4153"
           style="fill:none;stroke:#000000;stroke-opacity:1;display:none">
          <g
             transform="translate(-0.03261583,-10.012291)"
             id="g4155"
             style="fill:none;stroke:#000000;stroke-opacity:1;display:inline">
            <g
               transform="translate(0,40)"
               id="g4157"
               style="fill:none;stroke:#000000;stroke-opacity:1;display:inline" />
            <g
               transform="translate(0,40)"
               id="g4159"
               style="fill:none;stroke:#000000;stroke-opacity:1;display:none">
              <g
                 transform="translate(0.05305884,-19.897533)"
                 id="g4161"
                 style="fill:none;stroke:#000000;stroke-opacity:1">
                <path
                   d="m 237.075,81.89375 -5.59375,16.71875 4.03125,1.3125 5.59375,-16.6875 -4.03125,-1.34375 z m -14.48135,-8.400002 0,0 z m 9.1251,-2.4875 0,0 z"
                   transform="translate(-40,-40)"
                   id="path4163"
                   style="fill:none;stroke:#000000;stroke-opacity:1" />
              </g>
            </g>
            <g
               transform="translate(0,40)"
               id="g4165"
               style="fill:none;stroke:#000000;stroke-opacity:1;display:none">
              <g
                 transform="translate(-1.12511,-16.485601)"
                 id="g4167"
                 style="fill:none;stroke:#000000;stroke-opacity:1">
                <path
                   d="m 258.13125,85.068748 -6.2,-40.575 -29.3376,29 35.5376,11.575 z m -6.2,-6.8375 -20.2125,-7.225 16.65,-16.75 3.5625,23.975 z"
                   transform="translate(-40,-40)"
                   id="path4169"
                   style="fill:none;stroke:#000000;stroke-opacity:1" />
              </g>
            </g>
            <g
               transform="translate(0,40)"
               id="g4171"
               style="fill:none;stroke:#000000;stroke-opacity:1;display:none">
              <g
                 transform="translate(-1.0006298,-16.738683)"
                 id="g4173"
                 style="fill:none;stroke:#000000;stroke-opacity:1">
                <path
                   d="m 194.48125,164.58125 0,0 z m 6.03125,4.21875 0,0 z m 63.775,-118.887458 -26.425,-8.7875 -11.575,33.78746 26.425,8.6375 11.575,-33.63746 z m -6.0625,3.61246 -8.0125,23.975 -17.0875,-6.2 8.0125,-23.97496 17.0875,6.19996 z"
                   transform="translate(-40,-40)"
                   id="path4175"
                   style="fill:none;stroke:#000000;stroke-opacity:1" />
              </g>
            </g>
            <g
               transform="translate(0,40)"
               id="g4177"
               style="fill:none;stroke:#000000;stroke-opacity:1;display:inline">
              <g
                 transform="translate(0.01692762,-20.00346)"
                 id="g4179"
                 style="fill:none;stroke:#000000;stroke-opacity:1">
                <path
                   d="m 131.60087,181.31159 -61.62788,76.30842 -4.53011,5.57826 -5.557433,4.22374 -6.899414,2.10924 -7.322226,-0.10972 -6.812191,-2.29629 -5.747427,-4.33733 -4.201328,-6.0873 -2.224898,-7.05116 0.15697,-6.9752 2.73284,-6.08953 4.594775,-5.30836 5.593528,-4.86801 1.174178,-0.94649 90.670616,-44.15027 z m 28.00125,-25.26051 c 2.19706,-0.21962 4.15842,1.38525 4.37805,3.58229 0.21962,2.19706 -1.38525,4.15842 -3.58229,4.37805 -2.19706,0.21962 -4.15842,-1.38525 -4.37805,-3.58229 -0.21962,-2.19706 1.38525,-4.15842 3.58229,-4.37805 z"
                   id="path4181"
                   style="fill:none;stroke:#000000;stroke-opacity:1" />
              </g>
            </g>
            <g
               transform="translate(0,40)"
               id="g4183"
               style="fill:none;stroke:#000000;stroke-opacity:1;display:none">
              <g
                 transform="translate(-1.2726137,-15.886288)"
                 id="g4185"
                 style="fill:none;stroke:#000000;stroke-opacity:1">
                <path
                   d="m 206,5.6875 c -9.35666,0 -17,7.643343 -17,17 0,9.356657 7.64334,17 17,17 9.35666,0 17,-7.643343 17,-17 0,-9.356657 -7.64334,-16.9999999 -17,-17 z m 0,5 c 6.65134,0 12,5.348657 12,12 0,6.651343 -5.34866,12 -12,12 -6.65134,0 -12,-5.348657 -12,-12 0,-6.651343 5.34866,-12 12,-12 z"
                   id="path4187"
                   style="fill:none;stroke:#000000;stroke-opacity:1" />
              </g>
            </g>
            <g
               transform="translate(0,40)"
               id="g4189"
               style="fill:none;stroke:#000000;stroke-opacity:1;display:none">
              <path
                 d="m 217.83948,9.1611226 c 0,8.0040004 -6.496,14.5000004 -14.5,14.5000004 -8.004,0 -14.5,-6.496 -14.5,-14.5000004 0,-8.004 6.496,-14.5000005 14.5,-14.5000005 8.004,0 14.5,6.4960005 14.5,14.5000005 z"
                 id="path4191"
                 style="fill:none;stroke:#000000;stroke-opacity:1" />
              <path
                 d="m 227.31627,-17.93622 c 0,8.0040011 -6.496,14.5000011 -14.5,14.5000011 -8.004,0 -14.5,-6.496 -14.5,-14.5000011 0,-8.003999 6.496,-14.499999 14.5,-14.499999 8.004,0 14.5,6.496 14.5,14.499999 z"
                 id="path4193"
                 style="fill:none;stroke:#000000;stroke-opacity:1" />
            </g>
            <g
               transform="translate(0,40)"
               id="g4195"
               style="fill:none;stroke:#000000;stroke-opacity:1;display:none">
              <path
                 d="m 191.53964,38.593837 -6.53125,-2.09375 -30.46875,68.062503 -29.78125,32.59375 -7.78125,0 -0.125,5.65625 31.0625,0 c 1.28732,5.53295 6.23327,9.65624 12.15625,9.65625 5.92495,0 10.87095,-4.12052 12.15625,-9.65625 l 24.125,0 0,-5.65625 -7.78125,0 -2.46875,-22.34375 16.625,-72.625003 -7.15625,-2.28125 -4.03125,-1.3125 z m -2.28125,6.40625 4.96875,1.78125 -15.21875,68.031253 2.46875,22.34375 -9.25,0 c -1.28251,-5.53956 -6.22858,-9.6875 -12.15625,-9.6875 -5.92576,0 -10.87178,4.15063 -12.15625,9.6875 l -13.59375,0 26.25,-28.375 28.6875,-63.781253 z m -21.7,94.981253 c 0,4.14 -3.36,7.5 -7.5,7.5 -4.14,0 -7.5,-3.36 -7.5,-7.5 0,-4.14 3.36,-7.5 7.5,-7.5 4.14,0 7.5,3.36 7.5,7.5 z"
                 id="path4197"
                 style="fill:none;stroke:#000000;stroke-opacity:1;display:inline" />
              <path
                 d="m 191.65723,45.835182 -27.91272,82.169788 0.60559,0.25569 27.76009,-82.265296 -0.45296,-0.160182 z"
                 id="path4199"
                 style="fill:none;stroke:#000000;stroke-opacity:1" />
            </g>
            <g
               transform="translate(0,40)"
               id="g4201"
               style="fill:none;stroke:#000000;stroke-opacity:1;display:none">
              <path
                 d="m 191.53964,38.593837 -6.53125,-2.09375 -30.46875,68.062503 -29.78125,32.59375 -7.78125,0 -0.125,5.65625 31.0625,0 c 1.28732,5.53295 6.23327,9.65624 12.15625,9.65625 5.92495,0 10.87095,-4.12052 12.15625,-9.65625 l 24.125,0 0,-5.65625 -7.78125,0 -2.46875,-22.34375 16.625,-72.625003 -7.15625,-2.28125 -4.03125,-1.3125 z m -2.28125,6.40625 4.96875,1.78125 -15.21875,68.031253 2.46875,22.34375 -9.25,0 c -1.28251,-5.53956 -6.22858,-9.6875 -12.15625,-9.6875 -5.92576,0 -10.87178,4.15063 -12.15625,9.6875 l -13.59375,0 26.25,-28.375 28.6875,-63.781253 z m -21.7,94.981253 c 0,4.14 -3.36,7.5 -7.5,7.5 -4.14,0 -7.5,-3.36 -7.5,-7.5 0,-4.14 3.36,-7.5 7.5,-7.5 4.14,0 7.5,3.36 7.5,7.5 z"
                 id="path4203"
                 style="fill:none;stroke:#000000;stroke-opacity:1;display:inline" />
              <path
                 d="m 160.6521,108.59992 18.41043,6.21974 0.12439,-0.52868 -18.34823,-6.25084 -0.18659,0.55978 z"
                 id="path4205"
                 style="fill:none;stroke:#000000;stroke-opacity:1" />
              <path
                 d="m 175.26849,76.008471 11.59981,3.887338 c -0.14141,0.298758 -0.16166,0.365908 -0.15549,0.590878 l -11.69311,-3.918439 0.24879,-0.559777 z"
                 id="path4207"
                 style="fill:none;stroke:#000000;stroke-opacity:1" />
            </g>
            <g
               transform="translate(0,40)"
               id="g4209"
               style="fill:none;stroke:#000000;stroke-opacity:1;display:none">
              <path
                 d="m 191.53964,38.593837 -6.53125,-2.09375 -30.46875,68.062503 -29.78125,32.59375 -7.78125,0 -0.125,5.65625 31.0625,0 c 1.28732,5.53295 6.23327,9.65624 12.15625,9.65625 5.92495,0 10.87095,-4.12052 12.15625,-9.65625 l 24.125,0 0,-5.65625 -7.78125,0 -2.46875,-22.34375 16.625,-72.625003 -7.15625,-2.28125 -4.03125,-1.3125 z m -2.28125,6.40625 4.96875,1.78125 -15.21875,68.031253 2.46875,22.34375 -9.25,0 c -1.28251,-5.53956 -6.22858,-9.6875 -12.15625,-9.6875 -5.92576,0 -10.87178,4.15063 -12.15625,9.6875 l -13.59375,0 26.25,-28.375 28.6875,-63.781253 z m -21.7,94.981253 c 0,4.14 -3.36,7.5 -7.5,7.5 -4.14,0 -7.5,-3.36 -7.5,-7.5 0,-4.14 3.36,-7.5 7.5,-7.5 4.14,0 7.5,3.36 7.5,7.5 z"
                 id="path4211"
                 style="fill:none;stroke:#000000;stroke-opacity:1;display:inline" />
              <path
                 d="m 168.84909,90.31038 14.50814,5.08883 -0.0591,0.54193 -14.69694,-5.11992 0.24787,-0.51084 z"
                 id="path4213"
                 style="fill:none;stroke:#000000;stroke-opacity:1" />
            </g>
          </g>
        </g>
      </g>
      <g
         transform="translate(0.05305884,30.111819)"
         id="g4215"
         style="fill:none;stroke:#000000;stroke-opacity:1;display:inline" />
      <path
         d="M 107.32287,36.914358 119.78333,24.62668 107.49565,12.166226 114.61591,5.1446953 126.90359,17.605149 139.36404,5.3174709 146.38557,12.437731 133.92512,24.72541 146.21279,37.185865 139.09253,44.207396 126.80486,31.74694 114.3444,44.034619 z"
         id="path4217"
         style="fill:none;stroke:#000000;stroke-width:0.99999994;stroke-opacity:1;display:inline" />
    </g>
    <path
       d="m 149.61937,48.209624 0.36247,-0.396593 0.33398,0.316953 c 0.18369,0.174324 0.37301,0.352791 0.42072,0.396593 0.084,0.07713 0.0621,0.07964 -0.69645,0.07964 l -0.78319,0 0.36247,-0.396593 z"
       id="path4223"
       style="fill:none;stroke:none" />
    <path
       d="m 147.90103,58.464892 c 0,-4.325943 -0.0129,-8.309914 -0.0288,-8.853269 l -0.0288,-0.987919 2.14648,5.45e-4 2.14649,5.44e-4 -0.0286,0.881312 c -0.0157,0.484721 -0.0286,4.468446 -0.0287,8.852724 l -1.2e-4,7.971412 -2.08906,0 -2.08906,0 0,-7.865349 z"
       id="path4225"
       style="fill:none;stroke:none" />
  </g>
</svg>
