<?xml version="1.0" encoding="UTF-8" standalone="no"?>
<svg id="svg2" xmlns:rdf="http://www.w3.org/1999/02/22-rdf-syntax-ns#" xmlns="http://www.w3.org/2000/svg" height="400" width="300" version="1.0" xmlns:cc="http://creativecommons.org/ns#" xmlns:dc="http://purl.org/dc/elements/1.1/">
 <metadata id="metadata2913">
  <rdf:RDF>
   <cc:Work rdf:about="">
    <dc:format>image/svg+xml</dc:format>
    <dc:type rdf:resource="http://purl.org/dc/dcmitype/StillImage"/>
    <dc:title/>
   </cc:Work>
  </rdf:RDF>
 </metadata>
 <g id="layer11" transform="translate(0,60)">
  <g id="g3206" transform="translate(-12.396 38.177)">
   <path id="path13269" d="m162.48-23.367c-9.3567 0-17 7.6433-17 17s7.6433 17 17 17 17-7.6433 17-17-7.6433-17-17-17zm0 5c6.6513 0 12 5.3487 12 12s-5.3487 12-12 12-12-5.3487-12-12 5.3487-12 12-12z" fill-rule="evenodd" fill="#000407"/>
  </g>
  <g id="g2896" transform="translate(-10.008 -20.012)">
   <path id="path2898" d="m197.88 108.62v17.719h4.25v-17.719h-4.25z" fill-rule="evenodd" transform="translate(-40,-40)" fill="#000407"/>
  </g>
  <path id="path9135" d="m145.22 102.35c-6.3689-3.5225-8.532-11.075-4.791-16.728 4.3838-6.6243 13.107-7.1553 18.405-1.1204 6.5241 7.4305 1.0605 18.678-9.0418 18.614-1.7741-0.0113-3.8317-0.3557-4.5725-0.76541z" transform="translate(0,-60)" stroke="#000" stroke-width=".67344" fill="none"/>
 </g>
</svg>
