<svg
   xmlns="http://www.w3.org/2000/svg"
   version="1.0"
   width="60"
   height="80">
    <path
       d="m 17.625,24.1875 -8.46875,8.46875 12.375,12.375 -12.375,12.375 8.46875,8.5 9.875,-9.875 0,23.96875 4.9375,0 0,-24.03125 9.9375,9.9375 8.5,-8.5 L 38.5,45.03125 50.875,32.65625 42.375,24.1875 30,36.5625 17.625,24.1875 z M 17.625,27 30,39.375 42.375,27 l 5.65625,5.65625 -12.375,12.375 12.375,12.375 L 42.375,63.0625 30,50.6875 l -12.375,12.375 -5.65625,-5.65625 12.375,-12.375 -12.375,-12.375 L 17.625,27 z"/>
</svg>
