<?xml version="1.0" encoding="UTF-8" standalone="no"?>
<svg id="svg2" xmlns:rdf="http://www.w3.org/1999/02/22-rdf-syntax-ns#" xmlns="http://www.w3.org/2000/svg" height="400" width="300" version="1.0" xmlns:cc="http://creativecommons.org/ns#" xmlns:dc="http://purl.org/dc/elements/1.1/">
 <metadata id="metadata2822">
  <rdf:RDF>
   <cc:Work rdf:about="">
    <dc:format>image/svg+xml</dc:format>
    <dc:type rdf:resource="http://purl.org/dc/dcmitype/StillImage"/>
    <dc:title/>
   </cc:Work>
  </rdf:RDF>
 </metadata>
 <g id="layer4" transform="translate(0,80)">
  <g id="g2972" transform="translate(-11.001 -36.764)">
   <path id="path27763-8" d="m264.29 49.913-26.425-8.7875-11.575 33.787 26.425 8.6375 11.575-33.637zm-6.0625 3.6125-8.0125 23.975-17.088-6.2 8.0125-23.975 17.088 6.2z" fill-rule="evenodd" transform="translate(-40,-40)" fill="#000407"/>
  </g>
  <path id="path3468" d="m187.13 1.9714-5.5938 16.719 4.0312 1.3125 5.5938-16.687-4.0312-1.3438z" fill-rule="evenodd" fill="#000407"/>
  <path id="path17872" d="m190.62 77.547c-4.5031-1.6429-8.2376-3.0057-8.2988-3.0285-0.0803-0.02991 7.6925-23.562 7.8663-23.815 0.0331-0.04815 16.72 5.9898 16.84 6.0933 0.0521 0.04503-1.6855 5.4083-3.8615 11.918-3.0911 9.2478-4.0003 11.835-4.1573 11.828-0.11054-0.0047-3.8854-1.3528-8.3885-2.9956z" transform="translate(0,-80)" stroke="#000" stroke-width=".125" fill="#d40000"/>
 </g>
</svg>
