<svg
   xmlns="http://www.w3.org/2000/svg"
   version="1.0"
   width="40"
   height="80">
  <path
     d="m 1.59375,0.4375 c 5.7852015,11.467078 11.72321,23.832719 16.625,33.875 -5.482962,11.223388 -11.5702129,22.783173 -16.875,33.875 5.6847413,0 11.631016,0 16.53125,0 l 0,11.8125 4.25,0 0,-11.8125 c 6.041811,0 11.17212,0 16.59375,0 C 33.251423,57.021554 27.444804,45.545858 21.8125,34.28125 27.3114,23.026237 33.404293,11.656916 38.6875,0.4375 c -12.636629,0 -25.725787,0 -37.09375,0 z m 4.875,3 27.40625,0 L 20.03125,31.125 z M 20,37.65625 33.875,65.1875 6.15625,65.1875 20,37.643008 c 0.15625,-0.0293 -0.12104,0.08049 0,0.01324 z"/>
</svg>
