<svg
   xmlns="http://www.w3.org/2000/svg"
   xmlns:xlink="http://www.w3.org/1999/xlink"  
   version="1.0"
   width="300"
   height="400">
  <symbol id="wind_farm" width="300" height="400">
    <path d="M 261.67,199.21 C 261.67,259.295 212.048,308 150.84,308 89.628,308 40.01,259.292 40.01,199.21 c 0,-60.085 49.622,-108.79 110.83,-108.79 61.212,0 110.83,48.708 110.83,108.79 z"
     style="fill:none;stroke:#000000;stroke-width:4" />
    <path d="m 115.059,248.807 h 70 v 6 h -70 z m 33.583,-76.122 -15,-25.981 4.3301,-2.5 15,25.981 z m 1.5496,-4.6714 h 30 v 5 h -30 z m 2.7084,2.5052 -15,25.981 -4.3301,-2.5 15,-25.981 z m -5.8602,-0.0127 h 6 v 80 h -6 z"
     style="fill:#000000" />
  </symbol>
  <use xlink:href="#wind_farm" x="0" y="0" />
</svg>
