<svg
   xmlns:svg="http://www.w3.org/2000/svg"
   xmlns="http://www.w3.org/2000/svg"
   version="1.0"
   width="300"
   height="400">
  <path
     d="m 137.9375,82.25 -4.34375,2.5 13.625,23.59375 -0.125,0.21875 -0.0937,0 0,0.15625 -13.46875,23.34375 4.34375,2.5 L 147,118.75 c 0,23.11458 0,46.22917 0,69.34375 -3.68666,1.05578 -7.10454,4.06884 -9.15625,9.09375 l -8.4375,0 -0.125,5.65625 8.5625,0 c 1.28732,5.53291 6.23302,9.65581 12.15625,9.65625 5.925,0 10.8709,-4.12053 12.15625,-9.65625 l 8.3125,-0.0312 0,-5.65625 -8.3125,0.0312 c -2.03686,-4.99926 -5.42433,-8.03025 -9.125,-9.09375 -0.0577,-26.79609 -0.0322,-54.06789 -0.0312,-77.03125 l 27.15625,0 0,-5 -28.46875,0 z M 150,192.5 c 4.13996,2e-5 7.50007,3.36013 7.5,7.5 3e-5,4.14005 -3.36013,7.50008 -7.5,7.5 -4.13996,-2e-5 -7.50008,-3.36012 -7.5,-7.5 2e-5,-4.13996 3.36012,-7.50007 7.5,-7.5 z"/>
</svg>
