<?xml version="1.0" encoding="UTF-8" standalone="no"?>
<svg id="svg2" xmlns:rdf="http://www.w3.org/1999/02/22-rdf-syntax-ns#" xmlns="http://www.w3.org/2000/svg" height="400" width="300" version="1.0" xmlns:cc="http://creativecommons.org/ns#" xmlns:dc="http://purl.org/dc/elements/1.1/">
 <metadata id="metadata2913">
  <rdf:RDF>
   <cc:Work rdf:about="">
    <dc:format>image/svg+xml</dc:format>
    <dc:type rdf:resource="http://purl.org/dc/dcmitype/StillImage"/>
    <dc:title/>
   </cc:Work>
  </rdf:RDF>
 </metadata>
 <g id="g2831" transform="translate(0,80)">
  <path id="path2833" d="m141.48 46.268v64.75c-1.7045 1.6489-2.9467 3.7711-3.5 6.1562h-8.4375l-0.125 5.6562h8.5625c1.2873 5.533 6.2333 9.6562 12.156 9.6562 5.925 0 10.871-4.1205 12.156-9.6562l8.3125-0.0312v-5.6562l-8.3125 0.0312c-0.58668-2.529-1.9466-4.7512-3.8125-6.4375v-64.469h-6.375-4.25-6.375zm4.0625 4.0312h8.9688v57.688h-8.9688v-57.688zm4.5938 62.188c4.14 0 7.5 3.36 7.5 7.5s-3.36 7.5-7.5 7.5-7.5-3.36-7.5-7.5 3.36-7.5 7.5-7.5z" fill-rule="evenodd" fill="#000407"/>
  <rect id="rect2835" height=".96756" width="9.9835" y="68.051" x="144.91"/>
  <rect id="rect2837" height="1.0555" width="9.7196" y="88.067" x="145.09"/>
  <path id="path5278" d="m145.59 78.493v-9.4118h4.398 4.398v9.4118 9.4118h-4.398-4.398v-9.4118z"/>
  <path id="path5280" fill="#ffd400" d="m145.59 59.23v-8.796h4.398 4.398v8.796 8.796h-4.398-4.398v-8.796z"/>
  <path id="path5282" fill="#ffd400" d="m145.59 98.548v-9.4118h4.398 4.398v9.4118 9.4118h-4.398-4.398v-9.4118z"/>
 </g>
</svg>
