<svg
   xmlns="http://www.w3.org/2000/svg"
   xmlns:xlink="http://www.w3.org/1999/xlink"  
   version="1.0"
   width="300"
   height="400">
  <symbol id="cairn" width="300" height="400">
    <path
       d="m 148.91,126.31 c -11.35,0.58 -20.41,10.02 -20.41,21.5 0,3.88 1.04,7.51 2.84,10.66 -1.25,-0.23 -2.53,-0.31 -3.84,-0.31 -11.75,0 -21.47,9.56 -21.47,21.53 0,7.24 3.56,13.6 8.97,17.5 h -1.19 v 5.65 h 24 c 1.29,5.54 6.24,9.66 12.16,9.66 5.92,0 10.87,-4.12 12.15,-9.66 h 24 v -5.65 h -1.15 c 5.41,-3.9 8.97,-10.26 8.97,-17.5 0,-11.97 -9.69,-21.53 -21.44,-21.53 -1.31,0 -2.6,0.08 -3.84,0.31 1.8,-3.15 2.84,-6.78 2.84,-10.66 0,-11.85 -9.65,-21.5 -21.5,-21.5 -0.27,0 -0.63,-0.02 -1.09,0 z m 0.18,4 c 0.2,-0.01 0.51,0 0.91,0 9.69,0 17.5,7.81 17.5,17.5 0,9.69 -7.81,17.5 -17.5,17.5 -9.69,0 -17.5,-7.81 -17.5,-17.5 0,-9.38 7.34,-17.03 16.59,-17.5 z m -21.59,31.97 c 9.79,0 17.56,7.83 17.56,17.41 0,9.57 -7.77,17.4 -17.56,17.4 -9.79,0 -17.59,-7.83 -17.59,-17.4 0,-9.58 7.8,-17.41 17.59,-17.41 z m 45,0 c 9.79,0 17.56,7.83 17.56,17.41 0,9.57 -7.77,17.4 -17.56,17.4 -9.79,0 -17.59,-7.83 -17.59,-17.4 0,-9.58 7.8,-17.41 17.59,-17.41 z m -26.44,6.66 c 1.28,0.24 2.59,0.37 3.94,0.37 1.34,0 2.64,-0.14 3.91,-0.37 -1.83,3.16 -2.88,6.82 -2.88,10.75 0,2.87 0.58,5.62 1.59,8.12 -0.85,-0.18 -1.74,-0.28 -2.65,-0.28 -0.89,0 -1.76,0.1 -2.59,0.28 1.01,-2.5 1.56,-5.25 1.56,-8.12 0,-3.94 -1.05,-7.59 -2.88,-10.75 z m 3.91,23.56 c 3.14,0 5.82,1.95 6.94,4.69 0.35,0.87 0.56,1.81 0.56,2.81 0,4.14 -3.36,7.5 -7.5,7.5 -4.14,0 -7.5,-3.36 -7.5,-7.5 0,-1 0.21,-1.94 0.56,-2.81 1.12,-2.74 3.8,-4.69 6.94,-4.69 z m -6.94,4.69 h 13.88 c -4.68,-0.01 -9.19,-0.01 -13.88,0 z"/>
  </symbol>
  <use xlink:href="#cairn" x="0" y="0" />
</svg>
