<?xml version="1.0" encoding="UTF-8" standalone="no"?>
<svg id="svg2" xmlns:rdf="http://www.w3.org/1999/02/22-rdf-syntax-ns#" xmlns="http://www.w3.org/2000/svg" height="400" width="300" version="1.0" xmlns:cc="http://creativecommons.org/ns#" xmlns:dc="http://purl.org/dc/elements/1.1/">
 <metadata id="metadata2913">
  <rdf:RDF>
   <cc:Work rdf:about="">
    <dc:format>image/svg+xml</dc:format>
    <dc:type rdf:resource="http://purl.org/dc/dcmitype/StillImage"/>
    <dc:title/>
   </cc:Work>
  </rdf:RDF>
 </metadata>
 <g id="g4867" transform="translate(0,60)">
  <path id="path4869" d="m131.42 91.417-15.219 45.75h-7.9688v5.6562h29.688c1.2873 5.533 6.2333 9.6562 12.156 9.6562 5.925 0 10.871-4.1205 12.156-9.6562h29.844v-0.0625-5.5938h-7.6875l9.0411-26.137zm5.0312 8.625 47.156 15.969-7.2188 21.156h-14.156c-1.2853-5.5357-6.2313-9.6562-12.156-9.6562-5.923 0.00001-10.869 4.1233-12.156 9.6562h-13.719zm13.625 32.438c4.14 0 7.5 3.36 7.5 7.5s-3.36 7.5-7.5 7.5-7.5-3.36-7.5-7.5 3.36-7.5 7.5-7.5z" fill-rule="evenodd" fill="#000407"/>
  <rect id="rect5149" transform="matrix(.94832 .31730 -.31730 .94832 0 0)" height=".82490" width="49.832" y="66.654" x="160.99"/>
  <path id="path17706" d="m124.32 196.99c0.024-0.0918 1.6475-5.0306 3.6078-10.975l3.5642-10.808 21.761 7.2795c27.09 9.0621 25.113 8.3945 25.145 8.4912 0.015 0.0449-0.43954 1.444-1.01 3.1091l-1.0372 3.0274-7.0239 0.0211-7.0239 0.0211-0.31569-0.9709c-1.2594-3.8732-4.1443-6.7925-7.976-8.071-1.3734-0.45826-2.2652-0.59391-3.9143-0.59542-1.0484-0.00096-1.6561 0.0409-2.2728 0.1565-2.5298 0.47428-4.7409 1.6399-6.5672 3.4619-1.6296 1.6258-2.5994 3.3049-3.3062 5.7242l-0.0738 0.25253-6.8004 0.0216c-6.7446 0.0214-6.8001 0.0202-6.7568-0.14536z" transform="translate(0,-60)" fill="#ffd400"/>
  <path id="path17708" d="m155.2 182.17c-12.843-4.3027-23.363-7.8351-23.378-7.8496-0.0218-0.0218 4.5914-14.097 4.6507-14.19 0.0185-0.0289 46.426 15.668 46.847 15.845l0.22264 0.094-2.3728 6.9443c-1.6104 4.7129-2.4122 6.9499-2.4955 6.9618-0.0675 0.01-10.631-3.503-23.474-7.8057z" transform="translate(0,-60)"/>
 </g>
</svg>
