<?xml version="1.0" encoding="UTF-8" standalone="no"?>
<svg id="svg2" xmlns:rdf="http://www.w3.org/1999/02/22-rdf-syntax-ns#" xmlns="http://www.w3.org/2000/svg" height="400" width="300" version="1.0" xmlns:cc="http://creativecommons.org/ns#" xmlns:dc="http://purl.org/dc/elements/1.1/">
 <metadata id="metadata2913">
  <rdf:RDF>
   <cc:Work rdf:about="">
    <dc:format>image/svg+xml</dc:format>
    <dc:type rdf:resource="http://purl.org/dc/dcmitype/StillImage"/>
    <dc:title/>
   </cc:Work>
  </rdf:RDF>
 </metadata>
 <g id="g3213" transform="translate(0,60)">
  <g id="g3215">
   <g id="g3217">
    <path id="path3219" d="m108.23 137.17v5.6562h29.688c1.2873 5.533 6.2333 9.6562 12.156 9.6562 5.925 0 10.871-4.1205 12.156-9.6562h29.844v-0.0625-5.5938h-83.844zm54 0c-1.2853-5.5357-6.2313-9.6562-12.156-9.6562-5.923 0.00001-10.869 4.1233-12.156 9.6562h24.312zm-12.156-4.6875c4.14 0 7.5 3.36 7.5 7.5s-3.36 7.5-7.5 7.5-7.5-3.36-7.5-7.5 3.36-7.5 7.5-7.5z" fill-rule="evenodd" fill="#000407"/>
    <path id="path3221" d="m15.636 156.98c-3.1145-15.327 5.8891-30.531 20.985-35.435" transform="matrix(1.4165 .47394 -.48207 1.4407 172.66 -93.634)" stroke="#000" stroke-width="4.6468" fill="none"/>
    <path id="path3223" d="m110.54 99.547c7.819 2.7107 13.709 9.3194 15.584 17.485" transform="matrix(1.8607 .62259 -.61354 1.8337 19.201 -153.27)" stroke="#000" stroke-width="3.5938" fill="none"/>
   </g>
   <rect id="rect3225" transform="matrix(.94832 .31730 -.31730 .94832 0 0)" height=".82490" width="52.332" y="70.639" x="160.2"/>
   <rect id="rect3227" transform="matrix(.94832 .31730 -.31730 .94832 0 0)" height=".70672" width="49.989" y="63.044" x="161.33"/>
   <rect id="rect3229" transform="matrix(.94832 .31730 -.31730 .94832 0 0)" height=".70672" width="37.192" y="55.072" x="167.92"/>
  </g>
  <path id="path4941" d="m160.4 171.69c-7.593-2.5415-13.862-4.6445-13.932-4.6732-0.27148-0.11239 3.1768-1.5956 5.5546-2.3893 3.5319-1.1788 6.9017-1.8466 10.835-2.1472l0.69023-0.0527 0.825 0.75222c3.2836 2.994 5.9389 6.2228 8.1943 9.9641 0.6708 1.1128 1.7195 3.0898 1.6659 3.1406-0.0154 0.0145-6.2404-2.053-13.833-4.5945z" transform="translate(0,-60)" fill="#d40000"/>
  <path id="path4943" d="m155.29 186.41-23.375-7.8282 0.68162-0.81072c0.37489-0.4459 1.5425-1.6717 2.5946-2.7241l1.913-1.9134 2.0087 0.67849c1.1048 0.37317 10.263 3.4404 20.352 6.8161s18.362 6.1561 18.384 6.1786c0.0816 0.0816 0.44064 2.2993 0.60373 3.7291 0.16145 1.4154 0.31534 3.7342 0.2464 3.7129-0.0186-0.006-10.553-3.5332-23.409-7.8387z" transform="translate(0,-60)" fill="#d40000"/>
  <path id="path4945" d="m157.83 179.25c-10.811-3.6216-19.725-6.6116-19.81-6.6445-0.13049-0.0504-0.0781-0.12302 0.33671-0.46677 0.87856-0.72803 2.3001-1.7693 3.5129-2.573 1.3689-0.90724 3.4189-2.0879 3.5436-2.0408 0.0467 0.0177 6.6762 2.2363 14.732 4.9304l14.647 4.8983 0.15539 0.35306c0.50285 1.1425 1.2681 3.1373 1.6371 4.2674 0.59038 1.8081 1.1247 3.8738 1.0002 3.8664-0.0544-0.003-8.9441-2.969-19.755-6.5906z" transform="translate(0,-60)" fill="#00d400"/>
  <path id="path4947" d="m123.23 196.99c0-0.23789 0.56973-2.5062 0.92056-3.6652 1.1947-3.9467 2.9685-7.7586 5.2-11.175 0.71563-1.0956 1.9212-2.7873 1.9863-2.7873 0.0143 0 10.665 3.5608 23.667 7.9129 13.003 4.3521 23.654 7.9129 23.671 7.9129 0.0162 0 0.0294 0.43582 0.0294 0.96848v0.96848l-8.2257-0.0215-8.2257-0.0215-0.11395-0.4209c-0.71631-2.6459-2.5296-5.2427-4.7821-6.8482-0.86779-0.61857-2.4723-1.4257-3.4433-1.7321-1.565-0.49388-3.2082-0.67821-4.8603-0.54525-5.1614 0.41536-9.4452 3.8813-10.968 8.874l-0.21797 0.71462h-7.3185c-6.6432 0-7.3185-0.0124-7.3185-0.13428z" transform="translate(0,-60)" fill="#00d400"/>
 </g>
</svg>
