<svg
   xmlns="http://www.w3.org/2000/svg"
   xmlns:xlink="http://www.w3.org/1999/xlink"  
   version="1.1"
   width="300"
   height="400">
  <symbol id="dish_aerial" width="300" height="400">
    <path d="m 140.9375,39.21875 -2.1875,1.25 c -24.32434,14.043857 -30.78968,47.775612 -15,75.125 4.3968,7.61572 10.08613,13.98498 16.53125,18.90625 l -0.53125,0 -0.25,2.25 -5,50 -0.15625,1.8125 c -2.64974,2.24139 -4.51945,5.37988 -5.125,8.9375 l -22.71875,0 a 2.50025,2.50025 0 0 0 -0.25,0 2.503123,2.503123 0 1 0 0.25,5 l 22.71875,0 c 1.20308,7.06805 7.38229,12.5 14.78125,12.5 7.39896,0 13.57817,-5.43195 14.78125,-12.5 l 22.71875,0 a 2.50025,2.50025 0 1 0 0,-5 l -22.71875,0 c -0.60555,-3.55762 -2.47526,-6.69611 -5.125,-8.9375 L 153.5,186.75 148.8125,139.9375 c 15.16048,7.95277 32.80546,8.70276 47.5,0.21875 l 2.15625,-1.25 -1.25,-2.1875 -26.96875,-46.75 0.15625,-0.15625 6.1875,-6.25 -1.09375,-1.625 -7.875,3.34375 -0.0625,0.03125 -25.375,-43.9375 -1.25,-2.15625 z m -1.78125,6.9375 52.4375,90.78125 c -21.40152,10.6386 -49.37784,0.61732 -63.5,-23.84375 -14.11951,-24.456478 -8.84193,-53.7187 11.0625,-66.9375 z m 32.40625,39.625 -1.65625,1.6875 -0.4375,-0.78125 2.09375,-0.90625 z M 144,142.25 l 4.21875,42.25 -8.4375,0 L 144,142.25 z m 0,47.75 c 5.3318,0 9.63436,4.10136 9.96875,9.34375 a 2.503123,2.503123 0 0 0 0,1.3125 2.503123,2.503123 0 0 0 0,0.0312 C 153.61943,205.9151 149.32132,210 144,210 c -5.44705,0 -9.80427,-4.28279 -9.96875,-9.6875 a 2.50025,2.50025 0 0 0 0,-0.625 C 134.19573,194.28279 138.55295,190 144,190 z"
       style="fill:#000000;fill-opacity:1" />
  </symbol>
  <use xlink:href="#dish_aerial" x="0" y="0" />
</svg>
