<?xml version="1.0" encoding="UTF-8" standalone="no"?>
<svg id="svg2" xmlns:rdf="http://www.w3.org/1999/02/22-rdf-syntax-ns#" xmlns="http://www.w3.org/2000/svg" height="400" width="300" version="1.0" xmlns:cc="http://creativecommons.org/ns#" xmlns:dc="http://purl.org/dc/elements/1.1/">
 <metadata id="metadata2913">
  <rdf:RDF>
   <cc:Work rdf:about="">
    <dc:format>image/svg+xml</dc:format>
    <dc:type rdf:resource="http://purl.org/dc/dcmitype/StillImage"/>
    <dc:title/>
   </cc:Work>
  </rdf:RDF>
 </metadata>
 <g id="g3129" transform="translate(0,80)">
  <path id="path3132" d="m141.45 110.98c-1.7045 1.6489-2.9247 3.8387-3.478 6.2238l-41.906-0.022 0.0289 5.6343 41.834 0.044c1.2873 5.533 6.2553 9.7442 12.178 9.7442 5.925 0 10.893-4.2085 12.178-9.7442l41.759-0.0312-0.044-5.6343-41.737 0.009c-0.58668-2.529-1.8222-4.5108-3.6881-6.1972l-1.5241-1.2736-1.8821-1.211-2.3023-0.71488-2.9098-0.29604-2.864 0.2853-2.1736 0.6878-1.9114 1.1846-1.5571 1.3113zm8.6562 1.6242c4.14 0 7.5 3.36 7.5 7.5s-3.36 7.5-7.5 7.5-7.5-3.36-7.5-7.5 3.36-7.5 7.5-7.5z" fill-rule="evenodd" fill="#000407"/>
  <path id="path3134" d="m138.22 77.275h23.944l5.8269 16.563-35.959 0.0214 6.1877-16.585v-0.00004z" stroke="#000" stroke-width="4.2371" fill="none"/>
  <path id="path3136" d="m113.83 119.99-11.787-35.008 15.957 8.9977 64.123 0.0364 15.884-9.0342-11.963 35.008" stroke="#000" stroke-width="4" fill="none"/>
  <rect id="rect3138" height="29.544" width="1" y="78.736" x="149.5" stroke-width="0"/>
  <path id="path3908" d="m113.8 193.27c-2.4327-7.113-7.9966-23.705-7.9491-23.705 0.0256 0 2.6418 1.4645 5.8135 3.2545l5.7669 3.2545h15.985 15.985v5.6969 5.6969l-1.1845 0.12685c-2.5773 0.276-4.7787 1.3585-6.7919 3.3398-1.5221 1.498-2.7772 3.5714-3.2773 5.4143l-0.22679 0.83562h-11.391-11.391l-1.3387-3.9142z" transform="translate(0,-80)" stroke-width="0" fill="#fff"/>
  <path id="path3910" d="m135.33 171.53c0-0.11649 3.721-10.193 4.3131-11.68 0.11258-0.28273 0.51605-0.30786 4.9416-0.30786h4.819v6.0693 6.0693h-7.0368c-3.8703 0-7.0368-0.068-7.0368-0.15103z" transform="translate(0,-80)" stroke-width="0" fill="#fff"/>
  <path id="path3912" d="m150.63 165.61v-6.0693h4.9899 4.9899l1.0998 3.1226c0.6049 1.7174 1.5629 4.4486 2.1289 6.0693l1.0291 2.9467h-7.1188-7.1188v-6.0693z" transform="translate(0,-80)" stroke-width="0" fill="#d40000"/>
  <path id="path3914" d="m162.36 197.05c-0.0418-0.0733-0.17654-0.44989-0.29936-0.83692-0.87666-2.7623-3.3531-5.7038-6.2133-7.38-0.95022-0.55686-2.7161-1.0894-4.1209-1.2427l-1.0995-0.11999v-5.7002-5.7002h16.07 16.07l5.5862-3.178c3.0724-1.7479 5.6269-3.1373 5.6767-3.0876 0.0497 0.0498-2.003 6.2099-4.5617 13.689l-4.6522 13.599-11.19 0.0453c-6.1544 0.0249-11.224-0.0147-11.266-0.088z" transform="translate(0,-80)" stroke-width="0" fill="#d40000"/>
 </g>
</svg>
