<svg
   xmlns:svg="http://www.w3.org/2000/svg"
   xmlns="http://www.w3.org/2000/svg"
   version="1.1"
   width="70"
   height="100">
    <g id="harbour_master" width="70" height="100" transform="matrix(0.425,0,0,0.59375,-29.091451,-68.881179)">
      <g transform="translate(70.261,-40.01)">
        <path
           d="m 158.18947,240.23094 c 0,44.63042 -34.7816,80.8421 -77.647057,80.8421 -42.86546,0 -77.6470581,-36.21168 -77.6470581,-80.8421 0,-44.63042 34.7815981,-80.8421 77.6470581,-80.8421 42.865457,0 77.647057,36.21168 77.647057,80.8421 z"
           style="fill:none;stroke:#a30075;stroke-width:7.96276093;stroke-miterlimit:4;stroke-dasharray:none" />
        <path
           d="m 34.75,16.65625 c -3.279512,0 -6.09375,3.403235 -6.09375,7.8125 0,2.721691 1.094681,5.046569 2.6875,6.4375 C 29.395697,30.88031 27.447645,30.86 25.5,30.8125 c 0,2.360822 0,4.161095 0,6.4375 2.270833,0 4.541667,0 6.8125,0 L 31.71875,71.21875 C 28.270699,70.545117 25.198628,68.825157 22.75,66.375 23.357671,65.648741 23.959408,64.917558 24.5625,64.1875 20.832616,60.358274 16.92031,56.325214 13.71875,53 c 0.787605,8.010492 1.440534,14.361071 2.21875,21.71875 1.198155,-1.487491 2.41222,-2.961951 3.625,-4.4375 3.382806,4.671477 7.658779,7.577313 12.21875,8.5 0.149813,1.476885 0.256604,2.95601 0.34375,4.4375 2.054663,0 3.633867,0 5.5625,0 0.114222,-1.458362 0.22905,-2.916676 0.34375,-4.375 2.952375,-0.584007 5.847311,-1.961155 8.53125,-4.3125 1.372589,-1.202955 2.538292,-2.581771 3.625,-4.0625 1.09144,1.426601 2.202785,2.837635 3.3125,4.25 0.914994,-7.206073 1.695269,-14.856238 2.437277,-21.103121 -4.013766,3.742731 -7.178928,6.945344 -10.656027,10.509371 0.582055,0.761399 1.165658,1.521606 1.75,2.28125 -2.441306,2.441055 -5.5059,4.138665 -8.9375,4.8125 L 37.53125,37.25 c 2.260417,0 4.520833,0 6.78125,0 0,-2.348886 0,-4.140305 0,-6.40625 l -1.28125,0 -4.8125,0.03125 c 1.552417,-1.402918 2.59375,-3.725926 2.59375,-6.40625 0,-4.409823 -2.786384,-7.8125 -6.0625,-7.8125 z m 0,3.5625 c 2.044544,0 3.53125,1.974198 3.53125,4.25 0,1.887929 -1.022977,3.586807 -2.5625,4.125 l -0.875,0.3125 L 33.875,28.625 c -1.598782,-0.488953 -2.6875,-2.223944 -2.6875,-4.15625 0,-2.276954 1.512343,-4.25 3.5625,-4.25 z"
           transform="matrix(2.3529412,0,0,1.6842105,-1.8105271,156.02041)"
           style="font-size:medium;font-style:normal;font-variant:normal;font-weight:normal;font-stretch:normal;text-indent:0;text-align:start;text-decoration:none;line-height:normal;letter-spacing:normal;word-spacing:normal;text-transform:none;direction:ltr;block-progression:tb;writing-mode:lr-tb;text-anchor:start;baseline-shift:baseline;color:#000000;fill:#a30075;fill-opacity:1;stroke:none;stroke-width:5.97207117;marker:none;visibility:visible;display:inline;overflow:visible;enable-background:accumulate;font-family:Sans;-inkscape-font-specification:Sans" />
      </g>
      <g
         transform="matrix(0.46745,0,0,0.46437,75.4123,125.1995)" style="fill-opacity:0">
        <path
           d="m 259.13,187.39 -9.012,51.135 -12.354,-11.489 c -6.161,6.88 -13.177,12.717 -21.601,18.036 -14.234,8.985 -29.813,14.066 -45.481,15.532 l -1.601,14.964 H 152.61 l -1.647,-14.964 c -25.37,-2.45 -49.56,-14.25 -67.3,-34.08 l -13.719,12.009 -7.364,-51.841 36.022,26.709 -9.176,8.039 c 15.646,13.547 37.316,22.602 61.604,24.538 l 3.247,-137.06 h -34.381 v -10.38 l 34.307,0.379 v -8.63 c -10.61,-2.351 -18.49,-10.981 -18.49,-21.288 0,-12.125 10.865,-21.936 24.278,-21.936 13.391,0 24.264,9.811 24.264,21.936 0,10.072 -7.527,18.581 -17.77,21.161 v 8.485 l 35.32,-0.12 v 10.38 h -34.379 l 3.317,137.06 c 24.117,-1.938 45.622,-10.923 61.224,-24.35 l -8.869,-8.229 36.025,-26.001 z M 171.58,69 c 0,-5.767 -5.173,-10.447 -11.553,-10.447 -6.376,0 -11.549,4.682 -11.549,10.447 0,5.77 5.173,10.449 11.549,10.449 6.379,0 11.553,-4.681 11.553,-10.449 z"/>
        <ellipse cx="160.02" cy="69.002998" rx="11.553" ry="10.449"/>
      </g>
    </g>
</svg>
