<?xml version="1.0" encoding="UTF-8" standalone="no"?>
<!-- Created with Inkscape (http://www.inkscape.org/) -->

<svg
   xmlns:dc="http://purl.org/dc/elements/1.1/"
   xmlns:cc="http://creativecommons.org/ns#"
   xmlns:rdf="http://www.w3.org/1999/02/22-rdf-syntax-ns#"
   xmlns:svg="http://www.w3.org/2000/svg"
   xmlns="http://www.w3.org/2000/svg"
   version="1.1"
   width="200"
   height="200"
   id="svg2">
  <metadata
     id="metadata15">
    <rdf:RDF>
      <cc:Work
         rdf:about="">
        <dc:format>image/svg+xml</dc:format>
        <dc:type
           rdf:resource="http://purl.org/dc/dcmitype/StillImage" />
        <dc:title></dc:title>
      </cc:Work>
    </rdf:RDF>
  </metadata>
  <defs
     id="defs13" />
  <path
     d="m 100,53.5 c -25.637176,0 -46.5,20.862216 -46.5,46.5 0,25.63778 20.862824,46.5 46.5,46.5 25.63718,0 46.5,-20.86222 46.5,-46.5 0,-25.637784 -20.86282,-46.5 -46.5,-46.5 z m 0,6 c 22.39162,0 40.5,18.107788 40.5,40.5 0,22.39222 -18.10838,40.5 -40.5,40.5 -22.391624,0 -40.5,-18.10778 -40.5,-40.5 0,-22.392212 18.108376,-40.5 40.5,-40.5 z m -0.06402,6.318781 c -4.47426,0 -8.2875,3.31254 -8.2875,7.575 0,3.13572 2.13894,5.68344 5.00622,6.84372 -3.14376,-0.0294 -6.28728,-0.09372 -9.431223,-0.09372 0,2.14584 0,3.78072 0,5.83122 3.199983,0 6.399963,0 9.600003,0 L 95.979703,121 c -5.21064,-0.67116 -9.848523,-2.53632 -13.481223,-5.23122 0.85236,-0.74826 1.7109,-1.48938 2.56872,-2.23128 -4.95168,-3.64248 -10.13808,-7.45938 -14.4,-10.6125 1.07646,7.56846 1.93122,13.69272 2.94378,20.5875 1.61568,-1.43658 3.2568,-2.844 4.89372,-4.25622 4.81812,4.85958 10.990023,7.86036 17.550003,8.75622 0.17586,1.46742 0.34044,2.93574 0.4875,4.40628 2.68074,0 4.760707,0 7.256277,0 0.16746,-1.44948 0.32634,-2.89986 0.4875,-4.35 4.20319,-0.56238 8.36718,-1.9731 12.1875,-4.36878 2.00976,-1.26078 3.71748,-2.69214 5.2875,-4.25622 1.4751,1.36236 2.95002,2.7249 4.425,4.0875 0.01,-0.0138 3.17976,-19.72518 3.17976,-19.72518 0,0 -11.36172,7.73922 -14.05476,9.67518 0.84006,0.75924 1.66686,1.5327 2.49372,2.30622 -3.62148,2.67918 -8.2443,4.54254 -13.425,5.2125 l -0.84372,-35.024999 c 3.19998,0 6.39996,0 9.6,0 0,-2.14506 0,-3.77916 0,-5.83122 -3.23754,3.6e-4 -6.47502,0.0228 -9.7125,0.0372 2.75946,-1.20564 4.78122,-3.72702 4.78122,-6.7875 0,-4.26288 -3.79956,-7.575 -8.268717,-7.575 z m 0,2.94372 c 3.0423,0 5.325,2.1381 5.325,4.63128 0,2.06892 -1.56366,3.88722 -3.86249,4.4625 l -1.3866,0.27852 0,0.006 -1.38721,-0.24402 c -2.40564,-0.4227 -4.03128,-2.38254 -4.03128,-4.5 0,-2.4942 2.2938,-4.63128 5.34378,-4.63128 z"
     id="path7"
     style="fill:#a30075;fill-opacity:1;stroke:none" />
</svg>
