<svg
   xmlns="http://www.w3.org/2000/svg"
   xmlns:xlink="http://www.w3.org/1999/xlink"  
   version="1.1"
   width="160"
   height="160">
  <symbol id="lock" width="160" height="160">
    <path d="m 77.762564,45.259214 a 3.000318,3.0003 0 0 0 -2.562516,1.65625 l -16.250096,31.5 a 3.000318,3.0003 0 0 0 -0.156251,2.875 3.000318,3.0003 0 0 0 0.156251,0.375 l 16.250096,31.499996 a 3.000318,3.0003 0 1 0 5.312532,-2.75 L 64.856237,80.040464 80.51258,49.665464 a 3.000318,3.0003 0 0 0 -2.750016,-4.40625 z m 20.531374,0.0312 a 3.000318,3.0003 0 0 0 -0.343752,0.0312 3.000318,3.0003 0 0 0 -2.281264,1.65625 l -16.250098,31.5 a 3.0049376,3.0049195 0 0 0 -0.312502,1.25 3.000318,3.0003 0 0 0 0.312502,2 l 16.250098,31.499996 a 3.0049402,3.0049221 0 1 0 5.343788,-2.75 l -15.656351,-30.374896 15.656351,-30.375 a 3.000318,3.0003 0 0 0 -2.718772,-4.4375 z"
     style="fill:#000000;fill-opacity:1;stroke:none" />
    <path d="M 140.49793,80.00009 C 140.49793,113.41338 113.41184,140.5 79.998966,140.5 46.586096,140.5 19.5,113.41338 19.5,80.00009 c 0,-33.413289 27.086096,-60.499899 60.498966,-60.499899 33.412874,0 60.498964,27.08661 60.498964,60.499899 z"
     style="fill:none;stroke:#000000;stroke-width:3.99992132" />
  </symbol>
  <use xlink:href="#lock" x="0" y="0" />
</svg>
