<svg
   xmlns="http://www.w3.org/2000/svg"
   xmlns:xlink="http://www.w3.org/1999/xlink"  
   version="1.1"
   width="300"
   height="400">
  <symbol id="monument" width="300" height="400">
    <path d="m 150,29 c -18.75388,0 -34,15.246119 -34,34 0,9.838049 4.28056,18.637283 10.96875,24.84375 L 122.5625,197.5 l -10.0625,0 0,5 22.75,0 c 1.20439,7.0665 7.35214,12.5 14.75,12.5 7.39786,0 13.57686,-5.4335 14.78125,-12.5 l 22.71875,0 0,-5 -10.0625,0 -4.40625,-109.65625 C 179.71983,81.640276 184,72.839314 184,63 l 0,-0.84375 -0.0937,-0.125 C 183.38001,43.73458 168.42217,29 150,29 z m 0,5 c 1.16361,0 2.31029,0.08648 3.4375,0.21875 L 178.84375,60.125 C 178.9364,61.071641 179,62.02841 179,63 c 0,4.890795 -1.21506,9.495488 -3.34375,13.53125 l -39.1875,-39.1875 C 140.50564,35.217316 145.10722,34 150,34 z m 5.09375,0.46875 c 12.14884,2.141071 21.66085,11.768712 23.5625,24 l -23.5625,-24 z m -19.53125,3.375 39.59375,39.59375 c -1.65337,2.87913 -3.7771,5.446061 -6.28125,7.59375 L 167.96875,85.8125 168,87 l 0.125,2.96875 -42.34375,-42.9375 c 2.49222,-3.776998 5.84349,-6.929603 9.78125,-9.1875 z m -10.34375,10.0625 42.96875,43.5 L 169,111.8125 121,63.71875 c -0.006,-0.237939 0,-0.479387 0,-0.71875 0,-5.534338 1.54483,-10.701193 4.21875,-15.09375 z m -4.125,17.25 47.96875,48.125 0.8125,20.8125 L 131.65625,95.90625 132,87 l 0.0625,-1.1875 -0.9375,-0.78125 c -5.69203,-4.88371 -9.44972,-11.924714 -10.03125,-19.875 z m 10.5,32.09375 38.34375,38.34375 0.84375,20.8125 -39.9375,-40.1875 0.75,-18.96875 z m -0.8125,20.3125 40.0625,40.34375 0.8125,20.6875 L 130,136.78125 130.78125,117.5625 z m -0.84375,20.59375 41.78125,41.9375 0.6875,16.90625 -3.875,0 -5.1875,-5.28125 c -1.31379,-2.25572 -3.1769,-4.15194 -5.40625,-5.5 -0.02,-0.0121 -0.0425,-0.0193 -0.0625,-0.0312 l -28.6875,-29.15625 0.75,-18.875 z m -0.78125,20.1875 26.125,26.59375 C 153.62999,184.33041 151.8599,184 150,184 c -4.19871,0 -7.99645,1.70397 -10.78125,4.4375 l -10.84375,-10.75 0.78125,-19.34375 z m -0.84375,20.6875 10.21875,10.125 c -1.93517,2.16007 -3.29141,4.8586 -3.78125,7.84375 l -7.15625,0 0.71875,-17.96875 z M 150,190 c 5.55252,0 10,4.44748 10,10 0,5.55252 -4.44748,10 -10,10 -5.55252,0 -10,-4.44748 -10,-10 0,-5.55252 4.44748,-10 10,-10 z m 14.59375,4.4375 2.53125,2.5625 -1.875,0 c -0.1453,-0.88548 -0.3678,-1.7332 -0.65625,-2.5625 z"
      transform="translate(-6,0)" style="fill:#000000;fill-opacity:1" />
  </symbol>
  <use xlink:href="#monument" x="0" y="0" />
</svg>
