<svg
   xmlns="http://www.w3.org/2000/svg"
   xmlns:xlink="http://www.w3.org/1999/xlink"  
   version="1.1"
   width="60"
   height="60">
  <symbol id="notice_e5_7" width="60" height="60">
    <path d="M 29.96875,11.86875 8.875,48.36875 8.90625,48.4 l 42.1875,0 c 0.0049,-0.0082 0.02608,-0.02305 0.03125,-0.03125 l -21.15625,-36.5 z m -4.4375,10.96875 c 0.0164,-0.0045 0.04503,0.0033 0.0625,0 0.0164,-0.0025 0.04503,8.2e-4 0.0625,0 l 8.6875,0 c 0.01435,8.2e-4 0.0493,-8.2e-4 0.0625,0 0.01435,0.0025 0.01788,-0.0033 0.03125,0 0.01747,0.0031 0.0461,0.02633 0.0625,0.03125 0.01533,0.0052 0.01583,-0.0082 0.03125,0 0.01533,0.0072 0.0169,0.02198 0.03125,0.03125 0.01443,0.0092 0.04913,0.021 0.0625,0.03125 0.0123,0.01123 0.02002,0.01895 0.03125,0.03125 0.01025,0.01132 0.02207,0.01895 0.03125,0.03125 0.0093,0.01328 0.02551,0.01797 0.03125,0.03125 0.0071,0.01435 -0.0049,0.04815 0,0.0625 0.0039,0.01443 -0.0033,0.01583 0,0.03125 0.0033,0.01435 0.03125,0.04708 0.03125,0.0625 8.2e-4,0.01542 8.2e-4,0.01592 0,0.03125 -0.002,0.01542 -0.02633,0.04815 -0.03125,0.0625 -0.003,0.01533 0.0057,0.0169 0,0.03125 -0.0061,0.01435 -0.02198,0.01788 -0.03125,0.03125 l 0,0.03125 -4.34375,6.5625 c -0.0071,0.01017 -0.02305,0.02207 -0.03125,0.03125 -0.0081,0.01017 -0.021,0.02207 -0.03125,0.03125 -0.01132,0.01123 -0.01788,0.02198 -0.03125,0.03125 -0.01337,0.01025 -0.01592,0.02305 -0.03125,0.03125 -0.01435,0.0071 -0.04708,0.02633 -0.0625,0.03125 -0.0164,0.0062 -0.01485,-0.0033 -0.03125,0 -0.01648,0.0053 -0.04503,-0.0016 -0.0625,0 -0.0164,0.0033 -0.04503,0.03125 -0.0625,0.03125 -0.01747,8.2e-4 -0.01485,-0.03043 -0.03125,-0.03125 -0.01747,-8.2e-4 -0.0461,0.0041 -0.0625,0 -0.0164,-0.003 -0.04708,0.0049 -0.0625,0 -0.0164,-0.0062 -0.01583,-0.02387 -0.03125,-0.03125 -0.01533,-0.0072 -0.04815,-0.02305 -0.0625,-0.03125 -0.01337,-0.0092 -0.01895,0.01025 -0.03125,0 -0.01328,-0.01025 -0.01993,-0.05118 -0.03125,-0.0625 -0.01017,-0.0123 -0.02198,-0.01895 -0.03125,-0.03125 l -4.34375,-6.5625 0,-0.03125 c -0.0072,-0.01025 -0.02633,-0.01993 -0.03125,-0.03125 -0.0052,-0.01123 0.0033,-0.01895 0,-0.03125 -0.0066,-0.01443 -0.02797,-0.01583 -0.03125,-0.03125 -0.0025,-0.01435 0,-0.04708 0,-0.0625 -8.2e-4,-0.01542 -8.2e-4,-0.01592 0,-0.03125 0.0019,-0.01542 0.02715,-0.04717 0.03125,-0.0625 0.0041,-0.01435 -0.0066,-0.0169 0,-0.03125 0.0062,-0.01435 0.02305,-0.01788 0.03125,-0.03125 0.0081,-0.01328 0.021,-0.05127 0.03125,-0.0625 0.01017,-0.0123 0.01895,-0.021 0.03125,-0.03125 0.01132,-0.01123 0.01797,-0.02198 0.03125,-0.03125 0.01337,-0.01025 0.01583,-0.02305 0.03125,-0.03125 0.01435,-0.0082 0.04708,0.0057 0.0625,0 0.0164,-0.0062 0.01378,-0.02715 0.03125,-0.03125 z m 0,7.875 c 0.0164,-0.0041 0.04508,0.0031 0.0625,0 0.0164,-0.0021 0.04508,0.001 0.0625,0 l 8.6875,0 c 0.01435,0.001 0.04917,-10e-4 0.0625,0 0.01435,0.0021 0.01792,-0.0031 0.03125,0 0.01743,0.0031 0.0461,0.02613 0.0625,0.03125 0.01537,0.0051 0.01588,-0.0072 0.03125,0 0.01537,0.0082 0.0169,0.02202 0.03125,0.03125 0.01435,0.0092 0.04917,0.021 0.0625,0.03125 0.0123,0.01128 0.01998,0.01895 0.03125,0.03125 0.01025,0.01128 0.02202,0.01895 0.03125,0.03125 0.0092,0.01332 0.0251,0.04918 0.03125,0.0625 0.0072,0.01435 -0.0051,0.0169 0,0.03125 0.0041,0.01435 -0.0031,0.01588 0,0.03125 0.0031,0.01435 0.03125,0.04713 0.03125,0.0625 10e-4,0.01537 10e-4,0.01588 0,0.03125 -0.002,0.01537 -0.02613,0.04815 -0.03125,0.0625 -0.0031,0.01537 0.0061,0.0169 0,0.03125 -0.0061,0.01332 -0.02202,0.01793 -0.03125,0.03125 l -4.34375,6.59375 c -0.0072,0.01025 -0.02305,0.02202 -0.03125,0.03125 -0.0082,0.01025 -0.021,0.02202 -0.03125,0.03125 -0.01128,0.01127 -0.01793,0.02202 -0.03125,0.03125 -0.01332,0.01025 -0.01588,0.02408 -0.03125,0.03125 -0.01435,0.0082 -0.04713,0.0251 -0.0625,0.03125 -0.0164,0.0061 -0.01485,-0.0031 -0.03125,0 -0.0164,0.0051 -0.04508,0.0292 -0.0625,0.03125 -0.0164,0.0031 -0.04508,0 -0.0625,0 -0.01742,0.001 -0.01485,0.001 -0.03125,0 -0.01742,-10e-4 -0.0461,-0.02715 -0.0625,-0.03125 -0.0164,-0.0031 -0.04713,0.0051 -0.0625,0 -0.0164,-0.0061 -0.01588,-0.02408 -0.03125,-0.03125 -0.01537,-0.0072 -0.0169,0.0082 -0.03125,0 -0.01332,-0.0092 -0.0502,-0.021 -0.0625,-0.03125 -0.01332,-0.01025 -0.01997,-0.01998 -0.03125,-0.03125 -0.01025,-0.0123 -0.02202,-0.0502 -0.03125,-0.0625 l -4.34375,-6.5625 0,-0.03125 c -0.0072,-0.01025 -0.02613,-0.01997 -0.03125,-0.03125 -0.0051,-0.01128 0.0031,-0.01895 0,-0.03125 -0.0062,-0.01435 -0.02818,-0.01588 -0.03125,-0.03125 -0.0021,-0.01435 0,-0.04713 0,-0.0625 -0.001,-0.01537 -0.001,-0.01588 0,-0.03125 0.0021,-0.01537 0.02715,-0.01588 0.03125,-0.03125 0.0041,-0.01435 -0.0062,-0.04815 0,-0.0625 0.0062,-0.01435 0.02305,-0.01793 0.03125,-0.03125 0.0082,-0.01332 0.021,-0.01997 0.03125,-0.03125 0.01025,-0.0123 0.01895,-0.021 0.03125,-0.03125 0.01128,-0.01128 0.01793,-0.05225 0.03125,-0.0625 0.01332,-0.0092 0.01588,0.0082 0.03125,0 0.01435,-0.0082 0.04713,-0.0251 0.0625,-0.03125 0.0164,-0.0062 0.01383,-0.02715 0.03125,-0.03125 z m 0,7.875 c 0.0164,-0.0041 0.04508,0.0031 0.0625,0 0.0164,-0.002 0.04508,0.001 0.0625,0 l 8.6875,0 c 0.01435,0.001 0.04917,-10e-4 0.0625,0 0.01435,0.002 0.01792,-0.0031 0.03125,0 0.01743,0.0031 0.0461,0.02613 0.0625,0.03125 0.01537,0.0051 0.01588,-0.0082 0.03125,0 0.01537,0.0072 0.0169,0.02202 0.03125,0.03125 0.01435,0.0092 0.04917,0.021 0.0625,0.03125 0.0123,0.01127 0.01998,0.01895 0.03125,0.03125 0.01025,0.01127 0.02202,0.01895 0.03125,0.03125 0.0092,0.01333 0.0251,0.04917 0.03125,0.0625 0.0072,0.01435 -0.0051,0.0169 0,0.03125 0.0041,0.01435 -0.0031,0.01588 0,0.03125 0.0031,0.01435 0.03125,0.04713 0.03125,0.0625 10e-4,0.01537 10e-4,0.01588 0,0.03125 -0.002,0.01537 -0.02613,0.04815 -0.03125,0.0625 -0.0031,0.01537 0.0061,0.0169 0,0.03125 -0.0061,0.01333 -0.02202,0.01792 -0.03125,0.03125 l 0,0.03125 -4.34375,6.5625 c -0.0072,0.01025 -0.02305,0.02202 -0.03125,0.03125 -0.0082,0.01025 -0.021,0.02202 -0.03125,0.03125 -0.01128,0.01127 -0.01793,0.02202 -0.03125,0.03125 -0.01332,0.0092 -0.01588,0.02408 -0.03125,0.03125 -0.01435,0.0082 -0.04713,0.02613 -0.0625,0.03125 -0.0164,0.0061 -0.01485,-0.0031 -0.03125,0 -0.0164,0.0051 -0.04508,-0.002 -0.0625,0 -0.0164,0.0031 -0.04508,0.03125 -0.0625,0.03125 -0.01742,0.001 -0.01485,0.001 -0.03125,0 -0.01742,-0.002 -0.0461,-0.02715 -0.0625,-0.03125 -0.0164,-0.0031 -0.04713,0.0051 -0.0625,0 -0.0164,-0.0061 -0.01588,-0.02408 -0.03125,-0.03125 -0.01537,-0.0072 -0.0169,0.0082 -0.03125,0 -0.01332,-0.0092 -0.0502,-0.021 -0.0625,-0.03125 -0.01332,-0.01025 -0.01997,-0.01998 -0.03125,-0.03125 -0.01025,-0.0123 -0.02202,-0.0502 -0.03125,-0.0625 l -4.34375,-6.5625 0,-0.03125 c -0.0072,-0.01025 -0.02613,-0.01998 -0.03125,-0.03125 -0.0051,-0.01127 0.0031,-0.01895 0,-0.03125 -0.0062,-0.01435 -0.02818,-0.01588 -0.03125,-0.03125 -0.0021,-0.01435 0,-0.04713 0,-0.0625 -0.001,-0.01537 -0.001,-0.01588 0,-0.03125 0.0021,-0.01537 0.02715,-0.04713 0.03125,-0.0625 0.0041,-0.01435 -0.0062,-0.0169 0,-0.03125 0.0062,-0.01435 0.02305,-0.01792 0.03125,-0.03125 0.0082,-0.01333 0.021,-0.01895 0.03125,-0.03125 0.01025,-0.0123 0.01895,-0.05225 0.03125,-0.0625 0.01128,-0.01127 0.01793,-0.02202 0.03125,-0.03125 0.01332,-0.01025 0.01588,0.0082 0.03125,0 0.01435,-0.0082 0.04713,-0.0251 0.0625,-0.03125 0.0164,-0.0061 0.01383,-0.02715 0.03125,-0.03125 z" />
  </symbol>
  <use xlink:href="#notice_e5_7" x="0" y="0" />
</svg>
