<?xml version="1.0" encoding="UTF-8" standalone="no"?>
<!-- Created with Inkscape (http://www.inkscape.org/) -->
<svg id="svg2" xmlns:rdf="http://www.w3.org/1999/02/22-rdf-syntax-ns#" xmlns="http://www.w3.org/2000/svg" height="60" width="60" version="1.1" xmlns:cc="http://creativecommons.org/ns#" xmlns:dc="http://purl.org/dc/elements/1.1/">
 <metadata id="metadata7">
  <rdf:RDF>
   <cc:Work rdf:about="">
    <dc:format>image/svg+xml</dc:format>
    <dc:type rdf:resource="http://purl.org/dc/dcmitype/StillImage"/>
    <dc:title/>
   </cc:Work>
  </rdf:RDF>
 </metadata>
 <g id="layer45" transform="translate(0,-60)">
  <g id="layer1-08" transform="matrix(.97035 0 0 .97034 -83.67 -55.07)">
   <g id="g2965" transform="matrix(.84346 0 0 .84346 18.337 23.403)">
    <g id="g3789" transform="matrix(0 1.25 1.25 0 85.962 184.87)" stroke="#000" fill="#fff">
     <path id="path3791" stroke-linejoin="bevel" d="m0 0v49.916c-0.001 0.144-0.01 0.289-0.03 0.432-0.019 0.144-0.049 0.286-0.088 0.425-0.037 0.14-0.083 0.278-0.139 0.411s-0.122 0.263-0.196 0.387c-0.072 0.126-0.152 0.246-0.24 0.361-0.088 0.114-0.184 0.223-0.287 0.325-0.102 0.103-0.211 0.199-0.325 0.287-0.115 0.088-0.235 0.169-0.361 0.24-0.125 0.074-0.254 0.138-0.387 0.194-0.134 0.056-0.271 0.103-0.411 0.14-0.14 0.04-0.282 0.07-0.425 0.09s-0.287 0.03-0.432 0.029h-49.942c-0.145 0-0.289-0.011-0.433-0.03-0.143-0.019-0.285-0.049-0.424-0.089-0.14-0.036-0.278-0.082-0.411-0.138-0.134-0.056-0.263-0.122-0.387-0.196-0.126-0.071-0.246-0.152-0.361-0.24s-0.224-0.184-0.325-0.287c-0.103-0.102-0.199-0.211-0.288-0.325-0.088-0.115-0.168-0.235-0.24-0.361-0.073-0.125-0.138-0.254-0.194-0.387-0.055-0.134-0.102-0.271-0.14-0.411-0.04-0.139-0.069-0.281-0.089-0.425-0.021-0.143-0.03-0.288-0.03-0.432v-49.942c0.001-0.145 0.011-0.289 0.03-0.433 0.02-0.143 0.049-0.285 0.089-0.424 0.036-0.141 0.083-0.278 0.139-0.411s0.121-0.263 0.195-0.388c0.072-0.125 0.153-0.246 0.24-0.36 0.089-0.115 0.185-0.223 0.288-0.325 0.101-0.103 0.21-0.199 0.325-0.287 0.115-0.089 0.235-0.169 0.361-0.241 0.124-0.073 0.254-0.138 0.387-0.194 0.134-0.055 0.271-0.102 0.411-0.14 0.139-0.04 0.281-0.07 0.424-0.09 0.144-0.02 0.288-0.03 0.433-0.028h49.942c0.145 0 0.289 0.01 0.432 0.03 0.144 0.019 0.286 0.049 0.425 0.088 0.14 0.036 0.277 0.083 0.411 0.139 0.133 0.056 0.263 0.122 0.387 0.195 0.125 0.072 0.246 0.153 0.361 0.241 0.114 0.088 0.223 0.184 0.325 0.287 0.103 0.102 0.199 0.21 0.287 0.325 0.088 0.114 0.169 0.235 0.24 0.36 0.074 0.125 0.138 0.255 0.194 0.388 0.056 0.134 0.103 0.271 0.141 0.411 0.039 0.139 0.069 0.281 0.089 0.425 0.021 0.143 0.03 0.287 0.029 0.432v0.026z" stroke-miterlimit="22.926" stroke-width=".22260"/>
     <g id="g3793" transform="translate(.054)" stroke-width="1.0306">
      <path id="path3795" stroke-linejoin="bevel" d="m0 0v-0.027c-0.001-0.146-0.011-0.293-0.031-0.439-0.019-0.146-0.05-0.29-0.089-0.431-0.038-0.143-0.085-0.283-0.142-0.418s-0.123-0.267-0.198-0.393c-0.073-0.128-0.155-0.25-0.245-0.367-0.089-0.117-0.187-0.227-0.291-0.33-0.104-0.105-0.214-0.203-0.33-0.292-0.117-0.09-0.24-0.171-0.367-0.244-0.127-0.075-0.258-0.141-0.394-0.197-0.136-0.057-0.275-0.105-0.417-0.143-0.142-0.04-0.286-0.071-0.432-0.091-0.145-0.021-0.292-0.031-0.439-0.029h-49.943c-0.147 0-0.294 0.01-0.439 0.03-0.146 0.02-0.29 0.05-0.432 0.09-0.142 0.037-0.282 0.084-0.417 0.141-0.136 0.057-0.267 0.124-0.393 0.199-0.128 0.073-0.251 0.155-0.367 0.244-0.117 0.09-0.227 0.187-0.331 0.292-0.104 0.103-0.202 0.213-0.291 0.33-0.09 0.116-0.171 0.239-0.244 0.367-0.075 0.126-0.141 0.258-0.198 0.393-0.057 0.136-0.104 0.275-0.142 0.418-0.04 0.141-0.071 0.286-0.091 0.431-0.021 0.146-0.031 0.293-0.03 0.439v49.943c0.001 0.147 0.011 0.294 0.031 0.44 0.02 0.145 0.05 0.29 0.09 0.431 0.036 0.143 0.084 0.282 0.141 0.417 0.057 0.136 0.124 0.267 0.199 0.394 0.073 0.128 0.154 0.25 0.244 0.367 0.089 0.116 0.187 0.227 0.291 0.33 0.104 0.105 0.214 0.202 0.331 0.292 0.116 0.089 0.239 0.171 0.367 0.244 0.126 0.075 0.257 0.141 0.393 0.197 0.136 0.057 0.275 0.105 0.417 0.143 0.142 0.04 0.286 0.07 0.432 0.091 0.145 0.02 0.292 0.03 0.439 0.029h49.943c0.147 0 0.294-0.011 0.439-0.031 0.146-0.019 0.29-0.049 0.432-0.089 0.142-0.037 0.282-0.084 0.417-0.142 0.136-0.057 0.267-0.123 0.394-0.198 0.127-0.073 0.25-0.155 0.366-0.244 0.117-0.09 0.227-0.187 0.331-0.292 0.105-0.103 0.202-0.214 0.292-0.33 0.089-0.117 0.171-0.239 0.244-0.367 0.074-0.127 0.14-0.258 0.197-0.394 0.057-0.135 0.104-0.275 0.143-0.417 0.04-0.141 0.07-0.286 0.091-0.431 0.021-0.146 0.03-0.293 0.029-0.44v-49.916z" stroke="#000" stroke-miterlimit="22.926" stroke-width="1.9549" fill="#fff"/>
     </g>
    </g>
    <g id="g3785" fill="#039" transform="matrix(0 1.25 1.25 0 85.962 181.9)">
     <path id="path3787" d="m0 0v-0.008c0-0.042-0.003-0.084-0.009-0.125-0.005-0.042-0.014-0.083-0.025-0.123-0.011-0.041-0.024-0.081-0.041-0.12-0.016-0.038-0.035-0.076-0.056-0.112-0.021-0.037-0.044-0.072-0.07-0.105s-0.054-0.065-0.084-0.094c-0.029-0.03-0.061-0.058-0.094-0.084-0.033-0.025-0.068-0.048-0.105-0.069-0.036-0.022-0.073-0.04-0.112-0.056-0.039-0.017-0.079-0.03-0.119-0.041-0.041-0.012-0.082-0.021-0.124-0.027-0.041-0.005-0.083-0.008-0.125-0.008h-49.905c-0.042 0-0.084 0.003-0.125 0.009-0.042 0.005-0.083 0.014-0.124 0.026-0.041 0.01-0.08 0.024-0.119 0.04s-0.076 0.035-0.113 0.057c-0.036 0.021-0.071 0.044-0.104 0.07-0.034 0.025-0.065 0.053-0.095 0.083-0.029 0.029-0.057 0.061-0.083 0.094-0.025 0.033-0.049 0.068-0.07 0.105-0.021 0.036-0.04 0.074-0.056 0.112-0.017 0.039-0.03 0.079-0.041 0.12-0.011 0.04-0.02 0.081-0.026 0.123-0.006 0.041-0.008 0.083-0.008 0.125v49.905c0 0.042 0.003 0.084 0.009 0.126 0.006 0.041 0.014 0.083 0.025 0.123 0.011 0.041 0.024 0.081 0.041 0.119 0.016 0.039 0.035 0.077 0.056 0.113s0.045 0.071 0.07 0.104c0.026 0.034 0.054 0.065 0.083 0.095 0.03 0.03 0.061 0.058 0.095 0.083 0.033 0.026 0.068 0.049 0.104 0.07 0.037 0.021 0.074 0.04 0.113 0.057 0.039 0.016 0.078 0.029 0.119 0.04 0.041 0.012 0.082 0.02 0.124 0.026 0.041 0.006 0.083 0.009 0.125 0.009h49.905c0.042-0.001 0.084-0.004 0.125-0.01 0.042-0.005 0.083-0.013 0.124-0.025 0.04-0.011 0.08-0.024 0.119-0.04 0.039-0.017 0.076-0.036 0.112-0.057 0.037-0.021 0.072-0.044 0.105-0.07 0.033-0.025 0.065-0.053 0.094-0.083 0.03-0.03 0.058-0.061 0.084-0.095 0.026-0.033 0.049-0.068 0.07-0.104s0.04-0.074 0.056-0.113c0.016-0.038 0.03-0.078 0.041-0.119 0.011-0.04 0.02-0.082 0.026-0.123 0.006-0.042 0.009-0.084 0.008-0.126v-49.897" fill-rule="evenodd" fill="#039"/>
    </g>
    <g id="g3797" transform="matrix(0 1.25 1.25 0 112.67 153.33)">
     <path id="path3799" d="m0 0c0.208-0.541 0.425-1.078 0.651-1.612 0.223-0.53 0.472-1.049 0.746-1.555 0.388-0.701 0.828-1.372 1.316-2.006 0.494-0.643 1.017-1.262 1.568-1.857 0.538-0.61 1.119-1.182 1.738-1.711 0.614-0.526 1.304-0.955 2.048-1.274 0.138-0.06 0.275-0.122 0.411-0.186 0.135-0.062 0.263-0.138 0.381-0.228 0.055-0.042 0.106-0.087 0.156-0.134 0.049-0.048 0.098-0.097 0.144-0.148 0.072-0.075 0.14-0.154 0.205-0.235 0.065-0.08 0.123-0.166 0.175-0.255 0.048-0.081 0.089-0.166 0.124-0.253 0.034-0.088 0.063-0.179 0.085-0.27 0.023-0.092 0.041-0.185 0.052-0.279 0.011-0.093 0.016-0.187 0.014-0.281-0.001-0.095-0.008-0.189-0.022-0.282s-0.033-0.186-0.059-0.276c-0.034-0.125-0.076-0.247-0.127-0.366-0.051-0.118-0.108-0.235-0.169-0.348-0.066-0.124-0.137-0.246-0.212-0.364s-0.155-0.233-0.239-0.345c-0.127-0.17-0.264-0.332-0.409-0.486-0.146-0.155-0.297-0.304-0.453-0.447-0.258-0.242-0.528-0.471-0.81-0.685-0.281-0.213-0.577-0.407-0.884-0.58-0.306-0.179-0.625-0.334-0.954-0.465-0.328-0.131-0.666-0.238-1.01-0.319-0.303-0.074-0.609-0.133-0.917-0.175-0.309-0.042-0.62-0.076-0.93-0.102-0.303-0.028-0.606-0.048-0.909-0.061-0.302-0.012-0.605-0.009-0.907 0.01-0.429 0.026-0.854 0.086-1.272 0.181-0.42 0.096-0.834 0.218-1.238 0.366-0.355 0.123-0.704 0.264-1.045 0.423-0.34 0.158-0.672 0.334-0.994 0.527-0.406 0.239-0.795 0.505-1.166 0.797-0.37 0.291-0.721 0.609-1.048 0.949-0.331 0.335-0.639 0.693-0.921 1.071-0.282 0.377-0.538 0.774-0.765 1.187-0.233 0.41-0.438 0.836-0.612 1.274-0.175 0.438-0.32 0.887-0.433 1.345-0.119 0.456-0.206 0.92-0.262 1.388-0.055 0.468-0.078 0.94-0.069 1.411 0.003 0.472 0.038 0.942 0.106 1.409s0.167 0.928 0.298 1.381c0.125 0.454 0.282 0.899 0.468 1.332 0.186 0.434 0.402 0.854 0.645 1.258 0.238 0.408 0.504 0.799 0.796 1.17 0.291 0.37 0.608 0.719 0.95 1.044 0.08 0.078 0.16 0.155 0.242 0.23 0.082 0.076 0.164 0.151 0.247 0.226l-0.02 0.02c-0.007 0.006-0.014 0.013-0.02 0.019-0.169 0.165-0.324 0.343-0.464 0.533-0.141 0.189-0.268 0.389-0.38 0.597-0.116 0.205-0.218 0.417-0.305 0.636s-0.16 0.444-0.217 0.673c-0.061 0.228-0.107 0.46-0.136 0.695-0.029 0.234-0.039 0.469-0.03 0.704 0.007 0.216 0.028 0.431 0.061 0.645s0.071 0.427 0.114 0.64c-0.573 0.089-1.147 0.169-1.722 0.24-0.571 0.071-1.145 0.115-1.721 0.13-0.801 0.015-1.601-0.031-2.395-0.137-0.803-0.106-1.602-0.25-2.392-0.429-0.798-0.161-1.583-0.378-2.351-0.649-0.762-0.269-1.479-0.653-2.126-1.137-0.122-0.089-0.244-0.177-0.367-0.264-0.122-0.085-0.252-0.158-0.389-0.216-0.063-0.026-0.127-0.048-0.193-0.067-0.067-0.019-0.134-0.036-0.201-0.051-0.101-0.025-0.203-0.045-0.305-0.061-0.103-0.015-0.206-0.023-0.309-0.023-0.094-0.001-0.188 0.006-0.281 0.02-0.094 0.014-0.186 0.034-0.277 0.061-0.091 0.025-0.18 0.056-0.267 0.094-0.086 0.037-0.17 0.079-0.251 0.128-0.081 0.048-0.159 0.102-0.233 0.16-0.074 0.059-0.144 0.122-0.21 0.189-0.091 0.092-0.175 0.19-0.252 0.293-0.078 0.104-0.15 0.211-0.217 0.321-0.075 0.119-0.145 0.241-0.21 0.365s-0.125 0.251-0.179 0.38c-0.083 0.195-0.155 0.394-0.216 0.597-0.061 0.204-0.115 0.409-0.161 0.617-0.081 0.344-0.143 0.692-0.188 1.043-0.044 0.35-0.064 0.703-0.061 1.056-0.001 0.354 0.024 0.708 0.075 1.058 0.05 0.35 0.127 0.696 0.229 1.034 0.086 0.3 0.189 0.594 0.307 0.882 0.118 0.289 0.243 0.574 0.377 0.856 0.126 0.277 0.26 0.549 0.401 0.818 0.141 0.268 0.295 0.529 0.463 0.781 0.236 0.358 0.501 0.696 0.792 1.011 0.292 0.316 0.605 0.613 0.935 0.889 0.285 0.246 0.582 0.477 0.89 0.694 0.307 0.215 0.625 0.414 0.953 0.596 0.41 0.233 0.835 0.437 1.273 0.612s0.887 0.32 1.346 0.433c0.456 0.119 0.919 0.207 1.388 0.262 0.468 0.056 0.939 0.079 1.411 0.069 0.471-0.003 0.942-0.039 1.409-0.106 0.466-0.068 0.928-0.168 1.381-0.299 0.454-0.124 0.9-0.281 1.333-0.466 0.433-0.187 0.853-0.402 1.257-0.646 0.407-0.239 0.797-0.505 1.167-0.797 0.37-0.291 0.72-0.609 1.046-0.949 0.332-0.335 0.639-0.693 0.921-1.07 0.282-0.379 0.538-0.775 0.766-1.188 0.234-0.41 0.44-0.836 0.615-1.274 0.176-0.437 0.319-0.887 0.43-1.345 0.027-0.108 0.053-0.216 0.078-0.325s0.049-0.217 0.072-0.326l0.027 0.007 0.027 0.007c0.216 0.055 0.436 0.094 0.659 0.116s0.447 0.039 0.67 0.05h0.036 0.035c0.236-0.002 0.471-0.02 0.704-0.053 0.234-0.033 0.464-0.083 0.691-0.15 0.227-0.061 0.45-0.139 0.666-0.232 0.217-0.094 0.427-0.202 0.629-0.324 0.204-0.119 0.4-0.251 0.587-0.396 0.185-0.145 0.359-0.304 0.52-0.477 0.03-0.031 0.06-0.063 0.09-0.095 0.029-0.033 0.058-0.065 0.088-0.098 0.356 0.445 0.705 0.894 1.047 1.349 0.341 0.453 0.66 0.92 0.956 1.402 0.412 0.686 0.773 1.403 1.079 2.143 0.309 0.749 0.584 1.512 0.824 2.286 0.259 0.772 0.464 1.56 0.613 2.36 0.148 0.795 0.175 1.608 0.079 2.411-0.017 0.149-0.032 0.299-0.045 0.449-0.013 0.148-0.011 0.297 0.007 0.445 0.009 0.067 0.022 0.135 0.038 0.201 0.017 0.067 0.036 0.133 0.056 0.199 0.03 0.1 0.064 0.199 0.101 0.295 0.038 0.096 0.082 0.19 0.134 0.279 0.046 0.082 0.099 0.16 0.158 0.234s0.122 0.144 0.191 0.209c0.067 0.066 0.139 0.127 0.215 0.184 0.075 0.056 0.154 0.108 0.237 0.153 0.082 0.046 0.167 0.087 0.255 0.122 0.087 0.035 0.177 0.064 0.268 0.087 0.125 0.033 0.252 0.057 0.38 0.072 0.128 0.016 0.257 0.025 0.387 0.028 0.14 0.005 0.28 0.005 0.421-0.001 0.139-0.006 0.279-0.018 0.418-0.035 0.211-0.025 0.419-0.063 0.625-0.111 0.207-0.049 0.412-0.105 0.614-0.169 0.339-0.102 0.672-0.222 0.998-0.359 0.325-0.137 0.641-0.296 0.945-0.475 0.307-0.176 0.601-0.374 0.879-0.594 0.278-0.219 0.539-0.458 0.782-0.715 0.215-0.225 0.419-0.461 0.61-0.707 0.191-0.247 0.375-0.498 0.553-0.755 0.175-0.247 0.344-0.5 0.507-0.756 0.162-0.256 0.31-0.52 0.445-0.791 0.192-0.383 0.352-0.782 0.479-1.192 0.128-0.411 0.229-0.83 0.303-1.255 0.07-0.369 0.122-0.742 0.156-1.116 0.033-0.374 0.046-0.749 0.039-1.124-0.003-0.472-0.039-0.942-0.106-1.408-0.067-0.467-0.167-0.929-0.298-1.382-0.124-0.455-0.28-0.901-0.467-1.334-0.186-0.433-0.402-0.853-0.646-1.256-0.238-0.407-0.504-0.797-0.796-1.167s-0.609-0.72-0.949-1.047c-0.336-0.331-0.693-0.639-1.071-0.921s-0.775-0.538-1.188-0.766c-0.41-0.233-0.835-0.438-1.273-0.613-0.438-0.174-0.887-0.319-1.345-0.431-0.456-0.119-0.919-0.206-1.387-0.261-0.469-0.055-0.941-0.079-1.412-0.071-0.473 0.002-0.944 0.036-1.412 0.103-0.466 0.066-0.927 0.167-1.378 0.302-0.156 0.044-0.311 0.092-0.465 0.143s-0.307 0.103-0.46 0.156c-0.074-0.194-0.152-0.387-0.233-0.578-0.081-0.19-0.172-0.376-0.273-0.557-0.117-0.204-0.249-0.399-0.396-0.582-0.148-0.185-0.307-0.36-0.477-0.525-0.168-0.166-0.347-0.322-0.535-0.465-0.188-0.142-0.387-0.268-0.595-0.378-0.189-0.102-0.385-0.191-0.585-0.269-0.202-0.078-0.405-0.151-0.61-0.221" fill-rule="evenodd" fill="#fff"/>
    </g>
   </g>
  </g>
 </g>
</svg>
