<?xml version="1.0" encoding="UTF-8" standalone="no"?>
<!-- Created with Inkscape (http://www.inkscape.org/) -->
<svg id="svg2" xmlns:rdf="http://www.w3.org/1999/02/22-rdf-syntax-ns#" xmlns="http://www.w3.org/2000/svg" height="60" width="60" version="1.1" xmlns:cc="http://creativecommons.org/ns#" xmlns:dc="http://purl.org/dc/elements/1.1/">
 <metadata id="metadata7">
  <rdf:RDF>
   <cc:Work rdf:about="">
    <dc:format>image/svg+xml</dc:format>
    <dc:type rdf:resource="http://purl.org/dc/dcmitype/StillImage"/>
    <dc:title/>
   </cc:Work>
  </rdf:RDF>
 </metadata>
 <g id="layer23" transform="translate(0,-60)">
  <g id="g3030" transform="matrix(.97035 0 0 .97035 -28.221 31.779)">
   <g id="layer1-4" transform="translate(-500 -429.5)">
    <g id="g2835">
     <path id="path20656" stroke-linejoin="bevel" d="m534.1 519.33h51.833c0.16975-0.00084 0.33949-0.0127 0.50713-0.0358 0.16869-0.0222 0.33527-0.0569 0.49869-0.10332 0.16448-0.0422 0.32473-0.097 0.48183-0.16342 0.15603-0.0654 0.30891-0.14233 0.45441-0.22878 0.1476-0.0843 0.28888-0.17818 0.42278-0.2815 0.13495-0.10438 0.26252-0.21614 0.38166-0.33738 0.12125-0.11914 0.23406-0.24671 0.33738-0.38167 0.10333-0.13389 0.19716-0.27517 0.28256-0.42277 0.0854-0.14655 0.16131-0.29838 0.22668-0.45547 0.0654-0.15604 0.12019-0.31735 0.16447-0.48076 0.0464-0.16448 0.0811-0.33106 0.10543-0.49869 0.0232-0.16869 0.0348-0.33738 0.0337-0.50713v-51.864c-0.00084-0.16975-0.0127-0.33949-0.0358-0.50818-0.0222-0.16764-0.0569-0.33422-0.10333-0.49764-0.0422-0.16447-0.097-0.32578-0.16342-0.48182-0.0654-0.15709-0.14128-0.30891-0.22773-0.45546-0.0854-0.14655-0.17923-0.28783-0.28256-0.42278-0.10437-0.13495-0.21613-0.26147-0.33738-0.38061-0.11914-0.12124-0.24671-0.23405-0.38166-0.33738-0.1339-0.10437-0.27518-0.19821-0.42278-0.28255-0.14655-0.0865-0.29838-0.16131-0.45441-0.22773-0.1571-0.0654-0.31841-0.1202-0.48183-0.16342-0.16447-0.0464-0.33-0.0822-0.49869-0.10649-0.16764-0.0232-0.33738-0.0347-0.50713-0.0337h-51.864c-0.16974 0.00085-0.33949 0.0137-0.50818 0.0358-0.16764 0.0232-0.33422 0.058-0.49764 0.10438-0.16447 0.0422-0.32578 0.0959-0.48182 0.16236-0.15709 0.0654-0.30892 0.14233-0.45441 0.22879-0.14761 0.0843-0.28888 0.17923-0.42384 0.28255-0.1339 0.10333-0.26147 0.21614-0.38166 0.33738-0.12019 0.11914-0.233 0.24566-0.33633 0.38061-0.10332 0.13495-0.19821 0.27623-0.28256 0.42278-0.0854 0.14655-0.16236 0.29837-0.22667 0.45546-0.0665 0.15709-0.12125 0.31735-0.16553 0.48182-0.0454 0.16342-0.0812 0.33-0.10438 0.49869-0.0243 0.16764-0.0359 0.33738-0.0348 0.50713v51.864c0.003 0.16975 0.0137 0.33844 0.0358 0.50713 0.0232 0.16869 0.058 0.33421 0.10333 0.49869 0.0432 0.16341 0.098 0.32472 0.16342 0.48182 0.0654 0.15603 0.14233 0.30786 0.22878 0.45441 0.0854 0.14654 0.17924 0.28888 0.28256 0.42277 0.10332 0.13496 0.21613 0.26253 0.33633 0.38167 0.12019 0.12124 0.24671 0.233 0.38166 0.33738 0.13495 0.10332 0.27623 0.19715 0.42384 0.2815 0.14549 0.0865 0.29731 0.16236 0.45441 0.22773 0.15604 0.0654 0.31735 0.12019 0.48182 0.16447 0.16342 0.0464 0.33 0.0811 0.49869 0.10543 0.16764 0.0232 0.33738 0.0348 0.50713 0.0337h0.0305z" stroke="#231f20" stroke-miterlimit="22.926" stroke-width=".23469" fill="none"/>
     <path id="path20660" stroke-linejoin="bevel" d="m534.1 519.39h-0.0158-0.0159c-0.17186-0.00084-0.34371-0.0127-0.51451-0.0359s-0.33949-0.059-0.50607-0.10543c-0.16658-0.0432-0.32895-0.098-0.48815-0.16553-0.1592-0.0664-0.31313-0.14444-0.46074-0.23195-0.14971-0.0865-0.2931-0.18134-0.43016-0.28677-0.13601-0.10543-0.26569-0.2193-0.38693-0.3416-0.12231-0.12124-0.23617-0.24987-0.3416-0.38693-0.10544-0.136-0.20032-0.28045-0.28572-0.4291-0.0875-0.14866-0.16448-0.30259-0.2309-0.46179-0.0665-0.1592-0.1223-0.32262-0.16764-0.48815-0.0464-0.16658-0.0822-0.33527-0.10648-0.50607-0.0242-0.1708-0.0358-0.34265-0.0337-0.5145v-0.0159l-0.00084-0.0158v-51.802l0.00084-0.0159v-0.0159c0-0.1729 0.0127-0.34476 0.0358-0.5145 0.0232-0.1708 0.058-0.33949 0.10437-0.50607 0.0432-0.16658 0.0991-0.33 0.16553-0.48815 0.0675-0.1592 0.14444-0.31313 0.23301-0.46179 0.0854-0.14971 0.18134-0.2931 0.28572-0.4291 0.10543-0.13706 0.21929-0.26569 0.3416-0.38694 0.12124-0.1223 0.25092-0.23722 0.38693-0.34265 0.13706-0.10437 0.28045-0.20032 0.43016-0.28572 0.14761-0.0875 0.30259-0.16447 0.46074-0.23089 0.1592-0.0665 0.32262-0.1223 0.48815-0.16658 0.16658-0.0475 0.33527-0.0822 0.50607-0.10649 0.1708-0.0243 0.34265-0.0358 0.51451-0.0348h51.866c0.17185 0.00085 0.34371 0.0138 0.51345 0.0369 0.1708 0.0222 0.34055 0.0569 0.50607 0.10438 0.16659 0.0432 0.33 0.0981 0.48921 0.16553 0.15814 0.0665 0.31207 0.14444 0.46073 0.23194 0.14972 0.0854 0.2931 0.18135 0.42911 0.28678 0.13706 0.10543 0.26569 0.21929 0.38799 0.34159 0.1223 0.12125 0.23617 0.24988 0.3416 0.38694 0.10438 0.136 0.20032 0.27939 0.28572 0.4291 0.0875 0.14866 0.16447 0.30259 0.23089 0.46179 0.0665 0.15815 0.12231 0.32157 0.16659 0.48815 0.0474 0.16658 0.0832 0.33527 0.10648 0.50607 0.0242 0.16974 0.0358 0.34265 0.0348 0.5145v51.865c-0.00084 0.17185-0.0127 0.34371-0.0358 0.51451-0.0232 0.17079-0.058 0.33948-0.10544 0.50607-0.0432 0.16658-0.0981 0.33-0.16552 0.4892-0.0665 0.15814-0.14444 0.31207-0.23195 0.46073-0.0854 0.14866-0.18135 0.29205-0.28678 0.42911-0.10437 0.13706-0.2193 0.26568-0.34054 0.38693-0.1223 0.1223-0.25093 0.23722-0.38799 0.3416-0.13601 0.10543-0.2794 0.20137-0.42911 0.28677-0.14866 0.0865-0.30259 0.16447-0.46074 0.23089-0.1592 0.0665-0.32262 0.12125-0.4892 0.16659-0.16553 0.0464-0.33527 0.0822-0.50607 0.10648-0.16975 0.0242-0.34266 0.0358-0.51345 0.0348h-0.0159-0.0158-51.803z" fill-rule="evenodd" stroke="#000" stroke-miterlimit="22.926" stroke-width="2.0611" fill="#fff"/>
     <path id="path20664" d="m534.46 517.5h51.088 0.0187c0.10605-0.00083 0.21211-0.008 0.31712-0.0229 0.10605-0.0135 0.21003-0.0353 0.31193-0.0645 0.10294-0.0259 0.20379-0.0603 0.30153-0.1019 0.0977-0.0406 0.19236-0.0895 0.28386-0.14349 0.0925-0.052 0.18092-0.11125 0.26514-0.17676 0.0842-0.0645 0.16324-0.13413 0.23811-0.21003 0.0759-0.0748 0.1466-0.15389 0.21107-0.23811 0.0645-0.0842 0.12373-0.17259 0.17572-0.26514 0.054-0.0915 0.1019-0.18611 0.14245-0.28385 0.0416-0.0977 0.0759-0.1986 0.10293-0.30154 0.0291-0.10189 0.051-0.20691 0.0656-0.31192 0.0157-0.10502 0.0229-0.21108 0.0219-0.31713v-51.126c-0.00082-0.10605-0.008-0.21211-0.0229-0.31712-0.0135-0.10502-0.0353-0.209-0.0645-0.31194-0.027-0.10189-0.0603-0.20275-0.1019-0.30049-0.0416-0.0977-0.0894-0.19339-0.14349-0.28385-0.052-0.0925-0.11125-0.18092-0.17572-0.26514-0.0645-0.0842-0.13517-0.16428-0.21108-0.23914-0.0748-0.0749-0.15388-0.14558-0.2381-0.21004-0.0842-0.0645-0.1726-0.12373-0.26514-0.17676-0.0915-0.054-0.18612-0.10086-0.28386-0.14245-0.0988-0.0405-0.19859-0.0748-0.30153-0.10294-0.10189-0.028-0.20691-0.051-0.31192-0.0656-0.10502-0.0146-0.21108-0.0219-0.31713-0.0208h-51.126c-0.10606 0-0.21211 0.008-0.31713 0.0219-0.10501 0.0146-0.209 0.0364-0.31089 0.0645-0.10294 0.027-0.20379 0.0614-0.30153 0.10294-0.0977 0.0406-0.19339 0.0884-0.28489 0.14245-0.0915 0.053-0.17988 0.1123-0.26411 0.17676-0.0842 0.0645-0.16428 0.13518-0.2381 0.21004-0.0758 0.0748-0.14661 0.15492-0.21108 0.23914-0.0656 0.0842-0.12373 0.1726-0.17676 0.26514-0.054 0.0904-0.10085 0.18612-0.14244 0.28385-0.0405 0.0977-0.0748 0.1986-0.10294 0.30049-0.0291 0.10294-0.0509 0.20692-0.0656 0.31194-0.0146 0.10501-0.0219 0.21107-0.0208 0.31712v0.0198 51.088 0.0187c0 0.10605 0.008 0.21211 0.0219 0.31712 0.0146 0.10502 0.0365 0.21003 0.0645 0.31193 0.027 0.10293 0.0614 0.20379 0.10294 0.30153 0.0406 0.0977 0.0884 0.19235 0.14244 0.28385 0.053 0.0925 0.1123 0.18092 0.17676 0.26514 0.0645 0.0842 0.13518 0.16325 0.21108 0.23811 0.0739 0.0759 0.15388 0.14556 0.2381 0.21108 0.0842 0.0645 0.17261 0.12373 0.26411 0.17572 0.0915 0.054 0.18715 0.10189 0.28489 0.14244 0.0977 0.0416 0.19859 0.0758 0.30153 0.10293 0.10189 0.0291 0.20588 0.0509 0.31193 0.0666 0.10398 0.0146 0.21107 0.0219 0.31609 0.0208h0.0197z" fill-rule="evenodd" fill="#e72512"/>
     <path id="path20668" d="m573.89 509.43-33.811-33.811v33.811h33.811" fill-rule="evenodd" fill="#fff"/>
     <path id="path20672" d="m578.84 504.36v-33.81h-33.81l33.81 33.81" fill-rule="evenodd" fill="#fff"/>
     <path id="path20676" d="m540.56 501.31 1.4613 2.0148c0.31103 0.0305 0.62205 0.0537 0.93413 0.0707 0.30892 0.0169 0.61994 0.0137 0.92885-0.0105 0.3532-0.0316 0.70323-0.0928 1.0469-0.18239 0.34582-0.0896 0.68742-0.19716 1.0227-0.32051 0.69058-0.24777 1.3653-0.53665 2.0211-0.86665 0.65473-0.33 1.2958-0.68636 1.921-1.0691 0.53243-0.32473 1.0659-0.6484 1.6004-0.96997 0.53138-0.31946 1.0828-0.60518 1.65-0.85505 0.50396-0.22667 1.0258-0.41118 1.5604-0.5514 0.54403-0.14339 1.0975-0.2446 1.6574-0.30259 0.64735-0.0832 1.3021-0.0949 1.9515-0.0347 0.63575 0.0559 1.2546 0.22668 1.8282 0.50607 0.27517 0.12546 0.53875 0.27412 0.78968 0.44176 0.25515 0.1708 0.50502 0.34687 0.74962 0.53032 0.72115-0.10544 1.4402-0.2193 2.1582-0.3416 0.71694-0.1223 1.4286-0.27096 2.1339-0.44598 0.78758-0.19926 1.5625-0.4407 2.3227-0.72536 0.76227-0.28467 1.5077-0.61256 2.232-0.98157 0.67477-0.33316 1.3295-0.70639 1.9589-1.1176 0.62942-0.41118 1.2262-0.86981 1.785-1.3717 0.27517-0.23933 0.53981-0.49131 0.79179-0.75594 0.25304-0.26253 0.49026-0.53981 0.71166-0.82975 0.29627-0.38482 0.56617-0.79073 0.80761-1.2135 0.24144-0.42383 0.46285-0.85821 0.66317-1.3031 0.18767-0.40802 0.36374-0.82026 0.53032-1.2378 0.16553-0.41646 0.32684-0.83397 0.48604-1.2525-0.57249 0.33633-1.146 0.66949-1.7217 0.99949-0.57566 0.33105-1.1566 0.65051-1.7438 0.96048-0.76333 0.40275-1.5382 0.7823-2.3237 1.1408-0.78547 0.35846-1.5804 0.69795-2.3828 1.0174-0.42173 0.16974-0.84556 0.33527-1.2715 0.49763-0.42489 0.16237-0.85083 0.32262-1.2778 0.48288l-26.983 8.0771" fill-rule="evenodd"/>
     <path id="path20680" d="m577.93 487.55-17.812-0.19505-5.201-4.6379-0.28572-0.23089-0.28994-0.23406c-0.1107-0.0917-0.22457-0.17923-0.34265-0.26252-0.11492-0.0811-0.24039-0.14866-0.37112-0.19822-0.13601-0.0527-0.27834-0.0865-0.42384-0.10121-0.14866-0.0159-0.29837-0.0253-0.44808-0.0284l-5.2558-0.46496c-0.14655-0.0295-0.2931-0.0517-0.44176-0.0686-0.14866-0.0159-0.30048-0.0116-0.44808 0.0127-0.11703 0.019-0.22984 0.0559-0.33633 0.10754-0.10227 0.0485-0.19294 0.12125-0.26253 0.21087-0.0443 0.0548-0.0801 0.11702-0.10754 0.18239-0.0285 0.0675-0.0548 0.13601-0.077 0.20454l-1.0469 6.0623c-0.0316 0.14444-0.0623 0.28888-0.0896 0.43437-0.0285 0.14761-0.0485 0.29627-0.0622 0.44598-0.0169 0.18239-0.0148 0.3669 0.008 0.54824 0.0211 0.17713 0.077 0.34792 0.16658 0.50291 0.0717 0.12968 0.16448 0.2446 0.27623 0.3416 0.11281 0.10016 0.23722 0.18661 0.36901 0.2583 0.28256 0.15393 0.5841 0.26569 0.89723 0.33422 0.31208 0.0685 0.62521 0.13706 0.93834 0.20454 0.39432 0.0907 0.78231 0.20875 1.1608 0.35319 0.3785 0.14444 0.75172 0.30048 1.1207 0.46812 0.16025 0.0706 0.32051 0.14233 0.48076 0.21508 0.15921 0.0727 0.31841 0.14444 0.47867 0.21824l0.33211 1.1207-7.414 2.0601c-0.11176 0.019-0.22351 0.0401-0.33316 0.0654-0.11282 0.0253-0.22352 0.059-0.33 0.10121-0.17818 0.0696-0.34266 0.16869-0.48815 0.29205-0.14023 0.11702-0.25093 0.26674-0.31841 0.43543-0.0601 0.14338-0.0907 0.29626-0.0886 0.45124 0.00084 0.16342 0.0116 0.32684 0.0326 0.49026-0.10649 0.004-0.21192 0.0137-0.31735 0.0284-0.10227 0.0138-0.20243 0.0433-0.29626 0.0854-0.1455 0.0738-0.26991 0.1824-0.36374 0.31524-0.098 0.13495-0.16869 0.28783-0.2077 0.45019-0.0337 0.12863-0.0506 0.26042-0.0496 0.39326 0.00085 0.13179 0.008 0.26358 0.0222 0.39537l0.7823 1.4771 25.461-7.8114c0.40486-0.13706 0.80867-0.27623 1.2125-0.41646 0.4038-0.14022 0.8055-0.28466 1.2061-0.43332 0.93518-0.34792 1.8588-0.72642 2.7697-1.1344 0.91093-0.40907 1.8071-0.84767 2.6885-1.3168 0.52505-0.27517 1.0448-0.55878 1.5614-0.84977 0.51662-0.29205 1.0301-0.5862 1.5435-0.88246" fill-rule="evenodd"/>
     <path id="path20684" d="m553.72 492.52 7.7092-2.0928-6.6253-6.5884-1.1808 1.8672c-0.0506 0.0886-0.10543 0.17291-0.16553 0.25515-0.0558 0.078-0.12652 0.14444-0.2077 0.1961-0.077 0.0453-0.16236 0.0749-0.25093 0.0886-0.0907 0.0148-0.18345 0.0179-0.27517 0.008-0.0612-0.005-0.12231-0.0138-0.1824-0.0274-0.059-0.0127-0.11809-0.0263-0.17713-0.0422l-3.1071-1.1661-0.50186 3.047c0 0.0506 0.002 0.10121 0.006 0.15182 0.003 0.0495 0.0116 0.10016 0.0253 0.14865 0.0169 0.0559 0.0411 0.11071 0.0727 0.16026 0.0305 0.0485 0.0707 0.0917 0.11703 0.12546 0.0506 0.0391 0.10964 0.0675 0.17185 0.0854 0.0643 0.018 0.12968 0.0327 0.1961 0.0433l2.9416 1.01c0.078 0.0347 0.15498 0.0707 0.2309 0.10754 0.077 0.038 0.15287 0.078 0.22562 0.12336 0.0865 0.0527 0.16764 0.11281 0.24144 0.18134 0.0738 0.0665 0.13706 0.14339 0.18767 0.22879 0.038 0.0643 0.0696 0.13178 0.0938 0.20242 0.0242 0.0707 0.0474 0.14339 0.0675 0.21719l0.38693 1.669" fill-rule="evenodd" fill="#e72512"/>
     <path id="path20688" d="m549.73 482.74-0.16132 0.72853 2.678 1.3274c0.0412 0.0138 0.0822 0.0274 0.12336 0.039 0.0432 0.0127 0.0865 0.0232 0.13073 0.0295 0.0401 0.008 0.0811 0.009 0.12125 0.008 0.038-0.00085 0.0759-0.0116 0.10859-0.0295 0.0305-0.0169 0.0569-0.0401 0.077-0.0685 0.0222-0.0295 0.0432-0.0611 0.0623-0.0928l0.94888-1.3833c0.008-0.0601 0.0116-0.12125 0.0106-0.18134 0-0.0569-0.0127-0.11387-0.038-0.16447-0.0232-0.0443-0.0559-0.0833-0.0959-0.11387-0.0401-0.0316-0.0854-0.0548-0.13495-0.0707-0.0401-0.0127-0.0822-0.0201-0.12441-0.0222-0.0433-0.002-0.0854-0.002-0.12863 0l-3.5773-0.005" fill-rule="evenodd" fill="#e72512"/>
     <path id="path20692" d="m540.31 506.49c0.37428 0.13496 0.75173 0.26042 1.1313 0.37639 0.3764 0.11492 0.76122 0.19821 1.1503 0.25093 0.40485 0.0485 0.81182 0.058 1.2177 0.0295 0.41013-0.0284 0.81815-0.0811 1.222-0.1592 0.62521-0.11281 1.242-0.2678 1.8461-0.4639 0.60201-0.19505 1.1924-0.42489 1.7681-0.68846 0.45019-0.19927 0.89301-0.41751 1.3253-0.65368 0.43227-0.23722 0.85505-0.49236 1.2652-0.76648 0.38904-0.26042 0.77492-0.52611 1.1576-0.79601 0.38166-0.2699 0.77492-0.52083 1.1798-0.75278 0.48815-0.28361 1.0027-0.51872 1.5372-0.69901 0.54508-0.1845 1.1091-0.3068 1.6806-0.36584 0.43332-0.0591 0.87298-0.0686 1.3084-0.0284 0.42173 0.0369 0.83291 0.15604 1.2093 0.35109 0.27412 0.13917 0.52927 0.31313 0.75806 0.51766 0.23405 0.20876 0.45757 0.42806 0.67054 0.6579 0.15499 0.16236 0.30892 0.32578 0.46285 0.4892 0.15182 0.16236 0.30364 0.32473 0.45441 0.48814 0.39748-0.20559 0.80023-0.40064 1.2072-0.58619 0.40486-0.18451 0.82343-0.33949 1.2504-0.4639 0.33844-0.0959 0.6832-0.16447 1.0322-0.20665 0.34898-0.0422 0.70007-0.0537 1.0512-0.0348 0.33422 0.0148 0.66527 0.0569 0.99211 0.12547 0.32684 0.0675 0.64841 0.15814 0.96259 0.2699 0.41751 0.14866 0.8287 0.31524 1.2325 0.5008 0.40275 0.18556 0.81077 0.35846 1.2241 0.51977 0.48499 0.18978 0.98474 0.33949 1.494 0.44703 0.51345 0.1086 1.0353 0.17186 1.5593 0.18767 0.5746 0.0305 1.1513-0.00084 1.7185-0.0949 0.563-0.0917 1.1112-0.2583 1.631-0.49447 0.18134-0.078 0.36057-0.16342 0.53559-0.25514 0.17502-0.0928 0.34898-0.18662 0.52189-0.28361v-2.1202c-0.28045 0.17502-0.56406 0.34476-0.85084 0.50818-0.28677 0.16342-0.58304 0.30997-0.88668 0.43649-0.40907 0.16763-0.83502 0.29099-1.2704 0.36901-0.43544 0.079-0.87825 0.10965-1.3211 0.0917-0.42384-0.01-0.84557-0.0601-1.2599-0.15076-0.4133-0.0907-0.82026-0.21298-1.2156-0.3648-0.42278-0.16131-0.83924-0.33632-1.2504-0.52504-0.41013-0.18767-0.8287-0.35847-1.2525-0.5124-0.40064-0.14655-0.81288-0.26252-1.2304-0.34687-0.41962-0.0854-0.84556-0.13601-1.2736-0.15077-0.44176-0.0232-0.88562-0.008-1.3253 0.0443-0.43859 0.0517-0.87297 0.13811-1.2979 0.25936-0.27307 0.0749-0.54403 0.1592-0.81077 0.25409-0.2678 0.0949-0.53349 0.19293-0.79812 0.2952-0.0832-0.0864-0.16658-0.1708-0.25093-0.2562-0.0833-0.0854-0.16869-0.16869-0.25514-0.25092-0.20981-0.20138-0.43122-0.3901-0.66422-0.56406-0.2309-0.17396-0.47655-0.32684-0.73486-0.45652-0.53665-0.27517-1.1197-0.44913-1.7196-0.5145-0.61255-0.0686-1.2304-0.0623-1.8419 0.019-0.69374 0.0696-1.378 0.21613-2.0401 0.43859-0.65157 0.2193-1.2778 0.50713-1.8683 0.86032-0.41856 0.24249-0.82553 0.50291-1.222 0.7823-0.39642 0.27834-0.79706 0.55246-1.2019 0.82026-0.37007 0.24249-0.74962 0.47127-1.1376 0.68424-0.38799 0.21192-0.78441 0.41013-1.1872 0.59042-0.50819 0.23511-1.029 0.43965-1.5614 0.61466-0.53454 0.17502-1.0807 0.31208-1.6342 0.41013-0.31103 0.0611-0.62627 0.10543-0.94256 0.12968-0.31313 0.0243-0.62732 0.0201-0.93835-0.0148-0.43543-0.0496-0.86243-0.14971-1.2736-0.29942-0.41962-0.15182-0.83291-0.32051-1.2399-0.50396v2.0053" fill-rule="evenodd"/>
     <path id="path20696" d="m549.96 478.43c0 0.097-0.008 0.19294-0.0222 0.28888-0.0148 0.0959-0.038 0.18978-0.0685 0.28045-0.0285 0.0928-0.0654 0.18134-0.10965 0.26779-0.0433 0.0854-0.0938 0.16764-0.15182 0.24566-0.0569 0.079-0.11914 0.15287-0.18767 0.2214-0.0686 0.0686-0.14233 0.13074-0.2214 0.18767-0.078 0.0569-0.16026 0.10754-0.24566 0.15182-0.0865 0.0443-0.17502 0.0811-0.2678 0.10965-0.0907 0.0305-0.18556 0.0537-0.28045 0.0696-0.0959 0.0148-0.19188 0.0222-0.28888 0.0211-0.097 0.00084-0.19294-0.006-0.28888-0.0211-0.0949-0.0159-0.18978-0.039-0.2815-0.0696-0.0917-0.0284-0.18029-0.0654-0.26675-0.10965-0.0854-0.0443-0.16763-0.0949-0.24565-0.15182-0.079-0.0569-0.15288-0.11914-0.22141-0.18767-0.0686-0.0686-0.13074-0.14338-0.18767-0.2214-0.0569-0.078-0.10859-0.16026-0.15182-0.24566-0.0443-0.0865-0.0812-0.17501-0.10965-0.26779-0.0316-0.0907-0.0538-0.18556-0.0696-0.28045-0.0148-0.0959-0.0222-0.19189-0.0211-0.28888-0.00084-0.097 0.007-0.19294 0.0211-0.28888 0.0158-0.096 0.038-0.18978 0.0696-0.28151 0.0284-0.0917 0.0654-0.18134 0.10965-0.26674 0.0432-0.0854 0.0949-0.16763 0.15182-0.24565 0.0569-0.079 0.11914-0.15288 0.18767-0.22141 0.0685-0.0686 0.14233-0.13073 0.22141-0.18766 0.078-0.0569 0.16025-0.1086 0.24565-0.15183 0.0865-0.0443 0.17502-0.0811 0.26675-0.10964 0.0917-0.0316 0.18661-0.0537 0.2815-0.0696 0.0959-0.0148 0.19188-0.0222 0.28888-0.0211 0.097-0.00085 0.19294 0.007 0.28888 0.0211 0.0949 0.0159 0.18978 0.038 0.28045 0.0696 0.0928 0.0284 0.18135 0.0654 0.2678 0.10964 0.0854 0.0433 0.16764 0.0949 0.24566 0.15183 0.079 0.0559 0.15287 0.11913 0.2214 0.18766 0.0685 0.0686 0.13074 0.14234 0.18767 0.22141 0.058 0.078 0.1086 0.16025 0.15182 0.24565 0.0443 0.0865 0.0811 0.17502 0.10965 0.26674 0.0305 0.0917 0.0537 0.18556 0.0685 0.28151 0.0148 0.0949 0.0222 0.19188 0.0222 0.28888" fill-rule="evenodd"/>
    </g>
   </g>
  </g>
 </g>
</svg>
