<svg
   xmlns="http://www.w3.org/2000/svg"
   xmlns:xlink="http://www.w3.org/1999/xlink"  
   version="1.1"
   width="60"
   height="60">
  <symbol id="notice_e7_1" width="60" height="60">
    <path d="m 23.375,10.28125 -1.40625,2.65625 9.625,5.03125 14.09375,19.75 0,11.09375 3,0 0,-12.0625 0,-12.34375 0,-0.90625 -0.78125,-0.40625 -14.25,-7.4375 -0.125,-0.1875 -0.09375,0.0625 -10.0625,-5.25 z m 14.125,10.75 8.1875,4.28125 0,7.21875 -8.1875,-11.5 z"/>
    <path d="m 26.375,33.375 c -0.90997,-0.0086 -1.869475,0.0117 -2.8125,0.03125 -3.9799,0.0825 -5.98633,0.2748 -6.375,0.65625 -0.1192,0.117 -0.72042,1.26665 -1.34375,2.53125 -0.93961,1.90621 -1.20685,2.34961 -1.59375,2.59375 -1.04544,0.6597 -0.99743,0.35815 -0.46875,2.96875 0.58639,2.8958 0.92407,3.76851 1.40625,4.125 0.46431,0.3433 0.374,0.3054 0.375,1.4375 l 0,0.84375 0.90625,0 c 0.75993,0.0066 0.54992,-0.32219 0.65625,-1.03125 0.04946,-0.32984 -0.04107,-0.67901 0.0625,-0.71875 0.1036,-0.03975 1.653,0.09067 3.1875,0.25 4.2035,0.43649 7.74155,0.38108 11.28125,-0.1875 0.67754,-0.10883 1.27504,-0.1875 1.3125,-0.1875 0.03745,0 0.0625,0.75008 0.0625,1.1875 0,0.87734 0.17095,0.6875 0.90625,0.6875 0.53881,0 0.53125,-0.0099 0.53125,-0.75 0,-0.79964 -0.10549,-0.86432 0.4375,-1.375 0.5041,-0.4742 1.07631,-1.43815 1.53125,-4.40625 0.34162,-2.22873 0.44874,-1.56059 0.15625,-2.25 -0.08836,-0.20827 -0.35762,-0.26169 -0.5,-0.4375 C 35.40371,38.49175 35.2873,38.4645 34.5625,36.4375 33.825,34.3749 33.50222,33.98879 32.53125,33.78125 31.49895,33.560615 29.104911,33.400862 26.375,33.375 z m -2.78125,1.0625 c 3.569208,-0.0327 7.910675,0.1295 8.75,0.40625 0.47963,0.1582 0.48538,0.20075 1.0625,2.03125 0.31999,1.01498 0.56932,1.86818 0.53125,1.90625 -0.0381,0.03806 -0.82649,-0.03189 -1.75,-0.15625 -3.2963,-0.44387 -9.09235,-0.46735 -13.21875,-0.0625 -0.8066,0.07914 -1.68083,0.17873 -1.9375,0.21875 -0.25667,0.04002 -0.51335,0.01812 -0.5625,-0.03125 -0.11765,-0.1181 0.23211,-1.27505 0.6875,-2.28125 0.19994,-0.44179 0.41924,-0.95899 0.46875,-1.15625 0.1168,-0.4654 0.6807,-0.6262 2.8125,-0.78125 0.85505,-0.06219 1.966514,-0.08285 3.15625,-0.09375 z M 33.25,40.21875 c 0.552305,0 1,0.447709 1,1 0,0.552303 -0.447695,1 -1,1 -0.552305,0 -1,-0.447709 -1,-1 0,-0.552303 0.447695,-1 1,-1 z M 16.71875,40.4375 c 0.552305,0 1,0.447709 1,1 0,0.552303 -0.447695,1 -1,1 -0.552305,0 -1,-0.447709 -1,-1 0,-0.552303 0.447695,-1 1,-1 z"/>
  </symbol>
  <use xlink:href="#notice_e7_1" x="0" y="0" />
</svg>
