<svg
   xmlns="http://www.w3.org/2000/svg"
   xmlns:xlink="http://www.w3.org/1999/xlink"  
   version="1.1"
   width="60"
   height="60">
  <symbol id="notice_a9" width="60" height="60">
    <path d="m 7.39613,36.3309 v 6.8371 c 0.39622,-0.004 0.79246,-0.0102 1.1899,-0.0191 0.39749,-0.009 0.79498,-0.0228 1.1912,-0.0431 1.6621,-0.081 3.3116,-0.30888 4.9332,-0.67979 1.6166,-0.3671 3.185,-0.9165 4.6788,-1.6355 0.82789,-0.38356 1.6457,-0.79119 2.4508,-1.2241 0.80512,-0.43167 1.6343,-0.8203 2.4812,-1.1634 0.93803,-0.3823 1.9128,-0.66585 2.909,-0.84434 0.995,-0.18102 2.0064,-0.24685 3.0154,-0.19748 1.1925,0.0431 2.3748,0.2266 3.5242,0.54939 1.1596,0.32534 2.2976,0.72536 3.4052,1.1975 1.5558,0.66333 3.109,1.3342 4.6598,2.0128 1.5305,0.66965 3.1268,1.1823 4.7623,1.5279 0.7089,0.16077 1.4279,0.27976 2.1507,0.35698 0.72663,0.0785 1.4558,0.12533 2.1862,0.14179 0.26457,0.007 0.52915,0.0126 0.79498,0.0152 0.26457,0.003 0.52915,0.005 0.79372,0.005 v -6.8371 c -0.39876,-0.006 -0.79878,-0.014 -1.1975,-0.0253 -0.39876,-0.0114 -0.79878,-0.0304 -1.1976,-0.0582 -0.7418,-0.0519 -1.4811,-0.14431 -2.2128,-0.27724 -0.72916,-0.13417 -1.4494,-0.31646 -2.1533,-0.5494 -1.252,-0.42153 -2.471,-0.93802 -3.6445,-1.5444 -1.1773,-0.6089 -2.3799,-1.1659 -3.6053,-1.6722 -0.43166,-0.17975 -0.8684,-0.34559 -1.3127,-0.49497 -0.44307,-0.15063 -0.88992,-0.28608 -1.3418,-0.40634 -1.0165,-0.2747 -2.0495,-0.4785 -3.0926,-0.60889 -1.0482,-0.13039 -2.1026,-0.18736 -3.1584,-0.1709 -0.82284,-0.002 -1.6457,0.0442 -2.4622,0.14052 -0.81144,0.0962 -1.614,0.25191 -2.4027,0.46711 -1.6621,0.47851 -3.2736,1.1152 -4.8142,1.9001 -1.5532,0.79119 -3.1533,1.4836 -4.7927,2.0773 -1.019,0.37849 -2.0685,0.66965 -3.1369,0.87092 -1.0672,0.20129 -2.1482,0.31269 -3.2331,0.33548 -0.22785,0.007 -0.45572,0.0126 -0.68358,0.0152 -0.22913,9.9e-4 -0.45699,9.9e-4 -0.68485,9.9e-4 z"
     style="fill-rule:evenodd;stroke:#000000;stroke-width:0.28178999" />
    <path d="m 7.39613,22.6609 v 6.8384 c 0.39622,-0.005 0.79246,-0.0114 1.1899,-0.0203 0.39749,-0.009 0.79498,-0.0228 1.1912,-0.0431 1.6621,-0.081 3.3116,-0.30888 4.9332,-0.67852 1.6166,-0.36838 3.185,-0.91651 4.6788,-1.6368 0.82789,-0.38356 1.6457,-0.79118 2.4508,-1.2229 0.80512,-0.43293 1.6343,-0.82155 2.4812,-1.1646 0.93803,-0.3823 1.9128,-0.6646 2.909,-0.84436 0.995,-0.17975 2.0064,-0.24684 3.0154,-0.19748 1.1925,0.0431 2.3748,0.2266 3.5242,0.5494 1.1596,0.32534 2.2976,0.72537 3.4052,1.1975 1.5558,0.66332 3.109,1.3355 4.6598,2.0128 1.5305,0.66966 3.1268,1.1824 4.7623,1.5279 0.7089,0.16077 1.4279,0.27977 2.1507,0.35699 0.72663,0.0785 1.4558,0.12532 2.1862,0.14178 0.26457,0.007 0.52915,0.0126 0.79498,0.0152 0.26457,0.002 0.52915,0.005 0.79372,0.006 v -6.8384 c -0.39876,-0.006 -0.79878,-0.014 -1.1975,-0.0253 -0.39876,-0.0114 -0.79878,-0.0304 -1.1976,-0.0582 -0.7418,-0.0506 -1.4798,-0.14431 -2.2128,-0.27723 -0.72916,-0.13419 -1.4494,-0.31647 -2.1533,-0.5494 -1.252,-0.42154 -2.471,-0.93802 -3.6445,-1.5444 -1.1773,-0.6089 -2.3799,-1.1659 -3.6053,-1.6723 -0.43166,-0.17975 -0.8684,-0.34558 -1.3127,-0.49496 -0.44307,-0.15063 -0.88992,-0.28482 -1.3418,-0.40635 -1.0152,-0.2747 -2.0495,-0.4785 -3.0926,-0.60889 -1.0482,-0.13038 -2.1026,-0.18735 -3.1584,-0.1709 -0.82284,-0.002 -1.6457,0.0443 -2.4622,0.14178 -0.81144,0.0948 -1.614,0.25192 -2.4027,0.46585 -1.6621,0.47977 -3.2736,1.1152 -4.8142,1.9014 -1.5532,0.78992 -3.1533,1.4836 -4.7927,2.0761 -1.019,0.3785 -2.0685,0.66966 -3.1369,0.87093 -1.0672,0.20128 -2.1482,0.31395 -3.2331,0.33673 -0.22785,0.008 -0.45572,0.0114 -0.68358,0.014 -0.22913,9.8e-4 -0.45699,0.002 -0.68485,9.8e-4 z"
     style="fill-rule:evenodd;stroke:#000000;stroke-width:0.28178999" />
  </symbol>
  <use xlink:href="#notice_a9" x="0" y="0" />
</svg>
