<?xml version="1.0" encoding="UTF-8" standalone="no"?>
<!-- Created with Inkscape (http://www.inkscape.org/) -->
<svg id="svg2" xmlns:rdf="http://www.w3.org/1999/02/22-rdf-syntax-ns#" xmlns="http://www.w3.org/2000/svg" height="60" width="60" version="1.1" xmlns:cc="http://creativecommons.org/ns#" xmlns:dc="http://purl.org/dc/elements/1.1/">
 <metadata id="metadata7">
  <rdf:RDF>
   <cc:Work rdf:about="">
    <dc:format>image/svg+xml</dc:format>
    <dc:type rdf:resource="http://purl.org/dc/dcmitype/StillImage"/>
    <dc:title/>
   </cc:Work>
  </rdf:RDF>
 </metadata>
 <g id="layer47" transform="translate(0,-60)">
  <g id="layer1-86" transform="matrix(.97035 0 0 .97033 -69.807 83.549)">
   <g id="g2929" transform="matrix(.84346 0 0 .84346 16.101 1.0406)">
    <g id="g3549" transform="matrix(0 1.25 1.25 0 71.676 42.014)" stroke="#000" fill="#fff">
     <path id="path3551" stroke-linejoin="bevel" d="m0 0v49.916c-0.001 0.144-0.011 0.289-0.03 0.432-0.02 0.144-0.049 0.286-0.088 0.425-0.037 0.14-0.083 0.278-0.139 0.411s-0.122 0.263-0.196 0.387c-0.072 0.126-0.152 0.246-0.24 0.361-0.088 0.114-0.184 0.223-0.287 0.325-0.102 0.103-0.211 0.199-0.325 0.287-0.115 0.088-0.235 0.169-0.361 0.24-0.125 0.074-0.254 0.138-0.388 0.194-0.133 0.056-0.27 0.103-0.41 0.14-0.14 0.04-0.282 0.07-0.425 0.09s-0.288 0.03-0.432 0.029h-49.942c-0.145-0.001-0.289-0.011-0.433-0.03-0.143-0.019-0.285-0.049-0.424-0.089-0.14-0.036-0.278-0.082-0.411-0.138-0.134-0.057-0.263-0.122-0.387-0.196-0.126-0.072-0.246-0.152-0.361-0.24s-0.223-0.184-0.325-0.287c-0.103-0.102-0.199-0.211-0.287-0.325-0.089-0.115-0.169-0.235-0.241-0.361-0.073-0.125-0.138-0.254-0.194-0.388-0.055-0.133-0.102-0.27-0.14-0.41-0.039-0.139-0.069-0.281-0.089-0.425-0.021-0.143-0.03-0.288-0.03-0.432v-49.942c0.001-0.145 0.011-0.289 0.031-0.432 0.019-0.144 0.049-0.286 0.088-0.425 0.036-0.14 0.083-0.278 0.139-0.411s0.121-0.263 0.195-0.387c0.072-0.126 0.153-0.246 0.241-0.361s0.184-0.223 0.287-0.325c0.102-0.103 0.21-0.199 0.325-0.287 0.115-0.089 0.235-0.169 0.361-0.241 0.124-0.073 0.254-0.138 0.387-0.194 0.134-0.055 0.271-0.102 0.411-0.14 0.139-0.039 0.281-0.069 0.424-0.089 0.144-0.021 0.288-0.03 0.433-0.029h49.942c0.144 0 0.289 0.011 0.432 0.03 0.144 0.019 0.286 0.049 0.425 0.088 0.14 0.036 0.277 0.083 0.411 0.139 0.133 0.056 0.262 0.122 0.387 0.195 0.125 0.072 0.246 0.153 0.361 0.241 0.114 0.088 0.223 0.184 0.325 0.287 0.103 0.102 0.199 0.21 0.287 0.325 0.088 0.114 0.168 0.235 0.24 0.361 0.074 0.124 0.138 0.254 0.194 0.387 0.056 0.134 0.103 0.271 0.141 0.411 0.039 0.139 0.069 0.281 0.089 0.425 0.02 0.143 0.03 0.287 0.029 0.432v0.026z" stroke-miterlimit="22.926" stroke-width=".22260"/>
     <g id="g3553" transform="translate(.054)" stroke-width="1.0306">
      <path id="path3555" stroke-linejoin="bevel" d="m0 0v-0.013-0.014c-0.001-0.146-0.011-0.293-0.031-0.439-0.019-0.146-0.05-0.29-0.09-0.431-0.037-0.143-0.084-0.283-0.141-0.418s-0.123-0.267-0.198-0.393c-0.074-0.128-0.155-0.25-0.245-0.367-0.089-0.117-0.187-0.227-0.291-0.33-0.104-0.105-0.214-0.203-0.33-0.292-0.117-0.09-0.24-0.171-0.367-0.244-0.127-0.075-0.258-0.141-0.394-0.197-0.136-0.057-0.275-0.105-0.417-0.143-0.142-0.04-0.286-0.071-0.432-0.091-0.145-0.02-0.292-0.03-0.439-0.029h-0.013-49.917-0.013c-0.147 0-0.294 0.011-0.439 0.03-0.146 0.02-0.29 0.05-0.431 0.09-0.143 0.037-0.283 0.084-0.419 0.141-0.135 0.057-0.266 0.124-0.392 0.199-0.128 0.073-0.251 0.155-0.367 0.244-0.117 0.09-0.227 0.187-0.331 0.292-0.104 0.103-0.202 0.213-0.291 0.33-0.09 0.116-0.172 0.239-0.245 0.367-0.074 0.126-0.14 0.258-0.197 0.393-0.057 0.136-0.104 0.275-0.142 0.418-0.041 0.141-0.071 0.286-0.092 0.431-0.02 0.146-0.03 0.293-0.029 0.439v49.943c0.001 0.147 0.011 0.294 0.031 0.44 0.02 0.145 0.05 0.29 0.09 0.431 0.037 0.143 0.084 0.282 0.141 0.418 0.057 0.135 0.123 0.267 0.198 0.393 0.074 0.128 0.155 0.25 0.245 0.367 0.089 0.116 0.187 0.227 0.291 0.33 0.104 0.105 0.214 0.202 0.331 0.292 0.116 0.09 0.239 0.171 0.367 0.244 0.126 0.075 0.257 0.141 0.393 0.197 0.136 0.057 0.275 0.105 0.418 0.143 0.141 0.04 0.285 0.07 0.431 0.091 0.145 0.021 0.292 0.03 0.439 0.029h49.943c0.147 0 0.294-0.011 0.439-0.031 0.146-0.019 0.29-0.049 0.432-0.089 0.142-0.037 0.282-0.085 0.417-0.142 0.136-0.057 0.267-0.123 0.394-0.198 0.127-0.073 0.25-0.155 0.366-0.244 0.117-0.09 0.227-0.187 0.331-0.292 0.105-0.103 0.202-0.214 0.292-0.33 0.089-0.117 0.171-0.239 0.244-0.367 0.074-0.127 0.14-0.258 0.197-0.394 0.057-0.135 0.104-0.275 0.142-0.417 0.04-0.141 0.071-0.286 0.092-0.431 0.02-0.146 0.03-0.293 0.029-0.44v-0.013-49.903z" stroke="#000" stroke-miterlimit="22.926" stroke-width="1.9549" fill="#fff"/>
     </g>
    </g>
    <g id="g3545" fill="#039" transform="matrix(0 1.25 1.25 0 71.676 39.044)">
     <path id="path3547" d="m0 0v-0.008c0-0.042-0.003-0.084-0.009-0.125-0.005-0.042-0.014-0.083-0.025-0.123-0.011-0.041-0.024-0.081-0.041-0.12-0.016-0.038-0.035-0.076-0.056-0.112s-0.044-0.072-0.07-0.105-0.054-0.065-0.084-0.094c-0.029-0.03-0.061-0.058-0.094-0.083-0.033-0.026-0.068-0.049-0.105-0.07-0.036-0.022-0.073-0.04-0.112-0.056-0.039-0.017-0.079-0.03-0.119-0.041-0.041-0.012-0.082-0.021-0.124-0.027-0.041-0.005-0.083-0.008-0.125-0.008h-49.905c-0.042 0.001-0.084 0.003-0.125 0.009-0.042 0.006-0.083 0.014-0.124 0.026-0.041 0.01-0.08 0.024-0.119 0.04s-0.076 0.035-0.113 0.057c-0.036 0.021-0.071 0.044-0.104 0.07-0.034 0.025-0.065 0.053-0.095 0.083-0.029 0.029-0.057 0.061-0.083 0.094-0.025 0.033-0.049 0.068-0.069 0.105-0.022 0.036-0.041 0.074-0.057 0.112-0.016 0.039-0.03 0.079-0.041 0.12-0.011 0.04-0.02 0.081-0.026 0.123-0.006 0.041-0.008 0.083-0.008 0.125v49.905c0 0.042 0.003 0.084 0.008 0.126 0.006 0.041 0.015 0.083 0.026 0.123 0.011 0.041 0.024 0.081 0.04 0.119 0.017 0.039 0.036 0.077 0.058 0.113 0.02 0.036 0.044 0.071 0.069 0.104 0.026 0.034 0.054 0.065 0.083 0.095 0.03 0.03 0.061 0.057 0.095 0.083 0.033 0.026 0.068 0.049 0.104 0.07 0.037 0.021 0.074 0.04 0.113 0.056 0.039 0.017 0.078 0.03 0.119 0.041 0.041 0.012 0.082 0.02 0.124 0.026 0.041 0.006 0.083 0.009 0.125 0.009h49.905c0.042 0 0.084-0.004 0.125-0.009 0.042-0.006 0.083-0.014 0.124-0.026 0.04-0.01 0.08-0.024 0.119-0.04s0.076-0.035 0.112-0.057c0.037-0.021 0.072-0.044 0.105-0.07s0.065-0.053 0.094-0.083c0.03-0.03 0.058-0.061 0.084-0.095 0.026-0.033 0.049-0.068 0.07-0.104s0.04-0.074 0.056-0.113c0.016-0.038 0.03-0.078 0.041-0.119 0.011-0.04 0.02-0.082 0.026-0.123 0.005-0.042 0.008-0.084 0.008-0.126v-49.897" fill-rule="evenodd" fill="#039"/>
    </g>
    <g id="g3557" transform="matrix(0 1.25 1.25 0 113.49 28.751)">
     <path id="path3559" d="m0 0-0.972 7.262c-0.001 0.093-0.015 0.185-0.042 0.274-0.035 0.136-0.073 0.271-0.114 0.406-0.076 0.265-0.164 0.527-0.261 0.785-0.088 0.226-0.192 0.445-0.313 0.655-0.126 0.225-0.267 0.443-0.422 0.65-0.155 0.209-0.324 0.406-0.506 0.592-0.045 0.047-0.092 0.094-0.139 0.14-0.05 0.048-0.101 0.096-0.152 0.143-0.162 0.15-0.33 0.294-0.502 0.433-0.117 0.105-0.251 0.192-0.394 0.258-0.024 0.011-0.045 0.026-0.064 0.045-0.02 0.019-0.04 0.039-0.059 0.06-0.024 0.027-0.047 0.054-0.07 0.082-0.022 0.026-0.042 0.055-0.061 0.085-0.018 0.029-0.035 0.06-0.048 0.093-0.014 0.033-0.026 0.066-0.035 0.101-0.01 0.034-0.017 0.069-0.022 0.103-0.005 0.035-0.008 0.071-0.009 0.106 0 0.035 0.002 0.071 0.006 0.106s0.01 0.07 0.019 0.104 0.02 0.068 0.033 0.101 0.028 0.064 0.046 0.095c0.017 0.031 0.036 0.061 0.057 0.089 0.021 0.029 0.044 0.055 0.069 0.081 0.025 0.025 0.051 0.049 0.079 0.071s0.057 0.042 0.087 0.06c0.031 0.018 0.062 0.034 0.094 0.048 0.033 0.014 0.066 0.026 0.101 0.035 0.034 0.01 0.069 0.018 0.104 0.023s0.07 0.007 0.105 0.007c0.035 0.001 0.069-0.001 0.104-0.006 0.036-0.004 0.071-0.01 0.106-0.018 0.046-0.01 0.091-0.023 0.134-0.04 0.041-0.016 0.078-0.04 0.109-0.071l0.043-0.032 0.044-0.032c0.213-0.158 0.424-0.318 0.634-0.481 0.209-0.163 0.41-0.336 0.602-0.519 0.241-0.224 0.464-0.467 0.667-0.727 0.204-0.261 0.389-0.536 0.554-0.822 0.17-0.284 0.321-0.579 0.451-0.882 0.131-0.303 0.24-0.614 0.328-0.932 0.045-0.155 0.086-0.312 0.123-0.47s0.073-0.316 0.107-0.475l3.294-24.324h-1.62l-1.35 10.259-8.337-5.518c-0.035-0.021-0.07-0.043-0.103-0.069-0.045-0.033-0.09-0.068-0.134-0.104-0.064-0.051-0.127-0.105-0.188-0.161-0.053-0.048-0.104-0.098-0.155-0.15-0.105-0.105-0.203-0.216-0.294-0.335-0.109-0.145-0.208-0.297-0.296-0.455-0.058-0.099-0.112-0.2-0.164-0.302-0.035-0.06-0.06-0.127-0.075-0.195l-2.025-7.316c-0.005-0.023-0.012-0.044-0.02-0.066-0.009-0.025-0.019-0.05-0.028-0.074-0.041-0.106-0.084-0.211-0.13-0.314-0.043-0.097-0.09-0.193-0.142-0.286-0.077-0.143-0.165-0.281-0.263-0.411-0.1-0.134-0.209-0.261-0.327-0.379-0.116-0.121-0.24-0.233-0.371-0.336-0.128-0.1-0.263-0.192-0.404-0.275-0.036-0.022-0.073-0.044-0.11-0.064-0.038-0.022-0.077-0.043-0.116-0.063-0.019-0.01-0.039-0.02-0.059-0.029-0.018-0.009-0.036-0.017-0.054-0.025l-14.255-6.344c-0.036-0.038-0.077-0.07-0.122-0.098-0.049-0.03-0.099-0.058-0.15-0.084-0.084-0.045-0.171-0.087-0.258-0.127-0.084-0.038-0.171-0.07-0.26-0.096-0.09-0.027-0.182-0.047-0.274-0.06-0.094-0.013-0.189-0.02-0.284-0.021-0.094-0.001-0.189 0.003-0.283 0.015-0.093 0.01-0.186 0.028-0.277 0.052-0.091 0.022-0.181 0.051-0.269 0.086-0.087 0.035-0.173 0.076-0.254 0.122-0.083 0.046-0.163 0.097-0.238 0.154-0.076 0.056-0.147 0.117-0.214 0.184-0.068 0.065-0.132 0.135-0.19 0.209s-0.112 0.153-0.159 0.234c-0.049 0.08-0.092 0.164-0.13 0.251-0.037 0.086-0.068 0.176-0.093 0.267-0.026 0.09-0.045 0.183-0.058 0.276-0.014 0.093-0.021 0.188-0.023 0.282-0.003 0.094 0.001 0.188 0.011 0.282s0.029 0.187 0.055 0.277c0.003 0.011 0.006 0.022 0.01 0.032 0.003 0.01 0.006 0.021 0.01 0.031l4.773 19.356v21.084h1.08v-19.016l4.32-0.961-2.7-13.498 5.604 2.376c0.038 0.013 0.074 0.03 0.11 0.048 0.043 0.022 0.085 0.045 0.128 0.067 0.221 0.116 0.437 0.24 0.647 0.374 0.195 0.125 0.375 0.271 0.538 0.437 0.118 0.114 0.225 0.237 0.323 0.369 0.099 0.134 0.188 0.275 0.267 0.422 0.079 0.144 0.149 0.292 0.209 0.445 0.06 0.154 0.112 0.311 0.157 0.471l0.005 0.02 0.006 0.019 1.374 4.779c0.008 0.031 0.019 0.063 0.031 0.094 0.015 0.039 0.031 0.078 0.047 0.116 0.033 0.08 0.068 0.159 0.105 0.237 0.034 0.072 0.07 0.142 0.11 0.212 0.08 0.142 0.169 0.279 0.268 0.409 0.1 0.133 0.208 0.26 0.322 0.381 0.075 0.083 0.155 0.162 0.239 0.236 0.086 0.076 0.178 0.144 0.276 0.204 0.009 0.006 0.018 0.012 0.028 0.018 0.009 0.005 0.017 0.01 0.026 0.015l12.262 8.768" fill-rule="evenodd" fill="#fff"/>
    </g>
    <g id="g3561" transform="matrix(0 1.25 1.25 0 75.691 -15.625)">
     <path id="path3563" d="m0 0h0.025l0.025 0.001c0.165 0.002 0.329 0.014 0.492 0.037 0.164 0.023 0.325 0.058 0.484 0.104 0.159 0.043 0.316 0.097 0.467 0.162 0.152 0.066 0.299 0.142 0.439 0.227 0.143 0.084 0.279 0.177 0.409 0.279s0.252 0.214 0.366 0.332c0.116 0.118 0.224 0.243 0.323 0.375s0.188 0.271 0.268 0.416c0.081 0.143 0.153 0.292 0.214 0.446 0.061 0.153 0.112 0.31 0.152 0.47 0.041 0.16 0.072 0.322 0.091 0.486 0.02 0.164 0.028 0.329 0.024 0.494-0.001 0.165-0.013 0.33-0.037 0.493-0.023 0.164-0.058 0.325-0.104 0.484-0.044 0.159-0.099 0.315-0.164 0.466-0.065 0.152-0.14 0.299-0.226 0.44-0.083 0.143-0.176 0.279-0.278 0.409-0.103 0.129-0.214 0.252-0.333 0.366-0.117 0.116-0.242 0.224-0.375 0.322-0.132 0.099-0.271 0.189-0.415 0.268-0.144 0.082-0.292 0.154-0.446 0.215-0.153 0.061-0.31 0.111-0.471 0.151-0.159 0.042-0.322 0.072-0.485 0.092-0.164 0.019-0.329 0.027-0.494 0.024-0.165-0.001-0.33-0.014-0.494-0.037-0.163-0.024-0.324-0.059-0.483-0.105-0.159-0.044-0.315-0.098-0.466-0.163-0.152-0.065-0.299-0.141-0.44-0.226-0.143-0.084-0.279-0.177-0.409-0.279-0.129-0.102-0.252-0.213-0.366-0.332-0.116-0.118-0.224-0.243-0.323-0.375-0.098-0.132-0.188-0.271-0.268-0.416-0.081-0.143-0.153-0.292-0.214-0.445s-0.112-0.311-0.151-0.471c-0.042-0.16-0.072-0.322-0.092-0.486-0.019-0.164-0.027-0.329-0.024-0.494 0.001-0.165 0.013-0.33 0.037-0.493s0.059-0.325 0.105-0.483c0.043-0.159 0.098-0.315 0.163-0.467 0.065-0.151 0.141-0.298 0.226-0.44 0.083-0.142 0.177-0.279 0.279-0.408 0.102-0.13 0.213-0.252 0.332-0.367 0.117-0.116 0.243-0.223 0.375-0.322s0.271-0.188 0.416-0.268c0.143-0.081 0.292-0.153 0.445-0.214s0.31-0.112 0.471-0.151c0.152-0.04 0.306-0.07 0.462-0.09 0.155-0.02 0.312-0.029 0.468-0.027" fill-rule="evenodd" fill="#fff"/>
    </g>
   </g>
  </g>
 </g>
</svg>
