<svg
   xmlns="http://www.w3.org/2000/svg"
   xmlns:xlink="http://www.w3.org/1999/xlink"  
   version="1.1"
   width="60"
   height="60">
  <symbol id="notice_waterski" width="60" height="60">
    <path d="m 22.8426,44.75815 -6.0138,-0.805 c -0.07625,0 -0.15375,-0.0125 -0.22625,-0.035 -0.11375,-0.0288 -0.225,-0.06 -0.33625,-0.0937 -0.22,-0.0637 -0.43625,-0.135 -0.65,-0.21625 -0.1875,-0.0725 -0.36875,-0.15875 -0.5425,-0.26 -0.1875,-0.10375 -0.3675,-0.22125 -0.53875,-0.34875 -0.1725,-0.12875 -0.33625,-0.26875 -0.49,-0.41875 -0.04,-0.0375 -0.0775,-0.0762 -0.11625,-0.115 -0.04,-0.0413 -0.07875,-0.0838 -0.1175,-0.12625 -0.12375,-0.135 -0.24375,-0.27375 -0.35875,-0.415 -0.0875,-0.0975 -0.15875,-0.20875 -0.21375,-0.3275 -0.01,-0.0188 -0.0225,-0.0363 -0.0375,-0.0525 -0.015,-0.0162 -0.0325,-0.0325 -0.05,-0.0487 -0.0225,-0.02 -0.04375,-0.04 -0.0675,-0.0588 -0.0225,-0.0175 -0.045,-0.035 -0.07,-0.05 -0.025,-0.015 -0.05125,-0.0288 -0.0775,-0.04 -0.0275,-0.0113 -0.055,-0.0213 -0.08375,-0.0288 -0.0275,-0.008 -0.05625,-0.0138 -0.08625,-0.0187 -0.02875,-0.004 -0.0575,-0.006 -0.08625,-0.006 -0.03,-10e-4 -0.05875,10e-4 -0.08875,0.004 -0.02875,0.004 -0.0575,0.009 -0.08625,0.0163 -0.0275,0.007 -0.05625,0.0162 -0.0825,0.0275 -0.0275,0.01 -0.05375,0.0238 -0.08,0.0375 -0.025,0.015 -0.05,0.03 -0.07375,0.0475 -0.0225,0.0175 -0.045,0.0375 -0.06625,0.0575 -0.02125,0.02 -0.04,0.0425 -0.05875,0.065 -0.0175,0.0237 -0.035,0.0475 -0.05,0.0725 -0.015,0.025 -0.0275,0.0512 -0.04,0.0787 -0.01125,0.0263 -0.02125,0.0538 -0.02875,0.0825 -0.0075,0.0288 -0.01375,0.0575 -0.01875,0.0863 -0.0038,0.0287 -0.0063,0.0575 -0.0063,0.0875 0,0.0275 0.0013,0.0563 0.005,0.085 0.0038,0.03 0.0088,0.0588 0.015,0.0875 0.0087,0.0387 0.01875,0.0762 0.03375,0.1125 0.0125,0.0338 0.0325,0.0637 0.05875,0.09 l 0.02625,0.035 0.02625,0.0363 c 0.13125,0.17625 0.26375,0.35125 0.39875,0.525 0.135,0.17375 0.2775,0.34 0.43,0.49875 0.185,0.2 0.38625,0.385 0.60125,0.5525 0.21625,0.16875 0.44375,0.3225 0.68125,0.45875 0.235,0.14125 0.47875,0.265 0.73,0.37375 0.25125,0.1075 0.50875,0.19875 0.77125,0.27125 0.12875,0.0375 0.25875,0.0713 0.39,0.10125 0.13125,0.0312 0.26125,0.0613 0.3925,0.0887 L 36.702,48 v -1.3412 l -8.495,-1.1175 4.57,-6.9038 c 0.01625,-0.0288 0.035,-0.0575 0.05625,-0.085 0.0275,-0.0375 0.05625,-0.075 0.08625,-0.11125 0.0425,-0.0538 0.0875,-0.105 0.13375,-0.155 0.04,-0.0438 0.08125,-0.0863 0.12375,-0.12875 0.0875,-0.0875 0.17875,-0.16875 0.2775,-0.24375 0.12,-0.09 0.24625,-0.1725 0.3775,-0.245 0.08125,-0.0475 0.165,-0.0925 0.25,-0.135 0.05,-0.03 0.10375,-0.05 0.16125,-0.0625 l 6.0575,-1.6775 c 0.01875,-0.004 0.0375,-0.01 0.055,-0.0162 0.02125,-0.007 0.04125,-0.015 0.06125,-0.0237 0.0875,-0.0337 0.175,-0.0688 0.26,-0.10625 0.08125,-0.0362 0.16,-0.075 0.2375,-0.11875 0.1175,-0.0637 0.23125,-0.13625 0.34,-0.2175 0.11125,-0.0825 0.21625,-0.1725 0.31375,-0.27125 0.1,-0.095 0.1925,-0.1975 0.2775,-0.30625 0.08375,-0.10625 0.16,-0.21875 0.22875,-0.335 0.01875,-0.03 0.03625,-0.06 0.0525,-0.0913 0.01875,-0.0312 0.035,-0.0637 0.0525,-0.0962 0.0088,-0.0162 0.01625,-0.0325 0.02375,-0.0487 0.0075,-0.015 0.01375,-0.03 0.02,-0.045 l 5.2538,-11.804 c 0.03125,-0.03 0.05875,-0.0638 0.08125,-0.10125 0.025,-0.04 0.04875,-0.0812 0.07,-0.12375 0.0375,-0.07 0.0725,-0.14125 0.105,-0.21375 0.03125,-0.07 0.0575,-0.1425 0.07875,-0.21625 0.0225,-0.0738 0.04,-0.15 0.05125,-0.22625 0.01,-0.0775 0.01625,-0.15625 0.01625,-0.235 0.0012,-0.0787 -0.0025,-0.15625 -0.01125,-0.23375 -0.01,-0.0775 -0.02375,-0.155 -0.04375,-0.23 -0.01875,-0.0762 -0.0425,-0.15 -0.07125,-0.2225 -0.02875,-0.0725 -0.0625,-0.14375 -0.10125,-0.21125 -0.0375,-0.0688 -0.08,-0.13375 -0.1275,-0.19625 -0.04625,-0.0625 -0.0975,-0.1225 -0.1525,-0.1775 -0.05375,-0.0563 -0.11125,-0.10875 -0.1725,-0.1575 -0.0625,-0.0487 -0.12625,-0.0925 -0.19375,-0.13125 -0.0675,-0.0412 -0.13625,-0.0763 -0.20875,-0.1075 -0.07125,-0.0312 -0.145,-0.0575 -0.22,-0.0775 -0.075,-0.0212 -0.15125,-0.0375 -0.22875,-0.0487 -0.0775,-0.01 -0.155,-0.0162 -0.23375,-0.0175 -0.0775,-0.002 -0.15625,0 -0.23375,0.008 -0.0775,0.009 -0.155,0.0237 -0.23,0.0475 -0.0087,10e-4 -0.0175,0.005 -0.02625,0.007 -0.0087,0.002 -0.01625,0.005 -0.025,0.009 l -16.029,3.9525 h -17.459 v 0.89375 h 15.746 l 0.79625,3.5762 11.178,-2.235 -1.9675,4.6412 c -0.01125,0.0312 -0.025,0.0613 -0.04,0.09 -0.01875,0.035 -0.03625,0.0712 -0.05625,0.10625 -0.095,0.1825 -0.19875,0.36125 -0.30875,0.535 -0.10375,0.1625 -0.225,0.31125 -0.3625,0.44625 -0.09375,0.0975 -0.19625,0.18625 -0.305,0.2675 -0.11125,0.0825 -0.2275,0.15625 -0.35,0.22125 -0.11875,0.0662 -0.24125,0.12375 -0.36875,0.1725 -0.1275,0.05 -0.2575,0.0937 -0.38875,0.13 l -0.0175,0.005 -0.01625,0.004 -3.9562,1.1388 c -0.02625,0.008 -0.0525,0.015 -0.07875,0.0263 -0.03125,0.0125 -0.06375,0.025 -0.095,0.0387 -0.06625,0.0275 -0.1325,0.0563 -0.19625,0.0863 -0.06,0.0288 -0.11875,0.0588 -0.17625,0.0913 -0.1175,0.0662 -0.23125,0.14 -0.33875,0.2225 -0.11,0.0825 -0.215,0.17125 -0.315,0.26625 -0.06875,0.0625 -0.13375,0.12875 -0.195,0.1975 -0.06375,0.0712 -0.12,0.1475 -0.17,0.22875 -0.005,0.008 -0.01,0.015 -0.01375,0.0225 -0.005,0.007 -0.0087,0.015 -0.0125,0.0225 l -7.2612,10.154"/>
    <path d="m 47.8796,15.35815 v 0.02 0.0212 c -0.0012,0.13625 -0.0125,0.2725 -0.03125,0.4075 -0.02,0.135 -0.0475,0.26875 -0.08625,0.4 -0.035,0.1325 -0.08,0.2625 -0.135,0.3875 -0.05375,0.125 -0.11625,0.2475 -0.1875,0.36375 -0.06875,0.1175 -0.14625,0.23125 -0.23125,0.33875 -0.08375,0.10625 -0.17625,0.2075 -0.275,0.3025 -0.09625,0.0962 -0.20125,0.185 -0.31,0.2675 -0.11,0.0812 -0.225,0.15625 -0.34375,0.22125 -0.11875,0.0688 -0.2425,0.1275 -0.37,0.1775 -0.12625,0.0512 -0.25625,0.0925 -0.39,0.12625 -0.13125,0.0337 -0.26625,0.06 -0.40125,0.075 -0.13625,0.0162 -0.2725,0.0237 -0.41,0.0212 -0.13625,-0.001 -0.2725,-0.0113 -0.4075,-0.0312 -0.13625,-0.02 -0.26875,-0.0487 -0.40125,-0.0863 -0.13125,-0.0362 -0.26,-0.0812 -0.38625,-0.13625 -0.125,-0.0538 -0.24625,-0.11625 -0.36375,-0.18625 -0.1175,-0.0688 -0.23125,-0.14625 -0.33875,-0.23125 -0.1075,-0.085 -0.20875,-0.17625 -0.3025,-0.275 -0.09625,-0.0975 -0.18625,-0.20125 -0.2675,-0.31 -0.08125,-0.11 -0.155,-0.225 -0.22125,-0.345 -0.0675,-0.11875 -0.1275,-0.24125 -0.17875,-0.36875 -0.05,-0.12625 -0.09125,-0.2575 -0.125,-0.39 -0.03375,-0.1325 -0.05875,-0.26625 -0.075,-0.4025 -0.01625,-0.135 -0.02375,-0.27125 -0.02,-0.40875 0,-0.13625 0.01125,-0.2725 0.03,-0.4075 0.02,-0.13625 0.04875,-0.27 0.08625,-0.40125 0.03625,-0.13125 0.0825,-0.26 0.13625,-0.38625 0.05375,-0.125 0.11625,-0.2475 0.18625,-0.36375 0.07,-0.11875 0.14625,-0.23125 0.23125,-0.33875 0.085,-0.1075 0.17625,-0.20875 0.275,-0.30375 0.0975,-0.095 0.20125,-0.185 0.31,-0.26625 0.11,-0.0825 0.225,-0.15625 0.345,-0.2225 0.11875,-0.0675 0.24125,-0.12625 0.36875,-0.1775 0.1275,-0.05 0.2575,-0.0925 0.39,-0.125 0.1325,-0.03375 0.26625,-0.06 0.4025,-0.07625 0.135,-0.015 0.2725,-0.0225 0.40875,-0.02 0.13625,0.0013 0.2725,0.01125 0.40875,0.03125 0.135,0.02 0.26875,0.04875 0.4,0.08625 0.13125,0.03625 0.26125,0.08125 0.38625,0.13625 0.12625,0.05375 0.2475,0.11625 0.36375,0.18625 0.11875,0.07 0.23125,0.14625 0.33875,0.23125 0.1075,0.085 0.20875,0.17625 0.30375,0.275 0.095,0.09625 0.185,0.2 0.26625,0.31 0.0825,0.11 0.15625,0.225 0.2225,0.345 0.0675,0.11875 0.12625,0.24125 0.1775,0.36875 0.05,0.12625 0.0925,0.25625 0.125,0.38875 0.0325,0.12625 0.0575,0.25375 0.07375,0.38375 0.01625,0.12875 0.02375,0.2575 0.0225,0.3875"/>
  </symbol>
  <use xlink:href="#notice_waterski" x="0" y="0" />
</svg>
