<svg
   xmlns="http://www.w3.org/2000/svg"
   xmlns:xlink="http://www.w3.org/1999/xlink"  
   version="1.1"
   width="60"
   height="60">
  <symbol id="notice_turn" width="60" height="60">
    <path d="m 17.11093,30.781997 11.315,-2.9888 -3.2238,-1.8662 c 0.0475,-0.0587 0.09625,-0.11625 0.1475,-0.17125 0.0525,-0.0563 0.10375,-0.11125 0.15625,-0.16625 0.07,-0.075 0.13875,-0.15 0.20875,-0.225 0.06875,-0.0763 0.13875,-0.15 0.21125,-0.2225 0.20625,-0.21 0.42875,-0.4025 0.665,-0.57875 0.2375,-0.17625 0.48625,-0.335 0.74625,-0.475 0.25625,-0.14625 0.5225,-0.27375 0.79625,-0.38375 0.27375,-0.10875 0.55375,-0.19875 0.84,-0.27 0.285,-0.0737 0.575,-0.12875 0.8675,-0.16375 0.2925,-0.035 0.5875,-0.0487 0.8825,-0.0425 0.295,0.001 0.58875,0.0238 0.88125,0.0663 0.29125,0.0412 0.58,0.10375 0.8625,0.18625 0.28375,0.0775 0.5625,0.175 0.83375,0.2925 0.27,0.115 0.5325,0.25 0.785,0.4025 0.25375,0.14875 0.4975,0.315 0.72875,0.4975 0.2325,0.1825 0.45125,0.38125 0.655,0.59375 0.20625,0.21 0.39875,0.43375 0.575,0.66875 0.17625,0.23625 0.33625,0.485 0.47875,0.7425 0.14625,0.25625 0.27375,0.5225 0.3825,0.79625 0.11,0.27375 0.2,0.55375 0.27125,0.84125 0.07375,0.28375 0.12875,0.57375 0.16375,0.86625 0.03375,0.29375 0.04875,0.5875 0.0425,0.8825 -0.0025,0.295 -0.02375,0.58875 -0.06625,0.88125 -0.0425,0.29125 -0.105,0.57875 -0.18625,0.8625 -0.07875,0.28375 -0.17625,0.5625 -0.2925,0.83375 -0.11625,0.27 -0.25125,0.5325 -0.4025,0.785 -0.15,0.255 -0.31625,0.49875 -0.49875,0.73 -0.18125,0.23125 -0.38,0.45 -0.5925,0.65375 -0.21,0.20625 -0.43375,0.3975 -0.67,0.57375 -0.23625,0.17625 -0.485,0.33625 -0.7425,0.48 -0.255,0.14875 -0.52125,0.27875 -0.795,0.39 -0.2725,0.11125 -0.55375,0.19875 -0.84125,0.26375 -0.19,0.0437 -0.38125,0.08 -0.57375,0.10625 -0.19375,0.0263 -0.3875,0.0488 -0.58125,0.0675 -0.08375,0.009 -0.1675,0.0163 -0.2525,0.0225 -0.08375,0.006 -0.16875,0.01 -0.25375,0.0112 v 4.7575 c 0.11875,0.002 0.23625,0 0.35375,-0.006 0.11875,-0.007 0.2375,-0.0163 0.355,-0.0275 0.3575,-0.0325 0.7125,-0.0763 1.0662,-0.13375 0.3525,-0.0575 0.70375,-0.13 1.05,-0.21875 0.48625,-0.12 0.96375,-0.2725 1.4275,-0.4575 0.46625,-0.18625 0.91875,-0.40375 1.3538,-0.6525 0.43875,-0.24125 0.86125,-0.51375 1.2625,-0.81375 0.40125,-0.29875 0.78125,-0.62625 1.1375,-0.97875 0.36125,-0.3475 0.6975,-0.71875 1.0088,-1.1112 0.31,-0.39375 0.5925,-0.80875 0.84625,-1.2412 0.25875,-0.4275 0.4875,-0.87375 0.685,-1.335 0.1975,-0.46 0.36375,-0.93375 0.49625,-1.4162 0.14,-0.48125 0.24625,-0.97125 0.3175,-1.4675 0.07125,-0.49625 0.11,-0.99625 0.1125,-1.4962 0.01,-0.50125 -0.015,-1.0025 -0.07375,-1.5 -0.05875,-0.4975 -0.15125,-0.99 -0.2775,-1.475 -0.12,-0.48625 -0.27375,-0.96375 -0.46,-1.4288 -0.185,-0.46625 -0.4025,-0.9175 -0.65,-1.3538 -0.2425,-0.4375 -0.51375,-0.86 -0.81375,-1.2612 -0.3,-0.40125 -0.62625,-0.78125 -0.97875,-1.1375 -0.3475,-0.3625 -0.71875,-0.69875 -1.1125,-1.0088 -0.3925,-0.31 -0.8075,-0.5925 -1.24,-0.84625 -0.42875,-0.25875 -0.875,-0.4875 -1.335,-0.68625 -0.46,-0.1975 -0.93375,-0.3625 -1.4162,-0.49625 -0.48125,-0.13875 -0.97125,-0.245 -1.4675,-0.31625 -0.495,-0.0725 -0.99625,-0.11 -1.4975,-0.11375 -0.5,-0.01 -1.0012,0.015 -1.4988,0.0738 -0.4975,0.0587 -0.99,0.15125 -1.475,0.27875 -0.48625,0.12 -0.9625,0.27375 -1.4275,0.46 -0.46625,0.18625 -0.91875,0.4025 -1.355,0.65 -0.44,0.24 -0.86375,0.51125 -1.2662,0.81125 -0.4025,0.2975 -0.78125,0.625 -1.1338,0.98 -0.12625,0.12375 -0.2475,0.25125 -0.365,0.3825 -0.11875,0.1325 -0.23,0.27 -0.335,0.4125 l -1.7812,-3.0638 -3.0362,11.294 z"/>
    <path d="m 51.82373,23.131997 -2.98,-11.318 -1.8012,3.1025 c -0.0725,-0.0825 -0.1475,-0.165 -0.22375,-0.245 -0.075,-0.0813 -0.1525,-0.16 -0.23,-0.23875 -0.67875,-0.695 -1.4012,-1.3475 -2.1625,-1.9525 -0.76,-0.605 -1.5638,-1.1562 -2.4038,-1.6475 -0.82875,-0.50875 -1.6938,-0.9562504 -2.5875,-1.337501 -0.895,-0.3825 -1.815,-0.7025 -2.7538,-0.9575001 -0.935,-0.27 -1.8862,-0.475 -2.8488,-0.615 -0.9625,-0.14 -1.9338,-0.2125 -2.905,-0.22 -0.9725,-0.0188 -1.945,0.0288 -2.9112,0.1425 -0.965,0.115 -1.9225,0.295 -2.8625,0.54125 -0.945,0.2337501 -1.8712,0.5312501 -2.775,0.8912501 -0.90375,0.3600002 -1.7812,0.782501 -2.6262,1.263801 -0.85125,0.46875 -1.67,0.99625 -2.4488,1.5788 -0.78,0.58125 -1.5175,1.2162 -2.21,1.9 -0.70125,0.67375 -1.355,1.395 -1.9562,2.1588 -0.6025,0.76375 -1.1512,1.5688 -1.6425,2.4075 -0.50375,0.8325 -0.94875,1.6975 -1.3325,2.5912 -0.38375,0.89375 -0.7050003,1.8125 -0.9625,2.75 -0.27125,0.935 -0.47625,1.8862 -0.61625,2.8488 -0.13875,0.9625 -0.2125,1.9338 -0.21875,2.905 -0.01875,0.9725 0.02875,1.945 0.1425,2.9112 0.115,0.965 0.295,1.9225 0.54125,2.8625 0.2325,0.945 0.53,1.8712 0.89125,2.775 0.36,0.90375 0.7825,1.7812 1.2638,2.6262 0.46875,0.85125 0.99625,1.67 1.5788,2.4488 0.58125,0.77875 1.2162,1.5175 1.8987,2.21 0.675,0.70125 1.3962,1.355 2.16,1.9562 0.76375,0.6025 1.5675,1.1512 2.4062,1.6425 0.8325,0.5025 1.6988,0.9475 2.5925,1.3312 0.89375,0.38375 1.8125,0.70625 2.75,0.96375 0.93375,0.27125 1.885,0.47875 2.8475,0.61875 0.9625,0.14 1.9338,0.2125 2.9062,0.21625 0.97375,0.0163 1.9462,-0.0337 2.9125,-0.15125 0.965,-0.11625 1.92,-0.29375 2.8612,-0.5325 0.36375,-0.0863 0.725,-0.18375 1.0825,-0.29125 0.35875,-0.10875 0.71375,-0.23375 1.0625,-0.37375 l -1.62,-4.4375 c -0.2725,0.11375 -0.55,0.2125 -0.8325,0.29625 -0.2825,0.085 -0.5675,0.16 -0.855,0.2275 -0.745,0.17875 -1.5,0.3175 -2.26,0.4125 -0.75875,0.095 -1.5238,0.13625 -2.2888,0.12625 -0.76625,0 -1.5312,-0.055 -2.2888,-0.1675 -0.75875,-0.11125 -1.5088,-0.275 -2.245,-0.49 -0.73875,-0.205 -1.4625,-0.45875 -2.1675,-0.76125 -0.70375,-0.30125 -1.3863,-0.65125 -2.0413,-1.0475 -0.66125,-0.38625 -1.295,-0.81875 -1.8962,-1.2938 -0.6025,-0.47375 -1.17,-0.98875 -1.7012,-1.5425 -0.53875,-0.545 -1.0388,-1.1262 -1.4975,-1.74 -0.4575,-0.615 -0.87375,-1.2588 -1.2438,-1.93 -0.37875,-0.66625 -0.71125,-1.3575 -0.995,-2.0688 -0.28375,-0.71125 -0.51875,-1.4425 -0.7025,-2.1862 -0.19375,-0.74125 -0.33625,-1.495 -0.42625,-2.2562 -0.09,-0.76 -0.1275,-1.5262 -0.1125,-2.2925 0.005,-0.76625 0.0625,-1.5312 0.17375,-2.2888 0.10875,-0.75875 0.27125,-1.5088 0.48375,-2.245 0.20375,-0.73875 0.4575,-1.4625 0.76,-2.1662 0.3025,-0.705 0.6525,-1.3862 1.0488,-2.0425 0.3875,-0.66125 0.82,-1.295 1.2938,-1.8962 0.475,-0.6025 0.99,-1.17 1.5425,-1.7012 0.545,-0.53875 1.1262,-1.0388 1.74,-1.4962 0.61375,-0.45875 1.2588,-0.875 1.93,-1.245 0.66625,-0.37875 1.3575,-0.71125 2.0688,-0.995 0.71125,-0.28375 1.4425,-0.51875 2.1862,-0.7025 0.74125,-0.1925 1.495,-0.335 2.255,-0.425 0.76125,-0.09 1.5275,-0.1275 2.2938,-0.1125 0.76625,0.004 1.5325,0.0612 2.2912,0.17125 0.7575,0.11 1.5075,0.27125 2.2425,0.485 0.7375,0.205 1.46,0.45875 2.1625,0.7625 0.705,0.30375 1.3875,0.65375 2.0462,1.0462 0.665,0.385 1.3038,0.815 1.91,1.2862 0.60375,0.47 1.1675,0.98875 1.6875,1.55 0.08375,0.0875 0.165,0.17625 0.24625,0.26625 0.08125,0.09 0.16,0.1825 0.2375,0.275 l -3.1562,1.815 11.291,3.0462 z"/>
  </symbol>
  <use xlink:href="#notice_turn" x="0" y="0" />
</svg>
