<svg
   xmlns="http://www.w3.org/2000/svg"
   xmlns:xlink="http://www.w3.org/1999/xlink"  
   version="1.1"
   width="60"
   height="60">
  <symbol id="notice_e5_6" width="60" height="60">
    <path d="m 30,7.75 -25.6875,44.5 0,0.03125 0.03125,0.03125 51.4375,0 c 0.006,-0.01 0.02495,-0.02125 0.03125,-0.03125 L 30,7.75 z m -7.6875,17.0625 c 0.0275,-0.003 0.035,0 0.0625,0 l 0.03125,0 14,0 c 0.0225,0 0.07255,-0.003 0.09375,0 0.0238,0.0042 0.04,0.02625 0.0625,0.03125 0.0263,0.0062 0.0375,-0.009 0.0625,0 0.0262,0.0087 0.07005,0.02005 0.09375,0.03125 0.025,0.0113 0.04,0.0488 0.0625,0.0625 0.0225,0.015 0.0412,0.01375 0.0625,0.03125 0.02,0.0163 0.045,0.0437 0.0625,0.0625 0.0175,0.0188 0.01755,0.0412 0.03125,0.0625 0.0149,0.02 0.0513,0.04 0.0625,0.0625 0.0113,0.0225 -0.007,0.0387 0,0.0625 0.0075,0.0237 0.02625,0.0387 0.03125,0.0625 0.004,0.0237 0,0.07005 0,0.09375 0.002,0.025 0.002,0.0375 0,0.0625 -0.0025,0.0237 0.006,0.0388 0,0.0625 C 37.02375,25.5238 37.01,25.54 37,25.5625 c -0.01,0.0224 -0.01755,0.07245 -0.03125,0.09375 L 29.9375,36.25 l 0,0.03125 c -0.0112,0.0163 -0.01875,0.01495 -0.03125,0.03125 -0.0137,0.015 -0.01625,0.0488 -0.03125,0.0625 -0.0188,0.0188 -0.0413,0.01625 -0.0625,0.03125 -0.0212,0.015 -0.06995,0.05 -0.09375,0.0625 -0.0237,0.0124 -0.0375,0.02125 -0.0625,0.03125 -0.025,0.01 -0.035,-0.006 -0.0625,0 -0.0263,0.0073 -0.06625,0.02725 -0.09375,0.03125 -0.0275,0.005 -0.06625,-10e-4 -0.09375,0 -0.0275,0 -0.0337,0.003 -0.0625,0 -0.0275,-0.0025 -0.06755,0.005 -0.09375,0 C 29.2225,36.52505 29.2138,36.509 29.1875,36.5 c -0.0263,-0.0075 -0.07005,-0.01995 -0.09375,-0.03125 -0.025,-0.0113 -0.04,-0.01745 -0.0625,-0.03125 -0.0224,-0.0137 -0.0425,-0.045 -0.0625,-0.0625 -0.02,-0.0162 -0.0463,-0.01245 -0.0625,-0.03125 -0.0187,-0.0188 -0.0475,-0.0412 -0.0625,-0.0625 l 0,-0.03125 -7,-10.59375 c -0.0113,-0.0176 -0.02225,-0.0438 -0.03125,-0.0625 -0.0087,-0.0175 -0.02525,-0.0425 -0.03125,-0.0625 -0.0075,-0.0225 0.005,-0.0375 0,-0.0625 C 21.77725,25.44505 21.751,25.3988 21.75,25.375 c 0,-0.0237 -0.002,-0.0387 0,-0.0625 0.0025,-0.025 0.02525,-0.0387 0.03125,-0.0625 0.0063,-0.0238 0.02125,-0.0388 0.03125,-0.0625 0.01,-0.0225 0.01745,-0.07245 0.03125,-0.09375 0.0126,-0.0212 0.01505,-0.01125 0.03125,-0.03125 0.0162,-0.02 0.0438,-0.045 0.0625,-0.0625 0.0201,-0.0175 0.0413,-0.0463 0.0625,-0.0625 0.0213,-0.015 0.0375,-0.01875 0.0625,-0.03125 C 22.085,24.89255 22.1,24.885 22.125,24.875 c 0.0262,-0.01 0.06755,-0.02325 0.09375,-0.03125 0.0262,-0.0063 0.06625,-0.02725 0.09375,-0.03125 z m 0,13.5 c 0.0275,-0.003 0.035,0 0.0625,0 l 0.03125,0 14,0 c 0.0225,0 0.07255,-0.003 0.09375,0 0.0238,0.0042 0.04,0.02625 0.0625,0.03125 0.0263,0.0062 0.0375,-0.01 0.0625,0 0.0262,0.0087 0.07005,0.02005 0.09375,0.03125 0.025,0.0113 0.04,0.0488 0.0625,0.0625 0.0225,0.015 0.0412,0.01375 0.0625,0.03125 0.02,0.0163 0.045,0.0437 0.0625,0.0625 0.0175,0.0188 0.01755,0.0412 0.03125,0.0625 0.0149,0.02 0.0513,0.04 0.0625,0.0625 0.0113,0.0225 -0.007,0.0387 0,0.0625 0.0075,0.0237 0.02625,0.0387 0.03125,0.0625 0.004,0.0237 0,0.07005 0,0.09375 0.002,0.025 0.002,0.0375 0,0.0625 -0.0025,0.0237 0.006,0.0388 0,0.0625 C 37.02375,39.0238 37.01,39.04 37,39.0625 c -0.01,0.0224 -0.01755,0.07245 -0.03125,0.09375 L 29.9375,49.75 l 0,0.03125 c -0.0112,0.0163 -0.01875,0.01495 -0.03125,0.03125 -0.0137,0.015 -0.01625,0.0488 -0.03125,0.0625 -0.0188,0.0188 -0.0413,0.01625 -0.0625,0.03125 -0.0212,0.015 -0.06995,0.05 -0.09375,0.0625 -0.0237,0.0124 -0.0375,0.02125 -0.0625,0.03125 -0.025,0.01 -0.035,-0.006 -0.0625,0 -0.0263,0.0073 -0.06625,0.02725 -0.09375,0.03125 -0.0275,0.005 -0.06625,-10e-4 -0.09375,0 -0.0275,0 -0.0337,0.003 -0.0625,0 -0.0275,-0.0025 -0.06755,0.005 -0.09375,0 C 29.2225,50.02505 29.2138,50.009 29.1875,50 c -0.0263,-0.0075 -0.07005,-0.01995 -0.09375,-0.03125 -0.025,-0.0113 -0.04,-0.01745 -0.0625,-0.03125 -0.0224,-0.0137 -0.0425,-0.045 -0.0625,-0.0625 -0.02,-0.0162 -0.0463,-0.01245 -0.0625,-0.03125 -0.0187,-0.0188 -0.0475,-0.0412 -0.0625,-0.0625 l 0,-0.03125 -7,-10.59375 c -0.0113,-0.0176 -0.02225,-0.0438 -0.03125,-0.0625 -0.0087,-0.0175 -0.02525,-0.0425 -0.03125,-0.0625 -0.0075,-0.0225 0.005,-0.0375 0,-0.0625 C 21.77725,38.94505 21.751,38.8988 21.75,38.875 c 0,-0.0237 -0.002,-0.0387 0,-0.0625 0.0025,-0.025 0.02525,-0.0387 0.03125,-0.0625 0.0063,-0.0238 0.02125,-0.0388 0.03125,-0.0625 0.01,-0.0225 0.01745,-0.07245 0.03125,-0.09375 0.0126,-0.0212 0.01505,-0.01125 0.03125,-0.03125 0.0162,-0.02 0.0438,-0.045 0.0625,-0.0625 0.0201,-0.0175 0.0413,-0.0475 0.0625,-0.0625 0.0213,-0.015 0.0375,-0.01875 0.0625,-0.03125 C 22.085,38.39255 22.1,38.385 22.125,38.375 c 0.0262,-0.01 0.06755,-0.02325 0.09375,-0.03125 0.0262,-0.0063 0.06625,-0.02725 0.09375,-0.03125 z" />
  </symbol>
  <use xlink:href="#notice_e5_6" x="0" y="0" />
</svg>
