<svg
   xmlns="http://www.w3.org/2000/svg"
   xmlns:xlink="http://www.w3.org/1999/xlink"  
   version="1.1"
   width="60"
   height="60">
  <symbol id="notice_e5_11" width="60" height="60">
    <path d="M 8.9375,11.7935 8.90625,11.82475 29.96875,48.231 51.0625,11.7935 l -42.125,0 z m 16.71875,4.28125 8.6875,0 c 0.01432,10e-4 0.01795,0.03023 0.03125,0.03125 0.01432,0.002 0.0492,-0.0031 0.0625,0 0.01739,0.0031 0.01488,-0.0051 0.03125,0 0.01535,0.0051 0.04715,0.02307 0.0625,0.03125 0.01535,0.0072 0.01693,0.02204 0.03125,0.03125 0.01432,0.0092 0.01795,0.02102 0.03125,0.03125 0.01228,0.01125 0.02,0.01897 0.03125,0.03125 0.01023,0.01125 0.02204,0.01897 0.03125,0.03125 0.0092,0.0133 0.02511,0.01795 0.03125,0.03125 0.0072,0.01432 0.02613,0.01693 0.03125,0.03125 0.0041,0.01432 -0.0031,0.04715 0,0.0625 0.0031,0.01432 0,0.0159 0,0.03125 10e-4,0.01535 10e-4,0.04715 0,0.0625 -0.002,0.01535 0.0051,0.01693 0,0.03125 -0.0031,0.01535 -0.02511,0.04818 -0.03125,0.0625 -0.0061,0.01432 0.0092,0.01795 0,0.03125 l -4.34375,6.5625 c -0.0072,0.01023 -0.02307,0.02204 -0.03125,0.03125 -0.0082,0.01023 -0.02102,0.02204 -0.03125,0.03125 -0.01125,0.01125 -0.01795,0.02204 -0.03125,0.03125 -0.0133,0.01023 -0.04715,0.02307 -0.0625,0.03125 -0.01432,0.0072 -0.0159,0.02614 -0.03125,0.03125 -0.01637,0.0061 -0.04613,-0.0031 -0.0625,0 -0.01637,0.0051 -0.01386,0.0292 -0.03125,0.03125 -0.01637,0.0031 -0.04511,0 -0.0625,0 -0.01739,10e-4 -0.01488,10e-4 -0.03125,0 -0.01739,-0.001 -0.04613,-0.02716 -0.0625,-0.03125 -0.01637,-0.0031 -0.04715,0.0051 -0.0625,0 -0.01637,-0.0061 -0.0159,-0.02409 -0.03125,-0.03125 -0.01535,-0.0072 -0.04818,0.0082 -0.0625,0 -0.0133,-0.0092 -0.01897,-0.02102 -0.03125,-0.03125 -0.0133,-0.01023 -0.02,-0.02 -0.03125,-0.03125 -0.01023,-0.01228 -0.02204,-0.01897 -0.03125,-0.03125 l 0,-0.03125 -4.34375,-6.5625 c -0.0072,-0.01023 -0.02614,-0.02 -0.03125,-0.03125 -0.0051,-0.01125 0.0031,-0.01897 0,-0.03125 -0.0061,-0.01432 0.0031,-0.04715 0,-0.0625 -0.002,-0.01432 0,-0.0159 0,-0.03125 -0.001,-0.01535 -0.001,-0.04715 0,-0.0625 0.002,-0.01535 -0.0041,-0.0159 0,-0.03125 0.0041,-0.01432 -0.0061,-0.01693 0,-0.03125 0.0061,-0.01432 0.02307,-0.0492 0.03125,-0.0625 0.0082,-0.0133 0.02102,-0.02 0.03125,-0.03125 0.01023,-0.01228 0.01897,-0.02102 0.03125,-0.03125 0.01125,-0.01125 0.01795,-0.02204 0.03125,-0.03125 0.0133,-0.01023 0.04715,-0.02307 0.0625,-0.03125 0.01432,-0.0082 0.0159,-0.02511 0.03125,-0.03125 0.01637,-0.0061 0.04511,0.0041 0.0625,0 0.01637,-0.0041 0.01386,0.0031 0.03125,0 0.01637,-0.002 0.04511,-0.03023 0.0625,-0.03125 z m -0.0625,7.875 c 0.01637,-0.002 0.04511,10e-4 0.0625,0 l 8.6875,0 c 0.01432,10e-4 0.01795,-0.001 0.03125,0 0.01432,0.002 0.0492,0.02818 0.0625,0.03125 0.01739,0.0031 0.01488,-0.0051 0.03125,0 0.01535,0.0051 0.04715,0.02409 0.0625,0.03125 0.01535,0.0082 0.01693,-0.0092 0.03125,0 0.01432,0.0092 0.01795,0.02102 0.03125,0.03125 0.01228,0.01125 0.02,0.01897 0.03125,0.03125 0.01023,0.01125 0.02204,0.01897 0.03125,0.03125 0.0092,0.0133 0.02511,0.0492 0.03125,0.0625 0.0072,0.01432 0.02613,0.01693 0.03125,0.03125 0.0041,0.01432 -0.0031,0.04715 0,0.0625 0.0031,0.01432 0,0.0159 0,0.03125 10e-4,0.01535 10e-4,0.0159 0,0.03125 -0.002,0.01535 0.0051,0.04818 0,0.0625 -0.0031,0.01535 -0.02511,0.01693 -0.03125,0.03125 -0.0061,0.0133 0.0092,0.0492 0,0.0625 l -4.34375,6.5625 c -0.0072,0.01023 -0.02307,0.02204 -0.03125,0.03125 -0.0082,0.01023 -0.02102,0.02204 -0.03125,0.03125 -0.01125,0.01125 -0.01795,0.02204 -0.03125,0.03125 -0.0133,0.01023 -0.04715,0.02409 -0.0625,0.03125 -0.01432,0.0082 -0.0159,-0.0061 -0.03125,0 -0.01637,0.0061 -0.04613,0.02818 -0.0625,0.03125 -0.01637,0.0051 -0.01386,-0.002 -0.03125,0 -0.01637,0.0031 -0.04511,0 -0.0625,0 -0.01739,10e-4 -0.01488,10e-4 -0.03125,0 -0.01739,-0.001 -0.04613,0.0041 -0.0625,0 -0.01637,-0.0031 -0.04715,0.0051 -0.0625,0 -0.01637,-0.0061 -0.0159,-0.02409 -0.03125,-0.03125 -0.01535,-0.0072 -0.04818,-0.02307 -0.0625,-0.03125 -0.0133,-0.0092 -0.01897,-0.02102 -0.03125,-0.03125 -0.0133,-0.01023 -0.02,-0.02 -0.03125,-0.03125 -0.01023,-0.01228 -0.02204,-0.01897 -0.03125,-0.03125 L 25.3125,24.481 c -0.0072,-0.01023 -0.02614,-0.02 -0.03125,-0.03125 -0.0051,-0.01125 0.0031,-0.05022 0,-0.0625 -0.0061,-0.01432 0.0031,-0.0159 0,-0.03125 -0.002,-0.01432 0,-0.0159 0,-0.03125 -0.001,-0.01535 -0.001,-0.04715 0,-0.0625 0.002,-0.01535 -0.0041,-0.0159 0,-0.03125 0.0041,-0.01432 -0.0061,-0.04818 0,-0.0625 0.0061,-0.01432 0.02307,-0.01795 0.03125,-0.03125 0.0082,-0.0133 0.02102,-0.02 0.03125,-0.03125 0.01023,-0.01228 0.01897,-0.02102 0.03125,-0.03125 0.01125,-0.01125 0.01795,-0.02102 0.03125,-0.03125 0.0133,-0.0092 0.04715,-0.02307 0.0625,-0.03125 0.01432,-0.0082 0.0159,-0.02511 0.03125,-0.03125 0.01637,-0.0061 0.04511,0.0041 0.0625,0 0.01637,-0.0041 0.01386,-0.02818 0.03125,-0.03125 z m -0.03125,7.875 c 0.01637,-0.0041 0.01386,0.0031 0.03125,0 0.01637,-0.002 0.04511,10e-4 0.0625,0 l 8.6875,0 c 0.01432,10e-4 0.01795,-0.001 0.03125,0 0.01432,0.002 0.0492,-0.0031 0.0625,0 0.01739,0.0031 0.01488,-0.0051 0.03125,0 0.01535,0.0051 0.04715,0.02307 0.0625,0.03125 0.01535,0.0072 0.01693,0.02204 0.03125,0.03125 0.01432,0.0092 0.01795,0.02102 0.03125,0.03125 0.01228,0.01125 0.02,0.01897 0.03125,0.03125 0.01023,0.01125 0.02204,0.01897 0.03125,0.03125 0.0092,0.0133 0.02511,0.01795 0.03125,0.03125 0.0072,0.01432 0.02613,0.04818 0.03125,0.0625 0.0041,0.01432 -0.0031,0.0159 0,0.03125 0.0031,0.01432 0,0.0159 0,0.03125 10e-4,0.01535 10e-4,0.04715 0,0.0625 -0.002,0.01535 0.0051,0.01693 0,0.03125 -0.0031,0.01535 -0.02511,0.04818 -0.03125,0.0625 -0.0061,0.0133 0.0092,0.01795 0,0.03125 l -4.34375,6.5625 0,0.03125 c -0.0072,0.01023 -0.02307,0.02204 -0.03125,0.03125 -0.0082,0.01023 -0.02102,-0.0092 -0.03125,0 C 30.27,38.961 30.2633,38.97179 30.25,38.981 c -0.0133,0.0092 -0.04715,0.02409 -0.0625,0.03125 -0.01432,0.0082 -0.0159,0.02613 -0.03125,0.03125 -0.01637,0.0061 -0.04613,-0.0031 -0.0625,0 -0.01637,0.0051 -0.01386,0.0292 -0.03125,0.03125 -0.01637,0.0031 -0.04511,0 -0.0625,0 -0.01739,10e-4 -0.01488,10e-4 -0.03125,0 -0.01739,-0.002 -0.04613,0.0041 -0.0625,0 -0.01637,-0.0031 -0.04715,-0.02613 -0.0625,-0.03125 -0.01637,-0.0061 -0.0159,0.0072 -0.03125,0 -0.01535,-0.0072 -0.04818,-0.02307 -0.0625,-0.03125 -0.0133,-0.0092 -0.01897,-0.02102 -0.03125,-0.03125 -0.0133,-0.01023 -0.02,-0.02 -0.03125,-0.03125 -0.01023,-0.01228 -0.02204,-0.01897 -0.03125,-0.03125 l 0,-0.03125 -4.34375,-6.5625 c -0.0072,-0.01023 -0.02614,-0.02 -0.03125,-0.03125 -0.0051,-0.01125 0.0031,-0.01897 0,-0.03125 -0.0061,-0.01432 0.0031,-0.04715 0,-0.0625 -0.002,-0.01432 0,-0.0159 0,-0.03125 -0.001,-0.01535 -0.001,-0.0159 0,-0.03125 0.002,-0.01535 -0.0041,-0.04715 0,-0.0625 0.0041,-0.01432 -0.0061,-0.01693 0,-0.03125 0.0061,-0.01432 0.02307,-0.0492 0.03125,-0.0625 0.0082,-0.0133 0.02102,-0.01897 0.03125,-0.03125 0.01023,-0.01228 0.01897,-0.02102 0.03125,-0.03125 0.01125,-0.01125 0.01795,-0.02204 0.03125,-0.03125 0.0133,-0.01023 0.04715,-0.02307 0.0625,-0.03125 0.01432,-0.0082 0.0159,0.0061 0.03125,0 0.01637,-0.0061 0.04511,-0.02716 0.0625,-0.03125 z" />
  </symbol>
  <use xlink:href="#notice_e5_11" x="0" y="0" />
</svg>
