<svg
   xmlns="http://www.w3.org/2000/svg"
   xmlns:xlink="http://www.w3.org/1999/xlink"  
   version="1.1"
   width="60"
   height="60">
  <symbol id="notice_e3" width="60" height="60">
    <path d="m 5,12.5 0,35 5,0 0,-0.28125 40,0 0,0.28125 5,0 0,-35 -5,0 0,7.59375 -40,0 0,-7.59375 -5,0 z m 5,11 5.5,0 0,20.3125 -5.5,0 L 10,23.5 z m 8.46875,0 5.53125,0 0,20.3125 -5.53125,0 0,-20.3125 z m 8.625,0 5.90625,0 0,20.3125 -5.90625,0 0,-20.3125 z m 9,0 5.40625,0 0,20.3125 -5.40625,0 0,-20.3125 z m 8.5,0 5.40625,0 0,20.3125 -5.40625,0 0,-20.3125 z"/>
  </symbol>
  <use xlink:href="#notice_e3" x="0" y="0" />
</svg>
