<?xml version="1.0" encoding="UTF-8" standalone="no"?>
<!-- Created with Inkscape (http://www.inkscape.org/) -->
<svg id="svg2" xmlns:rdf="http://www.w3.org/1999/02/22-rdf-syntax-ns#" xmlns="http://www.w3.org/2000/svg" height="60" width="60" version="1.1" xmlns:cc="http://creativecommons.org/ns#" xmlns:dc="http://purl.org/dc/elements/1.1/">
 <metadata id="metadata7">
  <rdf:RDF>
   <cc:Work rdf:about="">
    <dc:format>image/svg+xml</dc:format>
    <dc:type rdf:resource="http://purl.org/dc/dcmitype/StillImage"/>
    <dc:title/>
   </cc:Work>
  </rdf:RDF>
 </metadata>
 <g id="layer16" transform="translate(0,-60)">
  <g id="g6935" transform="matrix(.97220 0 0 .97220 -28.332 31.668)">
   <g id="layer1-11" transform="translate(-290 -472.36)">
    <g id="g2944" transform="matrix(.84345 0 0 .84345 54.792 83.341)">
     <path id="path20616" stroke-linejoin="bevel" d="m318.82 567.8h-0.0337c-0.18375-0.001-0.36625-0.0137-0.54875-0.0387-0.1825-0.0238-0.3625-0.0625-0.53875-0.1125-0.17875-0.045-0.35375-0.105-0.5225-0.17625-0.17-0.0712-0.33375-0.15375-0.49125-0.2475-0.16-0.0913-0.3125-0.19375-0.45875-0.305-0.14625-0.1125-0.28375-0.235-0.4125-0.365-0.13125-0.13-0.25375-0.2675-0.365-0.4125-0.1125-0.14625-0.21375-0.29875-0.30625-0.45875-0.0925-0.15875-0.175-0.3225-0.24625-0.4925-0.07-0.16875-0.13-0.34375-0.1775-0.52125-0.05-0.1775-0.0887-0.3575-0.11375-0.54-0.0263-0.18125-0.0375-0.365-0.0375-0.54875v-62.429c0.001-0.18375 0.015-0.3675 0.0387-0.54875 0.025-0.1825 0.0625-0.3625 0.1125-0.54 0.0463-0.1775 0.105-0.3525 0.17625-0.52125 0.0712-0.17 0.15375-0.33375 0.2475-0.4925 0.0925-0.15875 0.195-0.3125 0.30625-0.4575 0.1125-0.14625 0.23375-0.28375 0.365-0.41375 0.12875-0.13 0.26625-0.2525 0.4125-0.36375 0.145-0.1125 0.29875-0.215 0.45875-0.30625 0.1575-0.0925 0.3225-0.175 0.49125-0.24625 0.17-0.0713 0.34375-0.13 0.5225-0.1775 0.17625-0.0512 0.35625-0.0888 0.53875-0.115 0.1825-0.025 0.365-0.0375 0.54875-0.0362h62.429c0.18375 0.001 0.3675 0.0138 0.55 0.0387 0.18125 0.025 0.36125 0.0625 0.53875 0.1125 0.17875 0.0462 0.3525 0.105 0.5225 0.17625 0.16875 0.0713 0.33375 0.15375 0.49125 0.2475 0.15875 0.0913 0.3125 0.19375 0.45875 0.30625 0.145 0.11125 0.28375 0.23375 0.4125 0.36375 0.13125 0.13 0.2525 0.2675 0.365 0.41375 0.1125 0.145 0.21375 0.29875 0.305 0.4575 0.0937 0.15875 0.17625 0.3225 0.24625 0.4925 0.0713 0.17 0.13125 0.34375 0.17875 0.52125 0.05 0.1775 0.0875 0.3575 0.11375 0.54 0.0263 0.1825 0.0375 0.365 0.0362 0.54875v62.429c-0.001 0.18375-0.0138 0.3675-0.0387 0.54875-0.0238 0.1825-0.0613 0.3625-0.11125 0.54-0.0463 0.1775-0.105 0.3525-0.1775 0.52125-0.0713 0.17-0.15375 0.33375-0.2475 0.4925-0.0913 0.16-0.19375 0.3125-0.305 0.45875-0.1125 0.145-0.23375 0.2825-0.365 0.4125-0.12875 0.13-0.2675 0.2525-0.4125 0.365-0.14625 0.11125-0.29875 0.21375-0.45875 0.305-0.15875 0.0925-0.3225 0.175-0.4925 0.24625-0.16875 0.0713-0.34375 0.13-0.52125 0.1775-0.1775 0.0512-0.3575 0.0888-0.54 0.115-0.18125 0.025-0.365 0.0375-0.54875 0.0362h-62.395z" stroke="#000" stroke-miterlimit="22.926" stroke-width=".27772" fill="#fff"/>
     <path id="path20600" d="m319.33 565.56h-0.0197c-0.10944 0-0.21765-0.009-0.32586-0.0221-0.10821-0.0148-0.21519-0.0382-0.31972-0.0677-0.10575-0.0271-0.20904-0.0615-0.30987-0.10453-0.10084-0.0418-0.19798-0.091-0.29267-0.14633-0.0934-0.0541-0.18568-0.11559-0.27175-0.18199-0.0861-0.0664-0.16847-0.13895-0.24471-0.21642-0.0775-0.0762-0.15002-0.15863-0.21642-0.2447-0.0664-0.0861-0.12666-0.17708-0.18076-0.27176-0.0553-0.0946-0.10452-0.19183-0.14633-0.29266-0.0418-0.10084-0.0775-0.2029-0.10575-0.30865-0.0295-0.10575-0.0529-0.21274-0.0677-0.32095-0.0147-0.10698-0.0221-0.21642-0.0221-0.32586v-61.386c0.00098-0.10944 0.009-0.21888 0.0233-0.32586 0.0148-0.10821 0.0369-0.21519 0.0664-0.32094 0.0271-0.10576 0.0627-0.20905 0.10452-0.30988 0.0418-0.0996 0.091-0.19798 0.14756-0.29143 0.0541-0.0946 0.11436-0.18568 0.18076-0.27176 0.0664-0.0861 0.13895-0.16847 0.21642-0.24471 0.0762-0.0775 0.15863-0.15002 0.24471-0.21642 0.0861-0.0664 0.1783-0.12788 0.27176-0.18076 0.0947-0.0554 0.19182-0.10452 0.29266-0.14633 0.10083-0.043 0.20412-0.0775 0.30987-0.10575 0.10453-0.0295 0.21151-0.0528 0.31972-0.0677 0.10821-0.0148 0.21642-0.0221 0.32586-0.0221h61.388c0.10821 0.00099 0.21765 0.009 0.32586 0.0234 0.10822 0.0147 0.2152 0.0369 0.31972 0.0664 0.10575 0.027 0.20904 0.0615 0.30988 0.10452 0.10083 0.0418 0.19797 0.091 0.29143 0.14756 0.0946 0.0528 0.18568 0.11436 0.27176 0.18076 0.0873 0.0664 0.16846 0.13896 0.24593 0.21642 0.0775 0.0762 0.14879 0.15863 0.21642 0.24471 0.0664 0.0861 0.12666 0.17707 0.18076 0.27176 0.0553 0.0934 0.1033 0.19183 0.14633 0.29143 0.0418 0.10083 0.0775 0.20412 0.10576 0.30988 0.0295 0.10575 0.0516 0.21273 0.0677 0.32094 0.0147 0.10698 0.0221 0.21642 0.0209 0.32586v61.386c0 0.10944-0.009 0.21888-0.0234 0.32586-0.0136 0.10821-0.0356 0.2152-0.0652 0.32095-0.0282 0.10575-0.0627 0.20904-0.10453 0.30988-0.043 0.0996-0.0922 0.19797-0.14756 0.29143-0.0541 0.0947-0.11559 0.18568-0.18076 0.27176-0.0676 0.0861-0.13895 0.16846-0.21642 0.2447-0.0775 0.0787-0.15863 0.15002-0.24593 0.21642-0.0861 0.0677-0.17708 0.12789-0.27176 0.18199-0.0935 0.0541-0.1906 0.1033-0.29143 0.1451-0.10084 0.0431-0.20413 0.0775-0.30988 0.10576-0.10452 0.0307-0.2115 0.0528-0.31972 0.0677-0.10821 0.0159-0.21765 0.0233-0.32586 0.0221h-61.368z" fill-rule="evenodd" fill="#e72512"/>
     <path id="path20604" d="m366.47 555.98-40.09-40.09v40.09h40.09" fill-rule="evenodd" fill="#fff"/>
     <path id="path20608" d="m373.62 548.83v-40.09h-40.09l40.09 40.09" fill-rule="evenodd" fill="#fff"/>
     <path id="path20612" stroke-linejoin="bevel" d="m318.82 567.73h62.379 0.0163c0.18125-0.001 0.36125-0.0137 0.54-0.0375 0.18-0.025 0.3575-0.0612 0.53125-0.11125 0.175-0.045 0.3475-0.10375 0.51375-0.17375s0.32875-0.15125 0.48375-0.24375c0.1575-0.09 0.3075-0.19 0.45125-0.3 0.1425-0.11125 0.27875-0.23125 0.40625-0.35875 0.12875-0.1275 0.24875-0.26375 0.35875-0.40625 0.11-0.14375 0.21-0.295 0.3-0.45125 0.0925-0.15625 0.1725-0.3175 0.2425-0.485 0.07-0.16625 0.12875-0.3375 0.175-0.5125 0.05-0.175 0.0875-0.3525 0.1125-0.53125s0.0375-0.36 0.0362-0.54v-62.429c-0.001-0.18-0.0138-0.36125-0.0375-0.54-0.0238-0.17875-0.0612-0.35625-0.11125-0.53125-0.045-0.175-0.1025-0.34625-0.1725-0.5125-0.0712-0.1675-0.1525-0.32875-0.245-0.485-0.09-0.15625-0.19-0.3075-0.3-0.45-0.11-0.14375-0.23-0.28-0.35875-0.40625-0.1275-0.12875-0.26375-0.24875-0.40625-0.36-0.14375-0.11-0.29375-0.21-0.45125-0.3-0.15625-0.0913-0.3175-0.1725-0.485-0.2425-0.16625-0.07-0.3375-0.1275-0.5125-0.175-0.17375-0.05-0.35125-0.0875-0.53125-0.1125-0.17875-0.025-0.36-0.0375-0.54-0.0362h-62.428c-0.18125 0.001-0.36125 0.0138-0.54125 0.0375-0.17875 0.025-0.35625 0.0612-0.53 0.11125-0.17625 0.045-0.3475 0.10375-0.51375 0.17375-0.1675 0.07-0.32875 0.15125-0.485 0.24375-0.15625 0.09-0.3075 0.19-0.45 0.3-0.14375 0.11125-0.27875 0.23125-0.40625 0.36-0.12875 0.12625-0.24875 0.2625-0.35875 0.40625-0.11125 0.1425-0.21125 0.29375-0.30125 0.45-0.0913 0.15625-0.1725 0.31875-0.2425 0.485-0.0687 0.1675-0.1275 0.33875-0.175 0.5125-0.0488 0.175-0.0863 0.3525-0.1125 0.53125-0.025 0.17875-0.0375 0.36-0.035 0.54v0.0163l-0.001 0.0175v62.361l0.001 0.0175v0.0163c0 0.18 0.0125 0.36125 0.0375 0.54 0.0238 0.17875 0.0612 0.35625 0.11 0.53125 0.045 0.175 0.10375 0.34625 0.17375 0.51375 0.07 0.16625 0.15125 0.3275 0.24375 0.48375 0.09 0.15625 0.19125 0.3075 0.30125 0.45125 0.11 0.1425 0.23 0.27875 0.35875 0.40625 0.1275 0.1275 0.2625 0.2475 0.40625 0.35875 0.1425 0.11 0.29375 0.21 0.45 0.3 0.15625 0.0912 0.31875 0.1725 0.485 0.2425 0.1675 0.07 0.33875 0.12875 0.51375 0.175 0.17375 0.05 0.35125 0.0875 0.53125 0.1125 0.17875 0.025 0.35875 0.0375 0.54 0.0362h0.0163 0.0163z" stroke="#231f20" stroke-miterlimit="22.926" stroke-width="2.439" fill="none"/>
     <path id="path20620" stroke-linejoin="bevel" d="m329.82 535.87v0.89l0.002 0.0425c0 0.0138 0.001 0.0288 0.002 0.0425 0.0113 0.1625 0.0437 0.3225 0.0962 0.4775 0.0513 0.155 0.12875 0.30125 0.22625 0.43125 0.0738 0.11 0.1625 0.20875 0.26375 0.295 0.10125 0.085 0.2125 0.155 0.33375 0.20875 0.13125 0.0625 0.2725 0.105 0.41625 0.125 0.14625 0.0213 0.29375 0.0237 0.44125 0.007 0.14875-0.0112 0.29625-0.0437 0.4375-0.0937 0.14-0.05 0.27125-0.12125 0.38875-0.2125 0.12375-0.0925 0.23125-0.20625 0.3175-0.33375 0.0875-0.12875 0.15625-0.26875 0.20625-0.41625 0.0163-0.0475 0.0312-0.0962 0.045-0.145 0.0125-0.05 0.0238-0.0987 0.0312-0.14875 0.004-0.0213 0.006-0.0425 0.01-0.0625 0.002-0.0213 0.005-0.0425 0.007-0.0638v-1.9338-0.0712c0-0.0238-0.001-0.0462-0.002-0.07-0.006-0.095-0.0238-0.18875-0.0512-0.28-0.0263-0.0912-0.0613-0.18125-0.1025-0.2675-0.04-0.09-0.0875-0.17625-0.14125-0.25875-0.0537-0.0812-0.11625-0.15625-0.18625-0.22375-0.0437-0.0438-0.0913-0.085-0.14-0.12125-0.05-0.0375-0.1025-0.0712-0.15625-0.10125-0.0213-0.0125-0.0425-0.0238-0.0638-0.035-0.0225-0.0113-0.0437-0.0225-0.065-0.0338l-2.0512-0.87-0.0487-0.02c-0.0163-0.006-0.0325-0.0125-0.0488-0.02-0.1275-0.0538-0.25-0.1175-0.3675-0.19s-0.23125-0.1525-0.34-0.23875c-0.20375-0.15625-0.3925-0.33125-0.56375-0.52375-0.17-0.19125-0.32125-0.40125-0.44875-0.625-0.15375-0.25375-0.27625-0.525-0.365-0.80875-0.0888-0.28125-0.14375-0.5725-0.16375-0.8675-0.002-0.0237-0.004-0.0475-0.006-0.0712l-0.005-0.0712v-1.4125c0-0.0388 0.001-0.0775 0.001-0.11625 0-0.0387 0.002-0.0775 0.004-0.11625 0.01-0.20875 0.0425-0.415 0.0937-0.6175 0.0512-0.20375 0.12-0.40375 0.20375-0.59625 0.12-0.29625 0.27375-0.57875 0.4575-0.84 0.18375-0.26 0.40125-0.49625 0.645-0.7 0.25125-0.2225 0.53125-0.4075 0.835-0.55125 0.3025-0.14375 0.625-0.2425 0.95625-0.29375 0.275-0.05 0.55625-0.0663 0.83625-0.0475 0.27875 0.0187 0.555 0.0712 0.82125 0.15875 0.34625 0.105 0.675 0.2625 0.97375 0.46875 0.3 0.205 0.57 0.4525 0.8 0.735 0.19375 0.22375 0.36125 0.47 0.49875 0.73375 0.1375 0.26125 0.24375 0.5375 0.3175 0.8225 0.0325 0.11875 0.06 0.23875 0.0825 0.35875 0.0213 0.12 0.0375 0.24125 0.0462 0.36375 0.002 0.0263 0.005 0.0537 0.006 0.08l0.006 0.08v1.075h-2.245v-0.89375l-0.005-0.0475-0.005-0.0462c-0.0113-0.0962-0.0263-0.19125-0.045-0.28625-0.02-0.0937-0.0487-0.18625-0.0863-0.275-0.0537-0.13625-0.12875-0.26125-0.22375-0.37375s-0.20625-0.21125-0.32875-0.2925c-0.11375-0.0813-0.2375-0.14625-0.3675-0.19375-0.13-0.0462-0.26625-0.0738-0.40375-0.08-0.195-0.0137-0.39125 0.0113-0.57625 0.0763-0.1875 0.0637-0.36125 0.16375-0.50875 0.295-0.1225 0.1-0.22875 0.21875-0.31375 0.3525-0.0825 0.13125-0.14375 0.275-0.17875 0.42625-0.0138 0.0537-0.025 0.1075-0.0337 0.1625-0.007 0.055-0.015 0.11-0.02 0.165l-0.005 0.05-0.005 0.05v1.0638l0.002 0.0425c0.001 0.0137 0.002 0.0288 0.004 0.0425 0.01 0.1075 0.0288 0.215 0.0563 0.32s0.0637 0.2075 0.11125 0.305c0.04 0.0925 0.0888 0.18 0.14625 0.26375 0.0562 0.0825 0.12125 0.15875 0.19375 0.22875 0.0387 0.04 0.08 0.0775 0.12375 0.11125 0.0437 0.035 0.0888 0.0662 0.13625 0.0937 0.0162 0.01 0.0325 0.02 0.05 0.0287l0.05 0.0263 1.7012 0.71875 0.055 0.0263 0.0537 0.0275c0.12125 0.0575 0.24375 0.1125 0.3675 0.16625 0.1225 0.0538 0.2425 0.1125 0.36 0.1775 0.15875 0.0863 0.30875 0.1875 0.44875 0.3025 0.14125 0.115 0.2725 0.24125 0.39375 0.37625 0.155 0.165 0.295 0.34125 0.41875 0.52875 0.12375 0.18625 0.23 0.385 0.31875 0.59125 0.0937 0.21125 0.1675 0.43125 0.2225 0.6575 0.0537 0.225 0.09 0.45375 0.10875 0.68375l0.005 0.055 0.005 0.055v2.0988l-0.004 0.045-0.004 0.045c-0.015 0.155-0.0325 0.31-0.0563 0.46375-0.0225 0.155-0.0537 0.3075-0.0937 0.45875-0.0775 0.31375-0.19625 0.61625-0.355 0.89875-0.1575 0.28375-0.35375 0.54625-0.58 0.77875-0.19625 0.215-0.41625 0.405-0.65625 0.5675-0.24 0.16125-0.4975 0.2925-0.76875 0.3925-0.28125 0.10875-0.57375 0.18375-0.8725 0.22-0.29875 0.0375-0.6025 0.0362-0.9025-0.001-0.40125-0.0412-0.7925-0.14875-1.16-0.31625-0.36875-0.16625-0.70625-0.39375-0.99875-0.67125-0.25625-0.22625-0.4775-0.4875-0.66-0.77625-0.18125-0.2863-0.32125-0.5963-0.41625-0.9213-0.0525-0.1675-0.095-0.33875-0.125-0.51125s-0.0512-0.34625-0.065-0.52125l-0.004-0.0538-0.004-0.055v-1.0488h2.25z" fill-rule="evenodd" stroke="#000" stroke-miterlimit="22.926" stroke-width=".27772"/>
     <path id="path20624" stroke-linejoin="bevel" d="m337.27 540.61v-16.534h3.8162l0.0825 0.006c0.0275 0.003 0.055 0.005 0.0825 0.008 0.2025 0.02 0.4025 0.0575 0.59875 0.1125 0.19625 0.0538 0.3875 0.12625 0.57125 0.21625 0.2775 0.1275 0.535 0.2925 0.7675 0.49 0.23375 0.19625 0.44125 0.42375 0.6175 0.6725 0.1325 0.17875 0.25 0.3675 0.34875 0.5675 0.0987 0.1975 0.1775 0.405 0.2375 0.6175 0.0387 0.1275 0.07 0.25625 0.095 0.38625s0.045 0.26125 0.0613 0.3925c0.004 0.03 0.007 0.0612 0.01 0.0912l0.0113 0.09v2.7062 0.0425 0.0438c-0.004 0.22875-0.0362 0.45625-0.0962 0.6775-0.06 0.225-0.14 0.44375-0.23875 0.65375-0.12625 0.29-0.285 0.565-0.47375 0.81875-0.1875 0.2525-0.4075 0.47625-0.6575 0.66625-0.2225 0.1775-0.46625 0.3275-0.72625 0.44375-0.26 0.1175-0.5325 0.20625-0.8125 0.265-0.0625 0.015-0.12625 0.0275-0.19 0.0387-0.0638 0.0113-0.1275 0.0188-0.1925 0.0238-0.0337 0.002-0.0662 0.004-0.1 0.005-0.0325 0.001-0.0663 0.001-0.1 0.001h-1.4775v6.4975h-2.235z" fill-rule="evenodd" stroke="#000" stroke-miterlimit="22.926" stroke-width=".27772"/>
     <path id="path20628" stroke-linejoin="bevel" d="m346.28 527.78 0.005-0.0675c0.001-0.0237 0.002-0.0462 0.005-0.0688 0.0237-0.29375 0.075-0.585 0.15625-0.86875 0.08-0.285 0.19375-0.56 0.3375-0.81875 0.15375-0.3 0.34875-0.57625 0.57875-0.8225s0.4925-0.46 0.78125-0.63375c0.22125-0.1425 0.4575-0.26 0.705-0.35125 0.2475-0.09 0.505-0.1525 0.76625-0.18375 0.31875-0.0463 0.64125-0.0475 0.96-0.004 0.32 0.0412 0.63 0.12875 0.925 0.25875 0.34125 0.14 0.65875 0.33375 0.93875 0.57375 0.28375 0.2425 0.53375 0.5225 0.74 0.8325 0.20625 0.28875 0.37375 0.60375 0.49625 0.93625 0.12125 0.3275 0.19 0.6725 0.2025 1.0212 0.001 0.0225 0.002 0.0462 0.004 0.0687l0.002 0.0688v9.1812l-0.006 0.0738c-0.002 0.025-0.004 0.0488-0.006 0.0738-0.0225 0.2375-0.0625 0.4725-0.11875 0.70375-0.0562 0.2325-0.13375 0.46-0.23 0.67875-0.1625 0.395-0.39 0.7575-0.67375 1.0762-0.2825 0.32-0.61875 0.58625-0.995 0.78625-0.26625 0.15625-0.55375 0.275-0.8525 0.3525-0.2975 0.0775-0.605 0.115-0.91375 0.1125-0.3125 0.005-0.625-0.0325-0.9275-0.10875-0.30125-0.0763-0.5925-0.19375-0.8625-0.3475-0.2525-0.13625-0.48625-0.30375-0.69625-0.49625-0.2125-0.195-0.4025-0.4125-0.56625-0.64875-0.185-0.2525-0.33875-0.525-0.46-0.81375-0.12-0.285-0.20125-0.585-0.24125-0.8925-0.0113-0.0738-0.02-0.14875-0.0275-0.22375-0.007-0.075-0.0138-0.15-0.0175-0.225l-0.005-0.0612-0.004-0.0612v-9.1012z" fill-rule="evenodd" stroke="#000" stroke-miterlimit="22.926" stroke-width=".27772"/>
     <path id="path20632" stroke-linejoin="bevel" d="m356.11 540.61v-16.534h4.12 0.10625c0.035 0.001 0.0712 0.003 0.10625 0.004 0.3125 0.0175 0.61875 0.0888 0.905 0.2125 0.2925 0.125 0.56625 0.29 0.81375 0.49 0.27375 0.20375 0.5175 0.44375 0.725 0.71375 0.205 0.2675 0.37125 0.56125 0.495 0.87375 0.075 0.17375 0.13625 0.3525 0.185 0.535 0.0475 0.18125 0.0862 0.36625 0.11375 0.5525 0.004 0.0263 0.007 0.0525 0.0113 0.0788l0.0112 0.0775v2.2638l-0.0112 0.0975c-0.004 0.0325-0.008 0.065-0.0113 0.0975-0.0288 0.22625-0.0713 0.45-0.13 0.67-0.0563 0.22125-0.135 0.43625-0.2325 0.6425-0.0863 0.19625-0.1925 0.38375-0.315 0.56-0.12375 0.1775-0.26125 0.3425-0.415 0.49375-0.0925 0.0963-0.19125 0.18625-0.29375 0.2725-0.1025 0.085-0.21 0.16375-0.32125 0.2375-0.0263 0.0175-0.0525 0.035-0.08 0.0525-0.0263 0.0163-0.0537 0.0338-0.08 0.0512l2.445 7.5575h-2.3962l-2.1038-7.0712h-1.3962v7.0712h-2.2512z" fill-rule="evenodd" stroke="#000" stroke-miterlimit="22.926" stroke-width=".27772"/>
     <path id="path20636" stroke-linejoin="bevel" d="m367.52 540.61v-14.329h-2.6738v-2.2062h7.5875l0.001 2.2062h-2.6688v14.329h-2.2462z" fill-rule="evenodd" stroke="#000" stroke-miterlimit="22.926" stroke-width=".27772"/>
     <path id="path20640" stroke-linejoin="bevel" d="m358.36 526.31v5.1525h1.7138c0.0188-0.001 0.0387-0.002 0.0588-0.002 0.02-0.001 0.04-0.003 0.06-0.004 0.175-0.0138 0.345-0.0613 0.5025-0.13875 0.1575-0.0762 0.3-0.1825 0.41875-0.3125 0.08-0.0788 0.15-0.1675 0.20875-0.26375 0.0587-0.0963 0.10875-0.1975 0.15-0.3025 0.0288-0.07 0.0537-0.1425 0.075-0.21625 0.02-0.0725 0.035-0.1475 0.0425-0.2225l0.006-0.06c0.001-0.02 0.002-0.04 0.004-0.0588v-1.9762l-0.005-0.0537c-0.001-0.0188-0.004-0.0362-0.005-0.055-0.009-0.0912-0.025-0.18375-0.045-0.27375-0.0213-0.0913-0.05-0.18-0.0863-0.265-0.0437-0.11125-0.1-0.21625-0.17-0.31375-0.0688-0.0975-0.15-0.185-0.24-0.26375-0.0763-0.0675-0.15875-0.12875-0.2475-0.17875-0.0875-0.0512-0.18125-0.0925-0.2775-0.1225-0.06-0.02-0.12-0.035-0.18125-0.0463-0.06-0.0112-0.1225-0.0187-0.18375-0.0213-0.0225 0-0.0437-0.001-0.065-0.001h-0.065-1.6688z" fill-rule="evenodd" stroke="#000" stroke-miterlimit="22.926" stroke-width=".27772" fill="#fff"/>
     <path id="path20644" stroke-linejoin="bevel" d="m339.5 526.31v5.5825h1.415c0.0225 0 0.0437 0 0.0662-0.001 0.0213 0 0.0437-0.001 0.065-0.002 0.12875-0.009 0.25625-0.035 0.3775-0.08s0.2375-0.10625 0.3425-0.18375c0.1025-0.0675 0.195-0.14875 0.2775-0.24 0.0813-0.0912 0.1525-0.1925 0.21-0.3 0.0587-0.1025 0.10625-0.2125 0.14125-0.325s0.0575-0.2275 0.065-0.345c0.001-0.015 0.002-0.0312 0.004-0.0463l0.002-0.045v-2.5038c-0.001-0.0275-0.004-0.055-0.006-0.0825-0.002-0.0288-0.006-0.0563-0.01-0.0838-0.0188-0.13875-0.0562-0.27375-0.11125-0.4025-0.0563-0.12875-0.13-0.25-0.21875-0.35875-0.09-0.1175-0.19625-0.22125-0.3175-0.30625-0.12-0.0863-0.25125-0.1525-0.39125-0.19875-0.0562-0.02-0.11375-0.0375-0.1725-0.05-0.0587-0.0125-0.1175-0.02-0.1775-0.0237-0.0225-0.001-0.0462-0.003-0.0687-0.003-0.0225-0.001-0.0462-0.001-0.0688-0.001h-1.4238z" fill-rule="evenodd" stroke="#000" stroke-miterlimit="22.926" stroke-width=".27772" fill="#fff"/>
     <path id="path20648" stroke-linejoin="bevel" d="m348.53 527.91v8.8488l0.005 0.0575c0.001 0.02 0.002 0.04 0.005 0.0588 0.015 0.155 0.0462 0.30875 0.095 0.45625 0.0475 0.14875 0.11875 0.29 0.20875 0.4175 0.0913 0.14 0.20625 0.2625 0.33875 0.3625 0.13375 0.10125 0.285 0.1775 0.445 0.225 0.1575 0.0525 0.3225 0.0762 0.4875 0.07 0.16375-0.005 0.3275-0.0388 0.48-0.1 0.14125-0.05 0.27375-0.12375 0.3925-0.215 0.11875-0.0912 0.22375-0.19875 0.31125-0.32 0.07-0.0913 0.12875-0.19 0.1775-0.29375 0.0475-0.10375 0.0862-0.21125 0.1125-0.3225 0.0113-0.0488 0.0213-0.0963 0.03-0.145 0.007-0.0488 0.0125-0.0975 0.015-0.14625 0.001-0.0188 0.002-0.0362 0.002-0.055l0.001-0.0537v-8.8688l-0.005-0.0612c-0.001-0.02-0.002-0.0412-0.005-0.0612-0.0125-0.1275-0.0387-0.25375-0.0788-0.37625-0.04-0.1225-0.095-0.24-0.165-0.34875-0.0863-0.145-0.1975-0.275-0.3275-0.38125-0.13125-0.10875-0.28-0.1925-0.44-0.25-0.16-0.0637-0.33125-0.0975-0.50375-0.10125-0.1725-0.004-0.345 0.0237-0.5075 0.0812-0.1475 0.0462-0.2875 0.1175-0.41375 0.2075-0.125 0.0913-0.23375 0.20125-0.32375 0.32625-0.0662 0.0875-0.1225 0.18125-0.16875 0.28125-0.045 0.0987-0.0813 0.2025-0.10875 0.30875-0.0125 0.0488-0.0238 0.0975-0.0337 0.14875-0.009 0.0488-0.0163 0.1-0.02 0.15-0.001 0.0163-0.002 0.0338-0.004 0.05l-0.002 0.05z" fill-rule="evenodd" stroke="#000" stroke-miterlimit="22.926" stroke-width=".27772" fill="#c00"/>
     <path id="path20652" d="m341.96 531.33-2.3662-3.0375-0.006-1.8888 1.515 0.004c0.76125 0.0788 1.2962 0.805 1.2775 1.4038l-0.0563 2.8188c-0.0687 0.25125-0.16875 0.51625-0.36375 0.7" fill-rule="evenodd" fill="#c00"/>
    </g>
   </g>
  </g>
 </g>
</svg>
