<svg
   xmlns="http://www.w3.org/2000/svg"
   xmlns:xlink="http://www.w3.org/1999/xlink"  
   version="1.1"
   width="60"
   height="60">
  <symbol id="notice_e5_12" width="60" height="60">
    <path d="m 50.640282,31.087842 -19.436848,19.438 c -0.006,0.004 -0.011,0.009 -0.016,0.014 l -0.015,0.015 c -0.051,0.049 -0.105,0.094 -0.161999,0.136 -0.057,0.042 -0.117999,0.079 -0.179999,0.113 -0.062,0.034 -0.125999,0.064 -0.191998,0.089 -0.066,0.026 -0.133999,0.046 -0.202999,0.062 -0.068,0.017 -0.137999,0.029 -0.207998,0.037 -0.071,0.007 -0.141999,0.01 -0.211998,0.007 -0.071,-0.001 -0.141999,-0.007 -0.210999,-0.018 -0.07,-0.011 -0.138999,-0.027 -0.206998,-0.048 -0.068,-0.019 -0.133999,-0.044 -0.198999,-0.073 -0.065,-0.028 -0.126999,-0.062 -0.186998,-0.099 -0.049,-0.029 -0.097,-0.062 -0.141999,-0.097 -0.045,-0.034 -0.089,-0.072 -0.129999,-0.112 l -0.014,-0.013 -0.013,-0.013 -19.4378475,-19.438 -0.015,-0.015 -0.014,-0.016 c -0.049,-0.051 -0.094999,-0.105 -0.135999,-0.162 -0.042,-0.057 -0.079999,-0.117 -0.1129991,-0.18 -0.035,-0.062 -0.063999,-0.126 -0.089999,-0.192 -0.025,-0.066 -0.045,-0.133 -0.060999,-0.202 -0.017,-0.069 -0.03,-0.139 -0.037,-0.209 -0.007,-0.071 -0.01,-0.141 -0.008,-0.212 0.002,-0.071 0.008,-0.141 0.019,-0.211 0.011,-0.07 0.027,-0.139 0.048,-0.207 0.019,-0.068 0.043,-0.134 0.072,-0.199 0.029,-0.064 0.061999,-0.127 0.099999,-0.187 0.029,-0.049 0.061,-0.096 0.095999,-0.142 0.035,-0.045 0.072,-0.088 0.1119992,-0.129 l 0.014,-0.014 c 0.004,-0.005 0.009,-0.009 0.013,-0.014 L 28.912452,9.3598416 l 0.015,-0.015 0.015,-0.015 c 0.051,-0.049 0.104999,-0.094 0.162999,-0.136 0.057,-0.042 0.116999,-0.079 0.178998,-0.112 0.062,-0.035 0.125999,-0.065 0.191999,-0.09 0.066,-0.026 0.133999,-0.046 0.202998,-0.062 0.069,-0.017 0.137999,-0.029 0.208999,-0.037 0.07,-0.007 0.140999,-0.01 0.211998,-0.007 0.07,0.001 0.140999,0.007 0.210998,0.018 0.069,0.011 0.138999,0.027 0.205999,0.048 0.068,0.02 0.133999,0.044 0.198998,0.073 0.065,0.028 0.126999,0.062 0.186999,0.099 0.05,0.03 0.097,0.062 0.142999,0.096 0.045,0.035 0.088,0.073 0.128999,0.113 l 0.014,0.013 0.014,0.014 19.436848,19.4370004 0.015,0.015 0.014,0.016 c 0.049,0.051 0.095,0.105 0.136999,0.162 0.041,0.057 0.079,0.117 0.111999,0.18 0.035,0.061 0.065,0.126 0.09,0.192 0.025,0.066 0.046,0.134 0.062,0.202 0.016,0.069 0.029,0.139 0.036,0.209 0.008,0.071 0.01,0.141 0.008,0.212 -10e-4,0.071 -0.008,0.141 -0.019,0.211 -0.011,0.07 -0.027,0.139 -0.047,0.207 -0.02,0.068 -0.044,0.134 -0.073,0.199 -0.029,0.064 -0.062,0.127 -0.099,0.187 -0.03,0.049 -0.062,0.096 -0.097,0.142 -0.035,0.045 -0.072,0.088 -0.111999,0.129 -0.005,0.005 -0.009,0.01 -0.014,0.014 -0.004,0.005 -0.008,0.009 -0.013,0.014" />
  </symbol>
  <use xlink:href="#notice_e5_12" x="0" y="0" />
</svg>
