<?xml version="1.0" encoding="UTF-8" standalone="no"?>
<!-- Created with Inkscape (http://www.inkscape.org/) -->
<svg id="svg2" xmlns:rdf="http://www.w3.org/1999/02/22-rdf-syntax-ns#" xmlns="http://www.w3.org/2000/svg" height="60" width="60" version="1.1" xmlns:cc="http://creativecommons.org/ns#" xmlns:dc="http://purl.org/dc/elements/1.1/">
 <metadata id="metadata7">
  <rdf:RDF>
   <cc:Work rdf:about="">
    <dc:format>image/svg+xml</dc:format>
    <dc:type rdf:resource="http://purl.org/dc/dcmitype/StillImage"/>
    <dc:title/>
   </cc:Work>
  </rdf:RDF>
 </metadata>
 <g id="layer8" transform="translate(0,-60)">
  <g id="g6735" transform="matrix(.97035 0 0 .97035 -28.221 31.779)">
   <g id="layer1-37" transform="translate(97.143 284.78)">
    <g id="g3726">
     <path id="path20046-6" d="m-63.014-196.78h-0.0166c-0.0923 0-0.18358-0.008-0.27485-0.0187-0.09127-0.0125-0.1815-0.0311-0.2707-0.057-0.08816-0.0228-0.17528-0.0518-0.26033-0.0881-0.08504-0.0352-0.16698-0.0767-0.24685-0.12342-0.07986-0.0456-0.15661-0.0975-0.22921-0.1535s-0.14209-0.1172-0.2064-0.18255c-0.06534-0.0643-0.12653-0.13378-0.18254-0.20638-0.056-0.0726-0.10683-0.14937-0.1535-0.22923-0.04564-0.0788-0.08712-0.16179-0.12239-0.24683-0.0363-0.0851-0.06534-0.17115-0.08919-0.26034-0.02593-0.0892-0.04459-0.17943-0.05705-0.2707-0.01349-0.0902-0.01971-0.18254-0.01867-0.27485v-51.778c0-0.0913 0.0073-0.18357 0.0197-0.27381 0.01244-0.0923 0.03007-0.18253 0.056-0.2707 0.02282-0.0892 0.05289-0.17631 0.08816-0.26137 0.03527-0.085 0.07675-0.16698 0.12342-0.2458 0.04667-0.0798 0.09749-0.15662 0.1535-0.22922 0.056-0.0737 0.1172-0.14209 0.18254-0.20639 0.06431-0.0654 0.1338-0.12654 0.2064-0.18255 0.0726-0.056 0.14935-0.10786 0.22921-0.1535 0.07986-0.0466 0.1618-0.0872 0.24685-0.12239 0.08504-0.0363 0.17217-0.0654 0.26033-0.0892 0.08919-0.0249 0.17943-0.0446 0.2707-0.0571s0.18254-0.0187 0.27485-0.0187h51.777c0.09127 0.00083 0.18358 0.008 0.27485 0.0198 0.09127 0.0114 0.1815 0.0311 0.26966 0.056 0.0892 0.0228 0.17632 0.0518 0.26137 0.0872 0.08505 0.0363 0.16698 0.0777 0.24581 0.12445 0.07986 0.0456 0.15661 0.0975 0.22921 0.1535 0.073639 0.056 0.14209 0.11721 0.20743 0.18255 0.065342 0.0643 0.1255 0.13275 0.18254 0.20639 0.056007 0.0726 0.10683 0.14936 0.15246 0.22922 0.046672 0.0788 0.088159 0.16076 0.12342 0.24581 0.035264 0.0851 0.065342 0.17217 0.089197 0.26136 0.024891 0.0892 0.043561 0.17944 0.057044 0.27071 0.012446 0.0902 0.018669 0.18254 0.017632 0.27381v51.778c0 0.0923-0.00722 0.18461-0.018669 0.27484-0.012446 0.0913-0.031115 0.18151-0.056007 0.27071-0.023855 0.0892-0.052896 0.17631-0.08816 0.26136-0.036301 0.084-0.077787 0.16699-0.12446 0.24581-0.045636 0.0798-0.096457 0.15662-0.15246 0.22922-0.057044 0.0726-0.1172 0.14209-0.18254 0.20639-0.065342 0.0664-0.13379 0.12653-0.20743 0.18255-0.072602 0.0571-0.14935 0.10786-0.22921 0.1535-0.07883 0.0467-0.16076 0.0872-0.24581 0.12342-0.08505 0.0353-0.17217 0.0643-0.26137 0.0881-0.08816 0.0259-0.17839 0.0446-0.26966 0.057-0.09127 0.0135-0.18358 0.0198-0.27485 0.0187h-51.761z" fill-rule="evenodd" fill="#e72512"/>
     <path id="path20050-2" d="m-23.253-204.86-33.814-33.814v33.814h33.814" fill-rule="evenodd" fill="#fff"/>
     <path id="path20054-9" d="m-17.219-210.89v-33.814h-33.814l33.814 33.814" fill-rule="evenodd" fill="#fff"/>
     <path id="path20058-8" stroke-linejoin="bevel" d="m-63.442-194.95h52.627c0.15288-0.00084 0.3047-0.0116 0.45546-0.0316 0.15182-0.0211 0.30153-0.0517 0.44808-0.0938 0.1476-0.038 0.2931-0.0865 0.43332-0.14655 0.14022-0.059 0.27728-0.12757 0.40802-0.20559 0.13284-0.0759 0.25936-0.16026 0.38061-0.25304 0.12125-0.0928 0.23511-0.19505 0.34265-0.30364 0.10859-0.10649 0.20981-0.22035 0.30259-0.3416 0.092779-0.12125 0.17712-0.24882 0.25303-0.38061 0.078019-0.13179 0.14655-0.26779 0.20454-0.40907 0.059042-0.14022 0.10859-0.28466 0.14866-0.43227 0.041118-0.1476 0.072748-0.29732 0.093834-0.44808 0.021086-0.15077 0.031629-0.30364 0.030575-0.45547v-52.656c0-0.15182-0.011597-0.30469-0.031629-0.45546-0.020032-0.15182-0.051661-0.30153-0.092779-0.44808-0.039009-0.14761-0.087508-0.29205-0.14655-0.43333-0.059041-0.14022-0.12863-0.27728-0.20665-0.40802-0.07591-0.13178-0.16026-0.25936-0.25303-0.3806-0.092779-0.12019-0.19399-0.23511-0.30259-0.34265-0.10754-0.1086-0.22141-0.20981-0.34265-0.30259-0.12125-0.0928-0.24776-0.17713-0.38061-0.25304-0.13073-0.0769-0.2678-0.14549-0.40907-0.20453-0.14022-0.0591-0.28466-0.1086-0.43227-0.14761-0.14655-0.0422-0.29626-0.0738-0.44808-0.0949-0.15077-0.0211-0.30259-0.0316-0.45546-0.0305h-52.654c-0.15288 0.00084-0.30575 0.0116-0.45652 0.0316-0.15077 0.0211-0.30048 0.0516-0.44808 0.0938-0.1476 0.038-0.29204 0.0865-0.43227 0.1455-0.14128 0.06-0.27728 0.12863-0.40907 0.20664-0.13179 0.0759-0.25936 0.16026-0.37955 0.25304-0.12125 0.0928-0.23617 0.19399-0.34265 0.30259-0.10859 0.10754-0.20981 0.22246-0.30364 0.34265-0.09278 0.12125-0.17712 0.24776-0.25304 0.38061-0.07697 0.13179-0.1455 0.26779-0.20454 0.40907-0.05904 0.14022-0.10859 0.28572-0.1476 0.43227-0.04217 0.1476-0.0738 0.29732-0.09489 0.44808-0.02109 0.15077-0.03163 0.30364-0.03057 0.45547v52.656c0.001 0.15182 0.0116 0.30469 0.03268 0.45546 0.02003 0.15077 0.05166 0.30048 0.09278 0.44808 0.03796 0.14761 0.08751 0.29205 0.14655 0.43333 0.05904 0.14022 0.12757 0.27623 0.20559 0.40802 0.07591 0.13178 0.16026 0.25936 0.25409 0.3806 0.09278 0.12019 0.19399 0.23511 0.30259 0.3416 0.10648 0.10965 0.2214 0.21086 0.34265 0.30364 0.12019 0.0928 0.24776 0.17713 0.37955 0.25304 0.13179 0.077 0.2678 0.14549 0.40907 0.20453 0.14022 0.059 0.28572 0.1086 0.43227 0.14761 0.1476 0.0422 0.29732 0.0738 0.44914 0.0949 0.15077 0.0211 0.30259 0.0316 0.45546 0.0305h0.02741z" stroke="#231f20" stroke-miterlimit="22.926" stroke-width=".23469" fill="none"/>
     <path id="path20062-5" stroke-linejoin="bevel" d="m-63.442-194.89h-0.02847c-0.15498-0.00084-0.30891-0.0115-0.46284-0.0326-0.15393-0.0201-0.30575-0.0527-0.45546-0.0938-0.14971-0.0391-0.29732-0.0886-0.43965-0.14972-0.14339-0.06-0.2815-0.12968-0.4154-0.20875-0.1339-0.077-0.26358-0.16342-0.38588-0.25725-0.12336-0.0949-0.23933-0.19716-0.34898-0.30786-0.10965-0.10965-0.21297-0.22562-0.30786-0.34792-0.09383-0.12336-0.18029-0.25199-0.25725-0.38694-0.07802-0.1339-0.1476-0.27201-0.2077-0.4154-0.05904-0.14233-0.10965-0.28993-0.14971-0.43965-0.04217-0.14971-0.07486-0.30153-0.09594-0.45546-0.02214-0.15288-0.03268-0.30786-0.03163-0.46284v-52.656c0.001-0.15499 0.0116-0.30997 0.03268-0.46285 0.02109-0.15393 0.05272-0.30575 0.09489-0.45546 0.03901-0.14971 0.08856-0.29732 0.14866-0.4407 0.0601-0.14234 0.12968-0.28045 0.20875-0.41435 0.07802-0.1339 0.16342-0.26358 0.25831-0.38588 0.09383-0.12335 0.19716-0.23933 0.3068-0.34898 0.10965-0.10964 0.22562-0.21297 0.34898-0.3068 0.1223-0.0949 0.25198-0.18134 0.38588-0.25831 0.1339-0.078 0.27201-0.1476 0.4154-0.2077s0.28994-0.10965 0.43965-0.14971c0.14971-0.0433 0.30153-0.0749 0.45546-0.097 0.15393-0.0211 0.30786-0.0316 0.46284-0.0305h52.656c0.15498 0.00084 0.30997 0.0116 0.4639 0.0326 0.15288 0.0211 0.30575 0.0516 0.45441 0.0949 0.15077 0.0379 0.29732 0.0886 0.4407 0.14866 0.14339 0.0601 0.2815 0.12968 0.41434 0.20875 0.13495 0.077 0.26358 0.16342 0.38693 0.25831 0.1223 0.0938 0.23933 0.19716 0.34792 0.3068 0.1107 0.10965 0.21297 0.22563 0.30786 0.34898 0.093834 0.1223 0.18029 0.25198 0.25725 0.38588 0.079073 0.1339 0.14866 0.27201 0.20875 0.4154 0.059041 0.14339 0.10965 0.28994 0.14971 0.43965 0.042173 0.14971 0.074856 0.30153 0.095942 0.45546 0.02214 0.15288 0.031629 0.30786 0.030575 0.46285v52.656c-0.00101 0.15498-0.011597 0.30996-0.031629 0.46284-0.021086 0.15393-0.052716 0.30575-0.094888 0.45546-0.03901 0.14972-0.088562 0.29732-0.14971 0.43965-0.060096 0.14339-0.12968 0.2815-0.20875 0.4154-0.076965 0.13495-0.16342 0.26358-0.25725 0.38694-0.094888 0.1223-0.19716 0.23827-0.30786 0.34792-0.10859 0.1107-0.22562 0.21297-0.34792 0.30786-0.12335 0.0938-0.25198 0.18029-0.38693 0.25725-0.1339 0.079-0.27201 0.1476-0.4154 0.2077-0.14233 0.06-0.28994 0.10965-0.43965 0.15077-0.14971 0.0422-0.30153 0.0738-0.45546 0.0959-0.15288 0.0211-0.30786 0.0316-0.46284 0.0305h-52.627z" stroke="#000" stroke-miterlimit="22.926" stroke-width="2.0611" fill="none"/>
     <path id="path20066" stroke-linejoin="bevel" d="m-50.805-217.95v-21.631h16.508l0.14128 0.00084c0.04744 0 0.09489 0.00084 0.14233 0.002 0.47128 0.0105 0.94256 0.0517 1.4086 0.12441 0.46706 0.0728 0.9278 0.17923 1.3801 0.31735 0.45441 0.12862 0.89933 0.28993 1.3305 0.48287 0.43121 0.19294 0.84767 0.4154 1.2483 0.66527 0.40486 0.2446 0.79179 0.51662 1.1587 0.81393 0.3669 0.29627 0.71272 0.61889 1.0364 0.96365 0.32684 0.33948 0.63048 0.70217 0.90882 1.0849 0.27728 0.38167 0.52821 0.7823 0.75067 1.1988 0.22773 0.41434 0.427 0.8424 0.59569 1.2831 0.16869 0.44176 0.30786 0.893 0.4154 1.3527 0.09278 0.37112 0.16447 0.74751 0.21508 1.1271 0.04955 0.3785 0.07696 0.75911 0.08118 1.1408 0.001 0.0433 0.001 0.0864 0.0021 0.12863l0.001 0.12862-0.001 0.14128c-0.001 0.0475-0.0021 0.0949-0.0031 0.14233-0.0095 0.47128-0.05166 0.94256-0.12441 1.4086-0.07275 0.46706-0.17818 0.92779-0.31629 1.3801-0.12968 0.45441-0.29099 0.89933-0.48393 1.3306-0.19188 0.43121-0.41434 0.84872-0.66527 1.2483-0.2446 0.40486-0.51556 0.79179-0.81288 1.1587s-0.61888 0.71272-0.96364 1.0364c-0.34054 0.3279-0.70323 0.63154-1.0849 0.90882-0.38272 0.27729-0.78335 0.52821-1.1998 0.75067-0.41329 0.22774-0.8424 0.427-1.2831 0.59569s-0.893 0.30786-1.3527 0.41646c-0.37112 0.0917-0.74751 0.16341-1.126 0.21402-0.3785 0.0496-0.76016 0.077-1.1418 0.0811-0.04217 0.00084-0.0854 0.002-0.12863 0.002l-0.12863 0.00084h-9.6775v7.9696h-6.8309v-7.9696z" fill-rule="evenodd" stroke="#000" stroke-miterlimit="22.926" stroke-width=".23469"/>
     <path id="path20070" stroke-linejoin="bevel" d="m-43.973-232.75v7.9696h9.6775 0.05166c0.01792 0 0.03479-0.00084 0.05272-0.00084 0.17396-0.004 0.34687-0.019 0.51872-0.0464 0.17185-0.0263 0.3416-0.0654 0.50818-0.11598 0.16764-0.0485 0.33105-0.10754 0.49026-0.17818 0.1592-0.0717 0.31313-0.15287 0.46073-0.24565 0.14866-0.0896 0.29099-0.18978 0.42594-0.29943 0.13601-0.10964 0.26252-0.22773 0.38166-0.3553 0.12125-0.12546 0.233-0.25831 0.33527-0.39958 0.10227-0.14023 0.19505-0.28783 0.27623-0.44176 0.08434-0.15182 0.15815-0.30997 0.22035-0.47233 0.0622-0.16237 0.11281-0.32895 0.15288-0.49869 0.03374-0.13706 0.0601-0.27518 0.07802-0.4154 0.01898-0.13917 0.02847-0.2794 0.03058-0.41962l0.0011-0.0284v-0.0284-0.059c0-0.0169 0-0.0348-0.0011-0.0517-0.0021-0.17397-0.01581-0.34793-0.04112-0.51873-0.0253-0.1729-0.06326-0.34265-0.11281-0.51028-0.04639-0.16764-0.10438-0.33211-0.17396-0.49131-0.06959-0.15921-0.15077-0.31419-0.24144-0.46179-0.08856-0.14972-0.18767-0.2931-0.29626-0.42911s-0.22562-0.26463-0.35214-0.38482c-0.12441-0.12125-0.25725-0.23406-0.39642-0.33844-0.14022-0.10332-0.28677-0.1961-0.43965-0.27939-0.15182-0.0854-0.30891-0.16026-0.47128-0.22352-0.16236-0.0633-0.32789-0.11597-0.49764-0.15709-0.14128-0.0369-0.28466-0.0654-0.43016-0.0854-0.14444-0.019-0.28994-0.0295-0.43649-0.0316h-0.04639l-0.04744-0.00084h-9.6775z" fill-rule="evenodd" stroke="#000" stroke-miterlimit="22.926" stroke-width=".23469" fill="#fff"/>
     <path id="path20074" d="m-32.214-225.37-6.9216-7.3823h-4.8382v7.9696l9.7819-0.00084c0.68109-0.0527 1.34-0.24777 1.9779-0.5862" fill-rule="evenodd" fill="#e72512"/>
    </g>
   </g>
  </g>
 </g>
</svg>
