<svg
   xmlns="http://www.w3.org/2000/svg"
   xmlns:xlink="http://www.w3.org/1999/xlink"  
   version="1.1"
   width="60"
   height="60">
  <symbol id="notice_e5_15" width="60" height="60">
    <path d="m 29.75,8.46875 c -0.07161,0.011254 -0.149182,0.041016 -0.21875,0.0625 -0.06957,0.019438 -0.152252,0.032832 -0.21875,0.0625 -0.06547,0.029668 -0.126117,0.054874 -0.1875,0.09375 -0.05013,0.029668 -0.07794,0.089193 -0.125,0.125 -0.04604,0.035807 -0.114305,0.052828 -0.15625,0.09375 -0.0051,0.00512 0.0041,0.026135 0,0.03125 l -19.90625,19.875 0,0.03125 -0.03125,0 c -0.05013,0.05218 -0.082032,0.128163 -0.125,0.1875 -0.042968,0.05831 -0.090216,0.124071 -0.125,0.1875 -0.034784,0.06343 -0.068174,0.119979 -0.09375,0.1875 -0.026599,0.06752 -0.046131,0.148159 -0.0625,0.21875 -0.017392,0.07059 -0.023066,0.115886 -0.03125,0.1875 -0.00716,0.07161 -0.00307,0.146113 0,0.21875 0.00102,0.07161 -0.011254,0.147136 0,0.21875 0.011254,0.07059 0.041016,0.150206 0.0625,0.21875 0.020461,0.06957 0.032832,0.121002 0.0625,0.1875 0.028645,0.0665 0.055897,0.157367 0.09375,0.21875 0.029668,0.05115 0.090216,0.07794 0.125,0.125 0.035807,0.04604 0.052828,0.08306 0.09375,0.125 L 8.9375,31.15625 28.84375,51.0625 28.875,51.09375 c 0.05218,0.05013 0.09794,0.08203 0.15625,0.125 0.05831,0.04194 0.123048,0.09124 0.1875,0.125 0.06241,0.03581 0.119979,0.06817 0.1875,0.09375 0.06752,0.02558 0.148159,0.04613 0.21875,0.0625 0.07059,0.01637 0.115886,0.02409 0.1875,0.03125 0.07264,0.0082 0.146113,0.002 0.21875,0 0.07264,-0.001 0.147136,0.01125 0.21875,0 0.07161,-0.01125 0.149182,-0.04204 0.21875,-0.0625 0.06957,-0.02046 0.152252,-0.03283 0.21875,-0.0625 0.06547,-0.02967 0.126117,-0.08715 0.1875,-0.125 0.05013,-0.03069 0.07794,-0.05794 0.125,-0.09375 0.04604,-0.03581 0.114305,-0.05283 0.15625,-0.09375 0.0051,-0.0051 -0.0041,-0.02613 0,-0.03125 0.0051,-0.0041 0.02614,0.0051 0.03125,0 L 51.0625,31.15625 51.09375,31.125 c 0.05013,-0.05218 0.08203,-0.09794 0.125,-0.15625 0.04297,-0.05831 0.09022,-0.124071 0.125,-0.1875 0.03478,-0.06343 0.06817,-0.119979 0.09375,-0.1875 0.0266,-0.06752 0.04613,-0.148159 0.0625,-0.21875 0.01739,-0.06957 0.02409,-0.147136 0.03125,-0.21875 0.0082,-0.07264 0.0031,-0.115886 0,-0.1875 -0.001,-0.07264 0.01125,-0.148159 0,-0.21875 -0.01125,-0.07161 -0.04102,-0.149182 -0.0625,-0.21875 -0.01944,-0.06957 -0.03283,-0.152252 -0.0625,-0.21875 -0.02864,-0.0665 -0.0559,-0.126117 -0.09375,-0.1875 -0.03069,-0.05013 -0.08919,-0.07896 -0.125,-0.125 -0.03478,-0.04604 -0.05283,-0.114305 -0.09375,-0.15625 l -0.03125,0 0,-0.03125 -19.875,-19.875 -0.03125,0 0,-0.03125 c -0.05218,-0.05013 -0.129186,-0.083055 -0.1875,-0.125 -0.05831,-0.042968 -0.123048,-0.091239 -0.1875,-0.125 C 30.717821,8.6204432 30.661271,8.5890994 30.59375,8.5625 30.526229,8.5369237 30.445591,8.5163688 30.375,8.5 c -0.07059,-0.017392 -0.115886,-0.024089 -0.1875,-0.03125 -0.07264,-0.00716 -0.146113,-0.00205 -0.21875,0 -0.07264,0.00205 -0.147136,-0.011254 -0.21875,0 z M 25.40625,16.625 c 0.01801,-0.0049 0.01161,0.0025 0.03125,0 0.01882,-0.0033 0.04368,8.18e-4 0.0625,0 l 0.03125,0 9.71875,0 c 0.01637,0 0.04695,-0.0016 0.0625,0 0.01555,0.0025 0.01652,-0.0041 0.03125,0 0.01882,0.0049 0.04449,0.0247 0.0625,0.03125 0.01801,0.0065 0.04531,-0.0098 0.0625,0 0.01719,0.009 0.0157,0.02061 0.03125,0.03125 0.01555,0.01146 0.04859,0.04859 0.0625,0.0625 0.01391,0.01309 0.01897,0.0157 0.03125,0.03125 0.01228,0.01473 0.02143,0.01406 0.03125,0.03125 0.01064,0.01637 0.02307,0.04449 0.03125,0.0625 0.0074,0.01719 -0.0057,0.04449 0,0.0625 0.0049,0.01882 0.02798,0.04368 0.03125,0.0625 0.0025,0.01964 0,0.01161 0,0.03125 8.18e-4,0.01882 0.0016,0.04368 0,0.0625 -0.0016,0.01964 0.0049,0.04368 0,0.0625 -0.0041,0.01882 -0.0247,0.04449 -0.03125,0.0625 -0.0074,0.01801 -0.02225,0.04613 -0.03125,0.0625 L 30.75,25.6875 c -0.0074,0.01309 -0.02225,0.01897 -0.03125,0.03125 -0.0098,0.01228 0.01064,0.01979 0,0.03125 -0.01391,0.01391 -0.04777,0.01897 -0.0625,0.03125 -0.01473,0.01228 -0.01488,0.05186 -0.03125,0.0625 -0.01637,0.0098 -0.04531,-0.0082 -0.0625,0 -0.01801,0.0074 -0.04449,0.02634 -0.0625,0.03125 -0.01882,0.0057 -0.04368,-0.0033 -0.0625,0 -0.01964,0.0033 -0.01161,0.03125 -0.03125,0.03125 -0.01882,8.18e-4 -0.04368,0.0016 -0.0625,0 -0.01964,-0.0025 -0.04368,-0.02634 -0.0625,-0.03125 -0.01882,-0.0049 -0.04449,0.0074 -0.0625,0 -0.01801,-0.0065 -0.01488,-0.02143 -0.03125,-0.03125 -0.01719,-0.009 -0.04695,-0.01979 -0.0625,-0.03125 -0.01637,-0.01146 -0.01816,-0.01816 -0.03125,-0.03125 -0.01473,-0.01309 -0.05022,-0.04777 -0.0625,-0.0625 C 30.018973,25.704018 30.009821,25.703869 30,25.6875 l -4.875,-8.40625 c -0.0082,-0.01309 0.0057,-0.04777 0,-0.0625 -0.0065,-0.01473 -0.02716,-0.0157 -0.03125,-0.03125 -0.0057,-0.01801 0.0033,-0.04286 0,-0.0625 -0.0033,-0.01882 0,-0.04286 0,-0.0625 -8.18e-4,-0.01882 -0.0016,-0.04368 0,-0.0625 0.0025,-0.01964 -0.0041,-0.01243 0,-0.03125 0.0049,-0.01882 -0.0065,-0.04449 0,-0.0625 0.0074,-0.01719 0.02225,-0.04531 0.03125,-0.0625 0.009,-0.01637 0.01979,-0.0157 0.03125,-0.03125 0.01146,-0.01555 0.01734,-0.04859 0.03125,-0.0625 0.01309,-0.01391 0.04777,-0.01897 0.0625,-0.03125 0.01555,-0.01228 0.01488,-0.02143 0.03125,-0.03125 0.01637,-0.01064 0.04449,-0.02388 0.0625,-0.03125 0.01719,-0.0082 0.04368,-0.02552 0.0625,-0.03125 z M 25.25,26.375 c 0.01882,-0.0033 0.04368,8.18e-4 0.0625,0 l 9.71875,0 0.03125,0 c 0.01637,0 0.0157,-0.0016 0.03125,0 0.01555,0.0025 0.04777,-0.0041 0.0625,0 0.01882,0.0049 0.01324,0.0247 0.03125,0.03125 0.01801,0.0065 0.04531,0.02143 0.0625,0.03125 0.01719,0.009 0.04695,0.02061 0.0625,0.03125 0.01555,0.01146 0.01734,0.01734 0.03125,0.03125 0.01391,0.01309 0.01897,0.0157 0.03125,0.03125 0.01228,0.01473 0.02143,0.04531 0.03125,0.0625 0.01064,0.01637 0.02307,0.01324 0.03125,0.03125 0.0074,0.01719 0.02552,0.04449 0.03125,0.0625 0.0049,0.01882 -0.0033,0.04368 0,0.0625 0.0025,0.01964 0,0.04286 0,0.0625 8.18e-4,0.01882 0.0016,0.04368 0,0.0625 -0.0016,0.01964 0.0049,0.04368 0,0.0625 -0.0041,0.01882 -0.0247,0.01324 -0.03125,0.03125 -0.0074,0.01801 0.009,0.04613 0,0.0625 l -4.875,8.40625 c -0.0074,0.01309 -0.02225,0.01897 -0.03125,0.03125 -0.0098,0.01228 -0.02061,0.05104 -0.03125,0.0625 -0.01391,0.01391 -0.01652,0.01897 -0.03125,0.03125 -0.01473,0.01228 -0.04613,0.02061 -0.0625,0.03125 -0.01637,0.0098 -0.01406,0.02307 -0.03125,0.03125 -0.01801,0.0074 -0.04449,-0.0049 -0.0625,0 -0.01882,0.0057 -0.04368,0.02798 -0.0625,0.03125 -0.01964,0.0033 -0.04286,0 -0.0625,0 -0.01882,8.18e-4 -0.04368,0.0016 -0.0625,0 -0.01964,-0.0025 -0.04368,0.0049 -0.0625,0 -0.01882,-0.0049 -0.01324,-0.02388 -0.03125,-0.03125 -0.01801,-0.0065 -0.04613,-0.02143 -0.0625,-0.03125 -0.01719,-0.009 -0.04695,-0.01979 -0.0625,-0.03125 -0.01637,-0.01146 -0.01816,-0.01816 -0.03125,-0.03125 -0.01473,-0.01309 -0.01897,-0.01652 -0.03125,-0.03125 -0.01228,-0.01473 -0.02143,-0.04613 -0.03125,-0.0625 l -0.03125,0 -4.84375,-8.40625 c -0.0082,-0.01309 -0.02552,-0.01652 -0.03125,-0.03125 -0.0065,-0.01473 0.0041,-0.04695 0,-0.0625 -0.0057,-0.01801 -0.02798,-0.04286 -0.03125,-0.0625 -0.0033,-0.01882 0,-0.01161 0,-0.03125 -8.18e-4,-0.01882 -0.0016,-0.04368 0,-0.0625 0.0025,-0.01964 -0.0041,-0.04368 0,-0.0625 0.0049,-0.01882 0.0247,-0.04449 0.03125,-0.0625 0.0074,-0.01719 0.02225,-0.04531 0.03125,-0.0625 0.009,-0.01637 0.01979,-0.0157 0.03125,-0.03125 0.01146,-0.01555 0.01734,-0.04859 0.03125,-0.0625 0.01309,-0.01391 0.01652,-0.01897 0.03125,-0.03125 0.01555,-0.01228 0.04613,-0.02143 0.0625,-0.03125 0.01637,-0.01064 0.01324,-0.02388 0.03125,-0.03125 0.01719,-0.0082 0.04368,0.0057 0.0625,0 0.01801,-0.0049 0.04286,-0.02879 0.0625,-0.03125 z m 0,9.71875 c 0.01882,-0.0033 0.04368,8.18e-4 0.0625,0 l 9.71875,0 0.03125,0 c 0.01637,0 0.0157,-0.0016 0.03125,0 0.01555,0.0025 0.04777,-0.0033 0.0625,0 0.01882,0.0049 0.01324,0.0247 0.03125,0.03125 0.01801,0.0074 0.04531,0.02143 0.0625,0.03125 0.01719,0.009 0.04695,0.01979 0.0625,0.03125 0.01555,0.01146 0.01734,0.01734 0.03125,0.03125 0.01391,0.01309 0.01897,0.01652 0.03125,0.03125 0.01228,0.01555 0.02143,0.04531 0.03125,0.0625 0.01064,0.01555 0.02307,0.01324 0.03125,0.03125 0.0074,0.01719 0.02552,0.04449 0.03125,0.0625 0.0049,0.01882 -0.0033,0.04368 0,0.0625 0.0025,0.01882 0,0.04368 0,0.0625 8.18e-4,0.01964 0.0016,0.04368 0,0.0625 -0.0016,0.01882 0.0049,0.01243 0,0.03125 -0.0041,0.01882 -0.0247,0.04449 -0.03125,0.0625 -0.0074,0.01801 0.009,0.04613 0,0.0625 l -4.875,8.40625 c -0.0074,0.01309 -0.02225,0.01897 -0.03125,0.03125 -0.0098,0.01228 -0.02061,0.05104 -0.03125,0.0625 -0.01391,0.01391 -0.01652,0.01897 -0.03125,0.03125 -0.01473,0.01228 -0.04613,0.02061 -0.0625,0.03125 -0.01637,0.0098 -0.01406,0.02307 -0.03125,0.03125 -0.01801,0.0082 -0.04449,-0.0057 -0.0625,0 -0.01882,0.0057 -0.04368,0.02798 -0.0625,0.03125 -0.01964,0.0033 -0.04286,0 -0.0625,0 -0.01882,8.18e-4 -0.04368,0.0016 -0.0625,0 -0.01964,-0.0025 -0.04368,0.0041 -0.0625,0 -0.01882,-0.0049 -0.01324,-0.0247 -0.03125,-0.03125 -0.01801,-0.0065 -0.04613,-0.02143 -0.0625,-0.03125 -0.01719,-0.009 -0.04695,-0.01979 -0.0625,-0.03125 -0.01637,-0.01146 -0.01816,-0.01816 -0.03125,-0.03125 -0.01473,-0.01391 -0.01897,-0.01652 -0.03125,-0.03125 -0.01228,-0.01473 -0.02143,-0.04613 -0.03125,-0.0625 l -0.03125,0 L 24.9375,36.75 c -0.0082,-0.01309 -0.02552,-0.01734 -0.03125,-0.03125 -0.0065,-0.01473 0.0041,-0.04695 0,-0.0625 -0.0057,-0.01801 -0.02798,-0.04368 -0.03125,-0.0625 -0.0033,-0.01964 0,-0.01161 0,-0.03125 -8.18e-4,-0.01882 -0.0016,-0.04368 0,-0.0625 0.0025,-0.01964 -0.0041,-0.04368 0,-0.0625 0.0049,-0.01882 0.0247,-0.04449 0.03125,-0.0625 0.0074,-0.01801 0.02225,-0.04531 0.03125,-0.0625 0.009,-0.01637 0.01979,-0.0157 0.03125,-0.03125 0.01146,-0.01555 0.01734,-0.04859 0.03125,-0.0625 0.01309,-0.01391 0.01652,-0.01897 0.03125,-0.03125 0.01555,-0.01228 0.04613,-0.02143 0.0625,-0.03125 0.01637,-0.01064 0.01324,-0.02307 0.03125,-0.03125 0.01719,-0.0074 0.04368,0.0057 0.0625,0 0.01801,-0.0057 0.04286,-0.0288 0.0625,-0.03125 z"/>
  </symbol>
  <use xlink:href="#notice_e5_15" x="0" y="0" />
</svg>
