<svg
   xmlns="http://www.w3.org/2000/svg"
   xmlns:xlink="http://www.w3.org/1999/xlink"  
   version="1.1"
   width="60"
   height="60">
  <symbol id="notice_slipway" width="60" height="60">
    <path d="m 51.3375,17.440625 -38.1375,8.1 3.3375,5.4 17.5125,-0.9 c 5.9484,-1.76004 17.9751,-4.9512 17.2875,-12.6 z m 0.0375,10.6875 -35.7,5.325 0.75,1.425 16.8,-2.625 c -0.7216,0.247206 -1.2375,0.903533 -1.2375,1.65 0,0.908164 0.757472,1.65394 1.725,1.725 l -17.4,2.4375 -0.0375,0 -0.0375,0 0,0.075 -0.525,0.6375 c -0.646915,0.800221 -1.148326,1.044928 -1.5375,1.0125 -0.389174,-0.03242 -0.91466,-0.36209 -1.5,-1.275 l -0.675,-1.0875 -0.45,1.2 c -0.190145,0.5299 -0.368324,0.851664 -0.525,1.0125 -0.156676,0.160836 -0.25791,0.188567 -0.375,0.1875 -0.234179,-0.0022 -0.7819224,-0.337241 -1.3875,-0.9375 l -0.8625,0.9 c 0.6786624,0.672701 1.3582188,1.266874 2.25,1.275 0.44589,0.0041 0.895786,-0.211709 1.2375,-0.5625 0.146741,-0.150638 0.217236,-0.437774 0.3375,-0.6375 0.545429,0.624215 1.13779,1.104197 1.8375,1.1625 0.782486,0.0652 1.478563,-0.380168 2.1375,-1.05 l -0.0375,2.4 35.4375,-0.1125 -0.1125,-9.15 -16.8375,2.3625 c 0.634656,-0.275917 1.0875,-0.884317 1.0875,-1.575 0,-0.954432 -0.835296,-1.725 -1.875,-1.725 l 17.625,-2.7375 -0.1125,-1.3125 z m -17.5125,5.025 c 0.448968,0 0.7875,0.338016 0.7875,0.75 0,0.411984 -0.338532,0.75 -0.7875,0.75 -0.448968,0 -0.825,-0.338016 -0.825,-0.75 0,-0.411984 0.376044,-0.75 0.825,-0.75 z" />
  </symbol>
  <use xlink:href="#notice_slipway" x="0" y="0" />
</svg>
