<?xml version="1.0" encoding="UTF-8" standalone="no"?>
<!-- Created with Inkscape (http://www.inkscape.org/) -->
<svg id="svg2" xmlns:rdf="http://www.w3.org/1999/02/22-rdf-syntax-ns#" xmlns="http://www.w3.org/2000/svg" height="60" width="60" version="1.1" xmlns:cc="http://creativecommons.org/ns#" xmlns:dc="http://purl.org/dc/elements/1.1/">
 <metadata id="metadata7">
  <rdf:RDF>
   <cc:Work rdf:about="">
    <dc:format>image/svg+xml</dc:format>
    <dc:type rdf:resource="http://purl.org/dc/dcmitype/StillImage"/>
    <dc:title/>
   </cc:Work>
  </rdf:RDF>
 </metadata>
 <g id="layer46" transform="translate(0,-60)">
  <g id="layer1-194" transform="matrix(.97035 0 0 .97033 -510.62 -293.49)">
   <g id="g2941" transform="matrix(.84346 0 0 .84346 87.213 61.866)">
    <g id="g3801" transform="matrix(0 1.25 1.25 0 525.96 430.58)" stroke="#000" fill="#fff">
     <path id="path3803" stroke-linejoin="bevel" d="m0 0v49.89 0.013 0.013c-0.001 0.145-0.011 0.289-0.031 0.432-0.019 0.144-0.048 0.286-0.088 0.425-0.036 0.14-0.083 0.278-0.139 0.411s-0.121 0.263-0.195 0.387c-0.072 0.126-0.153 0.246-0.241 0.361-0.088 0.114-0.184 0.223-0.287 0.325-0.101 0.103-0.21 0.199-0.324 0.287-0.115 0.088-0.236 0.169-0.361 0.24-0.125 0.074-0.254 0.138-0.388 0.194-0.133 0.056-0.271 0.103-0.41 0.14-0.14 0.04-0.282 0.07-0.425 0.09-0.144 0.02-0.288 0.03-0.432 0.029h-49.943c-0.144-0.001-0.289-0.011-0.432-0.03-0.144-0.019-0.285-0.049-0.425-0.089-0.14-0.036-0.277-0.082-0.41-0.138-0.134-0.057-0.263-0.122-0.388-0.196-0.125-0.071-0.246-0.152-0.361-0.24-0.114-0.088-0.223-0.184-0.324-0.287-0.104-0.102-0.199-0.211-0.288-0.325-0.088-0.115-0.168-0.235-0.24-0.361-0.073-0.125-0.138-0.254-0.194-0.387-0.056-0.134-0.103-0.271-0.14-0.411-0.04-0.139-0.07-0.281-0.09-0.425-0.02-0.143-0.03-0.288-0.029-0.432v-49.942c0.001-0.145 0.011-0.289 0.03-0.433 0.02-0.143 0.049-0.285 0.089-0.424 0.036-0.14 0.082-0.278 0.138-0.411 0.057-0.133 0.122-0.263 0.196-0.388 0.072-0.125 0.152-0.246 0.24-0.36 0.089-0.115 0.184-0.223 0.288-0.325 0.101-0.103 0.21-0.199 0.324-0.287 0.115-0.089 0.236-0.169 0.361-0.241 0.125-0.073 0.255-0.138 0.388-0.194 0.133-0.055 0.27-0.102 0.41-0.14 0.14-0.039 0.282-0.069 0.425-0.089 0.143-0.021 0.288-0.031 0.432-0.029h0.013l0.014-0.001h49.889l0.013 0.001h0.014c0.144 0 0.288 0.01 0.432 0.03 0.143 0.019 0.285 0.049 0.425 0.088 0.14 0.036 0.277 0.083 0.41 0.139 0.134 0.056 0.263 0.121 0.388 0.195 0.125 0.072 0.246 0.153 0.36 0.241 0.115 0.088 0.224 0.184 0.325 0.287 0.103 0.102 0.2 0.21 0.288 0.325 0.088 0.114 0.168 0.235 0.24 0.36 0.073 0.125 0.138 0.255 0.194 0.388 0.056 0.134 0.103 0.271 0.14 0.411 0.04 0.139 0.07 0.281 0.09 0.425 0.02 0.143 0.03 0.287 0.029 0.432v0.013 0.013z" stroke-miterlimit="22.926" stroke-width=".22260"/>
     <g id="g3805" transform="translate(.054)" stroke-width="1.0306">
      <path id="path3807" stroke-linejoin="bevel" d="m0 0v-0.027c-0.001-0.147-0.011-0.293-0.031-0.439-0.019-0.146-0.05-0.29-0.089-0.431-0.037-0.143-0.085-0.283-0.142-0.418s-0.123-0.267-0.198-0.393c-0.073-0.128-0.155-0.25-0.245-0.367-0.089-0.117-0.187-0.227-0.291-0.33-0.104-0.105-0.214-0.203-0.33-0.292-0.117-0.09-0.239-0.171-0.367-0.244-0.127-0.075-0.258-0.141-0.394-0.197-0.136-0.057-0.275-0.105-0.417-0.143-0.142-0.04-0.286-0.071-0.432-0.091-0.145-0.021-0.292-0.03-0.439-0.029h-49.943c-0.147 0-0.294 0.011-0.439 0.03-0.146 0.02-0.29 0.05-0.431 0.09-0.143 0.037-0.283 0.084-0.419 0.141-0.135 0.057-0.266 0.123-0.392 0.199-0.128 0.073-0.251 0.155-0.367 0.244-0.117 0.09-0.227 0.187-0.331 0.292-0.104 0.103-0.202 0.213-0.291 0.33-0.09 0.116-0.172 0.239-0.245 0.367-0.074 0.126-0.14 0.258-0.197 0.393-0.057 0.136-0.104 0.275-0.142 0.418-0.041 0.141-0.071 0.285-0.092 0.431-0.02 0.146-0.03 0.293-0.029 0.439v49.943c0.001 0.147 0.011 0.294 0.031 0.44 0.02 0.145 0.05 0.29 0.09 0.431 0.036 0.143 0.084 0.282 0.141 0.418 0.057 0.135 0.123 0.267 0.198 0.393 0.073 0.128 0.155 0.25 0.245 0.367 0.089 0.116 0.187 0.227 0.291 0.33 0.104 0.105 0.214 0.202 0.331 0.292 0.116 0.09 0.239 0.171 0.367 0.244 0.126 0.075 0.257 0.141 0.393 0.197 0.136 0.057 0.275 0.105 0.418 0.143 0.141 0.04 0.285 0.07 0.431 0.091 0.145 0.021 0.292 0.03 0.439 0.029h49.943c0.147 0 0.294-0.011 0.439-0.031 0.146-0.019 0.29-0.049 0.432-0.089 0.142-0.037 0.282-0.084 0.417-0.142 0.136-0.057 0.267-0.123 0.394-0.198 0.127-0.073 0.25-0.155 0.367-0.244 0.116-0.09 0.226-0.187 0.33-0.292 0.105-0.103 0.202-0.214 0.292-0.33 0.089-0.117 0.171-0.239 0.244-0.367 0.075-0.127 0.14-0.258 0.197-0.394 0.057-0.135 0.104-0.275 0.143-0.417 0.039-0.141 0.07-0.286 0.091-0.431 0.02-0.146 0.03-0.293 0.029-0.44v-49.916z" stroke="#000" stroke-miterlimit="22.926" stroke-width="1.9549" fill="#fff"/>
     </g>
    </g>
    <g id="g3809" fill="#039" transform="matrix(0 1.25 1.25 0 525.96 427.62)">
     <path id="path3811" d="m0 0v-0.008c0-0.042-0.003-0.084-0.009-0.125-0.005-0.042-0.014-0.083-0.026-0.123-0.01-0.041-0.024-0.081-0.04-0.12-0.016-0.038-0.035-0.076-0.057-0.112-0.02-0.037-0.044-0.072-0.07-0.105-0.025-0.033-0.053-0.065-0.083-0.094-0.029-0.03-0.061-0.058-0.094-0.084-0.033-0.025-0.068-0.048-0.105-0.069-0.036-0.022-0.074-0.04-0.112-0.056-0.039-0.017-0.079-0.031-0.119-0.041-0.041-0.012-0.082-0.021-0.124-0.027-0.041-0.005-0.083-0.008-0.125-0.008h-0.008-49.89-0.007c-0.042 0-0.084 0.003-0.126 0.009-0.041 0.005-0.083 0.014-0.123 0.026-0.041 0.01-0.081 0.024-0.119 0.04-0.039 0.016-0.077 0.035-0.113 0.057-0.036 0.021-0.071 0.044-0.104 0.07-0.034 0.025-0.065 0.053-0.095 0.083-0.03 0.029-0.058 0.061-0.083 0.094-0.026 0.033-0.049 0.068-0.07 0.105-0.021 0.036-0.04 0.074-0.057 0.112-0.016 0.039-0.029 0.079-0.04 0.12-0.012 0.04-0.02 0.081-0.026 0.123-0.006 0.041-0.009 0.083-0.008 0.125v49.905c0 0.042 0.002 0.084 0.008 0.126 0.006 0.041 0.014 0.083 0.026 0.123 0.01 0.041 0.024 0.081 0.04 0.119 0.017 0.039 0.035 0.077 0.057 0.113 0.021 0.036 0.044 0.071 0.07 0.104 0.025 0.034 0.053 0.065 0.083 0.095s0.061 0.058 0.095 0.083c0.033 0.026 0.068 0.049 0.104 0.07s0.074 0.04 0.113 0.057c0.038 0.016 0.078 0.029 0.119 0.04 0.04 0.012 0.082 0.02 0.123 0.026 0.042 0.006 0.084 0.009 0.126 0.009h49.905c0.042 0 0.084-0.003 0.125-0.009 0.042-0.006 0.083-0.014 0.124-0.026 0.04-0.01 0.08-0.024 0.119-0.04 0.038-0.016 0.076-0.035 0.112-0.057 0.037-0.021 0.072-0.044 0.105-0.07 0.033-0.025 0.065-0.053 0.094-0.083 0.03-0.03 0.058-0.061 0.084-0.095 0.025-0.033 0.049-0.068 0.069-0.104 0.022-0.036 0.04-0.074 0.057-0.113 0.016-0.038 0.03-0.078 0.04-0.119 0.012-0.04 0.021-0.082 0.027-0.123 0.005-0.042 0.008-0.084 0.008-0.126v-0.007-49.89" fill-rule="evenodd" fill="#039"/>
    </g>
    <g id="g3813" transform="matrix(0 1.25 1.25 0 535.9 398.73)">
     <path id="path3815" d="m0 0h0.712l0.034 0.002c0.011 0.001 0.023 0.001 0.034 0.002 0.131 0.01 0.26 0.037 0.383 0.082 0.124 0.044 0.24 0.108 0.345 0.19 0.088 0.063 0.168 0.138 0.236 0.223s0.123 0.179 0.166 0.279c0.05 0.112 0.084 0.231 0.1 0.352 0.017 0.123 0.019 0.247 0.006 0.371-0.009 0.125-0.034 0.248-0.074 0.367-0.039 0.118-0.097 0.229-0.171 0.329-0.074 0.102-0.163 0.192-0.266 0.266-0.102 0.074-0.214 0.133-0.334 0.174-0.038 0.015-0.077 0.028-0.116 0.039-0.04 0.01-0.079 0.019-0.119 0.026-0.017 0.003-0.034 0.006-0.05 0.008-0.017 0.003-0.034 0.005-0.051 0.007h-1.547-0.057c-0.019-0.001-0.038-0.001-0.056-0.003-0.076-0.005-0.152-0.019-0.225-0.042s-0.145-0.052-0.214-0.087c-0.072-0.034-0.141-0.074-0.207-0.12-0.065-0.045-0.125-0.097-0.178-0.156-0.036-0.037-0.068-0.076-0.098-0.118-0.029-0.042-0.056-0.086-0.08-0.131-0.01-0.018-0.019-0.036-0.028-0.054s-0.018-0.037-0.027-0.055l-0.696-1.727-0.016-0.041c-0.005-0.014-0.01-0.027-0.016-0.041-0.043-0.106-0.093-0.209-0.152-0.308-0.058-0.1-0.122-0.195-0.191-0.287-0.123-0.171-0.263-0.329-0.416-0.473-0.154-0.144-0.322-0.272-0.503-0.38-0.202-0.128-0.418-0.231-0.645-0.306-0.225-0.075-0.459-0.122-0.696-0.139-0.019-0.002-0.038-0.004-0.057-0.006l-0.057-0.004h-1.13c-0.031 0-0.062 0-0.093 0.001l-0.093 0.003c-0.168 0.009-0.333 0.036-0.495 0.079-0.164 0.044-0.323 0.102-0.476 0.172-0.24 0.102-0.466 0.233-0.675 0.388-0.208 0.156-0.396 0.337-0.557 0.541-0.18 0.213-0.329 0.451-0.443 0.706s-0.192 0.525-0.233 0.801c-0.04 0.232-0.053 0.469-0.038 0.704 0.014 0.235 0.057 0.467 0.127 0.692 0.083 0.289 0.208 0.564 0.371 0.816 0.164 0.253 0.363 0.482 0.592 0.678 0.177 0.162 0.373 0.302 0.584 0.418 0.209 0.116 0.431 0.206 0.661 0.269 0.094 0.028 0.19 0.051 0.287 0.07 0.096 0.018 0.193 0.031 0.291 0.039 0.021 0.002 0.042 0.004 0.064 0.005l0.064 0.005h0.86v-1.891h-0.716l-0.037-0.004-0.037-0.004c-0.077-0.009-0.153-0.021-0.229-0.038s-0.149-0.041-0.22-0.072c-0.11-0.046-0.212-0.11-0.301-0.19-0.09-0.081-0.168-0.173-0.232-0.276-0.066-0.096-0.118-0.2-0.155-0.31-0.038-0.11-0.059-0.224-0.064-0.339-0.012-0.163 0.008-0.328 0.059-0.483 0.051-0.158 0.132-0.304 0.238-0.431 0.079-0.101 0.173-0.19 0.28-0.261 0.104-0.071 0.221-0.123 0.343-0.153 0.043-0.012 0.086-0.022 0.13-0.028 0.044-0.007 0.088-0.013 0.132-0.018l0.04-0.004 0.04-0.004h0.851l0.034 0.002c0.011 0.001 0.023 0.002 0.034 0.003 0.087 0.008 0.172 0.024 0.256 0.048 0.084 0.023 0.166 0.054 0.244 0.093 0.074 0.034 0.145 0.076 0.211 0.124s0.128 0.102 0.183 0.162c0.032 0.034 0.062 0.068 0.089 0.105 0.028 0.036 0.053 0.075 0.075 0.115 0.008 0.014 0.016 0.027 0.023 0.042l0.021 0.042 0.575 1.433 0.021 0.045 0.022 0.046c0.045 0.102 0.089 0.205 0.133 0.309 0.042 0.103 0.09 0.205 0.142 0.304 0.069 0.132 0.149 0.258 0.241 0.376s0.193 0.23 0.302 0.334c0.13 0.128 0.271 0.246 0.421 0.351 0.149 0.104 0.308 0.194 0.475 0.269 0.168 0.078 0.344 0.141 0.524 0.187s0.364 0.077 0.549 0.092l0.044 0.005 0.044 0.004h1.679l0.035-0.004 0.036-0.003c0.125-0.012 0.249-0.027 0.372-0.047 0.124-0.019 0.246-0.045 0.367-0.078 0.254-0.067 0.497-0.168 0.722-0.302 0.227-0.134 0.436-0.298 0.62-0.487 0.174-0.166 0.327-0.353 0.456-0.555 0.129-0.203 0.233-0.419 0.311-0.645 0.089-0.237 0.148-0.484 0.177-0.735 0.029-0.252 0.029-0.507-0.001-0.759-0.033-0.335-0.117-0.663-0.25-0.973-0.132-0.309-0.314-0.595-0.54-0.846-0.179-0.212-0.386-0.398-0.617-0.552-0.229-0.153-0.479-0.272-0.742-0.353-0.133-0.045-0.269-0.08-0.408-0.105-0.138-0.026-0.277-0.044-0.417-0.055l-0.044-0.003-0.043-0.004h-0.839v1.895" fill-rule="evenodd" fill="#fff"/>
    </g>
    <g id="g3817" transform="matrix(0 1.25 1.25 0 543.75 403.47)">
     <path id="path3819" d="m0 0h-13.227v3.213l0.005 0.07c0.002 0.023 0.004 0.046 0.006 0.07 0.016 0.169 0.046 0.338 0.089 0.503 0.044 0.165 0.102 0.327 0.174 0.482 0.101 0.23 0.231 0.447 0.389 0.643 0.157 0.196 0.339 0.372 0.541 0.522 0.141 0.112 0.293 0.211 0.452 0.294 0.158 0.083 0.325 0.15 0.496 0.201 0.102 0.032 0.205 0.059 0.309 0.08s0.209 0.038 0.314 0.051l0.072 0.009 0.073 0.009h2.165 0.034 0.034c0.185-0.003 0.367-0.03 0.545-0.081 0.179-0.05 0.354-0.118 0.521-0.201 0.234-0.108 0.455-0.243 0.658-0.403 0.201-0.157 0.38-0.342 0.529-0.55 0.145-0.188 0.265-0.395 0.358-0.614s0.164-0.447 0.21-0.681c0.012-0.053 0.023-0.107 0.031-0.16 0.009-0.054 0.015-0.108 0.019-0.162 0.002-0.028 0.003-0.056 0.004-0.084s0.001-0.056 0.001-0.084v-1.245h5.198v-1.882" fill-rule="evenodd" fill="#fff"/>
    </g>
    <g id="g3821" transform="matrix(0 1.25 1.25 0 553.22 390.64)">
     <path id="path3823" d="m0 0-0.054 0.004c-0.019 0.001-0.037 0.003-0.055 0.004-0.236 0.02-0.47 0.065-0.697 0.133-0.228 0.068-0.448 0.163-0.653 0.283-0.243 0.132-0.466 0.297-0.662 0.492-0.196 0.194-0.366 0.414-0.502 0.654-0.116 0.187-0.21 0.387-0.283 0.596-0.071 0.208-0.121 0.423-0.146 0.642-0.037 0.268-0.038 0.54-0.004 0.808 0.033 0.268 0.103 0.53 0.208 0.78 0.111 0.283 0.264 0.548 0.455 0.786 0.193 0.239 0.419 0.451 0.671 0.627 0.228 0.172 0.479 0.312 0.745 0.417 0.262 0.103 0.539 0.161 0.82 0.172 0.018 0.001 0.037 0.002 0.055 0.003l0.055 0.002h7.345l0.059-0.005c0.02-0.002 0.039-0.004 0.059-0.006 0.191-0.019 0.379-0.052 0.565-0.099 0.186-0.048 0.367-0.113 0.542-0.194 0.319-0.14 0.612-0.334 0.866-0.573 0.255-0.239 0.466-0.521 0.623-0.833 0.127-0.226 0.222-0.468 0.283-0.719 0.062-0.251 0.092-0.509 0.089-0.767 0.004-0.263-0.025-0.525-0.086-0.78-0.061-0.254-0.154-0.499-0.279-0.728-0.107-0.21-0.24-0.406-0.395-0.583-0.155-0.179-0.33-0.34-0.521-0.481-0.2-0.154-0.417-0.283-0.648-0.386-0.228-0.101-0.469-0.17-0.716-0.204-0.06-0.009-0.12-0.017-0.18-0.023s-0.12-0.011-0.18-0.015l-0.098-0.007h-7.281" fill-rule="evenodd" fill="#fff"/>
    </g>
    <g id="g3825" fill="#039" transform="matrix(0 1.25 1.25 0 555.59 390.76)">
     <path id="path3827" d="m0 0h7.078l0.047 0.004c0.016 0.001 0.032 0.003 0.047 0.004 0.125 0.013 0.248 0.04 0.367 0.081s0.231 0.1 0.332 0.175c0.114 0.078 0.213 0.176 0.292 0.288 0.08 0.113 0.14 0.239 0.178 0.373 0.042 0.132 0.061 0.27 0.057 0.409s-0.032 0.276-0.081 0.405c-0.04 0.117-0.098 0.228-0.171 0.328-0.072 0.101-0.159 0.19-0.257 0.265-0.073 0.058-0.151 0.108-0.234 0.148-0.083 0.041-0.17 0.073-0.26 0.095-0.038 0.011-0.076 0.019-0.115 0.026-0.039 0.006-0.078 0.011-0.117 0.013-0.015 0.001-0.029 0.002-0.044 0.002-0.014 0-0.029 0.001-0.043 0.001h-7.095l-0.049-0.004c-0.017-0.001-0.033-0.003-0.049-0.005-0.103-0.01-0.204-0.033-0.302-0.067-0.099-0.033-0.192-0.08-0.278-0.138-0.118-0.074-0.222-0.168-0.307-0.278-0.086-0.111-0.153-0.235-0.198-0.368-0.051-0.136-0.079-0.28-0.082-0.425s0.019-0.289 0.066-0.427c0.037-0.123 0.092-0.239 0.165-0.346 0.072-0.105 0.16-0.198 0.262-0.275 0.069-0.055 0.144-0.102 0.224-0.141 0.079-0.038 0.162-0.069 0.247-0.092 0.04-0.011 0.079-0.021 0.119-0.029 0.04-0.007 0.08-0.013 0.121-0.016 0.013-0.002 0.027-0.003 0.04-0.004l0.04-0.002" fill-rule="evenodd" fill="#039"/>
    </g>
    <g id="g3829" transform="matrix(0 1.25 1.25 0 563.57 403.47)">
     <path id="path3831" d="m0 0h-13.227v3.47 0.089c0.001 0.03 0.001 0.06 0.003 0.09 0.013 0.26 0.07 0.517 0.168 0.759 0.099 0.246 0.232 0.477 0.394 0.688 0.16 0.227 0.351 0.431 0.567 0.606 0.213 0.174 0.45 0.316 0.703 0.421 0.138 0.063 0.281 0.115 0.427 0.155 0.145 0.041 0.293 0.073 0.443 0.096 0.021 0.004 0.042 0.007 0.062 0.01l0.063 0.01h1.811l0.078-0.01c0.026-0.003 0.052-0.006 0.078-0.01 0.181-0.024 0.361-0.06 0.537-0.108 0.177-0.049 0.349-0.115 0.513-0.196 0.158-0.074 0.309-0.164 0.45-0.268 0.141-0.103 0.273-0.219 0.393-0.347 0.077-0.079 0.15-0.161 0.218-0.248s0.132-0.177 0.19-0.27c0.014-0.022 0.028-0.045 0.042-0.067 0.013-0.023 0.027-0.045 0.04-0.068l6.047 2.059v-2.018l-5.657-1.772v-1.175h5.657v-1.896" fill-rule="evenodd" fill="#fff"/>
    </g>
    <g id="g3833" fill="#039" transform="matrix(0 1.25 1.25 0 565.94 389.17)">
     <path id="path3835" d="m0 0h4.121v1.443c0 0.016-0.001 0.033-0.001 0.05-0.001 0.017-0.002 0.034-0.003 0.05-0.011 0.146-0.048 0.289-0.109 0.421-0.061 0.134-0.146 0.254-0.252 0.355-0.063 0.067-0.133 0.125-0.21 0.175-0.077 0.049-0.159 0.092-0.243 0.127-0.056 0.025-0.114 0.046-0.173 0.063-0.058 0.017-0.118 0.03-0.179 0.036-0.015 0.002-0.031 0.004-0.047 0.005l-0.048 0.003h-1.58l-0.044-0.003c-0.014-0.002-0.028-0.003-0.043-0.005-0.074-0.008-0.147-0.021-0.22-0.038-0.072-0.018-0.143-0.042-0.211-0.072-0.09-0.037-0.174-0.086-0.252-0.144-0.078-0.059-0.148-0.126-0.21-0.202-0.055-0.064-0.104-0.134-0.144-0.209-0.041-0.074-0.073-0.152-0.097-0.233-0.016-0.05-0.028-0.101-0.037-0.152-0.01-0.052-0.015-0.104-0.017-0.155 0-0.019-0.001-0.037-0.001-0.055v-0.054-1.406" fill-rule="evenodd" fill="#039"/>
    </g>
    <g id="g3837" transform="matrix(0 1.25 1.25 0 575.58 403.47)">
     <path id="path3839" d="m0 0h-11.463v-2.251h-1.765v6.389l1.765 0.002v-2.248h11.463v-1.892" fill-rule="evenodd" fill="#fff"/>
    </g>
    <g id="g3841" fill="#039" transform="matrix(0 1.25 1.25 0 546.09 389.17)">
     <path id="path3843" d="m0 0h4.466v1.192c0 0.018-0.001 0.037-0.001 0.055s-0.001 0.037-0.002 0.055c-0.006 0.108-0.028 0.215-0.064 0.317-0.036 0.103-0.085 0.2-0.147 0.29-0.054 0.085-0.118 0.162-0.191 0.232-0.073 0.069-0.154 0.128-0.241 0.178-0.082 0.049-0.169 0.089-0.259 0.119-0.09 0.029-0.183 0.048-0.277 0.055-0.013 0.001-0.025 0.002-0.037 0.003l-0.037 0.002h-2.002c-0.022-0.001-0.044-0.003-0.067-0.006-0.022-0.002-0.044-0.004-0.066-0.008-0.112-0.016-0.221-0.048-0.323-0.095-0.104-0.047-0.2-0.108-0.286-0.183-0.096-0.076-0.179-0.167-0.247-0.268-0.068-0.102-0.121-0.212-0.157-0.328-0.017-0.048-0.03-0.097-0.04-0.146-0.01-0.05-0.017-0.099-0.019-0.149-0.002-0.019-0.002-0.039-0.002-0.058-0.001-0.019-0.001-0.039-0.001-0.058v-1.199" fill-rule="evenodd" fill="#039"/>
    </g>
   </g>
  </g>
 </g>
</svg>
