<svg
   xmlns="http://www.w3.org/2000/svg"
   xmlns:xlink="http://www.w3.org/1999/xlink"  
   version="1.1"
   width="60"
   height="60">
  <symbol id="notice_e5_14" width="60" height="60">
    <path d="m 29.75,8.46875 c -0.07161,0.011254 -0.149182,0.041016 -0.21875,0.0625 -0.06957,0.019438 -0.152252,0.032832 -0.21875,0.0625 -0.06547,0.029668 -0.126117,0.054874 -0.1875,0.09375 -0.05013,0.029668 -0.07794,0.089193 -0.125,0.125 -0.04604,0.035807 -0.114305,0.052828 -0.15625,0.09375 -0.0051,0.00512 0.0041,0.026135 0,0.03125 l -19.90625,19.875 0,0.03125 -0.03125,0 c -0.05013,0.05218 -0.082032,0.128163 -0.125,0.1875 -0.042968,0.05831 -0.090216,0.124071 -0.125,0.1875 -0.034784,0.06343 -0.068174,0.119979 -0.09375,0.1875 -0.026599,0.06752 -0.046131,0.148159 -0.0625,0.21875 -0.017392,0.07059 -0.023066,0.115886 -0.03125,0.1875 -0.00716,0.07161 -0.00307,0.146113 0,0.21875 0.00102,0.07161 -0.011254,0.147136 0,0.21875 0.011254,0.07059 0.041016,0.150206 0.0625,0.21875 0.020461,0.06957 0.032832,0.121002 0.0625,0.1875 0.028645,0.0665 0.055897,0.157367 0.09375,0.21875 0.029668,0.05115 0.090216,0.07794 0.125,0.125 0.035807,0.04604 0.052828,0.08306 0.09375,0.125 L 8.9375,31.15625 28.84375,51.0625 28.875,51.09375 c 0.05218,0.05013 0.09794,0.08203 0.15625,0.125 0.05831,0.04194 0.123048,0.09124 0.1875,0.125 0.06241,0.03581 0.119979,0.06817 0.1875,0.09375 0.06752,0.02558 0.148159,0.04613 0.21875,0.0625 0.07059,0.01637 0.115886,0.02409 0.1875,0.03125 0.07264,0.0082 0.146113,0.002 0.21875,0 0.07264,-0.001 0.147136,0.01125 0.21875,0 0.07161,-0.01125 0.149182,-0.04204 0.21875,-0.0625 0.06957,-0.02046 0.152252,-0.03283 0.21875,-0.0625 0.06547,-0.02967 0.126117,-0.08715 0.1875,-0.125 0.05013,-0.03069 0.07794,-0.05794 0.125,-0.09375 0.04604,-0.03581 0.114305,-0.05283 0.15625,-0.09375 0.0051,-0.0051 -0.0041,-0.02613 0,-0.03125 0.0051,-0.0041 0.02614,0.0051 0.03125,0 L 51.0625,31.15625 51.09375,31.125 c 0.05013,-0.05218 0.08203,-0.09794 0.125,-0.15625 0.04297,-0.05831 0.09022,-0.124071 0.125,-0.1875 0.03478,-0.06343 0.06817,-0.119979 0.09375,-0.1875 0.0266,-0.06752 0.04613,-0.148159 0.0625,-0.21875 0.01739,-0.06957 0.02409,-0.147136 0.03125,-0.21875 0.0082,-0.07264 0.0031,-0.115886 0,-0.1875 -0.001,-0.07264 0.01125,-0.148159 0,-0.21875 -0.01125,-0.07161 -0.04102,-0.149182 -0.0625,-0.21875 -0.01944,-0.06957 -0.03283,-0.152252 -0.0625,-0.21875 -0.02864,-0.0665 -0.0559,-0.126117 -0.09375,-0.1875 -0.03069,-0.05013 -0.08919,-0.07896 -0.125,-0.125 -0.03478,-0.04604 -0.05283,-0.114305 -0.09375,-0.15625 l -0.03125,0 0,-0.03125 -19.875,-19.875 -0.03125,0 0,-0.03125 c -0.05218,-0.05013 -0.129186,-0.083055 -0.1875,-0.125 -0.05831,-0.042968 -0.123048,-0.091239 -0.1875,-0.125 C 30.717821,8.6204432 30.661271,8.5890994 30.59375,8.5625 30.526229,8.5369237 30.445591,8.5163688 30.375,8.5 c -0.07059,-0.017392 -0.115886,-0.024089 -0.1875,-0.03125 -0.07264,-0.00716 -0.146113,-0.00205 -0.21875,0 -0.07264,0.00205 -0.147136,-0.011254 -0.21875,0 z M 24,20.3125 c 0.02353,-0.0041 0.03897,0.001 0.0625,0 l 12.15625,0 0.03125,0 c 0.02046,0 0.04306,-0.002 0.0625,0 0.01944,0.0031 0.01284,-0.0051 0.03125,0 0.02353,0.0061 0.07124,0.02307 0.09375,0.03125 0.02251,0.0082 0.04102,0.01897 0.0625,0.03125 0.02148,0.01125 0.04306,0.01795 0.0625,0.03125 0.01944,0.01432 0.04511,0.04511 0.0625,0.0625 0.01739,0.01637 0.0159,0.01181 0.03125,0.03125 0.01535,0.01842 0.01897,0.04102 0.03125,0.0625 0.0133,0.02046 0.05227,0.03999 0.0625,0.0625 0.0092,0.02148 -0.0072,0.07124 0,0.09375 0.0061,0.02353 0.02716,0.03897 0.03125,0.0625 0.0031,0.02455 0,0.03795 0,0.0625 0.001,0.02353 0.002,0.03897 0,0.0625 -0.002,0.02455 0.0061,0.07022 0,0.09375 -0.0051,0.02353 -0.02307,0.03999 -0.03125,0.0625 -0.0092,0.02251 -0.02,0.04204 -0.03125,0.0625 l -6.09375,10.5 0,0.03125 c -0.0092,0.01637 -0.02,0.0159 -0.03125,0.03125 -0.01228,0.01535 -0.01795,0.04818 -0.03125,0.0625 -0.01739,0.01739 -0.04408,0.0159 -0.0625,0.03125 -0.01842,0.01535 -0.04204,0.01795 -0.0625,0.03125 -0.02046,0.01228 -0.04102,0.05227 -0.0625,0.0625 -0.02251,0.0092 -0.03999,-0.0061 -0.0625,0 -0.02353,0.0072 -0.03897,0.02716 -0.0625,0.03125 -0.02455,0.0041 -0.0692,0 -0.09375,0 -0.02353,0.001 -0.03897,0.002 -0.0625,0 -0.02455,-0.0031 -0.03897,0.0061 -0.0625,0 -0.02353,-0.0061 -0.03999,-0.02204 -0.0625,-0.03125 -0.02251,-0.0082 -0.04204,-0.01897 -0.0625,-0.03125 -0.02148,-0.01125 -0.04306,-0.01693 -0.0625,-0.03125 -0.02046,-0.01432 -0.04613,-0.04613 -0.0625,-0.0625 -0.01842,-0.01637 -0.04715,-0.01283 -0.0625,-0.03125 -0.01535,-0.01842 -0.01897,-0.04204 -0.03125,-0.0625 l 0,-0.03125 -6.09375,-10.5 c -0.01023,-0.01637 -0.02409,-0.04408 -0.03125,-0.0625 -0.0082,-0.01842 0.0051,-0.01181 0,-0.03125 -0.0072,-0.02251 -0.02716,-0.0692 -0.03125,-0.09375 -0.0041,-0.02353 0,-0.03795 0,-0.0625 -0.001,-0.02353 -0.002,-0.03897 0,-0.0625 0.0031,-0.02455 -0.0051,-0.07022 0,-0.09375 0.0061,-0.02353 0.02307,-0.03999 0.03125,-0.0625 0.0092,-0.02148 0.02,-0.04102 0.03125,-0.0625 0.01125,-0.02046 0.01693,-0.04306 0.03125,-0.0625 0.01432,-0.01944 0.04511,-0.04511 0.0625,-0.0625 0.01637,-0.01739 0.01283,-0.0159 0.03125,-0.03125 0.01944,-0.01535 0.04204,-0.05022 0.0625,-0.0625 0.02046,-0.0133 0.03999,-0.02204 0.0625,-0.03125 0.02148,-0.01023 0.03897,0.0072 0.0625,0 0.02251,-0.0061 0.0692,-0.02818 0.09375,-0.03125 z m -0.09375,12.15625 c 0.02251,-0.0072 0.0692,0.0031 0.09375,0 0.02353,-0.0041 0.03897,0.001 0.0625,0 l 12.15625,0 0.03125,0 c 0.02046,0 0.04306,-0.002 0.0625,0 0.01944,0.0031 0.01284,-0.0041 0.03125,0 0.02353,0.0061 0.07124,0.02307 0.09375,0.03125 0.02251,0.0092 0.04102,0.01897 0.0625,0.03125 0.02148,0.01125 0.04306,0.01693 0.0625,0.03125 0.01944,0.01432 0.04511,0.01386 0.0625,0.03125 0.01739,0.01637 0.0159,0.04409 0.03125,0.0625 0.01535,0.01944 0.01897,0.04102 0.03125,0.0625 0.0133,0.01944 0.05227,0.03999 0.0625,0.0625 0.0092,0.02148 -0.0072,0.03999 0,0.0625 0.0061,0.02353 0.02716,0.03897 0.03125,0.0625 0.0031,0.02353 0,0.07022 0,0.09375 0.001,0.02455 0.002,0.03897 0,0.0625 -0.002,0.02353 0.0061,0.03897 0,0.0625 -0.0051,0.02353 -0.02307,0.07124 -0.03125,0.09375 -0.0092,0.02251 -0.02,0.04204 -0.03125,0.0625 l -6.09375,10.5 c -0.0092,0.01637 -0.02,0.04715 -0.03125,0.0625 -0.01228,0.01535 -0.01795,0.01693 -0.03125,0.03125 -0.01739,0.01739 -0.04408,0.04715 -0.0625,0.0625 -0.01842,0.01535 -0.04204,0.01795 -0.0625,0.03125 -0.02046,0.01228 -0.04102,0.02102 -0.0625,0.03125 -0.02251,0.01023 -0.03999,0.02409 -0.0625,0.03125 -0.02353,0.0072 -0.03897,0.02716 -0.0625,0.03125 -0.02455,0.0041 -0.0692,0 -0.09375,0 -0.02353,0.001 -0.03897,0.002 -0.0625,0 -0.02455,-0.0031 -0.03897,-0.02613 -0.0625,-0.03125 -0.02353,-0.0061 -0.03999,0.0082 -0.0625,0 -0.02251,-0.0082 -0.04204,-0.01897 -0.0625,-0.03125 -0.02148,-0.01125 -0.04306,-0.04818 -0.0625,-0.0625 -0.02046,-0.01432 -0.04613,-0.01488 -0.0625,-0.03125 -0.01842,-0.01739 -0.04715,-0.04409 -0.0625,-0.0625 -0.01535,-0.01841 -0.01897,-0.04204 -0.03125,-0.0625 l -6.09375,-10.5 c -0.01023,-0.01637 -0.02409,-0.04511 -0.03125,-0.0625 -0.0082,-0.01841 0.0051,-0.04306 0,-0.0625 -0.0072,-0.02251 -0.02716,-0.03897 -0.03125,-0.0625 -0.0041,-0.02455 0,-0.03795 0,-0.0625 -0.001,-0.02353 -0.002,-0.07022 0,-0.09375 0.0031,-0.02455 -0.0051,-0.03897 0,-0.0625 0.0061,-0.02353 0.02307,-0.03999 0.03125,-0.0625 0.0092,-0.02251 0.02,-0.04102 0.03125,-0.0625 0.01125,-0.02046 0.01693,-0.04306 0.03125,-0.0625 0.01432,-0.01944 0.04511,-0.04511 0.0625,-0.0625 0.01637,-0.01739 0.01283,-0.04715 0.03125,-0.0625 0.01944,-0.01535 0.04204,-0.01897 0.0625,-0.03125 0.02046,-0.0133 0.03999,-0.02102 0.0625,-0.03125 0.02148,-0.0092 0.03897,-0.02409 0.0625,-0.03125 z"/>
  </symbol>
  <use xlink:href="#notice_e5_14" x="0" y="0" />
</svg>
