<?xml version="1.0" encoding="UTF-8" standalone="no"?>
<svg id="svg2" xmlns:rdf="http://www.w3.org/1999/02/22-rdf-syntax-ns#" xmlns="http://www.w3.org/2000/svg" height="400" width="300" version="1.0" xmlns:cc="http://creativecommons.org/ns#" xmlns:dc="http://purl.org/dc/elements/1.1/">
 <metadata id="metadata2822">
  <rdf:RDF>
   <cc:Work rdf:about="">
    <dc:format>image/svg+xml</dc:format>
    <dc:type rdf:resource="http://purl.org/dc/dcmitype/StillImage"/>
    <dc:title/>
   </cc:Work>
  </rdf:RDF>
 </metadata>
 <g id="g3660" transform="translate(0,80)">
  <path id="path3662" d="m181.54 18.603-6.5312-2.0938-30.469 68.063-29.781 32.594h-7.7812l-0.125 5.6562h31.062c1.2873 5.533 6.2333 9.6562 12.156 9.6562 5.925 0 10.871-4.1205 12.156-9.6562h24.125v-5.6562h-7.7812l-2.4688-22.344 16.625-72.625-7.1562-2.2812-4.0312-1.3125zm-2.2812 6.4062 4.9688 1.7812-15.219 68.031 2.4688 22.344h-9.25c-1.2825-5.5396-6.2286-9.6875-12.156-9.6875-5.9258 0-10.872 4.1506-12.156 9.6875h-13.594l26.25-28.375 28.688-63.781zm-21.7 94.981c0 4.14-3.36 7.5-7.5 7.5s-7.5-3.36-7.5-7.5 3.36-7.5 7.5-7.5 7.5 3.36 7.5 7.5z" fill-rule="evenodd" fill="#000204"/>
  <path id="path3664" d="m150.65 88.609 18.41 6.2197 0.12439-0.52868-18.348-6.2508-0.18659 0.55978z"/>
  <path id="path3666" d="m165.27 56.018 11.6 3.8873c-0.14141 0.29876-0.16166 0.36591-0.15549 0.59088l-11.69-3.918 0.25-0.56z" fill="#000204"/>
  <path id="path3192" d="m125.5 116.03c0.77691-0.79998 24.207-26.134 25.106-27.146 0.107-0.12046 18.021 5.8087 18.254 6.0417 0.0497 0.0497 2.3528 20.353 2.5129 22.152 0.002 0.0262-2.0373 0.0476-4.5324 0.0476h-4.5366l-0.34284-1.0952c-0.74076-2.3664-2.6608-4.9627-4.6882-6.3395-7.0608-4.7949-16.485-1.6238-19.123 6.4348l-0.32736 1h-6.693-6.693l1.0636-1.0952z"/>
  <path id="path3194" d="m171.15 57.903c-3.0086-1.0151-5.5133-1.8887-5.5658-1.9413-0.0658-0.0658 13.314-30.123 13.705-30.788 0.0286-0.0487 4.6898 1.6234 4.7681 1.7105 0.0677 0.0753-7.1283 32.191-7.2939 32.553-0.12469 0.27221-0.83944 0.0769-5.6131-1.5338z"/>
  <path id="path3196" fill="#ffd400" d="m159.86 91.032c-4.819-1.6539-8.751-3.0644-8.7376-3.1344 0.0455-0.23835 13.836-30.868 13.961-31.009 0.1216-0.13725 11.005 3.3854 11.309 3.6604 0.10923 0.0988-6.1069 28.555-7.2306 33.1-0.0583 0.23572-0.20381 0.42005-0.3234 0.40962-0.1196-0.0104-4.1603-1.3721-8.9794-3.026z"/>
 </g>
</svg>
