<?xml version="1.0" encoding="UTF-8" standalone="no"?>
<svg id="svg2" xmlns:rdf="http://www.w3.org/1999/02/22-rdf-syntax-ns#" xmlns="http://www.w3.org/2000/svg" height="400" width="300" version="1.0" xmlns:cc="http://creativecommons.org/ns#" xmlns:dc="http://purl.org/dc/elements/1.1/">
 <metadata id="metadata2822">
  <rdf:RDF>
   <cc:Work rdf:about="">
    <dc:format>image/svg+xml</dc:format>
    <dc:type rdf:resource="http://purl.org/dc/dcmitype/StillImage"/>
    <dc:title/>
   </cc:Work>
  </rdf:RDF>
 </metadata>
 <g id="g2880" transform="translate(0,80)">
  <path id="path2882" d="m181.54 18.603-6.5312-2.0938-30.469 68.063-29.781 32.594h-7.7812l-0.125 5.6562h31.062c1.2873 5.533 6.2333 9.6562 12.156 9.6562 5.925 0 10.871-4.1205 12.156-9.6562h24.125v-5.6562h-7.7812l-2.4688-22.344 16.625-72.625-7.1562-2.2812-4.0312-1.3125zm-2.2812 6.4062 4.9688 1.7812-15.219 68.031 2.4688 22.344h-9.25c-1.2825-5.5396-6.2286-9.6875-12.156-9.6875-5.9258 0-10.872 4.1506-12.156 9.6875h-13.594l26.25-28.375 28.688-63.781zm-21.7 94.981c0 4.14-3.36 7.5-7.5 7.5s-7.5-3.36-7.5-7.5 3.36-7.5 7.5-7.5 7.5 3.36 7.5 7.5z" fill-rule="evenodd" fill="#000407"/>
  <path id="path3658" d="m158.85 70.32 14.508 5.0888-0.0591 0.54193-14.697-5.1199 0.24787-0.51084z"/>
  <path id="path4976" d="m166.09 72.747c-3.778-1.337-6.8993-2.4545-6.9362-2.4833-0.037-0.0288 4.4911-10.183 10.062-22.564l10.129-22.512 2.3976 0.84928c1.3187 0.46711 2.3528 0.9705 2.2981 1.1187-0.0547 0.14816-2.5049 11.028-5.4449 24.176-2.9399 13.149-5.411 23.893-5.4913 23.876-0.0803-0.0169-3.237-1.1246-7.015-2.4616z"/>
  <path id="path4978" fill="#ffd400" d="m124.98 116.77c0.0773-0.12502 5.8972-6.4528 12.933-14.062l12.793-13.834 3.9679-8.8352c2.1824-4.8593 4.0973-8.836 4.2554-8.8371 0.36919-0.002 13.696 4.6103 13.938 4.8243 0.10011 0.0886-0.75725 4.3431-1.9053 9.4544l-2.0873 9.2934 1.152 10.371c0.63363 5.704 1.1576 10.704 1.1645 11.112l0.0124 0.74078h-4.4238-4.4238l-0.32718-0.99136c-1.4335-4.3435-5.4893-7.7316-10.103-8.44-6.1709-0.94743-11.863 2.7087-13.95 8.96-0.14406 0.43155-0.70591 0.4714-6.6467 0.4714-3.5691 0-6.4261-0.10228-6.3488-0.22729z"/>
 </g>
</svg>
