<svg
   xmlns="http://www.w3.org/2000/svg"
   version="1.0"
   width="60"
   height="30">
    <g>
      <path
         d="m 29.125,7.1875 0,8.03125 c -3.879119,0.137478 -7.657524,1.188449 -11.0625,3.0625 l -4,-6.9375 -1.71875,1 4.03125,6.96875 c -2.929054,1.933464 -5.48511,4.519932 -7.46875,7.71875 L 1.8125,22.9375 l -1,1.75 8.65625,4.96875 L 9.5,29.6875 c 6.09684,-11.17196 20.47442,-15.50309 31.875,-9.28125 3.89038,2.123 7.10142,5.33306 9.21875,9.125 l 0.5,-0.5625 8.1875,-4.71875 -1,-1.75 -7.15625,4.15625 C 49.216098,23.701573 46.707766,21.217852 43.8125,19.3125 l 3.96875,-6.90625 -1.71875,-1 -3.96875,6.84375 c -0.02021,-0.0111 -0.04226,-0.0202 -0.0625,-0.03125 -3.02491,-1.65083 -6.25059,-2.54457 -9.46875,-2.875 -0.478439,-0.04912 -0.959312,-0.07241 -1.4375,-0.09375 l 0,-8.0625 -2,0 z"
         style="fill:#000000;fill-opacity:1" />
    </g>
</svg>
