<svg
   xmlns="http://www.w3.org/2000/svg"
   xmlns:xlink="http://www.w3.org/1999/xlink"  
   version="1.1"
   width="60"
   height="60">
   <symbol id="shower" width="60" height="60">
    <rect width="58" height="58" rx="10" ry="10" x="1" y="1"
     style="fill:#ffffff;fill-opacity:0.5;stroke:#a30075;stroke-width:2" />
    <path d="M 26.125,4.375 24,6.5 35.09375,17.625 37.21875,15.5 32.25,10.53125 c 0.142753,-0.142786 0.09999,-0.09986 0.28125,-0.28125 0.654301,-0.654026 1.503681,-1.21875 3.0625,-1.21875 2.268225,0 4.46875,2.323492 4.46875,4.46875 l 0,41.03125 2,0 0,-41.03125 c 0,-3.387742 -2.953975,-6.46875 -6.46875,-6.46875 -2.087581,0 -3.550651,0.894786 -4.46875,1.8125 C 30.943819,9.0250698 30.986485,8.982232 30.84375,9.125 L 26.125,4.375 z M 23.59375,7.78125 11.625,11.03125 12.15625,12.9375 24.125,9.71875 23.59375,7.78125 z M 25.5,11.46875 15.53125,18.8125 16.71875,20.40625 26.6875,13.0625 25.5,11.46875 z m 3.21875,3.5625 L 21.375,25 l 1.59375,1.1875 7.34375,-9.96875 -1.59375,-1.1875 z m 3.375,2.5625 -3.25,11.96875 1.9375,0.53125 L 34,18.125 32.09375,17.59375 z"
     style="fill:#a30075;fill-opacity:1;stroke:none" />
   </symbol>
   <use xlink:href="#shower" x="0" y="0"/>
</svg>
