<?xml version="1.0" encoding="UTF-8" standalone="no"?>
<svg id="svg2" xmlns:rdf="http://www.w3.org/1999/02/22-rdf-syntax-ns#" xmlns="http://www.w3.org/2000/svg" height="400" width="300" version="1.0" xmlns:cc="http://creativecommons.org/ns#" xmlns:dc="http://purl.org/dc/elements/1.1/">
 <metadata id="metadata2822">
  <rdf:RDF>
   <cc:Work rdf:about="">
    <dc:format>image/svg+xml</dc:format>
    <dc:type rdf:resource="http://purl.org/dc/dcmitype/StillImage"/>
    <dc:title/>
   </cc:Work>
  </rdf:RDF>
 </metadata>
 <g id="g3971" transform="translate(0,20)">
  <g id="g3973" transform="translate(-9.9255 -10.032)">
   <g id="g3975" transform="translate(0,-20)">
    <path id="path3977" d="m157.12 197.82c-4.5886 1.0983-8.2134 4.7404-9.2812 9.3438h-8.4375l-0.125 5.6562h8.5625c1.2873 5.533 6.2333 9.6562 12.156 9.6562 5.925 0 10.871-4.1205 12.156-9.6562l8.3125-0.0312v-5.6562l-8.3125 0.0312c-0.4895-2.1143-1.4985-4.0381-2.9062-5.5938l-12.125-3.75zm9.4375-1.0625-4.375-1.4375 4.375 1.4375zm-6.5625 5.7188c4.14 0 7.5 3.36 7.5 7.5s-3.36 7.5-7.5 7.5-7.5-3.36-7.5-7.5 3.36-7.5 7.5-7.5z" fill-rule="evenodd"/>
   </g>
   <g id="g3979" display="none" transform="translate(0,20)">
    <g id="g3981" display="inline" transform="translate(-.032616 -10.012)">
     <g id="g3985" display="none" transform="translate(0,40)">
      <g id="g3987" transform="translate(.053059 -19.898)">
       <path id="path3989" d="m237.08 81.894-5.5938 16.719 4.0312 1.3125 5.5938-16.688-4.0312-1.3438zm-14.481-8.4zm9.1251-2.4875z" fill-rule="evenodd" transform="translate(-40,-40)" fill="#000407"/>
      </g>
     </g>
     <g id="g3991" display="none" transform="translate(0,40)">
      <g id="g3993" transform="translate(-1.1251 -16.486)">
       <path id="path3995" d="m258.13 85.069-6.2-40.575-29.338 29 35.538 11.575zm-6.2-6.8375-20.212-7.225 16.65-16.75 3.5625 23.975z" fill-rule="evenodd" transform="translate(-40,-40)" fill="#000407"/>
      </g>
     </g>
     <g id="g3997" display="none" transform="translate(0,40)">
      <g id="g3999" transform="translate(-1.0006 -16.739)">
       <path id="path4001" d="m194.48 164.58zm6.0312 4.2188zm63.775-118.89-26.425-8.7875-11.575 33.787 26.425 8.6375 11.575-33.637zm-6.0625 3.6125-8.0125 23.975-17.088-6.2 8.0125-23.975 17.088 6.2z" fill-rule="evenodd" transform="translate(-40,-40)" fill="#000407"/>
      </g>
     </g>
     <g id="g4003" display="inline" transform="translate(0,40)">
      <g id="g4005" transform="translate(.016928 -20.003)">
       <path id="path4007" d="m131.6 181.31-61.628 76.308-4.5301 5.5783-5.5574 4.2237-6.8994 2.1092-7.3222-0.10972-6.8122-2.2963-5.7474-4.3373-4.2013-6.0873-2.2249-7.0512 0.15697-6.9752 2.7328-6.0895 4.5948-5.3084 5.5935-4.868 1.1742-0.94649 90.671-44.15zm28.001-25.261c2.1971-0.21962 4.1584 1.3852 4.378 3.5823 0.21962 2.1971-1.3852 4.1584-3.5823 4.378-2.1971 0.21962-4.1584-1.3852-4.378-3.5823-0.21962-2.1971 1.3852-4.1584 3.5823-4.378z" fill-rule="evenodd" fill="#a30075"/>
      </g>
     </g>
     <g id="g4009" display="none" transform="translate(0,40)">
      <g id="g4011" transform="translate(-1.2726 -15.886)">
       <path id="path4013" d="m206 5.6875c-9.3567 0-17 7.6433-17 17s7.6433 17 17 17 17-7.6433 17-17-7.6433-17-17-17zm0 5c6.6513 0 12 5.3487 12 12s-5.3487 12-12 12-12-5.3487-12-12 5.3487-12 12-12z" fill-rule="evenodd" fill="#000407"/>
      </g>
     </g>
     <g id="g4015" fill-rule="evenodd" transform="translate(0,40)" display="none" fill="#000407">
      <path id="path4017" d="m217.84 9.1611c0 8.004-6.496 14.5-14.5 14.5s-14.5-6.496-14.5-14.5 6.496-14.5 14.5-14.5 14.5 6.496 14.5 14.5z"/>
      <path id="path4019" d="m227.32-17.936c0 8.004-6.496 14.5-14.5 14.5s-14.5-6.496-14.5-14.5 6.496-14.5 14.5-14.5 14.5 6.496 14.5 14.5z"/>
     </g>
     <g id="g4021" transform="translate(0,40)" display="none">
      <path id="path4023" d="m191.54 38.594-6.5312-2.0938-30.469 68.063-29.781 32.594h-7.7812l-0.125 5.6562h31.062c1.2873 5.533 6.2333 9.6562 12.156 9.6562 5.925 0 10.871-4.1205 12.156-9.6562h24.125v-5.6562h-7.7812l-2.4688-22.344 16.625-72.625-7.1562-2.2812-4.0312-1.3125zm-2.2812 6.4062 4.9688 1.7812-15.219 68.031 2.4688 22.344h-9.25c-1.2825-5.5396-6.2286-9.6875-12.156-9.6875-5.9258 0-10.872 4.1506-12.156 9.6875h-13.594l26.25-28.375 28.688-63.781zm-21.7 94.981c0 4.14-3.36 7.5-7.5 7.5s-7.5-3.36-7.5-7.5 3.36-7.5 7.5-7.5 7.5 3.36 7.5 7.5z" fill-rule="evenodd" display="inline" fill="#000407"/>
      <path id="path4025" d="m191.66 45.835-27.913 82.17 0.60559 0.25569 27.76-82.265-0.45296-0.16018z" fill="#000204"/>
     </g>
     <g id="g4027" transform="translate(0,40)" display="none">
      <path id="path4029" d="m191.54 38.594-6.5312-2.0938-30.469 68.063-29.781 32.594h-7.7812l-0.125 5.6562h31.062c1.2873 5.533 6.2333 9.6562 12.156 9.6562 5.925 0 10.871-4.1205 12.156-9.6562h24.125v-5.6562h-7.7812l-2.4688-22.344 16.625-72.625-7.1562-2.2812-4.0312-1.3125zm-2.2812 6.4062 4.9688 1.7812-15.219 68.031 2.4688 22.344h-9.25c-1.2825-5.5396-6.2286-9.6875-12.156-9.6875-5.9258 0-10.872 4.1506-12.156 9.6875h-13.594l26.25-28.375 28.688-63.781zm-21.7 94.981c0 4.14-3.36 7.5-7.5 7.5s-7.5-3.36-7.5-7.5 3.36-7.5 7.5-7.5 7.5 3.36 7.5 7.5z" fill-rule="evenodd" display="inline" fill="#000204"/>
      <path id="path4031" d="m160.65 108.6 18.41 6.2197 0.12439-0.52868-18.348-6.2508-0.18659 0.55978z"/>
      <path id="path4033" d="m175.27 76.008 11.6 3.8873c-0.14141 0.29876-0.16166 0.36591-0.15549 0.59088l-11.693-3.9184 0.24879-0.55978z" fill="#000204"/>
     </g>
     <g id="g4035" transform="translate(0,40)" display="none">
      <path id="path4037" d="m191.54 38.594-6.5312-2.0938-30.469 68.063-29.781 32.594h-7.7812l-0.125 5.6562h31.062c1.2873 5.533 6.2333 9.6562 12.156 9.6562 5.925 0 10.871-4.1205 12.156-9.6562h24.125v-5.6562h-7.7812l-2.4688-22.344 16.625-72.625-7.1562-2.2812-4.0312-1.3125zm-2.2812 6.4062 4.9688 1.7812-15.219 68.031 2.4688 22.344h-9.25c-1.2825-5.5396-6.2286-9.6875-12.156-9.6875-5.9258 0-10.872 4.1506-12.156 9.6875h-13.594l26.25-28.375 28.688-63.781zm-21.7 94.981c0 4.14-3.36 7.5-7.5 7.5s-7.5-3.36-7.5-7.5 3.36-7.5 7.5-7.5 7.5 3.36 7.5 7.5z" fill-rule="evenodd" display="inline" fill="#000407"/>
      <path id="path4039" d="m168.85 90.31 14.508 5.0888-0.0591 0.54193-14.697-5.1199 0.24787-0.51084z"/>
     </g>
    </g>
   </g>
  </g>
  <path id="path4041" d="m175.25 76.341-31.25 92.875 17.562 5.9375 31.25-92.875-17.562-5.9375zm2.4688 4.875 10.344 3.5-28.656 85.125-10.344-3.4688 28.656-85.156z"/>
  <rect id="rect4043" transform="rotate(18.7)" height="1.2122" width="13.738" y="64.794" x="192.43"/>
  <rect id="rect4045" transform="rotate(18.7)" height="1.2795" width="13.772" y="87.37" x="192.97"/>
  <rect id="rect3506" transform="rotate(18.7)" height="1.2122" width="13.738" y="41.662" x="194.11"/>
  <path id="path4641" d="m175.99 123.49c-2.75-0.93124-5.0219-1.71-5.0487-1.7306-0.0429-0.033 6.7198-20.286 6.8128-20.403 0.0554-0.0697 10.173 3.3808 10.173 3.4694 0 0.15594-6.7784 20.205-6.8565 20.28-0.0445 0.0428-2.331-0.68414-5.081-1.6154z" transform="translate(0,-20)" fill="#d40000"/>
  <path id="path4643" d="m161.31 166.77c-2.7106-0.92503-4.943-1.6965-4.9608-1.7144-0.036-0.036 6.6616-19.967 6.7341-20.039 0.025-0.025 2.3251 0.72672 5.1113 1.6706l5.0658 1.7161-0.54025 1.625c-3.323 9.9951-6.2271 18.436-6.3409 18.431-0.0775-0.004-2.3587-0.76374-5.0693-1.6888z" transform="translate(0,-20)" fill="#d40000"/>
  <path id="path4645" d="m168.56 145.39c-2.712-0.92608-4.9541-1.7069-4.9823-1.7352-0.056-0.056 6.6881-20.178 6.8516-20.442 0.0771-0.12475 1.2674 0.2341 5.163 1.5565l5.0628 1.7186-3.4571 10.299c-1.9014 5.6644-3.5133 10.296-3.5821 10.293-0.0687-0.003-2.3439-0.76362-5.0559-1.6897z" transform="translate(0,-20)" fill="#fff"/>
  <path id="path5155" d="m154.21 188.04c-2.7113-0.90982-4.9468-1.7069-4.9677-1.7714-0.0391-0.1205 6.5031-19.64 6.6226-19.759 0.0366-0.0366 2.3442 0.70338 5.1279 1.6445l5.0613 1.711-3.3322 9.9228c-1.8327 5.4576-3.3884 9.9191-3.4572 9.9146-0.0687-0.005-2.3434-0.75264-5.0547-1.6624z" transform="translate(0,-20)" fill="#fff"/>
 </g>
</svg>
