<?xml version="1.0" encoding="UTF-8" standalone="no"?>
<svg id="svg2" xmlns:rdf="http://www.w3.org/1999/02/22-rdf-syntax-ns#" xmlns="http://www.w3.org/2000/svg" height="400" width="300" version="1.0" xmlns:cc="http://creativecommons.org/ns#" xmlns:dc="http://purl.org/dc/elements/1.1/">
 <metadata id="metadata2913">
  <rdf:RDF>
   <cc:Work rdf:about="">
    <dc:format>image/svg+xml</dc:format>
    <dc:type rdf:resource="http://purl.org/dc/dcmitype/StillImage"/>
    <dc:title/>
   </cc:Work>
  </rdf:RDF>
 </metadata>
 <g id="g5527">
  <g id="g5529">
   <path id="path5531" d="m129.33 154.26a24.438 23.625 0 1 1 42.9 0.12552" transform="matrix(1.1867 0 0 1.2275 -24.074 10.693)" stroke="#000" stroke-width="5.7998" fill="none"/>
   <path id="path5533" d="m115.97 137.17v5.6121l21.954 0.0442c1.2873 5.533 6.2333 9.6562 12.156 9.6562 5.925 0 10.871-4.1205 12.156-9.6562h29.844v-0.0625-5.5938h-76.11zm46.266 0c-1.2853-5.5357-6.2313-9.6562-12.156-9.6562-5.923 0.00001-10.869 4.1233-12.156 9.6562h24.312zm-12.156-4.6875c4.14 0 7.5 3.36 7.5 7.5s-3.36 7.5-7.5 7.5-7.5-3.36-7.5-7.5 3.36-7.5 7.5-7.5z" fill-rule="evenodd" transform="translate(0,60)" fill="#000407"/>
  </g>
  <path id="path3011" d="m109.75 216.69a24.187 26.325 0 1 1 39.777 0.65691" transform="matrix(.80623 0 0 .74075 50.191 36.985)" fill="none"/>
  <rect id="rect6060" stroke-linejoin="round" transform="rotate(25)" height="25" width="8" stroke="#000" stroke-linecap="round" y="83.94" x="216.29" stroke-width=".1" fill="none"/>
  <path id="path8289" fill="#ffd400" d="m131.56 196.35c-0.96871-2.2088-1.6266-4.6303-1.96-7.2141-0.16933-1.3122-0.14493-4.8179 0.0425-6.103 0.71139-4.8785 2.477-9.0484 5.3587-12.656 2.3583-2.9524 5.1732-5.2081 8.6733-6.9504 1.7334-0.86282 3.1594-1.3928 5.0044-1.8601 2.2743-0.57593 3.657-0.7463 6.103-0.75198 2.2441-0.005 3.0707 0.0714 5.0816 0.47097 2.2921 0.45543 4.0846 1.0718 6.3247 2.1749 3.846 1.8938 7.0785 4.6532 9.4986 8.1084 4.1056 5.8617 5.5857 13.107 4.0875 20.009-0.34696 1.5983-0.83416 3.1143-1.5218 4.7351l-0.34819 0.82075h-3.2324c-2.563 0-3.2196-0.0218-3.1703-0.10523 0.0342-0.0579 0.15033-0.24693 0.25808-0.42013 0.10774-0.17319 0.38483-0.69082 0.61574-1.1503 1.6823-3.3474 2.385-7.2046 1.9773-10.854-0.17649-1.5798-0.40656-2.6404-0.88444-4.0772-2.4744-7.4396-8.8884-12.571-16.705-13.366-1.3491-0.13708-3.7395-0.0591-5.0539 0.1648-2.055 0.35012-3.6028 0.85029-5.4717 1.7682-5.9989 2.9463-10.018 8.6428-10.814 15.326-0.15196 1.2761-0.11479 3.7387 0.0759 5.0259 0.35287 2.3824 1.1988 4.9187 2.2237 6.6675 0.25744 0.43926 0.30092 0.57609 0.24058 0.75714l-0.0736 0.22099-2.9928 0.0221-2.9928 0.0221-0.34428-0.78502z"/>
  <path id="path8293" fill="#ffd400" d="m157.89 190.22c-1.6183-1.3014-3.662-2.222-5.6791-2.5582-0.46298-0.0772-0.85018-0.14856-0.86044-0.15864-0.0163-0.016 9.0549-19.51 9.1002-19.557 0.01-0.01 0.44762 0.13177 0.97348 0.3146 1.1592 0.40305 2.8914 1.2426 3.9187 1.8993 0.80865 0.51691 1.9782 1.3724 1.9782 1.4471 0 0.0513-8.3223 17.922-8.6639 18.605l-0.223 0.44535-0.54417-0.4376z"/>
  <path id="path8295" fill="#ffd400" d="m131.85 196.9c-0.45077-0.87169-1.3323-3.4179-1.6546-4.7791-0.43992-1.858-0.59457-3.0586-0.64514-5.0087-0.0692-2.6675 0.095-4.375 0.64574-6.7165 0.92654-3.9392 2.8463-7.6939 5.5182-10.793 3.8577-4.4741 9.5354-7.5942 15.485-8.5096 1.4152-0.21773 4.3036-0.3019 5.8604-0.17077 4.2551 0.35841 8.5922 1.9309 12.28 4.4524 3.5363 2.4177 6.32 5.6433 8.2944 9.611 1.6615 3.3388 2.5079 6.724 2.6216 10.485 0.11393 3.7665-0.52598 7.1774-2.0136 10.733-0.35961 0.8595-0.37779 0.8847-0.65868 0.91335-0.15888 0.0162-1.584 0.002-3.167-0.0307l-2.8781-0.0602 0.19717-0.31233c0.66247-1.0494 1.5728-3.1803 1.9655-4.6009 0.53058-1.9193 0.68308-2.8979 0.74644-4.7902 0.0841-2.5125-0.21689-4.6018-0.99448-6.9027-0.97803-2.894-2.589-5.5079-4.6992-7.6247-3.655-3.6665-8.556-5.7177-13.662-5.7177-2.4974 0-4.3291 0.2712-6.3202 0.93575-4.9814 1.6626-9.0287 5.1258-11.352 9.7139-1.0333 2.0404-1.6164 3.8819-1.9659 6.2093-0.14368 0.95663-0.17003 4.0148-0.0437 5.0698 0.26493 2.2121 1.094 4.9082 2.0804 6.765 0.33586 0.63228 0.44957 0.92775 0.41305 1.0733l-0.0504 0.20083h-2.5541c-1.4048 0-2.7265 0.0236-2.9371 0.0525-0.36201 0.0496-0.39011 0.0388-0.5125-0.19791z"/>
  <path id="path8299" fill="#ffd400" d="m131.85 196.9c-0.48683-0.94142-1.3289-3.3952-1.6872-4.9166-0.51155-2.172-0.59346-2.9525-0.59518-5.6719-0.002-2.7549 0.0641-3.4211 0.54913-5.5558 0.88187-3.8814 2.5691-7.4068 5.0159-10.48 0.745-0.93585 2.8275-3.0193 3.734-3.7356 2.5288-1.9984 5.4038-3.5563 8.2496-4.4703 2.4828-0.79741 4.4481-1.1325 7.029-1.1984 2.7135-0.0693 4.4754 0.12327 7.0373 0.7692 4.9034 1.2363 9.7639 4.2543 12.981 8.0601 3.8231 4.5229 5.9222 9.9555 6.0934 15.769 0.11167 3.7937-0.51725 7.1415-2.0166 10.735l-0.36808 0.88212-0.45709 0.0285c-0.2514 0.0157-1.675 0.002-3.1636-0.0306l-2.7066-0.0591 0.29968-0.51132c1.1188-1.909 2.0531-4.5812 2.4191-6.9195 0.18889-1.2066 0.25314-3.4964 0.13345-4.7561-0.50282-5.2924-3.1775-10.242-7.338-13.578-0.21261-0.1705-0.41101-0.28557-0.44088-0.25569-0.0299 0.0299 0.0997 0.16759 0.28798 0.30604 0.21958 0.16148 0.32842 0.30019 0.30358 0.38688-0.0369 0.12867-8.7229 18.797-8.7695 18.847-0.0123 0.0133-0.34611-0.21997-0.74187-0.51846-1.6303-1.2296-3.231-1.944-5.3104-2.3701-0.51507-0.10554-0.9301-0.22399-0.92231-0.26321 0.0122-0.0617 8.949-19.31 8.9936-19.371 0.009-0.0124 0.24968 0.0499 0.53456 0.13861 0.28488 0.0887 0.53591 0.13218 0.55783 0.0967 0.0425-0.0687-1.6261-0.57462-2.6082-0.7908-2.1998-0.48422-5.4625-0.52053-7.7445-0.0862-1.0039 0.19108-2.4184 0.59901-3.3672 0.97105-6.7073 2.6302-11.394 8.5505-12.382 15.64-0.10669 0.76559-0.12703 1.4305-0.0954 3.1196 0.0355 1.8953 0.0658 2.2674 0.25908 3.1791 0.44429 2.0955 1.1302 4.0809 1.9217 5.5624 0.30428 0.56952 0.40617 0.84238 0.36934 0.98911l-0.0509 0.20263-2.3765 0.00059c-1.3071 0.00033-2.6285 0.0244-2.9366 0.0535-0.55774 0.0527-0.5607 0.0518-0.69016-0.19852v0.00001zm34.627-26.032c0-0.0447-0.0786-0.1233-0.17473-0.17473-0.15987-0.0856-0.16678-0.0786-0.0812 0.0812 0.0961 0.17963 0.25595 0.23802 0.25595 0.0935zm-0.92723-0.68028c-0.18894-0.14517-0.41964-0.21699-0.41964-0.13065 0 0.0663 0.54355 0.37665 0.58579 0.33442 0.0237-0.0237-0.0511-0.11537-0.16615-0.20377zm-0.63009-0.33283c0.0286-0.0463 0.0119-0.0842-0.0371-0.0842s-0.0891 0.0379-0.0891 0.0842 0.0167 0.0842 0.0371 0.0842 0.0605-0.0379 0.0891-0.0842zm-0.29463-0.17165c0-0.0481-0.5398-0.34609-1.1996-0.66219-1.4267-0.68355-1.4723-0.70068-1.5466-0.58053-0.035 0.0566-0.0195 0.0698 0.0394 0.0334 0.0534-0.033 0.0972-0.0177 0.0972 0.0341s0.0353 0.0723 0.0784 0.0457 0.10254-0.009 0.13209 0.0385c0.0296 0.0478 0.089 0.0651 0.13209 0.0385 0.0431-0.0266 0.0784-0.0153 0.0784 0.0252 0 0.0595 0.85368 0.46821 1.0102 0.48366 0.0231 0.002 0.13679 0.0655 0.25254 0.14056 0.18515 0.12 0.84847 0.47687 0.90493 0.48685 0.0116 0.002 0.021-0.0356 0.021-0.0838z"/>
  <path id="path8301" fill="#fff" d="m137.5 195.59c-0.81309-1.6164-1.3669-3.2441-1.8037-5.3009-0.19556-0.92092-0.22367-1.2747-0.26004-3.2735-0.0369-2.0253-0.0231-2.3479 0.14268-3.3513 1.0743-6.5012 4.9794-11.763 10.817-14.577 2.9301-1.412 5.2348-1.9278 8.6141-1.9278 1.5788 0 2.7356 0.12223 4.0804 0.43119 0.42786 0.0983 0.86315 0.19742 0.96732 0.22029 0.10417 0.0229 0.1894 0.0488 0.1894 0.0576 0 0.009-2.0576 4.427-4.5725 9.8181l-4.5725 9.8021-0.4886-0.0267c-1.413-0.0773-3.7604 0.32918-5.1976 0.90013-2.099 0.83381-4.2339 2.5123-5.5276 4.3458-0.55282 0.7835-1.3982 2.431-1.663 3.2409-0.0832 0.25464-0.17355 0.49091-0.20067 0.52505-0.0271 0.0341-0.26342-0.3636-0.52512-0.88388z"/>
  <path id="path8303" fill="#fff" d="m161.99 196.18c-0.54381-1.7267-1.5227-3.3992-2.7783-4.747l-0.57854-0.62101 0.16948-0.39769c0.40073-0.94032 8.6228-18.504 8.6973-18.579 0.10727-0.10778 2.13 1.9423 2.8356 2.8739 1.9361 2.5563 3.2653 5.6046 3.8118 8.7413 0.22598 1.2971 0.30953 3.7678 0.17235 5.0966-0.27028 2.6181-1.1244 5.3547-2.3661 7.5813-0.24256 0.43495-0.44266 0.83817-0.44467 0.89604-0.003 0.0829-0.98331 0.10523-4.6117 0.10523h-4.608l-0.29914-0.94981z"/>
 </g>
</svg>
