<?xml version="1.0" encoding="UTF-8" standalone="no"?>
<svg id="svg2" xmlns:rdf="http://www.w3.org/1999/02/22-rdf-syntax-ns#" xmlns="http://www.w3.org/2000/svg" height="400" width="300" version="1.0" xmlns:cc="http://creativecommons.org/ns#" xmlns:dc="http://purl.org/dc/elements/1.1/">
 <metadata id="metadata2913">
  <rdf:RDF>
   <cc:Work rdf:about="">
    <dc:format>image/svg+xml</dc:format>
    <dc:type rdf:resource="http://purl.org/dc/dcmitype/StillImage"/>
    <dc:title/>
   </cc:Work>
  </rdf:RDF>
 </metadata>
 <g id="g7856">
  <g id="g7858">
   <g id="g7860">
    <path id="path7862" d="m129.33 154.26a24.438 23.625 0 1 1 42.9 0.12552" transform="matrix(1.1867 0 0 1.2275 -24.074 10.693)" stroke="#000" stroke-width="5.7998" fill="none"/>
    <path id="path7864" d="m115.97 137.17v5.6121l21.954 0.0442c1.2873 5.533 6.2333 9.6562 12.156 9.6562 5.925 0 10.871-4.1205 12.156-9.6562h29.844v-0.0625-5.5938h-76.11zm46.266 0c-1.2853-5.5357-6.2313-9.6562-12.156-9.6562-5.923 0.00001-10.869 4.1233-12.156 9.6562h24.312zm-12.156-4.6875c4.14 0 7.5 3.36 7.5 7.5s-3.36 7.5-7.5 7.5-7.5-3.36-7.5-7.5 3.36-7.5 7.5-7.5z" fill-rule="evenodd" transform="translate(0,60)" fill="#000407"/>
   </g>
   <rect id="rect7866" transform="matrix(.31730 -.94832 .94832 .31730 0 0)" height="52.705" width=".41421" stroke="#000" y="179.62" x="-125.88" fill="none"/>
   <rect id="rect7870" transform="matrix(.31730 -.94832 .94832 .31730 0 0)" height="48.075" width=".41421" stroke="#000" y="183.18" x="-114.36" fill="none"/>
  </g>
  <path id="path24372" d="m159.36 172.91c-10.926-3.6556-19.923-6.6672-19.992-6.6924-0.15511-0.0566-0.0615-0.13314 1.2621-1.0323 3.2301-2.1942 6.6915-3.5433 10.649-4.1505 1.423-0.21833 4.2336-0.2978 5.7598-0.16285 8.778 0.77617 16.49 5.9436 20.439 13.695 0.76561 1.5028 1.1337 2.3628 1.5633 3.6526 0.38458 1.1547 0.4267 1.3482 0.29216 1.3418-0.0587-0.003-9.0467-2.996-19.973-6.6516z"/>
  <path id="path24374" d="m131.51 196.25c-0.96806-2.2798-1.5612-4.4892-1.9269-7.1774-0.16384-1.2044-0.13749-4.6672 0.0455-5.9767 0.29408-2.1048 1.1416-5.4409 1.4814-5.8314 0.0436-0.0501 22.998 7.5906 46.572 15.502l1.6601 0.55714-0.32712 0.97564c-0.17992 0.5366-0.50652 1.3984-0.72578 1.9151l-0.39865 0.93944-7.795-0.00042-7.795-0.00042-0.31569-0.97046c-1.26-3.8734-4.1446-6.7921-7.976-8.0705-1.3734-0.45826-2.2652-0.59391-3.9143-0.59542-1.0484-0.00096-1.6561 0.0409-2.2728 0.1565-2.5298 0.47428-4.7409 1.6399-6.5672 3.4619-1.6295 1.6257-2.5997 3.3054-3.3062 5.7242l-0.0738 0.25253-2.99 0.0221-2.99 0.0221-0.38471-0.90597z"/>
  <path id="path24376" fill="#ffd400" d="m155.78 183.85c-13.126-4.3939-23.913-8.0066-23.972-8.0284-0.0843-0.0311-0.079-0.10711 0.0248-0.3571 0.2733-0.65759 1.2024-2.289 1.9058-3.3463 0.98355-1.4785 1.6643-2.3129 3-3.6771l1.126-1.15 7.5898 2.5465c4.1744 1.4006 13.621 4.5646 20.993 7.0313 9.6486 3.2285 13.415 4.5233 13.445 4.6223 0.11317 0.36634 0.30598 1.9723 0.39705 3.3072 0.0791 1.1597 0.0791 1.8086-0.00025 2.955-0.11938 1.7255-0.43367 3.8556-0.59479 4.0312-0.0274 0.0299-10.789-3.5407-23.915-7.9346z"/>
 </g>
</svg>
