<?xml version="1.0" encoding="UTF-8" standalone="no"?>
<svg id="svg2" xmlns:rdf="http://www.w3.org/1999/02/22-rdf-syntax-ns#" xmlns="http://www.w3.org/2000/svg" height="400" width="300" version="1.0" xmlns:cc="http://creativecommons.org/ns#" xmlns:dc="http://purl.org/dc/elements/1.1/">
 <metadata id="metadata2913">
  <rdf:RDF>
   <cc:Work rdf:about="">
    <dc:format>image/svg+xml</dc:format>
    <dc:type rdf:resource="http://purl.org/dc/dcmitype/StillImage"/>
    <dc:title/>
   </cc:Work>
  </rdf:RDF>
 </metadata>
 <g id="layer9">
  <g id="g3674">
   <path id="path3660" d="m129.33 154.26a24.438 23.625 0 1 1 42.9 0.12552" transform="matrix(1.1867 0 0 1.2275 -24.074 10.693)" stroke="#000" stroke-width="5.7998" fill="none"/>
   <path id="path3671" d="m115.97 137.17v5.6121l21.954 0.0442c1.2873 5.533 6.2333 9.6562 12.156 9.6562 5.925 0 10.871-4.1205 12.156-9.6562h29.844v-0.0625-5.5938h-76.11zm46.266 0c-1.2853-5.5357-6.2313-9.6562-12.156-9.6562-5.923 0.00001-10.869 4.1233-12.156 9.6562h24.312zm-12.156-4.6875c4.14 0 7.5 3.36 7.5 7.5s-3.36 7.5-7.5 7.5-7.5-3.36-7.5-7.5 3.36-7.5 7.5-7.5z" fill-rule="evenodd" transform="translate(0,60)" fill="#000407"/>
  </g>
  <path id="path7828" d="m131.74 196.62c-2.2293-4.8433-2.7982-10.911-1.5213-16.227 1.9921-8.2936 7.9354-15.024 15.841-17.939 13.634-5.0272 28.588 2.2865 33.03 16.155 0.85024 2.6542 1.1431 4.6153 1.1388 7.6251-0.005 3.6669-0.68225 7.0422-2.0184 10.063l-0.35783 0.80894h-7.7557-7.7557l-0.30114-0.92808c-0.81879-2.5234-2.8004-5.1336-5.0381-6.6362-5.6791-3.8134-13.404-2.2805-17.37 3.447-0.5736 0.82835-1.7093 3.3537-1.7124 3.8079-0.002 0.28229-0.26259 0.30936-2.979 0.30936h-2.9768l-0.22376-0.48614z" stroke="#000" stroke-width=".17678" fill="#d40000"/>
 </g>
</svg>
