<svg
   xmlns="http://www.w3.org/2000/svg"
   version="1.0"
   width="300"
   height="400">
    <g id="g3674">
      <path d="m 155,153.65625 c -11.24731,-0.034 -22.08826,6.10704 -27.90625,15.84375 -4.94798,8.28073 -5.87866,18.61183 -2.71875,27.65625 l -8.40625,0 0,5.625 21.96875,0.0312 c 1.2873,5.533 6.23355,9.65625 12.15625,9.65625 5.925,0 10.87125,-4.12055 12.15625,-9.65625 l 29.84375,0 0,-0.0625 0,-5.59375 -6.65625,0 c 3.13461,-8.97988 2.23945,-19.24601 -2.625,-27.5 -5.75932,-9.77239 -16.5652,-15.96596 -27.8125,-16 z m -0.0312,7.125 c 8.76759,0.0265 17.59736,5.12338 22,12.59375 4.16274,7.06333 4.50365,16.36753 1,23.78125 l -15.71875,0 c -1.2853,-5.5357 -6.23155,-9.65625 -12.15625,-9.65625 -5.923,1e-5 -10.86925,4.12335 -12.15625,9.65625 l -6.09375,0 c -3.52094,-7.45808 -3.13528,-16.85999 1.09375,-23.9375 4.44815,-7.44421 13.26366,-12.46403 22.03125,-12.4375 z m -4.875,31.6875 c 4.14,0 7.5,3.36 7.5,7.5 0,4.14 -3.36,7.5 -7.5,7.5 -4.14,0 -7.5,-3.36 -7.5,-7.5 0,-4.14 3.36,-7.5 7.5,-7.5 z"/>
    </g>
</svg>
