<?xml version="1.0" encoding="UTF-8" standalone="no"?>
<svg id="svg2" xmlns:rdf="http://www.w3.org/1999/02/22-rdf-syntax-ns#" xmlns="http://www.w3.org/2000/svg" height="400" width="300" version="1.0" xmlns:cc="http://creativecommons.org/ns#" xmlns:dc="http://purl.org/dc/elements/1.1/">
 <metadata id="metadata2913">
  <rdf:RDF>
   <cc:Work rdf:about="">
    <dc:format>image/svg+xml</dc:format>
    <dc:type rdf:resource="http://purl.org/dc/dcmitype/StillImage"/>
    <dc:title/>
   </cc:Work>
  </rdf:RDF>
 </metadata>
 <g id="g7856">
  <g id="g7858">
   <g id="g7860">
    <path id="path7862" d="m129.33 154.26a24.438 23.625 0 1 1 42.9 0.12552" transform="matrix(1.1867 0 0 1.2275 -24.074 10.693)" stroke="#000" stroke-width="5.7998" fill="none"/>
    <path id="path7864" d="m115.97 137.17v5.6121l21.954 0.0442c1.2873 5.533 6.2333 9.6562 12.156 9.6562 5.925 0 10.871-4.1205 12.156-9.6562h29.844v-0.0625-5.5938h-76.11zm46.266 0c-1.2853-5.5357-6.2313-9.6562-12.156-9.6562-5.923 0.00001-10.869 4.1233-12.156 9.6562h24.312zm-12.156-4.6875c4.14 0 7.5 3.36 7.5 7.5s-3.36 7.5-7.5 7.5-7.5-3.36-7.5-7.5 3.36-7.5 7.5-7.5z" fill-rule="evenodd" transform="translate(0,60)" fill="#000407"/>
   </g>
   <rect id="rect7866" transform="matrix(.31730 -.94832 .94832 .31730 0 0)" height="52.705" width=".41421" stroke="#000" y="178.73" x="-120.58" fill="none"/>
  </g>
  <path id="path21900" d="m131.51 196.25c-0.96807-2.2798-1.5612-4.4892-1.9269-7.1774-0.16384-1.2044-0.13749-4.6672 0.0455-5.9767 0.42165-3.0179 1.2699-5.7932 2.5343-8.2917 0.53439-1.056 1.3159-2.4025 1.3897-2.3944 0.0236 0.003 10.536 3.5191 23.361 7.8146l23.318 7.8098-0.0217 0.54025c-0.0869 2.1598-0.88305 5.2043-2.1281 8.1374l-0.18759 0.44194-7.7964-0.00042-7.7964-0.00042-0.31569-0.97046c-1.26-3.8734-4.1446-6.7921-7.976-8.0705-1.3735-0.45826-2.2652-0.59391-3.9144-0.59542-1.0484-0.00096-1.6561 0.0409-2.2728 0.1565-2.5298 0.47428-4.7409 1.6399-6.5672 3.4619-1.6295 1.6257-2.5997 3.3054-3.3062 5.7242l-0.0738 0.25253-2.99 0.0221-2.99 0.0221-0.3847-0.90597z"/>
  <path id="path21902" fill="#ffd400" d="m157.42 178.82c-12.547-4.2028-22.858-7.657-22.913-7.676-0.31059-0.10638 3.0843-3.6967 4.6042-4.8693 3.6935-2.8494 7.6195-4.5397 12.164-5.237 1.423-0.21833 4.2336-0.2978 5.7598-0.16285 7.8295 0.69231 14.781 4.8352 19.122 11.397 0.83725 1.2654 2.1016 3.778 2.6345 5.2352 0.66835 1.8279 1.1822 4.0295 1.3948 5.9767 0.13314 1.219 0.20562 2.9889 0.12216 2.983-0.0417-0.003-10.341-3.4441-22.888-7.6469z"/>
 </g>
</svg>
