<?xml version="1.0" encoding="UTF-8" standalone="no"?>
<svg id="svg2" xmlns:rdf="http://www.w3.org/1999/02/22-rdf-syntax-ns#" xmlns="http://www.w3.org/2000/svg" height="400" width="300" version="1.0" xmlns:cc="http://creativecommons.org/ns#" xmlns:dc="http://purl.org/dc/elements/1.1/">
 <metadata id="metadata2913">
  <rdf:RDF>
   <cc:Work rdf:about="">
    <dc:format>image/svg+xml</dc:format>
    <dc:type rdf:resource="http://purl.org/dc/dcmitype/StillImage"/>
    <dc:title/>
   </cc:Work>
  </rdf:RDF>
 </metadata>
 <g id="g3742">
  <g id="g3752">
   <g id="g3744">
    <path id="path3746" d="m129.33 154.26a24.438 23.625 0 1 1 42.9 0.12552" transform="matrix(1.1867 0 0 1.2275 -24.074 10.693)" stroke="#000" stroke-width="5.7998" fill="none"/>
    <path id="path3748" d="m115.97 137.17v5.6121l21.954 0.0442c1.2873 5.533 6.2333 9.6562 12.156 9.6562 5.925 0 10.871-4.1205 12.156-9.6562h29.844v-0.0625-5.5938h-76.11zm46.266 0c-1.2853-5.5357-6.2313-9.6562-12.156-9.6562-5.923 0.00001-10.869 4.1233-12.156 9.6562h24.312zm-12.156-4.6875c4.14 0 7.5 3.36 7.5 7.5s-3.36 7.5-7.5 7.5-7.5-3.36-7.5-7.5 3.36-7.5 7.5-7.5z" fill-rule="evenodd" transform="translate(0,60)" fill="#000407"/>
   </g>
   <rect id="rect3750" transform="matrix(.94832 .31730 -.31730 .94832 0 0)" height="31.997" width=".70711" stroke="#000" y="98.715" x="205.15" fill="none"/>
  </g>
  <path id="path4472" d="m162.23 197.02c0-0.0754-0.13028-0.52643-0.28951-1.0023-1.0803-3.2284-3.4366-5.8873-6.506-7.3412-0.44608-0.21131-0.77761-0.41782-0.75851-0.47247 0.0187-0.0534 1.9784-5.9118 4.3551-13.019 2.3766-7.1068 4.3269-12.93 4.3338-12.941 0.0248-0.0384 1.2934 0.47456 2.2394 0.90555 2.6064 1.1874 5.1108 2.9349 7.2359 5.0487 3.4118 3.3939 5.8536 7.8315 6.9015 12.543 0.51052 2.2951 0.72507 5.5439 0.50902 7.7077-0.28008 2.8052-1.002 5.6273-2.0303 7.9369l-0.32425 0.72827-7.8331 0.0215c-7.1901 0.0197-7.8331 0.0102-7.8331-0.1156z" stroke-width="0" fill="#d40000"/>
  <path id="path4474" d="m131.63 196.52c-0.9923-2.1774-1.7191-4.8529-2.0228-7.4466-0.1564-1.3357-0.17706-4.0321-0.0406-5.2961 0.54567-5.0534 2.3717-9.5407 5.481-13.469 0.90242-1.14 2.9123-3.1359 4.0371-4.009 3.8002-2.9497 7.8933-4.672 12.708-5.3476 1.2428-0.17437 5.1648-0.14951 6.4397 0.0408 1.0973 0.1638 2.8787 0.52358 3.203 0.6469l0.20242 0.077-4.3014 12.861c-2.3658 7.0737-4.3317 12.941-4.3688 13.039-0.0657 0.17286-0.0823 0.17444-0.64223 0.061-0.31616-0.0641-1.1241-0.13885-1.7954-0.16622-3.747-0.15274-7.3028 1.3587-9.7927 4.1626-1.1773 1.3258-2.0143 2.7966-2.5596 4.4977l-0.31672 0.98807-2.9694 0.001-2.9694 0.001-0.29252-0.64189z" stroke-width="0" fill="#fff"/>
 </g>
</svg>
