<svg
   xmlns="http://www.w3.org/2000/svg"
   version="1.0"
   width="300"
   height="400">
  <path d="m 108.46875,177.5 -0.71875,1.375 -10,20 -0.53125,1.125 0.53125,1.125 10,20 0.71875,1.375 1.53125,0 80,0 1.53125,0 0.71875,-1.375 10,-20 0.53125,-1.125 -0.53125,-1.125 -10,-20 -0.71875,-1.375 -1.53125,0 -80,0 -1.53125,0 z m 3.09375,5 76.875,0 8.75,17.5 -8.75,17.5 -76.875,0 -8.75,-17.5 8.75,-17.5 z M 150,187.4375 c -3.3189,0 -6.53631,1.33261 -8.875,3.6875 -2.33137,2.34752 -3.63958,5.56721 -3.625,8.875 -7e-5,0.0104 5e-5,0.0208 0,0.0312 -0.0145,3.30772 1.29367,6.49627 3.625,8.84375 2.33869,2.35489 5.5561,3.6875 8.875,3.6875 3.3189,0 6.53631,-1.33261 8.875,-3.6875 2.33133,-2.34748 3.63953,-5.53603 3.625,-8.84375 -5e-5,-0.0104 7e-5,-0.0208 0,-0.0312 0.0146,-3.30779 -1.29363,-6.52748 -3.625,-8.875 -2.33869,-2.35489 -5.5561,-3.6875 -8.875,-3.6875 z m 0,5 c 1.94021,0 3.94534,0.84212 5.3125,2.21875 1.36716,1.37663 2.20094,3.40368 2.1875,5.34375 l 0,0.0312 c 0.0134,1.94007 -0.82034,3.93587 -2.1875,5.3125 -1.36716,1.37663 -3.37229,2.21875 -5.3125,2.21875 -1.94021,0 -3.94534,-0.84212 -5.3125,-2.21875 -1.36716,-1.37663 -2.20094,-3.37243 -2.1875,-5.3125 l 0,-0.0312 c -0.0134,-1.94007 0.82034,-3.96712 2.1875,-5.34375 1.36716,-1.37663 3.37229,-2.21875 5.3125,-2.21875 z"
     style="fill:#000000;fill-opacity:1" />
</svg>
