<svg
   xmlns="http://www.w3.org/2000/svg"
   version="1.0"
   width="40"
   height="80">
      <path
         d="m 20,55 c -5.503985,0 -10,4.496015 -10,10 0,5.441669 4.393838,9.899785 9.8125,10 a 2.5,2.4999975 0 0 0 -2.3125,2.5 2.5,2.4999975 0 0 0 5,0 A 2.5,2.4999975 0 0 0 20.0625,75 C 25.538085,74.966241 30,70.483213 30,65 30,59.496015 25.503985,55 20,55 z m 0,2.9375 c 3.912561,0 7.0625,3.149939 7.0625,7.0625 0,3.912561 -3.149939,7.0625 -7.0625,7.0625 -3.912561,0 -7.0625,-3.149939 -7.0625,-7.0625 0,-3.912561 3.149939,-7.0625 7.0625,-7.0625 z"/>
</svg>
