<?xml version="1.0" encoding="UTF-8" standalone="no"?>
<svg id="svg2" xmlns:rdf="http://www.w3.org/1999/02/22-rdf-syntax-ns#" xmlns="http://www.w3.org/2000/svg" height="320" width="320" version="1.0" xmlns:cc="http://creativecommons.org/ns#" xmlns:dc="http://purl.org/dc/elements/1.1/">
 <metadata id="metadata6">
  <rdf:RDF>
   <cc:Work rdf:about="">
    <dc:format>image/svg+xml</dc:format>
    <dc:type rdf:resource="http://purl.org/dc/dcmitype/StillImage"/>
   </cc:Work>
  </rdf:RDF>
 </metadata>
 <path id="path2440" d="m160.29 95.163v20.057" stroke="#000" stroke-width="2.8948px" fill="none"/>
 <g id="g2463" transform="matrix(1.0728 -.31085 .35087 .95046 -67.908 120.25)">
  <path id="path2465" d="m264.29 49.913l-26.43-8.788-11.57 33.788 26.42 8.637 11.58-33.637z" fill-rule="evenodd" transform="translate(-40,-40)" fill="#d40000"/>
  <path id="path2389" d="m193.85 12.621l26.56 8.842" stroke="#fff" stroke-width="1px" fill="none"/>
  <path id="path2391" d="m190.89 21.399l26.41 8.737" stroke="#fff" stroke-width="1.0001px" fill="none"/>
  <path id="path2475" d="m157.24 80.744c-7.02-0.024-12.76-0.05-12.77-0.059-0.03-0.029 0.1-8.059 0.13-8.099 0.02-0.031 31.31 0.08 31.34 0.111 0 0.004-0.02 1.671-0.06 3.705-0.04 2.035-0.07 3.857-0.07 4.05l-0.01 0.352-2.9-0.009c-1.6-0.004-8.64-0.028-15.66-0.051z" fill-rule="evenodd" transform="matrix(.84206 .27540 -.31085 .95046 94.564 -95.594)" stroke="#fff" stroke-width=".052089" fill="#fff"/>
 </g>
</svg>
