<?xml version="1.0" encoding="UTF-8" standalone="no"?>
<svg id="svg2" xmlns:rdf="http://www.w3.org/1999/02/22-rdf-syntax-ns#" xmlns="http://www.w3.org/2000/svg" height="400" width="300" version="1.0" xmlns:cc="http://creativecommons.org/ns#" xmlns:dc="http://purl.org/dc/elements/1.1/">
 <metadata id="metadata2822">
  <rdf:RDF>
   <cc:Work rdf:about="">
    <dc:format>image/svg+xml</dc:format>
    <dc:type rdf:resource="http://purl.org/dc/dcmitype/StillImage"/>
    <dc:title/>
   </cc:Work>
  </rdf:RDF>
 </metadata>
 <g id="layer5" transform="translate(0,80)">
  <g id="g3094" transform="translate(-11.273 -35.911)">
   <path id="path13269-3" d="m206 5.6875c-9.3567 0-17 7.6433-17 17s7.6433 17 17 17 17-7.6433 17-17-7.6433-17-17-17zm0 5c6.6513 0 12 5.3487 12 12s-5.3487 12-12 12-12-5.3487-12-12 5.3487-12 12-12z" fill-rule="evenodd" fill="#000407"/>
  </g>
  <path id="path3474" d="m187.13 1.9714-5.5938 16.719 4.0312 1.3125 5.5938-16.687-4.0312-1.3438z" fill-rule="evenodd" fill="#000407"/>
  <path id="path17979" d="m192.72 78.556c-3.7024-0.67215-6.9721-3.1109-8.637-6.4421-1.2574-2.5159-1.5997-5.638-0.90893-8.2917 2.0621-7.9222 11.338-11.491 18.116-6.9693 2.401 1.6015 4.0791 3.8841 4.8987 6.6633 0.39383 1.3354 0.53832 3.7134 0.31313 5.1536-0.72236 4.6198-4.1484 8.3713-8.8232 9.6613-0.9838 0.27149-3.9588 0.40641-4.9586 0.22489z" transform="translate(0,-80)" stroke="#000" stroke-width=".125" fill="#d40000"/>
 </g>
</svg>
