<svg
   xmlns="http://www.w3.org/2000/svg"
   version="1.0"
   width="40"
   height="100">
  <path
     d="m 3.1875,17 c 0.1936014,0.239989 10.506327,21.788838 15.75,32.5 l -15.71875,0 c 0.1066724,0.03795 14.985878,30.454414 16.125,32.78125 l -1.5625,0 0,17.71875 4.25,0 0,-17.71875 -1.4375,0 C 21.732857,79.952819 36.635989,49.469199 36.8125,49.5 36.602754,49.46897 20.96875,49.5 20.96875,49.5 26.409751,38.869372 37,17.288261 36.84375,17 L 3.1875,17 z M 6.5,19 33.5,19 20,47 6.5,19 z m 0,32.5 27,0 L 20,79 6.5,51.5 z"/>
</svg>
