<?xml version="1.0" encoding="UTF-8" standalone="no"?>
<svg id="svg2" xmlns:rdf="http://www.w3.org/1999/02/22-rdf-syntax-ns#" xmlns="http://www.w3.org/2000/svg" height="320" width="320" version="1.0" xmlns:cc="http://creativecommons.org/ns#" xmlns:dc="http://purl.org/dc/elements/1.1/">
 <metadata id="metadata6">
  <rdf:RDF>
   <cc:Work rdf:about="">
    <dc:format>image/svg+xml</dc:format>
    <dc:type rdf:resource="http://purl.org/dc/dcmitype/StillImage"/>
   </cc:Work>
  </rdf:RDF>
 </metadata>
 <path id="path27763" d="m237.08 81.894l-5.6 16.718 4.03 1.313 5.6-16.687-4.03-1.344zm27.21-31.981l-26.43-8.788-11.57 33.788 26.42 8.637 11.58-33.637z" fill-rule="evenodd" transform="translate(-40 -40)" fill="#d40000"/>
 <rect id="rect2387" fill-rule="evenodd" height="6.8413" width="6.6371" stroke="#fff" y="11.63" x="110.58" fill="#fff"/>
 <path id="path2389" d="m193.8 12.753l26.65 8.577" stroke="#fff" stroke-width="1px" fill="none"/>
 <path id="path2391" d="m191.45 20.105l26.45 8.475" stroke="#fff" stroke-width="1px" fill="none"/>
 <path id="path2393" d="m204.7 23.789c-7.16-2.302-13.03-4.201-13.05-4.222-0.03-0.027 1.98-6.087 2.07-6.243 0.02-0.024 26.33 8.444 26.38 8.486 0.01 0.016-0.45 1.414-1.02 3.107-0.77 2.252-1.09 3.076-1.2 3.068-0.09-0.006-6.02-1.894-13.18-4.196z" fill-rule="evenodd" stroke="#fff" stroke-width=".10211" fill="#fff"/>
</svg>
