<?xml version="1.0" encoding="UTF-8" standalone="no"?>
<svg id="svg2" xmlns:rdf="http://www.w3.org/1999/02/22-rdf-syntax-ns#" xmlns="http://www.w3.org/2000/svg" height="400" width="300" version="1.0" xmlns:cc="http://creativecommons.org/ns#" xmlns:dc="http://purl.org/dc/elements/1.1/">
 <metadata id="metadata2822">
  <rdf:RDF>
   <cc:Work rdf:about="">
    <dc:format>image/svg+xml</dc:format>
    <dc:type rdf:resource="http://purl.org/dc/dcmitype/StillImage"/>
    <dc:title/>
   </cc:Work>
  </rdf:RDF>
 </metadata>
 <g id="layer5" transform="translate(0,80)">
  <g id="g3094" transform="translate(-11.273 -35.911)">
   <path id="path13269-3" d="m206 5.6875c-9.3567 0-17 7.6433-17 17s7.6433 17 17 17 17-7.6433 17-17-7.6433-17-17-17zm0 5c6.6513 0 12 5.3487 12 12s-5.3487 12-12 12-12-5.3487-12-12 5.3487-12 12-12z" fill-rule="evenodd" fill="#000407"/>
  </g>
  <path id="path3474" d="m187.13 1.9714-5.5938 16.719 4.0312 1.3125 5.5938-16.687-4.0312-1.3438z" fill-rule="evenodd" fill="#000407"/>
  <rect id="rect4736" transform="matrix(.94832 .31730 -.31730 .94832 0 0)" height=".97227" width="26.163" y="-75.245" x="167.14"/>
  <path id="path5248" d="m195 65.856c-6.101-2.0426-11.127-3.7475-11.17-3.7886-0.0434-0.04207 0.10348-0.4143 0.33597-0.85132 1.84-3.4588 5.1161-5.746 8.9778-6.2677 2.2152-0.29929 4.3484 0.0059 6.4236 0.91915 4.8972 2.155 7.8064 7.4677 6.9622 12.714-0.14942 0.92856-0.17378 1.0015-0.33161 0.99358-0.0579-0.0029-5.097-1.6765-11.198-3.7191z" transform="translate(0,-80)" fill="#d40000"/>
  <path id="path5250" d="m193.8 78.675c-1.6775-0.12262-3.4931-0.67576-4.9452-1.5066-4.7495-2.7175-7.0436-8.1699-5.6625-13.458 0.0734-0.28096 0.15458-0.53201 0.18047-0.5579 0.0259-0.02589 5.137 1.654 11.358 3.733l11.311 3.7801-0.17804 0.45191c-0.97351 2.4709-2.8031 4.6098-5.1214 5.9872-1.3336 0.79235-3.398 1.4476-4.853 1.5405-0.41321 0.02636-0.85074 0.05868-0.97227 0.07181s-0.62414-0.0056-1.1169-0.04161z" transform="translate(0,-80)" fill="#00d400"/>
 </g>
</svg>
