<?xml version="1.0" encoding="UTF-8" standalone="no"?>
<svg id="svg2" xmlns:rdf="http://www.w3.org/1999/02/22-rdf-syntax-ns#" xmlns="http://www.w3.org/2000/svg" height="400" width="300" version="1.0" xmlns:cc="http://creativecommons.org/ns#" xmlns:dc="http://purl.org/dc/elements/1.1/">
 <metadata id="metadata2913">
  <rdf:RDF>
   <cc:Work rdf:about="">
    <dc:format>image/svg+xml</dc:format>
    <dc:type rdf:resource="http://purl.org/dc/dcmitype/StillImage"/>
    <dc:title/>
   </cc:Work>
  </rdf:RDF>
 </metadata>
 <g id="g2845" transform="translate(0,80)">
  <path id="path2847" d="m126.63 46.273-4.625 70.875h-8.1562v5.6562h24c1.2873 5.533 6.2333 9.6562 12.156 9.6562 5.925 0 10.871-4.1205 12.156-9.6562h24v-5.6562h-8.1562l-4.9688-70.875h-46.406zm6.7188 7.0938h33.312l4.5938 63.781h-9.0938c-1.2853-5.5357-6.2313-9.6562-12.156-9.6562-5.923 0.00001-10.869 4.1233-12.156 9.6562h-9.0938l4.5938-63.781zm16.656 59.094c4.14 0 7.5 3.36 7.5 7.5s-3.36 7.5-7.5 7.5-7.5-3.36-7.5-7.5 3.36-7.5 7.5-7.5z" fill-rule="evenodd" fill="#000407"/>
  <rect id="rect2849" height="1.1435" width="37.119" y="71.852" x="131.27"/>
  <rect id="rect2851" height="1.2314" width="39.67" y="91.995" x="130.3"/>
  <path id="path5522" fill="#ffd400" d="m131.32 82.919c0.36025-4.9104 0.65951-9.1457 0.66501-9.4118l0.01-0.48378h18.032 18.032l0.00008 0.48378c0.00005 0.26608 0.27709 4.3233 0.61564 9.0159 0.33855 4.6927 0.61559 8.7103 0.61564 8.928l0.00008 0.39582h-19.313-19.313l0.655-8.928z"/>
  <path id="path5524" d="m132.17 71.296c0-0.27287 0.27707-4.2793 0.61572-8.9031s0.61572-8.5171 0.61572-8.6518c0-0.20735 2.5415-0.24476 16.625-0.24476h16.625l0.00009 0.48378c0.00004 0.26608 0.27708 4.3232 0.61563 9.0159 0.33856 4.6927 0.61559 8.5915 0.61564 8.6641s-8.0351 0.13194-17.856 0.13194h-17.856v-0.49613z"/>
  <path id="path5526" d="m128.91 116.08c0.0565-0.50797 0.41819-5.436 0.80378-10.951 0.38559-5.5151 0.74659-10.443 0.80222-10.951l0.10115-0.92359h19.427 19.427l0.009 0.39583c0.005 0.2177 0.3842 5.5626 0.84311 11.878l0.83438 11.482-4.4741-0.0469-4.4741-0.0469-0.21085-0.70369c-0.51133-1.7064-2.0669-4.1697-3.4606-5.4797-3.1834-2.9923-8.3616-4.0719-12.62-2.6311-3.6165 1.2236-6.6499 4.3085-7.8529 7.9864l-0.29961 0.91599h-4.4784-4.4784l0.1027-0.92359z"/>
 </g>
</svg>
