<?xml version="1.0" encoding="UTF-8" standalone="no"?>
<svg id="svg2" xmlns:rdf="http://www.w3.org/1999/02/22-rdf-syntax-ns#" xmlns="http://www.w3.org/2000/svg" height="400" width="300" version="1.0" xmlns:cc="http://creativecommons.org/ns#" xmlns:dc="http://purl.org/dc/elements/1.1/">
 <metadata id="metadata2913">
  <rdf:RDF>
   <cc:Work rdf:about="">
    <dc:format>image/svg+xml</dc:format>
    <dc:type rdf:resource="http://purl.org/dc/dcmitype/StillImage"/>
    <dc:title/>
   </cc:Work>
  </rdf:RDF>
 </metadata>
 <g id="layer1" transform="translate(0,80)" display="none">
  <path id="path2520" d="m151.18 76.278v64.75c-1.7045 1.6489-2.9467 3.7711-3.5 6.1562h-8.4375l-0.125 5.6562h8.5625c1.2873 5.533 6.2333 9.6562 12.156 9.6562 5.925 0 10.871-4.1205 12.156-9.6562l8.3125-0.0312v-5.6562l-8.3125 0.0312c-0.58668-2.529-1.9466-4.7512-3.8125-6.4375v-64.469h-6.375-4.25-6.375zm4.0625 4.0312h8.9688v57.688h-8.9688v-57.688zm4.5938 62.188c4.14 0 7.5 3.36 7.5 7.5s-3.36 7.5-7.5 7.5-7.5-3.36-7.5-7.5 3.36-7.5 7.5-7.5z" fill-rule="evenodd" display="inline" fill="#000407"/>
 </g>
 <g id="g2831" transform="translate(0,80)" display="none">
  <path id="path2833" d="m151.18 76.278v64.75c-1.7045 1.6489-2.9467 3.7711-3.5 6.1562h-8.4375l-0.125 5.6562h8.5625c1.2873 5.533 6.2333 9.6562 12.156 9.6562 5.925 0 10.871-4.1205 12.156-9.6562l8.3125-0.0312v-5.6562l-8.3125 0.0312c-0.58668-2.529-1.9466-4.7512-3.8125-6.4375v-64.469h-6.375-4.25-6.375zm4.0625 4.0312h8.9688v57.688h-8.9688v-57.688zm4.5938 62.188c4.14 0 7.5 3.36 7.5 7.5s-3.36 7.5-7.5 7.5-7.5-3.36-7.5-7.5 3.36-7.5 7.5-7.5z" fill-rule="evenodd" display="inline" fill="#000407"/>
  <rect id="rect2835" height=".96756" width="9.9835" y="98.061" x="154.61"/>
  <rect id="rect2837" height="1.0555" width="9.7196" y="118.08" x="154.79"/>
  <path id="path4255" d="m155.54 109.2v-8.6201h4.2221 4.2221v8.6201 8.6201h-4.2221-4.2221v-8.6201z" transform="translate(0,-20)" fill="#00d400"/>
  <path id="path4257" d="m155.54 148.61v-9.3238h4.2221 4.2221v9.3238 9.3238h-4.2221-4.2221v-9.3238z" transform="translate(0,-20)" fill="#00d400"/>
  <path id="path4259" d="m155.54 128.56v-9.3238h4.2221 4.2221v9.3238 9.3238h-4.2221-4.2221v-9.3238z" transform="translate(0,-20)" fill="#d40000"/>
  <path id="path4347" d="m151.08 67.423c0.12662-3.3381 0.23071-9.0379 0.2313-12.666l0.001-6.597h8.796 8.796v12.666 12.666h-9.0274-9.0273l0.23023-6.0693z" transform="translate(0,-20)" fill="#00d400"/>
 </g>
 <g id="g2825" transform="translate(0,80)" display="none">
  <path id="path2827" d="m151.18 76.278v64.75c-1.7045 1.6489-2.9467 3.7711-3.5 6.1562h-8.4375l-0.125 5.6562h8.5625c1.2873 5.533 6.2333 9.6562 12.156 9.6562 5.925 0 10.871-4.1205 12.156-9.6562l8.3125-0.0312v-5.6562l-8.3125 0.0312c-0.58668-2.529-1.9466-4.7512-3.8125-6.4375v-64.469h-6.375-4.25-6.375zm4.0625 4.0312h8.9688v57.688h-8.9688v-57.688zm4.5938 62.188c4.14 0 7.5 3.36 7.5 7.5s-3.36 7.5-7.5 7.5-7.5-3.36-7.5-7.5 3.36-7.5 7.5-7.5z" fill-rule="evenodd" display="inline" fill="#000407"/>
  <rect id="rect2829" height=".99516" width="10.076" y="108.95" x="154.85"/>
 </g>
 <g id="layer2" transform="translate(0,80)" display="none">
  <path id="path2558" d="m136.56 76.304-4.625 70.875h-8.1562v5.6562h24c1.2873 5.533 6.2333 9.6562 12.156 9.6562 5.925 0 10.871-4.1205 12.156-9.6562h24v-5.6562h-8.1562l-4.9688-70.875h-46.406zm6.7188 7.0938h33.312l4.5938 63.781h-9.0938c-1.2853-5.5357-6.2313-9.6562-12.156-9.6562-5.923 0.00001-10.869 4.1233-12.156 9.6562h-9.0938l4.5938-63.781zm16.65 59.092c4.14 0 7.5 3.36 7.5 7.5s-3.36 7.5-7.5 7.5-7.5-3.36-7.5-7.5 3.36-7.5 7.5-7.5z" fill-rule="evenodd" fill="#000407"/>
  <path id="path4391" d="m139 166.29c-0.0101-1.3775 4.2654-61.271 4.433-62.1l0.16011-0.79165h16.338 16.338l0.18199 1.1435c0.19129 1.202 4.4349 60.38 4.4279 61.748-0.004 0.77853-0.0769 0.79164-4.4021 0.79164-3.282 0-4.3989-0.1116-4.4015-0.4398-0.008-1.0632-1.8251-4.2022-3.2101-5.5463-4.9993-4.8517-13.062-4.8306-17.939 0.0469-1.3207 1.3207-3.113 4.4788-3.121 5.4993-0.003 0.3282-1.1194 0.4398-4.4014 0.4398-4.3246 0-4.3981-0.0132-4.4038-0.79164z" transform="translate(0,-20)" fill="#00d400"/>
 </g>
 <g id="g2845" transform="translate(0,80)">
  <path id="path2847" d="m126.59 46.304-4.625 70.875h-8.1562v5.6562h24c1.2873 5.533 6.2333 9.6562 12.156 9.6562 5.925 0 10.871-4.1205 12.156-9.6562h24v-5.6562h-8.1562l-4.9688-70.875h-46.406zm6.7188 7.0938h33.312l4.5938 63.781h-9.0938c-1.2853-5.5357-6.2313-9.6562-12.156-9.6562-5.923 0.00001-10.869 4.1233-12.156 9.6562h-9.0938l4.5938-63.781zm16.656 59.094c4.14 0 7.5 3.36 7.5 7.5s-3.36 7.5-7.5 7.5-7.5-3.36-7.5-7.5 3.36-7.5 7.5-7.5z" fill-rule="evenodd" fill="#000407"/>
  <rect id="rect2849" height="1.1435" width="37.119" y="71.883" x="131.22"/>
  <rect id="rect2851" height="1.2314" width="39.67" y="92.026" x="130.25"/>
  <path id="path4525" fill="#00d400" d="m129.02 116.47c-0.005-0.33865 0.34218-5.6427 0.77106-11.787l0.7798-11.171h19.385 19.385l0.78818 11.171c0.43349 6.144 0.78382 11.448 0.77851 11.787-0.009 0.55305-0.45734 0.61572-4.4077 0.61572-3.282 0-4.3989-0.1116-4.4015-0.4398-0.008-1.0632-1.8251-4.2022-3.2101-5.5463-4.9993-4.8517-13.062-4.8306-17.939 0.0469-1.3207 1.3207-3.113 4.4788-3.121 5.4993-0.003 0.3282-1.1194 0.4398-4.4014 0.4398-3.9507 0-4.3989-0.0626-4.4068-0.61572z"/>
  <path id="path4527" fill="#00d400" d="m132.32 69.32c0.11821-1.3062 0.38581-5.0665 0.59465-8.3562s0.45225-6.3376 0.54091-6.773l0.16119-0.79165h16.338 16.338l0.17534 1.1435c0.0964 0.62891 0.34554 3.6767 0.55357 6.773 0.20803 3.0962 0.47341 6.6982 0.58975 8.0044l0.21151 2.3749h-17.859-17.859l0.21494-2.3749z"/>
  <path id="path4529" fill="#d40000" d="m130.79 91.134c-0.004-1.2737 1.11-16.482 1.263-17.24l0.15979-0.79165h17.755 17.755l0.1612 0.79165c0.0887 0.4354 0.33339 3.4832 0.54386 6.773 0.21046 3.2897 0.47944 7.1292 0.59772 8.5322l0.21505 2.5508h-19.224c-18.073 0-19.224-0.0368-19.226-0.61572z"/>
 </g>
 <g id="g2839" transform="translate(0,80)" display="none">
  <path id="path2841" d="m136.56 76.304-4.625 70.875h-8.1562v5.6562h24c1.2873 5.533 6.2333 9.6562 12.156 9.6562 5.925 0 10.871-4.1205 12.156-9.6562h24v-5.6562h-8.1562l-4.9688-70.875h-46.406zm6.7188 7.0938h33.312l4.5938 63.781h-9.0938c-1.2853-5.5357-6.2313-9.6562-12.156-9.6562-5.923 0.00001-10.869 4.1233-12.156 9.6562h-9.0938l4.5938-63.781zm16.65 59.092c4.14 0 7.5 3.36 7.5 7.5s-3.36 7.5-7.5 7.5-7.5-3.36-7.5-7.5 3.36-7.5 7.5-7.5z" fill-rule="evenodd" fill="#000407"/>
  <rect id="rect2843" height="1.1435" width="38.439" y="111.91" x="140.75"/>
 </g>
 <g id="layer4" transform="translate(0,80)" display="none">
  <g id="g2992" transform="translate(-.044128 -10.06)">
   <path id="path28209" d="m131.6 181.31-61.628 76.308-4.5301 5.5783-5.5574 4.2237-6.8994 2.1092-7.3222-0.10972-6.8122-2.2963-5.7474-4.3373-4.2013-6.0873-2.2249-7.0512 0.15697-6.9752 2.7328-6.0895 4.5948-5.3084 5.5935-4.868 1.1742-0.94649 90.671-44.15zm28.001-25.261c2.1971-0.21962 4.1584 1.3852 4.378 3.5823 0.21962 2.1971-1.3852 4.1584-3.5823 4.378-2.1971 0.21962-4.1584-1.3852-4.378-3.5823-0.21962-2.1971 1.3852-4.1584 3.5823-4.378z" fill-rule="evenodd" fill="#0f0"/>
  </g>
 </g>
 <g id="layer3" transform="translate(0,80)" display="none">
  <g id="g2936" transform="translate(-.047309 -10.02)">
   <path id="path2558-0" d="m197.88 108.62v17.719h4.25v-17.719h-4.25z" fill-rule="evenodd" transform="translate(-40,-40)" fill="#000407"/>
  </g>
 </g>
 <g id="layer5" transform="translate(0,60)" display="none">
  <path id="path27763-2" d="m160.07 46.06-16.278 32.6 32.591 0.0025-16.313-32.602v0.000026zm-16.282 0.48461 16.292-36.618 16.331 36.616-32.623 0.0015v-0.000037z" fill-rule="evenodd" fill="#000407"/>
 </g>
 <g id="layer6" transform="translate(0,60)" display="none">
  <path id="path27763-3" d="m144.04 13.91 15.947 32.593 16.318-32.58-32.265-0.01278zm15.951 32.15-16.278 32.6 32.591 0.0025-16.313-32.602v0.000026z" fill-rule="evenodd" fill="#000407"/>
 </g>
 <g id="layer7" transform="translate(0,60)" display="none">
  <path id="path27763-0" d="m160.03 78.721-15.955-32.597 32.006 0.003-16.051 32.594zm-0.004-32.17-15.965-32.553 32.031 0.01386-16.067 32.54z" fill-rule="evenodd" fill="#000407"/>
 </g>
 <g id="layer8" transform="translate(0,60)" display="none">
  <path id="path27763-9" d="m160.08 78.672-16.111-32.597 32.069 0.003-15.958 32.594zm-16.037-35.692 15.977-32.59 16.031 32.597-32.008-0.0066v0.000035z" fill-rule="evenodd" fill="#000407"/>
 </g>
 <g id="layer9" transform="translate(0,60)" display="none">
  <path id="path4179" d="m160.13 41.602-18.169 36.964 36.219-0.004-18.006-36.96-0.044 0.00045zm-0.0247 10.443 11.117 21.535-22.19-0.06882 11.073-21.466z" fill-rule="evenodd" fill="#000407"/>
 </g>
 <g id="layer10" transform="translate(0,60)" display="none">
  <path id="path2520-0" d="m146.15 43.534-0.375 35.062h28.344v-35.062h-27.969zm4.9375 4.5938 18.042-0.04398 0.0648 25.5-18.282 0.04398 0.17592-25.5z" fill-rule="evenodd" fill="#000407"/>
 </g>
 <g id="layer11" transform="translate(0,60)" display="none">
  <g id="g3206" transform="translate(-2.4345 68.169)">
   <path id="path13269" d="m162.48-23.367c-9.3567 0-17 7.6433-17 17s7.6433 17 17 17 17-7.6433 17-17-7.6433-17-17-17zm0 5c6.6513 0 12 5.3487 12 12s-5.3487 12-12 12-12-5.3487-12-12 5.3487-12 12-12z" fill-rule="evenodd" fill="#000407"/>
  </g>
 </g>
 <g id="layer12" transform="translate(0,60)" display="none">
  <path id="path27763" d="m174.51 35.346c0 8.004-6.48 14.456-14.484 14.456s-14.454-6.5271-14.454-14.531c0-8.004 6.392-14.5 14.396-14.5s14.542 6.5711 14.542 14.575zm0.0184 28.925c0 8.004-6.496 14.5-14.5 14.5s-14.5-6.496-14.5-14.5 6.496-14.5 14.5-14.5 14.5 6.496 14.5 14.5z" fill-rule="evenodd" fill="#000407"/>
 </g>
</svg>
