<?xml version="1.0" encoding="UTF-8" standalone="no"?>
<svg id="svg2" xmlns:rdf="http://www.w3.org/1999/02/22-rdf-syntax-ns#" xmlns="http://www.w3.org/2000/svg" height="400" width="300" version="1.0" xmlns:cc="http://creativecommons.org/ns#" xmlns:dc="http://purl.org/dc/elements/1.1/">
 <metadata id="metadata2913">
  <rdf:RDF>
   <cc:Work rdf:about="">
    <dc:format>image/svg+xml</dc:format>
    <dc:type rdf:resource="http://purl.org/dc/dcmitype/StillImage"/>
    <dc:title/>
   </cc:Work>
  </rdf:RDF>
 </metadata>
 <g id="g2839" transform="translate(0,80)">
  <path id="path2841" d="m126.66 46.279-4.625 70.875h-8.1562v5.6562h24c1.2873 5.533 6.2333 9.6562 12.156 9.6562 5.925 0 10.871-4.1205 12.156-9.6562h24v-5.6562h-8.1562l-4.9688-70.875h-46.406zm6.7188 7.0938h33.312l4.5938 63.781h-9.0938c-1.2853-5.5357-6.2313-9.6562-12.156-9.6562-5.923 0.00001-10.869 4.1233-12.156 9.6562h-9.0938l4.5938-63.781zm16.656 59.094c4.14 0 7.5 3.36 7.5 7.5s-3.36 7.5-7.5 7.5-7.5-3.36-7.5-7.5 3.36-7.5 7.5-7.5z" fill-rule="evenodd" fill="#000407"/>
  <rect id="rect2843" height="1.1435" width="38.439" y="81.885" x="130.85"/>
  <path id="path5378" d="m131.5 81.242c0-0.32082 0.4352-6.5946 0.96712-13.942 0.53191-7.3471 0.96732-13.457 0.96756-13.578 0.00036-0.17437 3.4429-0.2199 16.625-0.2199h16.625v0.49452c0 0.27198 0.43493 6.5062 0.96651 13.854 0.53158 7.3476 0.96698 13.498 0.96756 13.667 0.001 0.29126-0.99961 0.30786-18.559 0.30786h-18.56v-0.58331z"/>
  <path id="path5380" fill="#ffd400" d="m128.94 116c0.0793-0.76992 2.3762-32.546 2.3762-32.873 0-0.0376 8.431-0.0685 18.736-0.0685h18.736l0.007 0.57174c0.004 0.31446 0.54184 7.9551 1.1953 16.979l1.1881 16.408-4.4745-0.0469-4.4745-0.0469-0.21085-0.70369c-0.51132-1.7064-2.0669-4.1697-3.4606-5.4797-3.1834-2.9923-8.3616-4.0719-12.62-2.6311-3.6165 1.2236-6.6499 4.3085-7.8529 7.9864l-0.29961 0.91599h-4.4745-4.4745l0.10416-1.0116z"/>
 </g>
</svg>
