<svg
   xmlns="http://www.w3.org/2000/svg"
   xmlns:xlink="http://www.w3.org/1999/xlink"  
   version="1.1"
   width="60"
   height="60">
  <symbol id="anchorage_eagleray" width="60" height="60">
    <path d="m 29.939019,5.5000079 c -2.563418,0 -4.76316,2.4541619 -4.76316,5.6338001 0,1.962683 0.855652,3.639217 2.100677,4.642254 -1.522689,-0.01871 -3.045387,-0.03335 -4.567751,-0.0676 0,1.702456 0,3.000676 0,4.642255 1.774986,0 3.549979,0 5.324971,0 l -0.464103,24.495768 c -2.69516,-0.485775 -5.096439,-1.726086 -7.0104,-3.492959 0.474985,-0.523724 0.945327,-1.051 1.416732,-1.577464 -2.915449,-2.761356 -5.973494,-5.669701 -8.475985,-8.0676 0.615628,5.776575 1.125989,10.356146 1.734281,15.661962 0.936533,-1.072669 1.8855,-2.135941 2.833471,-3.199997 2.644164,3.368727 5.986464,5.464201 9.550754,6.129576 0.117097,1.065018 0.200575,2.131656 0.268689,3.199997 1.606025,0 2.840406,0 4.347917,0 0.08928,-1.051664 0.179036,-2.103294 0.268689,-3.154928 2.30772,-0.421142 4.570532,-1.414241 6.66843,-3.109859 1.072882,-0.867482 1.98405,-1.86178 2.833473,-2.929575 0.853119,1.028758 1.7218,2.046293 2.589204,3.064786 0.715203,-5.196488 1.325104,-10.713226 1.905092,-15.218021 -3.137349,2.698985 -5.61139,5.008476 -8.329258,7.57859 0.454965,0.549062 0.911137,1.097268 1.367885,1.645067 -1.908239,1.76031 -4.303673,2.984504 -6.985972,3.470425 L 32.112978,20.350708 c 1.76685,0 3.533694,0 5.300545,0 0,-1.693845 0,-2.985686 0,-4.619715 l -1.001483,0 -3.761678,0.02252 c 1.213439,-1.011682 2.027397,-2.686867 2.027397,-4.619721 0,-3.180039 -2.177971,-5.633798 -4.73874,-5.633798 z m 0,2.5690143 c 1.598113,0 2.760197,1.4236438 2.760197,3.0647858 0,1.361435 -0.799612,2.586542 -2.002977,2.974647 L 30.0123,14.333808 29.25508,14.130989 c -1.249683,-0.352596 -2.100678,-1.603744 -2.100678,-2.997181 0,-1.641972 1.182118,-3.0647858 2.784617,-3.0647858 z"
     style="fill:#000000;fill-opacity:1;stroke:none" />
  </symbol>
  <use xlink:href="#anchorage_eagleray" x="0" y="0" />
</svg>
