<svg
   xmlns="http://www.w3.org/2000/svg"
   xmlns:xlink="http://www.w3.org/1999/xlink"  
   version="1.0"
   width="300"
   height="400">
  <symbol id="can" width="300" height="400">
    <path d="m 159.48,160.26 -28.062,-8.8438 -15.219,45.75 h -7.9688 v 5.6562 h 29.688 c 1.2873,5.533 6.2333,9.6562 12.156,9.6562 5.925,0 10.871,-4.1205 12.156,-9.6562 h 29.844 v -0.0625 -5.5938 h -7.6875 l 9,-26.188 -29.938,-9.4375 -3.9688,-1.2812 z m -23.031,-0.21875 47.156,15.969 -7.2188,21.156 h -14.156 c -1.2853,-5.5357 -6.2313,-9.6562 -12.156,-9.6562 -5.923,10e-6 -10.869,4.1233 -12.156,9.6562 h -13.719 l 12.25,-37.125 z m 13.625,32.438 c 4.14,0 7.5,3.36 7.5,7.5 0,4.14 -3.36,7.5 -7.5,7.5 -4.14,0 -7.5,-3.36 -7.5,-7.5 0,-4.14 3.36,-7.5 7.5,-7.5 z"/>
  </symbol>
  <use xlink:href="#can" x="0" y="0" />
</svg>
