<?xml version="1.0" encoding="UTF-8" standalone="no"?>
<svg id="svg2" xmlns:rdf="http://www.w3.org/1999/02/22-rdf-syntax-ns#" xmlns="http://www.w3.org/2000/svg" height="400" width="300" version="1.0" xmlns:cc="http://creativecommons.org/ns#" xmlns:dc="http://purl.org/dc/elements/1.1/">
 <metadata id="metadata2913">
  <rdf:RDF>
   <cc:Work rdf:about="">
    <dc:format>image/svg+xml</dc:format>
    <dc:type rdf:resource="http://purl.org/dc/dcmitype/StillImage"/>
    <dc:title/>
   </cc:Work>
  </rdf:RDF>
 </metadata>
 <g id="layer2" transform="translate(0,60)">
  <path id="path90440-0" d="m159.4 100.24-28.062-8.8437-15.219 45.75h-7.9688v5.6562h29.688c1.2873 5.533 6.2333 9.6562 12.156 9.6562 5.925 0 10.871-4.1205 12.156-9.6562h29.844v-0.0625-5.5938h-7.6875l9-26.188-29.938-9.4375-3.9688-1.2812zm-23.031-0.21875 47.156 15.969-7.2188 21.156h-14.156c-1.2853-5.5357-6.2313-9.6562-12.156-9.6562-5.923 0.00001-10.869 4.1233-12.156 9.6562h-13.719l12.25-37.125zm13.625 32.438c4.14 0 7.5 3.36 7.5 7.5s-3.36 7.5-7.5 7.5-7.5-3.36-7.5-7.5 3.36-7.5 7.5-7.5z" fill-rule="evenodd" fill="#000407"/>
  <path id="path5245" fill="#00d400" d="m124.29 136.9c0.2846-1.0742 12.121-36.728 12.193-36.728 0.0651 0 43.393 14.633 46.819 15.812 0.12197 0.042-2.009 6.433-6.248 18.738l-0.82489 2.3946h-7.005-7.005l-0.20608-0.71527c-1.0778-3.7409-4.0947-6.914-7.8256-8.2308-4.6442-1.6392-9.7386-0.45471-13.147 3.0569-1.4602 1.5043-2.5532 3.3434-3.0507 5.1328l-0.21029 0.7564h-6.7736c-6.3901 0-6.7704-0.0123-6.716-0.21769z"/>
 </g>
</svg>
