<?xml version="1.0" encoding="UTF-8" standalone="no"?>
<svg id="svg2" xmlns:rdf="http://www.w3.org/1999/02/22-rdf-syntax-ns#" xmlns="http://www.w3.org/2000/svg" height="400" width="300" version="1.0" xmlns:cc="http://creativecommons.org/ns#" xmlns:dc="http://purl.org/dc/elements/1.1/">
 <metadata id="metadata2913">
  <rdf:RDF>
   <cc:Work rdf:about="">
    <dc:format>image/svg+xml</dc:format>
    <dc:type rdf:resource="http://purl.org/dc/dcmitype/StillImage"/>
    <dc:title/>
   </cc:Work>
  </rdf:RDF>
 </metadata>
 <g id="layer2" transform="translate(0,60)">
  <path id="path90440-0" d="m159.48 100.26-28.062-8.8438-15.219 45.75h-7.9688v5.6562h29.688c1.2873 5.533 6.2333 9.6562 12.156 9.6562 5.925 0 10.871-4.1205 12.156-9.6562h29.844v-0.0625-5.5938h-7.6875l9-26.188-29.938-9.4375-3.9688-1.2812zm-23.031-0.21875 47.156 15.969-7.2188 21.156h-14.156c-1.2853-5.5357-6.2313-9.6562-12.156-9.6562-5.923 0.00001-10.869 4.1233-12.156 9.6562h-13.719l12.25-37.125zm13.625 32.438c4.14 0 7.5 3.36 7.5 7.5s-3.36 7.5-7.5 7.5-7.5-3.36-7.5-7.5 3.36-7.5 7.5-7.5z" fill-rule="evenodd" fill="#000407"/>
  <path id="path3007" d="m124.54 196.64c0.0589-0.17104 2.7831-8.4434 6.0539-18.383l5.9468-18.072 3.8621 1.3263c2.1242 0.72948 12.639 4.2977 23.367 7.9294s19.532 6.6331 19.564 6.6698c0.0328 0.0367-1.5232 4.7129-3.4578 10.391l-3.5174 10.325-7.0077 0.066-7.0078 0.066-0.29893-0.93681c-1.6184-5.0717-6.4511-8.5249-11.931-8.5249-5.0404 0-9.1824 2.5838-11.355 7.0835-0.46069 0.95398-0.83762 1.8776-0.83762 2.0525 0 0.25033-1.4353 0.31801-6.7439 0.31801-5.2864 0-6.7208-0.0672-6.6369-0.31099z" transform="translate(0,-60)" stroke-width="0" fill="#ffd400"/>
 </g>
</svg>
