<?xml version="1.0" encoding="UTF-8" standalone="no"?>
<svg id="svg2" xmlns:rdf="http://www.w3.org/1999/02/22-rdf-syntax-ns#" xmlns="http://www.w3.org/2000/svg" height="400" width="300" version="1.0" xmlns:cc="http://creativecommons.org/ns#" xmlns:dc="http://purl.org/dc/elements/1.1/">
 <metadata id="metadata2913">
  <rdf:RDF>
   <cc:Work rdf:about="">
    <dc:format>image/svg+xml</dc:format>
    <dc:type rdf:resource="http://purl.org/dc/dcmitype/StillImage"/>
    <dc:title/>
   </cc:Work>
  </rdf:RDF>
 </metadata>
 <g id="g5415" transform="translate(0,60)">
  <path id="path5417" d="m131.42 91.417-15.219 45.75h-7.9688v5.6562h29.688c1.2873 5.533 6.2333 9.6562 12.156 9.6562 5.925 0 10.871-4.1205 12.156-9.6562h29.844v-0.0625-5.5938h-7.6875l9.0411-26.137zm5.0312 8.625 47.156 15.969-7.2188 21.156h-14.156c-1.2853-5.5357-6.2313-9.6562-12.156-9.6562-5.923 0.00001-10.869 4.1233-12.156 9.6562h-13.719zm13.625 32.438c4.14 0 7.5 3.36 7.5 7.5s-3.36 7.5-7.5 7.5-7.5-3.36-7.5-7.5 3.36-7.5 7.5-7.5z" fill-rule="evenodd" fill="#000407"/>
  <rect id="rect5419" transform="matrix(.94832 .31730 -.31730 .94832 0 0)" height=".82490" width="49.832" y="69.795" x="161.16"/>
  <rect id="rect5421" transform="matrix(.94832 .31730 -.31730 .94832 0 0)" height=".70672" width="49.989" y="61.613" x="161.11"/>
  <path id="path15238" d="m154.29 185.17c-17.353-5.8084-23.423-7.8728-23.423-7.967-0.0002-0.0699 0.50555-1.6419 1.1239-3.4934 0.94798-2.8386 1.1474-3.3622 1.2721-3.3395 0.25554 0.0465 46.719 15.605 46.787 15.667 0.0558 0.0509-2.1043 6.5712-2.2739 6.864-0.048 0.0829-5.7011-1.778-23.486-7.7308z" transform="translate(0,-60)" fill="#ffd400"/>
  <path id="path15240" d="m156.9 177.43c-12.88-4.3143-23.442-7.8675-23.47-7.8958-0.0377-0.0377 2.9338-9.2122 3.0444-9.3997 0.0172-0.0292 46.433 15.67 46.845 15.845l0.22199 0.094-1.5689 4.6075c-0.86287 2.5341-1.5878 4.6044-1.6109 4.6005-0.0232-0.004-10.581-3.5369-23.461-7.8513z" transform="translate(0,-60)"/>
  <path id="path15750" d="m126.59 190.07c1.2895-3.9007 2.6934-8.1622 3.1197-9.4702 0.42637-1.3079 0.80172-2.3781 0.8341-2.3781 0.0791 0 46.809 15.64 46.849 15.68 0.0172 0.0172-0.20817 0.74845-0.50081 1.625l-0.53208 1.5937-7.0348 0.0215-7.0348 0.0215-0.29937-0.94749c-0.87794-2.7787-2.7612-5.2287-5.2386-6.8151-1.8816-1.2049-4.369-1.919-6.684-1.919s-4.8024 0.71416-6.684 1.919c-2.4527 1.5706-4.3273 4.0033-5.2252 6.7813l-0.3169 0.98034h-6.7982-6.7982l2.3445-7.0921z" transform="translate(0,-60)"/>
 </g>
</svg>
