<?xml version="1.0" encoding="UTF-8" standalone="no"?>
<svg id="svg2" xmlns:rdf="http://www.w3.org/1999/02/22-rdf-syntax-ns#" xmlns="http://www.w3.org/2000/svg" height="400" width="300" version="1.0" xmlns:cc="http://creativecommons.org/ns#" xmlns:dc="http://purl.org/dc/elements/1.1/">
 <metadata id="metadata2913">
  <rdf:RDF>
   <cc:Work rdf:about="">
    <dc:format>image/svg+xml</dc:format>
    <dc:type rdf:resource="http://purl.org/dc/dcmitype/StillImage"/>
    <dc:title/>
   </cc:Work>
  </rdf:RDF>
 </metadata>
 <g id="g5423" transform="translate(0,60)">
  <g id="g5425">
   <g id="g5427">
    <path id="path5429" d="m108.23 137.17v5.6562h29.688c1.2873 5.533 6.2333 9.6562 12.156 9.6562 5.925 0 10.871-4.1205 12.156-9.6562h29.844v-0.0625-5.5938h-83.844zm54 0c-1.2853-5.5357-6.2313-9.6562-12.156-9.6562-5.923 0.00001-10.869 4.1233-12.156 9.6562h24.312zm-12.156-4.6875c4.14 0 7.5 3.36 7.5 7.5s-3.36 7.5-7.5 7.5-7.5-3.36-7.5-7.5 3.36-7.5 7.5-7.5z" fill-rule="evenodd" fill="#000407"/>
    <path id="path5431" d="m15.636 156.98c-3.1145-15.327 5.8891-30.531 20.985-35.435" transform="matrix(1.4165 .47394 -.48207 1.4407 172.66 -93.634)" stroke="#000" stroke-width="4.6468" fill="none"/>
    <path id="path5433" d="m110.54 99.547c7.819 2.7107 13.709 9.3194 15.584 17.485" transform="matrix(1.8607 .62259 -.61354 1.8337 19.201 -153.27)" stroke="#000" stroke-width="3.5938" fill="none"/>
   </g>
   <rect id="rect5435" transform="matrix(.94832 .31730 -.31730 .94832 0 0)" height=".82490" width="49.832" y="69.339" x="162.52"/>
   <rect id="rect5437" transform="matrix(.94832 .31730 -.31730 .94832 0 0)" height=".70672" width="49.989" y="61.613" x="161.11"/>
  </g>
  <path id="path12768" d="m158.14 177.84c-10.394-3.487-18.916-6.3427-18.938-6.3459-0.0808-0.0121 1.5153-1.1513 2.7751-1.9808 1.7287-1.1381 2.943-1.8282 4.8103-2.7335 4.9455-2.3977 9.9704-3.7767 15.41-4.2288 1.0564-0.0878 1.2707-0.0851 1.4642 0.0185 0.36753 0.1967 3.2787 3.0783 4.3162 4.2724 1.3894 1.5991 2.2447 2.7199 3.4174 4.478 2.6914 4.035 4.4 7.7714 5.8224 12.732 0.0256 0.0893-0.001 0.14352-0.0686 0.13769-0.061-0.005-8.6151-2.8626-19.009-6.3496z" transform="translate(0,-60)" fill="#ffd400"/>
  <path id="path12770" d="m123.2 197.1c0.00018-0.035 0.12893-0.61287 0.28612-1.2842 1.1486-4.9054 3.2339-9.7051 6.0748-13.982 1.0457-1.5744 2.5272-3.529 2.6698-3.5225 0.0564 0.003 10.539 3.4971 23.294 7.7656l23.191 7.7608 0.0248 1.389c0.0136 0.76393 0.002 1.5121-0.0249 1.6625l-0.0497 0.27358-8.1826-0.00042-8.1826-0.00042-0.31569-0.97046c-1.26-3.8734-4.1446-6.7921-7.976-8.0705-1.3734-0.45826-2.2652-0.59391-3.9143-0.59542-1.0484-0.00096-1.6561 0.0409-2.2728 0.1565-2.5298 0.47428-4.7409 1.6399-6.5672 3.4619-1.6296 1.6258-2.5994 3.3048-3.3062 5.7242l-0.0738 0.25253-7.3376 0.0215c-4.0357 0.0118-7.3375-0.007-7.3373-0.0421z" transform="translate(0,-60)" fill="#ffd400"/>
  <path id="path12772" d="m156.45 185.42c-12.2-4.0871-22.511-7.5412-22.914-7.6757l-0.73314-0.24465 1.2061-1.3048c1.1008-1.191 2.3866-2.4115 3.8465-3.6513l0.55584-0.47206 19.521 6.5331c10.737 3.5932 19.536 6.5467 19.554 6.5634 0.0587 0.0536 0.42851 1.8087 0.63681 3.0224 0.22922 1.3356 0.61383 4.6821 0.53628 4.6663-0.0153-0.003-10.009-3.3496-22.209-7.4367z" transform="translate(0,-60)"/>
 </g>
</svg>
