<svg
   xmlns="http://www.w3.org/2000/svg"
   xmlns:xlink="http://www.w3.org/1999/xlink"  
   version="1.0"
   width="300"
   height="400">
  <symbol id="cone" width="300" height="400">
    <path d="m 166,155.3125 c -24.65709,-0.0928 -45.76395,17.70718 -49.96875,41.84375 l -7.8125,0 0,5.65625 29.6875,0 c 1.2873,5.533 6.23355,9.65625 12.15625,9.65625 5.925,0 10.87125,-4.12055 12.15625,-9.65625 l 29.84375,0 0,-0.0625 0,-5.59375 -6.28125,0 c 0.54122,-16.20917 -6.78207,-31.78888 -19.78125,-41.75 l 0,-0.0937 z m -2.40625,7.09375 c 10.06419,8.64356 15.65196,21.45627 15.125,34.75 l -16.5,0 C 160.93345,191.62055 155.9872,187.5 150.0625,187.5 c -5.923,1e-5 -10.86925,4.12335 -12.15625,9.65625 l -14.8125,0 c 3.93072,-19.41621 20.56721,-33.78571 40.5,-34.75 z m -13.53125,30.0625 c 4.14,0 7.5,3.36 7.5,7.5 0,4.14 -3.36,7.5 -7.5,7.5 -4.14,0 -7.5,-3.36 -7.5,-7.5 0,-4.14 3.36,-7.5 7.5,-7.5 z"/>
  </symbol>
  <use xlink:href="#cone" x="0" y="0" />
</svg>
