<?xml version="1.0" encoding="UTF-8" standalone="no"?>
<!-- Created with Inkscape (http://www.inkscape.org/) -->

<svg
   xmlns:dc="http://purl.org/dc/elements/1.1/"
   xmlns:cc="http://creativecommons.org/ns#"
   xmlns:rdf="http://www.w3.org/1999/02/22-rdf-syntax-ns#"
   xmlns:svg="http://www.w3.org/2000/svg"
   xmlns="http://www.w3.org/2000/svg"
   version="1.1"
   width="200"
   height="200"
   id="svg2">
  <metadata
     id="metadata13">
    <rdf:RDF>
      <cc:Work
         rdf:about="">
        <dc:format>image/svg+xml</dc:format>
        <dc:type
           rdf:resource="http://purl.org/dc/dcmitype/StillImage" />
        <dc:title></dc:title>
      </cc:Work>
    </rdf:RDF>
  </metadata>
  <defs
     id="defs11" />
  <path
     d="m 97.503227,51.482103 -6.159713,0.640212 -6.053011,1.413432 -5.787314,2.10714 -5.389522,2.853756 -4.831527,3.54687 -4.168341,4.240584 -3.610647,4.747494 -3.21195,5.1471 -3.026657,5.307606 3.610648,2.107146 1.35388,-2.267046 3.238851,-5.174304 3.504248,-4.9071 4.009043,-4.427388 4.619634,-3.787476 5.256522,-3.013356 5.707816,-2.240748 6.053011,-1.413426 6.238906,-0.560412 6.265806,0.293808 6.15881,1.146522 5.86742,2.000436 5.38922,2.773656 4.77923,3.54687 4.06194,4.240884 3.42475,4.853898 2.94656,5.2272 2.62856,5.57421 2.49557,5.680914 4.80522,3.653574 -1.06188,-5.627412 -1.54068,-5.84112 -2.30907,-5.65401 -3.07985,-5.307606 -3.76994,-4.853898 -4.40714,-4.373886 -4.88503,-3.733974 -5.33602,-3.067164 -5.65462,-2.320242 -5.89371,-1.60023 -6.07962,-0.826716 -6.154264,-0.102774 z M 54.362866,84.499353 53.035284,90.606771 52.132698,96.581193 52,102.52871 l 0.769889,5.94691 1.274381,5.97473 22.301077,-12.40164 5.150122,3.04086 5.256523,3.01366 5.389824,2.66695 5.654616,2.08024 5.894008,1.28043 6.02672,0.5598 6.10621,-0.0532 6.07931,-0.72001 5.86741,-1.46723 5.54852,-2.26705 5.15043,-3.06716 4.83183,-3.60007 4.69913,-3.89387 -4.51324,-3.733979 -4.83183,-3.573774 -5.17732,-2.987358 -5.57512,-2.213544 -5.89371,-1.44033 -6.07991,-0.773514 -6.10622,-0.133308 -6.05271,0.480012 -5.893708,1.253526 -5.601718,2.080242 -5.389522,2.77365 -5.283425,2.933862 -5.256523,2.933856 -21.993363,-12.7287 z m 74.945494,10.90902 c 2.34443,0 4.24723,1.911576 4.24723,4.267187 0,2.35531 -1.9028,4.26718 -4.24723,4.26718 -2.34503,0 -4.24814,-1.91157 -4.24814,-4.26718 0,-2.357729 1.90432,-4.268093 4.24694,-4.268093 z m 18.68952,8.774987 -5.12382,3.92077 -1.11478,3.17326 -2.17727,5.70751 -2.54846,5.46781 -3.21286,5.01411 -4.03504,4.45368 -4.77893,3.84038 -5.33602,3.12036 -5.73472,2.32054 -5.92032,1.49323 -6.02671,0.66712 -6.079607,-0.1599 -6.000113,-1.01382 -5.867113,-1.78644 -5.601718,-2.58745 -5.150727,-3.30656 -4.486332,-4.00058 -3.796545,-4.6677 -3.212252,-5.1202 -2.920559,-5.3608 -3.610346,2.10684 0.345196,0.74692 2.787559,5.38801 3.185954,5.12049 3.823146,4.64049 4.513233,4.08069 5.044328,3.46737 5.44242,2.82685 5.761015,2.07994 5.946914,1.44093 6.053011,0.61332 6.079306,-0.13331 5.97382,-0.90651 5.81391,-1.70724 5.54852,-2.42664 5.28343,-3.09376 4.85842,-3.70708 4.35364,-4.29378 3.71674,-4.7744 2.86736,-5.2538 2.17667,-5.60081 1.69937,-5.84082 1.45696,-5.94872 z"
     id="path5"
     style="fill:#a30075" />
</svg>
