<?xml version="1.0" encoding="UTF-8" standalone="no"?>
<svg id="svg2" xmlns:rdf="http://www.w3.org/1999/02/22-rdf-syntax-ns#" xmlns="http://www.w3.org/2000/svg" height="400" width="300" version="1.0" xmlns:cc="http://creativecommons.org/ns#" xmlns:dc="http://purl.org/dc/elements/1.1/">
 <metadata id="metadata2913">
  <rdf:RDF>
   <cc:Work rdf:about="">
    <dc:format>image/svg+xml</dc:format>
    <dc:type rdf:resource="http://purl.org/dc/dcmitype/StillImage"/>
    <dc:title/>
   </cc:Work>
  </rdf:RDF>
 </metadata>
 <g id="g3666" transform="translate(0,80)">
  <path id="path3668" d="m141.42 111c-1.7045 1.6489-2.9247 3.8387-3.478 6.2238l-41.906-0.022 0.0289 5.6343 41.834 0.044c1.2873 5.533 6.2553 9.7442 12.178 9.7442 5.925 0 10.893-4.2085 12.178-9.7442l41.759-0.0312-0.044-5.6343-41.737 0.009c-0.58668-2.529-1.8222-4.5108-3.6881-6.1972l-1.5241-1.2736-1.8821-1.211-2.3023-0.71488-2.9098-0.29604-2.864 0.2853-2.1736 0.6878-1.9114 1.1846-1.5571 1.3113zm8.6562 1.6242c4.14 0 7.5 3.36 7.5 7.5s-3.36 7.5-7.5 7.5-7.5-3.36-7.5-7.5 3.36-7.5 7.5-7.5z" fill-rule="evenodd" fill="#000407"/>
  <path id="path3670" d="m138.18 77.293h23.944l5.8269 16.563-35.959 0.0214 6.1877-16.585v-0.00004z" stroke="#000" stroke-width="4.2371" fill="none"/>
  <path id="path3672" d="m113.8 120.01-11.787-35.008 15.957 8.9977 64.123 0.0364 15.884-9.0342-11.963 35.008" stroke="#000" stroke-width="4" fill="none"/>
  <rect id="rect3674" height=".93296" width="81.603" y="103.07" x="109.37"/>
  <path id="path2877" d="m136.67 88.168c0.69833-1.8473 1.712-4.5342 2.2526-5.971l0.98287-2.6123h10.135c5.5744 0 10.253 0.19025 10.397 0.42277 0.14371 0.23252 1.1407 2.9194 2.2156 5.971l1.9543 5.5482h-14.603-14.603l1.2697-3.3587z"/>
  <path id="path2879" d="m113.12 110.68-2.0589-6.2197h38.768c21.322 0 38.768 0.17537 38.768 0.38971s-0.85943 2.9572-1.9098 6.0953l-1.9099 5.7056-11.173 0.13347-11.173 0.13347-0.58953-1.6262c-2.3158-6.3883-11.114-9.836-17.371-6.807-2.4948 1.2077-5.3634 4.3526-6.1533 6.746l-0.55086 1.6691h-11.294-11.294l-2.0589-6.2197z"/>
  <path id="path2881" fill="#d40000" d="m110.32 102.6c-0.6408-1.1323-3.8892-11.673-3.6661-11.897 0.14585-0.14586 2.5761 1.0387 5.4006 2.6324l5.1354 2.8976 32.447 0.19015 32.447 0.19016 5.5328-3.0833c3.043-1.6958 5.6239-2.9922 5.7353-2.8808 0.11139 0.11138-0.70981 2.9298-1.8249 6.2631l-2.0274 6.0606h-39.484c-21.716 0-39.579-0.16793-39.696-0.37318z"/>
 </g>
</svg>
