<svg
   xmlns="http://www.w3.org/2000/svg"
   xmlns:xlink="http://www.w3.org/1999/xlink"  
   version="1.1"
   width="300"
   height="400">
  <symbol id="land_tower" width="300" height="400">
    <path d="m 131.5,29.5 0,2.5 0,38.8125 0,0.1875 -8.84375,126.5 -10.15625,0 0,5 22.71875,0 c 1.20308,7.06805 7.38229,12.5 14.78125,12.5 7.39896,0 13.57817,-5.43195 14.78125,-12.5 l 22.71875,0 0,-5 -10.15625,0 L 168.5,71 l 0,-0.1875 0,-38.8125 0,-2.5 -2.5,0 -32,0 -2.5,0 z m 5,5 27,0 0,34 -27,0 0,-34 z m -0.15625,39 27.3125,0 8.65625,124 -7.53125,0 C 163.57817,190.43195 157.39896,185 150,185 c -7.39896,0 -13.57817,5.43195 -14.78125,12.5 l -7.53125,0 8.65625,-124 z M 150,190 c 5.55246,0 10,4.44754 10,10 0,5.55246 -4.44754,10 -10,10 -5.55246,0 -10,-4.44754 -10,-10 0,-5.55246 4.44754,-10 10,-10 z"
     style="fill:#000000;fill-opacity:1" />
  </symbol>
  <use xlink:href="#land_tower" x="0" y="0" />
</svg>
