<svg
   xmlns="http://www.w3.org/2000/svg"
   xmlns:xlink="http://www.w3.org/1999/xlink"  
   version="1.1"
   width="60"
   height="60">
  <symbol id="notice_bmr" width="60" height="60">
    <path d="M 4.65625,0.0625 A 3.0003,3.0003 0 0 0 2,3.09375 l 0,53.8125 a 3.0003,3.0003 0 1 0 6,0 L 8,3.09375 A 3.0003,3.0003 0 0 0 4.65625,0.0625 z" />
    <path d="M 54.65625,0.06252253 A 3.0003,3.0003 0 0 0 52,3.0937725 l 0,53.8125005 a 3.0003,3.0003 0 1 0 6,0 L 58,3.0937725 A 3.0003,3.0003 0 0 0 54.65625,0.06252253 z" />
    <path d="m 27.5,55 5,0 0,-40 5,0 L 30.027859,5 22.5,15 l 5,0 z" />
  </symbol>
  <use xlink:href="#notice_bmr" x="0" y="0" />
</svg>
