<?xml version="1.0" encoding="UTF-8" standalone="no"?>
<!-- Created with Inkscape (http://www.inkscape.org/) -->
<svg id="svg2" xmlns:rdf="http://www.w3.org/1999/02/22-rdf-syntax-ns#" xmlns="http://www.w3.org/2000/svg" height="60" width="80" version="1.1" xmlns:cc="http://creativecommons.org/ns#" xmlns:dc="http://purl.org/dc/elements/1.1/">
 <metadata id="metadata7">
  <rdf:RDF>
   <cc:Work rdf:about="">
    <dc:format>image/svg+xml</dc:format>
    <dc:type rdf:resource="http://purl.org/dc/dcmitype/StillImage"/>
    <dc:title/>
   </cc:Work>
  </rdf:RDF>
 </metadata>
 <g id="layer24" transform="translate(0,-60)">
  <g id="g14509" transform="matrix(-.97891 0 0 -.97184 98.734 148.31)">
   <g id="layer1" transform="matrix(0 1 -1 0 592.36 -290)">
    <g id="g3154" transform="matrix(1.2432 0 0 1.1244 -85.114 -66.215)">
     <g id="g7694" transform="matrix(0 1.25 1.25 0 329.43 498.07)" stroke="#000" stroke-width="1.0253" fill="#e72512">
      <path id="path7696" d="m0.39537 0.24323v-0.013794c0.0009856-0.077834 0.00591-0.15567 0.016755-0.2335 0.00986-0.076849 0.025626-0.15271 0.047309-0.22759 0.019712-0.075864 0.044352-0.14976 0.074906-0.22168 0.030554-0.071923 0.06505-0.14089 0.10447-0.20789 0.039424-0.067982 0.082791-0.13301 0.1301-0.19508 0.047309-0.061085 0.099546-0.1202 0.15474-0.17439 0.054208-0.055174 0.11334-0.10739 0.17445-0.15468 0.062093-0.047292 0.12714-0.090643 0.19416-0.12907 0.068007-0.03941 0.137-0.074879 0.20895-0.10444 0.071949-0.030543 0.14587-0.055174 0.22078-0.075864 0.074906-0.021676 0.15178-0.037439 0.22965-0.048277 0.076877-0.010838 0.15474-0.015764 0.23162-0.015764h50.498c0.07786 0.0009852 0.15573 0.00591 0.2326 0.016749 0.07688 0.00985 0.15375 0.025616 0.22866 0.047292 0.07589 0.019705 0.14981 0.044336 0.22176 0.074879 0.07096 0.030543 0.14094 0.065026 0.20796 0.10542 0.06801 0.038425 0.13207 0.081775 0.19416 0.12907 0.06209 0.047292 0.12024 0.09951 0.17544 0.15468 0.05519 0.054189 0.10743 0.1133 0.15474 0.17439 0.04731 0.06207 0.09068 0.1271 0.12911 0.19508 0.03942 0.066997 0.07491 0.13596 0.10447 0.20789 0.02957 0.071923 0.05519 0.14582 0.07589 0.22168 0.0207 0.074879 0.03745 0.15074 0.04829 0.22858 0.01084 0.076849 0.01577 0.15468 0.01478 0.23252v32.461c0 0.07784-0.0059 0.15567-0.01577 0.23252-0.01084 0.07783-0.02661 0.1537-0.04731 0.22858-0.01971 0.07586-0.04534 0.14976-0.07491 0.2207-0.03055 0.07192-0.06604 0.14188-0.10546 0.20887-0.03844 0.06798-0.0818 0.13301-0.12911 0.19409-0.04829 0.06207-0.09955 0.1202-0.15474 0.17537s-0.11334 0.10641-0.17544 0.15468c-0.06209 0.04729-0.12616 0.09064-0.19416 0.12907-0.06702 0.03941-0.137 0.07389-0.20796 0.10444-0.07293 0.02956-0.14686 0.05517-0.22176 0.07488-0.07491 0.02168-0.15178 0.03744-0.22866 0.04926-0.07688 0.01084-0.15474 0.01576-0.2326 0.01478h-50.498c-0.076877 0-0.15474-0.0059-0.2326-0.01576-0.0766-0.01-0.1535-0.026-0.2284-0.047-0.0749-0.019-0.1489-0.045-0.2208-0.074-0.072-0.031-0.1409-0.066-0.209-0.106-0.067-0.038-0.132-0.082-0.1941-0.13-0.0611-0.047-0.12026-0.098-0.17447-0.153-0.05618-0.056-0.10743-0.114-0.15474-0.176-0.04731-0.061-0.09067-0.126-0.1301-0.194-0.038438-0.067-0.07392-0.13695-0.10447-0.20887-0.029568-0.07192-0.054208-0.14582-0.074906-0.2207-0.021683-0.07488-0.037453-0.15173-0.048295-0.22858s-0.01577-0.15468-0.01577-0.23252v-0.01478-32.432z" fill-rule="evenodd" fill="#e72512"/>
     </g>
     <g id="g7698" transform="matrix(0 1.25 1.25 0 328.88 496.98)" stroke="#000">
      <path id="path7700" stroke-linejoin="bevel" d="m0 0v33.814c0.001 0.098 0.007 0.196 0.02 0.293 0.014 0.097 0.034 0.193 0.06 0.288 0.025 0.094 0.056 0.188 0.094 0.278s0.083 0.178 0.133 0.262c0.048 0.085 0.103 0.167 0.163 0.245 0.059 0.077 0.124 0.151 0.194 0.22 0.069 0.07 0.142 0.135 0.22 0.194 0.078 0.06 0.159 0.114 0.245 0.163 0.084 0.05 0.172 0.094 0.262 0.131 0.091 0.038 0.184 0.07 0.278 0.096 0.095 0.026 0.191 0.047 0.288 0.06 0.097 0.014 0.195 0.021 0.293 0.02h52.12c0.098 0 0.195-0.007 0.293-0.021 0.097-0.013 0.193-0.033 0.287-0.059 0.095-0.025 0.188-0.057 0.279-0.095 0.09-0.038 0.178-0.082 0.262-0.132 0.085-0.049 0.167-0.103 0.244-0.163 0.078-0.059 0.152-0.124 0.221-0.194 0.069-0.069 0.135-0.143 0.194-0.22 0.06-0.078 0.114-0.16 0.163-0.245 0.05-0.084 0.094-0.172 0.131-0.262 0.038-0.091 0.07-0.184 0.095-0.278 0.027-0.095 0.047-0.191 0.061-0.288s0.02-0.195 0.02-0.293v-33.832c-0.001-0.098-0.008-0.196-0.021-0.293s-0.033-0.193-0.06-0.287c-0.024-0.095-0.056-0.188-0.094-0.279-0.038-0.09-0.082-0.178-0.132-0.262-0.049-0.085-0.103-0.167-0.163-0.245-0.06-0.077-0.125-0.151-0.194-0.22s-0.143-0.135-0.221-0.194c-0.077-0.06-0.159-0.114-0.244-0.163-0.084-0.05-0.172-0.094-0.262-0.131-0.091-0.038-0.184-0.07-0.279-0.095-0.094-0.027-0.19-0.048-0.287-0.061-0.097-0.014-0.195-0.02-0.293-0.02h-52.12c-0.098 0.001-0.196 0.008-0.293 0.021s-0.193 0.033-0.288 0.06c-0.095 0.024-0.188 0.056-0.278 0.094s-0.178 0.082-0.262 0.132c-0.085 0.049-0.167 0.103-0.245 0.163s-0.151 0.125-0.22 0.194c-0.07 0.069-0.135 0.143-0.195 0.22-0.059 0.078-0.114 0.16-0.162 0.245-0.05 0.084-0.094 0.172-0.132 0.263-0.038 0.09-0.069 0.183-0.095 0.278-0.026 0.094-0.047 0.19-0.06 0.287-0.014 0.097-0.021 0.195-0.02 0.293v0.018z" stroke-miterlimit="22.926" stroke-width=".22146" fill="none"/>
      <g id="g7702" stroke-width="1.0253" transform="translate(-.037)">
       <path id="path7704" stroke-linejoin="bevel" d="m0 0v-0.018c0.001-0.1 0.007-0.199 0.021-0.298 0.013-0.098 0.033-0.196 0.061-0.292 0.025-0.096 0.057-0.191 0.095-0.283 0.039-0.092 0.084-0.181 0.135-0.266 0.049-0.087 0.104-0.17 0.165-0.249s0.127-0.153 0.198-0.223c0.07-0.072 0.144-0.138 0.223-0.198 0.079-0.061 0.162-0.116 0.249-0.165 0.086-0.051 0.175-0.096 0.267-0.134 0.092-0.039 0.186-0.071 0.282-0.097 0.096-0.027 0.194-0.048 0.293-0.061 0.098-0.014 0.198-0.021 0.297-0.02h52.121c0.099 0 0.199 0.007 0.297 0.021 0.099 0.013 0.197 0.033 0.293 0.06 0.096 0.025 0.191 0.057 0.283 0.096 0.091 0.039 0.18 0.084 0.266 0.135 0.086 0.049 0.169 0.104 0.248 0.165s0.154 0.127 0.224 0.198c0.071 0.069 0.137 0.144 0.198 0.223s0.116 0.162 0.165 0.249c0.051 0.085 0.095 0.175 0.134 0.266 0.038 0.092 0.07 0.187 0.096 0.283 0.028 0.096 0.048 0.194 0.062 0.293 0.014 0.098 0.021 0.197 0.02 0.297v33.832c-0.001 0.1-0.007 0.199-0.021 0.298-0.013 0.099-0.033 0.196-0.061 0.292-0.025 0.097-0.057 0.191-0.096 0.283-0.038 0.092-0.083 0.181-0.134 0.266-0.049 0.087-0.104 0.17-0.165 0.249s-0.127 0.154-0.198 0.224c-0.07 0.071-0.145 0.137-0.224 0.197-0.079 0.061-0.162 0.117-0.248 0.166-0.086 0.05-0.175 0.095-0.267 0.133-0.092 0.039-0.186 0.071-0.282 0.097-0.096 0.027-0.194 0.048-0.293 0.062-0.098 0.014-0.198 0.02-0.297 0.02h-52.121c-0.099-0.001-0.199-0.008-0.298-0.021-0.098-0.014-0.196-0.034-0.292-0.061-0.096-0.025-0.191-0.057-0.283-0.096-0.091-0.038-0.18-0.083-0.266-0.134-0.087-0.05-0.17-0.105-0.248-0.166-0.08-0.06-0.154-0.126-0.224-0.197-0.071-0.07-0.137-0.145-0.198-0.224s-0.116-0.162-0.165-0.249c-0.051-0.085-0.095-0.174-0.134-0.266-0.038-0.092-0.071-0.187-0.096-0.283-0.028-0.096-0.048-0.193-0.062-0.292s-0.021-0.198-0.02-0.298v-33.814z" stroke="#000" stroke-miterlimit="22.926" stroke-width="1.3875" fill="none"/>
      </g>
     </g>
     <path id="path7706" d="m333.25 504.93v54.894h32.754v-54.894h-32.754z" fill="#fff"/>
     <g id="g7708" transform="matrix(0 1.25 1.25 0 342.66 520.71)">
      <path id="path7710" stroke-linejoin="bevel" d="m0 0v-0.014l-0.002 0.007 0.002 0.007z" fill-rule="evenodd" stroke="#231f20" stroke-miterlimit="22.926" stroke-width=".22146" fill="#a7a9ac"/>
     </g>
     <g id="g7712" transform="matrix(0 1.25 1.25 0 344.48 521.2)">
      <path id="path7714" stroke-linejoin="bevel" d="m-1.0223 5.9132 0.791 2.946 0.004 0.017c0.007 0.025 0.011 0.051 0.015 0.076 0.003 0.026 0.006 0.052 0.006 0.078 0.00099999 0.031 0 0.063-0.003 0.095-0.004 0.032-0.009 0.064-0.017 0.095-0.007 0.031-0.016 0.061-0.028 0.091-0.011 0.03-0.025 0.059-0.04 0.087s-0.032 0.055-0.051 0.081-0.039 0.05-0.061 0.073c-0.022 0.024-0.046 0.046-0.07 0.066-0.025 0.02-0.051 0.038-0.079 0.055-0.027 0.017-0.055 0.032-0.084 0.045-0.03 0.012-0.06 0.024-0.09 0.032-0.031 0.01-0.062 0.017-0.093 0.022-0.032 0.005-0.064 0.008-0.096 0.008-0.032 0.0009999-0.064 0-0.095-0.003-0.032-0.003-0.064-0.009-0.094999-0.016-0.031-0.008-0.062-0.017-0.091-0.028-0.03-0.012-0.059-0.025-0.087-0.041l-0.008-0.004-0.009-0.005-9.0729-5.233 9.0729-5.186 0.016-0.009c0.022-0.012 0.045-0.023 0.069-0.033s0.048-0.018 0.072-0.025c0.031-0.009 0.062-0.017 0.093999-0.021 0.031-0.005 0.063-0.008 0.095-0.008 0.032-0.001 0.064 0 0.096 0.003 0.032 0.004 0.063 0.009 0.094 0.017 0.031 0.007 0.062 0.017 0.091 0.028 0.03 0.012 0.059 0.025 0.087 0.041 0.028 0.015 0.055 0.032 0.081 0.051s0.05 0.039 0.073 0.062c0.024 0.022 0.045 0.045 0.065 0.07s0.039 0.051 0.055 0.078c0.017 0.028 0.032 0.056 0.045 0.085s0.024 0.059 0.032 0.09c0.009 0.031 0.017 0.062 0.021 0.094 0.005 0.031 0.008 0.063 0.009 0.095 0.00099999 0.032 0 0.064-0.004 0.096-0.003 0.031-0.009 0.063-0.017 0.094l-0.002 0.009-0.003 0.009-0.785 2.897h27.587 0.019 0.019c0.064 0.002 0.127 0.007 0.191 0.017 0.063 0.01 0.125 0.025 0.186 0.043 0.062 0.017 0.122 0.039 0.18 0.065s0.115 0.057 0.169 0.091c0.055 0.032 0.107 0.069 0.157 0.11 0.049 0.039 0.096 0.083 0.14 0.13 0.044 0.046 0.085 0.095 0.123 0.146 0.037 0.052 0.071 0.106 0.101 0.163 0.031 0.056 0.058 0.114 0.081 0.173 0.023 0.06 0.042 0.121 0.056 0.183 0.012 0.048 0.022 0.097 0.029 0.146 0.006 0.049 0.01 0.098 0.011 0.147v0.018l0.001 0.017v0.038c-0.001 0.064-0.006 0.128-0.015 0.191-0.01 0.063-0.023 0.126-0.042 0.187-0.017 0.062-0.038 0.122-0.063 0.181-0.026 0.058-0.055 0.115-0.089 0.169-0.032 0.055-0.068 0.108-0.108 0.158s-0.083 0.097-0.129 0.141c-0.046 0.045-0.094 0.087-0.146 0.125-0.051 0.038-0.105 0.072-0.161 0.103s-0.113 0.059-0.173 0.082c-0.059 0.023-0.12 0.043-0.182 0.058-0.053 0.014-0.106 0.024-0.159 0.032-0.054 0.007-0.108 0.011-0.162 0.011l-0.017 0.001h-0.017-27.59z" fill-rule="evenodd" stroke="#231f20" stroke-miterlimit="22.926" stroke-width=".22146"/>
     </g>
     <g id="g7716" transform="matrix(0 1.25 1.25 0 357.29 544.02)">
      <path id="path7718" stroke-linejoin="bevel" d="m0 0v-0.014l0.002 0.007-0.002 0.007z" fill-rule="evenodd" stroke="#231f20" stroke-miterlimit="22.926" stroke-width=".22146" fill="#a7a9ac"/>
     </g>
     <path id="path7724" d="m353.91 536.96v1.4545h7.278v-1.4545h-7.278z" fill="#fff"/>
     <path id="path7728" d="m353.91 521.86v1.4545h7.278v-1.4545h-7.278z" fill="#fff"/>
     <path id="path7730" d="m353.91 529.41v1.4545h7.278v-1.4545h-7.278z" fill="#fff"/>
    </g>
   </g>
  </g>
 </g>
</svg>
