<?xml version="1.0" encoding="UTF-8" standalone="no"?>
<!-- Created with Inkscape (http://www.inkscape.org/) -->
<svg id="svg2" xmlns:rdf="http://www.w3.org/1999/02/22-rdf-syntax-ns#" xmlns="http://www.w3.org/2000/svg" height="60" width="60" version="1.1" xmlns:cc="http://creativecommons.org/ns#" xmlns:dc="http://purl.org/dc/elements/1.1/">
 <metadata id="metadata7">
  <rdf:RDF>
   <cc:Work rdf:about="">
    <dc:format>image/svg+xml</dc:format>
    <dc:type rdf:resource="http://purl.org/dc/dcmitype/StillImage"/>
    <dc:title/>
   </cc:Work>
  </rdf:RDF>
 </metadata>
 <g id="layer42" transform="translate(0,-60)">
  <g id="layer1-26" transform="matrix(.97035 0 0 .97035 -588.25 -529.16)">
   <path id="path7862-68" d="m616.24 617.17v41.814h41.813v-41.814h-41.813z" fill="#fff"/>
   <path id="path7846-88" stroke-linejoin="bevel" d="m610.84 667.91h52.627c0.15278-0.00084 0.30555-0.0116 0.45622-0.0316 0.15067-0.0211 0.30029-0.0517 0.4478-0.0938 0.1475-0.0379 0.2929-0.0875 0.43304-0.14646 0.14013-0.059 0.2771-0.12749 0.40775-0.20546 0.13276-0.0759 0.26025-0.16121 0.38036-0.25393 0.12117-0.0927 0.23601-0.19387 0.34348-0.3024 0.10853-0.10747 0.20968-0.22126 0.3024-0.34243 0.0927-0.12117 0.17806-0.24866 0.25287-0.38037 0.078-0.1317 0.14645-0.26868 0.2044-0.40881 0.0601-0.14119 0.10852-0.28554 0.14856-0.43305 0.0411-0.14646 0.0727-0.29713 0.0948-0.4478 0.0211-0.15067 0.0316-0.30345 0.0305-0.45518v-52.656c-0.00084-0.15278-0.0116-0.30451-0.0326-0.45518-0.0201-0.15172-0.0517-0.30134-0.0927-0.44885-0.0379-0.14751-0.0874-0.29186-0.14645-0.43305-0.059-0.14013-0.12855-0.27711-0.20651-0.40776-0.0759-0.13276-0.16016-0.2592-0.25287-0.38037-0.0927-0.12117-0.19387-0.23496-0.3024-0.34243-0.10747-0.10853-0.22231-0.20968-0.34348-0.30345-0.12011-0.0927-0.2476-0.17702-0.38036-0.25288-0.13065-0.077-0.26762-0.1454-0.40775-0.2044-0.14119-0.059-0.28554-0.10853-0.43304-0.14752-0.14751-0.0421-0.29713-0.0737-0.4478-0.0948s-0.30344-0.0316-0.45622-0.0305h-52.654c-0.15277 0-0.30555 0.0115-0.45622 0.0316-0.15172 0.0201-0.30134 0.0517-0.44779 0.0938-0.14751 0.0379-0.29291 0.0864-0.43304 0.1454-0.14119 0.06-0.27711 0.12854-0.40881 0.20651-0.1317 0.0759-0.25919 0.16016-0.38036 0.25288-0.12011 0.0938-0.23496 0.19492-0.34243 0.30345-0.10852 0.10747-0.20967 0.22127-0.30239 0.34243-0.0938 0.12117-0.17806 0.24761-0.25392 0.38037-0.077 0.13171-0.1454 0.26763-0.20441 0.40882-0.059 0.14013-0.10852 0.28553-0.14751 0.43199-0.0421 0.14751-0.0737 0.29713-0.0948 0.44885-0.0211 0.15068-0.0316 0.3024-0.0305 0.45518v52.656c0.00085 0.15172 0.0116 0.3045 0.0326 0.45517 0.0201 0.15173 0.0506 0.30134 0.0927 0.4478 0.0379 0.14751 0.0875 0.29292 0.14646 0.43305 0.059 0.14119 0.12749 0.27711 0.20546 0.40881 0.0759 0.13171 0.1612 0.2592 0.25392 0.38037 0.0927 0.12117 0.19387 0.23496 0.30239 0.34244 0.10747 0.10852 0.22232 0.20967 0.34243 0.30239 0.12117 0.0927 0.24866 0.17807 0.38036 0.25393 0.1317 0.077 0.26868 0.1454 0.40881 0.20441 0.14118 0.059 0.28553 0.10747 0.43304 0.14751 0.14751 0.0421 0.29712 0.0738 0.44779 0.0948 0.15067 0.0211 0.30345 0.0316 0.45622 0.0305h0.0274z" stroke="#000" stroke-miterlimit="22.926" stroke-width=".23454" fill="#fff"/>
   <path id="path7850-90" stroke-linejoin="bevel" d="m610.84 667.96h-0.0284c-0.15488-0.00085-0.30977-0.0116-0.46254-0.0326-0.15383-0.0201-0.30661-0.0527-0.45517-0.0938-0.15067-0.0389-0.29712-0.0896-0.44042-0.14962-0.14329-0.06-0.28131-0.12959-0.41512-0.20862-0.13382-0.078-0.26341-0.16331-0.38563-0.25814-0.12328-0.0948-0.23918-0.19703-0.34875-0.30767-0.11063-0.10852-0.21284-0.22442-0.30766-0.3477-0.0948-0.12328-0.18017-0.25182-0.25709-0.38669-0.079-0.13381-0.14856-0.27289-0.20862-0.41513-0.0601-0.1433-0.10957-0.28976-0.14961-0.44043-0.0421-0.14856-0.0749-0.30134-0.0959-0.45517-0.0222-0.15278-0.0327-0.30767-0.0316-0.46255v-52.656c0.00084-0.15489 0.0116-0.30977 0.0326-0.46361 0.0211-0.15383 0.0527-0.30555 0.0948-0.45412 0.0389-0.15067 0.0885-0.29818 0.14856-0.44147 0.0601-0.14225 0.12959-0.28133 0.20967-0.41409 0.077-0.13486 0.16226-0.26341 0.25708-0.38669 0.0948-0.12327 0.19703-0.23917 0.30766-0.34875 0.10853-0.10958 0.22548-0.21284 0.3477-0.30661 0.12328-0.0948 0.25287-0.18123 0.38668-0.25815 0.13381-0.079 0.27289-0.14751 0.41513-0.20757 0.1433-0.06 0.2908-0.10957 0.44042-0.15067 0.14856-0.0421 0.30134-0.0748 0.45517-0.0959 0.15277-0.0222 0.30766-0.0316 0.46254-0.0305h52.656c0.15488 0.00084 0.30976 0.0116 0.46254 0.0316 0.15383 0.0211 0.30555 0.0527 0.45517 0.0948 0.15067 0.039 0.29712 0.0885 0.44041 0.14961 0.1433 0.06 0.28132 0.1296 0.41513 0.20863 0.13381 0.077 0.26341 0.16331 0.38563 0.25814 0.12328 0.0938 0.24023 0.19703 0.34875 0.30661 0.11063 0.10958 0.21284 0.22548 0.30766 0.34876 0.0938 0.12327 0.18017 0.25182 0.25814 0.38668 0.078 0.13382 0.14751 0.27185 0.20757 0.41514 0.06 0.1433 0.10957 0.28975 0.14961 0.44043 0.0432 0.14856 0.0749 0.30134 0.0969 0.45412 0.0211 0.15383 0.0316 0.30872 0.0305 0.4636v52.656c-0.00085 0.15488-0.0116 0.30977-0.0326 0.4636-0.0211 0.15278-0.0527 0.30556-0.0948 0.45412-0.0389 0.15068-0.0885 0.29713-0.14856 0.44043-0.0601 0.14329-0.1296 0.28132-0.20862 0.41514-0.078 0.13486-0.16437 0.26341-0.25814 0.38668-0.0948 0.12223-0.19703 0.23918-0.30766 0.34771-0.10852 0.11063-0.22547 0.21389-0.34875 0.30766-0.12222 0.0948-0.25182 0.18123-0.38563 0.25814-0.13381 0.078-0.27289 0.14752-0.41513 0.20757-0.14329 0.06-0.2908 0.10958-0.44041 0.15067-0.14962 0.0421-0.30134 0.0738-0.45517 0.0959-0.15278 0.0211-0.30766 0.0316-0.46254 0.0305h-52.628z" stroke="#000" stroke-miterlimit="22.926" stroke-width="2.0611" fill="#fff"/>
   <path id="path7842-77" d="m611.27 666.08h-0.0166c-0.0923-0.00083-0.18345-0.008-0.27466-0.0198-0.0912-0.0124-0.1814-0.0311-0.27053-0.056-0.0891-0.0228-0.17621-0.0529-0.26119-0.0881-0.085-0.0352-0.16689-0.0767-0.24565-0.12437-0.0798-0.0456-0.15652-0.0964-0.23011-0.15237-0.0726-0.0571-0.142-0.11712-0.20626-0.18346-0.0653-0.0642-0.12645-0.13267-0.18242-0.20626-0.056-0.0726-0.10676-0.14926-0.15237-0.22907-0.0466-0.0788-0.0881-0.16169-0.12334-0.24668-0.0362-0.085-0.0653-0.17206-0.0891-0.26016-0.0259-0.0891-0.0446-0.17931-0.057-0.27052-0.0135-0.0912-0.0198-0.18347-0.0187-0.27468v-51.777c0-0.0923 0.008-0.1845 0.0198-0.27466 0.0114-0.0912 0.03-0.18139 0.056-0.27054 0.0228-0.0891 0.0518-0.1762 0.0881-0.26119 0.0352-0.085 0.0767-0.16687 0.12437-0.24668 0.0457-0.0788 0.0964-0.15548 0.15236-0.22907 0.056-0.0726 0.11713-0.14096 0.18243-0.20626 0.0642-0.0653 0.13371-0.12646 0.20627-0.18243 0.0736-0.056 0.15028-0.10675 0.23009-0.1534 0.0788-0.0457 0.1617-0.0871 0.24565-0.12231 0.085-0.0362 0.17206-0.0653 0.26121-0.0891 0.0891-0.0259 0.1793-0.0446 0.27051-0.0571 0.0912-0.0135 0.18243-0.0197 0.27467-0.0187h51.777c0.0923 0 0.18346 0.006 0.27467 0.0187 0.0912 0.0124 0.18139 0.0311 0.27053 0.0571 0.0891 0.0228 0.17621 0.0518 0.26119 0.0881 0.085 0.0352 0.16688 0.0767 0.24669 0.12334 0.0788 0.0466 0.15547 0.0975 0.22803 0.1534 0.0736 0.056 0.142 0.11713 0.2073 0.18243 0.0652 0.0652 0.12645 0.13371 0.18242 0.20626 0.056 0.0736 0.10676 0.15029 0.15236 0.22907 0.0467 0.0799 0.0882 0.16169 0.12334 0.24667 0.0352 0.085 0.0652 0.17207 0.0891 0.2612 0.0249 0.0891 0.0447 0.17932 0.057 0.27054 0.0135 0.0902 0.0198 0.18242 0.0187 0.27466v51.777c0 0.0912-0.006 0.18346-0.0187 0.27467-0.0124 0.0912-0.0321 0.18139-0.057 0.27053-0.0228 0.0881-0.0518 0.1762-0.0881 0.2612-0.0352 0.0839-0.0767 0.16687-0.12439 0.24564-0.0456 0.0798-0.0964 0.15651-0.15236 0.22907-0.056 0.0726-0.11712 0.142-0.18242 0.20626-0.0653 0.0663-0.13371 0.12749-0.20729 0.18346-0.0726 0.056-0.14927 0.10676-0.22803 0.15237-0.0798 0.0467-0.1617 0.0881-0.2467 0.12334-0.085 0.0352-0.17205 0.0653-0.26119 0.0891-0.0891 0.0249-0.17931 0.0446-0.27053 0.0571-0.0912 0.0134-0.18242 0.0187-0.27467 0.0187h-0.0166-51.744z" fill-rule="evenodd" fill="#e72512"/>
   <path id="path7852-99" d="m617.22 618.15v39.849h39.848v-39.849h-39.848z" fill="#fff"/>
  </g>
 </g>
</svg>
