<svg
   xmlns="http://www.w3.org/2000/svg"
   xmlns:xlink="http://www.w3.org/1999/xlink"  
   version="1.1"
   width="60"
   height="60">
  <symbol id="notice_e5_13" width="60" height="60">
    <path d="m 29.96875,8.40625 c -0.07278,0.00205 -0.147,0.019975 -0.21875,0.03125 -0.07175,0.011275 -0.14905,0.042 -0.21875,0.0625 -0.0697,0.0205 -0.152125,0.032775 -0.21875,0.0625 -0.0656,0.029725 -0.126,0.0548 -0.1875,0.09375 -0.05023,0.029725 -0.07785,0.057875 -0.125,0.09375 -0.04612,0.035875 -0.114225,0.084 -0.15625,0.125 -0.0051,0.0041 -0.02613,0.02715 -0.03125,0.03125 L 8.90625,28.8125 8.875,28.84375 c -0.050225,0.05228 -0.1131999,0.12805 -0.15625,0.1875 -0.04305,0.05842 -0.0589,0.12395 -0.09375,0.1875 -0.03485,0.06355 -0.068125,0.11985 -0.09375,0.1875 -0.02665,0.06765 -0.0461,0.148025 -0.0625,0.21875 -0.017425,0.07072 -0.02305,0.147 -0.03125,0.21875 -0.00718,0.07175 -0.034325,0.114725 -0.03125,0.1875 0.00103,0.07175 0.019975,0.147 0.03125,0.21875 0.011275,0.07175 0.00972,0.150075 0.03125,0.21875 0.0205,0.0697 0.064025,0.15315 0.09375,0.21875 0.0287,0.06662 0.055825,0.124975 0.09375,0.1875 0.029725,0.05023 0.0589,0.07785 0.09375,0.125 0.035875,0.04612 0.084,0.114225 0.125,0.15625 L 8.90625,31.1875 28.8125,51.09375 28.84375,51.125 c 0.05228,0.05022 0.129075,0.1132 0.1875,0.15625 0.05842,0.04203 0.122925,0.05992 0.1875,0.09375 0.06253,0.03587 0.11985,0.06813 0.1875,0.09375 0.06765,0.02562 0.148025,0.0461 0.21875,0.0625 0.07072,0.0164 0.11575,0.02408 0.1875,0.03125 0.07278,0.0082 0.145975,0.0333 0.21875,0.03125 0.07278,-0.001 0.147,-0.01998 0.21875,-0.03125 0.07175,-0.01127 0.14905,-0.01075 0.21875,-0.03125 0.0697,-0.0205 0.152125,-0.06403 0.21875,-0.09375 0.0656,-0.02972 0.126,-0.05582 0.1875,-0.09375 0.05023,-0.03075 0.07785,-0.05788 0.125,-0.09375 0.04612,-0.03587 0.114225,-0.084 0.15625,-0.125 0.0051,-0.0041 0.02613,-0.02613 0.03125,-0.03125 L 51.09375,31.1875 c 0.0051,-0.0062 0.02613,-0.02613 0.03125,-0.03125 0.05022,-0.05228 0.08195,-0.129075 0.125,-0.1875 0.04305,-0.05842 0.09015,-0.12395 0.125,-0.1875 0.03485,-0.06355 0.06813,-0.11985 0.09375,-0.1875 0.02665,-0.06765 0.0461,-0.148025 0.0625,-0.21875 0.01743,-0.0697 0.02408,-0.11575 0.03125,-0.1875 0.0082,-0.07278 0.03433,-0.147 0.03125,-0.21875 -0.001,-0.07278 -0.01998,-0.148025 -0.03125,-0.21875 -0.01127,-0.07175 -0.04098,-0.14905 -0.0625,-0.21875 -0.01947,-0.0697 -0.03278,-0.152125 -0.0625,-0.21875 -0.0287,-0.06662 -0.05582,-0.126 -0.09375,-0.1875 C 51.313,29.074775 51.285875,29.046125 51.25,29 51.21515,28.953875 51.166,28.885775 51.125,28.84375 L 51.09375,28.8125 31.1875,8.90625 31.15625,8.875 31.125,8.875 C 31.072725,8.8247749 31.027175,8.7920251 30.96875,8.75 30.910325,8.7069499 30.845825,8.6588251 30.78125,8.625 30.7177,8.5891249 30.6614,8.5568751 30.59375,8.53125 30.5261,8.5045999 30.445725,8.48515 30.375,8.46875 30.304275,8.451325 30.228,8.4457 30.15625,8.4375 30.083475,8.430325 30.041525,8.4042 29.96875,8.40625 z m -6.65625,17.9375 c 0.02358,-0.0041 0.07017,0.001 0.09375,0 l 12.1875,0 c 0.0205,0 0.04303,-0.0021 0.0625,0 0.01947,0.0031 0.04405,-0.0051 0.0625,0 0.02358,0.0062 0.03995,0.02305 0.0625,0.03125 0.02255,0.0082 0.04098,0.01895 0.0625,0.03125 0.02152,0.01128 0.04303,0.01793 0.0625,0.03125 0.01947,0.01435 0.04507,0.04508 0.0625,0.0625 0.01743,0.0164 0.01588,0.01178 0.03125,0.03125 0.01537,0.01845 0.0502,0.04097 0.0625,0.0625 0.01333,0.0205 0.021,0.03995 0.03125,0.0625 0.0092,0.02153 0.02408,0.0712 0.03125,0.09375 0.0061,0.02358 -0.0041,0.03892 0,0.0625 0.0031,0.0246 0,0.0379 0,0.0625 0.001,0.02358 0.002,0.03892 0,0.0625 -0.002,0.0246 0.0061,0.07017 0,0.09375 -0.0051,0.02358 -0.02305,0.03995 -0.03125,0.0625 -0.0092,0.02255 -0.01998,0.042 -0.03125,0.0625 L 29.96875,37.6875 c -0.0092,0.0164 -0.01997,0.04713 -0.03125,0.0625 -0.0123,0.01537 -0.01793,0.0169 -0.03125,0.03125 -0.01742,0.01743 -0.04405,0.04713 -0.0625,0.0625 -0.01845,0.01537 -0.042,0.01792 -0.0625,0.03125 -0.0205,0.0123 -0.04097,0.021 -0.0625,0.03125 -0.02255,0.0092 -0.03995,0.0251 -0.0625,0.03125 -0.02358,0.0072 -0.03892,0.02715 -0.0625,0.03125 -0.0246,0.0041 -0.06915,0 -0.09375,0 -0.02358,0.001 -0.03892,0.002 -0.0625,0 -0.0246,-0.0031 -0.03892,-0.02613 -0.0625,-0.03125 -0.02358,-0.0061 -0.03995,0.0092 -0.0625,0 -0.02255,-0.0082 -0.07222,-0.01895 -0.09375,-0.03125 -0.0205,-0.01127 -0.04303,-0.04815 -0.0625,-0.0625 C 29.13575,37.8294 29.1414,37.8289 29.125,37.8125 29.10655,37.7961 29.077875,37.76845 29.0625,37.75 29.047125,37.73155 29.04355,37.708 29.03125,37.6875 L 22.9375,27.15625 c -0.01025,-0.0164 -0.02407,-0.04405 -0.03125,-0.0625 -0.0082,-0.01845 -0.02613,-0.01178 -0.03125,-0.03125 -0.0072,-0.02255 0.0041,-0.06915 0,-0.09375 -0.0041,-0.02358 -0.03125,-0.0379 -0.03125,-0.0625 -0.001,-0.02358 -0.0021,-0.03892 0,-0.0625 0.0031,-0.0246 0.02613,-0.07017 0.03125,-0.09375 0.0062,-0.02358 0.02305,-0.03995 0.03125,-0.0625 0.0092,-0.02153 -0.01128,-0.04097 0,-0.0625 0.01128,-0.0205 0.04815,-0.042 0.0625,-0.0625 0.01435,-0.01947 0.01383,-0.04508 0.03125,-0.0625 0.0164,-0.01742 0.04405,-0.01588 0.0625,-0.03125 0.01947,-0.01537 0.042,-0.0502 0.0625,-0.0625 0.0205,-0.01332 0.04097,-0.021 0.0625,-0.03125 0.02255,-0.0092 0.03892,0.0072 0.0625,0 0.02358,-0.0062 0.0379,-0.02818 0.0625,-0.03125 z" />
  </symbol>
  <use xlink:href="#notice_e5_13" x="0" y="0" />
</svg>
