<svg
   xmlns="http://www.w3.org/2000/svg"
   xmlns:xlink="http://www.w3.org/1999/xlink"  
   version="1.1"
   width="60"
   height="60">
  <symbol id="notice_b5" width="60" height="60">
    <path d="m 39.361058,34.199942 0.033,0 c 0.184,-10e-4 0.368,-0.014 0.55,-0.039 0.182,-0.024 0.362,-0.062 0.539,-0.112 0.178,-0.046 0.352,-0.105 0.522,-0.176 0.169,-0.071 0.334,-0.154 0.492,-0.248 0.159,-0.092 0.312,-0.194 0.458,-0.306 0.146,-0.112 0.283,-0.234 0.413,-0.364 0.131,-0.13 0.253,-0.267 0.365,-0.413 0.112,-0.146 0.214,-0.299 0.305,-0.458 0.093,-0.158 0.175,-0.323 0.246,-0.492 0.071,-0.17 0.131,-0.344 0.178,-0.522 0.051,-0.177 0.089,-0.357 0.114,-0.54 0.026,-0.181 0.038,-0.365 0.037,-0.549 l 0,-0.066 c -0.001,-0.184 -0.014,-0.367 -0.039,-0.549 -0.024,-0.183 -0.062,-0.363 -0.112,-0.54 -0.046,-0.178 -0.105,-0.352 -0.176,-0.522 -0.071,-0.169 -0.154,-0.333 -0.248,-0.492 -0.092,-0.159 -0.194,-0.312 -0.306,-0.458 -0.112,-0.146 -0.234,-0.283 -0.364,-0.413 -0.129,-0.13 -0.267,-0.252 -0.413,-0.364 -0.146,-0.112 -0.299,-0.214 -0.458,-0.306 -0.159,-0.093 -0.323,-0.175 -0.492,-0.246 -0.17,-0.071 -0.344,-0.13 -0.522,-0.178 -0.177,-0.051 -0.357,-0.089 -0.54,-0.114 -0.181,-0.026 -0.365,-0.038 -0.549,-0.037 l -18.775,0 c -0.184,0.001 -0.367,0.014 -0.549,0.039 -0.182,0.024 -0.363,0.062 -0.54,0.112 -0.178,0.046 -0.352,0.105 -0.521,0.176 -0.17,0.072 -0.334,0.154 -0.492,0.248 -0.16,0.092 -0.313,0.194 -0.459,0.306 -0.145,0.112 -0.283,0.234 -0.412,0.364 -0.131,0.13 -0.253,0.267 -0.365,0.413 -0.112,0.146 -0.214,0.299 -0.305,0.458 -0.094,0.159 -0.176,0.323 -0.247,0.493 -0.071,0.169 -0.13,0.344 -0.178,0.521 -0.05,0.177 -0.088,0.358 -0.114,0.54 -0.026,0.182 -0.038,0.365 -0.037,0.549 l 0,0.066 c 10e-4,0.184 0.014,0.368 0.039,0.55 0.025,0.182 0.062,0.362 0.112,0.539 0.046,0.178 0.105,0.352 0.177,0.522 0.071,0.169 0.154,0.334 0.248,0.492 0.091,0.159 0.193,0.312 0.305,0.458 0.112,0.146 0.234,0.283 0.365,0.413 0.129,0.131 0.267,0.253 0.412,0.365 0.146,0.112 0.299,0.214 0.459,0.305 0.158,0.093 0.323,0.175 0.492,0.246 0.17,0.071 0.344,0.131 0.521,0.178 0.178,0.051 0.358,0.089 0.54,0.114 0.182,0.026 0.365,0.038 0.549,0.037 l 18.742,0 z"/>
  </symbol>
  <use xlink:href="#notice_b5" x="0" y="0" />
</svg>
