<svg
   xmlns="http://www.w3.org/2000/svg"
   xmlns:xlink="http://www.w3.org/1999/xlink"  
   version="1.1"
   width="60"
   height="60">
  <symbol id="notice_e5_10" width="60" height="60">
    <path d="M 8.9375,11.7935 8.90625,11.82475 29.96875,48.231 51.0625,11.7935 l -42.125,0 z M 24,16.9185 c 0.02148,-0.0051 0.03999,0.0031 0.0625,0 0.02251,-0.0031 0.03999,0 0.0625,0 l 11.5,0 c 0.01841,0 0.01386,-0.002 0.03125,0 0.01944,0.002 0.04409,-0.0041 0.0625,0 0.02148,0.0051 0.04204,0.02307 0.0625,0.03125 0.02148,0.0072 0.04306,-0.0092 0.0625,0 0.02046,0.0092 0.04409,0.02 0.0625,0.03125 0.01841,0.01228 0.04511,0.04818 0.0625,0.0625 0.01637,0.0133 0.01693,0.0159 0.03125,0.03125 0.01432,0.01535 0.02,0.04511 0.03125,0.0625 0.01228,0.01637 0.02204,0.01283 0.03125,0.03125 0.0092,0.01842 0.02511,0.04306 0.03125,0.0625 0.0061,0.01944 0.02716,0.04306 0.03125,0.0625 0.0031,0.01944 0,0.04306 0,0.0625 10e-4,0.02046 0.002,0.04204 0,0.0625 -0.002,0.01944 -0.02613,0.04306 -0.03125,0.0625 -0.0061,0.01944 0.0082,0.01283 0,0.03125 -0.0082,0.01842 -0.02102,0.04511 -0.03125,0.0625 l -5.75,8.6875 0,0.03125 c -0.0092,0.0133 -0.02,0.01795 -0.03125,0.03125 -0.01125,0.01228 -0.01897,0.02 -0.03125,0.03125 -0.01535,0.01535 -0.04511,0.01897 -0.0625,0.03125 -0.01739,0.01228 -0.01181,0.02102 -0.03125,0.03125 -0.01944,0.01023 -0.04204,0.02307 -0.0625,0.03125 -0.02046,0.0082 -0.03999,0.02614 -0.0625,0.03125 -0.02148,0.0061 -0.07124,-0.0031 -0.09375,0 -0.02251,0.0041 -0.03999,0.03023 -0.0625,0.03125 -0.02251,0 -0.03999,-0.0292 -0.0625,-0.03125 -0.02353,-0.002 -0.04102,0.0041 -0.0625,0 -0.02251,-0.0051 -0.04102,0.0072 -0.0625,0 -0.02148,-0.0061 -0.04306,-0.02204 -0.0625,-0.03125 -0.02046,-0.0092 -0.04408,-0.02 -0.0625,-0.03125 C 29.54408,26.40725 29.51637,26.40157 29.5,26.38725 29.48363,26.37395 29.48205,26.3401 29.46875,26.32475 29.4534,26.3094 29.44978,26.31089 29.4375,26.2935 l -0.03125,-0.03125 -5.71875,-8.6875 c -0.0092,-0.01432 -0.02409,-0.0159 -0.03125,-0.03125 -0.0072,-0.01432 -0.02614,-0.04613 -0.03125,-0.0625 -0.0061,-0.01842 0.0041,-0.04204 0,-0.0625 -0.0031,-0.01944 0.001,-0.01181 0,-0.03125 0,-0.01944 -0.002,-0.04306 0,-0.0625 0.002,-0.02046 -0.0051,-0.04306 0,-0.0625 0.0051,-0.01944 0.02307,-0.04306 0.03125,-0.0625 0.0082,-0.01842 0.02,-0.04511 0.03125,-0.0625 0.01023,-0.01739 0.01795,-0.01488 0.03125,-0.03125 0.0133,-0.01637 0.0159,-0.04818 0.03125,-0.0625 0.01535,-0.01432 0.04511,-0.01897 0.0625,-0.03125 0.01739,-0.01228 0.04204,-0.02102 0.0625,-0.03125 0.01842,-0.01125 0.04204,-0.02307 0.0625,-0.03125 0.02148,-0.0082 0.04102,-0.02511 0.0625,-0.03125 z m 0.0625,11.03125 c 0.02251,-0.0031 0.03999,0 0.0625,0 l 11.5,0 c 0.01841,0 0.01386,-0.002 0.03125,0 0.01944,0.002 0.04409,0.02716 0.0625,0.03125 0.02148,0.0051 0.04204,-0.0082 0.0625,0 0.02148,0.0072 0.04306,0.02204 0.0625,0.03125 0.02046,0.0092 0.04409,0.02 0.0625,0.03125 0.01841,0.01228 0.04511,0.01693 0.0625,0.03125 0.01637,0.0133 0.01693,0.04715 0.03125,0.0625 0.01432,0.01535 0.02,0.01386 0.03125,0.03125 0.01228,0.01637 0.02204,0.04408 0.03125,0.0625 0.0092,0.01842 0.02511,0.04306 0.03125,0.0625 0.0061,0.01944 0.02716,0.01181 0.03125,0.03125 0.0031,0.01944 0,0.04306 0,0.0625 10e-4,0.02046 0.002,0.04204 0,0.0625 -0.002,0.01944 -0.02613,0.04306 -0.03125,0.0625 -0.0061,0.01944 0.0082,0.04408 0,0.0625 -0.0082,0.01842 -0.02102,0.04511 -0.03125,0.0625 l -5.75,8.6875 c -0.0092,0.0133 -0.02,0.01795 -0.03125,0.03125 -0.01125,0.01228 -0.01897,0.05125 -0.03125,0.0625 -0.01535,0.01535 -0.04511,0.01897 -0.0625,0.03125 -0.01739,0.01228 -0.01181,0.02102 -0.03125,0.03125 -0.01944,0.01023 -0.04204,0.02307 -0.0625,0.03125 -0.02046,0.0082 -0.03999,-0.0051 -0.0625,0 -0.02148,0.0061 -0.07124,0.02818 -0.09375,0.03125 -0.02251,0.0041 -0.03999,-0.001 -0.0625,0 -0.02251,0 -0.03999,0.002 -0.0625,0 -0.02353,-0.002 -0.04102,0.0041 -0.0625,0 C 29.72749,37.5384 29.70898,37.51941 29.6875,37.51225 29.66602,37.50615 29.64444,37.49021 29.625,37.481 29.60454,37.4718 29.58092,37.461 29.5625,37.44975 29.54408,37.4385 29.51637,37.43282 29.5,37.4185 29.48363,37.4052 29.48205,37.4026 29.46875,37.38725 29.4534,37.3719 29.44978,37.34214 29.4375,37.32475 l -0.03125,0 -5.71875,-8.6875 c -0.0092,-0.01432 -0.02409,-0.04715 -0.03125,-0.0625 -0.0072,-0.01432 -0.02614,-0.01488 -0.03125,-0.03125 -0.0061,-0.01842 0.0041,-0.04204 0,-0.0625 -0.0031,-0.01944 0.001,-0.04306 0,-0.0625 0,-0.01944 -0.002,-0.04306 0,-0.0625 0.002,-0.02046 -0.0051,-0.04306 0,-0.0625 0.0051,-0.01944 0.02307,-0.04306 0.03125,-0.0625 0.0082,-0.01842 0.02,-0.01386 0.03125,-0.03125 0.01023,-0.01739 0.01795,-0.04613 0.03125,-0.0625 0.0133,-0.01637 0.0159,-0.01693 0.03125,-0.03125 0.01535,-0.01432 0.04511,-0.05022 0.0625,-0.0625 0.01739,-0.01228 0.04204,-0.02102 0.0625,-0.03125 0.01842,-0.01125 0.04204,-0.02307 0.0625,-0.03125 0.02148,-0.0082 0.04102,0.0061 0.0625,0 0.02148,-0.0051 0.03999,-0.02818 0.0625,-0.03125 z" />
  </symbol>
  <use xlink:href="#notice_e5_10" x="0" y="0" />
</svg>
