<?xml version="1.0" encoding="UTF-8" standalone="no"?>
<!-- Created with Inkscape (http://www.inkscape.org/) -->
<svg id="svg2" xmlns:rdf="http://www.w3.org/1999/02/22-rdf-syntax-ns#" xmlns="http://www.w3.org/2000/svg" height="60" width="60" version="1.1" xmlns:cc="http://creativecommons.org/ns#" xmlns:dc="http://purl.org/dc/elements/1.1/">
 <metadata id="metadata7">
  <rdf:RDF>
   <cc:Work rdf:about="">
    <dc:format>image/svg+xml</dc:format>
    <dc:type rdf:resource="http://purl.org/dc/dcmitype/StillImage"/>
    <dc:title/>
   </cc:Work>
  </rdf:RDF>
 </metadata>
 <g id="layer20" transform="translate(0,-60)">
  <g id="g7021" transform="matrix(.97035 0 0 .97035 -28.221 31.779)">
   <g id="layer1-33" transform="translate(160 247.64)">
    <g id="g2916" transform="matrix(.84346 0 0 .84345 -15.654 -29.375)">
     <path id="path20230" stroke-linejoin="bevel" d="m-130.71-152.27h61.417 0.0175 0.01875c0.20125-0.001 0.4025-0.015 0.60125-0.0425 0.2-0.0275 0.3975-0.0675 0.59125-0.1225 0.195-0.0513 0.385-0.115 0.57125-0.19375 0.18625-0.0775 0.36625-0.16875 0.53875-0.27125 0.175-0.1 0.3425-0.2125 0.5025-0.335 0.15875-0.1225 0.31-0.25625 0.45125-0.39875 0.14375-0.14125 0.2775-0.2925 0.4-0.4525 0.1225-0.15875 0.235-0.3275 0.335-0.50125 0.10125-0.17375 0.19125-0.35375 0.26875-0.54 0.0775-0.185 0.1425-0.37625 0.195-0.57 0.055-0.195 0.0975-0.3925 0.125-0.5925 0.02875-0.19875 0.04125-0.4 0.04-0.6v-61.491c-0.0012-0.20125-0.015-0.40125-0.0425-0.60125-0.02625-0.19875-0.0675-0.39625-0.1225-0.59-0.05-0.195-0.115-0.38625-0.1925-0.57125-0.07875-0.18625-0.16875-0.36625-0.27125-0.54-0.10125-0.17375-0.2125-0.3425-0.335-0.50125-0.1225-0.16-0.25625-0.31125-0.4-0.4525-0.14125-0.1425-0.2925-0.27625-0.45125-0.39875-0.16-0.12375-0.3275-0.235-0.5025-0.335-0.1725-0.1025-0.35375-0.1925-0.53875-0.27-0.18625-0.0775-0.3775-0.1425-0.57125-0.195-0.19375-0.055-0.39125-0.0962-0.59125-0.125-0.19875-0.0275-0.4-0.0413-0.60125-0.04h-61.49c-0.20125 0.001-0.4025 0.015-0.60125 0.0425-0.2 0.0275-0.3975 0.0687-0.59125 0.1225-0.195 0.0512-0.38625 0.115-0.57125 0.19375-0.18625 0.0775-0.36625 0.16875-0.53875 0.27125-0.175 0.1-0.3425 0.21125-0.5025 0.335-0.15875 0.1225-0.31 0.25625-0.45125 0.39875-0.14375 0.14125-0.2775 0.2925-0.4 0.4525-0.1225 0.15875-0.235 0.3275-0.33375 0.50125-0.1025 0.17375-0.1925 0.35375-0.27 0.54-0.0775 0.185-0.14375 0.37625-0.19625 0.57125-0.0537 0.19375-0.0962 0.39125-0.12375 0.59-0.0288 0.2-0.0412 0.4-0.04 0.60125v0.0188l-0.001 0.0187v61.416l0.001 0.0187v0.0188c0.001 0.20125 0.015 0.40125 0.0412 0.60125 0.0275 0.19875 0.0688 0.39625 0.1225 0.59125 0.0513 0.19375 0.11625 0.385 0.19375 0.57125 0.0787 0.185 0.16875 0.365 0.2725 0.53875 0.1 0.17375 0.21125 0.34125 0.33375 0.50125s0.25625 0.31125 0.4 0.4525c0.14125 0.1425 0.2925 0.27625 0.45125 0.39875 0.16 0.12375 0.3275 0.235 0.5025 0.335 0.1725 0.1025 0.35375 0.1925 0.53875 0.27 0.18625 0.0775 0.37625 0.1425 0.57125 0.195 0.19375 0.055 0.39125 0.0962 0.59125 0.125 0.19875 0.0275 0.4 0.0412 0.60125 0.04h0.0188 0.0175z" stroke="#231f20" stroke-miterlimit="22.926" stroke-width=".27825" fill="none"/>
     <path id="path20234" stroke-linejoin="bevel" d="m-130.71-152.2h-0.0362c-0.205-0.001-0.40875-0.0163-0.61125-0.0425-0.2025-0.0275-0.4025-0.07-0.59875-0.125-0.1975-0.0513-0.39125-0.11625-0.58-0.19625-0.18875-0.0787-0.37125-0.17125-0.54625-0.275-0.1775-0.1025-0.3475-0.215-0.51-0.34-0.16125-0.12375-0.315-0.26-0.45875-0.405-0.145-0.14375-0.28-0.29625-0.405-0.45875-0.125-0.16125-0.2375-0.33125-0.33875-0.50875-0.10375-0.17625-0.195-0.35875-0.27375-0.5475-0.0788-0.18875-0.145-0.38125-0.1975-0.57875-0.0563-0.1975-0.0987-0.3975-0.1275-0.6s-0.0425-0.40625-0.04-0.61v-61.491c0.001-0.20375 0.015-0.4075 0.0425-0.61s0.0687-0.4025 0.125-0.6c0.05-0.1975 0.11625-0.39125 0.195-0.57875 0.08-0.18875 0.17125-0.37125 0.27625-0.5475 0.10125-0.17625 0.215-0.34625 0.33875-0.50875 0.125-0.16125 0.26-0.315 0.405-0.45875 0.14375-0.145 0.2975-0.28125 0.45875-0.40625 0.1625-0.12375 0.3325-0.23625 0.51-0.33875 0.175-0.10375 0.3575-0.195 0.54625-0.27375 0.18875-0.0788 0.3825-0.145 0.58-0.1975 0.19625-0.0563 0.39625-0.0975 0.6-0.12625 0.20125-0.0288 0.405-0.0425 0.61-0.0413h61.491c0.20375 0.001 0.4075 0.0163 0.61 0.0438 0.20125 0.0262 0.4025 0.0687 0.59875 0.12375 0.1975 0.0512 0.39125 0.1175 0.58 0.19625 0.18875 0.0787 0.37125 0.17125 0.54625 0.275 0.1775 0.1025 0.3475 0.215 0.50875 0.34 0.1625 0.125 0.31625 0.26 0.46 0.405 0.145 0.14375 0.28 0.2975 0.405 0.45875 0.125 0.1625 0.2375 0.33125 0.33875 0.50875 0.10375 0.17625 0.195 0.35875 0.27375 0.5475s0.145 0.38125 0.1975 0.57875c0.05625 0.1975 0.09875 0.3975 0.1275 0.6 0.0275 0.2025 0.04125 0.40625 0.04 0.61v61.491c-0.0012 0.20375-0.015 0.4075-0.0425 0.61s-0.06875 0.4025-0.125 0.6c-0.05125 0.1975-0.11625 0.39125-0.19625 0.58-0.07875 0.1875-0.17125 0.37-0.275 0.54625-0.10125 0.1775-0.215 0.3475-0.33875 0.50875-0.125 0.1625-0.26 0.315-0.405 0.45875-0.14375 0.145-0.2975 0.28125-0.46 0.405-0.16125 0.125-0.33125 0.23875-0.50875 0.34-0.17625 0.1025-0.3575 0.195-0.54625 0.27375-0.18875 0.0788-0.3825 0.145-0.58 0.1975-0.19625 0.0562-0.3975 0.0975-0.6 0.12625-0.20125 0.0288-0.405 0.0425-0.60875 0.0412h-61.455z" fill-rule="evenodd" stroke="#000" stroke-miterlimit="22.926" stroke-width="2.4436" fill="#fff"/>
     <path id="path20238" d="m-130.28-154.44h60.591c0.12697-0.00098 0.25148-0.01 0.37598-0.0271 0.12574-0.016 0.24901-0.0419 0.36982-0.0764 0.12204-0.0308 0.24162-0.0715 0.35749-0.12081 0.11588-0.0481 0.22806-0.10478 0.33654-0.17012 0.10971-0.0628 0.2145-0.13191 0.31435-0.20834 0.09985-0.0777 0.19477-0.16025 0.28353-0.25025 0.08876-0.0888 0.17258-0.18244 0.24901-0.2823 0.07643-0.0999 0.1467-0.20464 0.20833-0.31435 0.0641-0.10848 0.12081-0.22066 0.17012-0.33654 0.04808-0.11711 0.08876-0.23546 0.12081-0.3575 0.03452-0.12081 0.0604-0.24409 0.07766-0.36983 0.01849-0.12451 0.02712-0.25025 0.02589-0.37599v-60.616c-0.0012-0.12574-0.0099-0.25025-0.02589-0.37599-0.01726-0.12451-0.04315-0.24778-0.07766-0.36859-0.03082-0.12205-0.0715-0.24162-0.12081-0.3575s-0.10478-0.2293-0.17012-0.33655c-0.06164-0.10971-0.1319-0.21449-0.20833-0.31435-0.07643-0.0999-0.16026-0.19477-0.24901-0.28353-0.08876-0.0888-0.18368-0.17259-0.28353-0.24902-0.09985-0.0764-0.20463-0.1467-0.31435-0.20957-0.10848-0.0628-0.22066-0.11958-0.33654-0.16889-0.11588-0.048-0.23545-0.0888-0.35749-0.12204-0.12081-0.0332-0.24408-0.0592-0.36982-0.0776-0.12451-0.0173-0.24901-0.0259-0.37598-0.0247h-60.614c-0.12574 0.00099-0.25148 0.01-0.37598 0.0259-0.12574 0.0173-0.24901 0.0431-0.36982 0.0764-0.12204 0.032-0.24162 0.0728-0.3575 0.12204-0.11587 0.0481-0.22805 0.10479-0.33653 0.16889-0.10972 0.0628-0.2145 0.13314-0.31435 0.20957-0.0999 0.0764-0.19477 0.16026-0.2823 0.24902-0.09 0.0888-0.17381 0.18368-0.25024 0.28353-0.0764 0.0999-0.1467 0.20464-0.20957 0.31435-0.0628 0.10849-0.11957 0.22067-0.16765 0.33655-0.0493 0.11588-0.09 0.23545-0.12328 0.3575-0.0332 0.12081-0.0605 0.24408-0.0777 0.36982-0.0173 0.12451-0.0258 0.24902-0.0246 0.37476v60.616c0 0.12574 0.01 0.25148 0.0258 0.37599 0.0172 0.12574 0.0432 0.24902 0.0764 0.36983 0.032 0.12204 0.0727 0.24162 0.12204 0.3575 0.048 0.11587 0.10478 0.22806 0.16888 0.33654 0.0628 0.10971 0.13314 0.2145 0.20957 0.31435 0.0777 0.0999 0.16025 0.19354 0.25024 0.2823 0.0876 0.0899 0.18245 0.17382 0.2823 0.25025 0.0999 0.0764 0.20463 0.1467 0.31435 0.20834 0.10848 0.0641 0.22066 0.12081 0.33653 0.16889 0.11588 0.0493 0.23546 0.09 0.3575 0.12204 0.12081 0.0345 0.24408 0.0605 0.36982 0.0789 0.12451 0.0173 0.25025 0.0247 0.37598 0.0247h0.0222z" fill-rule="evenodd" fill="#e72512"/>
     <path id="path20242" d="m-83.536-164.02-40.085-40.085v40.085h40.085" fill-rule="evenodd" fill="#fff"/>
     <path id="path20246" d="m-76.379-171.17v-40.085h-40.085l40.085 40.085" fill-rule="evenodd" fill="#fff"/>
     <path id="path20250" d="m-94.596-192.61c0.0075-0.009 0.015-0.0163 0.02375-0.025 0.0075-0.007 0.015-0.0162 0.02375-0.0238 0.04625-0.0475 0.0975-0.09 0.15-0.13 0.05375-0.04 0.10875-0.0762 0.1675-0.1075 0.0575-0.0325 0.1175-0.0613 0.17875-0.0863 0.0625-0.025 0.125-0.045 0.19-0.06 0.06375-0.0175 0.12875-0.03 0.195-0.0375 0.06625-0.007 0.1325-0.0112 0.19875-0.01 0.06625 0.001 0.1325 0.005 0.1975 0.015 0.06625 0.01 0.13125 0.0238 0.195 0.0425 0.06375 0.0175 0.12625 0.04 0.1875 0.065 0.06125 0.0262 0.12 0.0575 0.1775 0.0912 0.05625 0.0338 0.11125 0.0713 0.16375 0.1125s0.10125 0.085 0.1475 0.13375c0.04625 0.0463 0.09 0.0975 0.12875 0.15 0.04 0.0538 0.07625 0.10875 0.10875 0.1675 0.0325 0.0575 0.0625 0.1175 0.0875 0.17875 0.025 0.0613 0.045 0.125 0.05875 0.19 0.015 0.06 0.025 0.1225 0.03125 0.185 0.0063 0.0625 0.01125 0.125 0.01625 0.18875v0.02c-0.0012 0.0662-0.0062 0.1325-0.01625 0.1975-0.0087 0.0662-0.0225 0.13125-0.04125 0.195-0.0175 0.0637-0.03875 0.12625-0.065 0.1875-0.02625 0.0613-0.0575 0.12-0.09125 0.17625-0.03375 0.0575-0.07125 0.1125-0.1125 0.165-0.04125 0.0513-0.08625 0.10125-0.13375 0.1475-0.04625 0.0463-0.0975 0.09-0.15 0.12875-0.05375 0.04-0.11 0.0763-0.1675 0.1075-0.0575 0.0337-0.1175 0.0613-0.17875 0.0862-0.0625 0.025-0.125 0.045-0.19 0.0613-0.06375 0.0175-0.12875 0.03-0.195 0.0375-0.06625 0.009-0.1325 0.0112-0.19875 0.009-0.01 0-0.02125 0-0.03125-0.001l-0.03125-0.001-1.3588 1.74h9.7112c0.03625 0 0.0725 0.004 0.10875 0.009s0.0725 0.0137 0.1075 0.0237c0.03625 0.01 0.0725 0.0225 0.1075 0.0375 0.03375 0.015 0.0675 0.0325 0.1 0.0525 0.03375 0.0188 0.065 0.04 0.09375 0.0637 0.03 0.0238 0.05875 0.05 0.08375 0.0763 0.0275 0.0275 0.0525 0.0563 0.075 0.0863 0.0225 0.0312 0.0425 0.0625 0.06125 0.0962 0.01875 0.0325 0.035 0.0675 0.04875 0.1025s0.025 0.0712 0.035 0.1075c0.0088 0.0375 0.01625 0.075 0.02 0.1125 0.005 0.0375 0.0063 0.075 0.0063 0.11375-0.0012 0.0375-0.0038 0.075-0.0087 0.1125-0.005 0.0375-0.01375 0.075-0.025 0.11125l-0.0025 0.0112-0.0037 0.01-2.1712 6.9462-0.0063 0.02c-0.0075 0.0238-0.01625 0.0463-0.02625 0.0688s-0.02125 0.045-0.0325 0.0675c-0.0175 0.0325-0.0375 0.065-0.06 0.0962-0.0225 0.03-0.0475 0.06-0.07375 0.0863-0.025 0.0288-0.05375 0.0537-0.0825 0.0775-0.03 0.025-0.06125 0.0463-0.0925 0.065-0.0325 0.0213-0.06625 0.0387-0.10125 0.0538-0.035 0.015-0.07 0.0288-0.10625 0.0387-0.03625 0.0112-0.07375 0.02-0.11125 0.0263-0.0375 0.006-0.075 0.009-0.11375 0.01h-0.01125-14.314l-2.6288 3.365v2.105l-4.05 5.17-0.006 0.009c-0.002 0.002-0.005 0.005-0.008 0.009-0.0237 0.0288-0.05 0.0563-0.0775 0.0825-0.0288 0.0263-0.0575 0.05-0.0887 0.0712-0.0312 0.0225-0.0625 0.0425-0.0963 0.06-0.0337 0.0175-0.0687 0.0337-0.10375 0.0463-0.0363 0.0137-0.0725 0.025-0.10875 0.0325-0.0375 0.009-0.075 0.015-0.1125 0.0187-0.0375 0.004-0.075 0.005-0.11375 0.004-0.0375-0.002-0.075-0.006-0.1125-0.0125-0.0375-0.006-0.075-0.015-0.11125-0.0263-0.0362-0.0113-0.0713-0.0238-0.10625-0.04-0.0275-0.0125-0.055-0.0262-0.0812-0.0425-0.0263-0.015-0.0512-0.0325-0.0763-0.0513l-0.0162-0.0125-2.05-1.6038-0.009-0.008-0.009-0.006c-0.03-0.0238-0.0575-0.05-0.0838-0.0775-0.025-0.0288-0.0487-0.0575-0.0712-0.0887s-0.0425-0.0625-0.06-0.0963c-0.0175-0.0337-0.0337-0.0687-0.0463-0.10375-0.0138-0.0362-0.025-0.0725-0.0325-0.10875-0.009-0.0375-0.015-0.075-0.0187-0.1125-0.004-0.0375-0.005-0.0762-0.004-0.11375 0.001-0.0375 0.006-0.075 0.0125-0.1125 0.006-0.0375 0.015-0.075 0.025-0.11 0.0113-0.0375 0.025-0.0725 0.0412-0.1075 0.0125-0.0275 0.0263-0.055 0.0425-0.0825 0.0162-0.0263 0.0337-0.0525 0.0525-0.0762l0.0125-0.0163 4.2112-5.3588h1.6388l2.0362-2.605h-7.82c-0.0363-0.001-0.0713-0.004-0.10625-0.009-0.035-0.005-0.0688-0.0125-0.10375-0.0225-0.0362-0.01-0.0725-0.0213-0.1075-0.0362-0.035-0.015-0.0687-0.0325-0.10125-0.0513-0.0325-0.0188-0.065-0.04-0.095-0.0637-0.0288-0.0225-0.0575-0.0488-0.0838-0.0762l-0.007-0.008-0.009-0.009-6.5112-6.9462-0.015-0.015c-0.0175-0.0188-0.0337-0.0388-0.0487-0.06-0.0162-0.0213-0.03-0.0425-0.0438-0.065-0.02-0.0312-0.0375-0.065-0.0525-0.1-0.0162-0.035-0.0287-0.07-0.04-0.10625-0.01-0.0362-0.0187-0.0737-0.025-0.11125-0.006-0.0375-0.009-0.075-0.01-0.11375-0.001-0.0375 0-0.075 0.004-0.1125 0.004-0.0387 0.0112-0.075 0.02-0.1125 0.009-0.0362 0.02-0.0738 0.0337-0.10875 0.0125-0.035 0.0288-0.07 0.0475-0.1025 0.0175-0.0337 0.0375-0.0662 0.06-0.0962 0.0225-0.0312 0.0475-0.06 0.0738-0.0875 0.025-0.0275 0.0537-0.0538 0.0825-0.0775 0.03-0.0238 0.0613-0.045 0.0925-0.065 0.0325-0.02 0.0662-0.0375 0.10125-0.0525 0.0338-0.0163 0.07-0.0288 0.10625-0.04 0.0363-0.0113 0.0738-0.0188 0.11125-0.025 0.0375-0.006 0.075-0.01 0.1125-0.01h0.0112l0.0113-0.001 6.9625 0.001c-0.025-0.23625-0.0475-0.47125-0.0675-0.7075s-0.0312-0.4725-0.035-0.70875c-0.004-0.38 0.0212-0.75875 0.075-1.135 0.055-0.375 0.1375-0.74625 0.25-1.1088 0.10875-0.3625 0.24125-0.71625 0.39625-1.0612 0.15625-0.34625 0.3225-0.68625 0.49875-1.0212 0.0725-0.14 0.14625-0.27875 0.22375-0.415 0.0763-0.13625 0.16-0.27 0.24875-0.39875 0.0688-0.0988 0.1425-0.195 0.22-0.2875 0.0788-0.0925 0.16125-0.18125 0.24875-0.265 0.11125-0.10875 0.22875-0.21 0.35375-0.3025 0.12375-0.0937 0.255-0.1775 0.39-0.25375 0.135-0.0775 0.275-0.14625 0.41875-0.20375 0.145-0.0588 0.2925-0.10625 0.445-0.14 0.20625-0.0512 0.41625-0.0775 0.62875-0.08 0.21125-0.002 0.42125 0.02 0.6275 0.0675 0.1325 0.0275 0.2625 0.065 0.39 0.10875 0.1275 0.0438 0.255 0.0913 0.38 0.14125l10.984 3.475" fill-rule="evenodd"/>
     <path id="path20254" d="m-101.95-199.82v0.02 0.02c-0.003 0.1325-0.0125 0.265-0.03 0.39625-0.0188 0.13125-0.0475 0.26125-0.0838 0.38875-0.035 0.1275-0.0787 0.25375-0.13125 0.375-0.0525 0.1225-0.11375 0.24-0.1825 0.35375-0.0675 0.115-0.1425 0.22375-0.22375 0.32875-0.0825 0.10375-0.17125 0.2025-0.2675 0.29375-0.0937 0.0937-0.195 0.18-0.30125 0.26-0.10625 0.0788-0.2175 0.15125-0.33375 0.215-0.11625 0.0662-0.23625 0.12375-0.35875 0.1725-0.12375 0.0487-0.25 0.09-0.37875 0.12125-0.12875 0.0337-0.25875 0.0587-0.39 0.0737-0.1325 0.0162-0.265 0.0225-0.3975 0.02-0.1325-0.001-0.265-0.0113-0.39625-0.03-0.13125-0.0188-0.26125-0.0475-0.38875-0.0838-0.12875-0.035-0.25375-0.0788-0.375-0.13125-0.1225-0.0525-0.24125-0.11375-0.35375-0.1825-0.115-0.0662-0.225-0.14125-0.32875-0.22375s-0.2025-0.17125-0.295-0.2675c-0.0925-0.0937-0.18-0.195-0.25875-0.30125-0.08-0.10625-0.15125-0.2175-0.215-0.33375-0.0662-0.115-0.12375-0.235-0.1725-0.35875-0.05-0.12375-0.09-0.25-0.1225-0.37875-0.0325-0.1275-0.0575-0.25875-0.0737-0.39-0.015-0.1325-0.0213-0.265-0.0187-0.3975 0-0.1325 0.01-0.265 0.0287-0.39625 0.02-0.13125 0.0475-0.26125 0.085-0.38875 0.035-0.1275 0.0787-0.25375 0.13125-0.375 0.0525-0.1225 0.11375-0.24 0.18125-0.35375 0.0675-0.115 0.1425-0.22375 0.225-0.32875 0.0812-0.10375 0.17125-0.2025 0.26625-0.295s0.195-0.17875 0.30125-0.25875 0.21875-0.15125 0.335-0.215c0.115-0.0662 0.235-0.12375 0.35875-0.1725 0.1225-0.05 0.24875-0.09 0.3775-0.12125 0.12875-0.0337 0.25875-0.0588 0.39125-0.0737 0.13125-0.0163 0.265-0.0225 0.39625-0.02 0.13375 0.001 0.26625 0.0112 0.3975 0.03s0.26125 0.0475 0.38875 0.0838c0.1275 0.035 0.2525 0.0787 0.375 0.13125 0.12125 0.0525 0.24 0.11375 0.35375 0.1825 0.11375 0.0662 0.22375 0.14125 0.3275 0.22375 0.105 0.0825 0.20375 0.17125 0.295 0.26625 0.0937 0.095 0.18 0.19625 0.26 0.3025 0.0787 0.10625 0.15125 0.2175 0.215 0.33375 0.065 0.115 0.1225 0.235 0.1725 0.35875 0.0487 0.1225 0.09 0.24875 0.12125 0.3775 0.0325 0.1225 0.0562 0.24625 0.0725 0.37125 0.015 0.125 0.0225 0.25125 0.0213 0.3775" fill-rule="evenodd"/>
     <path id="path20258" d="m-95.939-191.89-8.7125-0.9475h-0.46c-0.002 0.0662-0.006 0.13375-0.009 0.2-0.004 0.0675-0.008 0.135-0.0113 0.20125-0.0263 0.42125-0.0763 0.84-0.15 1.255-0.0737 0.41375-0.17125 0.82375-0.2925 1.2275-0.05 0.1725-0.1025 0.34375-0.1575 0.51375-0.0563 0.17-0.1125 0.34-0.17125 0.50875h7.8075l2.195-2.8075-0.01125-0.0362c-0.0038-0.0125-0.0075-0.025-0.01-0.0375-0.0037-0.0125-0.0062-0.0263-0.0087-0.0388l-0.0087-0.0387" fill-rule="evenodd" fill="#c00"/>
    </g>
   </g>
  </g>
 </g>
</svg>
