<svg
   xmlns="http://www.w3.org/2000/svg"
   xmlns:xlink="http://www.w3.org/1999/xlink"  
   version="1.1"
   width="60"
   height="60">
  <symbol id="notice_sailboat" width="60" height="60">
    <path d="m 49.642005,42.8008 h -39.145 -0.0175 c -0.0287,10e-4 -0.0587,0.004 -0.0875,0.009 -0.0288,0.004 -0.0588,0.0112 -0.0863,0.0188 -0.0288,0.009 -0.0562,0.0187 -0.0825,0.0312 -0.0275,0.0112 -0.0537,0.025 -0.0787,0.0412 -0.025,0.015 -0.05,0.0312 -0.0725,0.05 -0.0225,0.0187 -0.0437,0.0387 -0.0637,0.06 -0.0212,0.0213 -0.04,0.045 -0.0575,0.0688 -0.0175,0.0237 -0.0325,0.0487 -0.0463,0.0737 -0.015,0.0263 -0.0263,0.0538 -0.0375,0.08 -0.0112,0.0287 -0.02,0.0562 -0.0262,0.085 -0.006,0.0288 -0.0125,0.0575 -0.015,0.0875 -0.003,0.0288 -0.004,0.0588 -0.003,0.0875 0,0.03 0.003,0.0588 0.008,0.0875 0.004,0.03 0.0113,0.0588 0.02,0.0862 0.004,0.0175 0.01,0.0325 0.015,0.0488 0.006,0.0163 0.0138,0.0325 0.0213,0.0475 l 0.006,0.0137 3.375,6.75 0.008,0.015 c 0.015,0.0263 0.03,0.0513 0.0462,0.0763 0.0175,0.0238 0.0363,0.0462 0.0563,0.0675 0.02,0.0225 0.0413,0.0425 0.065,0.0613 0.0225,0.0175 0.0463,0.035 0.0713,0.0513 0.025,0.015 0.0512,0.0288 0.0775,0.0412 0.0275,0.0125 0.055,0.0225 0.0837,0.0312 0.0275,0.009 0.0563,0.015 0.085,0.02 0.0287,0.005 0.0587,0.007 0.0887,0.009 h 0.006 29.038 0.0175 c 0.03,-10e-4 0.05875,-0.004 0.0875,-0.007 0.03,-0.005 0.05875,-0.0112 0.08625,-0.02 0.02875,-0.008 0.05625,-0.0188 0.08375,-0.03 0.02625,-0.0125 0.0525,-0.0263 0.0775,-0.0425 0.02,-0.0112 0.04,-0.025 0.06,-0.04 0.01875,-0.0137 0.03625,-0.03 0.05375,-0.0463 l 0.01125,-0.0112 6.7488,-6.7488 0.0125,-0.0125 c 0.02,-0.0213 0.03875,-0.0438 0.05625,-0.0675 0.0175,-0.0238 0.0325,-0.05 0.04625,-0.075 0.015,-0.0263 0.0275,-0.0525 0.03875,-0.08 0.01,-0.0288 0.01875,-0.0563 0.025,-0.085 0.0075,-0.0288 0.0125,-0.0575 0.015,-0.0875 0.0038,-0.0288 0.005,-0.0588 0.0038,-0.0875 -0.0012,-0.03 -0.0038,-0.0588 -0.0087,-0.0875 -0.0038,-0.03 -0.01,-0.0588 -0.01875,-0.0863 -0.0087,-0.0288 -0.01875,-0.0563 -0.03,-0.0838 -0.0125,-0.0263 -0.02625,-0.0525 -0.0425,-0.0775 -0.015,-0.025 -0.03125,-0.05 -0.05,-0.0725 -0.01875,-0.0225 -0.03875,-0.045 -0.06,-0.065 -0.02125,-0.02 -0.045,-0.0387 -0.0675,-0.0563 -0.025,-0.0175 -0.05,-0.0325 -0.075,-0.0475 -0.02625,-0.0138 -0.0525,-0.0263 -0.08,-0.0362 -0.0275,-0.01 -0.05625,-0.02 -0.085,-0.0263 -0.02375,-0.006 -0.04625,-0.01 -0.07,-0.0138 -0.02375,-0.002 -0.0475,-0.005 -0.07125,-0.005 h -0.01625 z"/>
    <path d="M 34.097005,38.7508 V 9.7118 c -0.0013,-0.03 -0.0038,-0.0588 -0.0075,-0.0888 -0.005,-0.0287 -0.01125,-0.0575 -0.02,-0.0862 -0.0087,-0.0275 -0.01875,-0.055 -0.03,-0.0825 -0.0125,-0.0263 -0.02625,-0.0525 -0.04125,-0.0775 -0.01625,-0.025 -0.0325,-0.05 -0.05125,-0.0725 -0.01875,-0.0225 -0.03875,-0.045 -0.06,-0.065 -0.02125,-0.02 -0.04375,-0.0387 -0.0675,-0.0563 -0.025,-0.0175 -0.04875,-0.0325 -0.075,-0.0475 -0.02625,-0.0138 -0.0525,-0.0263 -0.08,-0.0362 -0.0275,-0.0113 -0.05625,-0.02 -0.085,-0.0263 -0.02875,-0.007 -0.0575,-0.0125 -0.08625,-0.015 -0.03,-0.004 -0.05875,-0.005 -0.08875,-0.004 -0.02875,10e-4 -0.05875,0.004 -0.0875,0.007 -0.02875,0.005 -0.05875,0.0112 -0.08625,0.02 -0.02875,0.009 -0.05625,0.0187 -0.0825,0.03 -0.0275,0.0125 -0.05375,0.0263 -0.07875,0.0425 -0.025,0.015 -0.04875,0.0312 -0.0725,0.05 -0.0225,0.0187 -0.04375,0.0387 -0.06375,0.06 l -0.01625,0.0175 c -0.005,0.005 -0.0088,0.01 -0.01375,0.0163 l -0.01,0.0125 -22.9480002,29.021 -0.01,0.0137 c -0.0188,0.0238 -0.035,0.0488 -0.0487,0.0738 -0.015,0.0262 -0.0275,0.0525 -0.0388,0.08 -0.0113,0.0275 -0.02,0.055 -0.0275,0.0838 -0.007,0.0288 -0.0125,0.0575 -0.015,0.0875 -0.004,0.0287 -0.006,0.0587 -0.005,0.0875 0,0.03 0.002,0.0588 0.006,0.0888 0.004,0.0288 0.01,0.0575 0.0175,0.0863 0.009,0.0275 0.0187,0.0563 0.03,0.0825 0.0112,0.0275 0.025,0.0537 0.04,0.0787 0.015,0.0263 0.0312,0.05 0.05,0.0737 0.0188,0.0225 0.0375,0.045 0.0588,0.065 0.0212,0.0212 0.0438,0.04 0.0675,0.0575 0.0238,0.0175 0.0475,0.0337 0.0738,0.0488 0.025,0.0137 0.0525,0.0263 0.08,0.0375 0.0275,0.0113 0.055,0.02 0.0838,0.0275 0.0287,0.007 0.0575,0.0125 0.0862,0.0163 0.0113,10e-4 0.0212,0.002 0.0325,0.004 0.0113,0 0.0213,0 0.0325,0.001 h 22.98 c 0.03,-0.001 0.05875,-0.004 0.0875,-0.008 0.03,-0.005 0.05875,-0.0125 0.08625,-0.02 0.02875,-0.009 0.05625,-0.0188 0.08375,-0.03 0.02625,-0.0125 0.0525,-0.0263 0.0775,-0.0425 0.025,-0.015 0.05,-0.0312 0.0725,-0.05 0.0225,-0.0188 0.045,-0.0387 0.065,-0.06 0.02,-0.0213 0.03875,-0.045 0.05625,-0.0675 0.0175,-0.025 0.0325,-0.05 0.0475,-0.0763 0.01375,-0.025 0.02625,-0.0525 0.03625,-0.08 0.01125,-0.0263 0.02,-0.055 0.02625,-0.0838 0.0063,-0.0238 0.01,-0.0462 0.01375,-0.07 0.0025,-0.0238 0.005,-0.0475 0.005,-0.0712 v -0.0163 z"/>
  </symbol>
  <use xlink:href="#notice_sailboat" x="0" y="0" />
</svg>
