<?xml version="1.0" encoding="UTF-8" standalone="no"?>
<!-- Created with Inkscape (http://www.inkscape.org/) -->
<svg id="svg2" xmlns:rdf="http://www.w3.org/1999/02/22-rdf-syntax-ns#" xmlns="http://www.w3.org/2000/svg" height="60" width="60" version="1.1" xmlns:cc="http://creativecommons.org/ns#" xmlns:dc="http://purl.org/dc/elements/1.1/">
 <metadata id="metadata7">
  <rdf:RDF>
   <cc:Work rdf:about="">
    <dc:format>image/svg+xml</dc:format>
    <dc:type rdf:resource="http://purl.org/dc/dcmitype/StillImage"/>
    <dc:title/>
   </cc:Work>
  </rdf:RDF>
 </metadata>
 <g id="layer33" transform="translate(0,-60)">
  <g id="g9953" transform="matrix(.97035 0 0 .97035 -28.221 31.779)">
   <g id="layer1-22-97" transform="matrix(0 1 -1 0 592.36 -290)">
    <g id="g4037-3-1" transform="matrix(0 -.84345 -.84345 0 799.02 827.57)">
     <g id="g3565-1-9" transform="matrix(1.25 0 0 -1.25 385.37 563.54)" stroke="#000" fill="#fff">
      <path id="path3567-4-7" stroke-linejoin="bevel" d="m0 0v49.89 0.013 0.013c-0.001 0.145-0.011 0.289-0.031 0.432-0.019 0.144-0.048 0.286-0.088 0.425-0.036 0.14-0.083 0.278-0.139 0.411s-0.121 0.263-0.195 0.387c-0.072 0.126-0.153 0.246-0.241 0.361-0.088 0.114-0.184 0.223-0.287 0.325-0.101 0.103-0.21 0.199-0.324 0.287-0.115 0.088-0.236 0.169-0.361 0.24-0.125 0.074-0.254 0.138-0.388 0.194-0.133 0.056-0.271 0.103-0.41 0.14-0.14 0.04-0.282 0.07-0.425 0.09-0.144 0.02-0.288 0.03-0.432 0.029h-49.943c-0.144-0.001-0.289-0.011-0.432-0.03-0.144-0.019-0.285-0.049-0.425-0.089-0.14-0.036-0.277-0.082-0.411-0.138-0.133-0.057-0.262-0.122-0.387-0.196-0.125-0.071-0.246-0.152-0.361-0.24-0.114-0.088-0.223-0.184-0.324-0.287-0.104-0.102-0.199-0.211-0.288-0.325-0.088-0.115-0.168-0.235-0.24-0.361-0.073-0.125-0.138-0.254-0.194-0.387-0.056-0.134-0.103-0.271-0.14-0.411-0.04-0.139-0.07-0.281-0.09-0.425-0.02-0.143-0.03-0.288-0.029-0.432v-49.942c0.001-0.145 0.011-0.289 0.03-0.433 0.02-0.143 0.049-0.285 0.089-0.424 0.036-0.14 0.082-0.278 0.138-0.411 0.057-0.134 0.122-0.263 0.196-0.387 0.072-0.126 0.152-0.247 0.24-0.361 0.089-0.115 0.184-0.223 0.288-0.325 0.101-0.103 0.21-0.199 0.324-0.287 0.115-0.088 0.236-0.169 0.361-0.241 0.125-0.073 0.255-0.138 0.388-0.194 0.133-0.055 0.27-0.102 0.41-0.14 0.14-0.039 0.282-0.069 0.425-0.09 0.143-0.02 0.288-0.03 0.432-0.028h0.013l0.014-0.001h49.889l0.013 0.001h0.014c0.144 0 0.288 0.01 0.432 0.03 0.143 0.019 0.285 0.049 0.425 0.088 0.14 0.036 0.277 0.083 0.41 0.139 0.134 0.056 0.263 0.121 0.388 0.195 0.125 0.072 0.246 0.153 0.36 0.241 0.115 0.088 0.224 0.184 0.325 0.287 0.103 0.102 0.199 0.21 0.288 0.325 0.088 0.114 0.168 0.235 0.24 0.361 0.073 0.124 0.138 0.254 0.194 0.387 0.056 0.134 0.103 0.271 0.14 0.411 0.04 0.139 0.07 0.281 0.09 0.425 0.02 0.143 0.03 0.287 0.029 0.432v0.013 0.013z" stroke-miterlimit="22.926" stroke-width=".22260"/>
      <g id="g3569-1-1" transform="translate(.054)" stroke-width="1.0306">
       <path id="path3571-4-5" stroke-linejoin="bevel" d="m0 0v-0.027c-0.001-0.147-0.011-0.293-0.031-0.439-0.019-0.146-0.05-0.29-0.089-0.431-0.037-0.143-0.085-0.282-0.142-0.418-0.057-0.135-0.123-0.267-0.198-0.393-0.073-0.128-0.155-0.25-0.245-0.367-0.089-0.117-0.187-0.227-0.291-0.33-0.104-0.105-0.214-0.203-0.33-0.292-0.117-0.09-0.239-0.171-0.367-0.244-0.127-0.075-0.258-0.141-0.394-0.198-0.136-0.056-0.275-0.104-0.417-0.142-0.142-0.04-0.286-0.071-0.432-0.091-0.145-0.021-0.292-0.03-0.439-0.03h-49.943c-0.147 0.001-0.294 0.012-0.439 0.031-0.146 0.02-0.29 0.05-0.432 0.09-0.142 0.037-0.282 0.084-0.418 0.141-0.135 0.057-0.266 0.123-0.392 0.199-0.128 0.073-0.251 0.155-0.367 0.244-0.117 0.09-0.227 0.187-0.331 0.292-0.104 0.103-0.202 0.213-0.291 0.33-0.09 0.116-0.172 0.239-0.245 0.367-0.074 0.126-0.14 0.258-0.197 0.393-0.057 0.136-0.104 0.275-0.142 0.418-0.041 0.141-0.071 0.285-0.092 0.431-0.02 0.146-0.03 0.293-0.029 0.439v49.943c0.001 0.147 0.011 0.294 0.031 0.44 0.02 0.145 0.05 0.289 0.09 0.431 0.036 0.143 0.084 0.282 0.141 0.418 0.057 0.135 0.123 0.267 0.198 0.393 0.073 0.128 0.155 0.25 0.245 0.367 0.089 0.116 0.187 0.227 0.291 0.33 0.104 0.105 0.214 0.202 0.331 0.292 0.116 0.09 0.239 0.171 0.367 0.244 0.126 0.075 0.257 0.141 0.393 0.197 0.136 0.057 0.275 0.105 0.417 0.143 0.142 0.04 0.286 0.07 0.432 0.091 0.145 0.021 0.292 0.03 0.439 0.029h49.943c0.147-0.001 0.294-0.011 0.439-0.031 0.146-0.019 0.29-0.049 0.432-0.089 0.142-0.037 0.282-0.084 0.417-0.142 0.136-0.057 0.267-0.123 0.394-0.198 0.127-0.073 0.25-0.155 0.367-0.244 0.116-0.09 0.226-0.187 0.33-0.292 0.105-0.103 0.202-0.214 0.292-0.33 0.089-0.117 0.171-0.239 0.244-0.367 0.075-0.127 0.14-0.258 0.197-0.394 0.057-0.135 0.104-0.275 0.143-0.417s0.07-0.286 0.091-0.432c0.02-0.145 0.03-0.292 0.029-0.439v-49.916z" stroke="#000" stroke-miterlimit="22.926" stroke-width="1.9549" fill="#fff"/>
      </g>
     </g>
     <g id="g3573-16-9" fill="#039" transform="matrix(1.25 0 0 -1.25 382.4 563.54)">
      <path id="path3575-1-4" d="m0 0v-0.008c0-0.042-0.003-0.084-0.009-0.125-0.005-0.042-0.014-0.083-0.026-0.124-0.01-0.04-0.024-0.08-0.04-0.119-0.016-0.038-0.035-0.076-0.057-0.112-0.021-0.037-0.044-0.072-0.07-0.105-0.025-0.033-0.053-0.065-0.083-0.094-0.029-0.03-0.061-0.058-0.094-0.084-0.033-0.025-0.068-0.048-0.105-0.069-0.036-0.022-0.074-0.04-0.112-0.057-0.039-0.016-0.079-0.03-0.119-0.04-0.041-0.012-0.082-0.021-0.124-0.026-0.041-0.006-0.083-0.009-0.125-0.009h-0.008-49.89-0.007c-0.042 0-0.084 0.003-0.126 0.009-0.041 0.005-0.083 0.014-0.123 0.026-0.041 0.01-0.081 0.024-0.119 0.04-0.039 0.016-0.077 0.035-0.113 0.057-0.036 0.021-0.071 0.044-0.104 0.07-0.034 0.025-0.065 0.053-0.095 0.083-0.03 0.029-0.058 0.061-0.083 0.094-0.026 0.033-0.049 0.068-0.07 0.105-0.021 0.036-0.04 0.074-0.057 0.112-0.016 0.039-0.029 0.079-0.04 0.119-0.011 0.041-0.02 0.082-0.026 0.124-0.006 0.041-0.009 0.083-0.008 0.125v49.905c0 0.042 0.002 0.084 0.008 0.126 0.006 0.041 0.015 0.083 0.026 0.123 0.01 0.041 0.024 0.081 0.04 0.119 0.017 0.039 0.036 0.077 0.057 0.113s0.044 0.071 0.07 0.104c0.025 0.034 0.053 0.065 0.083 0.095s0.061 0.058 0.095 0.083c0.033 0.026 0.068 0.049 0.104 0.07s0.074 0.04 0.113 0.057c0.038 0.016 0.078 0.029 0.119 0.04 0.04 0.012 0.082 0.02 0.123 0.026 0.042 0.006 0.084 0.009 0.126 0.008h49.905c0.042 0 0.084-0.002 0.125-0.008 0.042-0.006 0.083-0.014 0.124-0.026 0.04-0.01 0.08-0.024 0.119-0.04 0.038-0.016 0.076-0.035 0.112-0.057 0.037-0.021 0.072-0.044 0.105-0.07 0.033-0.025 0.065-0.053 0.094-0.083 0.03-0.03 0.058-0.061 0.084-0.095 0.025-0.033 0.048-0.068 0.069-0.104 0.022-0.036 0.04-0.074 0.057-0.113 0.016-0.038 0.03-0.078 0.04-0.119 0.012-0.04 0.021-0.082 0.027-0.123 0.005-0.042 0.008-0.084 0.008-0.126v-0.007-49.89" fill-rule="evenodd" fill="#039"/>
     </g>
     <path id="path4079-0-9" d="m316.78 536.97h38.177v-10.05h-38.177v10.05z" fill="#fff"/>
     <path id="path4081-2-06" d="m350.26 530.2v4.2397h33.5v-4.2397h-33.5z" fill="#fff"/>
    </g>
   </g>
   <path id="path4079-0-4-71" d="m55.739 88.236v-30h8.4767v30h-8.4767z" fill="#fff"/>
  </g>
 </g>
</svg>
