<svg
   xmlns="http://www.w3.org/2000/svg"
   xmlns:xlink="http://www.w3.org/1999/xlink"  
   version="1.1"
   width="60"
   height="60">
  <symbol id="notice_b4a" width="60" height="60">
    <path d="m 16,9 -7,9 4.5,0 0,2 0,1.28125 1.0625,0.75 26.9375,19.25 0,8.71875 5,0 0,-10 0,-1.28125 -1.0625,-0.75 L 18.5,18.71875 18.5,18 23,18 16,9 z"/>
    <path d="m 41.5,9 0,5.28125 5,0 0,-5.28125 -5,0 z m 0,8.28125 0,1.375 -6.65625,4.25 2.6875,4.21875 7.8125,-5.03125 L 46.5,21.375 46.5,20 l 0,-2.71875 -5,0 z m -9.1875,7.25 -10.09375,6.5 2.71875,4.21875 10.09375,-6.5 -2.71875,-4.21875 z m -12.625,8.125 -5.03125,3.25 L 13.5,36.625 l 0,1.375 0,3 -4.5,0 7,9 7,-9 -4.5,0 0,-1.65625 3.90625,-2.5 -2.71875,-4.1875 z"/>
  </symbol>
  <use xlink:href="#notice_b4a" x="0" y="0" />
</svg>
