<?xml version="1.0" encoding="UTF-8" standalone="no"?>
<!-- Created with Inkscape (http://www.inkscape.org/) -->
<svg id="svg2" xmlns:rdf="http://www.w3.org/1999/02/22-rdf-syntax-ns#" xmlns="http://www.w3.org/2000/svg" height="60" width="60" version="1.1" xmlns:cc="http://creativecommons.org/ns#" xmlns:dc="http://purl.org/dc/elements/1.1/">
 <metadata id="metadata7">
  <rdf:RDF>
   <cc:Work rdf:about="">
    <dc:format>image/svg+xml</dc:format>
    <dc:type rdf:resource="http://purl.org/dc/dcmitype/StillImage"/>
    <dc:title/>
   </cc:Work>
  </rdf:RDF>
 </metadata>
 <g id="layer26" transform="translate(0,-60)">
  <g id="layer1-431" transform="matrix(.97035 0 0 .97035 -309.62 -426.58)">
   <g id="g3089" transform="matrix(.84345 0 0 .84345 54.792 83.341)">
    <g id="g3565" transform="matrix(0 1.25 1.25 0 318.82 567.73)" stroke="#000" fill="#fff">
     <path id="path3567" stroke-linejoin="bevel" d="m0 0v49.89 0.013 0.013c-0.001 0.145-0.011 0.289-0.031 0.432-0.019 0.144-0.048 0.286-0.088 0.425-0.036 0.14-0.083 0.278-0.139 0.411s-0.121 0.263-0.195 0.387c-0.072 0.126-0.153 0.246-0.241 0.361-0.088 0.114-0.184 0.223-0.287 0.325-0.101 0.103-0.21 0.199-0.324 0.287-0.115 0.088-0.236 0.169-0.361 0.24-0.125 0.074-0.254 0.138-0.388 0.194-0.133 0.056-0.271 0.103-0.41 0.14-0.14 0.04-0.282 0.07-0.425 0.09-0.144 0.02-0.288 0.03-0.432 0.029h-49.943c-0.144-0.001-0.289-0.011-0.432-0.03-0.144-0.019-0.285-0.049-0.425-0.089-0.14-0.036-0.277-0.082-0.411-0.138-0.133-0.057-0.262-0.122-0.387-0.196-0.125-0.071-0.246-0.152-0.361-0.24-0.114-0.088-0.223-0.184-0.324-0.287-0.104-0.102-0.199-0.211-0.288-0.325-0.088-0.115-0.168-0.235-0.24-0.361-0.073-0.125-0.138-0.254-0.194-0.387-0.056-0.134-0.103-0.271-0.14-0.411-0.04-0.139-0.07-0.281-0.09-0.425-0.02-0.143-0.03-0.288-0.029-0.432v-49.942c0.001-0.145 0.011-0.289 0.03-0.433 0.02-0.143 0.049-0.285 0.089-0.424 0.036-0.14 0.082-0.278 0.138-0.411 0.057-0.134 0.122-0.263 0.196-0.387 0.072-0.126 0.152-0.247 0.24-0.361 0.089-0.115 0.184-0.223 0.288-0.325 0.101-0.103 0.21-0.199 0.324-0.287 0.115-0.088 0.236-0.169 0.361-0.241 0.125-0.073 0.255-0.138 0.388-0.194 0.133-0.055 0.27-0.102 0.41-0.14 0.14-0.039 0.282-0.069 0.425-0.09 0.143-0.02 0.288-0.03 0.432-0.028h0.013l0.014-0.001h49.889l0.013 0.001h0.014c0.144 0 0.288 0.01 0.432 0.03 0.143 0.019 0.285 0.049 0.425 0.088 0.14 0.036 0.277 0.083 0.41 0.139 0.134 0.056 0.263 0.121 0.388 0.195 0.125 0.072 0.246 0.153 0.36 0.241 0.115 0.088 0.224 0.184 0.325 0.287 0.103 0.102 0.199 0.21 0.288 0.325 0.088 0.114 0.168 0.235 0.24 0.361 0.073 0.124 0.138 0.254 0.194 0.387 0.056 0.134 0.103 0.271 0.14 0.411 0.04 0.139 0.07 0.281 0.09 0.425 0.02 0.143 0.03 0.287 0.029 0.432v0.013 0.013z" stroke-miterlimit="22.926" stroke-width=".22260"/>
     <g id="g3569" transform="translate(.054)" stroke-width="1.0306">
      <path id="path3571" stroke-linejoin="bevel" d="m0 0v-0.027c-0.001-0.147-0.011-0.293-0.031-0.439-0.019-0.146-0.05-0.29-0.089-0.431-0.037-0.143-0.085-0.282-0.142-0.418-0.057-0.135-0.123-0.267-0.198-0.393-0.073-0.128-0.155-0.25-0.245-0.367-0.089-0.117-0.187-0.227-0.291-0.33-0.104-0.105-0.214-0.203-0.33-0.292-0.117-0.09-0.239-0.171-0.367-0.244-0.127-0.075-0.258-0.141-0.394-0.198-0.136-0.056-0.275-0.104-0.417-0.142-0.142-0.04-0.286-0.071-0.432-0.091-0.145-0.021-0.292-0.03-0.439-0.03h-49.943c-0.147 0.001-0.294 0.012-0.439 0.031-0.146 0.02-0.29 0.05-0.432 0.09-0.142 0.037-0.282 0.084-0.418 0.141-0.135 0.057-0.266 0.123-0.392 0.199-0.128 0.073-0.251 0.155-0.367 0.244-0.117 0.09-0.227 0.187-0.331 0.292-0.104 0.103-0.202 0.213-0.291 0.33-0.09 0.116-0.172 0.239-0.245 0.367-0.074 0.126-0.14 0.258-0.197 0.393-0.057 0.136-0.104 0.275-0.142 0.418-0.041 0.141-0.071 0.285-0.092 0.431-0.02 0.146-0.03 0.293-0.029 0.439v49.943c0.001 0.147 0.011 0.294 0.031 0.44 0.02 0.145 0.05 0.289 0.09 0.431 0.036 0.143 0.084 0.282 0.141 0.418 0.057 0.135 0.123 0.267 0.198 0.393 0.073 0.128 0.155 0.25 0.245 0.367 0.089 0.116 0.187 0.227 0.291 0.33 0.104 0.105 0.214 0.202 0.331 0.292 0.116 0.09 0.239 0.171 0.367 0.244 0.126 0.075 0.257 0.141 0.393 0.197 0.136 0.057 0.275 0.105 0.417 0.143 0.142 0.04 0.286 0.07 0.432 0.091 0.145 0.021 0.292 0.03 0.439 0.029h49.943c0.147-0.001 0.294-0.011 0.439-0.031 0.146-0.019 0.29-0.049 0.432-0.089 0.142-0.037 0.282-0.084 0.417-0.142 0.136-0.057 0.267-0.123 0.394-0.198 0.127-0.073 0.25-0.155 0.367-0.244 0.116-0.09 0.226-0.187 0.33-0.292 0.105-0.103 0.202-0.214 0.292-0.33 0.089-0.117 0.171-0.239 0.244-0.367 0.075-0.127 0.14-0.258 0.197-0.394 0.057-0.135 0.104-0.275 0.143-0.417s0.07-0.286 0.091-0.432c0.02-0.145 0.03-0.292 0.029-0.439v-49.916z" stroke="#000" stroke-miterlimit="22.926" stroke-width="1.9549" fill="#fff"/>
     </g>
    </g>
    <g id="g3573" fill="#039" transform="matrix(0 1.25 1.25 0 318.82 564.76)">
     <path id="path3575" d="m0 0v-0.008c0-0.042-0.003-0.084-0.009-0.125-0.005-0.042-0.014-0.083-0.026-0.124-0.01-0.04-0.024-0.08-0.04-0.119-0.016-0.038-0.035-0.076-0.057-0.112-0.021-0.037-0.044-0.072-0.07-0.105-0.025-0.033-0.053-0.065-0.083-0.094-0.029-0.03-0.061-0.058-0.094-0.084-0.033-0.025-0.068-0.048-0.105-0.069-0.036-0.022-0.074-0.04-0.112-0.057-0.039-0.016-0.079-0.03-0.119-0.04-0.041-0.012-0.082-0.021-0.124-0.026-0.041-0.006-0.083-0.009-0.125-0.009h-0.008-49.89-0.007c-0.042 0-0.084 0.003-0.126 0.009-0.041 0.005-0.083 0.014-0.123 0.026-0.041 0.01-0.081 0.024-0.119 0.04-0.039 0.016-0.077 0.035-0.113 0.057-0.036 0.021-0.071 0.044-0.104 0.07-0.034 0.025-0.065 0.053-0.095 0.083-0.03 0.029-0.058 0.061-0.083 0.094-0.026 0.033-0.049 0.068-0.07 0.105-0.021 0.036-0.04 0.074-0.057 0.112-0.016 0.039-0.029 0.079-0.04 0.119-0.011 0.041-0.02 0.082-0.026 0.124-0.006 0.041-0.009 0.083-0.008 0.125v49.905c0 0.042 0.002 0.084 0.008 0.126 0.006 0.041 0.015 0.083 0.026 0.123 0.01 0.041 0.024 0.081 0.04 0.119 0.017 0.039 0.036 0.077 0.057 0.113s0.044 0.071 0.07 0.104c0.025 0.034 0.053 0.065 0.083 0.095s0.061 0.058 0.095 0.083c0.033 0.026 0.068 0.049 0.104 0.07s0.074 0.04 0.113 0.057c0.038 0.016 0.078 0.029 0.119 0.04 0.04 0.012 0.082 0.02 0.123 0.026 0.042 0.006 0.084 0.009 0.126 0.008h49.905c0.042 0 0.084-0.002 0.125-0.008 0.042-0.006 0.083-0.014 0.124-0.026 0.04-0.01 0.08-0.024 0.119-0.04 0.038-0.016 0.076-0.035 0.112-0.057 0.037-0.021 0.072-0.044 0.105-0.07 0.033-0.025 0.065-0.053 0.094-0.083 0.03-0.03 0.058-0.061 0.084-0.095 0.025-0.033 0.048-0.068 0.069-0.104 0.022-0.036 0.04-0.074 0.057-0.113 0.016-0.038 0.03-0.078 0.04-0.119 0.012-0.04 0.021-0.082 0.027-0.123 0.005-0.042 0.008-0.084 0.008-0.126v-0.007-49.89" fill-rule="evenodd" fill="#039"/>
    </g>
    <g id="g3577" transform="matrix(0 1.25 1.25 0 366.12 517.97)">
     <path id="path3579" d="m0 0-0.026-0.025-0.027-0.025c-0.137-0.129-0.274-0.259-0.41-0.39-0.136-0.13-0.269-0.263-0.402-0.398-0.53-0.535-1.023-1.107-1.474-1.71-0.453-0.605-0.862-1.241-1.224-1.904-0.376-0.654-0.705-1.334-0.983-2.036-0.279-0.701-0.509-1.42-0.688-2.153-0.191-0.73-0.331-1.472-0.42-2.221-0.088-0.749-0.126-1.504-0.111-2.258 0.005-0.754 0.062-1.508 0.17-2.254 0.108-0.747 0.268-1.485 0.477-2.21 0.201-0.727 0.45-1.44 0.748-2.133s0.643-1.365 1.033-2.011c0.381-0.651 0.807-1.275 1.274-1.867s0.975-1.152 1.519-1.675c0.536-0.53 1.109-1.022 1.714-1.474 0.604-0.451 1.239-0.86 1.899-1.225 0.656-0.373 1.337-0.7 2.037-0.98 0.701-0.279 1.42-0.51 2.153-0.691 0.73-0.19 1.472-0.33 2.221-0.419s1.503-0.126 2.258-0.111c0.754 0.005 1.507 0.062 2.254 0.17s1.485 0.267 2.209 0.477c0.728 0.2 1.441 0.45 2.134 0.748s1.365 0.643 2.011 1.033c0.651 0.381 1.274 0.807 1.867 1.274 0.592 0.467 1.152 0.974 1.675 1.518 0.53 0.537 1.022 1.109 1.474 1.714 0.451 0.604 0.861 1.239 1.224 1.9 0.373 0.656 0.701 1.336 0.98 2.037s0.511 1.42 0.692 2.152c0.191 0.73 0.331 1.473 0.42 2.222 0.09 0.749 0.126 1.503 0.11 2.257-0.007 0.754-0.065 1.506-0.175 2.252-0.11 0.747-0.268 1.486-0.472 2.212-0.146 0.548-0.32 1.088-0.523 1.617-0.202 0.528-0.438 1.042-0.707 1.54-0.069 0.132-0.141 0.263-0.215 0.393s-0.148 0.259-0.223 0.388l3.277 1.89c0.023-0.038 0.046-0.076 0.068-0.114s0.044-0.076 0.066-0.115c0.456-0.797 0.856-1.626 1.197-2.478 0.342-0.855 0.623-1.733 0.84-2.628 0.237-0.888 0.409-1.793 0.516-2.707 0.107-0.913 0.151-1.832 0.13-2.751-0.006-0.92-0.076-1.838-0.208-2.748-0.131-0.91-0.325-1.809-0.581-2.693-0.243-0.886-0.547-1.755-0.91-2.6-0.363-0.844-0.784-1.663-1.259-2.45-0.465-0.794-0.984-1.554-1.554-2.276-0.569-0.722-1.187-1.404-1.85-2.041-0.654-0.646-1.352-1.246-2.089-1.796-0.736-0.551-1.51-1.049-2.315-1.493-0.8-0.455-1.629-0.854-2.483-1.194-0.854-0.341-1.73-0.623-2.623-0.843-0.89-0.232-1.794-0.403-2.707-0.511s-1.833-0.153-2.752-0.135c-0.92 0.006-1.837 0.075-2.747 0.207s-1.81 0.326-2.693 0.581c-0.887 0.244-1.755 0.549-2.6 0.912s-1.664 0.783-2.451 1.258c-0.793 0.465-1.553 0.984-2.275 1.554-0.722 0.569-1.404 1.187-2.042 1.85-0.646 0.654-1.246 1.352-1.796 2.089-0.55 0.736-1.049 1.51-1.493 2.315-0.454 0.8-0.853 1.629-1.194 2.483s-0.622 1.73-0.843 2.623c-0.232 0.889-0.403 1.794-0.511 2.707s-0.153 1.833-0.135 2.752c0.006 0.919 0.075 1.838 0.207 2.748s0.326 1.809 0.582 2.692c0.244 0.886 0.548 1.754 0.912 2.597 0.363 0.845 0.784 1.665 1.258 2.454 0.464 0.796 0.982 1.559 1.55 2.285 0.566 0.722 1.186 1.401 1.853 2.032 0.084 0.081 0.169 0.162 0.254 0.241 0.086 0.08 0.173 0.159 0.261 0.236l-2.973 1.645-0.011 0.007c-0.02 0.011-0.039 0.024-0.057 0.038-0.019 0.014-0.036 0.029-0.052 0.046-0.017 0.016-0.033 0.034-0.047 0.053-0.014 0.018-0.027 0.038-0.039 0.059-0.012 0.02-0.022 0.041-0.031 0.063s-0.017 0.044-0.023 0.067-0.011 0.046-0.014 0.069c-0.003 0.024-0.004 0.047-0.004 0.071 0 0.023 0.001 0.047 0.004 0.07s0.008 0.047 0.014 0.069c0.006 0.023 0.014 0.045 0.023 0.067s0.019 0.043 0.031 0.064c0.012 0.02 0.025 0.04 0.039 0.058 0.015 0.019 0.03 0.037 0.047 0.053 0.016 0.017 0.034 0.033 0.053 0.047s0.038 0.027 0.059 0.039c0.02 0.012 0.041 0.023 0.063 0.032s0.044 0.016 0.067 0.022l0.014 0.004 11.25 2.701-3.187-10.769-0.004-0.012c-0.006-0.018-0.013-0.036-0.02-0.054-0.008-0.017-0.017-0.034-0.027-0.05-0.011-0.021-0.024-0.041-0.038-0.06-0.015-0.018-0.03-0.036-0.047-0.053-0.017-0.016-0.035-0.032-0.053-0.046-0.019-0.015-0.038-0.028-0.059-0.039-0.02-0.012-0.041-0.023-0.063-0.032s-0.044-0.016-0.067-0.022c-0.023-0.007-0.046-0.011-0.069-0.015-0.024-0.002-0.047-0.004-0.071-0.004-0.023 0-0.047 0.001-0.07 0.004-0.024 0.004-0.047 0.008-0.07 0.014-0.022 0.006-0.045 0.014-0.067 0.023-0.021 0.009-0.042 0.019-0.063 0.031-0.02 0.012-0.04 0.025-0.059 0.039-0.018 0.015-0.036 0.03-0.053 0.047s-0.032 0.034-0.047 0.053c-0.014 0.019-0.027 0.038-0.039 0.059l-0.007 0.012-1.566 2.863" fill-rule="evenodd" fill="#fff"/>
    </g>
    <g id="g3581" transform="matrix(0 1.25 1.25 0 343.45 527.6)">
     <path id="path3583" d="m0 0c-0.011 0.007-0.022 0.014-0.033 0.022l-0.033 0.021c-0.117 0.08-0.229 0.166-0.335 0.26s-0.209 0.191-0.308 0.293c-0.2 0.2-0.389 0.411-0.566 0.632s-0.337 0.454-0.481 0.696c-0.148 0.241-0.278 0.493-0.389 0.753s-0.204 0.528-0.279 0.801c-0.078 0.273-0.138 0.549-0.178 0.83-0.041 0.279-0.063 0.562-0.065 0.845-0.005 0.282 0.009 0.565 0.042 0.846s0.086 0.559 0.157 0.833c0.068 0.275 0.155 0.544 0.26 0.807 0.104 0.263 0.227 0.518 0.367 0.764 0.137 0.248 0.29 0.486 0.459 0.713 0.17 0.226 0.354 0.441 0.553 0.642 0.196 0.204 0.406 0.395 0.628 0.569 0.222 0.176 0.456 0.336 0.701 0.478 0.242 0.147 0.494 0.276 0.754 0.388 0.259 0.112 0.527 0.205 0.799 0.28 0.272 0.079 0.549 0.139 0.829 0.179 0.28 0.041 0.562 0.062 0.845 0.064 0.283 0.006 0.566-0.008 0.847-0.042 0.281-0.033 0.559-0.085 0.833-0.157 0.275-0.068 0.544-0.154 0.807-0.259s0.518-0.228 0.764-0.368c0.248-0.136 0.486-0.29 0.712-0.459 0.227-0.169 0.442-0.354 0.643-0.553 0.204-0.196 0.395-0.406 0.57-0.628s0.335-0.456 0.477-0.7c0.146-0.242 0.275-0.494 0.387-0.754s0.205-0.527 0.281-0.8c0.08-0.272 0.14-0.549 0.182-0.829 0.041-0.28 0.062-0.562 0.061-0.845v-0.042-0.043h3.78c-0.001 0.09-0.002 0.179-0.003 0.269-0.002 0.089-0.004 0.179-0.008 0.268-0.014 0.336-0.047 0.67-0.098 1.002-0.052 0.332-0.121 0.661-0.207 0.986-0.108 0.435-0.246 0.862-0.411 1.278-0.165 0.417-0.36 0.821-0.581 1.21-0.216 0.392-0.458 0.77-0.727 1.128-0.268 0.359-0.56 0.699-0.875 1.018-0.311 0.323-0.643 0.624-0.995 0.901s-0.722 0.53-1.109 0.757c-0.383 0.231-0.782 0.436-1.194 0.613-0.411 0.177-0.834 0.325-1.266 0.444-0.43 0.124-0.869 0.219-1.312 0.283s-0.891 0.098-1.339 0.101c-0.447 0.009-0.895-0.013-1.34-0.066-0.445-0.052-0.886-0.135-1.319-0.249-0.435-0.107-0.862-0.244-1.278-0.41s-0.82-0.361-1.209-0.582c-0.393-0.216-0.769-0.46-1.129-0.727-0.358-0.268-0.698-0.561-1.017-0.875-0.323-0.311-0.624-0.643-0.902-0.995-0.277-0.352-0.53-0.722-0.756-1.108-0.232-0.384-0.437-0.783-0.614-1.194-0.176-0.412-0.325-0.835-0.443-1.267-0.125-0.431-0.22-0.869-0.284-1.312s-0.098-0.89-0.101-1.339c-0.008-0.447 0.014-0.895 0.066-1.34 0.053-0.445 0.136-0.885 0.249-1.319 0.107-0.435 0.244-0.862 0.41-1.278s0.36-0.82 0.582-1.209c0.217-0.392 0.461-0.769 0.73-1.128 0.268-0.358 0.56-0.698 0.873-1.018 0.077-0.081 0.156-0.161 0.236-0.239s0.162-0.155 0.246-0.229c0.049-0.044 0.099-0.087 0.149-0.13 0.05-0.042 0.101-0.085 0.151-0.127l-2.722-1.493-0.012-0.007c-0.021-0.012-0.04-0.025-0.059-0.039s-0.036-0.03-0.053-0.047c-0.017-0.016-0.032-0.034-0.047-0.053-0.014-0.019-0.027-0.038-0.039-0.059-0.012-0.02-0.022-0.041-0.031-0.063s-0.016-0.044-0.022-0.067-0.011-0.046-0.014-0.069c-0.003-0.024-0.005-0.047-0.005-0.071 0-0.023 0.002-0.047 0.005-0.07 0.003-0.024 0.008-0.047 0.014-0.07 0.006-0.022 0.013-0.045 0.022-0.067 0.009-0.021 0.02-0.042 0.032-0.063 0.011-0.02 0.025-0.04 0.039-0.059 0.014-0.018 0.03-0.036 0.047-0.052 0.016-0.017 0.034-0.033 0.053-0.047 0.018-0.014 0.038-0.027 0.059-0.039 0.016-0.01 0.033-0.018 0.05-0.026 0.018-0.008 0.036-0.015 0.054-0.02l0.012-0.004 10.769-3.188-2.701 11.251-0.004 0.013c-0.005 0.023-0.013 0.046-0.022 0.067-0.009 0.022-0.02 0.043-0.032 0.064-0.011 0.02-0.024 0.04-0.039 0.059-0.014 0.018-0.03 0.036-0.047 0.052-0.016 0.017-0.034 0.033-0.053 0.047-0.018 0.015-0.038 0.028-0.058 0.039-0.021 0.012-0.042 0.023-0.064 0.032-0.021 0.009-0.044 0.016-0.067 0.022-0.022 0.006-0.045 0.011-0.069 0.014-0.023 0.003-0.047 0.005-0.07 0.004-0.024 0.001-0.047-0.001-0.071-0.004-0.023-0.003-0.046-0.008-0.069-0.014s-0.045-0.013-0.067-0.022-0.043-0.02-0.063-0.032c-0.021-0.011-0.04-0.024-0.059-0.039-0.019-0.014-0.036-0.03-0.053-0.047-0.017-0.016-0.032-0.033-0.046-0.051s-0.027-0.037-0.038-0.058l-0.007-0.011-1.699-3.067" fill-rule="evenodd" fill="#fff"/>
    </g>
   </g>
  </g>
 </g>
</svg>
