<?xml version="1.0" encoding="UTF-8" standalone="no"?>
<svg id="svg2" xmlns:rdf="http://www.w3.org/1999/02/22-rdf-syntax-ns#" xmlns="http://www.w3.org/2000/svg" height="400" width="300" version="1.0" xmlns:cc="http://creativecommons.org/ns#" xmlns:dc="http://purl.org/dc/elements/1.1/">
 <metadata id="metadata2822">
  <rdf:RDF>
   <cc:Work rdf:about="">
    <dc:format>image/svg+xml</dc:format>
    <dc:type rdf:resource="http://purl.org/dc/dcmitype/StillImage"/>
    <dc:title/>
   </cc:Work>
  </rdf:RDF>
 </metadata>
 <g id="layer3" transform="translate(0,80)">
  <path id="path13269" d="m181.54 18.569-6.5312-2.0938-30.469 68.063-29.781 32.594h-7.7812l-0.125 5.6562h31.062c1.2873 5.533 6.2333 9.6562 12.156 9.6562 5.925 0 10.871-4.1205 12.156-9.6562h24.125v-5.6562h-7.7812l-2.4688-22.344 16.625-72.625-7.1562-2.2812-4.0312-1.3125zm-2.2812 6.4062 4.9688 1.7812-15.219 68.031 2.4688 22.344h-9.25c-1.2825-5.5396-6.2286-9.6875-12.156-9.6875-5.9258 0-10.872 4.1506-12.156 9.6875h-13.594l26.25-28.375 28.688-63.781zm-21.7 94.981c0 4.14-3.36 7.5-7.5 7.5s-7.5-3.36-7.5-7.5 3.36-7.5 7.5-7.5 7.5 3.36 7.5 7.5z" fill-rule="evenodd" fill="#000407"/>
  <path id="path3111" d="m125.31 196.5c0.1555-0.26031 5.9308-6.5618 12.834-14.003l12.551-13.53 14.256-31.689c7.8408-17.429 14.314-31.747 14.385-31.818 0.0708-0.0708 1.1546 0.21262 2.4084 0.62986l2.2797 0.75863-0.33529 1.4874c-0.18442 0.81808-3.6018 16.045-7.5943 33.838l-7.259 32.35 1.1061 10.43c0.60837 5.7364 1.1835 10.788 1.278 11.225 0.17131 0.79263 0.15558 0.79549-4.375 0.79549h-4.547l-0.39761-1.3258c-0.94285-3.144-4.0075-6.2329-7.4925-7.552-2.6546-1.0047-7.1496-0.81604-9.7227 0.4081-2.4877 1.1835-5.1627 3.968-6.1837 6.4368l-0.84071 2.0329h-6.3165c-5.1814 0-6.2657-0.085-6.0337-0.47329z" transform="translate(0,-80)" stroke-width="0" fill="#ffd400"/>
 </g>
</svg>
