<svg
  xmlns="http://www.w3.org/2000/svg"
  xmlns:xlink="http://www.w3.org/1999/xlink"  
  version="1.0"
  width="300"
  height="400">
  <symbol id="pillar" width="300" height="400">
    <path d="m 181.54,98.569 -6.5312,-2.0938 -30.469,68.063 -29.781,32.594 h -7.7812 l -0.125,5.6562 h 31.062 c 1.2873,5.533 6.2333,9.6562 12.156,9.6562 5.925,0 10.871,-4.1205 12.156,-9.6562 h 24.125 v -5.6562 h -7.7812 l -2.4688,-22.344 16.625,-72.625 -7.1562,-2.2812 -4.0312,-1.3125 z m -2.2812,6.4062 4.9688,1.7812 -15.219,68.031 2.4688,22.344 h -9.25 c -1.2825,-5.5396 -6.2286,-9.6875 -12.156,-9.6875 -5.9258,0 -10.872,4.1506 -12.156,9.6875 h -13.594 l 26.25,-28.375 28.688,-63.781 z m -21.7,94.981 c 0,4.14 -3.36,7.5 -7.5,7.5 -4.14,0 -7.5,-3.36 -7.5,-7.5 0,-4.14 3.36,-7.5 7.5,-7.5 4.14,0 7.5,3.36 7.5,7.5 z"/>
  </symbol>
  <use xlink:href="#pillar" x="0" y="0" />
</svg>
