<?xml version="1.0" encoding="UTF-8" standalone="no"?>
<svg id="svg2" xmlns:rdf="http://www.w3.org/1999/02/22-rdf-syntax-ns#" xmlns="http://www.w3.org/2000/svg" height="400" width="300" version="1.0" xmlns:cc="http://creativecommons.org/ns#" xmlns:dc="http://purl.org/dc/elements/1.1/">
 <metadata id="metadata2822">
  <rdf:RDF>
   <cc:Work rdf:about="">
    <dc:format>image/svg+xml</dc:format>
    <dc:type rdf:resource="http://purl.org/dc/dcmitype/StillImage"/>
    <dc:title/>
   </cc:Work>
  </rdf:RDF>
 </metadata>
 <g id="layer3" transform="translate(0,80)">
  <path id="path13269" d="m181.51 18.587-6.5312-2.0938-30.469 68.063-29.781 32.594h-7.7812l-0.125 5.6562h31.062c1.2873 5.533 6.2333 9.6562 12.156 9.6562 5.925 0 10.871-4.1205 12.156-9.6562h24.125v-5.6562h-7.7812l-2.4688-22.344 16.625-72.625-7.1562-2.2812-4.0312-1.3125zm-2.2812 6.4062 4.9688 1.7812-15.219 68.031 2.4688 22.344h-9.25c-1.2825-5.5396-6.2286-9.6875-12.156-9.6875-5.9258 0-10.872 4.1506-12.156 9.6875h-13.594l26.25-28.375 28.688-63.781zm-21.7 94.981c0 4.14-3.36 7.5-7.5 7.5s-7.5-3.36-7.5-7.5 3.36-7.5 7.5-7.5 7.5 3.36 7.5 7.5z" fill-rule="evenodd" fill="#000407"/>
  <path id="path3964" fill="#00d400" d="m125.59 116.2c0.28756-0.35728 6.0943-6.686 12.904-14.064l12.38-13.416 14.06-31.365c7.7303-17.251 14.194-31.52 14.363-31.709 0.29318-0.32743 3.5802 0.6711 4.2772 1.2993 0.17301 0.15593-3.0413 15.288-7.1428 33.626-4.1016 18.338-7.4574 33.952-7.4574 34.696 0 1.2232 1.5607 15.997 2.1086 19.96l0.22382 1.619h-4.5345-4.5345l-0.44937-1.4999c-0.71669-2.3921-3.0654-5.027-5.8045-6.5118-2.2698-1.2304-2.6748-1.3215-5.8667-1.3197-2.7035 0.002-3.8052 0.1756-5.2098 0.8232-2.6479 1.2209-5.0092 3.5955-6.1886 6.2235l-1.0253 2.2848h-6.311c-5.8978 0-6.2768-0.0425-5.7882-0.64961z"/>
 </g>
</svg>
