<?xml version="1.0" encoding="UTF-8" standalone="no"?>
<svg id="svg2" xmlns:rdf="http://www.w3.org/1999/02/22-rdf-syntax-ns#" xmlns="http://www.w3.org/2000/svg" height="400" width="300" version="1.0" xmlns:cc="http://creativecommons.org/ns#" xmlns:dc="http://purl.org/dc/elements/1.1/">
 <metadata id="metadata2822">
  <rdf:RDF>
   <cc:Work rdf:about="">
    <dc:format>image/svg+xml</dc:format>
    <dc:type rdf:resource="http://purl.org/dc/dcmitype/StillImage"/>
    <dc:title/>
   </cc:Work>
  </rdf:RDF>
 </metadata>
 <g id="g3660" transform="translate(0,80)">
  <path id="path3662" d="m181.55 18.619-6.5312-2.0938-30.469 68.063-29.781 32.594h-7.7812l-0.125 5.6562h31.062c1.2873 5.533 6.2333 9.6562 12.156 9.6562 5.925 0 10.871-4.1205 12.156-9.6562h24.125v-5.6562h-7.7812l-2.4688-22.344 16.625-72.625-7.1562-2.2812-4.0312-1.3125zm-2.2812 6.4062 4.9688 1.7812-15.219 68.031 2.4688 22.344h-9.25c-1.2825-5.5396-6.2286-9.6875-12.156-9.6875-5.9258 0-10.872 4.1506-12.156 9.6875h-13.594l26.25-28.375 28.688-63.781zm-21.7 94.981c0 4.14-3.36 7.5-7.5 7.5s-7.5-3.36-7.5-7.5 3.36-7.5 7.5-7.5 7.5 3.36 7.5 7.5z" fill-rule="evenodd" fill="#000204"/>
  <path id="path3664" d="m150.67 88.625 18.41 6.2197 0.12439-0.52868-18.348-6.2508-0.18659 0.55978z"/>
  <path id="path3666" d="m165.28 56.033 11.6 3.8873c-0.14141 0.29876-0.16166 0.36591-0.15549 0.59088l-11.693-3.9184 0.24879-0.55978z" fill="#000204"/>
  <path id="path4022" d="m160.04 91.086-8.9765-3.0564 0.8149-1.8287c4.4855-10.066 13.1-29.102 13.228-29.231 0.12447-0.12564 11.091 3.3409 11.404 3.6048 0.0591 0.0499-7.3687 33.455-7.4564 33.534-0.0205 0.0185-4.0768-1.3418-9.0138-3.0228z"/>
  <path id="path4024" fill="#ffd400" d="m171.01 57.855c-2.9857-1.0008-5.4527-1.8392-5.4822-1.8631-0.0506-0.041 13.644-30.588 13.78-30.736 0.0834-0.09118 4.6489 1.52 4.7289 1.6688 0.11957 0.2224-7.2352 32.66-7.4153 32.705-0.10035 0.0247-2.6253-0.77393-5.611-1.7748z"/>
  <path id="path4026" fill="#ffd400" d="m125.32 116.33c1.9469-2.2216 25.403-27.476 25.52-27.476 0.27286 0 17.801 5.9418 17.953 6.0857 0.0847 0.0805 0.66047 4.7227 1.2794 10.316 0.61893 5.5934 1.1763 10.534 1.2386 10.979l0.11323 0.80952h-4.5757-4.5757l-0.28396-0.95621c-0.66545-2.2408-2.4867-4.7296-4.6076-6.2964-3.4642-2.5591-8.2883-3.0556-12.361-1.2721-3.0793 1.3484-5.8082 4.3475-6.8466 7.5247l-0.32684 1h-6.5758-6.5759l0.62595-0.71429z"/>
 </g>
</svg>
