<svg
   xmlns="http://www.w3.org/2000/svg"
   xmlns:xlink="http://www.w3.org/1999/xlink"  
   version="1.0"
   width="200"
   height="200">
  <symbol id="pilot" width="200" height="200">
    <path d="m 110,30.0625 c -15.858679,0 -31.55074,6.487833 -42.6875,17.625 C 56.181489,58.81891 49.82541,74.359258 49.9375,90 c -0.11209,15.64075 6.243989,31.18108 17.375,42.3125 11.13676,11.13716 26.828821,17.625 42.6875,17.625 15.85867,0 31.51949,-6.48784 42.65625,-17.625 C 163.78727,121.18108 170.17459,105.64075 170.0625,90 170.17459,74.359258 163.78727,58.81891 152.65625,47.6875 141.51949,36.550333 125.85867,30.0625 110,30.0625 z m -0.125,3.875 L 95,90 109.875,146.0625 C 95.260873,146.02819 80.673076,139.98596 70.34375,129.65625 59.985009,119.29709 53.951345,104.63663 54.0625,90 53.951345,75.363366 59.985009,60.70287 70.34375,50.34375 80.673076,40.014054 95.260873,33.97181 109.875,33.9375 z m 0.25,0 c 14.61397,0.03431 29.20192,6.076554 39.53125,16.40625 10.35874,10.35912 16.3924,25.019616 16.28125,39.65625 0.11115,14.63663 -5.92251,29.29713 -16.28125,39.65625 -10.32933,10.32971 -24.91728,16.37194 -39.53125,16.40625 L 125,90 110.125,33.9375 z"
      style="fill:#d400d4;fill-opacity:1" />
  </symbol>
  <use xlink:href="#pilot" x="0" y="0" />
</svg>
           
