<svg
   xmlns="http://www.w3.org/2000/svg"
   version="1.0"
   width="300"
   height="400">
  <g>
    <path
       d="m 175.25,96.341 -31.25,92.875 17.562,5.9375 31.25,-92.875 z m 2.4688,4.875 10.344,3.5 -28.656,85.125 -10.344,-3.4688 28.656,-85.156 z M 147.12,187.82 c -4.5886,1.0983 -8.2134,4.7404 -9.2812,9.3438 l -8.4375,0 -0.125,5.6562 8.5625,0 c 1.2873,5.533 6.2333,9.6562 12.156,9.6562 5.925,0 10.871,-4.1205 12.156,-9.6562 l 8.3125,-0.0312 0,-5.6562 -8.3125,0.0312 c -0.4895,-2.1143 -1.4985,-4.0381 -2.9062,-5.5938 -4.04118,-1.25 -8.08481,-2.50018 -12.1246,-3.75 z m 2.875,4.6563 c 4.14,0 7.5,3.36 7.5,7.5 0,4.14 -3.36,7.5 -7.5,7.5 -4.14,0 -7.5,-3.36 -7.5,-7.5 0,-4.14 3.36,-7.5 7.5,-7.5 z" />
  </g>
</svg>
