<svg
   xmlns="http://www.w3.org/2000/svg"
   version="1.0"
   width="300"
   height="400">
  <g id="super-buoy">
    <path d="m 120.01,155.216 -20.043,42.015 -3.9759,-0.0311 0.0515,5.6713 41.716,-0.0151 c 1.2873,5.533 6.2333,9.6562 12.156,9.6562 5.925,0 10.871,-4.1205 12.156,-9.6562 h 41.975 v -5.6562 l -4.0124,-0.0311 -19.966,-41.922 -60.059,-0.0311 z m 3.7022,5.6632 52.842,-0.0622 17.575,36.402 -32.058,-0.0182 c -1.2853,-5.5357 -6.2313,-9.6562 -12.156,-9.6562 -5.923,1e-5 -10.869,4.1233 -12.156,9.6562 l -31.805,0.0129 17.758,-36.334 z m 26.204,31.634 c 4.14,0 7.5,3.36 7.5,7.5 0,4.14 -3.36,7.5 -7.5,7.5 -4.14,0 -7.5,-3.36 -7.5,-7.5 0,-4.14 3.36,-7.5 7.5,-7.5 z"/>
  </g>
</svg>
