<?xml version="1.0" encoding="UTF-8" standalone="no"?>
<svg id="svg2" xmlns:rdf="http://www.w3.org/1999/02/22-rdf-syntax-ns#" xmlns="http://www.w3.org/2000/svg" height="400" width="300" version="1.0" xmlns:cc="http://creativecommons.org/ns#" xmlns:dc="http://purl.org/dc/elements/1.1/">
 <metadata id="metadata2913">
  <rdf:RDF>
   <cc:Work rdf:about="">
    <dc:format>image/svg+xml</dc:format>
    <dc:type rdf:resource="http://purl.org/dc/dcmitype/StillImage"/>
    <dc:title/>
   </cc:Work>
  </rdf:RDF>
 </metadata>
 <g id="layer2" transform="translate(0,80)">
  <path id="path2558" d="m120.01 75.216-20.043 42.015-3.9759-0.0311 0.0515 5.6713 41.716-0.0151c1.2873 5.533 6.2333 9.6562 12.156 9.6562 5.925 0 10.871-4.1205 12.156-9.6562h41.975v-5.6562l-4.0124-0.0311-19.966-41.922-60.059-0.0311zm3.7022 5.6632 52.842-0.0622 17.575 36.402-32.058-0.0182c-1.2853-5.5357-6.2313-9.6562-12.156-9.6562-5.923 0.00001-10.869 4.1233-12.156 9.6562l-31.805 0.0129 17.758-36.334zm26.204 31.634c4.14 0 7.5 3.36 7.5 7.5s-3.36 7.5-7.5 7.5-7.5-3.36-7.5-7.5 3.36-7.5 7.5-7.5z" fill-rule="evenodd" fill="#000407"/>
  <path id="path3031" d="m109.12 191.25c1.5125-3.1446 5.4494-11.219 8.7486-17.944l5.9985-12.226 26.325 0.008 26.325 0.008 8.3582 17.385c4.597 9.5617 8.4534 17.633 8.5698 17.936 0.19021 0.49566-1.3777 0.55147-15.492 0.55147h-15.703l-0.35246-0.96757c-1.2097-3.3207-3.423-5.8134-6.506-7.3271-1.8703-0.91832-2.456-1.0292-5.4386-1.0292-2.927 0-3.6049 0.12277-5.4535 0.98776-2.616 1.224-5.1145 3.81-6.1914 6.4084l-0.79897 1.9277h-15.569-15.569l2.7501-5.7174z" transform="translate(0,-80)"/>
 </g>
</svg>
