<svg
   xmlns="http://www.w3.org/2000/svg"
   xmlns:xlink="http://www.w3.org/1999/xlink"  
   version="1.1"
   width="60"
   height="60">
   <symbol id="toilet" width="60" height="60">
    <rect width="58" height="58" rx="10" ry="10" x="1" y="1"
     style="fill:#ffffff;fill-opacity:0.5;stroke:#a30075;stroke-width:2" />
    <rect width="4" height="40" x="28" y="10"
     style="fill:#a30075;stroke:none" />
    <path d="m 44.656246,7.3963368 c -2.09605,0 -3.78861,1.72147 -3.78861,3.8533102 0,2.13184 1.69256,3.85332 3.78861,3.85332 2.09604,0 3.82155,-1.72148 3.82155,-3.85332 0,-2.1318402 -1.72551,-3.8533102 -3.82155,-3.8533102 z m -29.4523,0.40209 c -2.09604,0 -3.82155,1.72147 -3.82155,3.8533102 0,2.13184 1.72551,3.85331 3.82155,3.85331 2.09604,0 3.7886,-1.72147 3.7886,-3.85331 0,-2.1318402 -1.69256,-3.8533102 -3.7886,-3.8533102 z m 33.86685,9.4154802 -9.75155,0.067 -2.86616,2.61355 0.23061,14.207 2.73439,-0.067 -0.16473,-11.29188 1.51545,0 0.16472,29.48622 2.47083,0.16754 0.32944,-17.89278 1.35072,0.10052 0.56006,17.65823 2.6685,-0.067 -0.033,-29.68727 1.41661,0.13403 0.32945,11.55994 2.80027,0.067 -0.56005,-14.54207 -3.19561,-2.51303 z m -39.07207,0.16754 -5.17227,15.58079 2.24022,0.90469 3.65683,-11.05734 1.05422,0.16754 -4.151,15.84884 3.49211,0.067 0.49417,13.23529 2.30611,0 0.39533,-12.96723 1.44955,0 0.23061,12.90022 2.33906,0 0.23061,-13.00074 3.82155,-0.067 -4.151,-15.51377 1.12011,-0.67015 3.36033,11.22487 2.47083,-1.37379 -5.04049,-14.97766 -10.14688,-0.30156 z"
     style="fill:#a30075" />
   </symbol>
   <use xlink:href="#toilet" x="0" y="0"/>
</svg>
