<?xml version="1.0" encoding="UTF-8" standalone="no"?>
<svg id="svg2" xmlns:rdf="http://www.w3.org/1999/02/22-rdf-syntax-ns#" xmlns="http://www.w3.org/2000/svg" height="400" width="300" version="1.0" xmlns:cc="http://creativecommons.org/ns#" xmlns:dc="http://purl.org/dc/elements/1.1/">
 <metadata id="metadata2913">
  <rdf:RDF>
   <cc:Work rdf:about="">
    <dc:format>image/svg+xml</dc:format>
    <dc:type rdf:resource="http://purl.org/dc/dcmitype/StillImage"/>
    <dc:title/>
   </cc:Work>
  </rdf:RDF>
 </metadata>
 <g id="layer8" transform="translate(0,60)">
  <path id="path27763" d="m166.52 84.022-5.9581 16.719 4.2938 1.3125 5.9581-16.687-4.2938-1.3438zm28.985-31.981-28.146-8.7875-12.329 33.787 28.146 8.6375 12.329-33.637z" fill-rule="evenodd" fill="#d40000"/>
  <path id="path2389" d="m163.25 56.649 26.651 8.5772" stroke="#fff" stroke-width="1px" fill="none"/>
  <path id="path2391" d="m160.91 64.001 26.446 8.4751" stroke="#fff" stroke-width="1px" fill="none"/>
  <path id="path2393" d="m174.15 67.685c-7.1604-2.3017-13.036-4.2017-13.058-4.2221-0.0277-0.0267 1.9873-6.0872 2.0757-6.2429 0.0137-0.0241 26.332 8.4437 26.374 8.4858 0.016 0.016-0.44245 1.4143-1.0188 3.1074-0.76646 2.2516-1.089 3.0754-1.2011 3.0676-0.0842-0.006-6.0117-1.894-13.172-4.1957z" fill-rule="evenodd" stroke="#fff" stroke-width=".10211" fill="#fff"/>
 </g>
</svg>
