<?xml version="1.0" encoding="UTF-8" standalone="no"?>
<svg id="svg2" xmlns:rdf="http://www.w3.org/1999/02/22-rdf-syntax-ns#" xmlns="http://www.w3.org/2000/svg" height="400" width="300" version="1.0" xmlns:cc="http://creativecommons.org/ns#" xmlns:dc="http://purl.org/dc/elements/1.1/">
 <metadata id="metadata2913">
  <rdf:RDF>
   <cc:Work rdf:about="">
    <dc:format>image/svg+xml</dc:format>
    <dc:type rdf:resource="http://purl.org/dc/dcmitype/StillImage"/>
    <dc:title/>
   </cc:Work>
  </rdf:RDF>
 </metadata>
 <g id="layer11" transform="translate(0,60)">
  <g id="g3058">
   <path id="path13269" d="m149.9 48.285c-9.3567 0-17 7.6433-17 17s7.6433 17 17 17 17-7.6433 17-17-7.6433-17-17-17zm0 5c6.6513 0 12 5.3487 12 12s-5.3487 12-12 12-12-5.3487-12-12 5.3487-12 12-12z" fill-rule="evenodd" fill="#000407"/>
   <path id="path2908" d="m147.84 82.059v13.277h4.25v-13.277h-4.25z" fill-rule="evenodd" fill="#000407"/>
   <path id="path3054" d="m135 65h30" stroke="#000" stroke-width="1px" fill="none"/>
  </g>
  <path id="path3840" d="m138.08 123.72c0.24023-1.9782 1.2273-4.2437 2.5883-5.941 1.621-2.0214 3.7572-3.3668 6.5479-4.1238 1.2636-0.34278 4.2072-0.31272 5.5978 0.0572 1.4648 0.38962 3.5967 1.4756 4.7017 2.395 2.2396 1.8635 3.8935 4.8505 4.2036 7.5922l0.0832 0.73571h-11.905-11.905l0.0869-0.71527z" transform="translate(0,-60)" fill="#d40000"/>
  <path id="path3842" d="m148.41 137.11c-1.8122-0.24808-3.8141-1.0065-5.2588-1.9923-1.3729-0.93676-2.8677-2.5985-3.7006-4.1138-0.78225-1.4231-1.4396-3.6907-1.4396-4.9661v-0.48664h11.898 11.898l-0.0726 1.0263c-0.0825 1.1651-0.53846 2.733-1.1632 3.9997-1.54 3.1221-4.528 5.498-7.91 6.2893-1.262 0.29528-3.1033 0.40079-4.2515 0.24362z" transform="translate(0,-60)" fill="#00d400"/>
 </g>
</svg>
