<?xml version="1.0" encoding="UTF-8" standalone="no"?>
<svg id="svg2" xmlns:rdf="http://www.w3.org/1999/02/22-rdf-syntax-ns#" xmlns="http://www.w3.org/2000/svg" height="400" width="300" version="1.0" xmlns:cc="http://creativecommons.org/ns#" xmlns:dc="http://purl.org/dc/elements/1.1/">
 <metadata id="metadata2913">
  <rdf:RDF>
   <cc:Work rdf:about="">
    <dc:format>image/svg+xml</dc:format>
    <dc:type rdf:resource="http://purl.org/dc/dcmitype/StillImage"/>
    <dc:title/>
   </cc:Work>
  </rdf:RDF>
 </metadata>
 <g id="layer7" transform="translate(0,60)">
  <g id="g28027">
   <g id="g3693">
    <path id="path3888" d="m168.06 83.111-6.1562 18.344c0.0275-0.0328 4.1458 0.89991 4.1875 0.90625l6-17.875-4.0312-1.375zm-13.33-4.2678 26.125-25.638 4.7875 35.963-30.912-10.325m8.1562-1.9812l17.406 5.8438c-0.9375-6.7396-1.875-13.479-2.8125-20.219-4.8646 4.7917-9.7292 9.5833-14.594 14.375z" fill-rule="evenodd" fill="#000407"/>
   </g>
  </g>
  <path id="path28031" d="m171.55 139.74c-4.6894-1.5787-8.5362-2.8803-8.5483-2.8924s2.6013-2.6058 5.8075-5.7638 6.4632-6.3674 7.2378-7.132l1.4082-1.3902 1.365 9.8261c0.75074 5.4044 1.3793 9.9175 1.3968 10.029 0.0231 0.14772 0.008 0.2018-0.0545 0.19828-0.0475-0.003-3.9231-1.2965-8.6126-2.8752z" transform="translate(0,-60)" stroke="#000" stroke-width=".0625" fill="#ffd400"/>
 </g>
</svg>
