<?xml version="1.0" encoding="UTF-8" standalone="no"?>
<svg id="svg2" xmlns:rdf="http://www.w3.org/1999/02/22-rdf-syntax-ns#" xmlns="http://www.w3.org/2000/svg" height="400" width="300" version="1.0" xmlns:cc="http://creativecommons.org/ns#" xmlns:dc="http://purl.org/dc/elements/1.1/">
 <metadata id="metadata2913">
  <rdf:RDF>
   <cc:Work rdf:about="">
    <dc:format>image/svg+xml</dc:format>
    <dc:type rdf:resource="http://purl.org/dc/dcmitype/StillImage"/>
    <dc:title/>
   </cc:Work>
  </rdf:RDF>
 </metadata>
 <g id="layer12" transform="translate(0,60)">
  <path id="path27763" d="m164.49 39.327c0 8.004-6.48 14.456-14.484 14.456s-14.454-6.5271-14.454-14.531c0-8.004 6.392-14.5 14.396-14.5s14.542 6.5711 14.542 14.575zm0.0184 28.925c0 8.004-6.496 14.5-14.5 14.5s-14.5-6.496-14.5-14.5 6.496-14.5 14.5-14.5 14.5 6.496 14.5 14.5z" fill-rule="evenodd" fill="#000407"/>
  <g id="g2912" transform="matrix(1 0 0 .74931 -10.032 30.638)">
   <path id="path2914" d="m197.88 108.62v17.719h4.25v-17.719h-4.25z" fill-rule="evenodd" transform="translate(-40,-40)" fill="#000407"/>
  </g>
 </g>
</svg>
