<svg
   xmlns="http://www.w3.org/2000/svg"
   version="1.0"
   width="40"
   height="80">
    <path
       d="m 20,12.0625 c -7.806136,0 -14.03125,6.291548 -14.03125,13.9375 0,6.468252 4.462787,11.959031 10.5625,13.5 -6.099713,1.540969 -10.5625,7.031748 -10.5625,13.5 0,6.935135 5.128041,12.758601 11.90625,13.78125 l 0,13.21875 4.25,0 0,-13.21875 C 28.903209,65.758601 34.03125,59.935135 34.03125,53 c 0,-6.468252 -4.462786,-11.959031 -10.5625,-13.5 6.099714,-1.540969 10.5625,-7.031748 10.5625,-13.5 0,-7.645952 -6.225114,-13.9375 -14.03125,-13.9375 z m 0,1.875 c 6.553268,0 11.96875,5.349049 11.96875,12.0625 0,6.713451 -5.415482,12.0625 -11.96875,12.0625 C 13.446733,38.0625 8.03125,32.713451 8.03125,26 8.03125,19.286549 13.446733,13.9375 20,13.9375 z m 0,27 c 6.553268,0 11.96875,5.349049 11.96875,12.0625 0,6.713451 -5.415482,12.0625 -11.96875,12.0625 C 13.446733,65.0625 8.03125,59.713451 8.03125,53 8.03125,46.286549 13.446733,40.9375 20,40.9375 z"/>
</svg>
