<?xml version="1.0" encoding="UTF-8" standalone="no"?>
<svg id="svg2" xmlns:rdf="http://www.w3.org/1999/02/22-rdf-syntax-ns#" xmlns="http://www.w3.org/2000/svg" height="400" width="300" version="1.0" xmlns:cc="http://creativecommons.org/ns#" xmlns:dc="http://purl.org/dc/elements/1.1/">
 <metadata id="metadata2913">
  <rdf:RDF>
   <cc:Work rdf:about="">
    <dc:format>image/svg+xml</dc:format>
    <dc:type rdf:resource="http://purl.org/dc/dcmitype/StillImage"/>
    <dc:title/>
   </cc:Work>
  </rdf:RDF>
 </metadata>
 <g id="layer8" transform="translate(0,60)">
  <g id="g3689" fill="#000407" fill-rule="evenodd">
   <path id="path90440-23" d="m166.68 84.025-5.5312 17.125 3.9688 1.2812 5.5312-17.125-3.9688-1.2812z"/>
   <path id="path3953" d="m166.88 47.007-11.164 33.534 26.211 8.7256 11.164-33.534-26.211-8.7256zm3.1647 6.3233 16.723 5.567-8.0051 24.046-16.723-5.567 8.0051-24.046z"/>
  </g>
  <path id="path28627" d="m170.37 140.12c-4.5161-1.5088-8.2245-2.7567-8.2409-2.7731-0.0226-0.0226 7.8958-23.889 7.9488-23.958 0.009-0.0112 16.271 5.3948 16.577 5.5106 0.10398 0.0393-7.8632 23.937-7.9856 23.953-0.0487 0.006-3.7835-1.223-8.2996-2.7319z" transform="translate(0,-60)" stroke="#000" stroke-width=".0625" fill="#00d400"/>
 </g>
</svg>
