<?xml version="1.0" encoding="UTF-8" standalone="no"?>
<svg id="svg2" xmlns:rdf="http://www.w3.org/1999/02/22-rdf-syntax-ns#" xmlns="http://www.w3.org/2000/svg" height="400" width="300" version="1.0" xmlns:cc="http://creativecommons.org/ns#" xmlns:dc="http://purl.org/dc/elements/1.1/">
 <metadata id="metadata2913">
  <rdf:RDF>
   <cc:Work rdf:about="">
    <dc:format>image/svg+xml</dc:format>
    <dc:type rdf:resource="http://purl.org/dc/dcmitype/StillImage"/>
    <dc:title/>
   </cc:Work>
  </rdf:RDF>
 </metadata>
 <g id="layer9" transform="translate(0,60)">
  <path id="path4179" d="m150 45.458-18.169 36.964 36.219-0.004-18.006-36.96-0.044 0.00045zm-0.0247 10.443 11.117 21.535-22.19-0.0688 11.073-21.466z" fill-rule="evenodd" fill="#000407"/>
  <g id="g2894" transform="matrix(1 0 0 .74931 -10.032 30.638)">
   <path id="path2896" d="m197.88 108.62v17.719h4.25v-17.719h-4.25z" fill-rule="evenodd" transform="translate(-40,-40)" fill="#000407"/>
  </g>
  <path id="path24044" d="m139.53 137.26-0.45756-0.0756 5.4334-10.534c2.9883-5.7937 5.4688-10.496 5.5122-10.449 0.0682 0.0734 9.4698 18.259 10.543 20.392l0.39094 0.77747-10.482-0.0176c-5.7651-0.01-10.688-0.0517-10.94-0.0933z" transform="translate(0,-60)" stroke="#000" stroke-width=".12439" fill="#ffd400"/>
 </g>
</svg>
