<?xml version="1.0" encoding="UTF-8" standalone="no"?>
<svg id="svg2" xmlns:rdf="http://www.w3.org/1999/02/22-rdf-syntax-ns#" xmlns="http://www.w3.org/2000/svg" height="400" width="300" version="1.0" xmlns:cc="http://creativecommons.org/ns#" xmlns:dc="http://purl.org/dc/elements/1.1/">
 <metadata id="metadata2913">
  <rdf:RDF>
   <cc:Work rdf:about="">
    <dc:format>image/svg+xml</dc:format>
    <dc:type rdf:resource="http://purl.org/dc/dcmitype/StillImage"/>
    <dc:title/>
   </cc:Work>
  </rdf:RDF>
 </metadata>
 <g id="layer2" transform="translate(0,80)">
  <path id="path2558" d="m126.6 46.312-4.625 70.875h-8.1562v5.6562h24c1.2873 5.533 6.2333 9.6562 12.156 9.6562 5.925 0 10.871-4.1205 12.156-9.6562h24v-5.6562h-8.1562l-4.9688-70.875h-46.406zm6.7188 7.0938h33.312l4.5938 63.781h-9.0938c-1.2853-5.5357-6.2313-9.6562-12.156-9.6562-5.923 0.00001-10.869 4.1233-12.156 9.6562h-9.0938l4.5938-63.781zm16.656 59.094c4.14 0 7.5 3.36 7.5 7.5s-3.36 7.5-7.5 7.5-7.5-3.36-7.5-7.5 3.36-7.5 7.5-7.5z" fill-rule="evenodd" fill="#000407"/>
  <path id="path3088" d="m129.31 192.87c0.21374-2.1297 1.1324-14.479 2.0414-27.442 0.90903-12.964 1.834-25.464 2.0554-27.779l0.40265-4.209h16.096 16.096l0.31213 1.5152c0.25415 1.2338 4.4807 59.574 4.4397 61.283-0.007 0.27779-1.9819 0.50508-4.3894 0.50508-3.2258 0-4.3773-0.23916-4.3773-0.90911 0-0.50001-0.87825-2.1215-1.9517-3.6033-3.0677-4.2348-9.612-6.1086-14.672-4.2009-2.464 0.92894-5.9688 4.3326-6.9832 6.7815-0.76363 1.8436-0.99816 1.9319-5.1293 1.9319h-4.3291l0.38862-3.8722z" transform="translate(0,-80)" stroke-width="0" fill="#ffd400"/>
  <path id="path3090" d="m129.31 192.87c0.21374-2.1297 1.1324-14.479 2.0414-27.442 0.90903-12.964 1.834-25.464 2.0554-27.779l0.40265-4.209h16.096 16.096l0.31213 1.5152c0.25415 1.2338 4.4807 59.574 4.4397 61.283-0.007 0.27779-1.9819 0.50508-4.3894 0.50508-3.2258 0-4.3773-0.23916-4.3773-0.90911 0-0.50001-0.87825-2.1215-1.9517-3.6033-3.0677-4.2348-9.612-6.1086-14.672-4.2009-2.464 0.92894-5.9688 4.3326-6.9832 6.7815-0.76363 1.8436-0.99816 1.9319-5.1293 1.9319h-4.3291l0.38862-3.8722z" transform="translate(0,-80)" stroke-width="0" fill="#ffd400"/>
 </g>
</svg>
