<?xml version="1.0" encoding="UTF-8" standalone="no"?>
<svg id="svg2" xmlns:rdf="http://www.w3.org/1999/02/22-rdf-syntax-ns#" xmlns="http://www.w3.org/2000/svg" height="400" width="300" version="1.0" xmlns:cc="http://creativecommons.org/ns#" xmlns:dc="http://purl.org/dc/elements/1.1/">
 <metadata id="metadata2913">
  <rdf:RDF>
   <cc:Work rdf:about="">
    <dc:format>image/svg+xml</dc:format>
    <dc:type rdf:resource="http://purl.org/dc/dcmitype/StillImage"/>
    <dc:title/>
   </cc:Work>
  </rdf:RDF>
 </metadata>
 <g id="g2845" transform="translate(0,80)">
  <path id="path2847" d="m126.6 46.312-4.625 70.875h-8.1562v5.6562h24c1.2873 5.533 6.2333 9.6562 12.156 9.6562 5.925 0 10.871-4.1205 12.156-9.6562h24v-5.6562h-8.1562l-4.9688-70.875h-46.406zm6.7188 7.0938h33.312l4.5938 63.781h-9.0938c-1.2853-5.5357-6.2313-9.6562-12.156-9.6562-5.923 0.00001-10.869 4.1233-12.156 9.6562h-9.0938l4.5938-63.781zm16.656 59.094c4.14 0 7.5 3.36 7.5 7.5s-3.36 7.5-7.5 7.5-7.5-3.36-7.5-7.5 3.36-7.5 7.5-7.5z" fill-rule="evenodd" fill="#000407"/>
  <rect id="rect2849" height="1.1435" width="38.563" y="81.344" x="130.94"/>
  <rect id="rect2851" height="1.2314" width="40.464" y="96.003" x="129.83"/>
  <rect id="rect3265" height="1.1435" width="37.119" y="66.695" x="131.59"/>
  <path id="path4017" d="m132.47 146.08c0.0335-0.29768 0.22084-2.8469 0.41642-5.665s0.39452-5.5297 0.44209-6.0258l0.0865-0.90207h16.587c13.354 0 16.587 0.0359 16.587 0.18419 0 0.1013 0.19485 2.8762 0.43299 6.1664 0.23815 3.2902 0.43299 6.1625 0.43299 6.3829v0.40069h-17.522-17.522l0.0608-0.54125z" transform="translate(0,-80)" stroke-width="0" fill="#d40000"/>
  <path id="path4019" d="m130.4 174.87c0.0466-0.57552 0.26367-3.5956 0.48242-6.7114l0.39774-5.665h18.656 18.656l0.0728 0.46907c0.0401 0.258 0.24006 2.9047 0.44445 5.8815 0.2044 2.9768 0.41028 5.7859 0.45751 6.2423l0.0859 0.8299h-19.669-19.669l0.0847-1.0464z" transform="translate(0,-80)" stroke-width="0" fill="#d40000"/>
  <path id="path4021" d="m131.42 160.51c0.0481-0.45645 0.25371-3.2655 0.45688-6.2423 0.20316-2.9768 0.40244-5.6235 0.44285-5.8815l0.0735-0.46908h17.587 17.587l0.089 0.97424c0.049 0.53582 0.24857 3.2474 0.44358 6.0258 0.195 2.7784 0.38579 5.3601 0.42398 5.7372l0.0694 0.68557h-18.631-18.631l0.0875-0.8299z" transform="translate(0,-80)" stroke-width="0" fill="#00d400"/>
  <path id="path4023" d="m128.84 196.31c0.0639-0.62386 1.3729-18.642 1.3729-18.898 0-0.0262 8.898-0.0477 19.773-0.0477h19.773l0.008 0.54124c0.005 0.29768 0.31521 4.7467 0.69041 9.8867l0.68217 9.3454h-4.4879-4.4879l-0.18449-0.71981c-0.22348-0.87197-1.1636-2.8488-1.7034-3.5817-1.8344-2.4908-4.2729-4.1897-7.1169-4.9582-1.7424-0.47081-4.7634-0.47492-6.3905-0.009-4.1297 1.1833-7.2789 4.1013-8.6263 7.9931l-0.41659 1.2032-4.4858 0.0382-4.4858 0.0382 0.0852-0.83197z" transform="translate(0,-80)" stroke-width="0" fill="#00d400"/>
 </g>
</svg>
