<svg
   xmlns="http://www.w3.org/2000/svg"
   xmlns:xlink="http://www.w3.org/1999/xlink"  
   version="1.2"
   width="60"
   height="60">
  <symbol id="visitor_berth" width="60" height="60">
    <path d="m 29.99,4.996 c -13.806588,0 -25,11.193537 -25,25 0,13.806912 11.193412,25 25,25 13.806587,0 25,-11.193538 25,-25 0,-13.806913 -11.193413,-25 -25,-25 z m -13.671875,11.40625 3.177087,0.026 3.203125,0.026 3.802075,11.145825 c 2.093188,6.120962 3.8373,11.1198 3.880213,11.1198 0.04288,0 0.116875,-0.107375 0.15625,-0.234375 0.03937,-0.127 1.71115,-5.1392 3.697912,-11.145838 l 3.59375,-10.9375 3.098963,0 c 1.698937,0 3.075,0.04 3.072912,0.07813 -0.0025,0.03812 -2.3806,6.769863 -5.3125,14.947913 l -5.338537,14.8698 -3.151038,0.026 c -2.937825,0.02262 -3.169337,-0.005 -3.229175,-0.15625 -0.03587,-0.08913 -2.398837,-6.686938 -5.260412,-14.6875 -2.862413,-8.000563 -5.258338,-14.676888 -5.3125,-14.817713 L 16.31812,16.40213 z"
     style="fill:#a30075;stroke:none" />
  </symbol>
   <use xlink:href="#visitor_berth" x="0" y="0"/>
</svg>
