<svg
   xmlns="http://www.w3.org/2000/svg"
   xmlns:xlink="http://www.w3.org/1999/xlink"  
   version="1.2"
   width="60"
   height="100">
  <symbol id="visitor_mooring" width="60" height="100">
    <path d="m 42.468409,6.7812996 c -3.836114,0 -6.968685,3.1326004 -6.968685,6.9687504 0,1.10712 0.255168,2.16209 0.718744,3.09375 -1.689844,-0.20686 -3.379269,-0.22843 -5.093702,-0.0625 -3.047892,0.295 -6.110933,1.20137 -8.968666,2.75 C 11.936586,25.06886 7.3631695,37.30089 10.968706,48.06255 l -4.718706,0 0,3.90625 L 21.562356,52 c 0.897211,3.85637 4.340719,6.75 8.46867,6.75 4.129551,0 7.573059,-2.89174 8.46867,-6.75 l 20.812304,0 0,-0.0312 0,-3.90625 -3.531217,0 c 2.088671,-6.21523 1.551716,-13.13782 -1.624984,-19 -2.111091,-3.89526 -5.122532,-6.95485 -8.656169,-9.0625 2.324608,-1.13255 3.937463,-3.50036 3.937463,-6.25 0,-3.83615 -3.13257,-6.9687504 -6.968684,-6.9687504 z M 41.968413,8.8438 c 0.165859,-0.0167 0.329557,0 0.499996,0 2.726944,0 4.937453,2.17928 4.937453,4.90625 0,2.59914 -2.014541,4.71378 -4.562457,4.90625 -1.159229,-0.50628 -2.371217,-0.90402 -3.593716,-1.21875 -1.02952,-0.90028 -1.687484,-2.20513 -1.687484,-3.6875 0,-2.55653 1.918362,-4.65534 4.406208,-4.90625 z m -18.03108,13.3125 4.374959,0 5.031203,14.78125 4.906203,-14.78125 4.24996,0 -7.124932,19.9375 -4.31246,0 -7.124933,-19.9375 z m 5.562448,22.65625 c 0.175658,-0.0179 0.350907,0 0.531245,0 2.885463,0 5.218701,2.33326 5.218701,5.21875 0,2.88549 -2.333238,5.21875 -5.218701,5.21875 -2.885463,0 -5.218701,-2.33326 -5.218701,-5.21875 0,-2.70514 2.052631,-4.9509 4.687456,-5.21875 z"
     style="fill:#a30075;fill-opacity:1;stroke:none" />
  </symbol>
   <use xlink:href="#visitor_mooring" x="0" y="0"/>
</svg>
