<?xml version="1.0" encoding="UTF-8" standalone="no"?>
<!-- Created with Inkscape (http://www.inkscape.org/) -->
<svg id="svg2" xmlns:rdf="http://www.w3.org/1999/02/22-rdf-syntax-ns#" xmlns="http://www.w3.org/2000/svg" height="400" width="300" version="1.1" xmlns:cc="http://creativecommons.org/ns#" xmlns:dc="http://purl.org/dc/elements/1.1/">
 <metadata id="metadata7">
  <rdf:RDF>
   <cc:Work rdf:about="">
    <dc:format>image/svg+xml</dc:format>
    <dc:type rdf:resource="http://purl.org/dc/dcmitype/StillImage"/>
    <dc:title/>
   </cc:Work>
  </rdf:RDF>
 </metadata>
 <g id="layer14">
  <g id="content-6" fill-rule="even-odd" xml:space="preserve" transform="matrix(.14930 0 0 -.14930 78.253 209.72)" stroke="#000" stroke-miterlimit="10.433" fill="none">
<line id="line21" stroke-width="0" x1="25.5" y1="2.5508" x2="81.301" y2="2.5508"/>
<g id="g2532" transform="matrix(-2.3793 -.010650 .010650 -2.3793 676.03 293.82)" stroke="#000" stroke-width="1.4483"><polyline id="polyline2448" stroke-linecap="round" transform="matrix(1.1623 0 0 1.1623 -24.191 -9.1806)" stroke="#a30075" points="101.56 81.659 73.936 81.659 62.656 93.322 34.543 93.322 62.978 118.94 129.2 118.94 145.95 109.74 145.95 95.145 125.41 95.145" stroke-miterlimit="3.863" stroke-width="5.7931" fill="none"/><polygon id="polygon2450" transform="matrix(1.1623 0 0 1.1623 -24.191 -9.1806)" points="126.38 85.308 126.38 67.065 148.61 76.185" fill="#a30075"/><polygon id="polygon2452" transform="matrix(1.1623 0 0 1.1623 -24.191 -9.1806)" points="115.82 93.48 115.82 104.98 112.6 109.9 91.981 109.9 91.981 109.9 91.981 93.48" fill="#a30075"/><polyline id="polyline2454" stroke-linejoin="round" stroke-linecap="round" transform="matrix(1.1623 0 0 1.1623 -24.191 -9.1806)" stroke="#a30075" points="100.12 107.6 86.261 107.6 86.261 60 108.98 60 108.98 76.185 127.99 76.185" stroke-miterlimit="3.863" stroke-width="8.6896" fill="none"/></g><rect id="rect3767" transform="matrix(6.6977 0 0 -6.6977 281.77 438.16)" stroke-opacity="0" rx="20" ry="20" height="43.261" width="45.925" stroke-miterlimit="4" y="-15.255" x="-61.913" fill="none"/><rect id="rect3769" transform="matrix(6.6977 0 0 -6.6977 281.77 438.16)" stroke-opacity="0" rx="133.95" ry="9.4045" height="9.4045" width="7.5236" stroke-miterlimit="4" y="-16.039" x="-70.847" fill="none"/><rect id="rect3768-6" transform="scale(1,-1)" rx="100" ry="100" height="388.47" width="388.47" stroke="#a30075" stroke-miterlimit="4" y="-257.33" x="288.47" stroke-width="13.395" fill="none"/><path id="path5911" d="m14.038 57.783c-5.8899-0.779-10.856-5.647-11.767-11.532-0.1116-0.721-0.1503-6.31-0.1177-16.984l0.048576-15.909 0.4449-1.3323c0.8827-2.6444 2.0247-4.4585 3.9065-6.207 1.3155-1.2224 2.3552-1.8894 4.1337-2.6518 2.428-1.0413 1.961-1.0167 19.329-1.0167 17.367 0 16.9-0.024576 19.329 1.0168 1.9394 0.83148 2.9002 1.4734 4.3435 2.9018 2.17 2.1476 3.3491 4.2905 3.9328 7.1478 0.29144 1.4266 0.3025 2.1657 0.25952 17.352l-0.04488 15.861-0.43137 1.3775c-1.5485 4.9448-5.1201 8.4009-10.033 9.7091-1.2816 0.34124-1.3819 0.34346-16.807 0.37157-8.5346 0.01556-15.972-0.03178-16.527-0.1052zm23.039-15.036 5.1016-0.000149 7.1978-6.5439 7.1978-6.5439-7.1304-0.04074-7.1304-0.04074-2.3456-2.3496-2.3456-2.3496h-1.9148-1.9148l-0.04638-4.1928c-0.04319-3.9041-0.06797-4.2224-0.35986-4.6225-0.52291-0.71677-1.0093-0.77106-6.4264-0.71728-5.0042 0.04968-5.0169 0.05065-5.5134 0.42323-0.2737 0.20539-0.54935 0.55806-0.61257 0.78371s-0.09808 1.5564-0.07747 2.9573l0.03748 2.547h-2.6773-2.6773v-0.94045c0-0.51725-0.06061-0.94045-0.13468-0.94045-0.13883 0-8.7196 3.5371-8.9977 3.709-0.091706 0.05668-0.059579 0.14996 0.078203 0.22707 0.372 0.20818 8.7768 3.5875 8.9226 3.5875 0.07235 0 0.13155-0.41873 0.13155-0.93051v-0.93051l3.8836-0.04912c3.7926-0.04797 3.8945-0.05767 4.3496-0.41431 0.74908-0.58701 0.84331-1.0728 0.74247-3.8276l-0.09036-2.4687h2.8458 2.8459l0.000941 1.6066c0.00047 0.88363 0.04624 2.1885 0.1016 2.8997l0.10066 1.2931-2.3352 0.0021c-1.2843 0.0013-2.4891 0.04344-2.6773 0.09391s-0.45881 0.33755-0.60136 0.63795c-0.21586 0.45489-0.22712 0.62358-0.06736 1.0093 0.1055 0.2547 0.31858 0.53093 0.4735 0.61384s1.3796 0.15074 2.7215 0.15074h2.4398v3.7618c0 3.2393-0.03265 3.7618-0.23511 3.7618-0.19645 0-0.23511-0.32219-0.23511-1.9593v-1.9593h-5.0157-5.0157v2.392 2.392l0.70864 1.0563 0.70864 1.0563h1.8825c1.4744 0 1.9009 0.04786 1.9672 0.22076 0.18945 0.49369 0.91206 0.58086 4.4137 0.53244 4.8959-0.06771 4.6414 0.30077 4.5596-6.6017l-0.05519-4.6533 1.3592 0.000041 1.3592 0.000039 2.3037 2.4177 2.3037 2.4177 4.3701-0.09094c2.4036-0.05002 4.3701-0.05194 4.3701-0.0043 0 0.04767-1.9725 1.8851-4.3833 4.0831l-4.3833 3.9964-13.211 0.06664-13.211 0.06664-2.9781-1.603-2.9781-1.603-0.043735-2.0521-0.043735-2.0521h3.7452c3.5516 0 3.7666-0.01679 4.1582-0.32486 0.31361-0.24669 0.41241-0.46356 0.41059-0.90126-0.0053-1.2659-0.0788-1.2817-5.9435-1.2817h-5.026v3.9933c0 3.9699 0.00206 3.9946 0.35267 4.2187 0.19397 0.12397 1.9749 1.1167 3.9577 2.2062l3.605 1.9808 9.0126-0.0864c4.9569-0.04752 11.308-0.08647 14.114-0.08655z" fill-opacity=".50196" transform="matrix(6.6977 0 0 -6.6977 281.77 264.02)" fill="#fff"/></g>
 </g>
</svg>
