<svg
   xmlns="http://www.w3.org/2000/svg"
   version="1.1"
   width="300"
   height="400">
  <path
     d="m 150.40625,42.78125 c -1.5811,0 -2.84375,0.428 -2.84375,0.96875 l 0,52.4375 c 0,0.37461 0.599,0.71126 1.5,0.875 l 0,88.03125 c -6.9621,0.45004 -12.63,5.68285 -13.78125,12.4375 l -22.75,0 0,5 22.75,0 c 1.19614,7.07624 7.34519,12.5 14.75,12.5 7.40481,0 13.58511,-5.42376 14.78125,-12.5 l 22.71875,0 0,-5 -22.71875,0 c -1.11869,-6.56362 -6.52533,-11.70778 -13.21875,-12.40625 l 0,-88.03125 c 0.71792,-0.110612 1.27778,-0.335074 1.53125,-0.59375 l 8,-1.5 c 0.15767,0.297715 0.33339,0.583624 0.53125,0.84375 0.38492,0.506051 0.99506,1.0625 1.90625,1.0625 0.47445,0 0.86559,-0.158941 1.1875,-0.375 1.83629,-0.320549 5.90814,0.04147 15.125,-0.625 3.76742,-0.272442 7.49205,-0.703402 10.3125,-1.09375 1.41022,-0.195174 2.58874,-0.362419 3.46875,-0.53125 0.41338,-0.07931 0.73988,-0.142449 1.03125,-0.21875 0.015,0.588318 0.14128,1.177689 0.5,1.71875 l -0.0312,0.03125 c 0.0422,0.07118 0.0562,0.03839 0.0937,0.09375 0.021,0.02853 0.009,0.06549 0.0312,0.09375 l 0.0312,-0.03125 c 0.22834,0.301077 0.40818,0.495107 0.59375,0.625 0.23313,0.163182 0.51457,0.299092 0.8125,0.46875 0.59587,0.339315 1.31272,0.73643 2.09375,1.09375 0.78103,0.35732 1.61578,0.679116 2.375,0.9375 0.73848,0.251326 1.35036,0.47578 2.125,0.46875 0.0218,-1.97e-4 0.0405,5.42e-4 0.0625,0 0.006,2.4e-5 0.0256,-1.6e-5 0.0312,0 0.0553,0.290393 0.0508,0.63815 0.15625,0.84375 0.17997,0.35098 0.38914,0.66065 0.65625,1 0.53422,0.6787 1.26748,1.4714 2.1875,2.375 1.84005,1.80721 4.45383,4.1169 7.5625,6.8125 6.21733,5.39121 14.43195,12.27471 22.40625,19.375 7.97964,7.10504 15.74796,14.36743 21.625,19.84375 2.93852,2.73816 5.42404,5.03419 7.21875,6.65625 0.89735,0.81103 1.6017,1.4469 2.15625,1.90625 0.27728,0.22968 0.53244,0.40951 0.75,0.5625 0.10878,0.0765 0.20468,0.14387 0.34375,0.21875 0.13907,0.0749 0.21532,0.21875 0.8125,0.21875 1.08399,0 2.02281,-0.39108 3.0625,-0.90625 1.03969,-0.51517 2.14177,-1.19168 3.21875,-1.9375 2.15396,-1.49163 4.20738,-3.22982 5.40625,-4.5 1.27607,-1.37443 2.80041,-3.72526 3.90625,-6.21875 0.55292,-1.24675 0.98662,-2.52785 1.1875,-3.75 0.16845,-1.02483 0.0978,-2.06352 -0.34375,-3.03125 l 0.0312,0 c -0.0722,-0.35043 -0.16354,-0.42286 -0.25,-0.5625 -0.0571,-0.0922 -0.0914,-0.26992 -0.15625,-0.375 -0.16309,-0.26431 -0.37168,-0.58441 -0.625,-0.9375 -0.50663,-0.70619 -1.20567,-1.62716 -2.09375,-2.75 -1.77616,-2.24567 -4.2864,-5.27963 -7.34375,-8.90625 -6.11471,-7.25324 -14.41728,-16.81197 -23.3125,-26.71875 -17.79044,-19.813552 -37.79567,-40.965317 -48,-48.28125 l -0.0312,0 c -1.97827,-1.349994 -5.04289,-1.870388 -8.90625,-2.34375 -3.86336,-0.473362 -8.45551,-0.73513 -12.90625,-0.9375 -4.45074,-0.20237 -8.77267,-0.324768 -12.09375,-0.5 -1.66054,-0.08762 -3.07612,-0.192993 -4.09375,-0.3125 -0.42837,-0.0503 -0.73766,-0.104035 -1,-0.15625 -0.35532,-0.293601 -0.79608,-0.53125 -1.375,-0.53125 -0.72293,0 -1.2432,0.35253 -1.625,0.75 l -8.625,-0.0625 0,3 7.125,0.0625 c -0.3667,1.228848 -0.69091,2.742287 -0.96875,4.53125 l -0.0312,0.0625 c -0.70597,4.58843 -1.10079,10.893313 -1.09375,17.25 -0.007,6.356687 0.38778,12.66157 1.09375,17.25 l 0,0.03125 c 0.20573,1.331561 0.43085,2.501291 0.6875,3.53125 l -6.84375,1.28125 0,-49.65625 c 0,-0.54075 -1.2939,-0.96875 -2.875,-0.96875 z m 16.28125,6.6875 c 0.94058,0.08067 1.97415,0.154729 3.1875,0.21875 3.37962,0.178321 7.70434,0.330247 12.125,0.53125 4.42066,0.201003 8.93911,0.450804 12.65625,0.90625 3.69143,0.452296 6.68905,1.233656 7.5625,1.8125 0.009,0.0064 0.0223,0.02483 0.0312,0.03125 9.47814,6.80795 29.73666,28.063933 47.46875,47.8125 8.87441,9.8836 17.1608,19.43327 23.25,26.65625 3.0446,3.61149 5.53848,6.6403 7.28125,8.84375 0.87138,1.10173 1.57313,1.98643 2.03125,2.625 0.22906,0.31928 0.398,0.5847 0.5,0.75 0.034,0.0551 0.048,0.0842 0.0625,0.125 0.007,0.0204 0.0292,0.055 0.0312,0.0625 l 0,0.0625 0.15625,0.25 c 0.0553,0.0804 0.19941,0.60452 0.0625,1.4375 -0.13691,0.83298 -0.48472,1.90858 -0.96875,3 -0.96402,2.17371 -2.48121,4.44043 -3.34375,5.375 -0.93793,0.99372 -2.92021,2.71841 -4.90625,4.09375 -0.99302,0.68767 -1.99926,1.3003 -2.84375,1.71875 -0.69549,0.34462 -1.15276,0.44618 -1.4375,0.5 -0.0947,-0.0737 -0.15112,-0.11096 -0.28125,-0.21875 -0.48853,-0.40467 -1.21159,-1.04645 -2.09375,-1.84375 -1.76432,-1.5946 -4.21848,-3.88754 -7.15625,-6.625 -5.87554,-5.47493 -13.67314,-12.73904 -21.6875,-19.875 -8.0197,-7.14071 -16.25408,-14.04446 -22.4375,-19.40625 -3.09171,-2.6809 -5.69346,-4.97458 -7.4375,-6.6875 -0.65923,-0.64746 -1.0445,-1.11046 -1.4375,-1.5625 0.47883,0.0115 0.86974,-2.9e-4 1.5625,0.0937 2.16045,0.29344 5.10451,0.96179 8.0625,1.59375 2.95799,0.63196 5.94646,1.23749 8.34375,1.40625 1.19864,0.0844 2.23834,0.0881 3.21875,-0.1875 0.4902,-0.1378 0.97502,-0.34753 1.40625,-0.75 0.43123,-0.40247 0.75184,-1.04836 0.8125,-1.65625 l 0.0312,-0.15625 -0.0312,-0.1875 c -0.16879,-1.15015 -0.92782,-2.108821 -1.8125,-2.71875 -0.88468,-0.609929 -1.90006,-0.983337 -3.0625,-1.25 -2.32488,-0.533326 -5.18708,-0.647792 -8.125,-0.59375 -5.87583,0.108084 -12.30262,0.918942 -14.125,0.90625 l -0.0312,0 c 0.0522,-0.0013 -0.53531,-0.101175 -1.15625,-0.3125 -0.62094,-0.211325 -1.38416,-0.519115 -2.09375,-0.84375 -0.70959,-0.324635 -1.38531,-0.658647 -1.875,-0.9375 -0.24484,-0.139427 -0.41953,-0.26555 -0.53125,-0.34375 -0.002,-0.07084 -0.0398,-0.306283 0.0312,-0.75 0.1033,-0.645407 0.37573,-1.581072 0.8125,-2.65625 0.87354,-2.150355 2.29195,-4.863219 3.6875,-7.53125 1.39555,-2.668031 2.77388,-5.282295 3.59375,-7.46875 0.40994,-1.093227 0.69474,-2.047195 0.71875,-3.03125 0.012,-0.492027 -0.0231,-1.039538 -0.28125,-1.5625 -0.2582,-0.522962 -0.78072,-0.972946 -1.34375,-1.1875 l -0.0312,-0.03125 -0.0312,0 c -1.0422,-0.356533 -2.24827,-0.0107 -3,0.625 -0.75173,0.635703 -1.23473,1.457682 -1.6875,2.40625 -0.90555,1.897136 -1.60754,4.384458 -2.28125,6.96875 -0.67371,2.584292 -1.30825,5.269948 -2,7.40625 -0.68056,2.101735 -1.58046,3.578433 -1.875,3.8125 -0.17769,0.04786 -0.47711,0.111164 -0.875,0.1875 -0.79578,0.152672 -1.93745,0.340944 -3.3125,0.53125 -2.7501,0.380612 -6.43342,0.795542 -10.125,1.0625 -6.64378,0.480392 -10.35423,0.267656 -13,0.375 0.3992,-1.268852 0.74225,-2.840361 1.03125,-4.71875 0.70597,-4.58843 1.10079,-10.893313 1.09375,-17.25 0.007,-6.356687 -0.38778,-12.66157 -1.09375,-17.25 -0.28165,-1.830592 -0.61329,-3.349382 -1,-4.59375 z m -3.125,0.0625 c 0.0121,0.03128 0.0191,0.0299 0.0312,0.0625 0.38825,1.04304 0.79093,2.766199 1.125,4.9375 0.66815,4.342602 1.0694,10.552783 1.0625,16.78125 0.007,6.203407 -0.39921,12.409782 -1.0625,16.75 l 0,0.0625 c -0.33407,2.171301 -0.73675,3.86321 -1.125,4.90625 -0.0121,0.0326 -0.0191,0.03122 -0.0312,0.0625 -0.0121,-0.03128 -0.0191,-0.0299 -0.0312,-0.0625 -0.38825,-1.04304 -0.79093,-2.734949 -1.125,-4.90625 -0.66815,-4.342602 -1.0694,-10.584033 -1.0625,-16.8125 -0.007,-6.228467 0.39435,-12.438648 1.0625,-16.78125 0.33407,-2.171301 0.73675,-3.89446 1.125,-4.9375 0.0121,-0.0326 0.0191,-0.03122 0.0312,-0.0625 z M 203.25,73.5625 c -0.0887,0.367445 -0.0941,0.594746 -0.28125,1.09375 -0.18143,0.483829 -0.61983,1.276771 -0.875,1.84375 0.24687,-0.719 0.46729,-1.754437 0.71875,-2.28125 0.16583,-0.347416 0.28334,-0.424527 0.4375,-0.65625 z m 14.28125,25.09375 c 2.81921,-0.05186 5.50435,0.102126 7.375,0.53125 0.93532,0.214562 1.65709,0.501745 2.0625,0.78125 0.0729,0.05026 0.0402,0.08125 0.0937,0.125 -0.4234,0.0704 -0.99065,0.12255 -1.84375,0.0625 -2.05394,-0.14459 -4.93951,-0.716598 -7.875,-1.34375 -0.19756,-0.04221 -0.36483,-0.05124 -0.5625,-0.09375 0.29914,-0.0092 0.45222,-0.05702 0.75,-0.0625 z m -67.5,91.375 c 5.55246,0 10,4.44754 10,10 0,5.55246 -4.44754,10 -10,10 -5.55246,0 -10,-4.44754 -10,-10 0,-5.55246 4.44754,-10 10,-10 z"
     style="fill:#000000;fill-opacity:1" />
</svg>
