<svg
   xmlns:svg="http://www.w3.org/2000/svg"
   xmlns="http://www.w3.org/2000/svg"
   version="1.1"
   width="300"
   height="400">
  <g>
    <path
       d="m 91.8125,152.5589 -3.90625,9 49.78125,21.6875 -44.78125,19.5 3.90625,9 36.25,-15.78125 c -0.26974,1.20969 -0.4375,2.43224 -0.4375,3.71875 0,9.55172 7.82328,17.40625 17.375,17.40625 9.55172,0 17.40625,-7.85453 17.40625,-17.40625 0,-1.27291 -0.14203,-2.48964 -0.40625,-3.6875 l 36.125,15.75 3.90625,-9 -44.78125,-19.5 49.78125,-21.6875 -3.90625,-9 -58.15625,25.34375 L 91.8125,152.5589 z M 150,192.09015 c 4.2554,0 7.625,3.33835 7.625,7.59375 0,4.2554 -3.3696,7.625 -7.625,7.625 -4.2554,0 -7.59375,-3.3696 -7.59375,-7.625 0,-4.2554 3.33835,-7.59375 7.59375,-7.59375 z"
       style="fill:#000000;fill-opacity:1;stroke:none" />
  </g>
</svg>
