<?xml version="1.0" encoding="UTF-8" standalone="no"?>
<!-- Created with Inkscape (http://www.inkscape.org/) -->

<svg
   xmlns:dc="http://purl.org/dc/elements/1.1/"
   xmlns:cc="http://creativecommons.org/ns#"
   xmlns:rdf="http://www.w3.org/1999/02/22-rdf-syntax-ns#"
   xmlns:svg="http://www.w3.org/2000/svg"
   xmlns="http://www.w3.org/2000/svg"
   version="1.1"
   width="300"
   height="400"
   id="svg2">
  <metadata
     id="metadata13">
    <rdf:RDF>
      <cc:Work
         rdf:about="">
        <dc:format>image/svg+xml</dc:format>
        <dc:type
           rdf:resource="http://purl.org/dc/dcmitype/StillImage" />
        <dc:title></dc:title>
      </cc:Work>
    </rdf:RDF>
  </metadata>
  <defs
     id="defs11" />
  <path
     d="m 149.80625,166.8875 c -3.95678,0 -7.1625,2.85844 -7.1625,6.4125 0,3.02117 2.32634,5.55463 5.45625,6.24375 l 0,2.53125 -10.125,-0.1125 0,3.05625 10.14375,0 -0.1125,4.875 c -7.43639,0.88849 -13.2,7.21187 -13.2,14.8875 0,7.42808 5.39938,13.59842 12.4875,14.79375 l -0.13125,5.60625 C 139.99764,224.61378 133.60926,221.97087 128.99375,218 l 2.7,-2.3625 -10.63125,-7.8375 2.175,15.20625 4.05,-3.525 c 5.23323,5.81253 12.3722,9.27561 19.85625,9.99375 l 0.4875,4.3875 4.85625,0 0.46875,-4.3875 c 4.622,-0.42971 9.20728,-1.92259 13.40625,-4.55625 2.48504,-1.55909 4.55753,-3.27085 6.375,-5.2875 l 3.65625,3.375 2.64375,-15 -10.6125,7.63125 2.60625,2.4 c -4.60253,3.93569 -10.94183,6.57569 -18.05625,7.14375 l -0.13125,-5.7 c 6.82633,-1.40557 11.9625,-7.45763 11.9625,-14.7 0,-7.50113 -5.50275,-13.72327 -12.69375,-14.83125 L 152,185 l 10.14375,0 0,-3.0375 -10.425,0.0375 0,-2.49375 C 154.74039,178.75 156.95,176.25228 156.95,173.3 c 0,-3.55406 -3.19346,-6.4125 -7.14375,-6.4125 z m 0,3.35625 c 1.88207,0 3.4125,1.38459 3.4125,3.075 0,1.6907 -1.53072,3.05625 -3.4125,3.05625 -1.88089,0 -3.39375,-1.36496 -3.39375,-3.05625 0,-1.68983 1.51286,-3.075 3.39375,-3.075 z m 0.0562,21.84375 c 6.95879,0 12.6,5.64121 12.6,12.6 0,6.95879 -5.64121,12.6 -12.6,12.6 -6.95879,0 -12.6,-5.64121 -12.6,-12.6 0,-6.95879 5.64121,-12.6 12.6,-12.6 z"
     id="path5"
     style="fill:#a30075;fill-opacity:1;stroke:none" />
</svg>
