<?xml version="1.0" encoding="UTF-8" standalone="no"?>
<!-- Created with Inkscape (http://www.inkscape.org/) -->

<svg
   xmlns:dc="http://purl.org/dc/elements/1.1/"
   xmlns:cc="http://creativecommons.org/ns#"
   xmlns:rdf="http://www.w3.org/1999/02/22-rdf-syntax-ns#"
   xmlns:svg="http://www.w3.org/2000/svg"
   xmlns="http://www.w3.org/2000/svg"
   version="1.1"
   width="300"
   height="400"
   id="svg2">
  <metadata
     id="metadata13">
    <rdf:RDF>
      <cc:Work
         rdf:about="">
        <dc:format>image/svg+xml</dc:format>
        <dc:type
           rdf:resource="http://purl.org/dc/dcmitype/StillImage" />
        <dc:title></dc:title>
      </cc:Work>
    </rdf:RDF>
  </metadata>
  <defs
     id="defs11" />
  <path
     d="m 150.20625,165.89375 c -4.05943,0 -7.65,3.35641 -7.65,7.96875 0,2.15434 0.7978,4.02536 2.04375,5.41875 -2.09417,-0.002 -5.82079,0.005 -6.20625,0 l -1.5,-0.0187 0,1.48125 0,3.05625 0,1.4625 1.48125,0 8.625,0 -0.88125,36.99375 c -5.55999,-0.7019 -10.51919,-2.70179 -14.38125,-5.5875 l 1.3125,-1.14378 1.3875,-1.2 -1.48125,-1.0875 L 122.325,205.4 l -2.8125,-2.08125 0.4875,3.4875 2.175,15.1875 0.375,2.68125 2.04375,-1.78125 3.05625,-2.6625 c 5.07485,5.14453 11.60332,8.32554 18.525,9.2625 l 0.375,3.31875 0.15,1.29375 1.3125,0 4.85625,0 1.33125,0 0.13125,-1.3125 0.35625,-3.2625 c 4.43612,-0.58286 8.83055,-2.0461 12.8625,-4.575 2.13574,-1.34009 3.94376,-2.85231 5.60625,-4.51875 l 2.625,2.41875 1.96875,1.8375 0.4875,-2.64375 2.64375,-15 0.6375,-3.5625 -2.94375,2.11875 -10.6125,7.6125 -1.48125,1.05 1.33125,1.2375 1.29375,1.18125 c -3.84971,2.87272 -8.77519,4.86585 -14.30625,5.56875 l -0.9,-36.99375 8.625,0 1.48125,0 0,-1.4625 0,-3.05625 0,-1.4625 -1.48125,0 c -1.17263,0.005 -4.01197,-0.002 -6.7125,0 1.24339,-1.39289 2.025,-3.26693 2.025,-5.41875 0,-4.61234 -3.57182,-7.96875 -7.63125,-7.96875 z m 0,3.3375 c 2.8993,0 4.95,2.28481 4.95,4.63125 0,2.34657 -2.05069,4.63125 -4.95,4.63125 -2.8993,0 -4.96875,-2.28481 -4.96875,-4.63125 0,-2.34644 2.06945,-4.63125 4.96875,-4.63125 z"
     id="path5"
     style="fill:#a30075" />
</svg>
