<?xml version="1.0" encoding="UTF-8" standalone="no"?>
<svg id="svg2" xmlns:rdf="http://www.w3.org/1999/02/22-rdf-syntax-ns#" xmlns="http://www.w3.org/2000/svg" height="400" width="300" version="1.0" xmlns:cc="http://creativecommons.org/ns#" xmlns:dc="http://purl.org/dc/elements/1.1/">
 <metadata id="metadata2913">
  <rdf:RDF>
   <cc:Work rdf:about="">
    <dc:format>image/svg+xml</dc:format>
    <dc:type rdf:resource="http://purl.org/dc/dcmitype/StillImage"/>
    <dc:title/>
   </cc:Work>
  </rdf:RDF>
 </metadata>
 <g id="g2831" transform="translate(0,80)">
  <path id="path2833" d="m141.46 46.269v64.75c-1.7045 1.6489-2.9467 3.7711-3.5 6.1562h-8.4375l-0.125 5.6562h8.5625c1.2873 5.533 6.2333 9.6562 12.156 9.6562 5.925 0 10.871-4.1205 12.156-9.6562l8.3125-0.0312v-5.6562l-8.3125 0.0312c-0.58668-2.529-1.9466-4.7512-3.8125-6.4375v-64.469h-6.375-4.25-6.375zm4.0625 4.0312h8.9688v57.688h-8.9688v-57.688zm4.5938 62.188c4.14 0 7.5 3.36 7.5 7.5s-3.36 7.5-7.5 7.5-7.5-3.36-7.5-7.5 3.36-7.5 7.5-7.5z" fill-rule="evenodd" fill="#000407"/>
  <rect id="rect2835" height=".96756" width="9.9835" y="68.052" x="144.89"/>
  <rect id="rect2837" height="1.0555" width="9.7196" y="88.067" x="145.06"/>
  <path id="path3987" fill="#d40000" d="m145.81 59.194v-8.6201h4.2221 4.2221v8.6201 8.6201h-4.2221-4.2221v-8.6201z"/>
  <path id="path3989" fill="#d40000" d="m145.81 98.601v-9.3238h4.2221 4.2221v9.3238 9.3238h-4.2221-4.2221v-9.3238z"/>
  <path id="path3991" fill="#00d400" d="m145.81 78.546v-9.3238h4.2221 4.2221v9.3238 9.3238h-4.2221-4.2221v-9.3238z"/>
 </g>
</svg>
