<svg
   xmlns="http://www.w3.org/2000/svg"
   xmlns:xlink="http://www.w3.org/1999/xlink"  
   version="1.1"
   width="60"
   height="60">
   <symbol id="boatyard" width="60" height="60">
    <path d="m 15.930129,0.99981078 28.14006,0 c 8.27122,0 14.93,6.65878002 14.93,14.93000022 l 0,28.14006 c 0,8.27122 -6.65878,14.93 -14.93,14.93 l -28.14006,0 c -8.2712198,0 -14.9299998,-6.65878 -14.9299998,-14.93 l 0,-28.14006 c 0,-8.2712202 6.65878,-14.93000022 14.9299998,-14.93000022 z"
     style="fill:#ffffff;fill-opacity:0.50196078;stroke:#a30075;stroke-width:2.00025845" />
    <path d="m 18.430085,4.9258399 -3.53125,3.5625 3.53125,3.5000001 c 0.26609,0.24013 0.48436,0.50473 0.6875,0.78125 l -0.78125,6.15625 -6.125,0.84375 c -0.15744,-0.11254 -0.32113,-0.21052 -0.46875,-0.34375 -0.12328,-0.11125 -0.26313,-0.22062 -0.375,-0.34375 l 0,-0.0312 -0.0312,0 -3.5000001,-3.5 -3.53125,3.53125 3.34375,3.3125 c 0.23176,0.25757 0.4932,0.51825 0.7499997,0.75 2.9965504,2.70442 7.2244704,3.23868 10.7187504,1.71875 0.0957,0.12309 0.16803,0.26178 0.28125,0.375 l 26.46875,26.46875 c 1.46216,1.46216 3.81909,1.46216 5.28125,0 1.46217,-1.46217 1.46216,-3.81908 0,-5.28125 l -26.4688,-26.4688 c -0.12185,-0.12185 -0.2418,-0.21096 -0.375,-0.3125 1.57723,-3.73691 0.75838,-8.23208 -2.3125,-11.1562501 l -3.5625,-3.5625 z"
     style="fill:#a30075" />
   </symbol>
   <use xlink:href="#boatyard" x="0" y="0"/>
</svg>
