<svg
   xmlns="http://www.w3.org/2000/svg"
   xmlns:xlink="http://www.w3.org/1999/xlink"  
   version="1.1"
   width="60"
   height="60">
  <symbol id="chandler" width="60" height="60" >
    <rect width="58" height="58" rx="15" ry="15" x="1" y="1"
       style="fill:none;stroke:#a30075;stroke-width:2" />
    <path
       d="M 15.686427,57.860561 C 13.521123,57.782287 12.676293,57.63668 11.110081,57.071829 8.8348428,56.25127 6.4474086,54.496458 4.9995481,52.580466 3.5583916,50.673345 2.8340141,49.091162 2.321925,46.732008 l -0.2388459,-1.100343 -0.00317,-15.625 -0.00317,-15.625 0.2420169,-1.100343 c 0.1331072,-0.60519 0.376048,-1.487075 0.5398664,-1.959746 1.506931,-4.348005 5.2722828,-7.7518434 9.8087366,-8.8669949 1.533426,-0.3769468 4.997035,-0.4418346 19.586253,-0.3669315 14.65283,0.07523 14.28778,0.059566 16.182584,0.6943832 3.550264,1.1894476 6.434283,3.701869 8.062475,7.0236463 0.492813,1.0054199 0.637428,1.3942239 0.992805,2.6692059 0.238434,0.855427 0.27642,1.263605 0.369685,3.972458 0.141483,4.109344 0.05274,29.188766 -0.106124,29.990522 -0.869091,4.386207 -3.564183,8.020091 -7.391795,9.966609 -1.04951,0.533724 -1.8098,0.820571 -3.056052,1.153006 -0.719113,0.191822 -1.304687,0.239216 -3.866526,0.31294 -3.608734,0.103852 -24.817087,0.09632 -27.754237,-0.0099 l 0,3e-6 z"
       style="fill:#ffffff;fill-opacity:0.5;stroke:none" />
    <path
       d="m 25.970339,7.9290256 c -7.973695,0.268701 -14.2687,6.9949624 -14,14.9687504 l 0,17.375 -2.4062495,0 -2.5,0 0,2.53125 0,0.03125 0,2.46875 2.5,0 2.4062495,0 0,5.5 5,0 0,-5.5 18.96875,0 0,5.5 2.53125,0 2.5,0 0,-5.5 0.6875,0 c 0.241922,0.426125 0.544681,0.825929 0.90625,1.1875 1.053714,1.053722 2.732894,1.84375 4.718754,1.84375 1.985861,0 3.665031,-0.790028 4.718751,-1.84375 1.05371,-1.053721 1.625,-2.411348 1.625,-3.875 l 0,-0.15625 -0.0312,-0.15625 c -6e-5,-0.0011 -0.0312,0.0011 -0.0312,0 -0.0751,-1.343389 -0.58353,-2.583512 -1.5625,-3.5625 -1.05372,-1.053722 -2.73289,-1.84375 -4.718751,-1.84375 -1.98592,0 -3.66511,0.789952 -4.718754,1.84375 -0.45568,0.455749 -0.797801,0.981707 -1.0625,1.53125 l -0.53125,0 c 0,-6.15625 0,-12.3125 0,-18.46875 l -0.03125,0 C 40.600771,13.893056 33.900137,7.6618126 25.970439,7.9290256 z m 0.1875,5.0000004 c 5.254318,-0.177058 9.574165,3.879181 9.78125,9.125 0,6.072917 0,12.145833 0,18.21875 l -18.96875,0 0,-17.53125 c -0.177695,-5.273187 3.914382,-9.634803 9.1875,-9.8125 z m 21.125004,26.40625 c 0.49937,0 1.08134,0.206325 1.65625,0.78125 0.574921,0.574925 1.031251,1.478412 1.031251,2.5 0,1.021588 -0.45633,1.925075 -1.031251,2.5 -0.57491,0.574926 -1.15688,0.75 -1.65625,0.75 -0.49937,0 -1.05008,-0.175074 -1.625,-0.75 -0.57491,-0.574925 -1.03125,-1.478412 -1.03125,-2.5 0,-1.021883 0.45643,-1.925093 1.03125,-2.5 0.57482,-0.574907 1.12523,-0.78125 1.625,-0.78125 z"
       style="fill:#a30075;fill-opacity:1;stroke:none" />
  </symbol>
  <use xlink:href="#chandler" x="0" y="0" />
</svg>
