<svg
   xmlns="http://www.w3.org/2000/svg"
   xmlns:xlink="http://www.w3.org/1999/xlink"  
   version="1.1"
   width="300"
   height="400">
  <symbol id="church" width="300" height="400">
    <path d="m 129,150 0,2.0625 c 6.1706,0.51092 11,5.6301 11,11.9375 l 0,26 -26,0 c -6.3069,0 -11.4265,-4.8294 -11.9375,-11 l -2.0625,0 0,42 2.0625,0 c 0.51092,-6.1706 5.6301,-11 11.9375,-11 l 26,0 0,26 c 0,6.3069 -4.8294,11.4265 -11,11.9375 l 0,2.0625 42,0 0,-2.0625 C 164.83,247.4275 160,242.31 160,236 l 0,-26 26,0 c 6.3069,0 11.4265,4.8294 11.9375,11 l 2.0625,0 0,-42 -2.0625,0 c -0.51092,6.1706 -5.6301,11 -11.9375,11 l -26,0 0,-26 c 0,-6.3069 4.8294,-11.4265 11,-11.9375 l 0,-2.0625 -42,0 z"/>
  </symbol>
  <use xlink:href="#church" x="0" y="0" />
</svg>
