<?xml version="1.0" encoding="UTF-8" standalone="no"?>
<svg id="svg2" xmlns:rdf="http://www.w3.org/1999/02/22-rdf-syntax-ns#" xmlns="http://www.w3.org/2000/svg" height="400" width="300" version="1.0" xmlns:cc="http://creativecommons.org/ns#" xmlns:dc="http://purl.org/dc/elements/1.1/">
 <metadata id="metadata2913">
  <rdf:RDF>
   <cc:Work rdf:about="">
    <dc:format>image/svg+xml</dc:format>
    <dc:type rdf:resource="http://purl.org/dc/dcmitype/StillImage"/>
    <dc:title/>
   </cc:Work>
  </rdf:RDF>
 </metadata>
 <g id="g3714" transform="translate(0,60)">
  <g id="g3734">
   <g id="g3716">
    <path id="path3718" d="m108.23 137.17v5.6562h29.688c1.2873 5.533 6.2333 9.6562 12.156 9.6562 5.925 0 10.871-4.1205 12.156-9.6562h29.844v-0.0625-5.5938h-83.844zm54 0c-1.2853-5.5357-6.2313-9.6562-12.156-9.6562-5.923 0.00001-10.869 4.1233-12.156 9.6562h24.312zm-12.156-4.6875c4.14 0 7.5 3.36 7.5 7.5s-3.36 7.5-7.5 7.5-7.5-3.36-7.5-7.5 3.36-7.5 7.5-7.5z" fill-rule="evenodd" fill="#000407"/>
    <path id="path3720" d="m15.636 156.98c-3.1145-15.327 5.8891-30.531 20.985-35.435" transform="matrix(1.4165 .47394 -.48207 1.4407 172.66 -93.634)" stroke="#000" stroke-width="4.6468" fill="none"/>
    <path id="path3722" d="m110.54 99.547c7.819 2.7107 13.709 9.3194 15.584 17.485" transform="matrix(1.8607 .62259 -.61354 1.8337 19.201 -153.27)" stroke="#000" stroke-width="3.5938" fill="none"/>
   </g>
   <rect id="rect3728" transform="matrix(.94832 .31730 -.31730 .94832 0 0)" height=".82490" width="49.832" y="66.225" x="162.28"/>
  </g>
  <path id="path10300" d="m167.65 185.89c-5.76-1.94-15.44-5.18-21.5-7.21l-11.021-3.6911 0.58266-0.53433c3.7586-3.4468 7.0434-5.7244 11.075-7.679 4.9454-2.3977 9.9704-3.7767 15.41-4.2288 1.0564-0.0878 1.2707-0.0851 1.4642 0.0185 0.36753 0.1967 3.2787 3.0783 4.3162 4.2724 2.5482 2.9328 4.6881 6.1484 6.3287 9.5104 2.0025 4.1035 3.1203 7.6966 3.9928 12.835 0.0254 0.14938 0.003 0.2297-0.0638 0.22643-0.0567-0.003-4.8193-1.5875-10.583-3.5216z" transform="translate(0,-60)" fill="#ffd400"/>
  <path id="path10302" d="m123.2 197.1c0.00018-0.035 0.12893-0.61287 0.28612-1.2842 1.3462-5.7494 4.0095-11.403 7.6113-16.158 1.1391-1.5038 3.1964-3.8731 3.3672-3.8778 0.0315-0.00086 9.9353 3.3004 22.008 7.3361 19.167 6.4068 21.956 7.3601 21.99 7.5146 0.16844 0.76512 0.37297 5.6259 0.26168 6.2192l-0.0588 0.31331-8.1826-0.00042-8.1826-0.00042-0.31569-0.97046c-1.26-3.8734-4.1446-6.7921-7.976-8.0705-1.3734-0.45826-2.2652-0.59391-3.9143-0.59542-1.0484-0.00096-1.6561 0.0409-2.2728 0.1565-2.5298 0.47428-4.7409 1.6399-6.5672 3.4619-1.6296 1.6258-2.5994 3.3048-3.3062 5.7242l-0.0738 0.25253-7.3376 0.0215c-4.0357 0.0118-7.3375-0.007-7.3373-0.0421z" transform="translate(0,-60)"/>
 </g>
</svg>
