<?xml version="1.0" encoding="UTF-8" standalone="no"?>
<svg id="svg2" xmlns:rdf="http://www.w3.org/1999/02/22-rdf-syntax-ns#" xmlns="http://www.w3.org/2000/svg" height="400" width="300" version="1.0" xmlns:cc="http://creativecommons.org/ns#" xmlns:dc="http://purl.org/dc/elements/1.1/">
 <metadata id="metadata2913">
  <rdf:RDF>
   <cc:Work rdf:about="">
    <dc:format>image/svg+xml</dc:format>
    <dc:type rdf:resource="http://purl.org/dc/dcmitype/StillImage"/>
    <dc:title/>
   </cc:Work>
  </rdf:RDF>
 </metadata>
 <g id="g3714" transform="translate(0,60)">
  <g id="g3734">
   <g id="g3716">
    <path id="path3718" d="m108.23 137.17v5.6562h29.688c1.2873 5.533 6.2333 9.6562 12.156 9.6562 5.925 0 10.871-4.1205 12.156-9.6562h29.844v-0.0625-5.5938h-83.844zm54 0c-1.2853-5.5357-6.2313-9.6562-12.156-9.6562-5.923 0.00001-10.869 4.1233-12.156 9.6562h24.312zm-12.156-4.6875c4.14 0 7.5 3.36 7.5 7.5s-3.36 7.5-7.5 7.5-7.5-3.36-7.5-7.5 3.36-7.5 7.5-7.5z" fill-rule="evenodd" fill="#000407"/>
    <path id="path3720" d="m15.636 156.98c-3.1145-15.327 5.8891-30.531 20.985-35.435" transform="matrix(1.4165 .47394 -.48207 1.4407 172.66 -93.634)" stroke="#000" stroke-width="4.6468" fill="none"/>
    <path id="path3722" d="m110.54 99.547c7.819 2.7107 13.709 9.3194 15.584 17.485" transform="matrix(1.8607 .62259 -.61354 1.8337 19.201 -153.27)" stroke="#000" stroke-width="3.5938" fill="none"/>
   </g>
   <rect id="rect3728" transform="matrix(.94832 .31730 -.31730 .94832 0 0)" height=".82490" width="49.832" y="69.339" x="162.52"/>
   <rect id="rect3730" transform="matrix(.94832 .31730 -.31730 .94832 0 0)" height=".70672" width="49.989" y="61.613" x="161.11"/>
  </g>
  <path id="path7528" d="m158.52 177.9c-10.209-3.4209-18.72-6.265-18.914-6.3202-0.29493-0.0841-0.17262-0.23098 0.75322-0.90466 6.4252-4.6753 13.42-7.2379 22.163-8.12l0.99723-0.10061 1.7122 1.6204c4.9671 4.7009 8.977 10.999 11.139 17.497 0.45404 1.3644 0.79968 2.496 0.7681 2.5146-0.0316 0.0186-8.4101-2.7652-18.619-6.1861z" transform="translate(0,-60)" stroke="#000" stroke-width=".17678" fill="#00d400"/>
  <path id="path7530" d="m123.25 196.96c0-0.39927 1.2955-4.7988 1.8642-6.3304 0.73144-1.9703 2.4772-5.5502 3.6085-7.3999 0.9254-1.513 3.3434-4.8615 3.5102-4.861 0.0667 0.00019 10.542 3.4915 23.279 7.7586l23.158 7.7582v1.5664 1.5664l-8.1611 0.0459-8.1611 0.046-0.30173-0.92984c-0.81943-2.5253-2.8003-5.1349-5.0387-6.6379-5.6791-3.8134-13.404-2.2805-17.37 3.447-0.5736 0.82835-1.7093 3.3537-1.7124 3.8079-0.002 0.28962-0.47018 0.30936-7.3384 0.30936-4.0349 0-7.3362-0.066-7.3362-0.14665z" transform="translate(0,-60)" stroke="#000" stroke-width=".17678" fill="#00d400"/>
  <path id="path7532" d="m155.65 185.11c-12.368-4.1531-22.535-7.5989-22.594-7.6575-0.12569-0.12569 3.3414-3.653 4.5575-4.6367l0.84243-0.68143 19.398 6.4989c10.669 3.5744 19.455 6.5493 19.525 6.611 0.18448 0.16383 0.64812 2.4708 0.94296 4.6921 0.31363 2.3628 0.31874 2.755 0.0357 2.738-0.12153-0.007-10.34-3.4112-22.708-7.5643z" transform="translate(0,-60)" stroke="#000" stroke-width=".17678" fill="#d40000"/>
 </g>
</svg>
