<?xml version="1.0" encoding="UTF-8" standalone="no"?>
<svg id="svg2" xmlns:rdf="http://www.w3.org/1999/02/22-rdf-syntax-ns#" xmlns="http://www.w3.org/2000/svg" height="400" width="300" version="1.0" xmlns:cc="http://creativecommons.org/ns#" xmlns:dc="http://purl.org/dc/elements/1.1/">
 <metadata id="metadata2913">
  <rdf:RDF>
   <cc:Work rdf:about="">
    <dc:format>image/svg+xml</dc:format>
    <dc:type rdf:resource="http://purl.org/dc/dcmitype/StillImage"/>
    <dc:title/>
   </cc:Work>
  </rdf:RDF>
 </metadata>
 <g id="g3666" transform="translate(0,80)">
  <path id="path3668" d="m141.43 110.96c-1.7045 1.6489-2.9247 3.8387-3.478 6.2238l-41.906-0.022 0.0289 5.6343 41.834 0.044c1.2873 5.533 6.2553 9.7442 12.178 9.7442 5.925 0 10.893-4.2085 12.178-9.7442l41.759-0.0312-0.044-5.6343-41.737 0.009c-0.58668-2.529-1.8222-4.5108-3.6881-6.1972l-1.5241-1.2736-1.8821-1.211-2.3023-0.71488-2.9098-0.29604-2.864 0.2853-2.1736 0.6878-1.9114 1.1846-1.5571 1.3113zm8.6562 1.6242c4.14 0 7.5 3.36 7.5 7.5s-3.36 7.5-7.5 7.5-7.5-3.36-7.5-7.5 3.36-7.5 7.5-7.5z" fill-rule="evenodd" fill="#000407"/>
  <path id="path3670" d="m138.19 77.255h23.944l5.8269 16.563-35.959 0.0214 6.1877-16.585v-0.00004z" stroke="#000" stroke-width="4.2371" fill="none"/>
  <path id="path3672" d="m113.81 119.97-11.787-35.008 15.957 8.9977 64.123 0.0364 15.884-9.0342-11.963 35.008" stroke="#000" stroke-width="4" fill="none"/>
  <rect id="rect3674" height=".93296" width="81.603" y="103.04" x="109.38"/>
  <path id="path3772" fill="#d40000" d="m135.64 90.556c0.20362-0.51313 1.1995-3.1721 2.2131-5.9088l1.8429-4.9758 10.433-0.0649 10.433-0.0649 2.0309 5.796c1.117 3.1878 2.0309 5.876 2.0309 5.9736 0 0.0977-6.6045 0.17759-14.677 0.17759h-14.677l0.37021-0.93296z"/>
  <path id="path3774" fill="#d40000" d="m114.98 116.8c-0.41483-1.1031-4.0969-12.278-4.0969-12.434 0-0.10583 17.577-0.19242 39.06-0.19242s39.06 0.0944 39.06 0.20982c0 0.17674-1.9405 5.9752-3.7805 11.297l-0.49464 1.4305h-11.18c-8.731 0-11.2-0.0681-11.27-0.31099-1.0116-3.528-3.9581-6.9391-7.289-8.4383-2.8185-1.2685-7.7371-1.1622-10.504 0.22709-2.1561 1.0826-4.329 3.2798-5.4413 5.5021-0.52381 1.0465-1.0181 2.1542-1.0985 2.4614l-0.14609 0.55865h-11.351c-8.8526 0-11.377-0.0684-11.468-0.31099z"/>
  <path id="path3776" fill="#00d400" d="m110.26 102.62c-1.2185-3.4259-4.3068-12.754-4.2435-12.818 0.0474-0.0474 2.5893 1.3468 5.6488 3.0982l5.5626 3.1843 32.716 0.0674 32.716 0.0674 5.5945-3.2198c3.077-1.7709 5.6338-3.1805 5.6818-3.1325s-0.90215 3.0057-2.1114 6.5727l-2.1987 6.4854-39.628 0.003c-31.479 0.002-39.65-0.0612-39.738-0.3082z"/>
 </g>
</svg>
