<svg
   xmlns="http://www.w3.org/2000/svg"
   xmlns:xlink="http://www.w3.org/1999/xlink"  
   version="1.0"
   width="300"
   height="400">
  <symbol id="float" width="300" height="400">
    <path d="m 136.84375,155.15625 c -0.0152,-7.6e-4 -4.00421,10.55247 -6.34375,16.8125 l -12.03125,0 c -6.66403,-3.76512 -13.32643,-7.53308 -20,-11.28125 4.14705,12.1521 8.21594,24.3308 12.3125,36.5 l -14.71875,0 0.03125,5.625 41.84375,0.0625 c 1.2873,5.533 6.23355,9.71875 12.15625,9.71875 5.925,0 10.9025,-4.18305 12.1875,-9.71875 l 41.75,-0.0312 -0.0312,-5.65625 -14.90625,0 c 4.15883,-12.19017 8.38122,-24.35871 12.5,-36.5625 -6.65513,3.84047 -13.34917,7.61299 -20.03125,11.40625 l -11.9375,0 c -1.98909,-5.62517 -3.96991,-11.25328 -5.96875,-16.875 -9.76488,0.006 -18.05077,-0.0127 -26.8125,0 z m 2.84375,4.25 20.96875,0 4.34375,12.3125 -29.90625,0.0312 z m -34.09375,9.875 c 3.9545,2.23593 7.92455,4.44444 11.875,6.6875 22.74737,0.0213 45.65409,0.044 65.1875,0.0625 3.91335,-2.26282 7.85222,-4.48289 11.78125,-6.71875 l -9.5625,27.875 -22.625,0.0312 c -0.58668,-2.529 -1.8216,-4.53235 -3.6875,-6.21875 l -1.5,-1.28125 -1.90625,-1.1875 -2.28125,-0.71875 -2.90625,-0.3125 -2.875,0.28125 -2.1875,0.6875 -1.90625,1.1875 -1.5625,1.3125 c -1.7045,1.6489 -2.91545,3.8649 -3.46875,6.25 L 115,197.1875 z m 44.5,23.3125 c 4.14,0 7.5,3.36 7.5,7.5 0,4.14 -3.36,7.5 -7.5,7.5 -4.14,0 -7.5,-3.36 -7.5,-7.5 0,-4.14 3.36,-7.5 7.5,-7.5 z"/>
  </symbol>
  <use xlink:href="#float" x="0" y="0" />
</svg>
