<?xml version="1.0" encoding="UTF-8" standalone="no"?>
<svg id="svg2" xmlns:rdf="http://www.w3.org/1999/02/22-rdf-syntax-ns#" xmlns="http://www.w3.org/2000/svg" height="400" width="300" version="1.0" xmlns:cc="http://creativecommons.org/ns#" xmlns:dc="http://purl.org/dc/elements/1.1/">
 <metadata id="metadata2913">
  <rdf:RDF>
   <cc:Work rdf:about="">
    <dc:format>image/svg+xml</dc:format>
    <dc:type rdf:resource="http://purl.org/dc/dcmitype/StillImage"/>
    <dc:title/>
   </cc:Work>
  </rdf:RDF>
 </metadata>
 <g id="g3666" transform="translate(0,80)">
  <path id="path3668" d="m141.45 110.98c-1.7045 1.6489-2.9247 3.8387-3.478 6.2238l-41.906-0.022 0.0289 5.6343 41.834 0.044c1.2873 5.533 6.2553 9.7442 12.178 9.7442 5.925 0 10.893-4.2085 12.178-9.7442l41.759-0.0312-0.044-5.6343-41.737 0.009c-0.58668-2.529-1.8222-4.5108-3.6881-6.1972l-1.5241-1.2736-1.8821-1.211-2.3023-0.71488-2.9098-0.29604-2.864 0.2853-2.1736 0.6878-1.9114 1.1846-1.5571 1.3113zm8.6562 1.6242c4.14 0 7.5 3.36 7.5 7.5s-3.36 7.5-7.5 7.5-7.5-3.36-7.5-7.5 3.36-7.5 7.5-7.5z" fill-rule="evenodd" fill="#000407"/>
  <path id="path3670" d="m138.22 77.275h23.944l5.8269 16.563-35.959 0.0214 6.1877-16.585v-0.00004z" stroke="#000" stroke-width="4.2371" fill="none"/>
  <path id="path3672" d="m113.83 119.99-11.787-35.008 15.957 8.9977 64.123 0.0364 15.884-9.0342-11.963 35.008" stroke="#000" stroke-width="4" fill="none"/>
  <rect id="rect3674" height=".93296" width="81.603" y="103.06" x="109.41"/>
  <rect id="rect3123" height="0.933" width="28" y="84.936" x="135.44"/>
  <path id="path3905" d="m137.88 164.64c-0.00081-0.0726 0.4148-1.2598 0.92358-2.6384l0.92506-2.5064 10.45 0.0435 10.45 0.0435 0.8438 2.3749c0.46409 1.3062 0.84804 2.4739 0.85321 2.5948 0.007 0.1739-2.5482 0.2199-12.217 0.2199-6.7246 0-12.227-0.0594-12.228-0.13194z" transform="translate(0,-80)" stroke-width="0" fill="#00d400"/>
  <path id="path3907" d="m108.09 176.34c-1.2231-3.6042-2.2236-6.6064-2.2233-6.6717s2.5851 1.3399 5.7439 3.1226l5.7433 3.2412h32.746 32.746l5.4468-3.101c2.9957-1.7056 5.5456-3.1389 5.6664-3.1853 0.12079-0.0464-0.7896 2.8923-2.0231 6.5303l-2.2427 6.6146-39.69 0.001-39.69 0.001-2.2238-6.553z" transform="translate(0,-80)" stroke-width="0" fill="#00d400"/>
  <path id="path3909" d="m135.24 171.59c0.00062-0.0242 0.46439-1.271 1.0306-2.7708l1.0295-2.7268h12.802 12.802l0.94012 2.6388c0.51706 1.4513 0.94197 2.6982 0.94425 2.7708 0.002 0.0726-6.6457 0.13194-14.773 0.13194-8.1275 0-14.777-0.0198-14.776-0.044z" transform="translate(0,-80)" stroke-width="0" fill="#fff"/>
  <path id="path3911" d="m112.92 190.72c-1.1989-3.534-2.1421-6.4631-2.096-6.5092s17.701-0.0638 39.233-0.0394l39.15 0.0444-2.1988 6.4651-2.1988 6.4651h-11.223-11.223l-0.30234-0.92358c-0.70757-2.1614-1.8874-3.9326-3.6247-5.4414-1.6653-1.4463-3.0738-2.3068-4.5454-2.7771-1.1399-0.36429-1.6664-0.42192-3.8703-0.42366-2.1673-0.002-2.7483 0.0588-3.8639 0.40247-3.5619 1.0972-6.7296 4.3597-8.0004 8.2396l-0.3025 0.92358-11.377-0.00024-11.377-0.00024-2.1798-6.4254z" transform="translate(0,-80)" stroke-width="0" fill="#fff"/>
 </g>
</svg>
