<svg
   xmlns="http://www.w3.org/2000/svg"
   xmlns:xlink="http://www.w3.org/1999/xlink"  
   version="1.1"
   width="60"
   height="60">
  <symbol id="fuel" width="60" height="60">
    <rect width="58" height="58" rx="16" ry="16" x="1" y="1"
     style="fill:#ffffff;fill-opacity:0.5;stroke:#a30075;stroke-width:2" />
    <path
     d="m 30.563178,20.485978 c 0,0.5975 -0.4725,1.0625 -1.074,1.0625 h -11.2385 c -0.6055,0 -1.074,-0.465 -1.074,-1.0625 v -9.477001 c 0,-0.5975 0.469,-1.0625004 1.074,-1.0625004 h 11.2385 c 0.6015,0 1.074,0.4650004 1.074,1.0625004 v 9.477001 z m 13.1015,1.2105 c -1.422,-0.3125 -1.9375,-1.043 -1.9375,-1.715 v -2.449 c 0,0 0.9455,0.211 1.172,0.2695 0.461,0.121 0.754,0.828 0.7655,1.4455 0.0155,0.617 0,2.449 0,2.449 z m 2.863,14.879 c 0,-0.0235 -0.3945,-3.008 -0.3945,-3.008 v -13.781 c 0,-1.4765 -0.4845,-2.676 -1.4845,-3.6835 l -6.3825,-6.3515014 c -0.4415,0 -1.66,1.2150004 -1.66,1.2150004 0,0.4415 3.168,3.586001 3.168,3.586001 l -0.094,5.3475 c 0,1.8985 1.543,3.4375 3.449,3.4375 l 0.8555,0.0115 -0.3045,10.219 0.426,3.504 1.918,10.34 c 0.0705,1.6795 -1.465,2.6795 -2.676,2.6795 -1.121,0 -2.422,-0.926 -2.422,-2.121 l 0.0235,-18.121 c 0,-2.203 -1.789,-3.992 -3.992,-3.992 h -3.8515 c 0.2695,-0.0155 0.281,-11.867 0.281,-14.383001 v -0.465 c 0,-2.1445004 -1.75,-3.8905004 -3.8985,-3.8905004 h -11.238 c -2.14849,0 -3.89849,1.746 -3.89849,3.8905004 v 41.074001 l 19.03499,0.3165 0.0195,-23.996 h 3.594 c 0.824,0 1.496,0.672 1.496,1.496 v 18.0705 c 0,2.426 2.2655,4.551 4.8515,4.551 2.4415,0 5.176,-1.9415 5.176,-4.551 -0.043,-0.602 -1.9965,-11.395 -1.9965,-11.395 z"
     style="fill:#a30075" />
  </symbol>
  <use xlink:href="#fuel" x="0" y="0" />
</svg>
