<?xml version="1.0" encoding="UTF-8" standalone="no"?>
<!-- Created with Inkscape (http://www.inkscape.org/) -->

<svg
   xmlns:dc="http://purl.org/dc/elements/1.1/"
   xmlns:cc="http://creativecommons.org/ns#"
   xmlns:rdf="http://www.w3.org/1999/02/22-rdf-syntax-ns#"
   xmlns:svg="http://www.w3.org/2000/svg"
   xmlns="http://www.w3.org/2000/svg"
   version="1.0"
   width="300"
   height="400"
   id="svg2">
  <metadata
     id="metadata13">
    <rdf:RDF>
      <cc:Work
         rdf:about="">
        <dc:format>image/svg+xml</dc:format>
        <dc:type
           rdf:resource="http://purl.org/dc/dcmitype/StillImage" />
        <dc:title></dc:title>
      </cc:Work>
    </rdf:RDF>
  </metadata>
  <defs
     id="defs11" />
  <path
     d="m 110.55836,223.06038 37.1694,0 1.19454,-68.424 1.79688,0 0.29625,14.0064 14.6946,-7.014 -0.0848,6.0912 0.21113,6.081 0.7191,6.0384 1.4376,5.8989 2.12508,5.7057 2.63184,5.4804 3.02394,5.2875 3.62628,4.82562 3.70008,3.85062 -31.1862,6.081 0,6.0918 37.4646,0 -4.0596,4.5264 -4.27104,4.27836 -4.62012,3.80778 -5.15916,3.12126 -5.5707,2.38164 -5.87826,1.65198 -6.0156,0.90072 -6.057,0.14948 -5.99382,-0.5895 -5.85648,-1.35156 -5.68806,-2.12346 -5.39118,-2.84148 -4.93698,-3.5283 -4.36542,-4.19358 -3.7959,-4.67526 -1.16136,-1.51392 z m 9.2922,-3.357 -0.38075,-6.1134 -0.0636,-6.0702 0.58113,-6.0168 1.42716,-5.8986 2.157,-5.7162 2.75844,-5.4801 3.2772,-5.14824 3.83772,-4.67616 4.43976,-4.03272 4.9056,-3.5181 3.12936,-2.05908 -3.23538,5.13714 -2.79072,5.36268 -2.07192,5.71584 -1.34322,5.96358 -0.67638,6.0816 0.0311,6.081 0.80334,6.018 1.19454,5.55564 -17.9802,8.8146"
     id="path5"
     style="fill:#a30075" />
</svg>
