<svg
   xmlns="http://www.w3.org/2000/svg"
   xmlns:xlink="http://www.w3.org/1999/xlink"  
   version="1.1"
   width="300"
   height="400">
  <symbol id="minaret" width="300" height="400">
      <path d="M 190.8125,71.75 A 5.2638649,4.7503798 0 0 0 185.75,77 c 0,8.383211 -3.93141,16.85343 -10.5,22.78125 -6.56859,5.92782 -15.96061,9.46875 -25.25,9.46875 -9.28939,0 -18.71266,-3.54093 -25.28125,-9.46875 C 118.15016,93.85343 114.25,85.383211 114.25,77 A 5.2638649,4.7503798 0 0 0 108.34375,72.1875 5.2638649,4.7503798 0 0 0 103.6875,77 c 0,10.990357 4.95111,21.791144 13.5625,29.5625 7.42994,6.70516 17.34418,10.90084 27.75,11.9375 l 0,67.4375 c -5.02126,1.8086 -8.80266,6.21882 -9.71875,11.59375 l -22.75,0 0,5 22.75,0 c 1.19614,7.07624 7.34519,12.5 14.75,12.5 7.40481,0 13.58511,-5.42376 14.78125,-12.5 l 22.71875,0 0,-5 -22.71875,0 c -0.92176,-5.4082 -4.74498,-9.83781 -9.8125,-11.625 L 155,118.5 c 10.37747,-1.04199 20.23368,-5.23901 27.65625,-11.9375 8.61139,-7.771353 13.5625,-18.572143 13.5625,-29.5625 a 5.2638649,4.7503798 0 0 0 -5.40625,-5.25 z m -40.78125,118.28125 c 5.55246,0 10,4.44754 10,10 0,5.55246 -4.44754,10 -10,10 -5.55246,0 -10,-4.44754 -10,-10 0,-5.55246 4.44754,-10 10,-10 z"
         style="fill:#000000;fill-opacity:1" />
  </symbol>
  <use xlink:href="#minaret" x="0" y="0" />
</svg>
