<?xml version="1.0" encoding="UTF-8" standalone="no"?>
<!-- Created with Inkscape (http://www.inkscape.org/) -->
<svg id="svg2" xmlns:rdf="http://www.w3.org/1999/02/22-rdf-syntax-ns#" xmlns="http://www.w3.org/2000/svg" height="60" width="60" version="1.1" xmlns:cc="http://creativecommons.org/ns#" xmlns:dc="http://purl.org/dc/elements/1.1/">
 <metadata id="metadata7">
  <rdf:RDF>
   <cc:Work rdf:about="">
    <dc:format>image/svg+xml</dc:format>
    <dc:type rdf:resource="http://purl.org/dc/dcmitype/StillImage"/>
    <dc:title/>
   </cc:Work>
  </rdf:RDF>
 </metadata>
 <g id="layer9" transform="translate(0,-60)">
  <g id="g6710" transform="matrix(.97035 0 0 .97035 -28.221 31.779)">
   <g id="layer1-2" transform="translate(-290 -472.36)">
    <g id="g3736" transform="matrix(.84290 0 0 .84292 54.984 83.625)">
     <path id="path20078" d="m319.31 565.58h-0.0197c-0.10944-0.00098-0.21765-0.009-0.32587-0.0233-0.10821-0.0148-0.21519-0.0369-0.32094-0.0664-0.10575-0.027-0.20904-0.0628-0.30988-0.10452-0.10083-0.0418-0.19797-0.091-0.29143-0.14756-0.0946-0.0541-0.18568-0.11435-0.27299-0.18198-0.0861-0.0664-0.16723-0.13773-0.2447-0.21642-0.0775-0.0762-0.15002-0.1574-0.21642-0.2447-0.0664-0.0861-0.12666-0.17708-0.18076-0.27176-0.0553-0.0934-0.10453-0.19182-0.14634-0.29266-0.043-0.10083-0.0774-0.20412-0.10575-0.30864-0.0307-0.10575-0.0529-0.21273-0.0677-0.32094-0.016-0.10821-0.0234-0.21642-0.0221-0.32586v-61.426c0-0.10943 0.009-0.21887 0.0234-0.32585 0.0135-0.10821 0.0356-0.21519 0.0664-0.32094 0.0271-0.10575 0.0615-0.20905 0.10452-0.30988 0.0418-0.10083 0.091-0.19797 0.14757-0.29143 0.0541-0.0946 0.11435-0.18567 0.18076-0.27298 0.0664-0.0861 0.13895-0.16723 0.21642-0.2447 0.0775-0.0774 0.15863-0.15002 0.2447-0.21642 0.0874-0.0664 0.17831-0.12665 0.27299-0.18199 0.0935-0.0541 0.19183-0.10329 0.29143-0.1451 0.10084-0.043 0.20413-0.0774 0.30988-0.10575 0.10575-0.0307 0.21273-0.0529 0.32094-0.0677 0.10822-0.016 0.21643-0.0234 0.32587-0.0221h61.427c0.10944 0 0.21766 0.009 0.32587 0.0221 0.10821 0.0148 0.21519 0.0369 0.32094 0.0677 0.10575 0.0271 0.20904 0.0615 0.30988 0.10452 0.10083 0.0418 0.19797 0.091 0.29266 0.14633 0.0935 0.0553 0.18445 0.11559 0.27053 0.18199 0.0874 0.0664 0.16846 0.13895 0.24593 0.21642 0.0775 0.0775 0.15002 0.15862 0.21642 0.2447 0.0664 0.0874 0.12666 0.1783 0.18077 0.27298 0.0566 0.0935 0.10452 0.1906 0.14633 0.29143 0.0418 0.10083 0.0774 0.20535 0.10575 0.30988 0.0295 0.10575 0.0529 0.21273 0.0677 0.32094 0.016 0.10698 0.0234 0.21642 0.0221 0.32585v61.426c0 0.10944-0.007 0.21765-0.0221 0.32586-0.0148 0.10821-0.0381 0.21519-0.0677 0.32094-0.027 0.10452-0.0615 0.20904-0.10452 0.30987-0.0418 0.0996-0.091 0.19798-0.14756 0.29143-0.0541 0.0947-0.11436 0.18568-0.18077 0.27176-0.0664 0.0874-0.13895 0.16846-0.21642 0.2447-0.0775 0.0787-0.15863 0.15124-0.24593 0.21765-0.0861 0.0664-0.17708 0.12665-0.27053 0.18075-0.0946 0.0553-0.19183 0.10453-0.29266 0.14633-0.10084 0.0418-0.20413 0.0775-0.30988 0.10575-0.10575 0.0295-0.21273 0.0528-0.32094 0.0676-0.10821 0.016-0.21643 0.0221-0.32587 0.0221h-0.0197-61.388z" fill-rule="evenodd" fill="#e72512"/>
     <path id="path20082" stroke-linejoin="bevel" d="m318.8 567.75h62.435c0.18125-0.001 0.3625-0.0137 0.54125-0.0375 0.17875-0.025 0.35625-0.0612 0.53125-0.11125 0.175-0.045 0.3475-0.10375 0.51375-0.17375s0.32875-0.15125 0.48375-0.24375c0.1575-0.09 0.30875-0.19125 0.45125-0.30125 0.14375-0.11 0.28-0.23 0.4075-0.35875 0.12875-0.1275 0.24875-0.2625 0.35875-0.40625s0.21125-0.29375 0.30125-0.45125c0.0913-0.15625 0.1725-0.31875 0.24125-0.485 0.0712-0.1675 0.12875-0.33875 0.17625-0.51375 0.0487-0.17375 0.0863-0.3525 0.1125-0.53125 0.025-0.17875 0.0375-0.36 0.0362-0.54v-62.469c-0.001-0.18125-0.0138-0.36125-0.0387-0.54-0.0238-0.18-0.0613-0.3575-0.11-0.5325-0.045-0.175-0.10375-0.34625-0.17375-0.51375-0.07-0.16625-0.1525-0.32875-0.24375-0.48375-0.0913-0.1575-0.19125-0.3075-0.30125-0.45125s-0.23-0.27875-0.35875-0.40625c-0.1275-0.12875-0.26375-0.24875-0.4075-0.36-0.1425-0.11-0.29375-0.21-0.45125-0.3-0.155-0.0913-0.3175-0.1725-0.48375-0.2425-0.1675-0.07-0.33875-0.12875-0.51375-0.175-0.175-0.05-0.3525-0.0875-0.53125-0.1125s-0.36-0.0375-0.54125-0.0362h-62.468c-0.18125 0-0.36125 0.0138-0.54125 0.0375-0.18 0.0238-0.3575 0.0613-0.53125 0.11125-0.175 0.045-0.3475 0.1025-0.51375 0.1725-0.1675 0.0713-0.32875 0.1525-0.485 0.245-0.15625 0.09-0.3075 0.19-0.45 0.3-0.14375 0.11125-0.28 0.23125-0.4075 0.36-0.12875 0.1275-0.24875 0.2625-0.35875 0.40625s-0.21125 0.29375-0.30125 0.45125c-0.0913 0.15625-0.1725 0.3175-0.2425 0.485-0.07 0.16625-0.12875 0.33875-0.175 0.5125-0.05 0.175-0.0875 0.3525-0.1125 0.5325-0.025 0.17875-0.0375 0.35875-0.0362 0.54v62.469c0.001 0.18 0.0138 0.36125 0.0387 0.54 0.0238 0.18 0.06 0.3575 0.11 0.53125 0.045 0.175 0.10375 0.3475 0.17375 0.51375 0.07 0.1675 0.15125 0.32875 0.24375 0.485 0.09 0.15625 0.19125 0.3075 0.30125 0.45125s0.23 0.27875 0.35875 0.40625c0.1275 0.12875 0.26375 0.24875 0.4075 0.35875 0.1425 0.11 0.29375 0.21125 0.45 0.30125 0.15625 0.0912 0.31875 0.1725 0.485 0.2425 0.1675 0.07 0.33875 0.12875 0.51375 0.175 0.175 0.05 0.3525 0.0875 0.53125 0.1125 0.18 0.025 0.36 0.0375 0.54125 0.0362h0.0325z" stroke="#231f20" stroke-miterlimit="22.926" stroke-width=".27825" fill="none"/>
     <path id="path20086" stroke-linejoin="bevel" d="m318.8 567.82h-0.0337c-0.18375-0.001-0.3675-0.0137-0.54875-0.0388-0.1825-0.025-0.36375-0.0625-0.54-0.1125-0.17875-0.045-0.3525-0.105-0.5225-0.17625-0.17-0.0713-0.33375-0.15375-0.4925-0.2475-0.15875-0.0925-0.3125-0.19375-0.4575-0.30625-0.14625-0.1125-0.28375-0.23375-0.41375-0.365-0.13125-0.12875-0.2525-0.26625-0.365-0.4125s-0.21375-0.3-0.30625-0.45875-0.175-0.32375-0.24625-0.4925c-0.07-0.17-0.13-0.34375-0.1775-0.5225-0.05-0.17625-0.0888-0.3575-0.11375-0.54-0.0263-0.18125-0.0387-0.365-0.0375-0.54875v-62.469c0.001-0.18375 0.0138-0.3675 0.0387-0.55 0.025-0.1825 0.0625-0.3625 0.1125-0.53875 0.0462-0.17875 0.105-0.35375 0.17625-0.52375 0.0713-0.16875 0.15375-0.33375 0.2475-0.49125 0.0925-0.15875 0.195-0.3125 0.30625-0.45875 0.1125-0.14625 0.23375-0.28375 0.365-0.41375 0.12875-0.13 0.2675-0.2525 0.4125-0.36375 0.14625-0.1125 0.3-0.215 0.45875-0.30625 0.15875-0.0937 0.32375-0.17625 0.4925-0.24625 0.17-0.0713 0.345-0.13125 0.5225-0.17875 0.17625-0.05 0.3575-0.0888 0.54-0.11375 0.18125-0.0263 0.365-0.0375 0.54875-0.0362h62.47c0.18375 0.001 0.3675 0.0137 0.54875 0.0375 0.1825 0.025 0.3625 0.0625 0.54 0.1125 0.17875 0.0462 0.3525 0.105 0.5225 0.1775 0.17 0.0713 0.33375 0.15375 0.4925 0.2475 0.15875 0.0913 0.3125 0.19375 0.4575 0.30625 0.14625 0.11125 0.28375 0.23375 0.41375 0.36375 0.13125 0.13 0.2525 0.2675 0.365 0.41375s0.21375 0.29875 0.30625 0.45875c0.0925 0.15875 0.175 0.3225 0.24625 0.4925 0.0713 0.17 0.13 0.34375 0.1775 0.5225 0.0512 0.17625 0.0888 0.3575 0.115 0.53875 0.025 0.1825 0.0375 0.36625 0.0362 0.55v62.469c-0.001 0.18375-0.0138 0.3675-0.0387 0.55-0.025 0.18125-0.0625 0.3625-0.1125 0.53875-0.0462 0.17875-0.105 0.3525-0.17625 0.5225-0.0713 0.17-0.15375 0.33375-0.2475 0.4925-0.0925 0.15875-0.19375 0.3125-0.30625 0.45875-0.1125 0.145-0.23375 0.28375-0.365 0.4125-0.13 0.13125-0.2675 0.25375-0.41375 0.365-0.145 0.1125-0.29875 0.215-0.4575 0.30625-0.15875 0.0925-0.32375 0.175-0.4925 0.24625-0.17 0.0712-0.345 0.13-0.5225 0.1775-0.1775 0.0512-0.3575 0.0888-0.54 0.115-0.18125 0.025-0.365 0.0375-0.54875 0.0362h-62.436z" stroke="#000" stroke-miterlimit="22.926" stroke-width="2.4452" fill="none"/>
     <path id="path20090" d="m366.47 556.56-40.09-40.09v40.09h40.09" fill-rule="evenodd" fill="#fff"/>
     <path id="path20094" d="m373.62 549.41v-40.09h-40.09l40.09 40.09" fill-rule="evenodd" fill="#fff"/>
    </g>
   </g>
  </g>
 </g>
</svg>
