<?xml version="1.0" encoding="UTF-8" standalone="no"?>
<!-- Created with Inkscape (http://www.inkscape.org/) -->
<svg id="svg2" xmlns:rdf="http://www.w3.org/1999/02/22-rdf-syntax-ns#" xmlns="http://www.w3.org/2000/svg" height="60" width="60" version="1.1" xmlns:cc="http://creativecommons.org/ns#" xmlns:dc="http://purl.org/dc/elements/1.1/">
 <metadata id="metadata7">
  <rdf:RDF>
   <cc:Work rdf:about="">
    <dc:format>image/svg+xml</dc:format>
    <dc:type rdf:resource="http://purl.org/dc/dcmitype/StillImage"/>
    <dc:title/>
   </cc:Work>
  </rdf:RDF>
 </metadata>
 <g id="layer17" transform="translate(0,-60)">
  <g id="g6968" transform="matrix(.97035 0 0 .97035 -28.221 31.779)">
   <g id="layer1-38" transform="translate(17.143 -55.219)">
    <g id="g2935" transform="matrix(.84346 0 0 .84345 6.7088 18.038)">
     <path id="path20262" stroke-linejoin="bevel" d="m12.148 150.58h61.418 0.0175 0.01875c0.20125-0.001 0.4025-0.015 0.60125-0.0425 0.2-0.0275 0.3975-0.0675 0.59125-0.1225 0.195-0.0513 0.385-0.115 0.57125-0.19375 0.18625-0.0775 0.36625-0.16875 0.53875-0.27125 0.175-0.1 0.3425-0.2125 0.5025-0.335 0.15875-0.1225 0.31-0.25625 0.45125-0.39875 0.14375-0.14125 0.2775-0.2925 0.4-0.4525 0.1225-0.15875 0.235-0.3275 0.335-0.50125 0.10125-0.17375 0.19125-0.35375 0.26875-0.54 0.0775-0.185 0.1425-0.37625 0.195-0.57125 0.055-0.19375 0.0975-0.39125 0.125-0.59125 0.02875-0.19875 0.04125-0.4 0.04-0.6v-61.491c-0.0012-0.20125-0.015-0.40125-0.0425-0.60125-0.02625-0.19875-0.0675-0.39625-0.1225-0.59-0.05-0.195-0.115-0.38625-0.1925-0.57125-0.07875-0.18625-0.16875-0.36625-0.27125-0.54-0.10125-0.175-0.2125-0.3425-0.335-0.50125-0.1225-0.16-0.25625-0.31125-0.4-0.4525-0.14125-0.1425-0.2925-0.27625-0.45125-0.39875-0.16-0.12375-0.3275-0.235-0.5025-0.335-0.1725-0.1025-0.35375-0.1925-0.53875-0.27-0.18625-0.0775-0.3775-0.1425-0.57125-0.195-0.19375-0.055-0.39125-0.09625-0.59125-0.125-0.19875-0.0275-0.4-0.04125-0.60125-0.04h-61.49c-0.20125 0.0012-0.4025 0.015-0.60125 0.0425-0.2 0.0275-0.3975 0.0675-0.59125 0.1225-0.195 0.05125-0.38625 0.115-0.57125 0.19375-0.18625 0.0775-0.36625 0.16875-0.53875 0.27125-0.175 0.1-0.3425 0.21125-0.5025 0.335-0.15875 0.1225-0.31 0.25625-0.45125 0.39875-0.14375 0.14125-0.2775 0.2925-0.4 0.4525-0.1225 0.15875-0.235 0.32625-0.33375 0.50125-0.1025 0.17375-0.1925 0.35375-0.27 0.54-0.0775 0.185-0.14375 0.37625-0.19625 0.57125-0.05375 0.19375-0.09625 0.39125-0.12375 0.59-0.02875 0.2-0.04125 0.4-0.04 0.60125v0.01875l-0.00125 0.01875v61.416l0.00125 0.0188v0.0187c0.00125 0.20125 0.015 0.40125 0.04125 0.60125 0.0275 0.19875 0.06875 0.39625 0.1225 0.59 0.05125 0.195 0.11625 0.38625 0.19375 0.5725 0.07875 0.185 0.16875 0.365 0.2725 0.53875 0.1 0.17375 0.21125 0.34125 0.33375 0.50125s0.25625 0.31125 0.4 0.4525c0.14125 0.1425 0.2925 0.27625 0.45125 0.39875 0.16 0.1225 0.3275 0.235 0.5025 0.335 0.1725 0.1025 0.35375 0.1925 0.53875 0.27 0.18625 0.0775 0.37625 0.1425 0.57125 0.195 0.19375 0.055 0.39125 0.0962 0.59125 0.125 0.19875 0.0275 0.4 0.0412 0.60125 0.04h0.01875 0.0175z" stroke="#231f20" stroke-miterlimit="22.926" stroke-width=".27825" fill="none"/>
     <path id="path20266" stroke-linejoin="bevel" d="m12.148 150.65h-0.03625c-0.205-0.001-0.40875-0.015-0.61125-0.0425s-0.4025-0.07-0.59875-0.125c-0.1975-0.0513-0.39125-0.11625-0.58-0.19625-0.18875-0.0788-0.37125-0.17125-0.54625-0.275-0.1775-0.1025-0.3475-0.215-0.51-0.34-0.16125-0.12375-0.315-0.26-0.45875-0.405-0.145-0.14375-0.28-0.29625-0.405-0.45875-0.125-0.16125-0.2375-0.33125-0.33875-0.50875-0.10375-0.17625-0.195-0.35875-0.27375-0.5475s-0.145-0.38125-0.1975-0.57875c-0.05625-0.1975-0.09875-0.3975-0.1275-0.6s-0.0425-0.40625-0.04-0.61v-61.491c0.00125-0.20375 0.015-0.4075 0.0425-0.61s0.06875-0.4025 0.125-0.6c0.05-0.1975 0.11625-0.39125 0.195-0.57875 0.08-0.18875 0.17125-0.37125 0.27625-0.5475 0.10125-0.17625 0.215-0.34625 0.33875-0.50875 0.125-0.16125 0.26-0.315 0.405-0.45875 0.14375-0.145 0.2975-0.28125 0.45875-0.40625 0.1625-0.12375 0.3325-0.23625 0.51-0.33875 0.175-0.10375 0.3575-0.195 0.54625-0.27375s0.3825-0.145 0.58-0.1975c0.19625-0.05625 0.39625-0.0975 0.6-0.12625 0.20125-0.02875 0.405-0.0425 0.61-0.04125h61.491c0.20375 0.0012 0.4075 0.01625 0.61 0.04375 0.20125 0.0275 0.4025 0.06875 0.59875 0.12375 0.1975 0.05125 0.39125 0.1175 0.58 0.19625s0.37125 0.17125 0.54625 0.275c0.1775 0.1025 0.3475 0.21625 0.50875 0.34 0.1625 0.125 0.31625 0.26 0.46 0.405 0.145 0.14375 0.28 0.2975 0.405 0.45875 0.125 0.1625 0.2375 0.33125 0.33875 0.50875 0.10375 0.17625 0.195 0.35875 0.27375 0.5475s0.145 0.38125 0.1975 0.57875c0.05625 0.1975 0.09875 0.3975 0.1275 0.6 0.0275 0.2025 0.04125 0.40625 0.04 0.61v61.491c-0.0012 0.20375-0.015 0.4075-0.0425 0.61s-0.06875 0.4025-0.125 0.6c-0.05125 0.1975-0.11625 0.39125-0.19625 0.58-0.07875 0.1875-0.17125 0.37-0.275 0.54625-0.10125 0.1775-0.215 0.3475-0.33875 0.50875-0.125 0.1625-0.26 0.315-0.405 0.45875-0.14375 0.145-0.2975 0.28125-0.46 0.405-0.16125 0.125-0.33125 0.23875-0.50875 0.34-0.17625 0.1025-0.3575 0.195-0.54625 0.27375-0.18875 0.0787-0.3825 0.145-0.58 0.1975-0.19625 0.0563-0.3975 0.0975-0.6 0.12625-0.20125 0.0288-0.405 0.0425-0.60875 0.0412h-61.455z" fill-rule="evenodd" stroke="#000" stroke-miterlimit="22.926" stroke-width="2.4436" fill="#fff"/>
     <path id="path20270" d="m12.572 148.42h60.592c0.12697-0.00098 0.25148-0.01 0.37598-0.0271 0.12574-0.0161 0.24901-0.0419 0.36982-0.0764 0.12204-0.0308 0.24162-0.0715 0.35749-0.12081 0.11588-0.048 0.22806-0.10478 0.33654-0.16889 0.10971-0.0641 0.2145-0.13313 0.31435-0.20957 0.09985-0.0776 0.19477-0.16025 0.28353-0.25024 0.08876-0.0888 0.17258-0.18245 0.24901-0.28231 0.07643-0.0999 0.1467-0.20463 0.20833-0.31435 0.0641-0.10848 0.12081-0.22066 0.17012-0.33654 0.04808-0.11588 0.08876-0.23546 0.12081-0.3575 0.03452-0.12081 0.0604-0.24408 0.07766-0.36982 0.01849-0.12451 0.02712-0.25025 0.02589-0.376v-60.616c-0.0012-0.12574-0.0099-0.25025-0.02589-0.37599-0.01726-0.12451-0.04314-0.24778-0.07766-0.36859-0.03082-0.12204-0.0715-0.24162-0.12081-0.3575s-0.10478-0.22929-0.17012-0.33654c-0.06164-0.10972-0.1319-0.2145-0.20833-0.31435s-0.16026-0.19478-0.24901-0.28353c-0.08876-0.08876-0.18368-0.17259-0.28353-0.24902s-0.20464-0.1467-0.31435-0.20957c-0.10848-0.06287-0.22066-0.11958-0.33654-0.16889-0.11588-0.04808-0.23545-0.08876-0.35749-0.12204-0.12081-0.03328-0.24408-0.05917-0.36982-0.07766-0.12451-0.01726-0.24901-0.02589-0.37598-0.02466h-60.614c-0.12574 0.0012-0.25148 0.0099-0.37598 0.02589-0.12574 0.01726-0.24901 0.04315-0.36982 0.07643-0.12204 0.03205-0.24162 0.07273-0.35749 0.12204-0.11588 0.04808-0.22806 0.10478-0.33654 0.16889-0.10971 0.06287-0.2145 0.13314-0.31435 0.20957s-0.19477 0.16026-0.2823 0.24902c-0.08999 0.08876-0.17382 0.18368-0.25024 0.28353-0.07643 0.09985-0.1467 0.20464-0.20956 0.31435-0.06287 0.10848-0.11958 0.22066-0.16765 0.33654-0.049309 0.11588-0.08999 0.23546-0.12327 0.3575-0.033284 0.12081-0.060404 0.24408-0.077663 0.36983-0.017258 0.12451-0.025887 0.24902-0.024655 0.37476v60.616c0 0.12575 0.00986 0.25149 0.025887 0.376 0.017258 0.12574 0.043146 0.24901 0.07643 0.36982 0.032051 0.12204 0.072731 0.24162 0.12204 0.3575 0.048077 0.11588 0.10478 0.22806 0.16889 0.33654 0.06287 0.10972 0.13314 0.2145 0.20956 0.31435 0.07766 0.0999 0.16026 0.19355 0.25024 0.28231 0.08752 0.09 0.18244 0.17381 0.2823 0.25024 0.09985 0.0764 0.20463 0.1467 0.31435 0.20957 0.10848 0.0628 0.22066 0.11958 0.33654 0.16766 0.11588 0.0493 0.23545 0.09 0.35749 0.12204 0.12081 0.0345 0.24408 0.0605 0.36982 0.0789 0.12451 0.0173 0.25025 0.0259 0.37598 0.0246h0.02219z" fill-rule="evenodd" fill="#e72512"/>
     <path id="path20274" d="m59.321 138.84-40.085-40.085v40.085h40.085" fill-rule="evenodd" fill="#fff"/>
     <path id="path20278" d="m66.478 131.68v-40.085h-40.085l40.085 40.085" fill-rule="evenodd" fill="#fff"/>
     <path id="path20282" d="m34.005 131.08-6.0138-0.805c-0.07625 0-0.15375-0.0125-0.22625-0.035-0.11375-0.0288-0.225-0.06-0.33625-0.0937-0.22-0.0637-0.43625-0.135-0.65-0.21625-0.1875-0.0725-0.36875-0.15875-0.5425-0.26-0.1875-0.10375-0.3675-0.22125-0.53875-0.34875-0.1725-0.12875-0.33625-0.26875-0.49-0.41875-0.04-0.0375-0.0775-0.0762-0.11625-0.115-0.04-0.0413-0.07875-0.0838-0.1175-0.12625-0.12375-0.135-0.24375-0.27375-0.35875-0.415-0.0875-0.0975-0.15875-0.20875-0.21375-0.3275-0.01-0.0188-0.0225-0.0363-0.0375-0.0525s-0.0325-0.0325-0.05-0.0487c-0.0225-0.02-0.04375-0.04-0.0675-0.0588-0.0225-0.0175-0.045-0.035-0.07-0.05s-0.05125-0.0288-0.0775-0.04c-0.0275-0.0113-0.055-0.0213-0.08375-0.0288-0.0275-0.008-0.05625-0.0138-0.08625-0.0187-0.02875-0.004-0.0575-0.006-0.08625-0.006-0.03-0.001-0.05875 0.001-0.08875 0.004-0.02875 0.004-0.0575 0.009-0.08625 0.0163-0.0275 0.007-0.05625 0.0162-0.0825 0.0275-0.0275 0.01-0.05375 0.0238-0.08 0.0375-0.025 0.015-0.05 0.03-0.07375 0.0475-0.0225 0.0175-0.045 0.0375-0.06625 0.0575s-0.04 0.0425-0.05875 0.065c-0.0175 0.0237-0.035 0.0475-0.05 0.0725s-0.0275 0.0512-0.04 0.0787c-0.01125 0.0263-0.02125 0.0538-0.02875 0.0825-0.0075 0.0288-0.01375 0.0575-0.01875 0.0863-0.0038 0.0287-0.0063 0.0575-0.0063 0.0875 0 0.0275 0.0013 0.0563 0.005 0.085 0.0038 0.03 0.0088 0.0588 0.015 0.0875 0.0087 0.0387 0.01875 0.0762 0.03375 0.1125 0.0125 0.0338 0.0325 0.0637 0.05875 0.09l0.02625 0.035 0.02625 0.0363c0.13125 0.17625 0.26375 0.35125 0.39875 0.525s0.2775 0.34 0.43 0.49875c0.185 0.2 0.38625 0.385 0.60125 0.5525 0.21625 0.16875 0.44375 0.3225 0.68125 0.45875 0.235 0.14125 0.47875 0.265 0.73 0.37375 0.25125 0.1075 0.50875 0.19875 0.77125 0.27125 0.12875 0.0375 0.25875 0.0713 0.39 0.10125 0.13125 0.0312 0.26125 0.0613 0.3925 0.0887l20.142 2.7275v-1.3412l-8.495-1.1175 4.57-6.9038c0.01625-0.0288 0.035-0.0575 0.05625-0.085 0.0275-0.0375 0.05625-0.075 0.08625-0.11125 0.0425-0.0538 0.0875-0.105 0.13375-0.155 0.04-0.0438 0.08125-0.0863 0.12375-0.12875 0.0875-0.0875 0.17875-0.16875 0.2775-0.24375 0.12-0.09 0.24625-0.1725 0.3775-0.245 0.08125-0.0475 0.165-0.0925 0.25-0.135 0.05-0.03 0.10375-0.05 0.16125-0.0625l6.0575-1.6775c0.01875-0.004 0.0375-0.01 0.055-0.0162 0.02125-0.007 0.04125-0.015 0.06125-0.0237 0.0875-0.0337 0.175-0.0688 0.26-0.10625 0.08125-0.0362 0.16-0.075 0.2375-0.11875 0.1175-0.0637 0.23125-0.13625 0.34-0.2175 0.11125-0.0825 0.21625-0.1725 0.31375-0.27125 0.1-0.095 0.1925-0.1975 0.2775-0.30625 0.08375-0.10625 0.16-0.21875 0.22875-0.335 0.01875-0.03 0.03625-0.06 0.0525-0.0913 0.01875-0.0312 0.035-0.0637 0.0525-0.0962 0.0088-0.0162 0.01625-0.0325 0.02375-0.0487 0.0075-0.015 0.01375-0.03 0.02-0.045l5.2538-11.804c0.03125-0.03 0.05875-0.0638 0.08125-0.10125 0.025-0.04 0.04875-0.0812 0.07-0.12375 0.0375-0.07 0.0725-0.14125 0.105-0.21375 0.03125-0.07 0.0575-0.1425 0.07875-0.21625 0.0225-0.0738 0.04-0.15 0.05125-0.22625 0.01-0.0775 0.01625-0.15625 0.01625-0.235 0.0012-0.0787-0.0025-0.15625-0.01125-0.23375-0.01-0.0775-0.02375-0.155-0.04375-0.23-0.01875-0.0762-0.0425-0.15-0.07125-0.2225s-0.0625-0.14375-0.10125-0.21125c-0.0375-0.0688-0.08-0.13375-0.1275-0.19625-0.04625-0.0625-0.0975-0.1225-0.1525-0.1775-0.05375-0.0563-0.11125-0.10875-0.1725-0.1575-0.0625-0.0487-0.12625-0.0925-0.19375-0.13125-0.0675-0.0412-0.13625-0.0763-0.20875-0.1075-0.07125-0.0312-0.145-0.0575-0.22-0.0775-0.075-0.0212-0.15125-0.0375-0.22875-0.0487-0.0775-0.01-0.155-0.0162-0.23375-0.0175-0.0775-0.002-0.15625 0-0.23375 0.008-0.0775 0.009-0.155 0.0237-0.23 0.0475-0.0087 0.001-0.0175 0.005-0.02625 0.007-0.0087 0.002-0.01625 0.005-0.025 0.009l-16.029 3.9525h-17.459v0.89375h15.746l0.79625 3.5762 11.178-2.235-1.9675 4.6412c-0.01125 0.0312-0.025 0.0613-0.04 0.09-0.01875 0.035-0.03625 0.0712-0.05625 0.10625-0.095 0.1825-0.19875 0.36125-0.30875 0.535-0.10375 0.1625-0.225 0.31125-0.3625 0.44625-0.09375 0.0975-0.19625 0.18625-0.305 0.2675-0.11125 0.0825-0.2275 0.15625-0.35 0.22125-0.11875 0.0662-0.24125 0.12375-0.36875 0.1725-0.1275 0.05-0.2575 0.0937-0.38875 0.13l-0.0175 0.005-0.01625 0.004-3.9562 1.1388c-0.02625 0.008-0.0525 0.015-0.07875 0.0263-0.03125 0.0125-0.06375 0.025-0.095 0.0387-0.06625 0.0275-0.1325 0.0563-0.19625 0.0863-0.06 0.0288-0.11875 0.0588-0.17625 0.0913-0.1175 0.0662-0.23125 0.14-0.33875 0.2225-0.11 0.0825-0.215 0.17125-0.315 0.26625-0.06875 0.0625-0.13375 0.12875-0.195 0.1975-0.06375 0.0712-0.12 0.1475-0.17 0.22875-0.005 0.008-0.01 0.015-0.01375 0.0225-0.005 0.007-0.0087 0.015-0.0125 0.0225l-7.2612 10.154" fill-rule="evenodd"/>
     <path id="path20286" d="m59.042 101.68v0.02 0.0212c-0.0012 0.13625-0.0125 0.2725-0.03125 0.4075-0.02 0.135-0.0475 0.26875-0.08625 0.4-0.035 0.1325-0.08 0.2625-0.135 0.3875-0.05375 0.125-0.11625 0.2475-0.1875 0.36375-0.06875 0.1175-0.14625 0.23125-0.23125 0.33875-0.08375 0.10625-0.17625 0.2075-0.275 0.3025-0.09625 0.0962-0.20125 0.185-0.31 0.2675-0.11 0.0812-0.225 0.15625-0.34375 0.22125-0.11875 0.0688-0.2425 0.1275-0.37 0.1775-0.12625 0.0512-0.25625 0.0925-0.39 0.12625-0.13125 0.0337-0.26625 0.06-0.40125 0.075-0.13625 0.0162-0.2725 0.0237-0.41 0.0212-0.13625-0.001-0.2725-0.0113-0.4075-0.0312-0.13625-0.02-0.26875-0.0487-0.40125-0.0863-0.13125-0.0362-0.26-0.0812-0.38625-0.13625-0.125-0.0538-0.24625-0.11625-0.36375-0.18625-0.1175-0.0688-0.23125-0.14625-0.33875-0.23125s-0.20875-0.17625-0.3025-0.275c-0.09625-0.0975-0.18625-0.20125-0.2675-0.31-0.08125-0.11-0.155-0.225-0.22125-0.345-0.0675-0.11875-0.1275-0.24125-0.17875-0.36875-0.05-0.12625-0.09125-0.2575-0.125-0.39s-0.05875-0.26625-0.075-0.4025c-0.01625-0.135-0.02375-0.27125-0.02-0.40875 0-0.13625 0.01125-0.2725 0.03-0.4075 0.02-0.13625 0.04875-0.27 0.08625-0.40125 0.03625-0.13125 0.0825-0.26 0.13625-0.38625 0.05375-0.125 0.11625-0.2475 0.18625-0.36375 0.07-0.11875 0.14625-0.23125 0.23125-0.33875s0.17625-0.20875 0.275-0.30375c0.0975-0.095 0.20125-0.185 0.31-0.26625 0.11-0.0825 0.225-0.15625 0.345-0.2225 0.11875-0.0675 0.24125-0.12625 0.36875-0.1775 0.1275-0.05 0.2575-0.0925 0.39-0.125 0.1325-0.03375 0.26625-0.06 0.4025-0.07625 0.135-0.015 0.2725-0.0225 0.40875-0.02 0.13625 0.0013 0.2725 0.01125 0.40875 0.03125 0.135 0.02 0.26875 0.04875 0.4 0.08625 0.13125 0.03625 0.26125 0.08125 0.38625 0.13625 0.12625 0.05375 0.2475 0.11625 0.36375 0.18625 0.11875 0.07 0.23125 0.14625 0.33875 0.23125s0.20875 0.17625 0.30375 0.275c0.095 0.09625 0.185 0.2 0.26625 0.31 0.0825 0.11 0.15625 0.225 0.2225 0.345 0.0675 0.11875 0.12625 0.24125 0.1775 0.36875 0.05 0.12625 0.0925 0.25625 0.125 0.38875 0.0325 0.12625 0.0575 0.25375 0.07375 0.38375 0.01625 0.12875 0.02375 0.2575 0.0225 0.3875" fill-rule="evenodd"/>
    </g>
   </g>
  </g>
 </g>
</svg>
