<svg
   xmlns="http://www.w3.org/2000/svg"
   xmlns:xlink="http://www.w3.org/1999/xlink"  
   version="1.1"
   width="60"
   height="60">
  <symbol id="notice_brs" width="60" height="60">
    <path d="m 36.726661,21.514905 c -3.1e-5,-1.13123 -0.232344,-2.100883 -0.696939,-2.908961 -0.464656,-0.80801 -1.262599,-1.444344 -2.393833,-1.909006 -0.78787,-0.323181 -1.70702,-0.515092 -2.757452,-0.575732 C 29.827954,16.040436 28.605788,16.000036 27.211934,16 L 23,16 l 0,12.150973 3.575598,0 c 1.85848,2.4e-5 3.413965,-0.09088 4.666459,-0.272715 1.252442,-0.181785 2.3029,-0.595908 3.151374,-1.242369 0.808016,-0.626208 1.393848,-1.313045 1.757498,-2.060514 0.38379,-0.767614 0.575701,-1.787769 0.575732,-3.06047 m 18.150705,31.301634 -14.211487,0 -12.302482,-16.544716 -5.363397,0 0,16.544716 -11.575241,0 0,-45.1191995 19.514281,0 c 2.66652,4.51e-5 4.959345,0.1515533 6.878481,0.4545252 1.919072,0.3030611 3.71697,0.9595968 5.393699,1.9696093 1.696855,1.010097 3.040228,2.323169 4.030123,3.939218 1.010014,1.595926 1.515041,3.605935 1.515084,6.030034 -4.3e-5,3.333214 -0.777785,6.050262 -2.333229,8.151152 -1.535324,2.100939 -3.737244,3.848334 -6.605766,5.24219 l 15.059934,19.332471" />
  </symbol>
  <use xlink:href="#notice_brs" x="0" y="0" />
</svg>
