<svg
   xmlns="http://www.w3.org/2000/svg"
   xmlns:xlink="http://www.w3.org/1999/xlink"  
   version="1.1"
   width="60"
   height="60">
  <symbol id="notice_speedboat" width="60" height="60">
    <path d="m 28.6875,18.96875 c -0.097,-0.0011 -0.2166,0.01645 -0.3125,0.03125 -0.09489,0.0159 -0.18955,0.0309 -0.28125,0.0625 -0.09173,0.02854 -0.1635,0.0807 -0.25,0.125 -0.0854,0.04323 -0.172,0.0681 -0.25,0.125 -0.07908,0.05693 -0.15025,0.1189 -0.21875,0.1875 -0.06853,0.06853 -0.1306,0.171 -0.1875,0.25 -0.05692,0.07802 -0.11305,0.13335 -0.15625,0.21875 -0.04425,0.0854 -0.06535,0.18955 -0.09375,0.28125 -0.0316,0.09173 -0.07795,0.18525 -0.09375,0.28125 -0.0141,0.09594 -8.4e-4,0.18425 0,0.28125 -0.0011,0.09699 -0.0148,0.18535 0,0.28125 0.0158,0.09489 0.06215,0.19055 0.09375,0.28125 0.02845,0.09278 0.04945,0.19475 0.09375,0.28125 0.04323,0.0854 0.09935,0.172 0.15625,0.25 0.05693,0.07802 0.1189,0.15015 0.1875,0.21875 0.06853,0.06853 0.13975,0.1306 0.21875,0.1875 0.07802,0.05692 0.1646,0.11195 0.25,0.15625 0.08646,0.04425 0.1583,0.06535 0.25,0.09375 0.09172,0.0306 0.18635,0.0466 0.28125,0.0625 0.09594,0.0151 0.2155,0.03209 0.3125,0.03125 0.097,0.0011 0.18535,-0.01645 0.28125,-0.03125 0.09489,-0.0159 0.19055,-0.032 0.28125,-0.0625 0.09278,-0.02855 0.1635,-0.04945 0.25,-0.09375 0.0854,-0.04428 0.172,-0.09935 0.25,-0.15625 0.07907,-0.05693 0.15015,-0.1189 0.21875,-0.1875 0.06853,-0.06853 0.1306,-0.13975 0.1875,-0.21875 0.05802,-0.07802 0.11295,-0.1646 0.15625,-0.25 0.04425,-0.08645 0.0965,-0.18845 0.125,-0.28125 0.0305,-0.09067 0.0477,-0.18535 0.0625,-0.28125 0.0142,-0.09594 0.03125,-0.18425 0.03125,-0.28125 0,-0.097 -0.01645,-0.18635 -0.03125,-0.28125 C 30.4852,20.4353 30.468,20.3417 30.4375,20.25 30.408949,20.15828 30.3568,20.05525 30.3125,19.96875 30.26928,19.88335 30.21425,19.828 30.15625,19.75 30.09932,19.67093 30.03725,19.5686 29.96875,19.5 29.90022,19.43147 29.829,19.3684 29.75,19.3125 29.671979,19.25557 29.5854,19.2308 29.5,19.1875 29.41355,19.14326 29.3428,19.0909 29.25,19.0625 29.159329,19.0309 29.06365,19.0159 28.96875,19 28.87281,18.9859 28.7845,18.9679 28.6875,18.96875 z M 48.78125,22.0625 C 43.723721,23.5933 41.837218,24.11495 38.8125,25.03125 37.845665,25.32415 36.220655,22.8842 35.46875,23.375 34.421093,24.058879 34.033909,24.562146 33.625,25.03125 33.359289,24.913792 27.97179,22.539109 25.1875,23.125 24.70977,23.22554 24.26689,23.59116 24,24 c -0.966984,1.481254 -1.317133,4.645885 -1.40625,5.75 -3.848734,1.059454 -8.204699,2.122814 -11.90625,3.0625 l 1.5,2.4375 1.03125,2 c 0.311032,0.0305 0.625418,0.07675 0.9375,0.09375 0.308922,0.0169 0.628588,-0.007 0.9375,-0.03125 0.353202,-0.0316 0.687578,-0.09791 1.03125,-0.1875 0.345822,-0.0896 0.695968,-0.18915 1.03125,-0.3125 0.690584,-0.24777 1.375447,-0.545 2.03125,-0.875 0.654734,-0.33 1.281047,-0.67976 1.90625,-1.0625 0.532433,-0.32473 1.090497,-0.64718 1.625,-0.96875 0.531383,-0.31946 1.057797,-0.59388 1.625,-0.84375 0.503963,-0.22667 1.027897,-0.42228 1.5625,-0.5625 0.544033,-0.14339 1.096347,-0.22326 1.65625,-0.28125 0.647354,-0.0832 1.319347,-0.1227 1.96875,-0.0625 0.635754,0.0559 1.238897,0.25186 1.8125,0.53125 0.275171,0.12546 0.561569,0.26986 0.8125,0.4375 0.255152,0.1708 1.536649,1.09775 1.78125,1.28125 2.282313,-0.82199 5.029736,-1.5571 7.46875,-2.5625 1.369308,-0.5644 2.975594,-0.86788 4,-1.9375 1.965111,-2.0517 2.703296,-6.10285 3.375,-7.84375 z M 28.90625,25.46875 32,26.375 c -0.380809,0.234046 -0.811196,0.493607 -1.4375,0.78125 -0.779936,0.358197 -1.834133,0.713799 -2.96875,1.09375 l 1.3125,-2.78125 z M 11.84375,29.375 8,30.46875 l 0.5625,1.9375 3.84375,-1.09375 -0.5625,-1.9375 z m 16.84375,4.46875 c -0.307471,0.0032 -0.600498,0.02185 -0.90625,0.0625 -0.693744,0.0696 -1.400397,0.21504 -2.0625,0.4375 -0.651574,0.2193 -1.253247,0.52181 -1.84375,0.875 -0.418562,0.24249 -0.853528,0.50186 -1.25,0.78125 -0.396422,0.27834 -0.782657,0.5447 -1.1875,0.8125 -0.370072,0.24249 -0.737018,0.47453 -1.125,0.6875 -0.387992,0.21192 -0.784708,0.41346 -1.1875,0.59375 -0.508193,0.23511 -1.030097,0.41874 -1.5625,0.59375 -0.534543,0.17502 -1.102747,0.33945 -1.65625,0.4375 -0.311032,0.0611 -0.621208,0.10075 -0.9375,0.125 -0.313131,0.0243 -0.626468,0.0037 -0.9375,-0.03125 -0.435432,-0.0496 -0.870078,-0.13154 -1.28125,-0.28125 -0.419623,-0.15182 -0.811758,-0.31655 -1.21875,-0.5 l 0,2 c 0.374282,0.13496 0.745428,0.25903 1.125,0.375 0.376402,0.11492 0.767167,0.19728 1.15625,0.25 0.404852,0.0485 0.812867,0.05975 1.21875,0.03125 0.410132,-0.0284 0.814897,-0.07815 1.21875,-0.15625 0.625213,-0.11281 1.239647,-0.27265 1.84375,-0.46875 0.602014,-0.19505 1.174297,-0.42393 1.75,-0.6875 0.450193,-0.19927 0.911457,-0.42008 1.34375,-0.65625 0.432272,-0.23722 0.839848,-0.50713 1.25,-0.78125 0.389042,-0.26042 0.773567,-0.51135 1.15625,-0.78125 0.381662,-0.2699 0.782618,-0.51805 1.1875,-0.75 0.488153,-0.28361 0.996747,-0.53846 1.53125,-0.71875 0.545083,-0.1845 1.115996,-0.28471 1.6875,-0.34375 0.433322,-0.0591 0.877078,-0.07145 1.3125,-0.03125 0.421733,0.0369 0.842358,0.1487 1.21875,0.34375 0.274122,0.13917 0.521209,0.32672 0.75,0.53125 0.234052,0.20876 0.443279,0.42641 0.65625,0.65625 0.154991,0.16236 0.314819,0.30533 0.46875,0.46875 0.151821,0.16236 0.31798,0.33659 0.46875,0.5 0.397483,-0.20559 0.780528,-0.4082 1.1875,-0.59375 0.404863,-0.18451 0.823028,-0.34434 1.25,-0.46875 0.338442,-0.0959 0.682248,-0.14532 1.03125,-0.1875 0.348982,-0.0422 0.711368,-0.05015 1.0625,-0.03125 0.334222,0.0148 0.673158,0.05643 1,0.125 0.326842,0.0675 0.654569,0.13824 0.96875,0.25 0.417513,0.14866 0.814948,0.31444 1.21875,0.5 0.402753,0.18556 0.805418,0.36994 1.21875,0.53125 0.484993,0.18978 0.990737,0.32996 1.5,0.4375 0.513453,0.1086 1.038497,0.17169 1.5625,0.1875 0.574603,0.0305 1.151546,3.1e-4 1.71875,-0.09375 0.563003,-0.0917 1.105197,-0.26383 1.625,-0.5 0.181341,-0.078 0.356229,-0.15828 0.53125,-0.25 0.175021,-0.0928 0.358339,-0.18426 0.53125,-0.28125 l 0,-2.125 c -0.280452,0.17502 -0.556968,0.33658 -0.84375,0.5 -0.286771,0.16342 -0.602608,0.31098 -0.90625,0.4375 -0.409072,0.16763 -0.814618,0.29698 -1.25,0.375 -0.435443,0.079 -0.900897,0.1117 -1.34375,0.09375 -0.423842,-0.01 -0.835668,-0.06559 -1.25,-0.15625 -0.413302,-0.0907 -0.823408,-0.19193 -1.21875,-0.34375 -0.422782,-0.16131 -0.838838,-0.34253 -1.25,-0.53125 -0.410132,-0.18767 -0.826198,-0.37732 -1.25,-0.53125 -0.400642,-0.14655 -0.801228,-0.2594 -1.21875,-0.34375 -0.419622,-0.0854 -0.853208,-0.11024 -1.28125,-0.125 -0.441763,-0.0232 -0.872817,-0.02105 -1.3125,0.03125 -0.438592,0.0517 -0.887568,0.12875 -1.3125,0.25 -0.273072,0.0749 -0.545758,0.15511 -0.8125,0.25 -0.267801,0.0949 -0.516619,0.21023 -0.78125,0.3125 -0.0832,-0.0864 -0.165649,-0.1646 -0.25,-0.25 -0.0833,-0.0854 -0.1948,-0.16777 -0.28125,-0.25 C 32.508938,35.23612 32.295501,35.04896 32.0625,34.875 31.831599,34.70104 31.602061,34.53593 31.34375,34.40625 30.807097,34.13108 30.224903,33.94037 29.625,33.875 29.318723,33.8407 28.994971,33.840588 28.6875,33.84375 z"/>
  </symbol>
  <use xlink:href="#notice_speedboat" x="0" y="0" />
</svg>
