<svg
   xmlns="http://www.w3.org/2000/svg"
   xmlns:xlink="http://www.w3.org/1999/xlink"  
   version="1.1"
   width="60"
   height="60">
  <symbol id="notice_rowboat" width="60" height="60">
    <path d="m 24.706793,19.376408 c -0.2125,0.0024 -0.404659,0.02517 -0.61091,0.07637 -0.1525,0.03375 -0.313183,0.05575 -0.458182,0.114547 -0.14375,0.0575 -0.285,0.151594 -0.42,0.229094 -0.135001,0.07625 -0.25807,0.135394 -0.381819,0.229094 -0.125,0.0925 -0.232387,0.196708 -0.343637,0.305458 -0.08749,0.08375 -0.188473,0.174776 -0.267273,0.267276 -0.0775,0.09251 -0.160292,0.206659 -0.229091,0.305459 -0.08875,0.12875 -0.152791,0.245573 -0.229091,0.381823 -0.0775,0.136251 -0.156591,0.280005 -0.229091,0.420006 -0.17625,0.33495 -0.340115,0.684673 -0.496365,1.030922 -0.155,0.34495 -0.273068,0.706605 -0.381818,1.069105 -0.112505,0.36255 -0.212273,0.732287 -0.267273,1.107287 -0.0538,0.376251 -0.08036,0.727287 -0.07636,1.107287 0.0038,0.23625 0.01818,0.489214 0.03818,0.725464 0.02,0.23625 0.05136,0.451032 0.07636,0.687282 l -6.987281,0 c -0.0375,0 -0.07705,0.03218 -0.114546,0.03818 -0.03745,0.0062 -0.07824,-0.01124 -0.114545,0 -0.03625,0.01124 -0.08075,0.02188 -0.114546,0.03818 -0.03505,0.015 -0.04386,0.05636 -0.07636,0.07636 -0.0312,0.02 -0.08455,0.01438 -0.114545,0.03818 -0.0288,0.0237 -0.05137,0.04886 -0.07636,0.07636 -0.02631,0.0275 -0.05387,0.08334 -0.07636,0.114547 -0.02249,0.03 -0.05887,0.04267 -0.07636,0.07636 -0.01869,0.0325 -0.02568,0.07954 -0.03818,0.114547 -0.0137,0.03494 -0.02918,0.07834 -0.03818,0.114547 -0.0088,0.0375 0.004,0.07585 0,0.114547 -0.004,0.0375 -0.001,0.07705 0,0.114547 9.99e-4,0.03874 -0.006,0.07705 0,0.114547 0.0064,0.03755 0.02819,0.07834 0.03818,0.114546 0.01124,0.03625 0.02198,0.04136 0.03818,0.07636 0.015,0.03501 0.01818,0.08334 0.03818,0.114547 0.01381,0.02251 0.02198,0.05507 0.03818,0.07636 0.015,0.0212 0.02069,0.01938 0.03818,0.03818 l 0.03818,0.03818 6.490917,6.949182 0.03818,0 c 0.02631,0.02739 0.04757,0.05387 0.07636,0.07636 0.03,0.0237 0.04386,0.05756 0.07636,0.07636 0.03255,0.0188 0.07954,0.02318 0.114545,0.03818 0.03501,0.01489 0.07834,0.02819 0.114546,0.03818 0.03494,0.01002 0.07954,0.03319 0.114546,0.03818 0.03494,0.005 0.04006,-10e-4 0.07636,0 l 7.827282,0 -2.023639,2.596397 -1.64182,0 -4.200005,5.345525 -0.03818,0.03818 c -0.0188,0.0237 -0.02198,0.05007 -0.03818,0.07636 -0.0162,0.0275 -0.02568,0.04886 -0.03818,0.07636 -0.0162,0.03499 -0.02688,0.07705 -0.03818,0.114547 -0.01002,0.03499 -0.03218,0.07705 -0.03818,0.114547 -0.0065,0.0375 10e-4,0.07705 0,0.114547 -9.99e-4,0.03755 -0.004,0.07705 0,0.114547 0.0037,0.0375 -0.009,0.07705 0,0.114547 0.0075,0.03625 0.02438,0.04016 0.03818,0.07637 0.0126,0.03505 0.02069,0.08085 0.03818,0.114546 0.0175,0.0338 0.05386,0.08335 0.07636,0.114547 0.02251,0.03119 0.05136,0.04757 0.07636,0.07637 0.02631,0.0275 0.04637,0.05256 0.07636,0.07636 l 0.03818,0 2.023639,1.603657 0.03818,0.03818 c 0.0251,0.0188 0.05006,0.02318 0.07636,0.03818 0.0262,0.0163 0.04886,0.02568 0.07636,0.03818 0.03494,0.0162 0.07834,0.02688 0.114546,0.03818 0.03625,0.01124 0.07705,0.03218 0.114545,0.03818 0.0375,0.0065 0.03887,-0.002 0.07636,0 0.03874,9.99e-4 0.07705,0.004 0.114545,0 0.0375,-0.0037 0.07705,0.009 0.114546,0 0.03625,-0.0075 0.07825,-0.02449 0.114546,-0.03818 0.03505,-0.0126 0.08085,-0.02069 0.114545,-0.03818 0.0338,-0.0175 0.04516,-0.05387 0.07636,-0.07636 0.0312,-0.0212 0.08575,-0.05007 0.114546,-0.07636 0.0275,-0.0262 0.05266,-0.04757 0.07636,-0.07636 l 0,-0.03818 4.047278,-5.154613 0,-2.100027 2.634548,-3.360044 14.318199,0 c 0.03874,-10e-4 0.07705,0.006 0.114545,0 0.0375,-0.0064 0.07829,-0.02698 0.114546,-0.03818 0.03625,-0.0099 0.07954,-0.02318 0.114545,-0.03818 0.03501,-0.0151 0.08205,-0.05507 0.114546,-0.07636 0.03125,-0.01869 0.04637,-0.01318 0.07636,-0.03818 0.02875,-0.0238 0.05137,-0.04757 0.07636,-0.07636 0.02625,-0.02629 0.05387,-0.08455 0.07636,-0.114547 0.02249,-0.03119 0.05887,-0.04386 0.07636,-0.07637 0.01124,-0.02249 0.02819,-0.05387 0.03818,-0.07636 0.01002,-0.02249 -0.0075,-0.05256 0,-0.07637 l 2.176366,-6.949182 0,-0.03818 c 0.01124,-0.03625 0.03318,-0.07705 0.03818,-0.114547 0.0049,-0.0375 -0.0012,-0.07705 0,-0.114547 0,-0.03874 0.005,-0.07705 0,-0.114547 -0.0038,-0.0375 0.0088,-0.03887 0,-0.07636 -0.01002,-0.0363 -0.02444,-0.07954 -0.03818,-0.114547 -0.01375,-0.03501 -0.05761,-0.08205 -0.07636,-0.114547 -0.01875,-0.0337 -0.01569,-0.04516 -0.03818,-0.07636 -0.02249,-0.03 -0.04886,-0.08704 -0.07636,-0.114547 -0.025,-0.02631 -0.04637,-0.05256 -0.07636,-0.07636 -0.02875,-0.0237 -0.0808,-0.01938 -0.114546,-0.03818 -0.0325,-0.02 -0.04262,-0.06136 -0.07636,-0.07636 -0.03501,-0.015 -0.0783,-0.02819 -0.114546,-0.03818 -0.035,-0.01002 -0.07829,0.005 -0.114546,0 -0.03625,-0.005 -0.07829,-0.03818 -0.114545,-0.03818 l -9.698193,0 1.336365,-1.718204 0.03818,0 c 0.01002,9.99e-4 0.02819,0 0.03818,0 0.06625,0.0022 0.124659,0.009 0.190909,0 0.06625,-0.0075 0.12716,-0.02069 0.190909,-0.03818 0.065,-0.0163 0.12841,-0.05136 0.19091,-0.07636 0.06125,-0.0249 0.133409,-0.04267 0.190909,-0.07636 0.0575,-0.0312 0.09898,-0.07454 0.152727,-0.114547 0.0525,-0.03874 0.106482,-0.06825 0.152728,-0.114547 0.0475,-0.04625 0.111479,-0.101424 0.152727,-0.152729 0.04125,-0.0525 0.0808,-0.133412 0.114546,-0.190912 0.03375,-0.05625 0.05012,-0.09143 0.07636,-0.152729 0.02624,-0.06125 0.05887,-0.127211 0.07636,-0.190911 0.01875,-0.06376 0.02948,-0.124712 0.03818,-0.190912 0.01002,-0.065 -0.0012,-0.124711 0,-0.190912 l 0,-0.03818 c -0.005,-0.06375 0.0064,-0.128411 0,-0.190911 -0.0062,-0.0625 -0.02318,-0.130911 -0.03818,-0.190912 -0.01375,-0.065 -0.01318,-0.129612 -0.03818,-0.190912 -0.025,-0.06125 -0.08204,-0.09523 -0.114545,-0.152729 -0.0325,-0.05875 -0.07454,-0.137112 -0.114546,-0.190911 -0.03874,-0.0525 -0.0683,-0.106434 -0.114545,-0.15273 -0.04625,-0.04875 -0.100226,-0.07335 -0.152728,-0.114547 -0.0525,-0.0412 -0.09647,-0.08075 -0.152727,-0.114547 -0.0575,-0.0337 -0.12966,-0.08835 -0.19091,-0.114547 -0.06125,-0.025 -0.127159,-0.02069 -0.190909,-0.03818 -0.06375,-0.01871 -0.12466,-0.02819 -0.190909,-0.03818 -0.065,-0.01002 -0.12466,-0.03718 -0.19091,-0.03818 -0.06625,-0.0012 -0.124659,0.03118 -0.190909,0.03818 -0.06625,0.0075 -0.127159,0.02069 -0.190909,0.03818 -0.065,0.015 -0.12841,0.01318 -0.190909,0.03818 -0.06125,0.025 -0.13341,0.04386 -0.19091,0.07636 -0.05875,0.0313 -0.09898,0.07454 -0.152727,0.114547 -0.0525,0.04 -0.106482,0.105224 -0.152728,0.152729 -0.0088,0.0076 -0.03068,-0.007 -0.03818,0 -0.0088,0.0087 0.0075,0.02918 0,0.03818 L 26.119522,19.681867 c -0.124999,-0.04995 -0.254318,-0.108927 -0.381819,-0.152729 -0.1275,-0.04375 -0.249318,-0.08704 -0.381818,-0.114547 -0.206251,-0.0475 -0.437842,-0.04019 -0.649092,-0.03818 z m 1.870911,3.550956 0.458183,0 8.705464,0.954558 0.03818,0.03818 c 0.0024,0.0125 -0.0037,0.02568 0,0.03818 0.0024,0.0125 -0.0038,0.02568 0,0.03818 l 0,0.03818 -2.176366,2.787309 -7.827282,0 c 0.05875,-0.16875 0.134609,-0.32637 0.19091,-0.49637 0.05499,-0.17 0.10273,-0.362053 0.152727,-0.534553 0.121253,-0.40375 0.231755,-0.808084 0.305455,-1.221834 0.0737,-0.414999 0.126428,-0.838766 0.152727,-1.260016 0.0033,-0.06625 -0.004,-0.123411 0,-0.190912 0.0031,-0.06625 -0.002,-0.124711 0,-0.190911 z"/>
    <path d="m 29.744076,15.940206 v 0.02 0.02 c -0.003,0.1325 -0.0125,0.265 -0.03,0.39625 -0.0188,0.13125 -0.0475,0.26125 -0.0838,0.38875 -0.035,0.1275 -0.0787,0.25375 -0.13125,0.375 -0.0525,0.1225 -0.11375,0.24 -0.1825,0.35375 -0.0675,0.115 -0.1425,0.22375 -0.22375,0.32875 -0.0825,0.10375 -0.17125,0.2025 -0.2675,0.29375 -0.0937,0.0937 -0.195,0.18 -0.30125,0.26 -0.10625,0.0788 -0.2175,0.15125 -0.33375,0.215 -0.11625,0.0662 -0.23625,0.12375 -0.35875,0.1725 -0.12375,0.0487 -0.25,0.09 -0.37875,0.12125 -0.12875,0.0337 -0.25875,0.0587 -0.39,0.0737 -0.1325,0.0162 -0.265,0.0225 -0.3975,0.02 -0.1325,-10e-4 -0.265,-0.0113 -0.39625,-0.03 -0.13125,-0.0188 -0.26125,-0.0475 -0.38875,-0.0838 -0.12875,-0.035 -0.25375,-0.0788 -0.375,-0.13125 -0.1225,-0.0525 -0.24125,-0.11375 -0.35375,-0.1825 -0.115,-0.0662 -0.225,-0.14125 -0.32875,-0.22375 -0.10375,-0.0825 -0.2025,-0.17125 -0.295,-0.2675 -0.0925,-0.0937 -0.18,-0.195 -0.25875,-0.30125 -0.08,-0.10625 -0.15125,-0.2175 -0.215,-0.33375 -0.0662,-0.115 -0.12375,-0.235 -0.1725,-0.35875 -0.05,-0.12375 -0.09,-0.25 -0.1225,-0.37875 -0.0325,-0.1275 -0.0575,-0.25875 -0.0737,-0.39 -0.015,-0.1325 -0.0213,-0.265 -0.0187,-0.3975 0,-0.1325 0.01,-0.265 0.0287,-0.39625 0.02,-0.13125 0.0475,-0.26125 0.085,-0.38875 0.035,-0.1275 0.0787,-0.25375 0.13125,-0.375 0.0525,-0.1225 0.11375,-0.24 0.18125,-0.35375 0.0675,-0.115 0.1425,-0.22375 0.225,-0.32875 0.0812,-0.10375 0.17125,-0.2025 0.26625,-0.295 0.095,-0.0925 0.195,-0.17875 0.30125,-0.25875 0.10625,-0.08 0.21875,-0.15125 0.335,-0.215 0.115,-0.0662 0.235,-0.12375 0.35875,-0.1725 0.1225,-0.05 0.24875,-0.09 0.3775,-0.12125 0.12875,-0.0337 0.25875,-0.0588 0.39125,-0.0737 0.13125,-0.0163 0.265,-0.0225 0.39625,-0.02 0.13375,10e-4 0.26625,0.0112 0.3975,0.03 0.13125,0.0188 0.26125,0.0475 0.38875,0.0838 0.1275,0.035 0.2525,0.0787 0.375,0.13125 0.12125,0.0525 0.24,0.11375 0.35375,0.1825 0.11375,0.0662 0.22375,0.14125 0.3275,0.22375 0.105,0.0825 0.20375,0.17125 0.295,0.26625 0.0937,0.095 0.18,0.19625 0.26,0.3025 0.0787,0.10625 0.15125,0.2175 0.215,0.33375 0.065,0.115 0.1225,0.235 0.1725,0.35875 0.0487,0.1225 0.09,0.24875 0.12125,0.3775 0.0325,0.1225 0.0562,0.24625 0.0725,0.37125 0.015,0.125 0.0225,0.25125 0.0213,0.3775"/>
  </symbol>
  <use xlink:href="#notice_rowboat" x="0" y="0" />
</svg>
