<?xml version="1.0" encoding="UTF-8" standalone="no"?>
<!-- Created with Inkscape (http://www.inkscape.org/) -->
<svg id="svg2" xmlns:rdf="http://www.w3.org/1999/02/22-rdf-syntax-ns#" xmlns="http://www.w3.org/2000/svg" height="60" width="60" version="1.1" xmlns:cc="http://creativecommons.org/ns#" xmlns:dc="http://purl.org/dc/elements/1.1/">
 <metadata id="metadata7">
  <rdf:RDF>
   <cc:Work rdf:about="">
    <dc:format>image/svg+xml</dc:format>
    <dc:type rdf:resource="http://purl.org/dc/dcmitype/StillImage"/>
    <dc:title/>
   </cc:Work>
  </rdf:RDF>
 </metadata>
 <g id="layer49" transform="translate(0,-60)">
  <g id="layer1-21" transform="matrix(.97035 0 0 .97035 -596.57 -326.77)">
   <g id="g2973" transform="matrix(.84345 0 0 .84345 101.09 67.239)">
    <g id="g4619" transform="matrix(0 1.25 1.25 0 614.53 464.87)" stroke="#000" fill="#fff">
     <path id="path4621" stroke-linejoin="bevel" d="m0 0v49.89 0.013 0.013c-0.001 0.145-0.011 0.289-0.031 0.432-0.019 0.144-0.048 0.286-0.088 0.425-0.036 0.14-0.083 0.278-0.139 0.411s-0.121 0.263-0.195 0.387c-0.072 0.126-0.152 0.246-0.241 0.361-0.088 0.114-0.184 0.223-0.286 0.325-0.102 0.103-0.211 0.199-0.325 0.287-0.115 0.088-0.236 0.168-0.361 0.24-0.125 0.074-0.254 0.138-0.388 0.194s-0.271 0.103-0.41 0.14c-0.14 0.04-0.282 0.07-0.425 0.09s-0.288 0.03-0.432 0.029h-49.943c-0.144-0.001-0.289-0.011-0.432-0.03-0.144-0.019-0.285-0.049-0.425-0.089-0.14-0.036-0.277-0.082-0.41-0.138-0.134-0.057-0.263-0.122-0.388-0.196-0.125-0.072-0.246-0.152-0.361-0.24-0.114-0.088-0.223-0.184-0.324-0.287-0.104-0.102-0.199-0.211-0.288-0.325-0.088-0.115-0.168-0.235-0.24-0.361-0.073-0.125-0.138-0.254-0.194-0.388-0.056-0.133-0.103-0.27-0.14-0.41-0.04-0.139-0.07-0.281-0.09-0.425-0.02-0.143-0.03-0.288-0.029-0.432v-49.942c0.001-0.145 0.011-0.289 0.03-0.433 0.02-0.143 0.049-0.285 0.089-0.424 0.036-0.141 0.082-0.278 0.138-0.411 0.057-0.134 0.122-0.263 0.196-0.388 0.072-0.125 0.152-0.246 0.24-0.36 0.089-0.115 0.184-0.224 0.288-0.325 0.101-0.103 0.21-0.199 0.324-0.287 0.115-0.089 0.236-0.169 0.361-0.241 0.125-0.073 0.255-0.138 0.388-0.194s0.271-0.102 0.41-0.14c0.14-0.039 0.282-0.069 0.425-0.09 0.143-0.02 0.288-0.03 0.432-0.028h0.013l0.013-0.001h49.89l0.013 0.001h0.014c0.144 0 0.289 0.01 0.432 0.03 0.143 0.019 0.285 0.049 0.425 0.088 0.14 0.036 0.277 0.083 0.41 0.139 0.134 0.056 0.263 0.121 0.388 0.195 0.125 0.072 0.246 0.153 0.36 0.241 0.115 0.088 0.224 0.184 0.326 0.287 0.102 0.101 0.198 0.21 0.287 0.325 0.088 0.114 0.168 0.235 0.24 0.36 0.073 0.125 0.138 0.255 0.194 0.388 0.056 0.134 0.103 0.271 0.14 0.411 0.04 0.139 0.07 0.281 0.09 0.425 0.02 0.143 0.03 0.287 0.029 0.432v0.013 0.013z" stroke-miterlimit="22.926" stroke-width=".22260"/>
     <g id="g4623" transform="translate(.054)" stroke-width="1.0306">
      <path id="path4625" stroke-linejoin="bevel" d="m0 0v-0.027c-0.001-0.147-0.011-0.293-0.031-0.439s-0.05-0.29-0.09-0.432c-0.036-0.142-0.084-0.282-0.141-0.417-0.057-0.136-0.123-0.267-0.198-0.393-0.073-0.128-0.155-0.25-0.245-0.367-0.089-0.117-0.187-0.227-0.291-0.33-0.104-0.105-0.214-0.203-0.33-0.292-0.117-0.09-0.239-0.171-0.367-0.245-0.127-0.074-0.258-0.14-0.394-0.197-0.136-0.056-0.275-0.104-0.417-0.142-0.142-0.04-0.286-0.071-0.432-0.091-0.145-0.021-0.292-0.03-0.439-0.03h-49.943c-0.147 0.001-0.294 0.012-0.439 0.031-0.146 0.02-0.29 0.05-0.432 0.09-0.142 0.037-0.282 0.084-0.418 0.141-0.135 0.057-0.266 0.123-0.393 0.198-0.127 0.074-0.25 0.156-0.366 0.245-0.117 0.09-0.227 0.187-0.331 0.292-0.104 0.103-0.202 0.213-0.291 0.33-0.09 0.116-0.172 0.239-0.245 0.367-0.074 0.126-0.14 0.258-0.197 0.393-0.057 0.136-0.104 0.275-0.142 0.417-0.041 0.142-0.071 0.286-0.092 0.432-0.02 0.146-0.03 0.292-0.029 0.439v49.943c0.001 0.147 0.011 0.294 0.031 0.44 0.02 0.145 0.05 0.289 0.09 0.431 0.036 0.142 0.084 0.282 0.141 0.418 0.057 0.135 0.123 0.267 0.198 0.393 0.073 0.127 0.155 0.25 0.245 0.367 0.089 0.116 0.187 0.227 0.291 0.33 0.104 0.105 0.214 0.202 0.331 0.292 0.116 0.089 0.239 0.171 0.366 0.244 0.127 0.075 0.258 0.141 0.394 0.197 0.136 0.057 0.275 0.105 0.417 0.143 0.142 0.04 0.286 0.07 0.432 0.091 0.145 0.021 0.292 0.03 0.439 0.029h49.943c0.147-0.001 0.294-0.011 0.439-0.031 0.146-0.019 0.29-0.049 0.432-0.089 0.142-0.037 0.282-0.084 0.417-0.142 0.136-0.057 0.267-0.123 0.394-0.198 0.127-0.073 0.25-0.155 0.367-0.244 0.116-0.09 0.226-0.187 0.33-0.292 0.105-0.103 0.202-0.214 0.292-0.33 0.089-0.117 0.171-0.239 0.244-0.367 0.074-0.127 0.14-0.258 0.197-0.394 0.057-0.135 0.104-0.275 0.142-0.417 0.04-0.142 0.071-0.286 0.091-0.432 0.021-0.145 0.031-0.292 0.03-0.439v-49.916z" stroke="#000" stroke-miterlimit="22.926" stroke-width="1.9549" fill="#fff"/>
     </g>
    </g>
    <g id="g4615" fill="#039" transform="matrix(0 1.25 1.25 0 614.53 461.9)">
     <path id="path4617" d="m0 0v-0.008c0-0.042-0.003-0.084-0.009-0.125-0.005-0.042-0.014-0.083-0.026-0.124-0.01-0.04-0.024-0.08-0.04-0.119-0.016-0.038-0.035-0.076-0.057-0.112-0.021-0.037-0.044-0.072-0.07-0.105-0.025-0.033-0.053-0.065-0.083-0.094-0.029-0.03-0.061-0.058-0.094-0.084-0.034-0.025-0.068-0.049-0.105-0.069-0.036-0.022-0.074-0.04-0.112-0.057-0.039-0.016-0.079-0.03-0.12-0.04-0.04-0.012-0.081-0.021-0.123-0.027-0.041-0.005-0.083-0.008-0.125-0.008h-0.008-49.89-0.007c-0.042 0-0.084 0.003-0.126 0.009-0.041 0.005-0.083 0.014-0.123 0.026-0.041 0.01-0.081 0.024-0.119 0.04-0.039 0.016-0.077 0.035-0.113 0.057-0.036 0.02-0.071 0.044-0.105 0.069-0.033 0.026-0.064 0.054-0.094 0.084-0.03 0.029-0.058 0.061-0.083 0.094-0.026 0.033-0.049 0.068-0.07 0.105-0.021 0.036-0.04 0.074-0.057 0.112-0.016 0.039-0.029 0.079-0.04 0.119-0.012 0.041-0.02 0.082-0.026 0.124-0.006 0.041-0.009 0.083-0.008 0.125v49.905c0 0.042 0.002 0.084 0.008 0.126 0.006 0.041 0.014 0.083 0.026 0.123 0.01 0.041 0.024 0.081 0.04 0.119 0.016 0.039 0.035 0.077 0.057 0.113 0.021 0.036 0.044 0.071 0.07 0.104 0.025 0.034 0.053 0.065 0.083 0.095s0.061 0.058 0.094 0.083c0.034 0.026 0.069 0.049 0.105 0.07s0.074 0.04 0.113 0.057c0.038 0.016 0.078 0.029 0.119 0.04 0.04 0.012 0.082 0.02 0.123 0.026 0.042 0.006 0.084 0.009 0.126 0.008h49.905c0.042 0 0.084-0.002 0.125-0.008 0.042-0.006 0.083-0.014 0.123-0.026 0.041-0.01 0.081-0.024 0.12-0.04 0.038-0.017 0.076-0.036 0.112-0.057 0.037-0.021 0.071-0.044 0.105-0.07 0.033-0.025 0.065-0.053 0.094-0.083 0.03-0.03 0.058-0.061 0.084-0.095 0.025-0.033 0.048-0.068 0.069-0.104 0.022-0.036 0.04-0.074 0.057-0.113 0.016-0.038 0.03-0.078 0.04-0.119 0.012-0.04 0.021-0.082 0.026-0.123 0.006-0.042 0.009-0.084 0.009-0.126v-0.007-49.89" fill-rule="evenodd" fill="#039"/>
    </g>
    <g id="g4627" transform="matrix(0 1.25 1.25 0 656.82 419.11)">
     <path id="path4629" d="m0 0c-0.01 0.01-0.02 0.019-0.03 0.029-0.011 0.01-0.02 0.02-0.03 0.03-0.058 0.058-0.113 0.12-0.162 0.187-0.049 0.066-0.094 0.135-0.133 0.208-0.042 0.072-0.078 0.146-0.108 0.223-0.03 0.076-0.056 0.155-0.075 0.235-0.021 0.08-0.037 0.161-0.046 0.243-0.01 0.082-0.014 0.165-0.012 0.247 0 0.083 0.006 0.165 0.018 0.247 0.012 0.081 0.03 0.162 0.052 0.241 0.022 0.08 0.05 0.158 0.082 0.233 0.033 0.076 0.07 0.15 0.113 0.22 0.042 0.072 0.088 0.14 0.14 0.205 0.051 0.065 0.106 0.126 0.166 0.183 0.059 0.058 0.121 0.111 0.187 0.161 0.067 0.049 0.136 0.094 0.208 0.134 0.072 0.041 0.146 0.078 0.223 0.109 0.076 0.031 0.155 0.056 0.235 0.074 0.076 0.018 0.153 0.031 0.231 0.039s0.156 0.014 0.234 0.019h0.025c0.083-0.001 0.165-0.007 0.246-0.019 0.082-0.011 0.163-0.029 0.242-0.052 0.08-0.021 0.158-0.048 0.234-0.081s0.149-0.071 0.219-0.114c0.072-0.041 0.14-0.088 0.205-0.139s0.126-0.107 0.183-0.166c0.058-0.059 0.112-0.122 0.161-0.188 0.05-0.066 0.094-0.135 0.134-0.207 0.041-0.072 0.076-0.146 0.107-0.223 0.03-0.077 0.056-0.156 0.076-0.235 0.021-0.08 0.037-0.162 0.047-0.244s0.014-0.164 0.011-0.247c-0.001-0.013-0.001-0.026-0.001-0.039l-0.002-0.039 2.163-1.69v12.052 0.026c0.001 0.045 0.005 0.091 0.012 0.136 0.006 0.045 0.016 0.089 0.029 0.133 0.012 0.046 0.028 0.09 0.047 0.134 0.018 0.043 0.04 0.085 0.065 0.125 0.024 0.041 0.05 0.08 0.079 0.116 0.03 0.038 0.061 0.072 0.096 0.105 0.033 0.033 0.069 0.064 0.107 0.092s0.078 0.054 0.119 0.076c0.041 0.024 0.083 0.044 0.127 0.061 0.044 0.018 0.089 0.032 0.135 0.043 0.045 0.012 0.092 0.02 0.138 0.026 0.048 0.005 0.095 0.008 0.142 0.007 0.047 0 0.094-0.004 0.141-0.011 0.047-0.006 0.092-0.017 0.138-0.03l0.013-0.004 8.653-2.704 0.024-0.008c0.029-0.01 0.058-0.021 0.086-0.033s0.056-0.026 0.083-0.041c0.041-0.022 0.081-0.047 0.12-0.075 0.038-0.027 0.074-0.057 0.108-0.09s0.067-0.067 0.096-0.104c0.03-0.036 0.057-0.075 0.081-0.115 0.025-0.04 0.047-0.082 0.066-0.125 0.02-0.043 0.036-0.088 0.049-0.133 0.014-0.045 0.024-0.091 0.032-0.138 0.008-0.046 0.011-0.093 0.012-0.14v-0.015-17.802l4.185-3.269h2.618l6.43-5.037 0.011-0.009c0.003-0.003 0.007-0.006 0.011-0.009 0.036-0.03 0.071-0.062 0.103-0.096 0.032-0.035 0.062-0.071 0.089-0.11 0.028-0.038 0.052-0.079 0.075-0.12 0.022-0.042 0.041-0.085 0.057-0.129 0.017-0.044 0.03-0.09 0.041-0.136 0.01-0.046 0.018-0.092 0.022-0.139 0.005-0.047 0.006-0.094 0.004-0.141-0.001-0.047-0.006-0.094-0.014-0.141-0.008-0.046-0.019-0.092-0.032-0.137-0.014-0.045-0.031-0.089-0.051-0.132-0.016-0.035-0.033-0.069-0.052-0.102-0.02-0.032-0.041-0.064-0.064-0.094l-0.016-0.02-1.995-2.551-0.008-0.011-0.009-0.011c-0.03-0.036-0.062-0.071-0.097-0.103-0.034-0.032-0.071-0.062-0.109-0.089-0.039-0.028-0.079-0.053-0.12-0.075-0.042-0.022-0.085-0.041-0.13-0.057-0.043-0.017-0.089-0.031-0.135-0.041-0.046-0.011-0.092-0.018-0.139-0.022-0.047-0.005-0.094-0.007-0.141-0.005-0.047 0.001-0.095 0.006-0.141 0.015-0.046 0.007-0.092 0.018-0.137 0.032-0.046 0.013-0.09 0.03-0.133 0.05-0.035 0.016-0.069 0.033-0.102 0.053s-0.065 0.041-0.096 0.065l-0.02 0.015-6.665 5.238v2.038l-3.24 2.532v-9.7-0.025c-0.001-0.044-0.004-0.088-0.01-0.132-0.007-0.043-0.016-0.086-0.028-0.128-0.012-0.046-0.027-0.091-0.046-0.134-0.018-0.044-0.04-0.086-0.064-0.126-0.023-0.041-0.049-0.081-0.078-0.118s-0.061-0.072-0.095-0.105l-0.01-0.01-0.01-0.01-8.639-8.098-0.019-0.018c-0.024-0.021-0.049-0.042-0.075-0.061s-0.052-0.038-0.08-0.054c-0.04-0.026-0.082-0.048-0.125-0.067s-0.087-0.035-0.133-0.048c-0.045-0.014-0.091-0.024-0.137-0.032-0.047-0.007-0.094-0.011-0.141-0.012-0.047-0.002-0.094 0-0.141 0.005s-0.094 0.013-0.14 0.024c-0.045 0.011-0.09 0.025-0.134 0.042-0.045 0.016-0.087 0.037-0.129 0.059-0.041 0.022-0.081 0.048-0.119 0.075-0.038 0.028-0.075 0.058-0.109 0.091-0.034 0.032-0.066 0.067-0.096 0.104-0.03 0.036-0.057 0.075-0.081 0.115-0.025 0.04-0.047 0.082-0.066 0.125s-0.036 0.087-0.049 0.133c-0.014 0.045-0.024 0.091-0.032 0.137-0.007 0.047-0.011 0.094-0.012 0.141v0.014 0.014 8.659c-0.293-0.031-0.586-0.059-0.879-0.084-0.294-0.025-0.588-0.04-0.882-0.043-0.472-0.005-0.944 0.026-1.411 0.094-0.468 0.066-0.929 0.17-1.379 0.31-0.451 0.135-0.892 0.3-1.321 0.493s-0.853 0.4-1.269 0.62c-0.174 0.089-0.346 0.182-0.517 0.277-0.17 0.096-0.335 0.2-0.495 0.311-0.124 0.085-0.243 0.177-0.359 0.274-0.114 0.097-0.224 0.199-0.329 0.308-0.135 0.138-0.261 0.285-0.376 0.44-0.116 0.155-0.221 0.317-0.315 0.486-0.097 0.167-0.182 0.341-0.255 0.52-0.072 0.18-0.131 0.365-0.174 0.553-0.062 0.257-0.095 0.519-0.099 0.782-0.003 0.263 0.025 0.525 0.085 0.781 0.034 0.164 0.08 0.326 0.135 0.485s0.113 0.317 0.175 0.473l4.322 13.66" fill-rule="evenodd" fill="#fff"/>
    </g>
    <g id="g4631" transform="matrix(0 1.25 1.25 0 645.38 407.91)">
     <path id="path4633" d="m0 0h0.025 0.024c0.165-0.002 0.33-0.015 0.493-0.038 0.164-0.023 0.325-0.058 0.484-0.104 0.159-0.043 0.315-0.097 0.467-0.162 0.151-0.066 0.298-0.142 0.439-0.227 0.143-0.084 0.279-0.177 0.409-0.279 0.129-0.102 0.252-0.213 0.366-0.332 0.116-0.118 0.224-0.243 0.323-0.375 0.098-0.132 0.188-0.271 0.268-0.416 0.081-0.143 0.153-0.292 0.214-0.446 0.061-0.153 0.112-0.31 0.151-0.47 0.042-0.16 0.073-0.322 0.092-0.486s0.028-0.329 0.024-0.494c-0.001-0.165-0.013-0.33-0.037-0.493-0.024-0.164-0.059-0.325-0.104-0.484-0.044-0.159-0.099-0.314-0.164-0.466s-0.14-0.299-0.226-0.44c-0.083-0.142-0.176-0.279-0.279-0.409-0.102-0.129-0.213-0.252-0.332-0.366-0.117-0.116-0.243-0.223-0.375-0.322s-0.271-0.189-0.415-0.268c-0.144-0.082-0.293-0.153-0.446-0.215-0.153-0.061-0.31-0.111-0.471-0.151-0.16-0.042-0.322-0.072-0.486-0.092-0.163-0.019-0.329-0.027-0.494-0.024-0.165 0.001-0.329 0.014-0.493 0.037-0.163 0.024-0.324 0.059-0.483 0.105-0.159 0.044-0.315 0.098-0.467 0.163-0.151 0.065-0.298 0.141-0.44 0.226-0.142 0.084-0.278 0.177-0.408 0.279-0.129 0.102-0.252 0.213-0.366 0.332-0.116 0.118-0.224 0.243-0.323 0.375s-0.188 0.271-0.268 0.416c-0.081 0.143-0.153 0.292-0.214 0.445-0.061 0.154-0.112 0.311-0.151 0.471-0.042 0.16-0.072 0.322-0.092 0.486-0.019 0.164-0.028 0.329-0.024 0.494 0.001 0.165 0.013 0.33 0.037 0.493s0.058 0.325 0.104 0.483c0.044 0.159 0.099 0.315 0.164 0.467s0.14 0.299 0.226 0.44c0.083 0.142 0.176 0.279 0.278 0.408 0.103 0.13 0.214 0.252 0.333 0.367 0.117 0.116 0.242 0.223 0.375 0.322 0.132 0.099 0.271 0.189 0.415 0.268 0.144 0.082 0.292 0.153 0.446 0.214 0.153 0.061 0.311 0.112 0.471 0.152 0.151 0.039 0.306 0.07 0.461 0.089 0.156 0.02 0.312 0.029 0.469 0.027" fill-rule="evenodd" fill="#fff"/>
    </g>
    <g id="g4635" fill="#039" transform="matrix(0 1.25 1.25 0 656.22 421.19)">
     <path id="path4637" d="m0 0-1.179-10.835v-0.572c0.083-0.004 0.167-0.008 0.25-0.012 0.084-0.004 0.167-0.008 0.25-0.013 0.523-0.033 1.044-0.096 1.56-0.187 0.516-0.092 1.026-0.213 1.527-0.364 0.214-0.062 0.427-0.127 0.639-0.196 0.212-0.07 0.423-0.14 0.633-0.212v9.709l-3.492 2.73-0.046-0.014c-0.015-0.004-0.031-0.008-0.046-0.012l-0.048-0.012-0.048-0.01" fill-rule="evenodd" fill="#039"/>
    </g>
   </g>
  </g>
 </g>
</svg>
