<?xml version="1.0" encoding="UTF-8" standalone="no"?>
<!-- Created with Inkscape (http://www.inkscape.org/) -->
<svg id="svg2" xmlns:rdf="http://www.w3.org/1999/02/22-rdf-syntax-ns#" xmlns="http://www.w3.org/2000/svg" height="60" width="60" version="1.1" xmlns:cc="http://creativecommons.org/ns#" xmlns:dc="http://purl.org/dc/elements/1.1/">
 <metadata id="metadata7">
  <rdf:RDF>
   <cc:Work rdf:about="">
    <dc:format>image/svg+xml</dc:format>
    <dc:type rdf:resource="http://purl.org/dc/dcmitype/StillImage"/>
    <dc:title/>
   </cc:Work>
  </rdf:RDF>
 </metadata>
 <g id="layer3" transform="translate(0,-60)">
  <g id="g6903" transform="matrix(.97035 0 0 .97035 -28.221 31.779)">
   <g id="layer1-1" transform="translate(97.143 284.78)">
    <g id="g2902" transform="matrix(.84345 0 0 .84345 -5.8147 -35.189)">
     <path id="path20046" d="m-67.816-191.58h-0.01968c-0.10944 0-0.21765-0.009-0.32586-0.0221-0.10821-0.0148-0.21519-0.0369-0.32094-0.0676-0.10452-0.0271-0.20782-0.0615-0.30865-0.10453-0.10083-0.0418-0.19798-0.091-0.29266-0.14633-0.09469-0.0541-0.18568-0.11559-0.27176-0.18199s-0.16846-0.13895-0.2447-0.21642c-0.07747-0.0762-0.15002-0.15863-0.21642-0.24471-0.0664-0.0861-0.12666-0.17707-0.18199-0.27175-0.05411-0.0935-0.10329-0.19183-0.1451-0.29267-0.04304-0.10083-0.07747-0.20289-0.10575-0.30864-0.03074-0.10576-0.05288-0.21274-0.06763-0.32095-0.01599-0.10698-0.02336-0.21642-0.02213-0.32586v-61.388c0-0.10821 0.0087-0.21765 0.02336-0.32464 0.01476-0.10944 0.03566-0.21642 0.0664-0.32094 0.02705-0.10575 0.06271-0.20905 0.10452-0.30988s0.091-0.19798 0.14633-0.29143c0.05534-0.0946 0.11559-0.18568 0.18199-0.27176 0.0664-0.0874 0.13895-0.16846 0.21642-0.2447 0.07624-0.0775 0.15863-0.15002 0.2447-0.21643 0.08608-0.0664 0.17707-0.12788 0.27176-0.18199 0.09468-0.0553 0.19183-0.10329 0.29266-0.1451 0.10083-0.043 0.20413-0.0775 0.30865-0.10575 0.10575-0.0295 0.21273-0.0528 0.32094-0.0676 0.10821-0.0147 0.21642-0.0221 0.32586-0.0221h61.388c0.10821 0.00098 0.21765 0.009 0.32586 0.0234 0.10821 0.0136 0.21519 0.0369 0.31972 0.0664 0.10575 0.0271 0.20904 0.0615 0.30988 0.10329 0.10083 0.043 0.19798 0.0922 0.29143 0.14756 0.094685 0.0541 0.18568 0.11559 0.27176 0.18199 0.087307 0.0664 0.16847 0.13895 0.24593 0.21642 0.077469 0.0762 0.14879 0.1574 0.21642 0.24471 0.066402 0.0861 0.12666 0.17707 0.18076 0.27176 0.055335 0.0935 0.10452 0.1906 0.14633 0.29143 0.041809 0.10083 0.077469 0.20413 0.10575 0.30988 0.029512 0.10575 0.051646 0.21273 0.067632 0.32094 0.014756 0.10698 0.022134 0.21642 0.020904 0.32464v61.388c0 0.10944-0.00856 0.21888-0.022134 0.32586-0.014756 0.10821-0.03689 0.21519-0.066402 0.32094-0.028282 0.10576-0.062713 0.20905-0.10452 0.30988-0.043039 0.0996-0.092225 0.19798-0.14756 0.29143-0.054106 0.0946-0.11436 0.18569-0.18076 0.27176-0.067632 0.0861-0.13895 0.16847-0.21642 0.24471-0.077469 0.0787-0.15863 0.15002-0.24593 0.21642-0.086077 0.0677-0.17707 0.12789-0.27176 0.18199-0.093455 0.0554-0.1906 0.10329-0.29143 0.14633-0.10083 0.0418-0.20413 0.0762-0.30988 0.10453-0.10452 0.0307-0.2115 0.0528-0.31972 0.0676-0.10821 0.0159-0.21765 0.0234-0.32586 0.0221h-61.368z" fill-rule="evenodd" fill="#e72512"/>
     <path id="path20050" d="m-20.675-201.16-40.09-40.09v40.09h40.09" fill-rule="evenodd" fill="#fff"/>
     <path id="path20054" d="m-13.521-208.31v-40.09h-40.09l40.09 40.09" fill-rule="evenodd" fill="#fff"/>
     <path id="path20058" stroke-linejoin="bevel" d="m-68.323-189.42h62.395c0.18125-0.001 0.36125-0.0137 0.54-0.0375 0.18-0.025 0.3575-0.0613 0.53125-0.11125 0.175-0.045 0.3475-0.1025 0.51375-0.17375 0.16625-0.07 0.32875-0.15125 0.48375-0.24375 0.1575-0.09 0.3075-0.19 0.45125-0.3s0.27875-0.23125 0.40625-0.36c0.12875-0.12625 0.24875-0.26125 0.35875-0.405s0.21-0.295 0.3-0.45125c0.0925-0.15625 0.17375-0.3175 0.2425-0.485 0.07-0.16625 0.12875-0.3375 0.17625-0.5125 0.04875-0.175 0.08625-0.3525 0.11125-0.53125s0.0375-0.36 0.03625-0.54v-62.429c0-0.18-0.01375-0.36125-0.0375-0.54-0.02375-0.18-0.06125-0.3575-0.11-0.53125-0.04625-0.175-0.10375-0.34625-0.17375-0.51375-0.07-0.16625-0.1525-0.32875-0.245-0.48375-0.09-0.15625-0.19-0.3075-0.3-0.45125-0.11-0.1425-0.23-0.27875-0.35875-0.40625-0.1275-0.12875-0.2625-0.24875-0.40625-0.35875s-0.29375-0.21-0.45125-0.3c-0.155-0.0912-0.3175-0.1725-0.485-0.2425-0.16625-0.07-0.3375-0.12875-0.5125-0.175-0.17375-0.05-0.35125-0.0875-0.53125-0.1125-0.17875-0.025-0.35875-0.0375-0.54-0.0362h-62.427c-0.18125 0.001-0.3625 0.0138-0.54125 0.0375-0.17875 0.025-0.35625 0.0612-0.53125 0.11125-0.175 0.045-0.34625 0.1025-0.5125 0.1725-0.1675 0.0712-0.32875 0.1525-0.485 0.245-0.15625 0.09-0.3075 0.19-0.45 0.3-0.14375 0.11-0.28 0.23-0.40625 0.35875-0.12875 0.1275-0.24875 0.26375-0.36 0.40625-0.11 0.14375-0.21 0.29375-0.3 0.45125-0.09125 0.15625-0.1725 0.3175-0.2425 0.485-0.07 0.16625-0.12875 0.33875-0.175 0.5125-0.05 0.175-0.0875 0.3525-0.1125 0.53125s-0.0375 0.36-0.03625 0.54v62.429c0.0012 0.18 0.01375 0.36125 0.03875 0.54 0.02375 0.17875 0.06125 0.35625 0.11 0.53125 0.045 0.175 0.10375 0.34625 0.17375 0.51375 0.07 0.16625 0.15125 0.3275 0.24375 0.48375 0.09 0.15625 0.19 0.3075 0.30125 0.45125 0.11 0.1425 0.23 0.27875 0.35875 0.405 0.12625 0.13 0.2625 0.25 0.40625 0.36 0.1425 0.11 0.29375 0.21 0.45 0.3 0.15625 0.0913 0.3175 0.1725 0.485 0.2425 0.16625 0.07 0.33875 0.12875 0.5125 0.175 0.175 0.05 0.3525 0.0875 0.5325 0.1125 0.17875 0.025 0.35875 0.0375 0.54 0.0362h0.0325z" stroke="#231f20" stroke-miterlimit="22.926" stroke-width=".27825" fill="none"/>
     <path id="path20062" stroke-linejoin="bevel" d="m-68.323-189.35h-0.03375c-0.18375-0.001-0.36625-0.0137-0.54875-0.0387-0.1825-0.0238-0.3625-0.0625-0.54-0.11125-0.1775-0.0463-0.3525-0.105-0.52125-0.1775-0.17-0.0712-0.33375-0.15375-0.4925-0.2475-0.15875-0.0913-0.3125-0.19375-0.4575-0.305-0.14625-0.1125-0.28375-0.23375-0.41375-0.365-0.13-0.13-0.2525-0.2675-0.365-0.4125-0.11125-0.14625-0.21375-0.29875-0.305-0.45875-0.0925-0.15875-0.175-0.3225-0.24625-0.4925-0.07-0.16875-0.13-0.34375-0.1775-0.52125-0.05-0.1775-0.08875-0.3575-0.11375-0.54-0.02625-0.18125-0.03875-0.365-0.0375-0.54875v-62.429c0.0012-0.18375 0.01375-0.3675 0.03875-0.54875 0.025-0.1825 0.0625-0.3625 0.1125-0.54 0.04625-0.1775 0.105-0.3525 0.17625-0.5225 0.07125-0.16875 0.15375-0.3325 0.2475-0.49125 0.0925-0.15875 0.19375-0.3125 0.30625-0.4575 0.11125-0.14625 0.23375-0.28375 0.36375-0.41375s0.2675-0.2525 0.41375-0.36375c0.145-0.1125 0.29875-0.215 0.4575-0.30625 0.15875-0.0925 0.3225-0.175 0.4925-0.24625 0.17-0.0713 0.34375-0.13 0.52125-0.1775 0.1775-0.0513 0.3575-0.0888 0.54-0.115 0.1825-0.025 0.365-0.0375 0.54875-0.0362h62.429c0.18375 0.001 0.3675 0.0138 0.55 0.0387 0.18125 0.025 0.3625 0.0612 0.53875 0.1125 0.17875 0.045 0.3525 0.105 0.5225 0.17625 0.17 0.0713 0.33375 0.15375 0.49125 0.2475 0.16 0.0913 0.3125 0.19375 0.45875 0.30625 0.145 0.11125 0.28375 0.23375 0.4125 0.36375 0.13125 0.13 0.2525 0.2675 0.365 0.41375 0.11125 0.145 0.21375 0.29875 0.305 0.4575 0.09375 0.15875 0.17625 0.3225 0.2475 0.4925 0.07 0.17 0.13 0.34375 0.1775 0.52125 0.05 0.1775 0.08875 0.3575 0.11375 0.54 0.02625 0.18125 0.0375 0.365 0.03625 0.54875v62.429c-0.0012 0.18375-0.01375 0.3675-0.0375 0.54875-0.025 0.1825-0.0625 0.3625-0.1125 0.54-0.04625 0.1775-0.105 0.3525-0.1775 0.52125-0.07125 0.17-0.15375 0.33375-0.2475 0.4925-0.09125 0.16-0.19375 0.3125-0.305 0.45875-0.1125 0.145-0.23375 0.2825-0.365 0.4125-0.12875 0.13125-0.2675 0.2525-0.4125 0.365-0.14625 0.11125-0.29875 0.21375-0.45875 0.305-0.15875 0.0937-0.3225 0.175-0.4925 0.24625-0.16875 0.0712-0.34375 0.13-0.52125 0.17875-0.1775 0.05-0.3575 0.0875-0.54 0.11375-0.18125 0.025-0.365 0.0375-0.54875 0.0362h-62.395z" stroke="#000" stroke-miterlimit="22.926" stroke-width="2.4437" fill="none"/>
     <path id="path3799" d="m-41.173-228.1c-0.25111-0.42156-0.50914-0.83848-0.77427-1.2516-0.26204-0.41023-0.54422-0.80755-0.84538-1.1904-0.42425-0.52925-0.88759-1.026-1.3857-1.485-0.5044-0.46566-1.0296-0.90714-1.5746-1.3246-0.53639-0.43183-1.1032-0.82578-1.6956-1.1784-0.58778-0.35084-1.2251-0.60987-1.8917-0.76938-0.12376-0.0303-0.24698-0.0624-0.36965-0.0963-0.12154-0.0324-0.23925-0.0774-0.35062-0.13562-0.05185-0.0272-0.10097-0.0574-0.14938-0.0894-0.04778-0.033-0.0957-0.0669-0.14139-0.10284-0.07086-0.0522-0.1389-0.10842-0.20475-0.16668-0.06567-0.0574-0.12643-0.12087-0.18258-0.18767-0.05162-0.0607-0.0981-0.12574-0.13974-0.19331-0.04099-0.0685-0.07818-0.14032-0.10965-0.21308-0.0324-0.0734-0.06081-0.14846-0.08334-0.22533-0.0222-0.0761-0.0401-0.15373-0.05199-0.23242-0.01294-0.0794-0.02018-0.15888-0.02208-0.23843-0.0016-0.0796 0.000845-0.15991 0.0097-0.23874 0.01047-0.10916 0.02798-0.21696 0.05354-0.32356 0.02557-0.10574 0.05641-0.21153 0.09117-0.31456 0.03732-0.11292 0.07909-0.22488 0.12476-0.33408 0.04568-0.1092 0.09597-0.21661 0.15002-0.3221 0.08162-0.16003 0.17274-0.31483 0.27168-0.4641 0.09963-0.15024 0.20429-0.2962 0.31399-0.43786 0.18063-0.23889 0.37314-0.46864 0.57782-0.68761 0.20399-0.21798 0.4232-0.42226 0.65462-0.6106 0.22971-0.1932 0.47372-0.36825 0.72951-0.5247 0.25496-0.1563 0.5217-0.29402 0.79717-0.41091 0.24226-0.10516 0.48917-0.19825 0.74019-0.27743 0.25186-0.0793 0.50652-0.15228 0.7615-0.2184 0.24886-0.0668 0.49886-0.1269 0.74986-0.18115 0.25031-0.0533 0.5036-0.0943 0.75837-0.12163 0.36174-0.0398 0.72502-0.0507 1.0875-0.0313 0.36426 0.0199 0.72724 0.0624 1.0856 0.12792 0.31389 0.0517 0.62534 0.11936 0.9327 0.20314 0.30638 0.0831 0.60867 0.18234 0.90504 0.29722 0.37307 0.14121 0.73582 0.30738 1.0873 0.49783 0.35048 0.18975 0.68896 0.40476 1.0106 0.64156 0.32424 0.23205 0.63257 0.48659 0.92207 0.76154 0.28936 0.27412 0.55989 0.56865 0.80851 0.88069 0.25319 0.30868 0.48532 0.63471 0.69328 0.97521 0.2088 0.34034 0.39415 0.69417 0.55409 1.0601 0.16465 0.36339 0.30374 0.73805 0.41754 1.1205 0.11289 0.38259 0.19974 0.77309 0.25984 1.1673 0.06468 0.39431 0.10324 0.79138 0.11339 1.1908 0.01015 0.39938-0.0064 0.79819-0.0508 1.1949-0.03927 0.3967-0.10652 0.79047-0.1997 1.1784-0.09304 0.38875-0.21312 0.77012-0.35802 1.142-0.14016 0.37451-0.30611 0.73885-0.49664 1.0902-0.18983 0.3504-0.40436 0.68701-0.64321 1.0072-0.05555 0.0765-0.11132 0.15225-0.16901 0.22658-0.05751 0.0752-0.11522 0.14948-0.17374 0.22395 0.0069 0.005 0.0127 0.009 0.01952 0.0138 0.0067 0.004 0.01358 0.009 0.01937 0.013 0.16468 0.11344 0.31953 0.23973 0.4636 0.37818 0.14475 0.13748 0.2794 0.28614 0.40267 0.44362 0.12616 0.15442 0.24168 0.31667 0.34567 0.48692 0.10402 0.17024 0.19715 0.3475 0.27752 0.53039 0.08353 0.18149 0.15521 0.36845 0.21308 0.56036 0.05768 0.19108 0.09983 0.38569 0.12591 0.58306 0.02504 0.18123 0.0384 0.3636 0.04147 0.54688 0.0032 0.18327 0.0019 0.36645-0.0034 0.5503 0.49094-0.008 0.98142-0.0234 1.4715-0.0466 0.48669-0.0226 0.97202-0.0682 1.4549-0.13821 0.67061-0.10229 1.3316-0.25533 1.9791-0.45757 0.65495-0.20353 1.3011-0.4382 1.9347-0.70077 0.64289-0.2487 1.2669-0.54226 1.869-0.87843 0.59737-0.33365 1.1407-0.7568 1.6113-1.2533 0.08907-0.0917 0.17827-0.18265 0.26845-0.27286 0.08964-0.0884 0.18766-0.16794 0.29369-0.23597 0.04881-0.0307 0.09911-0.0583 0.15146-0.0836 0.05326-0.0255 0.10668-0.0492 0.16044-0.0714 0.08069-0.0353 0.16296-0.0666 0.24579-0.0946 0.08379-0.0273 0.16862-0.0487 0.25458-0.0635 0.07831-0.0143 0.15776-0.0219 0.23736-0.0236 0.08046-0.002 0.1601 0.002 0.23991 0.0112 0.07957 0.008 0.15825 0.0209 0.2363 0.0401 0.07705 0.0185 0.15319 0.0416 0.2278 0.0708 0.07449 0.0284 0.14731 0.0623 0.21738 0.10009 0.07025 0.0386 0.13765 0.0811 0.20233 0.12759 0.08917 0.0637 0.17328 0.13344 0.2523 0.20833 0.07995 0.0756 0.15541 0.15455 0.22708 0.23672 0.07963 0.0885 0.15554 0.18029 0.22756 0.27442 0.07197 0.0941 0.14028 0.1915 0.20383 0.29139 0.09723 0.15079 0.18581 0.3065 0.2658 0.46713 0.08019 0.16145 0.1546 0.32475 0.22276 0.4917 0.1169 0.27539 0.2185 0.55685 0.30635 0.84324 0.08691 0.2857 0.15415 0.57736 0.20217 0.87231 0.05139 0.29523 0.08144 0.59413 0.08902 0.89346 0.0085 0.29917-0.0063 0.59888-0.04295 0.8955-0.02876 0.26262-0.0726 0.52268-0.12982 0.77987-0.05705 0.25803-0.12054 0.51373-0.19197 0.76821-0.06546 0.24917-0.13831 0.49531-0.21743 0.73995-0.07927 0.24381-0.17039 0.48364-0.27448 0.71796-0.14565 0.33251-0.31837 0.65249-0.51609 0.95701-0.1984 0.3055-0.41706 0.59816-0.6529 0.87572-0.2026 0.2461-0.41735 0.48139-0.64329 0.70658-0.2254 0.22338-0.46227 0.43499-0.70991 0.63385-0.30877 0.25316-0.63422 0.48428-0.97467 0.69306s-0.69438 0.39411-1.0612 0.55418c-0.3635 0.16464-0.73727 0.30442-1.1208 0.41753-0.38254 0.1138-0.77231 0.2005-1.1676 0.2598-0.39349 0.065-0.79172 0.10248-1.1911 0.11352-0.39863 0.0101-0.79851-0.007-1.1953-0.0515-0.39665-0.0384-0.79135-0.10545-1.1792-0.19773-0.38814-0.094-0.76946-0.21314-1.1416-0.35881-0.3739-0.14107-0.73749-0.30709-1.0881-0.49768-0.35047-0.18976-0.68813-0.40491-1.0089-0.64185-0.32507-0.23191-0.63256-0.4866-0.92193-0.76071-0.28964-0.27579-0.56003-0.56949-0.80948-0.88138-0.25403-0.30854-0.48698-0.63443-0.6958-0.97478-0.20949-0.33937-0.39331-0.69431-0.55157-1.0605-0.03795-0.0863-0.07511-0.17263-0.11172-0.25997-0.03641-0.0874-0.072-0.17402-0.10683-0.26166l-0.02145 0.01-0.02147 0.01c-0.17238 0.0769-0.35038 0.14091-0.53334 0.19123-0.18295 0.0503-0.36745 0.0966-0.55198 0.13775l-0.03006 0.005-0.02917 0.005c-0.19723 0.0322-0.39593 0.0508-0.59511 0.0567-0.20001 0.006-0.39911-0.003-0.59815-0.0261-0.19818-0.0184-0.39546-0.0515-0.58905-0.0981-0.19457-0.0473-0.38529-0.10733-0.57135-0.18017-0.1873-0.07-0.36978-0.15208-0.54661-0.24625-0.17517-0.0945-0.34316-0.20218-0.50231-0.32344-0.02947-0.0216-0.05909-0.044-0.08871-0.0664-0.02888-0.0234-0.05771-0.0459-0.08747-0.0692-0.23333 0.4223-0.46024 0.84693-0.68046 1.2756-0.21966 0.42682-0.41896 0.86217-0.59692 1.3067-0.24554 0.63139-0.44406 1.2813-0.59339 1.9426-0.15055 0.66919-0.27071 1.3452-0.36009 2.0254-0.10552 0.68122-0.1637 1.368-0.1734 2.0568-0.0096 0.6845 0.08436 1.3667 0.27954 2.0229 0.03554 0.12187 0.06955 0.24487 0.10189 0.36816 0.03205 0.12161 0.05143 0.24626 0.05785 0.37228 0.0017 0.0573 0.001 0.11578-0.0029 0.17315-0.0046 0.0583-0.011 0.11613-0.0182 0.17405-0.01071 0.0877-0.0249 0.17521-0.042 0.2606-0.01798 0.0856-0.04117 0.17027-0.07185 0.25198-0.02669 0.075-0.05966 0.14767-0.09833 0.21788-0.03868 0.0702-0.08118 0.13762-0.12945 0.20174-0.04642 0.0647-0.0978 0.12588-0.15306 0.18433-0.05456 0.0575-0.11304 0.11219-0.17586 0.16162-0.06181 0.0501-0.1269 0.0965-0.19533 0.13834-0.06762 0.0417-0.13854 0.0788-0.21119 0.111-0.09958 0.0454-0.20213 0.0837-0.3068 0.11453-0.10453 0.0317-0.2109 0.0577-0.31896 0.0788-0.11612 0.0242-0.23296 0.0443-0.35147 0.0595-0.11686 0.0149-0.23541 0.025-0.35385 0.0307-0.17967 0.009-0.3587 0.007-0.53749-0.003-0.17977-0.0112-0.35888-0.0285-0.53662-0.053-0.29752-0.0365-0.59262-0.0889-0.88431-0.15648-0.29085-0.0677-0.57735-0.15508-0.8567-0.26086-0.28142-0.10283-0.55515-0.22589-0.81868-0.36959-0.26338-0.14287-0.51544-0.30487-0.75506-0.48446-0.21166-0.1569-0.41573-0.32456-0.61037-0.50243-0.19479-0.1787-0.38431-0.36174-0.56968-0.55065-0.18144-0.18099-0.35873-0.36785-0.53144-0.55807-0.17187-0.19037-0.33321-0.38942-0.48471-0.59617-0.21511-0.29202-0.40581-0.60198-0.57055-0.92585-0.16571-0.32456-0.31003-0.65966-0.43269-1.0036-0.11132-0.29783-0.20814-0.60158-0.29011-0.90874-0.08109-0.30731-0.14566-0.61832-0.19358-0.93219-0.06468-0.3943-0.10246-0.79151-0.11325-1.1899-0.01103-0.39922 0.0063-0.79901 0.05066-1.1957 0.03829-0.39739 0.10456-0.79186 0.19858-1.1799 0.09317-0.38792 0.21325-0.76929 0.35913-1.1405 0.1403-0.37368 0.3064-0.73719 0.49706-1.0877 0.19068-0.35055 0.40507-0.688 0.64195-1.0096 0.23298-0.32432 0.48677-0.63245 0.76182-0.92191 0.27504-0.28946 0.56967-0.55994 0.88166-0.80936 0.30877-0.25316 0.63408-0.48511 0.97453-0.6939 0.34058-0.20794 0.69452-0.39328 1.0607-0.55236 0.3635-0.16465 0.73742-0.30359 1.1201-0.41656 0.38351-0.11311 0.77397-0.20078 1.1682-0.26161 0.39503-0.0661 0.79296-0.10526 1.1931-0.11645 0.39835-0.0117 0.79754 0.006 1.1933 0.0545 0.1365 0.0144 0.27272 0.0322 0.40855 0.0527 0.13582 0.0205 0.27097 0.0419 0.40624 0.0642 0.034-0.17247 0.0714-0.34467 0.11162-0.51563 0.04038-0.17013 0.08967-0.33836 0.14802-0.50384 0.06844-0.18698 0.15062-0.36859 0.24708-0.54233 0.097-0.17557 0.20462-0.34436 0.32284-0.50639 0.11642-0.16257 0.24345-0.31838 0.37985-0.46464 0.13655-0.14542 0.28456-0.27906 0.44239-0.40065 0.1431-0.11219 0.29393-0.21454 0.44966-0.30828 0.1574-0.094 0.31634-0.18403 0.4774-0.27181" fill-rule="evenodd" stroke="#000" stroke-width="1.0306"/>
    </g>
   </g>
  </g>
 </g>
</svg>
