<?xml version="1.0" encoding="UTF-8" standalone="no"?>
<!-- Created with Inkscape (http://www.inkscape.org/) -->
<svg id="svg2" xmlns:rdf="http://www.w3.org/1999/02/22-rdf-syntax-ns#" xmlns="http://www.w3.org/2000/svg" height="60" width="60" version="1.1" xmlns:cc="http://creativecommons.org/ns#" xmlns:dc="http://purl.org/dc/elements/1.1/">
 <metadata id="metadata7">
  <rdf:RDF>
   <cc:Work rdf:about="">
    <dc:format>image/svg+xml</dc:format>
    <dc:type rdf:resource="http://purl.org/dc/dcmitype/StillImage"/>
    <dc:title/>
   </cc:Work>
  </rdf:RDF>
 </metadata>
 <g id="layer11" transform="translate(0,-60)">
  <g id="g6789" transform="matrix(.97035 0 0 .97035 -28.242 31.8)">
   <g id="layer1-68" transform="matrix(.84345 0 0 .84345 370.89 25.453)">
    <g id="g2917" fill-rule="evenodd">
     <path id="path20130" stroke-linejoin="bevel" d="m-399.75 76.299h62.395c0.18125-0.0012 0.36125-0.01375 0.54-0.0375 0.18-0.025 0.3575-0.06125 0.53125-0.11125 0.175-0.045 0.3475-0.1025 0.51375-0.17375 0.16625-0.07 0.32875-0.15125 0.48375-0.24375 0.1575-0.09 0.3075-0.19 0.45125-0.3 0.14375-0.11125 0.27875-0.23125 0.40625-0.35875 0.12875-0.1275 0.24875-0.26375 0.35875-0.40625 0.11-0.14375 0.21-0.295 0.3-0.45125 0.0925-0.15625 0.17375-0.3175 0.2425-0.485 0.07-0.16625 0.12875-0.3375 0.17625-0.5125 0.0488-0.175 0.0863-0.3525 0.11125-0.53125 0.025-0.18 0.0375-0.36 0.0362-0.54v-62.429c0-0.18-0.0138-0.36125-0.0375-0.54-0.0238-0.18-0.0612-0.3575-0.11-0.53125-0.0462-0.175-0.10375-0.34625-0.17375-0.51375-0.07-0.16625-0.1525-0.32875-0.245-0.48375-0.09-0.15625-0.19-0.3075-0.3-0.45125-0.11-0.1425-0.23-0.27875-0.35875-0.40625-0.1275-0.12875-0.2625-0.24875-0.40625-0.35875s-0.29375-0.21-0.45125-0.3c-0.155-0.09125-0.3175-0.1725-0.485-0.2425-0.16625-0.07-0.3375-0.12875-0.5125-0.175-0.17375-0.05-0.35125-0.0875-0.53125-0.1125-0.17875-0.025-0.35875-0.0375-0.54-0.03625h-62.428c-0.18125 0.00125-0.3625 0.01375-0.54125 0.0375-0.17875 0.025-0.35625 0.06125-0.53125 0.11125-0.175 0.045-0.34625 0.1025-0.5125 0.1725-0.1675 0.07125-0.32875 0.1525-0.485 0.245-0.15625 0.09-0.3075 0.19-0.45 0.3-0.14375 0.11-0.27875 0.23-0.40625 0.35875-0.12875 0.1275-0.24875 0.26375-0.36 0.40625-0.11 0.14375-0.21 0.29375-0.3 0.45125-0.0913 0.15625-0.1725 0.3175-0.2425 0.485-0.07 0.16625-0.12875 0.33875-0.175 0.5125-0.05 0.175-0.0875 0.3525-0.1125 0.53125s-0.0375 0.36-0.0362 0.54v62.429c0.001 0.18 0.0137 0.36125 0.0387 0.54 0.0238 0.17875 0.0612 0.35625 0.11 0.53125 0.045 0.175 0.10375 0.34625 0.17375 0.51375 0.07 0.16625 0.15125 0.3275 0.24375 0.48375 0.09 0.15625 0.19 0.3075 0.30125 0.45125 0.11 0.1425 0.23 0.27875 0.35875 0.40625 0.12625 0.12875 0.2625 0.2475 0.40625 0.35875 0.1425 0.11 0.29375 0.21 0.45 0.3 0.15625 0.09125 0.3175 0.1725 0.485 0.2425 0.16625 0.07 0.33875 0.12875 0.5125 0.175 0.175 0.05 0.3525 0.0875 0.5325 0.1125 0.17875 0.025 0.35875 0.0375 0.54 0.03625h0.0325z" stroke="#231f20" stroke-miterlimit="22.926" stroke-width=".32990" fill="#fff"/>
     <path id="path20134" stroke-linejoin="bevel" d="m-399.75 76.367h-0.0338c-0.18375-0.0012-0.36625-0.01375-0.54875-0.03875-0.1825-0.02375-0.3625-0.0625-0.54-0.11125-0.1775-0.04625-0.35125-0.105-0.52125-0.1775-0.17-0.07125-0.33375-0.15375-0.4925-0.2475-0.15875-0.09125-0.3125-0.19375-0.4575-0.305-0.14625-0.1125-0.28375-0.23375-0.4125-0.365-0.13125-0.13-0.25375-0.2675-0.365-0.4125-0.1125-0.14625-0.215-0.29875-0.305-0.45875-0.0937-0.15875-0.17625-0.3225-0.2475-0.4925-0.07-0.16875-0.13-0.34375-0.1775-0.52125-0.05-0.1775-0.0888-0.3575-0.11375-0.54-0.0263-0.18125-0.0387-0.365-0.0375-0.54875v-62.429c0.001-0.18375 0.0138-0.3675 0.0388-0.54875 0.025-0.1825 0.0625-0.3625 0.1125-0.54 0.0463-0.1775 0.105-0.3525 0.17625-0.5225 0.0712-0.16875 0.15375-0.3325 0.24875-0.49125 0.0913-0.15875 0.1925-0.3125 0.305-0.4575 0.11125-0.14625 0.23375-0.28375 0.365-0.41375 0.12875-0.13 0.26625-0.2525 0.4125-0.36375 0.145-0.1125 0.29875-0.215 0.4575-0.30625 0.15875-0.0925 0.32375-0.175 0.4925-0.24625 0.17-0.07125 0.34375-0.13 0.52125-0.1775 0.1775-0.05125 0.3575-0.08875 0.54-0.115 0.1825-0.025 0.365-0.0375 0.54875-0.03625h62.429c0.185 0.00125 0.3675 0.01375 0.55 0.03875 0.18125 0.025 0.3625 0.06125 0.53875 0.1125 0.17875 0.045 0.3525 0.105 0.5225 0.17625s0.33375 0.15375 0.49125 0.2475c0.16 0.09125 0.3125 0.19375 0.45875 0.30625 0.145 0.11125 0.28375 0.23375 0.4125 0.36375 0.13125 0.13 0.2525 0.2675 0.365 0.41375 0.11125 0.145 0.21375 0.29875 0.305 0.4575 0.0937 0.15875 0.17625 0.3225 0.2475 0.4925 0.07 0.17 0.13 0.34375 0.1775 0.52125 0.05 0.1775 0.0888 0.3575 0.11375 0.54 0.0263 0.18125 0.0375 0.365 0.0362 0.54875v62.429c-0.001 0.18375-0.0138 0.3675-0.0375 0.54875-0.025 0.1825-0.0625 0.3625-0.1125 0.54-0.0462 0.1775-0.105 0.3525-0.1775 0.52125-0.0713 0.17-0.15375 0.33375-0.2475 0.4925-0.0913 0.16-0.19375 0.3125-0.305 0.45875-0.1125 0.145-0.23375 0.2825-0.365 0.4125-0.12875 0.13125-0.2675 0.2525-0.4125 0.365-0.14625 0.11125-0.29875 0.21375-0.45875 0.305-0.15875 0.09375-0.3225 0.175-0.4925 0.24625-0.16875 0.07125-0.34375 0.13-0.52125 0.17875-0.1775 0.05-0.3575 0.0875-0.54 0.11375-0.18125 0.025-0.36375 0.0375-0.54875 0.03625h-62.395z" stroke="#000" stroke-miterlimit="22.926" stroke-width="2.4437" fill="#fff"/>
     <path id="path20138" d="m-399.27 74.156h-0.0197c-0.10944 0-0.21765-0.0086-0.32587-0.02213-0.10821-0.01476-0.21519-0.03689-0.31971-0.06763-0.10575-0.02705-0.21027-0.06148-0.30988-0.10452-0.10083-0.04181-0.19797-0.091-0.29266-0.14633-0.0946-0.05411-0.18445-0.11559-0.27176-0.18199-0.0861-0.0664-0.16846-0.13895-0.2447-0.21642-0.0775-0.07624-0.15002-0.15863-0.21642-0.2447-0.0664-0.08608-0.12666-0.17707-0.18199-0.27176-0.0541-0.09346-0.1033-0.19183-0.1451-0.29266-0.043-0.0996-0.0775-0.2029-0.10576-0.30865-0.0307-0.10575-0.0528-0.21273-0.0676-0.32094-0.016-0.10698-0.0234-0.21642-0.0221-0.32586v-61.388c0.00098-0.10821 0.009-0.21765 0.0234-0.32463 0.0148-0.10944 0.0356-0.21642 0.0664-0.32095 0.0271-0.10575 0.0628-0.20904 0.10452-0.30988 0.0418-0.10083 0.091-0.19798 0.14634-0.29143 0.0553-0.094685 0.11558-0.18568 0.18199-0.27176 0.0664-0.087307 0.13895-0.16847 0.21642-0.24471 0.0762-0.077469 0.15863-0.15002 0.2447-0.21642 0.0874-0.066403 0.17708-0.12789 0.27176-0.18199 0.0946-0.055335 0.19183-0.10329 0.29266-0.1451 0.10083-0.043039 0.20413-0.07747 0.30988-0.10575 0.10452-0.029512 0.2115-0.052876 0.31971-0.067632s0.21643-0.022134 0.32587-0.022134h61.388c0.10821 0.00123 0.21765 0.00861 0.32586 0.023364 0.10821 0.013526 0.21519 0.03689 0.31972 0.066402 0.10575 0.027053 0.20904 0.061484 0.30987 0.10329 0.10084 0.043039 0.19798 0.092226 0.29143 0.14756 0.0946 0.054106 0.18568 0.11559 0.27176 0.18199 0.0874 0.066402 0.16847 0.13895 0.24594 0.21642 0.0775 0.07624 0.14879 0.1574 0.21642 0.24471 0.0664 0.086077 0.12665 0.17707 0.18076 0.27176 0.0553 0.093455 0.10452 0.1906 0.14633 0.29143 0.0418 0.10083 0.0774 0.20536 0.10575 0.30988 0.0295 0.10575 0.0516 0.21273 0.0677 0.32095 0.0148 0.10698 0.0221 0.21642 0.021 0.32463v61.388c0 0.10944-0.009 0.21888-0.0221 0.32586-0.0147 0.10821-0.0369 0.21519-0.0664 0.32094-0.0271 0.10575-0.0627 0.20904-0.10452 0.30988-0.043 0.0996-0.0922 0.19798-0.14756 0.29143-0.0541 0.09468-0.11436 0.18568-0.18076 0.27176-0.0676 0.08608-0.13896 0.16846-0.21643 0.2447-0.0775 0.0787-0.15862 0.15002-0.24593 0.21642-0.0861 0.0664-0.17584 0.12789-0.27176 0.18199-0.0935 0.05533-0.1906 0.10329-0.29143 0.14633-0.10083 0.04181-0.20412 0.07624-0.30988 0.10452-0.10452 0.03074-0.2115 0.05288-0.31971 0.06763-0.10821 0.01599-0.21765 0.02336-0.32586 0.02213h-61.368z" fill="#e72512"/>
     <path id="path20142" d="m-352.1 64.555-40.09-40.09v40.09h40.09" fill="#fff"/>
     <path id="path20146" d="m-344.95 57.402v-40.09h-40.09l40.09 40.09" fill="#fff"/>
     <path id="path20150" stroke-linejoin="bevel" d="m-348.32 64.564v-4.7262h-8.8875c-0.25375-0.6825-0.5025-1.365-0.74625-2.0512-0.2425-0.68375-0.47-1.375-0.68125-2.07-0.16375-0.5425-0.31375-1.0875-0.4525-1.6362-0.13875-0.54875-0.26625-1.1012-0.385-1.655-0.18875-0.86875-0.3525-1.7438-0.49-2.6225-0.13625-0.8775-0.2425-1.76-0.31625-2.6462-0.0288-0.32125-0.0537-0.64375-0.0763-0.96625-0.0212-0.3225-0.0425-0.645-0.0625-0.9675l-16.259-2.245c-0.01 0.49375-0.0213 0.9875-0.035 1.4812-0.0138 0.4925-0.035 0.98625-0.0637 1.4788-0.0625 1.0675-0.16875 2.1312-0.3175 3.19-0.1475 1.06-0.33375 2.1138-0.55875 3.16-0.165 0.8075-0.35375 1.61-0.565 2.4062-0.2125 0.795-0.45 1.5825-0.71375 2.3612-0.15625 0.46875-0.32125 0.93375-0.4925 1.3962-0.1725 0.4625-0.34625 0.925-0.52375 1.3862h-12.258v4.7262h43.884z" stroke="#000" stroke-miterlimit="22.926" stroke-width=".32990"/>
     <path id="path20154" stroke-linejoin="bevel" d="m-377.1 36.785 16.791 2.3175c0.0487-0.49 0.1-0.97875 0.155-1.4688 0.0537-0.4875 0.11875-0.975 0.1925-1.4612 0.0387-0.2425 0.0788-0.48625 0.12125-0.72875 0.0425-0.2425 0.085-0.485 0.12625-0.72875 0.06-0.3725 0.1275-0.74375 0.2025-1.1138 0.0763-0.37 0.18375-0.7325 0.3225-1.085 0.0925-0.2475 0.2075-0.48625 0.34375-0.71375 0.135-0.22625 0.29375-0.435 0.475-0.625 0.1925-0.1975 0.39625-0.38125 0.61375-0.55125 0.21875-0.16875 0.42625-0.35125 0.62375-0.545 0.2125-0.20875 0.39875-0.4425 0.55125-0.69875 0.155-0.255 0.275-0.53 0.35625-0.8175 0.075-0.24125 0.12125-0.49 0.1375-0.7425 0.0175-0.2525 0.006-0.505-0.0337-0.75375-0.0337-0.25-0.0962-0.495-0.185-0.73125-0.09-0.235-0.205-0.46-0.345-0.67-0.1225-0.195-0.26625-0.37625-0.4275-0.54125-0.15875-0.16375-0.335-0.31125-0.525-0.43875-0.175-0.12-0.35875-0.22625-0.54875-0.3175-0.19125-0.0925-0.385-0.18-0.58125-0.26-0.6675-0.28375-1.3438-0.545-2.0288-0.78375-0.68125-0.2375-1.375-0.44125-2.0775-0.61125-0.52625-0.13375-1.0575-0.24625-1.5925-0.3375s-1.0738-0.1625-1.615-0.21625c-0.41875-0.04375-0.84-0.07625-1.2612-0.09875-0.42125-0.0225-0.84375-0.03375-1.2662-0.035-0.96625-0.0063-1.9325 0.045-2.8925 0.15625-0.95875 0.11-1.9075 0.2875-2.84 0.53125-0.6425 0.15875-1.2775 0.345-1.9038 0.55875-0.63 0.215-1.2538 0.445-1.8712 0.6925-0.25625 0.0975-0.50875 0.20375-0.7575 0.3175-0.24625 0.11375-0.4825 0.24875-0.705 0.40375-0.15125 0.10375-0.29375 0.21875-0.42625 0.345-0.13375 0.12625-0.25625 0.26375-0.36875 0.41-0.17 0.2175-0.3125 0.45375-0.42625 0.70625-0.1125 0.25-0.19375 0.515-0.24 0.78625-0.0312 0.1575-0.0512 0.3175-0.0575 0.4775-0.008 0.16-0.004 0.32125 0.0125 0.48 0.0163 0.1825 0.0462 0.36375 0.09 0.54125 0.045 0.1775 0.10375 0.3525 0.17625 0.52125 0.0775 0.19125 0.17375 0.375 0.28625 0.54875 0.11125 0.1725 0.24 0.33375 0.385 0.48 0.0487 0.05 0.0975 0.0975 0.1475 0.145 0.0512 0.0475 0.10125 0.09375 0.1525 0.13875 0.0587 0.04375 0.11625 0.08625 0.17375 0.13s0.115 0.08625 0.17125 0.13125c0.0625 0.04875 0.12375 0.09875 0.18375 0.15s0.11875 0.10375 0.1775 0.1575c0.15375 0.1425 0.29875 0.29625 0.4325 0.45875s0.255 0.335 0.36125 0.51625c0.135 0.225 0.25125 0.46125 0.345 0.70625 0.0937 0.24625 0.175 0.4975 0.24125 0.7525 0.0975 0.35875 0.17875 0.72375 0.245 1.09 0.065 0.36625 0.12625 0.73375 0.18 1.1012l0.10125 0.66125 0.10125 0.6625z" stroke="#000" stroke-miterlimit="22.926" stroke-width=".32990"/>
     <path id="path20158" stroke-linejoin="bevel" d="m-344.94 46.335-34.372-4.745c-0.0525-0.0087-0.10375-0.01875-0.155-0.02875-0.0513-0.01-0.1025-0.0225-0.1525-0.03625-0.0662-0.02-0.1325-0.0425-0.19625-0.07-0.0637-0.0275-0.1275-0.0575-0.1875-0.09125-0.0775-0.04125-0.15125-0.08875-0.22125-0.13875-0.0712-0.05125-0.1375-0.10625-0.20125-0.16625-0.0638-0.06-0.1225-0.1225-0.17875-0.19-0.055-0.0675-0.105-0.1375-0.15-0.2125-0.0462-0.0725-0.0888-0.14875-0.125-0.22875-0.035-0.07875-0.0663-0.16-0.0913-0.24375-0.0312-0.1-0.055-0.20125-0.07-0.305-0.0163-0.10375-0.0225-0.2075-0.0213-0.3125 0-0.12125 0.0113-0.24375 0.0337-0.36375 0.0225-0.12 0.0562-0.23625 0.1025-0.35 0.0362-0.0975 0.0813-0.19125 0.13375-0.28125 0.0525-0.09 0.11125-0.17625 0.1775-0.25625 0.0875-0.11 0.185-0.21 0.2925-0.29875 0.10875-0.08875 0.225-0.165 0.34875-0.22875 0.0763-0.04125 0.15625-0.07625 0.2375-0.10625 0.0813-0.03 0.165-0.055 0.25-0.07375 0.0675-0.015 0.13625-0.0275 0.205-0.03625 0.07-0.0075 0.13875-0.01125 0.20875-0.01125 0.0512 0 0.10375 0.0012 0.15625 0.005 0.0512 0.0037 0.10375 0.0075 0.15625 0.01125l33.82 4.67v4.0888z" stroke="#000" stroke-miterlimit="22.926" stroke-width=".32990"/>
    </g>
   </g>
  </g>
 </g>
</svg>
