<svg
   xmlns="http://www.w3.org/2000/svg"
   xmlns:xlink="http://www.w3.org/1999/xlink"  
   version="1.1"
   width="60"
   height="60">
  <symbol id="notice_e13" width="60" height="60">
    <path d="m 31.263,15.662 -4.542,0 c -0.035,0 -0.07,-0.003 -0.104,-0.007 C 26.582,15.65 26.548,15.643 26.514,15.633 26.48,15.625 26.447,15.613 26.415,15.6 26.382,15.586 26.351,15.57 26.321,15.553 26.29,15.535 26.261,15.516 26.234,15.494 26.206,15.473 26.18,15.45 26.155,15.425 26.13,15.4 26.107,15.374 26.086,15.346 26.064,15.318 26.045,15.289 26.027,15.259 26.01,15.229 25.994,15.197 25.98,15.165 25.967,15.133 25.955,15.1 25.946,15.066 25.937,15.032 25.929,14.998 25.924,14.963 25.92,14.928 25.917,14.894 25.918,14.858 l 0,-0.012 c 0,-0.035 0.002,-0.07 0.007,-0.105 0.005,-0.035 0.012,-0.069 0.021,-0.103 0.009,-0.034 0.02,-0.067 0.034,-0.099 0.014,-0.032 0.03,-0.064 0.047,-0.094 0.018,-0.03 0.037,-0.059 0.059,-0.087 0.021,-0.028 0.044,-0.054 0.069,-0.078 0.024,-0.025 0.051,-0.049 0.079,-0.07 0.027,-0.021 0.056,-0.041 0.087,-0.058 0.03,-0.018 0.061,-0.034 0.094,-0.047 0.032,-0.014 0.065,-0.025 0.099,-0.034 0.034,-0.01 0.068,-0.017 0.103,-0.022 0.034,-0.004 0.069,-0.007 0.104,-0.007 l 11.351,0 c 0.036,10e-4 0.07,0.003 0.105,0.008 0.035,0.004 0.069,0.012 0.103,0.021 0.034,0.009 0.067,0.02 0.099,0.034 0.033,0.013 0.064,0.029 0.094,0.047 0.03,0.017 0.059,0.037 0.087,0.058 0.028,0.021 0.054,0.045 0.079,0.07 0.025,0.024 0.048,0.05 0.069,0.078 0.022,0.028 0.041,0.057 0.059,0.087 0.017,0.03 0.033,0.062 0.047,0.094 0.013,0.033 0.024,0.066 0.033,0.099 0.01,0.034 0.017,0.068 0.022,0.103 0.004,0.035 0.007,0.07 0.007,0.105 l 0,0.012 c -10e-4,0.036 -0.003,0.07 -0.008,0.105 -0.004,0.035 -0.011,0.069 -0.021,0.103 -0.008,0.034 -0.019,0.067 -0.033,0.099 -0.014,0.032 -0.03,0.064 -0.047,0.094 -0.018,0.03 -0.038,0.059 -0.059,0.087 -0.021,0.028 -0.044,0.054 -0.069,0.079 -0.025,0.025 -0.051,0.048 -0.079,0.069 -0.028,0.022 -0.056,0.041 -0.087,0.059 -0.03,0.017 -0.062,0.033 -0.094,0.046 -0.032,0.014 -0.065,0.025 -0.099,0.034 -0.034,0.01 -0.068,0.017 -0.103,0.022 -0.035,0.005 -0.069,0.007 -0.105,0.007 l -4.541,0 0,7.559 1.566,0 0,8.099 2.699,0 0,0.81 -1.08,0 0,2.97 10.529,-0.001 0,-1.079 0.81,0 0,-2.7 1.08,0 0,14.038 -1.08,0 0,-2.699 -0.81,0 0,-2.16 -9.864,0 c -0.019,0.033 -0.037,0.067 -0.055,0.1 l -0.057,0.099 c -0.125,0.214 -0.264,0.419 -0.417,0.613 -0.153,0.194 -0.32,0.378 -0.499,0.549 -0.176,0.175 -0.364,0.337 -0.562,0.484 -0.199,0.149 -0.407,0.283 -0.624,0.402 -0.215,0.122 -0.439,0.229 -0.669,0.321 -0.229,0.092 -0.466,0.168 -0.706,0.227 -0.239,0.063 -0.483,0.109 -0.729,0.138 -0.245,0.029 -0.493,0.041 -0.741,0.036 -0.247,-0.002 -0.494,-0.02 -0.739,-0.056 -0.245,-0.035 -0.487,-0.088 -0.725,-0.156 -0.239,-0.066 -0.473,-0.148 -0.701,-0.245 -0.227,-0.098 -0.448,-0.211 -0.659,-0.34 -0.213,-0.125 -0.417,-0.265 -0.61,-0.419 -0.194,-0.154 -0.379,-0.32 -0.552,-0.497 -0.177,-0.174 -0.342,-0.361 -0.494,-0.558 -0.15,-0.196 -0.281,-0.406 -0.392,-0.627 l -0.018,-0.036 -0.018,-0.035 -5.816,0 c -0.077,0 -0.153,0.002 -0.23,0.003 -0.076,0.002 -0.152,0.005 -0.229,0.01 -0.17,0.012 -0.34,0.035 -0.508,0.067 -0.168,0.033 -0.334,0.074 -0.498,0.123 -0.228,0.064 -0.45,0.143 -0.667,0.235 -0.217,0.092 -0.427,0.199 -0.629,0.321 -0.203,0.119 -0.398,0.251 -0.583,0.397 -0.185,0.147 -0.36,0.306 -0.524,0.476 -0.165,0.168 -0.32,0.346 -0.461,0.535 -0.142,0.189 -0.269,0.387 -0.382,0.594 -0.115,0.205 -0.215,0.418 -0.301,0.638 -0.086,0.219 -0.16,0.444 -0.221,0.671 -0.036,0.125 -0.067,0.251 -0.094,0.379 -0.026,0.126 -0.045,0.254 -0.056,0.383 -0.009,0.094 -0.014,0.189 -0.015,0.283 -0.002,0.095 -0.002,0.189 -10e-4,0.284 l -5.398,0 -10e-4,-0.071 10e-4,-0.07 c 0.002,-0.471 0.036,-0.942 0.103,-1.408 0.067,-0.467 0.168,-0.929 0.301,-1.382 0.123,-0.456 0.278,-0.901 0.465,-1.335 0.186,-0.433 0.403,-0.852 0.648,-1.255 0.238,-0.407 0.505,-0.797 0.796,-1.167 0.292,-0.37 0.609,-0.72 0.949,-1.047 0.335,-0.331 0.693,-0.638 1.071,-0.92 0.378,-0.282 0.775,-0.538 1.188,-0.767 0.409,-0.234 0.835,-0.439 1.273,-0.615 0.437,-0.176 0.887,-0.319 1.345,-0.429 0.375,-0.095 0.755,-0.169 1.139,-0.22 0.383,-0.052 0.768,-0.085 1.155,-0.099 0.06,-0.003 0.121,-0.005 0.182,-0.007 0.061,-0.002 0.122,-0.005 0.183,-0.006 l 6.478,0 0,-2.97 -1.079,0 0,-0.81 2.699,0 0,-8.099 1.566,0 0,-7.559"/>
  </symbol>
  <use xlink:href="#notice_e13" x="0" y="0" />
</svg>
