<svg
   xmlns="http://www.w3.org/2000/svg"
   xmlns:xlink="http://www.w3.org/1999/xlink"  
   version="1.1"
   width="60"
   height="60">
  <symbol id="notice_anchor" width="60" height="60">
    <path d="m 49.81,24.93464 -1.8024,-10.227 -2.4708,2.2978 c -1.2322,-1.376 -2.6354,-2.5434 -4.3202,-3.6072 -2.8468,-1.797 -5.9626,-2.8132 -9.0962,-3.1064 L 31.8002,7.2990398 H 28.506 L 28.1766,10.29184 c -5.074,0.49 -9.912,2.85 -13.46,6.816 l -2.7438,-2.4018 -1.4728,10.3682 7.2044,-5.3418 -1.8352,-1.6078 c 3.1292,-2.7094 7.4632,-4.5204 12.3208,-4.9076 l 0.6494,27.412 h -6.8762 v 2.076 l 6.8614,-0.07584 v 1.726 c -2.122,0.4702 -3.698,2.196192 -3.698,4.2576 0,2.425 2.173,4.3872 4.8556,4.3872 2.6782,0 4.8528,-1.9622 4.8528,-4.3872 0,-2.0144 -1.5054,-3.7162 -3.554,-4.2322 v -1.697 l 7.064,0.024 v -2.076 h -6.8758 l 0.6634,-27.412 c 4.8234,0.387592 9.1244,2.1846 12.2448,4.87 l -1.7738,1.6458 7.205,5.2002 z m -17.51,23.678 c 0,1.1534 -1.0346,2.0894 -2.3106,2.0894 -1.2752,0 -2.3098,-0.9364 -2.3098,-2.0894 0,-1.154 1.0346,-2.0898 2.3098,-2.0898 1.2758,0 2.3106,0.9362 2.3106,2.0898 z" />
  </symbol>
  <use xlink:href="#notice_anchor" x="0" y="0" />
</svg>
