<?xml version="1.0" encoding="UTF-8" standalone="no"?>
<svg id="svg2" xmlns:rdf="http://www.w3.org/1999/02/22-rdf-syntax-ns#" xmlns="http://www.w3.org/2000/svg" height="400" width="300" version="1.0" xmlns:cc="http://creativecommons.org/ns#" xmlns:dc="http://purl.org/dc/elements/1.1/">
 <metadata id="metadata2822">
  <rdf:RDF>
   <cc:Work rdf:about="">
    <dc:format>image/svg+xml</dc:format>
    <dc:type rdf:resource="http://purl.org/dc/dcmitype/StillImage"/>
    <dc:title/>
   </cc:Work>
  </rdf:RDF>
 </metadata>
 <g id="g3660" transform="translate(0,80)">
  <path id="path3662" d="m181.56 18.588-6.5312-2.0938-30.469 68.063-29.781 32.594h-7.7812l-0.125 5.6562h31.062c1.2873 5.533 6.2333 9.6562 12.156 9.6562 5.925 0 10.871-4.1205 12.156-9.6562h24.125v-5.6562h-7.7812l-2.4688-22.344 16.625-72.625-7.1562-2.2812-4.0312-1.3125zm-2.2812 6.4062 4.9688 1.7812-15.219 68.031 2.4688 22.344h-9.25c-1.2825-5.5396-6.2286-9.6875-12.156-9.6875-5.9258 0-10.872 4.1506-12.156 9.6875h-13.594l26.25-28.375 28.688-63.781zm-21.7 94.981c0 4.14-3.36 7.5-7.5 7.5s-7.5-3.36-7.5-7.5 3.36-7.5 7.5-7.5 7.5 3.36 7.5 7.5z" fill-rule="evenodd" fill="#000204"/>
  <path id="path3664" d="m150.67 88.594 18.41 6.2197 0.12439-0.52868-18.348-6.2508-0.18659 0.55978z"/>
  <path id="path3666" d="m165.28 56.002 11.6 3.8873c-0.14141 0.29876-0.16166 0.36591-0.15549 0.59088l-11.693-3.9184 0.24879-0.55978z" fill="#000204"/>
  <path id="path3025" fill="#d40000" d="m160.24 90.94c-4.53-1.5635-8.3554-2.9618-8.5009-3.1073-0.14548-0.14549 2.8387-7.1668 6.6315-15.603l6.896-15.338 5.319 1.7832c2.9254 0.98079 5.4124 1.8767 5.5266 1.9909 0.27052 0.27052-6.8708 32.301-7.3049 32.764-0.18206 0.19416-4.0374-0.92623-8.5674-2.4898z"/>
  <path id="path3027" d="m171.04 57.628c-2.7409-0.92526-4.9834-1.8571-4.9834-2.0708 0-0.57814 12.925-29.217 13.405-29.702 0.22661-0.22903 1.3282-0.03362 2.448 0.43425 1.6885 0.70551 1.9821 1.0524 1.7206 2.0327-0.17346 0.6501-1.8145 7.9096-3.6468 16.132-1.8323 8.2226-3.4727 14.929-3.6455 14.903-0.17274-0.0261-2.5566-0.80443-5.2975-1.7297z"/>
  <path id="path3029" d="m126.79 115.03c1.043-1.1112 6.4659-6.9902 12.051-13.065 5.585-6.0744 10.564-11.488 11.065-12.029 0.8779-0.9494 1.2291-0.87566 9.7187 2.0408 4.8443 1.6642 8.8935 3.1115 8.9982 3.2162 0.10471 0.10472 0.73602 5.0654 1.4029 11.024l1.2125 10.833-4.3417-0.002-4.3417-0.002-0.99855-2.4281c-3.2561-7.9176-14.61-9.8001-20.659-3.4252-0.94799 0.99919-2.1028 2.7258-2.5663 3.837l-0.84266 2.0203h-6.2977-6.2977l1.8963-2.0203z"/>
 </g>
</svg>
