<svg
   xmlns="http://www.w3.org/2000/svg"
   version="1.0"
   width="60"
   height="60">
  <g>
    <path
       d="M 30.03125,3.53125 C 15.37581,3.53125 3.46875,15.42186 3.46875,30 c 0,14.57815 11.90706,26.46875 26.5625,26.46875 14.65544,0 26.5,-11.8906 26.5,-26.46875 0,-14.57814 -11.84456,-26.46875 -26.5,-26.46875 z m 0,3.9375 c 12.41465,0 22.4375,10.03859 22.4375,22.53125 0,12.49267 -10.02285,22.53125 -22.4375,22.53125 -12.41465,0 -22.5,-10.03858 -22.5,-22.53125 0,-12.49266 10.08535,-22.53125 22.5,-22.53125 z M 30,25.3125 c -2.580752,0 -4.65625,2.106777 -4.65625,4.6875 0,2.580723 2.075498,4.65625 4.65625,4.65625 2.580752,0 4.6875,-2.075527 4.6875,-4.65625 0,-2.580723 -2.106748,-4.6875 -4.6875,-4.6875 z"
       style="fill:#000000;fill-opacity:1" />
  </g>
</svg>
