<?xml version="1.0" encoding="UTF-8" standalone="no"?>
<svg id="svg2" xmlns:rdf="http://www.w3.org/1999/02/22-rdf-syntax-ns#" xmlns="http://www.w3.org/2000/svg" height="400" width="300" version="1.0" xmlns:cc="http://creativecommons.org/ns#" xmlns:dc="http://purl.org/dc/elements/1.1/">
 <metadata id="metadata2822">
  <rdf:RDF>
   <cc:Work rdf:about="">
    <dc:format>image/svg+xml</dc:format>
    <dc:type rdf:resource="http://purl.org/dc/dcmitype/StillImage"/>
    <dc:title/>
   </cc:Work>
  </rdf:RDF>
 </metadata>
 <g id="g3895" transform="translate(0,20)">
  <g id="g3897" transform="translate(-9.97 -9.9883)">
   <g id="g3899" transform="translate(0,-20)">
    <path id="path3901" d="m157.12 197.82c-4.5886 1.0983-8.2134 4.7404-9.2812 9.3438h-8.4375l-0.125 5.6562h8.5625c1.2873 5.533 6.2333 9.6562 12.156 9.6562 5.925 0 10.871-4.1205 12.156-9.6562l8.3125-0.0312v-5.6562l-8.3125 0.0312c-0.4895-2.1143-1.4985-4.0381-2.9062-5.5938l-12.125-3.75zm9.4375-1.0625-4.375-1.4375 4.375 1.4375zm-6.5625 5.7188c4.14 0 7.5 3.36 7.5 7.5s-3.36 7.5-7.5 7.5-7.5-3.36-7.5-7.5 3.36-7.5 7.5-7.5z" fill-rule="evenodd"/>
   </g>
   <g id="g3903" display="none" transform="translate(0,20)">
    <g id="g3905" display="inline" transform="translate(-.032616 -10.012)">
     <g id="g3909" display="none" transform="translate(0,40)">
      <g id="g3911" transform="translate(.053059 -19.898)">
       <path id="path3913" d="m237.08 81.894-5.5938 16.719 4.0312 1.3125 5.5938-16.688-4.0312-1.3438zm-14.481-8.4zm9.1251-2.4875z" fill-rule="evenodd" transform="translate(-40,-40)" fill="#000407"/>
      </g>
     </g>
     <g id="g3915" display="none" transform="translate(0,40)">
      <g id="g3917" transform="translate(-1.1251 -16.486)">
       <path id="path3919" d="m258.13 85.069-6.2-40.575-29.338 29 35.538 11.575zm-6.2-6.8375-20.212-7.225 16.65-16.75 3.5625 23.975z" fill-rule="evenodd" transform="translate(-40,-40)" fill="#000407"/>
      </g>
     </g>
     <g id="g3921" display="none" transform="translate(0,40)">
      <g id="g3923" transform="translate(-1.0006 -16.739)">
       <path id="path3925" d="m194.48 164.58zm6.0312 4.2188zm63.775-118.89-26.425-8.7875-11.575 33.787 26.425 8.6375 11.575-33.637zm-6.0625 3.6125-8.0125 23.975-17.088-6.2 8.0125-23.975 17.088 6.2z" fill-rule="evenodd" transform="translate(-40,-40)" fill="#000407"/>
      </g>
     </g>
     <g id="g3927" display="inline" transform="translate(0,40)">
      <g id="g3929" transform="translate(.016928 -20.003)">
       <path id="path3931" d="m131.6 181.31-61.628 76.308-4.5301 5.5783-5.5574 4.2237-6.8994 2.1092-7.3222-0.10972-6.8122-2.2963-5.7474-4.3373-4.2013-6.0873-2.2249-7.0512 0.15697-6.9752 2.7328-6.0895 4.5948-5.3084 5.5935-4.868 1.1742-0.94649 90.671-44.15zm28.001-25.261c2.1971-0.21962 4.1584 1.3852 4.378 3.5823 0.21962 2.1971-1.3852 4.1584-3.5823 4.378-2.1971 0.21962-4.1584-1.3852-4.378-3.5823-0.21962-2.1971 1.3852-4.1584 3.5823-4.378z" fill-rule="evenodd" fill="#a30075"/>
      </g>
     </g>
     <g id="g3933" display="none" transform="translate(0,40)">
      <g id="g3935" transform="translate(-1.2726 -15.886)">
       <path id="path3937" d="m206 5.6875c-9.3567 0-17 7.6433-17 17s7.6433 17 17 17 17-7.6433 17-17-7.6433-17-17-17zm0 5c6.6513 0 12 5.3487 12 12s-5.3487 12-12 12-12-5.3487-12-12 5.3487-12 12-12z" fill-rule="evenodd" fill="#000407"/>
      </g>
     </g>
     <g id="g3939" fill-rule="evenodd" transform="translate(0,40)" display="none" fill="#000407">
      <path id="path3941" d="m217.84 9.1611c0 8.004-6.496 14.5-14.5 14.5s-14.5-6.496-14.5-14.5 6.496-14.5 14.5-14.5 14.5 6.496 14.5 14.5z"/>
      <path id="path3943" d="m227.32-17.936c0 8.004-6.496 14.5-14.5 14.5s-14.5-6.496-14.5-14.5 6.496-14.5 14.5-14.5 14.5 6.496 14.5 14.5z"/>
     </g>
     <g id="g3945" transform="translate(0,40)" display="none">
      <path id="path3947" d="m191.54 38.594-6.5312-2.0938-30.469 68.063-29.781 32.594h-7.7812l-0.125 5.6562h31.062c1.2873 5.533 6.2333 9.6562 12.156 9.6562 5.925 0 10.871-4.1205 12.156-9.6562h24.125v-5.6562h-7.7812l-2.4688-22.344 16.625-72.625-7.1562-2.2812-4.0312-1.3125zm-2.2812 6.4062 4.9688 1.7812-15.219 68.031 2.4688 22.344h-9.25c-1.2825-5.5396-6.2286-9.6875-12.156-9.6875-5.9258 0-10.872 4.1506-12.156 9.6875h-13.594l26.25-28.375 28.688-63.781zm-21.7 94.981c0 4.14-3.36 7.5-7.5 7.5s-7.5-3.36-7.5-7.5 3.36-7.5 7.5-7.5 7.5 3.36 7.5 7.5z" fill-rule="evenodd" display="inline" fill="#000407"/>
      <path id="path3949" d="m191.66 45.835-27.913 82.17 0.60559 0.25569 27.76-82.265-0.45296-0.16018z" fill="#000204"/>
     </g>
     <g id="g3951" transform="translate(0,40)" display="none">
      <path id="path3953" d="m191.54 38.594-6.5312-2.0938-30.469 68.063-29.781 32.594h-7.7812l-0.125 5.6562h31.062c1.2873 5.533 6.2333 9.6562 12.156 9.6562 5.925 0 10.871-4.1205 12.156-9.6562h24.125v-5.6562h-7.7812l-2.4688-22.344 16.625-72.625-7.1562-2.2812-4.0312-1.3125zm-2.2812 6.4062 4.9688 1.7812-15.219 68.031 2.4688 22.344h-9.25c-1.2825-5.5396-6.2286-9.6875-12.156-9.6875-5.9258 0-10.872 4.1506-12.156 9.6875h-13.594l26.25-28.375 28.688-63.781zm-21.7 94.981c0 4.14-3.36 7.5-7.5 7.5s-7.5-3.36-7.5-7.5 3.36-7.5 7.5-7.5 7.5 3.36 7.5 7.5z" fill-rule="evenodd" display="inline" fill="#000204"/>
      <path id="path3955" d="m160.65 108.6 18.41 6.2197 0.12439-0.52868-18.348-6.2508-0.18659 0.55978z"/>
      <path id="path3957" d="m175.27 76.008 11.6 3.8873c-0.14141 0.29876-0.16166 0.36591-0.15549 0.59088l-11.693-3.9184 0.24879-0.55978z" fill="#000204"/>
     </g>
     <g id="g3959" transform="translate(0,40)" display="none">
      <path id="path3961" d="m191.54 38.594-6.5312-2.0938-30.469 68.063-29.781 32.594h-7.7812l-0.125 5.6562h31.062c1.2873 5.533 6.2333 9.6562 12.156 9.6562 5.925 0 10.871-4.1205 12.156-9.6562h24.125v-5.6562h-7.7812l-2.4688-22.344 16.625-72.625-7.1562-2.2812-4.0312-1.3125zm-2.2812 6.4062 4.9688 1.7812-15.219 68.031 2.4688 22.344h-9.25c-1.2825-5.5396-6.2286-9.6875-12.156-9.6875-5.9258 0-10.872 4.1506-12.156 9.6875h-13.594l26.25-28.375 28.688-63.781zm-21.7 94.981c0 4.14-3.36 7.5-7.5 7.5s-7.5-3.36-7.5-7.5 3.36-7.5 7.5-7.5 7.5 3.36 7.5 7.5z" fill-rule="evenodd" display="inline" fill="#000407"/>
      <path id="path3963" d="m168.85 90.31 14.508 5.0888-0.0591 0.54193-14.697-5.1199 0.24787-0.51084z"/>
     </g>
    </g>
   </g>
  </g>
  <path id="path3965" d="m175.2 76.385-31.25 92.875 17.562 5.9375 31.25-92.875-17.562-5.9375zm2.4688 4.875 10.344 3.5-28.656 85.125-10.344-3.4688 28.656-85.156z"/>
  <rect id="rect3967" transform="rotate(18.7)" height="1.2122" width="13.738" y="62.891" x="193.99"/>
  <path id="path3025" d="m169.17 123.59c-2.7585-0.93515-5.0162-1.745-5.0171-1.7996-0.002-0.11851 13.49-40.28 13.561-40.367 0.083-0.10151 10.032 3.2832 10.093 3.4338 0.0594 0.14567-13.374 40.199-13.532 40.349-0.0489 0.0462-2.3458-0.6811-5.1042-1.6162z"/>
  <path id="path3027" fill="#ffd400" d="m154.1 168.05-5.0009-1.7043 0.73624-2.1601c0.40494-1.188 3.6717-10.884 7.2595-21.546s6.5433-19.406 6.5678-19.431c0.0392-0.0392 10.064 3.3056 10.154 3.3878 0.08 0.0733-14.475 43.093-14.59 43.124-0.0691 0.0187-2.3761-0.73292-5.1266-1.6703z"/>
 </g>
</svg>
