<?xml version="1.0" encoding="UTF-8" standalone="no"?>
<svg id="svg2" xmlns:rdf="http://www.w3.org/1999/02/22-rdf-syntax-ns#" xmlns="http://www.w3.org/2000/svg" height="400" width="300" version="1.0" xmlns:cc="http://creativecommons.org/ns#" xmlns:dc="http://purl.org/dc/elements/1.1/">
 <metadata id="metadata2913">
  <rdf:RDF>
   <cc:Work rdf:about="">
    <dc:format>image/svg+xml</dc:format>
    <dc:type rdf:resource="http://purl.org/dc/dcmitype/StillImage"/>
    <dc:title/>
   </cc:Work>
  </rdf:RDF>
 </metadata>
 <g id="g19660">
  <g id="g19662">
   <g id="g19664">
    <path id="path19666" d="m129.33 154.26a24.438 23.625 0 1 1 42.9 0.12552" transform="matrix(1.1867 0 0 1.2275 -24.074 10.693)" stroke="#000" stroke-width="5.7998" fill="none"/>
    <path id="path19668" d="m115.97 137.17v5.6121l21.954 0.0442c1.2873 5.533 6.2333 9.6562 12.156 9.6562 5.925 0 10.871-4.1205 12.156-9.6562h29.844v-0.0625-5.5938h-76.11zm46.266 0c-1.2853-5.5357-6.2313-9.6562-12.156-9.6562-5.923 0.00001-10.869 4.1233-12.156 9.6562h24.312zm-12.156-4.6875c4.14 0 7.5 3.36 7.5 7.5s-3.36 7.5-7.5 7.5-7.5-3.36-7.5-7.5 3.36-7.5 7.5-7.5z" fill-rule="evenodd" transform="translate(0,60)" fill="#000407"/>
   </g>
   <rect id="rect19670" transform="matrix(.31730 -.94832 .94832 .31730 0 0)" height="52.705" width=".41421" stroke="#000" y="179.62" x="-125.88" fill="none"/>
   <rect id="rect19672" transform="matrix(.31730 -.94832 .94832 .31730 0 0)" height="48.075" width=".41421" stroke="#000" y="183.18" x="-114.36" fill="none"/>
  </g>
  <path id="path4472" d="m166.9 175.43c-6.7596-2.2658-15.746-5.2793-19.971-6.6966l-7.6803-2.577 0.36027-0.27509c1.1328-0.86495 3.3123-2.1713 4.5856-2.7484 2.3274-1.055 4.727-1.7596 7.2935-2.1417 1.1811-0.17583 4.3106-0.24784 5.5625-0.12798 5.1921 0.49707 9.8277 2.3637 13.846 5.5757 1.1361 0.90797 2.8044 2.5691 3.7094 3.6933 1.9647 2.4405 3.6542 5.5662 4.5394 8.3984 0.28295 0.90521 0.30153 1.033 0.149 1.0248-0.0579-0.003-5.6358-1.8595-12.395-4.1252z" stroke-width="0"/>
  <path id="path4474" d="m131.63 196.52c-1.406-3.0852-2.1527-6.6226-2.1569-10.217-0.003-2.8812 0.35832-5.2088 1.2337-7.9403 0.16661-0.51988 0.3335-0.99469 0.37086-1.0551 0.0523-0.0846 5.6169 1.7464 24.13 7.9398 13.234 4.4273 24.079 8.066 24.099 8.086 0.0561 0.0561-0.70531 2.2047-1.0776 3.0408l-0.33208 0.74585-7.8331 0.0215c-7.1901 0.0197-7.8331 0.0102-7.8331-0.1156 0-0.0754-0.13028-0.52643-0.28951-1.0023-0.89165-2.6647-2.6493-4.9479-5.0013-6.4968-3.0126-1.984-6.8508-2.556-10.365-1.5448-2.2282 0.64127-4.2827 1.9406-5.8382 3.6922-1.1773 1.3258-2.0143 2.7966-2.5596 4.4977l-0.31672 0.98807-2.9694 0.001-2.9694 0.001-0.29252-0.64189z" stroke-width="0"/>
  <path id="path4476" d="m155.79 183.86c-13.103-4.3895-23.891-7.9999-23.974-8.0231-0.13526-0.0376-0.1109-0.12306 0.22648-0.79483 0.88903-1.7702 1.8906-3.3384 3.0742-4.8132 0.83959-1.0462 2.5071-2.7717 2.7333-2.8283 0.1093-0.0273 8.2879 2.6691 21.097 6.9556 11.505 3.8501 20.926 7.0064 20.935 7.0138 0.009 0.007 0.097 0.54293 0.19581 1.1899 0.22904 1.5005 0.31608 4.4617 0.17329 5.8956-0.15109 1.5172-0.47988 3.4149-0.58817 3.3947-0.0273-0.005-10.77-3.6007-23.872-7.9903z" stroke-width="0" fill="#d40000"/>
 </g>
</svg>
