<?xml version="1.0" encoding="UTF-8" standalone="no"?>
<svg id="svg2" xmlns:rdf="http://www.w3.org/1999/02/22-rdf-syntax-ns#" xmlns="http://www.w3.org/2000/svg" height="400" width="300" version="1.0" xmlns:cc="http://creativecommons.org/ns#" xmlns:dc="http://purl.org/dc/elements/1.1/">
 <metadata id="metadata2913">
  <rdf:RDF>
   <cc:Work rdf:about="">
    <dc:format>image/svg+xml</dc:format>
    <dc:type rdf:resource="http://purl.org/dc/dcmitype/StillImage"/>
    <dc:title/>
   </cc:Work>
  </rdf:RDF>
 </metadata>
 <g id="g7856">
  <g id="g7858">
   <g id="g7860">
    <path id="path7862" d="m129.33 154.26a24.438 23.625 0 1 1 42.9 0.12552" transform="matrix(1.1867 0 0 1.2275 -24.074 10.693)" stroke="#000" stroke-width="5.7998" fill="none"/>
    <path id="path7864" d="m115.97 137.17v5.6121l21.954 0.0442c1.2873 5.533 6.2333 9.6562 12.156 9.6562 5.925 0 10.871-4.1205 12.156-9.6562h29.844v-0.0625-5.5938h-76.11zm46.266 0c-1.2853-5.5357-6.2313-9.6562-12.156-9.6562-5.923 0.00001-10.869 4.1233-12.156 9.6562h24.312zm-12.156-4.6875c4.14 0 7.5 3.36 7.5 7.5s-3.36 7.5-7.5 7.5-7.5-3.36-7.5-7.5 3.36-7.5 7.5-7.5z" fill-rule="evenodd" transform="translate(0,60)" fill="#000407"/>
   </g>
   <rect id="rect7866" transform="matrix(.31730 -.94832 .94832 .31730 0 0)" height="52.705" width=".41421" stroke="#000" y="179.83" x="-128.38" fill="none"/>
   <rect id="rect7868" transform="matrix(.31730 -.94832 .94832 .31730 0 0)" height="49.169" width=".41421" stroke="#000" y="181.14" x="-119.83" fill="none"/>
   <rect id="rect7870" transform="matrix(.31730 -.94832 .94832 .31730 0 0)" height="48.075" width=".41421" stroke="#000" y="183.21" x="-110.98" fill="none"/>
  </g>
  <path id="path8811" fill="#d40000" d="m160.37 169.67-17.536-5.8629 0.99466-0.48446c2.5133-1.2242 5.3193-2.048 8.1376-2.3893 1.329-0.16092 4.2713-0.18131 5.4839-0.038 6.1838 0.73079 11.428 3.2598 15.576 7.5111 1.5268 1.5649 2.4694 2.7603 3.5161 4.4595 0.53632 0.87062 1.4419 2.5929 1.3894 2.6423-0.0144 0.0136-7.9174-2.6136-17.562-5.8383z"/>
  <path id="path8813" fill="#d40000" d="m154.86 186.18c-23.715-7.9396-24.058-8.0574-24.008-8.2542 0.30131-1.2005 2.1013-4.8031 3.0044-6.0132 0.1043-0.13974 1.6512 0.36564 23.254 7.5972 12.728 4.2608 23.155 7.7469 23.17 7.7469 0.14304 0-0.15145 2.5326-0.47963 4.1248-0.27999 1.3584-0.69064 2.8008-0.80644 2.8324-0.0415 0.0114-10.902-3.6039-24.134-8.0339z"/>
  <path id="path8815" fill="#00d400" d="m157.6 178.09c-12.422-4.1585-22.605-7.5808-22.629-7.6052-0.0731-0.0731 1.3954-1.7291 2.3067-2.6013 0.94731-0.90671 2.0572-1.8148 3.1236-2.5556l0.70689-0.49111 1.8185 0.60309c1.0002 0.33169 9.4781 3.165 18.84 6.2962l17.021 5.6932 0.25143 0.7695c0.52394 1.6035 0.82265 2.8706 1.0635 4.5112 0.16169 1.1015 0.26093 2.9523 0.15796 2.9458-0.0419-0.003-10.239-3.4072-22.661-7.5657z"/>
  <path id="path8817" fill="#00d400" d="m131.61 196.47c-1.0293-2.2586-1.8078-5.2535-2.057-7.9129-0.18491-1.9733-0.0668-4.7928 0.28208-6.7344 0.18942-1.0541 0.48035-2.2308 0.55156-2.2308 0.0356 0 10.872 3.6176 24.081 8.0391s24.026 8.0391 24.038 8.0391c0.0117 0-0.11614 0.32218-0.28403 0.71596l-0.30525 0.71595-7.8179-0.0215-7.8179-0.0215-0.3296-1.0042c-0.46035-1.4026-1.2661-2.8909-2.1223-3.9203-1.8599-2.236-4.2114-3.7022-6.9945-4.3609-0.85044-0.2013-1.0926-0.22138-2.7019-0.22398-1.4182-0.002-1.9176 0.0286-2.5254 0.15621-2.7623 0.57998-5.3351 2.1025-7.0731 4.1858-1.2378 1.4837-2.0331 3.0362-2.6147 5.1043-0.023 0.0816-0.70065 0.10522-3.0254 0.10522h-2.9958l-0.2877-0.63132z"/>
 </g>
</svg>
