<?xml version="1.0" encoding="UTF-8" standalone="no"?>
<!-- Created with Inkscape (http://www.inkscape.org/) -->

<svg
   xmlns:dc="http://purl.org/dc/elements/1.1/"
   xmlns:cc="http://creativecommons.org/ns#"
   xmlns:rdf="http://www.w3.org/1999/02/22-rdf-syntax-ns#"
   xmlns:svg="http://www.w3.org/2000/svg"
   xmlns="http://www.w3.org/2000/svg"
   version="1.0"
   width="300"
   height="400"
   id="svg2"
   style="display:inline">
  <metadata
     id="metadata2913">
    <rdf:RDF>
      <cc:Work
         rdf:about="">
        <dc:format>image/svg+xml</dc:format>
        <dc:type
           rdf:resource="http://purl.org/dc/dcmitype/StillImage" />
        <dc:title></dc:title>
      </cc:Work>
    </rdf:RDF>
  </metadata>
  <defs
     id="defs4" />
  <g
     transform="translate(0,60)"
     id="layer9"
     style="display:none">
    <path
       d="m 150.08836,15.229831 -18.16912,36.9639 36.2188,-0.004 -18.0057,-36.96035 -0.044,4.5e-4 z m -0.0247,10.4431 11.11743,21.535039 -22.19017,-0.06882 11.07274,-21.466222 z"
       id="path4179"
       style="fill:#000407;fill-opacity:1;fill-rule:evenodd;stroke:none" />
    <g
       transform="matrix(1,0,0,0.80521456,-10.008382,-3.1935566)"
       id="g2884"
       style="display:inline">
      <path
         d="m 197.875,108.625 0,17.71875 4.25,0 0,-17.71875 -4.25,0 z"
         transform="translate(-40,-40)"
         id="path2886"
         style="fill:#000407;fill-opacity:1;fill-rule:evenodd;stroke:none" />
    </g>
  </g>
  <g
     transform="translate(0,60)"
     id="g4037"
     style="display:inline">
    <path
       d="m 150.09375,27.84375 -18.1875,36.9375 36.21875,0 -18,-36.9375 -0.0312,0 z"
       id="path3990"
       style="fill:#00d400;fill-opacity:1;fill-rule:evenodd;stroke:#000000;stroke-width:4;stroke-miterlimit:4;stroke-opacity:1;stroke-dasharray:none" />
    <path
       d="m 150.03788,30.40472 -18.1875,-36.9375004 36.21875,0 -18,36.9375004 -0.0312,0 z"
       id="path3990-7"
       style="fill:#d40000;fill-opacity:1;stroke:#000000;stroke-width:4;stroke-miterlimit:4;stroke-opacity:1;stroke-dasharray:none;display:inline" />
  </g>
</svg>
