<?xml version="1.0" encoding="UTF-8" standalone="no"?>
<svg id="svg2" xmlns:rdf="http://www.w3.org/1999/02/22-rdf-syntax-ns#" xmlns="http://www.w3.org/2000/svg" height="400" width="300" version="1.0" xmlns:cc="http://creativecommons.org/ns#" xmlns:dc="http://purl.org/dc/elements/1.1/">
 <metadata id="metadata2913">
  <rdf:RDF>
   <cc:Work rdf:about="">
    <dc:format>image/svg+xml</dc:format>
    <dc:type rdf:resource="http://purl.org/dc/dcmitype/StillImage"/>
    <dc:title/>
   </cc:Work>
  </rdf:RDF>
 </metadata>
 <g id="layer9" transform="translate(0,60)">
  <path id="path4179" d="m150.09 15.23-18.169 36.964 36.219-0.004-18.006-36.96-0.044 0.00045zm-0.0247 10.443 11.117 21.535-22.19-0.06882 11.073-21.466z" fill-rule="evenodd" fill="#000407"/>
  <g id="g2884" transform="matrix(1 0 0 .80521 -10.008 -3.1936)">
   <path id="path2886" d="m197.88 108.62v17.719h4.25v-17.719h-4.25z" fill-rule="evenodd" transform="translate(-40,-40)" fill="#000407"/>
  </g>
  <path id="path11213" d="m144.53 107.11c-2.9747-0.0123-5.4085-0.0451-5.4085-0.0729 0-0.0942 10.893-21.161 10.941-21.161 0.0403 0 4.7881 9.1529 9.8342 18.958l1.2038 2.3393-5.5812-0.0204c-3.0696-0.0112-8.015-0.0305-10.99-0.0427z" transform="translate(0,-60)" stroke="#000" stroke-width=".084179" fill="#00d400"/>
 </g>
</svg>
