<?xml version="1.0" encoding="UTF-8" standalone="no"?>
<svg id="svg2" xmlns:rdf="http://www.w3.org/1999/02/22-rdf-syntax-ns#" xmlns="http://www.w3.org/2000/svg" height="400" width="300" version="1.0" xmlns:cc="http://creativecommons.org/ns#" xmlns:dc="http://purl.org/dc/elements/1.1/">
 <metadata id="metadata2913">
  <rdf:RDF>
   <cc:Work rdf:about="">
    <dc:format>image/svg+xml</dc:format>
    <dc:type rdf:resource="http://purl.org/dc/dcmitype/StillImage"/>
    <dc:title/>
   </cc:Work>
  </rdf:RDF>
 </metadata>
 <g id="layer11" transform="translate(0,60)">
  <g id="g3206" transform="translate(-12.396 38.177)">
   <path id="path13269" d="m162.48-23.367c-9.3567 0-17 7.6433-17 17s7.6433 17 17 17 17-7.6433 17-17-7.6433-17-17-17zm0 5c6.6513 0 12 5.3487 12 12s-5.3487 12-12 12-12-5.3487-12-12 5.3487-12 12-12z" fill-rule="evenodd" fill="#000407"/>
  </g>
  <g id="g2896" transform="translate(-10.008 -20.012)">
   <path id="path2898" d="m197.88 108.62v17.719h4.25v-17.719h-4.25z" fill-rule="evenodd" transform="translate(-40,-40)" fill="#000407"/>
  </g>
  <path id="path14269" d="m149.18 103.71c-3.8131-0.25805-7.3244-2.4217-9.3673-5.7721-1.5388-2.5236-2.0602-5.9307-1.3579-8.872 1.2146-5.0867 5.5648-8.793 10.739-9.1494 6.9784-0.48066 12.821 4.9408 12.821 11.897 0 2.9537-1.045 5.7004-3.0188 7.9343-2.4546 2.778-6.0238 4.2188-9.8156 3.9622z" transform="translate(0,-60)" stroke="#000" stroke-width=".084179" fill="#d40000"/>
 </g>
</svg>
