<?xml version="1.0" encoding="UTF-8" standalone="no"?>
<svg id="svg2" xmlns:rdf="http://www.w3.org/1999/02/22-rdf-syntax-ns#" xmlns="http://www.w3.org/2000/svg" height="400" width="300" version="1.0" xmlns:cc="http://creativecommons.org/ns#" xmlns:dc="http://purl.org/dc/elements/1.1/">
 <metadata id="metadata2913">
  <rdf:RDF>
   <cc:Work rdf:about="">
    <dc:format>image/svg+xml</dc:format>
    <dc:type rdf:resource="http://purl.org/dc/dcmitype/StillImage"/>
    <dc:title/>
   </cc:Work>
  </rdf:RDF>
 </metadata>
 <g id="layer9" transform="translate(0,60)">
  <path id="path4179" d="m150.09 15.23-18.169 36.964 36.219-0.004-18.006-36.96-0.044 0.00045zm-0.0247 10.443 11.117 21.535-22.19-0.06882 11.073-21.466z" fill-rule="evenodd" fill="#000407"/>
  <g id="g2884" transform="matrix(1 0 0 .80521 -10.008 -3.1936)">
   <path id="path2886" d="m197.88 108.62v17.719h4.25v-17.719h-4.25z" fill-rule="evenodd" transform="translate(-40,-40)" fill="#000407"/>
  </g>
  <path id="path13013" d="m149.24 107.14c-5.5674-0.012-10.123-0.0457-10.123-0.0751 0-0.0726 10.777-20.962 10.893-21.115 0.0727-0.09553 1.2629 2.1475 5.5641 10.486 3.0094 5.8342 5.4843 10.644 5.4997 10.687 0.0168 0.0477-0.32115 0.0714-0.84179 0.0591-0.47842-0.0114-5.425-0.0305-10.992-0.0424z" transform="translate(0,-60)" stroke="#000" stroke-width=".084179" fill="#ffd400"/>
 </g>
</svg>
