<?xml version="1.0" encoding="UTF-8" standalone="no"?>
<svg id="svg2" xmlns:rdf="http://www.w3.org/1999/02/22-rdf-syntax-ns#" xmlns="http://www.w3.org/2000/svg" height="400" width="300" version="1.0" xmlns:cc="http://creativecommons.org/ns#" xmlns:dc="http://purl.org/dc/elements/1.1/">
 <metadata id="metadata2913">
  <rdf:RDF>
   <cc:Work rdf:about="">
    <dc:format>image/svg+xml</dc:format>
    <dc:type rdf:resource="http://purl.org/dc/dcmitype/StillImage"/>
    <dc:title/>
   </cc:Work>
  </rdf:RDF>
 </metadata>
 <g id="layer4">
  <g id="layer5" transform="translate(-19.789 142.36)">
   <g id="g3094" transform="translate(-11.273 -35.911)">
    <path id="path13269-3" d="m206 5.6875c-9.3567 0-17 7.6433-17 17s7.6433 17 17 17 17-7.6433 17-17-7.6433-17-17-17zm0 5c6.6513 0 12 5.3487 12 12s-5.3487 12-12 12-12-5.3487-12-12 5.3487-12 12-12z" fill-rule="evenodd" fill="#000407"/>
   </g>
   <path id="path3474" d="m187.13 1.9714-5.5938 16.719 4.0312 1.3125 5.5938-16.687-4.0312-1.3438z" fill-rule="evenodd" fill="#000407"/>
  </g>
  <rect id="rect3217" transform="matrix(.94832 .31730 -.31730 .94832 0 0)" height=".92597" width="25.927" y="66.378" x="193.77"/>
  <path id="path3987" fill="#d40000" d="m175.14 128.56c-6.1577-2.0619-11.224-3.7758-11.259-3.8086-0.15273-0.14418 0.90271-2.0279 1.7117-3.0549 3.1458-3.9938 8.6385-5.5278 13.474-3.763 4.6654 1.7026 7.8247 6.239 7.8147 11.221-0.002 1.1314-0.31615 3.1731-0.48573 3.1596-0.0329-0.003-5.098-1.6918-11.256-3.7537z"/>
  <path id="path3989" fill="#00d400" d="m173.08 140.95c-2.5801-0.4562-4.7939-1.585-6.5568-3.3434-2.1615-2.1559-3.353-4.856-3.5125-7.9593-0.0691-1.3439 0.26032-3.7982 0.51895-3.8671 0.0441-0.0117 5.1372 1.6726 11.318 3.7429 10.118 3.3891 11.235 3.7808 11.211 3.93-0.0146 0.0912-0.19206 0.50667-0.39439 0.92336-1.6145 3.325-4.6271 5.6568-8.3758 6.4832-0.85379 0.18821-3.352 0.24178-4.209 0.0903z"/>
 </g>
</svg>
