<svg
   xmlns="http://www.w3.org/2000/svg"
   version="1.0"
   width="40"
   height="100">
  <path
     d="m 19.981,18.545373 -17.625,36 c 5.1249433,0.0031 10.427008,-0.06475 14.84375,-0.09375 l 0,1.03125 c -4.947917,0 -9.8958333,0 -14.84375,0 0,0 11.39469,22.78207 16.25,32.875 -0.4375,0 -0.1685,1.27e-4 -0.606,1.27e-4 0,6.256402 0,6.21864 0,11.642 1.910964,0 2.285798,0 3.999939,0 0,-6.168187 0,-6.352965 0,-11.642 -0.34375,0 -0.143939,-1.27e-4 -0.487689,-1.27e-4 l 16.125,-32.875 c -5.0625,0 -10.125,0 -15.1875,0 l 0,-1.03125 c 5.331803,-0.0259 10.393877,-0.0625 15.1875,-0.0625 z M 20,25 33,51.5 7,51.5 z M 7,58.5 33,58.5 20,85 z"/>
</svg>
