<?xml version="1.0" encoding="UTF-8" standalone="no"?>
<svg id="svg2" xmlns:rdf="http://www.w3.org/1999/02/22-rdf-syntax-ns#" xmlns="http://www.w3.org/2000/svg" height="400" width="300" version="1.0" xmlns:cc="http://creativecommons.org/ns#" xmlns:dc="http://purl.org/dc/elements/1.1/">
 <metadata id="metadata2822">
  <rdf:RDF>
   <cc:Work rdf:about="">
    <dc:format>image/svg+xml</dc:format>
    <dc:type rdf:resource="http://purl.org/dc/dcmitype/StillImage"/>
    <dc:title/>
   </cc:Work>
  </rdf:RDF>
 </metadata>
 <g id="layer2" transform="translate(0,80)">
  <g id="g2916" transform="translate(-11.126 -36.51)">
   <path id="path27763-0" d="m258.13 85.069-6.2-40.575-29.338 29 35.538 11.575zm-6.2-6.8375-20.212-7.225 16.65-16.75 3.5625 23.975z" fill-rule="evenodd" transform="translate(-40,-40)" fill="#000407"/>
  </g>
  <path id="path3462" d="m187.13 1.9714-5.5938 16.719 4.0312 1.3125 5.5938-16.687-4.0312-1.3438z" fill-rule="evenodd" fill="#000407"/>
  <path id="path17807" d="m198.05 80.674c-1.3062-0.47266-5.7343-2.0612-9.8401-3.53l-7.4651-2.6706 8.2099-8.2894c4.5154-4.5592 8.2251-8.2402 8.2437-8.18 0.0186 0.06017 0.7946 5.2563 1.7245 11.547 0.92992 6.2906 1.7197 11.564 1.7551 11.719 0.0411 0.17984 0.007 0.2781-0.0943 0.27251-0.0873-0.0048-1.2274-0.39546-2.5336-0.86813z" transform="translate(0,-80)" stroke="#000" stroke-width=".125" fill="#ffd400"/>
 </g>
</svg>
