<?xml version="1.0" encoding="UTF-8" standalone="no"?>
<svg id="svg2" xmlns:rdf="http://www.w3.org/1999/02/22-rdf-syntax-ns#" xmlns="http://www.w3.org/2000/svg" height="400" width="300" version="1.0" xmlns:cc="http://creativecommons.org/ns#" xmlns:dc="http://purl.org/dc/elements/1.1/">
 <metadata id="metadata2913">
  <rdf:RDF>
   <cc:Work rdf:about="">
    <dc:format>image/svg+xml</dc:format>
    <dc:type rdf:resource="http://purl.org/dc/dcmitype/StillImage"/>
    <dc:title/>
   </cc:Work>
  </rdf:RDF>
 </metadata>
 <g id="layer3" transform="translate(0,60)">
  <g id="g3683">
   <g id="g2984" transform="translate(-11.255 -10.496)">
    <path id="path4420" d="m179.34 93.031-6.375 18.563c0.005 0.001 4.1268 1.2844 4.0938 1.25l6.3125-18.469-4.0312-1.3438z" fill-rule="evenodd" fill="#000407"/>
   </g>
   <g id="g2990" transform="translate(-16.977 6.36)" stroke="#000" fill="none">
    <path id="path2992" d="m166.75 81.3 17.938-8.9375-8.9375-17.938 4.475-2.25 9.275 18.063 17.95-8.9625 2.2375 4.5-18.275 8.8375 8.9375 17.937-4.15 2.35-9.275-18.062-17.938 8.95-2.2375-4.4875z" stroke="#000" fill="none"/>
   </g>
  </g>
  <path id="path28713" d="m179.26 160.17c-0.0907-0.18047-1.8382-3.5869-3.8832-7.5699l-3.7183-7.2417 0.25499-0.74502 0.25498-0.74502-0.13843-0.0518c-0.0761-0.0285-0.42369-0.14489-0.77234-0.25871l-0.63392-0.20695-0.20628-0.42641c-0.11346-0.23452-0.22195-0.42504-0.24109-0.42337-0.0191 0.002-0.21624 0.0963-0.43801 0.21037l-0.40321 0.20735-0.6233-0.20991c-0.34281-0.11545-0.6331-0.2001-0.64508-0.18812-0.012 0.012-0.11358 0.29558-0.22577 0.63023l-0.20399 0.60844-7.6906 3.8282-7.6906 3.8282-0.87863-1.7585-0.87863-1.7586 8.9622-4.4606c4.9292-2.4534 8.9622-4.4655 8.9622-4.4713 0-0.006-2.0083-4.0442-4.463-8.9741l-4.463-8.9634 1.7598-0.88394c0.96791-0.48618 1.763-0.87993 1.7668-0.875 0.004 0.005 2.0254 3.9464 4.4925 8.7589s4.5532 8.8691 4.6358 9.0146l0.15016 0.26465 7.4511-3.7265c4.0981-2.0496 8.1338-4.0584 8.9683-4.4641l1.5172-0.73763 0.877 1.7531c0.48235 0.96422 0.86834 1.7594 0.85775 1.767-0.0106 0.008-4.1114 1.9908-9.113 4.407s-9.1051 4.4034-9.119 4.416 1.9888 4.0594 4.4504 8.9928c4.4306 8.8797 4.4742 8.9708 4.3377 9.0567-0.25086 0.15781-3.0443 1.7251-3.0747 1.7251-0.0164 0-0.10404-0.14766-0.19475-0.32813z" transform="translate(0,-60)" stroke="#000" stroke-width=".0625" fill="#ffd400"/>
 </g>
</svg>
