<?xml version="1.0" encoding="UTF-8" standalone="no"?>
<svg id="svg2" xmlns:rdf="http://www.w3.org/1999/02/22-rdf-syntax-ns#" xmlns="http://www.w3.org/2000/svg" height="400" width="300" version="1.0" xmlns:cc="http://creativecommons.org/ns#" xmlns:dc="http://purl.org/dc/elements/1.1/">
 <metadata id="metadata2913">
  <rdf:RDF>
   <cc:Work rdf:about="">
    <dc:format>image/svg+xml</dc:format>
    <dc:type rdf:resource="http://purl.org/dc/dcmitype/StillImage"/>
    <dc:title/>
   </cc:Work>
  </rdf:RDF>
 </metadata>
 <g id="g2845" transform="translate(0,80)">
  <path id="path2847" d="m126.57 46.297-4.625 70.875h-8.1562v5.6562h24c1.2873 5.533 6.2333 9.6562 12.156 9.6562 5.925 0 10.871-4.1205 12.156-9.6562h24v-5.6562h-8.1562l-4.9688-70.875h-46.406zm6.7188 7.0938h33.312l4.5938 63.781h-9.0938c-1.2853-5.5357-6.2313-9.6562-12.156-9.6562-5.923 0.00001-10.869 4.1233-12.156 9.6562h-9.0938l4.5938-63.781zm16.656 59.094c4.14 0 7.5 3.36 7.5 7.5s-3.36 7.5-7.5 7.5-7.5-3.36-7.5-7.5 3.36-7.5 7.5-7.5z" fill-rule="evenodd" fill="#000407"/>
  <rect id="rect2849" height="1.1435" width="37.119" y="71.875" x="131.21"/>
  <rect id="rect2851" height="1.2314" width="39.67" y="92.018" x="130.24"/>
  <path id="path3863" d="m132.31 69.312c0.11821-1.3062 0.38581-5.0665 0.59465-8.3562s0.45225-6.3376 0.54091-6.773l0.16119-0.79165h16.338 16.338l0.17534 1.1435c0.0964 0.62891 0.34554 3.6767 0.55357 6.773 0.20803 3.0962 0.47341 6.6982 0.58975 8.0044l0.21151 2.3749h-17.859-17.859l0.21494-2.3749z"/>
  <path id="path3867" d="m129.01 116.46c-0.005-0.33865 0.34218-5.6427 0.77106-11.787l0.7798-11.171h19.385 19.385l0.78818 11.171c0.43349 6.144 0.78382 11.448 0.77851 11.787-0.009 0.55305-0.45734 0.61572-4.4077 0.61572-3.282 0-4.3989-0.1116-4.4015-0.4398-0.008-1.0632-1.8251-4.2022-3.2101-5.5463-4.9993-4.8517-13.062-4.8306-17.939 0.0469-1.3207 1.3207-3.113 4.4788-3.121 5.4993-0.003 0.3282-1.1194 0.4398-4.4014 0.4398-3.9507 0-4.3989-0.0626-4.4068-0.61572z"/>
  <path id="path3869" fill="#d40000" d="m130.78 91.126c-0.004-1.2737 1.11-16.482 1.263-17.24l0.15979-0.79165h17.755 17.755l0.1612 0.79165c0.0887 0.4354 0.33339 3.4832 0.54386 6.773 0.21046 3.2897 0.47944 7.1292 0.59772 8.5322l0.21505 2.5508h-19.224c-18.073 0-19.224-0.0368-19.226-0.61572z"/>
 </g>
</svg>
