<svg
   xmlns:svg="http://www.w3.org/2000/svg"
   xmlns="http://www.w3.org/2000/svg"
   version="1.1"
   width="300"
   height="400">
  <path
     d="m 117.1875,27 0,47 11.84375,0 -6.6875,123 -9.65625,0 0,6 22.28125,0 c 1.40275,7.10789 7.71539,12.5 15.21875,12.5 7.50342,0 13.81606,-5.39203 15.21875,-12.5 l 22.28125,0 0,-6 -9.65625,0 -6.6875,-123 11.84375,0 0,-47 z m 6,6 54,0 0,35 c -18.44829,0 -38.41083,0 -54,0 z m 11.84375,41 30.3125,0 c 2.20005,41.0015 4.4578,82.00006 6.6875,123 l -6.625,0 c -1.40269,-7.10797 -7.71533,-12.5 -15.21875,-12.5 -7.50336,0 -13.816,5.39211 -15.21875,12.5 l -6.625,0 c 2.10086,-41.00619 4.61164,-81.99252 6.6875,-123 z m 15.15625,116.5 c 5.28224,0 9.5,4.21776 9.5,9.5 0,5.28224 -4.21776,9.5 -9.5,9.5 -5.28224,0 -9.5,-4.21776 -9.5,-9.5 0,-5.28224 4.21776,-9.5 9.5,-9.5 z"
     style="fill:#000000;fill-opacity:1;stroke:none" />
</svg>
